<?xml version="1.0" encoding="iso-8859-1"?>
<!-- Generator: Adobe Illustrator 30.2.1, SVG Export Plug-In . SVG Version: 9.03 Build 0)  -->
<svg version="1.1" id="Layer_1" xmlns="http://www.w3.org/2000/svg" xmlns:xlink="http://www.w3.org/1999/xlink" x="0px" y="0px"
	 viewBox="0 0 824.202148 45.443359" style="enable-background:new 0 0 824.202148 45.443359;" xml:space="preserve">
<g>
	<g>
		<path style="fill:#032044;" d="M0,30.998291h9.857422c0.620117,4.649658,4.21582,6.81958,8.927734,6.81958
			c4.339355,0,7.625488-1.797852,7.625488-5.08374c0-2.851807-2.666016-4.277832-7.439453-5.269775l-4.339844-0.929932
			C5.393555,24.612549,1.054199,20.45874,1.054199,13.825195c0-7.935547,7.625488-13.453125,16.924805-13.453125
			c9.485352,0,16.677246,4.897705,17.544922,13.515137h-9.79541c-0.558105-3.719727-3.533691-5.889648-7.811523-5.889648
			c-3.967773,0-7.067383,2.045898-7.067383,4.959717c0,2.60376,1.921875,3.719727,6.26123,4.587646l4.835938,1.053955
			c8.741699,1.736084,14.383301,5.641846,14.383301,13.205322c0,8.92749-8.369629,13.63916-17.606934,13.63916
			C8.679688,45.443359,0.868164,40.855713,0,30.998291z"/>
		<path style="fill:#032044;" d="M38.693359,28.456299c0-10.043457,7.811523-16.677002,17.048828-16.677002
			c8.369629,0,14.941406,4.959717,15.933105,12.647217h-9.299316c-0.744141-3.037598-3.409668-4.959717-6.633789-4.959717
			c-4.339355,0-7.377441,3.657959-7.377441,8.989502c0,5.517822,3.100098,9.299561,7.377441,9.299561
			c3.162109,0,5.704102-1.797852,6.571777-5.021729h9.361328c-1.239746,7.935547-7.873535,12.709229-15.994629,12.709229
			C46.256836,45.443359,38.693359,38.809814,38.693359,28.456299z"/>
		<path style="fill:#032044;" d="M84.776855,44.699463h-9.42334V0.062012h9.42334V13.63916c0,0.86792,0,1.674072,0,2.417969
			c2.045898-2.665771,5.456055-4.21582,9.423828-4.21582c7.005371,0,11.717285,4.21582,11.717285,12.833252v20.024902h-9.423828
			V26.348389c0-4.091553-2.107422-6.44751-5.641602-6.44751c-3.285645,0-6.075684,2.417969-6.075684,7.6875V44.699463z"/>
		<path style="fill:#032044;" d="M109.422363,28.456299c0-10.229248,7.873535-16.677002,17.420898-16.677002
			c9.609375,0,17.421387,6.385742,17.421387,16.677002c0,10.353516-7.75,16.987061-17.421387,16.987061
			C117.109863,45.443359,109.422363,38.871826,109.422363,28.456299z M134.592773,28.456299
			c0-5.393555-3.161621-8.989502-7.749512-8.989502c-4.649414,0-7.749512,3.595947-7.749512,8.989502
			c0,5.641846,3.162109,9.299561,7.749512,9.299561C131.493164,37.755859,134.592773,34.160156,134.592773,28.456299z"/>
		<path style="fill:#032044;" d="M146.25,28.456299c0-10.229248,7.873535-16.677002,17.420898-16.677002
			c9.609375,0,17.420898,6.385742,17.420898,16.677002c0,10.353516-7.749512,16.987061-17.420898,16.987061
			C153.9375,45.443359,146.25,38.871826,146.25,28.456299z M171.42041,28.456299c0-5.393555-3.161621-8.989502-7.749512-8.989502
			c-4.649414,0-7.749512,3.595947-7.749512,8.989502c0,5.641846,3.162109,9.299561,7.749512,9.299561
			C168.320801,37.755859,171.42041,34.160156,171.42041,28.456299z"/>
		<path style="fill:#032044;" d="M184.999512,0.062012h9.42334v44.637451h-9.42334V0.062012z"/>
		<path style="fill:#032044;" d="M213.208984,28.456299c0-10.229248,7.873535-16.677002,17.420898-16.677002
			c9.609375,0,17.420898,6.385742,17.420898,16.677002c0,10.353516-7.749512,16.987061-17.420898,16.987061
			C220.896484,45.443359,213.208984,38.871826,213.208984,28.456299z M238.379395,28.456299
			c0-5.393555-3.161621-8.989502-7.749512-8.989502c-4.649414,0-7.749512,3.595947-7.749512,8.989502
			c0,5.641846,3.162109,9.299561,7.749512,9.299561C235.279785,37.755859,238.379395,34.160156,238.379395,28.456299z"/>
		<path style="fill:#032044;" d="M263.062012,19.466797v25.232666h-9.175293V19.466797h-5.331543v-6.881592h5.331543V9.175537
			C253.886719,2.10791,257.916504,0,263.992188,0c2.417969,0,3.967773,0,6.137695,0.062012v6.943604
			c-1.302246-0.062012-2.541992-0.062012-3.905762-0.062012c-1.859863,0-3.162109,0.496094-3.162109,3.099854v2.541748h7.067871
			v6.881592H263.062012z"/>
		<path style="fill:#032044;" d="M288.544922,1.302002h10.105469v16.677002h18.908691V1.302002h10.105469v43.397461h-10.105469
			V26.4104h-18.908691v18.289062h-10.105469V1.302002z"/>
		<path style="fill:#032044;" d="M349.266602,45.443359c-9.299805,0-17.111328-6.385498-17.111328-16.987061
			c0-10.29126,8.05957-16.677002,16.924805-16.677002c9.113281,0,16.615234,6.075684,16.615234,17.359131v1.921875h-24.116211
			c0.496094,4.649658,3.78125,7.439453,7.99707,7.439453c2.727539,0,5.456055-0.929932,6.757812-3.47168h9.051758
			C363.401367,42.219482,356.333984,45.443359,349.266602,45.443359z M341.516602,25.108643h14.693359
			c-0.30957-3.905762-3.223633-6.447754-7.253906-6.447754C345.112305,18.660889,342.012695,21.016846,341.516602,25.108643z"/>
		<path style="fill:#032044;" d="M389.632812,41.041748c-2.107422,2.60376-5.393555,4.3396-10.042969,4.3396
			c-6.076172,0-11.90332-3.47168-11.90332-10.043457c0-6.695557,5.393555-9.05127,13.886719-10.415283l7.37793-1.177979v-0.433838
			c0-3.471924-1.921875-4.835938-5.269531-4.835938c-3.410156,0-5.517578,1.612061-6.076172,4.587891h-8.802734
			c1.053711-7.005615,7.191406-11.283447,15.3125-11.283447c8.679688,0,14.135742,3.409912,14.073242,12.461426l-0.061523,13.63916
			c0,1.053955,0.061523,2.913818,0.248047,6.81958h-8.618164L389.632812,41.041748z M382.007812,38.685791
			c3.78125,0,6.943359-2.231934,6.943359-6.695557v-2.169922c-8.493164,1.053955-12.151367,1.983887-12.151367,5.08374
			C376.799805,37.383789,379.032227,38.685791,382.007812,38.685791z"/>
		<path style="fill:#032044;" d="M403.597656,0.062012h9.422852v44.637451h-9.422852V0.062012z"/>
		<path style="fill:#032044;" d="M420.727539,35.958008V19.466797h-5.208008v-6.881592h5.208008V4.587646h9.237305v7.997559
			h7.128906v6.881592h-7.128906v14.321289c0,3.223877,0.991211,3.84375,3.533203,3.84375h3.595703v7.005615
			c-2.169922,0.124023-3.967773,0.124023-7.004883,0.124023C424.199219,44.761475,420.727539,43.025635,420.727539,35.958008z"/>
		<path style="fill:#032044;" d="M450.59082,44.699463h-9.422852V0.062012h9.422852V13.63916c0,0.86792,0,1.674072,0,2.417969
			c2.045898-2.665771,5.456055-4.21582,9.423828-4.21582c7.005859,0,11.716797,4.21582,11.716797,12.833252v20.024902h-9.422852
			V26.348389c0-4.091553-2.108398-6.44751-5.641602-6.44751c-3.286133,0-6.076172,2.417969-6.076172,7.6875V44.699463z"/>
		<path style="fill:#032044;" d="M492.50293,1.302002h18.661133c10.601562,0,16.119141,5.827637,16.119141,14.197021
			c0,8.617676-5.765625,14.445312-16.180664,14.445312h-8.494141v14.755127H492.50293V1.302002z M509.676758,21.884766
			c4.897461,0,7.439453-2.479736,7.439453-6.261719c0-3.781738-2.604492-6.261475-7.439453-6.261475h-7.068359v12.523193H509.676758
			z"/>
		<path style="fill:#032044;" d="M539.422852,44.699463H530V12.585205h9.113281v4.773926
			c0.557617-0.991943,1.301758-1.921875,2.231445-2.728027c1.860352-1.487793,3.658203-2.293701,6.695312-2.293701
			c0.806641,0,1.736328,0.062012,2.293945,0.185791v8.679688c-1.487305-0.186035-2.231445-0.186035-3.161133-0.186035
			c-3.53418,0-7.75,1.302002-7.75,7.377441V44.699463z"/>
		<path style="fill:#032044;" d="M551.104492,28.456299c0-10.229248,7.873047-16.677002,17.420898-16.677002
			c9.609375,0,17.420898,6.385742,17.420898,16.677002c0,10.353516-7.75,16.987061-17.420898,16.987061
			C558.791992,45.443359,551.104492,38.871826,551.104492,28.456299z M576.274414,28.456299
			c0-5.393555-3.162109-8.989502-7.749023-8.989502c-4.650391,0-7.75,3.595947-7.75,8.989502
			c0,5.641846,3.162109,9.299561,7.75,9.299561C573.174805,37.755859,576.274414,34.160156,576.274414,28.456299z"/>
		<path style="fill:#032044;" d="M600.957031,19.466797v25.232666h-9.175781V19.466797h-5.331055v-6.881592h5.331055V9.175537
			C591.78125,2.10791,595.811523,0,601.886719,0c2.417969,0,3.967773,0,6.137695,0.062012v6.943604
			c-1.301758-0.062012-2.541016-0.062012-3.905273-0.062012c-1.860352,0-3.162109,0.496094-3.162109,3.099854v2.541748h7.067383
			v6.881592H600.957031z"/>
		<path style="fill:#032044;" d="M625.712891,45.443359c-9.298828,0-17.110352-6.385498-17.110352-16.987061
			c0-10.29126,8.058594-16.677002,16.924805-16.677002c9.113281,0,16.615234,6.075684,16.615234,17.359131v1.921875h-24.117188
			c0.496094,4.649658,3.782227,7.439453,7.998047,7.439453c2.727539,0,5.455078-0.929932,6.756836-3.47168h9.051758
			C639.848633,42.219482,632.780273,45.443359,625.712891,45.443359z M617.963867,25.108643h14.692383
			c-0.30957-3.905762-3.223633-6.447754-7.25293-6.447754C621.55957,18.660889,618.459961,21.016846,617.963867,25.108643z"/>
		<path style="fill:#032044;" d="M644.12793,34.531982h8.741211c0.496094,2.97583,3.038086,4.401855,6.509766,4.401855
			c2.728516,0,5.145508-0.991943,5.145508-3.223877c0-1.983887-1.797852-2.851807-5.827148-3.533691l-3.347656-0.620117
			c-6.572266-1.177979-10.664062-4.091797-10.664062-9.237305c0-6.571777,6.076172-10.601562,13.825195-10.601562
			c7.37793,0,13.454102,3.719971,14.321289,10.291504h-8.617188c-0.620117-2.417969-2.727539-3.781738-5.889648-3.781738
			c-2.727539,0-4.773438,1.239746-4.773438,3.161865c0,1.797852,1.611328,2.479736,5.083008,3.099609l3.286133,0.558105
			c7.31543,1.301758,11.655273,4.153809,11.655273,9.733398c0,7.067627-6.695312,10.66333-14.382812,10.66333
			C651.319336,45.443359,645.057617,42.033691,644.12793,34.531982z"/>
		<path style="fill:#032044;" d="M675.623047,34.531982h8.741211c0.496094,2.97583,3.038086,4.401855,6.509766,4.401855
			c2.728516,0,5.145508-0.991943,5.145508-3.223877c0-1.983887-1.797852-2.851807-5.827148-3.533691l-3.347656-0.620117
			c-6.572266-1.177979-10.664062-4.091797-10.664062-9.237305c0-6.571777,6.076172-10.601562,13.825195-10.601562
			c7.37793,0,13.454102,3.719971,14.321289,10.291504h-8.617188c-0.620117-2.417969-2.727539-3.781738-5.889648-3.781738
			c-2.727539,0-4.773438,1.239746-4.773438,3.161865c0,1.797852,1.611328,2.479736,5.083008,3.099609l3.286133,0.558105
			c7.31543,1.301758,11.655273,4.153809,11.655273,9.733398c0,7.067627-6.695312,10.66333-14.382812,10.66333
			C682.814453,45.443359,676.552734,42.033691,675.623047,34.531982z"/>
		<path style="fill:#032044;" d="M708.947266,0.062012h9.485352v7.811523h-9.485352V0.062012z M708.947266,12.585205h9.422852
			v32.114258h-9.422852V12.585205z"/>
		<path style="fill:#032044;" d="M722.041992,28.456299c0-10.229248,7.873047-16.677002,17.420898-16.677002
			c9.609375,0,17.420898,6.385742,17.420898,16.677002c0,10.353516-7.75,16.987061-17.420898,16.987061
			C729.729492,45.443359,722.041992,38.871826,722.041992,28.456299z M747.211914,28.456299
			c0-5.393555-3.162109-8.989502-7.749023-8.989502c-4.650391,0-7.75,3.595947-7.75,8.989502
			c0,5.641846,3.162109,9.299561,7.75,9.299561C744.112305,37.755859,747.211914,34.160156,747.211914,28.456299z"/>
		<path style="fill:#032044;" d="M770.133789,44.699463h-9.422852V12.585205h9.113281v3.905762
			c2.045898-2.97583,5.579102-4.649658,9.733398-4.649658c7.005859,0,11.716797,4.21582,11.716797,12.833252v20.024902h-9.422852
			V26.348389c0-4.091553-2.108398-6.44751-5.641602-6.44751c-3.286133,0-6.076172,2.417969-6.076172,7.6875V44.699463z"/>
		<path style="fill:#032044;" d="M794.753906,34.531982h8.741211c0.496094,2.97583,3.038086,4.401855,6.509766,4.401855
			c2.728516,0,5.145508-0.991943,5.145508-3.223877c0-1.983887-1.797852-2.851807-5.827148-3.533691l-3.347656-0.620117
			c-6.572266-1.177979-10.664062-4.091797-10.664062-9.237305c0-6.571777,6.076172-10.601562,13.825195-10.601562
			c7.37793,0,13.454102,3.719971,14.321289,10.291504h-8.617188c-0.620117-2.417969-2.727539-3.781738-5.889648-3.781738
			c-2.727539,0-4.773438,1.239746-4.773438,3.161865c0,1.797852,1.611328,2.479736,5.083008,3.099609l3.286133,0.558105
			c7.31543,1.301758,11.655273,4.153809,11.655273,9.733398c0,7.067627-6.695312,10.66333-14.382812,10.66333
			C801.945312,45.443359,795.683594,42.033691,794.753906,34.531982z"/>
	</g>
</g>
<g>
</g>
<g>
</g>
<g>
</g>
<g>
</g>
<g>
</g>
<g>
</g>
<g>
</g>
<g>
</g>
<g>
</g>
<g>
</g>
<g>
</g>
<g>
</g>
<g>
</g>
<g>
</g>
<g>
</g>
</svg>
