<?xml version="1.0" encoding="UTF-8"?><svg id="Layer_1" xmlns="http://www.w3.org/2000/svg" width="1924.64" height="1012.01" viewBox="0 0 1924.64 1012.01"><defs><style>.cls-1{fill:#f15a22;}.cls-2{fill:#fff;}</style></defs><path class="cls-2" d="M23.02,932.47H0v-11.92h60.22v11.92h-23.02v60.02h-14.18v-60.02ZM82.63,992.49h-13.15v-74h13.15v26.93c3.39-4.73,9.04-7.4,15.72-7.4,11.72,0,19.32,7.3,19.32,21.27v33.19h-13.15v-31.24c0-7.3-3.91-11.92-10.59-11.92-6.06,0-11.3,4.63-11.3,14.29v28.88ZM153.64,993.62c-15.11,0-27.75-10.48-27.75-28.16s13.05-27.44,27.23-27.44,26.72,9.76,26.72,28.67v2.88h-40.59c1.03,8.43,7.19,13.67,14.8,13.67,4.93,0,9.87-1.64,12.33-6.37h12.95c-3.29,11.71-14.7,16.75-25.69,16.75ZM139.15,960.22h27.13c-.62-7.19-5.96-11.92-13.36-11.92-6.99,0-12.85,4.42-13.77,11.92ZM215.51,963.81v-43.27h14.18v42.55c0,11.72,6.47,18.29,16.03,18.29s15.93-6.48,15.93-18.19v-42.65h14.18v43.16c0,19.11-12.54,30.01-30.21,30.01s-30.11-10.69-30.11-29.91ZM300.71,992.49h-13.15v-53.24h12.95v6.37c3.39-4.83,9.15-7.6,15.93-7.6,11.72,0,19.32,7.3,19.32,21.27v33.19h-13.15v-31.24c0-7.3-3.9-11.92-10.59-11.92-6.06,0-11.3,4.63-11.3,14.29v28.88ZM347.78,918.49h13.36v12.33h-13.36v-12.33ZM347.89,939.25h13.15v53.24h-13.15v-53.24ZM401.84,992.49h-13.98l-19.73-53.24h13.77l13.26,38.95,13.36-38.95h13.05l-19.73,53.24ZM450.86,993.62c-15.11,0-27.75-10.48-27.75-28.16s13.05-27.44,27.23-27.44,26.72,9.76,26.72,28.67v2.88h-40.59c1.03,8.43,7.19,13.67,14.8,13.67,4.93,0,9.87-1.64,12.33-6.37h12.95c-3.29,11.71-14.7,16.75-25.69,16.75ZM436.37,960.22h27.13c-.62-7.19-5.96-11.92-13.36-11.92-6.99,0-12.85,4.42-13.77,11.92ZM499.58,992.49h-13.15v-53.24h12.85v8.12c1.13-1.85,2.47-3.6,4.21-5.04,3.18-2.47,6.17-3.49,10.79-3.49,1.44,0,2.78.1,3.7.31v12.44c-2.57-.21-3.8-.21-5.24-.21-5.75,0-13.15,2.06-13.15,12.44v28.67ZM522.39,975.63h12.44c.93,5.65,5.75,8.22,11.92,8.22,5.04,0,9.87-1.95,9.87-6.17,0-3.8-3.6-5.45-10.69-6.68l-5.34-.93c-10.69-1.95-17.16-6.78-17.16-15.11,0-10.69,9.76-17.06,21.79-17.06s21.38,5.96,22.71,16.65h-12.23c-1.23-4.52-5.14-6.78-10.79-6.78-5.14,0-9.04,2.36-9.04,5.96,0,3.39,2.98,4.63,9.04,5.76l5.34.93c11.71,2.05,19.01,6.68,19.01,15.93,0,11.3-10.79,17.37-22.71,17.37-12.54,0-22.81-5.75-24.15-18.09ZM579.33,918.49h13.36v12.33h-13.36v-12.33ZM579.43,939.25h13.15v53.24h-13.15v-53.24ZM609.65,978.2v-28.88h-8.94v-10.07h8.94v-12.95h13.05v12.95h12.33v10.07h-12.33v26.31c0,5.65,1.75,6.58,5.96,6.58h6.37v10.18c-3.8.2-6.06.2-10.59.2-9.04,0-14.8-2.67-14.8-14.39ZM666.07,1012.01h-13.57l9.66-23.33-21.27-49.43h13.98l13.77,34.63,12.74-34.63h13.36l-28.67,72.76ZM723.52,965.56c0-16.75,12.64-27.54,28.06-27.54s27.95,10.59,27.95,27.54-12.54,28.06-27.95,28.06-28.06-10.79-28.06-28.06ZM765.97,965.56c0-9.66-5.86-16.44-14.39-16.44s-14.49,6.68-14.49,16.44,5.86,16.96,14.49,16.96,14.39-6.78,14.39-16.96ZM805.33,949.32v43.16h-12.85v-43.16h-9.15v-10.07h9.15v-5.75c0-11.72,6.37-15.21,16.13-15.21,3.39,0,5.76.1,8.74.21v10.17c-1.95-.1-4.01-.21-6.06-.21-3.39,0-5.96,1.03-5.96,5.86v4.93h12.03v10.07h-12.03ZM869.87,932.47h-23.02v-11.92h60.22v11.92h-23.02v60.02h-14.18v-60.02ZM932.46,993.62c-15.11,0-27.75-10.48-27.75-28.16s13.05-27.44,27.23-27.44,26.72,9.76,26.72,28.67v2.88h-40.59c1.03,8.43,7.19,13.67,14.8,13.67,4.93,0,9.87-1.64,12.33-6.37h12.95c-3.29,11.71-14.7,16.75-25.69,16.75ZM917.97,960.22h27.13c-.62-7.19-5.96-11.92-13.36-11.92-6.99,0-12.85,4.42-13.77,11.92ZM987.03,973.88l-12.03,18.6h-14.49l18.5-26.82-18.09-26.41h15l11.72,17.99,11.51-17.99h14.39l-17.98,25.9,18.4,27.34h-15.11l-11.82-18.6ZM1052.7,985.91c-3.49,4.83-9.04,7.71-16.96,7.71-9.87,0-19.42-5.55-19.42-16.44s9.25-15.21,23.33-17.47l12.13-1.95v-.62c0-6.68-3.7-9.25-9.97-9.25s-10.07,2.98-11.2,8.43h-12.54c1.54-11.3,11.51-18.29,24.26-18.29s22.51,5.24,22.4,20.04l-.21,23.43c0,1.75.1,4.52.51,11h-12.13l-.21-6.58ZM1038.72,983.65c7.19,0,13.05-4.32,13.05-12.85v-3.7c-15.93,2.06-22.61,3.7-22.61,9.45,0,4.63,4.01,7.09,9.56,7.09ZM1072.74,975.63h12.44c.93,5.65,5.75,8.22,11.92,8.22,5.04,0,9.87-1.95,9.87-6.17,0-3.8-3.6-5.45-10.69-6.68l-5.34-.93c-10.69-1.95-17.16-6.78-17.16-15.11,0-10.69,9.76-17.06,21.79-17.06s21.38,5.96,22.71,16.65h-12.23c-1.23-4.52-5.14-6.78-10.79-6.78-5.14,0-9.04,2.36-9.04,5.96,0,3.39,2.98,4.63,9.04,5.76l5.34.93c11.71,2.05,19.01,6.68,19.01,15.93,0,11.3-10.79,17.37-22.71,17.37-12.54,0-22.81-5.75-24.15-18.09ZM1188.56,985.91c-3.49,4.83-9.04,7.71-16.96,7.71-9.87,0-19.42-5.55-19.42-16.44s9.25-15.21,23.33-17.47l12.13-1.95v-.62c0-6.68-3.7-9.25-9.97-9.25s-10.07,2.98-11.2,8.43h-12.54c1.54-11.3,11.51-18.29,24.25-18.29s22.51,5.24,22.4,20.04l-.21,23.43c0,1.75.1,4.52.51,11h-12.13l-.21-6.58ZM1174.59,983.65c7.19,0,13.05-4.32,13.05-12.85v-3.7c-15.93,2.06-22.61,3.7-22.61,9.45,0,4.63,4.01,7.09,9.56,7.09ZM1214.88,978.2v-28.88h-8.94v-10.07h8.94v-12.95h13.05v12.95h12.33v10.07h-12.33v26.31c0,5.65,1.75,6.58,5.96,6.58h6.37v10.18c-3.8.2-6.06.2-10.59.2-9.04,0-14.8-2.67-14.8-14.39ZM1271.81,969.98h13.77c1.23,8.43,7.91,12.54,16.34,12.54s14.29-3.6,14.29-9.66c0-5.45-5.14-8.22-13.67-9.97l-7.4-1.64c-14.29-3.08-21.38-9.66-21.38-20.35,0-12.95,12.23-21.89,27.13-21.89s26.62,8.02,28.06,21.99h-13.77c-1.03-6.68-6.37-10.69-14.29-10.69-7.4,0-13.36,3.8-13.36,9.46,0,4.83,3.49,6.99,11.2,8.63l8.43,1.75c13.98,2.88,23.02,9.25,23.02,21.27,0,14.9-13.57,22.3-28.26,22.3-16.03,0-28.67-7.71-30.11-23.74ZM1373.46,985.91c-3.49,4.83-9.04,7.71-16.96,7.71-9.87,0-19.42-5.55-19.42-16.44s9.25-15.21,23.33-17.47l12.13-1.95v-.62c0-6.68-3.7-9.25-9.97-9.25s-10.07,2.98-11.2,8.43h-12.54c1.54-11.3,11.51-18.29,24.26-18.29s22.51,5.24,22.4,20.04l-.21,23.43c0,1.75.1,4.52.51,11h-12.13l-.21-6.58ZM1359.48,983.65c7.19,0,13.05-4.32,13.05-12.85v-3.7c-15.93,2.06-22.61,3.7-22.61,9.45,0,4.63,4.01,7.09,9.56,7.09ZM1409.73,992.49h-13.15v-53.24h12.95v6.37c3.39-4.83,9.15-7.6,15.93-7.6,11.72,0,19.32,7.3,19.32,21.27v33.19h-13.15v-31.24c0-7.3-3.91-11.92-10.59-11.92-6.06,0-11.3,4.63-11.3,14.29v28.88ZM1528.13,975.73h-30.93l-6.17,16.75h-14.29l28.16-71.94h16.24l28.06,71.94h-14.9l-6.17-16.75ZM1523.81,964.12l-11.1-30.01-11.2,30.01h22.3ZM1569.75,992.49h-13.15v-53.24h12.95v6.37c3.39-4.83,9.15-7.6,15.93-7.6,11.72,0,19.32,7.3,19.32,21.27v33.19h-13.15v-31.24c0-7.3-3.9-11.92-10.59-11.92-6.06,0-11.3,4.63-11.3,14.29v28.88ZM1621.14,978.2v-28.88h-8.94v-10.07h8.94v-12.95h13.05v12.95h12.33v10.07h-12.33v26.31c0,5.65,1.75,6.58,5.96,6.58h6.37v10.18c-3.8.2-6.06.2-10.59.2-9.04,0-14.8-2.67-14.8-14.39ZM1651.05,965.56c0-16.75,12.64-27.54,28.06-27.54s27.95,10.59,27.95,27.54-12.54,28.06-27.95,28.06-28.06-10.79-28.06-28.06ZM1693.49,965.56c0-9.66-5.86-16.44-14.39-16.44s-14.49,6.68-14.49,16.44,5.86,16.96,14.49,16.96,14.39-6.78,14.39-16.96ZM1729.05,992.49h-13.15v-53.24h12.95v6.37c3.39-4.83,9.15-7.6,15.93-7.6,11.72,0,19.32,7.3,19.32,21.27v33.19h-13.15v-31.24c0-7.3-3.91-11.92-10.59-11.92-6.06,0-11.3,4.63-11.3,14.29v28.88ZM1775.61,918.49h13.36v12.33h-13.36v-12.33ZM1775.71,939.25h13.15v53.24h-13.15v-53.24ZM1798.32,965.56c0-16.75,12.64-27.54,28.06-27.54s27.95,10.59,27.95,27.54-12.54,28.06-27.95,28.06-28.06-10.79-28.06-28.06ZM1840.76,965.56c0-9.66-5.86-16.44-14.39-16.44s-14.49,6.68-14.49,16.44,5.86,16.96,14.49,16.96,14.39-6.78,14.39-16.96Z"/><path class="cls-2" d="M650.16,715.59c-9.63-12.15-26.49-18.89-42.76-18.89-43.92,0-69.82,35.07-69.82,77.69s24.58,77.69,69.49,77.69c16.29,0,33.37-6.76,43.09-18.94l1.17,15.66h35.07v-148.82h-35.07l-1.16,15.62ZM613.3,821.58c-23.6,0-38.35-20.98-38.35-47.2s14.75-47.2,38.35-47.2c18.25,0,29.82,11.69,36.39,24.88v44.64c-6.57,13.19-18.13,24.88-36.39,24.88ZM847.02,754.05v94.73h-36.71v-91.45c0-15.41-8.85-28.19-25.57-28.19-17.72,0-32.5,14.63-39.34,29.27v90.38h-36.71v-148.16h35.4l1.03,20.58c11.37-16.38,29.55-23.53,47.48-23.53,34.75,0,54.41,22.62,54.41,56.38ZM120.3,661.62h38.68v115.71c0,50.48-33.76,74.74-80.31,74.74-49.17,0-78.67-26.55-78.67-73.43v-117.02h38.68v113.09c0,29.17,17.05,43.92,40.97,43.92s40.65-14.75,40.65-43.92v-113.09ZM423.18,712.1c0,14.1,14.42,19.67,35.07,23.27,36.39,6.23,69.49,17.7,69.49,59.66,0,38.35-30.81,57.04-73.43,57.04-49.17,0-78.34-26.88-77.03-70.48h39.34c.33,24.58,14.1,38.35,37.7,38.35,19.34,0,32.12-5.9,32.12-21.63s-12.13-22.62-37.7-26.88c-30.81-5.24-66.87-14.75-66.87-56.05,0-36.39,30.81-57.04,70.8-57.04,43.27,0,74.41,23.27,75.06,61.63h-39.34c-.66-17.05-13.77-29.5-35.73-29.5-17.05,0-29.5,7.87-29.5,21.63ZM175.37,661.62h159.31v39.66l-60.31-15.08v162.59h-38.68v-162.59l-60.31,15.08v-39.66ZM1408.2,697.35c-45.89,0-74.41,31.14-74.41,77.36s28.52,77.36,74.41,77.36,74.41-31.14,74.41-77.36-28.52-77.36-74.41-77.36ZM1408.2,822.24c-23.93,0-37.37-20.65-37.37-47.53s13.44-47.53,37.37-47.53,37.37,20.65,37.37,47.53-13.44,47.53-37.37,47.53ZM1653.72,650.8h39.34v35.4h-39.34v-35.4ZM1779.92,697.35c-45.89,0-74.41,31.14-74.41,77.36s28.52,77.36,74.41,77.36,74.41-31.14,74.41-77.36-28.52-77.36-74.41-77.36ZM1779.92,822.24c-23.93,0-37.37-20.65-37.37-47.53s13.44-47.53,37.37-47.53,37.37,20.65,37.37,47.53-13.44,47.53-37.37,47.53ZM1655.03,700.62h36.71v148.16h-36.71v-148.16ZM1224.31,754.05v94.73h-36.71v-91.45c0-15.41-8.85-28.19-25.57-28.19-17.72,0-32.5,14.63-39.34,29.27v90.38h-36.71v-148.16h35.4l1.03,20.58c11.37-16.38,29.55-23.53,47.48-23.53,34.75,0,54.41,22.62,54.41,56.38ZM1634.71,754.05v94.73h-36.71v-91.45c0-15.41-8.85-28.19-25.57-28.19-17.72,0-32.5,14.63-39.34,29.27v90.38h-36.71v-148.16h35.4l1.03,20.58c11.37-16.38,29.55-23.53,47.48-23.53,34.75,0,54.41,22.62,54.41,56.38ZM928.31,661.62l20.84,27.49-56.57,159.68h38.68l15.34-44.58h75.43l15.1,44.58h39.99l-64.58-187.17h-84.24ZM957.66,772.08l15.23-44.25,11.52-37.91,11.76,37.91,14.99,44.25h-53.49ZM1291.51,700.62h39.01v29.83h-39.01v66.21c0,16.39,4.59,22.29,21.31,22.29h17.7v29.83h-26.55c-37.04,0-49.17-19.01-49.17-47.86v-70.48h-23.6v-29.83h23.6v-26.88l36.71-18.36v45.24Z"/><path class="cls-1" d="M924.2,368.17c-18.05,69.37-77.24,105.46-132.75,112.85l136.45,74,136.45-74c-55.5-7.4-114.72-43.48-132.75-112.85h-7.4ZM921.88,0h-258.1v87.87c86.49,17.58,218.77,13.41,258.1-87.87ZM933.89,0c39.33,101.29,171.61,105.46,258.1,87.87V0h-258.1ZM932.05,206.74c24.52,103.61,133.22,132.75,257.64,108.23-6.94,37.94-22.2,74.01-45.8,103.61-138.76,7.39-200.74-45.8-212.77-138.29h-6.47c-12.01,92.51-74.02,145.7-212.77,138.29-23.59-29.61-38.86-65.68-45.79-103.61,124.42,24.52,233.11-4.62,257.63-108.23h8.32ZM931.12,118.87c.92,8.78,3.24,19.9,5.09,27.75,24.05,93.44,125.8,129.51,255.78,102.69v-95.75c-103.16,21.28-230.8,9.26-259.94-108.23h-8.32c-29.14,117.5-156.81,129.51-259.94,108.23v95.75c129.96,26.82,231.72-9.25,255.78-102.69,1.86-7.85,4.16-18.96,5.09-27.75h6.47Z"/><path id="RegistrationMark" class="cls-2" d="M1870.55,725.92c0-15.11,12.01-27.12,26.98-27.12s27.11,11.47,27.11,27.12-12.41,26.98-27.11,26.98-26.98-12.01-26.98-26.98ZM1918.57,725.92c0-11.33-9.44-21.58-21.04-21.58s-21.05,10.12-21.05,21.58,9.44,21.45,21.05,21.45,21.04-9.85,21.04-21.45ZM1893.07,729.42v10.12h-6.07v-27.65h13.09c5.93,0,9.04,4.05,9.04,8.63,0,4.05-2.43,6.61-5.4,7.69v.13c.4.54.68.94,1.48,2.7l4.72,8.5h-7.01l-4.86-9.04c-.4-.94-.68-1.08-1.75-1.08h-3.24ZM1893.07,724.3h5.53c2.83,0,4.18-1.35,4.18-3.64s-1.48-3.78-4.18-3.78h-5.53v7.42Z"/></svg>