<svg version="1.1" id="Layer_1" xmlns="http://www.w3.org/2000/svg" x="0" y="0" viewBox="0 0 53.8 18.7" xml:space="preserve"><style>.st0{fill:#fff}</style><path class="st0" d="M15.3 1.8v8.6c0 2-.1 3.9-1.6 5.4-1.3 1.3-3.3 1.7-5.1 1.7-1.8 0-3.8-.5-5.1-1.7C2.1 14.3 2 12.3 2 10.4V1.8h4v8c0 2 .1 4.2 2.7 4.2s2.7-2.2 2.7-4.1v-8h3.9z"/><path class="st0" d="M21.7 17h-4V5.1h-3.3V1.8H25v3.4h-3.3V17z"/><path class="st0" d="M32.6 5.7c-.7-.6-1.7-1-2.6-1-.7 0-1.7.4-1.7 1.3s1.1 1.2 1.8 1.5l1 .3c2.1.6 3.8 1.7 3.8 4.2 0 1.5-.4 3.1-1.6 4.1-1.2 1-2.8 1.4-4.3 1.4-1.9 0-3.8-.6-5.4-1.7l1.7-3.2c1 .9 2.2 1.6 3.5 1.6.9 0 1.9-.5 1.9-1.5 0-1.1-1.6-1.5-2.4-1.7-2.5-.7-4.1-1.4-4.1-4.3 0-3.1 2.2-5.1 5.3-5.1 1.5 0 3.4.5 4.8 1.3l-1.7 2.8z"/><path class="st0" d="M38.3 14.4l-1 2.7h-4.2L39 1.8h4.3L49 17h-4.2l-1-2.6h-5.5zm2.8-7.9l-1.7 4.9h3.3l-1.6-4.9zm9.1 8.6c.6 0 1 .5 1 1 0 .6-.5 1-1 1s-1.1-.5-1.1-1c0-.6.5-1 1.1-1zm0 .2c-.5 0-.8.4-.8.8 0 .5.3.8.8.8s.8-.4.8-.8c0-.5-.4-.8-.8-.8zm-.2 1.3h-.2v-1h.4c.2 0 .3 0 .4.1.1 0 .1.1.1.2s-.1.2-.2.2c.1 0 .2.1.2.2 0 .2 0 .2.1.2h-.3s0-.1-.1-.2c0-.1-.1-.2-.2-.2H50v.5zm0-.6h.1c.1 0 .2-.1.2-.1 0-.1-.1-.2-.2-.2H50v.3z"/></svg>