<svg xmlns="http://www.w3.org/2000/svg" width="233.297" height="75.004" viewBox="0 0 233.297 75.004"><defs><style>.a{fill:#f15a22;}.b{fill:#032044;}</style></defs><g transform="translate(-0.01 0.01)"><path class="a" d="M10.458,11.629,18.107,1.68h7.74L16.283,13.1,26.743,25.8H18.619L10.462,15.341V25.8H4.19V1.68h6.268Z" transform="translate(-2.508 -1.014)"/><path class="a" d="M73.238,1.68V20.489h7.516V25.8H66.97V1.68Z" transform="translate(-40.175 -1.014)"/><path class="a" d="M122.1,6.988h-7.452v4.032h7.036v5.308h-7.036v4.16H122.1V25.8H108.38V1.68H122.1V6.988Z" transform="translate(-65.02 -1.014)"/><path class="a" d="M165.089,6.838a7.854,7.854,0,0,0-2.048-1.232,5.417,5.417,0,0,0-1.984-.4,3.217,3.217,0,0,0-1.984.576,1.793,1.793,0,0,0-.768,1.5,1.492,1.492,0,0,0,.384,1.056,3.393,3.393,0,0,0,1.008.72,8.346,8.346,0,0,0,1.408.528c.524.148,1.04.308,1.552.48a9.713,9.713,0,0,1,4.5,2.736,6.749,6.749,0,0,1,1.424,4.46,8.7,8.7,0,0,1-.624,3.36,7.011,7.011,0,0,1-1.824,2.576,8.4,8.4,0,0,1-2.944,1.664,12.223,12.223,0,0,1-3.948.592,14.532,14.532,0,0,1-8.476-2.72l2.688-5.052a10.779,10.779,0,0,0,2.784,1.856,6.709,6.709,0,0,0,2.72.608,3.251,3.251,0,0,0,2.288-.7,2.181,2.181,0,0,0,.56-2.544,2.021,2.021,0,0,0-.64-.736,5.158,5.158,0,0,0-1.168-.624c-.48-.192-1.06-.4-1.744-.64-.812-.256-1.6-.54-2.384-.848a7.451,7.451,0,0,1-2.08-1.232,5.7,5.7,0,0,1-1.472-1.936,6.867,6.867,0,0,1-.56-2.96,8.526,8.526,0,0,1,.592-3.248,7.269,7.269,0,0,1,1.664-2.5A7.436,7.436,0,0,1,156.632.566,9.909,9.909,0,0,1,160.1-.01a15.143,15.143,0,0,1,3.744.5,16.626,16.626,0,0,1,3.744,1.456l-2.5,4.892Z" transform="translate(-90.447)"/><path class="a" d="M215.063,6.838a7.854,7.854,0,0,0-2.048-1.232,5.416,5.416,0,0,0-1.984-.4,3.217,3.217,0,0,0-1.984.576,1.793,1.793,0,0,0-.768,1.5,1.492,1.492,0,0,0,.384,1.056,3.393,3.393,0,0,0,1.008.72,8.346,8.346,0,0,0,1.408.528c.524.148,1.04.308,1.552.48a9.677,9.677,0,0,1,4.492,2.736,6.749,6.749,0,0,1,1.424,4.46,8.7,8.7,0,0,1-.624,3.36A7.011,7.011,0,0,1,216.1,23.2a8.4,8.4,0,0,1-2.944,1.664,12.205,12.205,0,0,1-3.948.592,14.532,14.532,0,0,1-8.476-2.72l2.688-5.052a10.847,10.847,0,0,0,2.784,1.856,6.709,6.709,0,0,0,2.72.608,3.258,3.258,0,0,0,2.288-.7,2.181,2.181,0,0,0,.56-2.544,2.021,2.021,0,0,0-.64-.736,5.158,5.158,0,0,0-1.168-.624c-.48-.192-1.06-.4-1.744-.64-.812-.256-1.6-.54-2.384-.848a7.451,7.451,0,0,1-2.08-1.232,5.746,5.746,0,0,1-1.472-1.936,6.867,6.867,0,0,1-.56-2.96,8.526,8.526,0,0,1,.592-3.248,7.269,7.269,0,0,1,1.664-2.5A7.437,7.437,0,0,1,206.6.566a9.909,9.909,0,0,1,3.472-.576,15.143,15.143,0,0,1,3.744.5,16.626,16.626,0,0,1,3.744,1.456l-2.5,4.892Z" transform="translate(-120.428)"/><path class="a" d="M268.455,6.988H261v4.032h7.036v5.308H261v4.16h7.452V25.8H254.73V1.68h13.725Z" transform="translate(-152.826 -1.014)"/><path class="b" d="M11.431,78.184a5.2,5.2,0,0,0-3.06-.9,5.459,5.459,0,0,0-2.588.568A5.147,5.147,0,0,0,4.01,79.38a6.584,6.584,0,0,0-1.028,2.184,9.792,9.792,0,0,0-.332,2.552,10.962,10.962,0,0,0,.332,2.728A6.5,6.5,0,0,0,4.01,89.089a5.116,5.116,0,0,0,1.784,1.524,5.532,5.532,0,0,0,2.6.568,4.941,4.941,0,0,0,1.972-.368A4.454,4.454,0,0,0,11.855,89.8a4.669,4.669,0,0,0,.98-1.548,6.475,6.475,0,0,0,.424-1.936H15.5a7.66,7.66,0,0,1-2.2,4.96,7.113,7.113,0,0,1-5.1,1.772,8.134,8.134,0,0,1-3.424-.672,6.7,6.7,0,0,1-2.432-1.856A8.01,8.01,0,0,1,.894,87.729,11.856,11.856,0,0,1,.41,84.28a11.21,11.21,0,0,1,.52-3.46A8.392,8.392,0,0,1,2.454,78a7.072,7.072,0,0,1,2.5-1.9,8.073,8.073,0,0,1,3.436-.7,8.555,8.555,0,0,1,2.5.356A6.764,6.764,0,0,1,13,76.8a5.855,5.855,0,0,1,1.536,1.712,6.326,6.326,0,0,1,.8,2.376H13.1a4.174,4.174,0,0,0-1.664-2.692Z" transform="translate(-0.24 -45.244)"/><path class="b" d="M42.656,91.208a5.652,5.652,0,0,1,1.136-2.032,5.341,5.341,0,0,1,1.864-1.36,6.844,6.844,0,0,1,5.116,0,5.384,5.384,0,0,1,1.856,1.36,5.774,5.774,0,0,1,1.136,2.032,8.566,8.566,0,0,1,0,5.02,5.667,5.667,0,0,1-1.136,2.02A5.218,5.218,0,0,1,50.772,99.6a7,7,0,0,1-5.116,0,5.179,5.179,0,0,1-1.864-1.348,5.791,5.791,0,0,1-1.136-2.02,8.031,8.031,0,0,1-.376-2.5A8.145,8.145,0,0,1,42.656,91.208ZM44.7,95.7a4.06,4.06,0,0,0,.816,1.44,3.526,3.526,0,0,0,1.216.884,3.691,3.691,0,0,0,2.952,0,3.526,3.526,0,0,0,1.216-.884,4.186,4.186,0,0,0,.816-1.44,6.717,6.717,0,0,0,0-3.944A4.189,4.189,0,0,0,50.9,90.3a3.5,3.5,0,0,0-1.216-.9,3.691,3.691,0,0,0-2.952,0,3.459,3.459,0,0,0-1.216.9,4.189,4.189,0,0,0-.816,1.452,6.1,6.1,0,0,0-.3,1.972A5.994,5.994,0,0,0,44.7,95.7Z" transform="translate(-25.361 -52.396)"/><path class="b" d="M79.638,76.4V93.265H77.63V76.4Z" transform="translate(-46.57 -45.844)"/><path class="b" d="M92.078,76.4V93.265H90.07V76.4Z" transform="translate(-54.034 -45.844)"/><path class="b" d="M110.169,99.031a5.548,5.548,0,0,1-3.448,1.04,6.259,6.259,0,0,1-2.54-.472,5.015,5.015,0,0,1-1.808-1.324,5.63,5.63,0,0,1-1.1-2.032,9.809,9.809,0,0,1-.412-2.576,7.348,7.348,0,0,1,.424-2.552,6.109,6.109,0,0,1,1.192-2.008,5.391,5.391,0,0,1,1.82-1.324,5.534,5.534,0,0,1,2.3-.472,5.01,5.01,0,0,1,2.7.672,5.342,5.342,0,0,1,1.724,1.712,6.746,6.746,0,0,1,.9,2.268,9.781,9.781,0,0,1,.2,2.34h-9.14a4.89,4.89,0,0,0,.188,1.524,3.546,3.546,0,0,0,.684,1.276,3.412,3.412,0,0,0,1.2.888,4.169,4.169,0,0,0,1.724.332,3.463,3.463,0,0,0,2.092-.592,2.86,2.86,0,0,0,1.076-1.8h1.984a4.905,4.905,0,0,1-1.772,3.1Zm-.484-7.84a3.421,3.421,0,0,0-3.2-2.1,3.544,3.544,0,0,0-1.4.272A3.241,3.241,0,0,0,104,90.1a3.51,3.51,0,0,0-.708,1.1,4.233,4.233,0,0,0-.308,1.336H110a4.078,4.078,0,0,0-.32-1.348Z" transform="translate(-60.508 -52.39)"/><path class="b" d="M142.509,103.259a5.584,5.584,0,0,1-4.3,1.488,8.442,8.442,0,0,1-1.736-.188,5.4,5.4,0,0,1-1.608-.616,3.728,3.728,0,0,1-1.192-1.112,3.15,3.15,0,0,1-.52-1.676h2.008a1.461,1.461,0,0,0,.344.92,2.572,2.572,0,0,0,.78.616,3.863,3.863,0,0,0,1,.344,5.344,5.344,0,0,0,1.04.108A3.724,3.724,0,0,0,140,102.8a3.178,3.178,0,0,0,1.136-.944,3.834,3.834,0,0,0,.648-1.452,8.222,8.222,0,0,0,.2-1.864v-.8h-.048a3.374,3.374,0,0,1-1.572,1.664,4.855,4.855,0,0,1-2.232.532,5.355,5.355,0,0,1-2.384-.5,5,5,0,0,1-1.7-1.336,5.7,5.7,0,0,1-1.028-1.96,8.107,8.107,0,0,1-.344-2.376,9.331,9.331,0,0,1,.284-2.232,6.107,6.107,0,0,1,.944-2.08,5.181,5.181,0,0,1,1.748-1.536,5.448,5.448,0,0,1,2.668-.6,4.5,4.5,0,0,1,2.128.508,3.61,3.61,0,0,1,1.512,1.524h.024V87.594h1.888V98.767a6.438,6.438,0,0,1-1.368,4.488Zm-2.564-5.492a3.289,3.289,0,0,0,1.124-1.088,4.889,4.889,0,0,0,.624-1.524,7.475,7.475,0,0,0,.2-1.7,6.807,6.807,0,0,0-.188-1.584,4.516,4.516,0,0,0-.6-1.4,3.122,3.122,0,0,0-1.076-1,3.189,3.189,0,0,0-1.608-.38,3.5,3.5,0,0,0-1.652.368,3.247,3.247,0,0,0-1.124.98,4.117,4.117,0,0,0-.636,1.416,6.992,6.992,0,0,0-.2,1.676,8.537,8.537,0,0,0,.164,1.652,4.726,4.726,0,0,0,.568,1.5,3.183,3.183,0,0,0,1.064,1.088,3.058,3.058,0,0,0,1.652.412,3.249,3.249,0,0,0,1.688-.412Z" transform="translate(-79.599 -52.39)"/><path class="b" d="M175.568,99.031a5.548,5.548,0,0,1-3.448,1.04,6.259,6.259,0,0,1-2.54-.472,5.015,5.015,0,0,1-1.808-1.324,5.63,5.63,0,0,1-1.1-2.032,9.809,9.809,0,0,1-.412-2.576,7.348,7.348,0,0,1,.424-2.552,6.11,6.11,0,0,1,1.192-2.008,5.39,5.39,0,0,1,1.82-1.324,5.534,5.534,0,0,1,2.3-.472,5.01,5.01,0,0,1,2.7.672,5.342,5.342,0,0,1,1.724,1.712,6.746,6.746,0,0,1,.9,2.268,9.782,9.782,0,0,1,.2,2.34h-9.141a4.891,4.891,0,0,0,.188,1.524,3.547,3.547,0,0,0,.684,1.276,3.412,3.412,0,0,0,1.2.888,4.169,4.169,0,0,0,1.724.332,3.463,3.463,0,0,0,2.092-.592,2.86,2.86,0,0,0,1.076-1.8h1.984a4.905,4.905,0,0,1-1.772,3.1Zm-.484-7.84a3.421,3.421,0,0,0-3.2-2.1,3.544,3.544,0,0,0-1.4.272,3.241,3.241,0,0,0-1.076.744,3.51,3.51,0,0,0-.708,1.1,4.233,4.233,0,0,0-.308,1.336H175.4a4.078,4.078,0,0,0-.32-1.348Z" transform="translate(-99.746 -52.39)"/><path class="b" d="M214.766,91.208a5.653,5.653,0,0,1,1.136-2.032,5.341,5.341,0,0,1,1.864-1.36,6.844,6.844,0,0,1,5.116,0,5.384,5.384,0,0,1,1.856,1.36,5.774,5.774,0,0,1,1.136,2.032,8.566,8.566,0,0,1,0,5.02,5.668,5.668,0,0,1-1.136,2.02,5.218,5.218,0,0,1-1.856,1.348,7,7,0,0,1-5.116,0,5.179,5.179,0,0,1-1.864-1.348,5.791,5.791,0,0,1-1.136-2.02,8.031,8.031,0,0,1-.376-2.5A8.144,8.144,0,0,1,214.766,91.208ZM216.81,95.7a4.06,4.06,0,0,0,.816,1.44,3.526,3.526,0,0,0,1.216.884,3.691,3.691,0,0,0,2.952,0,3.526,3.526,0,0,0,1.216-.884,4.185,4.185,0,0,0,.816-1.44,6.717,6.717,0,0,0,0-3.944,4.188,4.188,0,0,0-.816-1.452,3.5,3.5,0,0,0-1.216-.9,3.691,3.691,0,0,0-2.952,0,3.459,3.459,0,0,0-1.216.9,4.189,4.189,0,0,0-.816,1.452,6.1,6.1,0,0,0-.3,1.972A5.994,5.994,0,0,0,216.81,95.7Z" transform="translate(-128.623 -52.396)"/><path class="b" d="M245.81,82.536V80.764h2.056v-1.82a2.861,2.861,0,0,1,.864-2.256,3.669,3.669,0,0,1,2.516-.768,5.049,5.049,0,0,1,.648.048,3.384,3.384,0,0,1,.648.144V77.86a2.46,2.46,0,0,0-.568-.132,4.92,4.92,0,0,0-.568-.036,1.939,1.939,0,0,0-1.132.284,1.25,1.25,0,0,0-.4,1.088v1.7h2.36v1.772h-2.36V92.977h-2.008V82.536H245.81Z" transform="translate(-147.475 -45.556)"/><path class="b" d="M295.245,76.394v1.888h-9.4v5.36h8.765V85.53h-8.765v5.836h9.473v1.888H283.6V76.39h11.645Z" transform="translate(-170.148 -45.838)"/><path class="b" d="M319.908,87.6V89.54h.048a4.228,4.228,0,0,1,3.968-2.22,5.307,5.307,0,0,1,2.008.332,3.319,3.319,0,0,1,1.3.92,3.363,3.363,0,0,1,.7,1.4,7.653,7.653,0,0,1,.2,1.808v8.032H326.12V91.548a2.429,2.429,0,0,0-.66-1.8,2.462,2.462,0,0,0-1.82-.66,4.088,4.088,0,0,0-1.592.284,2.984,2.984,0,0,0-1.124.8,3.437,3.437,0,0,0-.672,1.216,4.874,4.874,0,0,0-.224,1.524v6.9H318.02V87.6Z" transform="translate(-190.799 -52.396)"/><path class="b" d="M358.663,103.259a5.584,5.584,0,0,1-4.3,1.488,8.442,8.442,0,0,1-1.736-.188,5.354,5.354,0,0,1-1.608-.616,3.727,3.727,0,0,1-1.192-1.112,3.15,3.15,0,0,1-.52-1.676h2.008a1.484,1.484,0,0,0,.344.92,2.525,2.525,0,0,0,.78.616,3.864,3.864,0,0,0,1,.344,5.344,5.344,0,0,0,1.04.108,3.724,3.724,0,0,0,1.676-.344,3.131,3.131,0,0,0,1.132-.944,3.833,3.833,0,0,0,.648-1.452,8.221,8.221,0,0,0,.2-1.864v-.8h-.048a3.358,3.358,0,0,1-1.572,1.664,4.855,4.855,0,0,1-2.232.532,5.355,5.355,0,0,1-2.384-.5,5,5,0,0,1-1.7-1.336,5.7,5.7,0,0,1-1.028-1.96,8.105,8.105,0,0,1-.344-2.376,9.33,9.33,0,0,1,.284-2.232,6.106,6.106,0,0,1,.944-2.08,5.181,5.181,0,0,1,1.748-1.536,5.459,5.459,0,0,1,2.668-.6,4.478,4.478,0,0,1,2.124.508,3.61,3.61,0,0,1,1.512,1.524h.024V87.594h1.888V98.767a6.438,6.438,0,0,1-1.368,4.488ZM356.1,97.767a3.242,3.242,0,0,0,1.12-1.088,4.888,4.888,0,0,0,.624-1.524,7.474,7.474,0,0,0,.2-1.7,6.808,6.808,0,0,0-.188-1.584,4.431,4.431,0,0,0-.6-1.4,3.123,3.123,0,0,0-1.076-1,3.183,3.183,0,0,0-1.6-.38,3.508,3.508,0,0,0-1.652.368,3.2,3.2,0,0,0-1.12.98,4.2,4.2,0,0,0-.64,1.416,6.992,6.992,0,0,0-.2,1.676,8.535,8.535,0,0,0,.164,1.652,4.726,4.726,0,0,0,.568,1.5,3.183,3.183,0,0,0,1.064,1.088,3.058,3.058,0,0,0,1.652.412,3.249,3.249,0,0,0,1.688-.412Z" transform="translate(-209.284 -52.39)"/><path class="b" d="M384.14,78.856V76.4h2.008v2.456Zm2.008,2.2V93.265H384.14V81.052Z" transform="translate(-230.47 -45.844)"/><path class="b" d="M398.328,87.6V89.54h.048a4.228,4.228,0,0,1,3.968-2.22,5.307,5.307,0,0,1,2.008.332,3.32,3.32,0,0,1,1.3.92,3.363,3.363,0,0,1,.7,1.4,7.653,7.653,0,0,1,.2,1.808v8.032H404.54V91.548a2.429,2.429,0,0,0-.66-1.8,2.462,2.462,0,0,0-1.82-.66,4.088,4.088,0,0,0-1.592.284,2.984,2.984,0,0,0-1.124.8,3.437,3.437,0,0,0-.672,1.216,4.873,4.873,0,0,0-.224,1.524v6.9H396.44V87.6h1.888Z" transform="translate(-237.849 -52.396)"/><path class="b" d="M436.485,99.031a5.548,5.548,0,0,1-3.448,1.04,6.259,6.259,0,0,1-2.54-.472,5.015,5.015,0,0,1-1.808-1.324,5.563,5.563,0,0,1-1.1-2.032,9.648,9.648,0,0,1-.412-2.576,7.442,7.442,0,0,1,.424-2.552,6.11,6.11,0,0,1,1.192-2.008,5.43,5.43,0,0,1,1.82-1.324,5.534,5.534,0,0,1,2.3-.472,5.011,5.011,0,0,1,2.7.672,5.342,5.342,0,0,1,1.724,1.712,6.747,6.747,0,0,1,.9,2.268,9.781,9.781,0,0,1,.2,2.34H429.3a4.889,4.889,0,0,0,.188,1.524,3.486,3.486,0,0,0,.684,1.276,3.412,3.412,0,0,0,1.2.888,4.168,4.168,0,0,0,1.724.332,3.45,3.45,0,0,0,2.088-.592,2.861,2.861,0,0,0,1.076-1.8h1.984a4.905,4.905,0,0,1-1.772,3.1ZM436,91.19a3.421,3.421,0,0,0-3.2-2.1,3.558,3.558,0,0,0-1.4.272,3.241,3.241,0,0,0-1.076.744,3.51,3.51,0,0,0-.708,1.1,4.233,4.233,0,0,0-.308,1.336h7.016A4.077,4.077,0,0,0,436,91.19Z" transform="translate(-256.293 -52.39)"/><path class="b" d="M468.264,99.031a5.548,5.548,0,0,1-3.448,1.04,6.259,6.259,0,0,1-2.54-.472,5.015,5.015,0,0,1-1.808-1.324,5.563,5.563,0,0,1-1.1-2.032,9.645,9.645,0,0,1-.412-2.576,7.442,7.442,0,0,1,.424-2.552,6.11,6.11,0,0,1,1.192-2.008,5.43,5.43,0,0,1,1.82-1.324,5.534,5.534,0,0,1,2.3-.472,5.01,5.01,0,0,1,2.7.672,5.341,5.341,0,0,1,1.724,1.712,6.745,6.745,0,0,1,.9,2.268,9.783,9.783,0,0,1,.2,2.34h-9.141a4.89,4.89,0,0,0,.188,1.524,3.487,3.487,0,0,0,.684,1.276,3.413,3.413,0,0,0,1.2.888,4.169,4.169,0,0,0,1.724.332,3.45,3.45,0,0,0,2.088-.592,2.86,2.86,0,0,0,1.076-1.8h1.984a4.906,4.906,0,0,1-1.772,3.1Zm-.484-7.84a3.421,3.421,0,0,0-3.2-2.1,3.558,3.558,0,0,0-1.4.272,3.241,3.241,0,0,0-1.076.744,3.51,3.51,0,0,0-.708,1.1,4.232,4.232,0,0,0-.308,1.336H468.1A4.078,4.078,0,0,0,467.781,91.19Z" transform="translate(-275.36 -52.39)"/><path class="b" d="M494.108,87.605v2.576h.048a5.44,5.44,0,0,1,1.8-2.2,4.513,4.513,0,0,1,2.692-.66V89.45a5.694,5.694,0,0,0-2.056.332,3.217,3.217,0,0,0-1.368.968,3.949,3.949,0,0,0-.756,1.548,8.437,8.437,0,0,0-.236,2.092v5.432H492.22V87.609h1.888Z" transform="translate(-295.315 -52.398)"/><path class="b" d="M512.12,78.856V76.4h2.008v2.456Zm2.008,2.2V93.265H512.12V81.052Z" transform="translate(-307.255 -45.844)"/><path class="b" d="M526.308,87.6V89.54h.048a4.228,4.228,0,0,1,3.968-2.22,5.307,5.307,0,0,1,2.008.332,3.32,3.32,0,0,1,1.3.92,3.363,3.363,0,0,1,.7,1.4,7.651,7.651,0,0,1,.2,1.808v8.032H532.52V91.548a2.429,2.429,0,0,0-.66-1.8,2.462,2.462,0,0,0-1.82-.66,4.123,4.123,0,0,0-1.6.284,2.939,2.939,0,0,0-1.12.8,3.436,3.436,0,0,0-.672,1.216,4.992,4.992,0,0,0-.224,1.524v6.9H524.42V87.6Z" transform="translate(-314.635 -52.396)"/><path class="b" d="M565.073,103.259a5.584,5.584,0,0,1-4.3,1.488,8.443,8.443,0,0,1-1.736-.188,5.354,5.354,0,0,1-1.608-.616,3.728,3.728,0,0,1-1.192-1.112,3.15,3.15,0,0,1-.52-1.676h2.008a1.484,1.484,0,0,0,.344.92,2.525,2.525,0,0,0,.78.616,3.864,3.864,0,0,0,1,.344,5.344,5.344,0,0,0,1.04.108,3.725,3.725,0,0,0,1.676-.344,3.131,3.131,0,0,0,1.132-.944,3.834,3.834,0,0,0,.648-1.452,8.221,8.221,0,0,0,.2-1.864v-.8H564.5a3.357,3.357,0,0,1-1.572,1.664,4.855,4.855,0,0,1-2.232.532,5.355,5.355,0,0,1-2.384-.5,5,5,0,0,1-1.7-1.336,5.7,5.7,0,0,1-1.028-1.96,8.1,8.1,0,0,1-.344-2.376,9.329,9.329,0,0,1,.284-2.232,6.106,6.106,0,0,1,.944-2.08,5.181,5.181,0,0,1,1.748-1.536,5.458,5.458,0,0,1,2.668-.6,4.478,4.478,0,0,1,2.124.508,3.609,3.609,0,0,1,1.512,1.524h.024V87.594h1.888V98.767a6.438,6.438,0,0,1-1.368,4.488Zm-2.564-5.492a3.242,3.242,0,0,0,1.12-1.088,4.888,4.888,0,0,0,.624-1.524,7.474,7.474,0,0,0,.2-1.7,6.807,6.807,0,0,0-.188-1.584,4.431,4.431,0,0,0-.6-1.4,3.123,3.123,0,0,0-1.076-1,3.183,3.183,0,0,0-1.6-.38,3.508,3.508,0,0,0-1.652.368,3.2,3.2,0,0,0-1.12.98,4.2,4.2,0,0,0-.64,1.416,6.993,6.993,0,0,0-.2,1.676,8.54,8.54,0,0,0,.164,1.652,4.728,4.728,0,0,0,.568,1.5,3.183,3.183,0,0,0,1.064,1.088,3.058,3.058,0,0,0,1.652.412,3.249,3.249,0,0,0,1.688-.412Z" transform="translate(-333.126 -52.39)"/><path class="b" d="M11.487,156.353a2.853,2.853,0,0,1-1.44.308,1.725,1.725,0,0,1-1.24-.436,1.9,1.9,0,0,1-.46-1.428,4.824,4.824,0,0,1-1.924,1.428,6.348,6.348,0,0,1-2.372.436,6.46,6.46,0,0,1-1.572-.188,3.7,3.7,0,0,1-1.288-.592,2.788,2.788,0,0,1-.86-1.052,3.541,3.541,0,0,1-.32-1.572,3.586,3.586,0,0,1,.356-1.7A3.122,3.122,0,0,1,1.3,150.48a4.309,4.309,0,0,1,1.324-.628c.5-.14,1-.26,1.524-.356.552-.108,1.076-.192,1.572-.248a8.724,8.724,0,0,0,1.312-.236,2.217,2.217,0,0,0,.9-.448,1.1,1.1,0,0,0,.332-.86,2.024,2.024,0,0,0-.248-1.064,1.706,1.706,0,0,0-.636-.616,2.662,2.662,0,0,0-.872-.284,6.532,6.532,0,0,0-.956-.072,4.241,4.241,0,0,0-2.128.484,2.055,2.055,0,0,0-.92,1.832H.478a4.332,4.332,0,0,1,.472-1.912,3.6,3.6,0,0,1,1.132-1.264,4.692,4.692,0,0,1,1.62-.7A8.43,8.43,0,0,1,5.65,143.9a11.233,11.233,0,0,1,1.64.12,4.306,4.306,0,0,1,1.476.484,2.839,2.839,0,0,1,1.064,1.024,3.269,3.269,0,0,1,.4,1.72v6.268a4.593,4.593,0,0,0,.084,1.036c.056.22.24.328.556.328a2.445,2.445,0,0,0,.616-.1v1.56Zm-3.26-6.26a2.543,2.543,0,0,1-.992.412c-.408.088-.84.156-1.288.212s-.9.116-1.36.188a5.09,5.09,0,0,0-1.228.34,2.261,2.261,0,0,0-.888.668,1.874,1.874,0,0,0-.344,1.188,1.572,1.572,0,0,0,.72,1.388,2.142,2.142,0,0,0,.744.3,4.334,4.334,0,0,0,.9.092,4.692,4.692,0,0,0,1.7-.272,3.577,3.577,0,0,0,1.156-.68,2.692,2.692,0,0,0,.66-.892,2.277,2.277,0,0,0,.212-.9v-2.044Z" transform="translate(0 -86.343)"/><path class="b" d="M35.118,144.194v1.936h.048a4.228,4.228,0,0,1,3.968-2.22,5.307,5.307,0,0,1,2.008.332,3.319,3.319,0,0,1,1.3.92,3.363,3.363,0,0,1,.7,1.4,7.652,7.652,0,0,1,.2,1.808v8.032H41.33v-8.268a2.429,2.429,0,0,0-.66-1.8,2.462,2.462,0,0,0-1.82-.66,4.123,4.123,0,0,0-1.6.284,2.939,2.939,0,0,0-1.12.8,3.436,3.436,0,0,0-.672,1.216,4.992,4.992,0,0,0-.224,1.524v6.9H33.23V144.194Z" transform="translate(-19.931 -86.349)"/><path class="b" d="M73.619,149.861v-1.652h-.048a2.956,2.956,0,0,1-1.56,1.464,5.952,5.952,0,0,1-2.34.448,5.486,5.486,0,0,1-2.468-.52,5.128,5.128,0,0,1-1.748-1.392,6.093,6.093,0,0,1-1.052-2.032,8.363,8.363,0,0,1-.352-2.456,8.636,8.636,0,0,1,.344-2.456,5.8,5.8,0,0,1,1.04-2.02,4.973,4.973,0,0,1,1.748-1.368,5.536,5.536,0,0,1,2.444-.508,5.867,5.867,0,0,1,1.016.1,5.161,5.161,0,0,1,1.088.32,4.566,4.566,0,0,1,1.028.592,3.3,3.3,0,0,1,.816.908h.048V133h2.008v16.865H73.623ZM66.4,145.525a4.419,4.419,0,0,0,.684,1.452,3.377,3.377,0,0,0,1.18,1.016,3.586,3.586,0,0,0,1.688.38,3.445,3.445,0,0,0,1.724-.4,3.4,3.4,0,0,0,1.156-1.052,4.323,4.323,0,0,0,.648-1.476,7.193,7.193,0,0,0,.2-1.676,7.116,7.116,0,0,0-.212-1.736,4.3,4.3,0,0,0-.672-1.476,3.461,3.461,0,0,0-1.192-1.028,3.729,3.729,0,0,0-1.772-.388,3.446,3.446,0,0,0-1.724.4,3.226,3.226,0,0,0-1.136,1.064,4.642,4.642,0,0,0-.616,1.512,8.154,8.154,0,0,0-.188,1.748,6.276,6.276,0,0,0,.224,1.664Z" transform="translate(-38.423 -79.803)"/><path class="b" d="M120.444,132.99v16.865H118.2V132.99Z" transform="translate(-70.911 -79.797)"/><path class="b" d="M133.708,144.194v1.936h.048a4.228,4.228,0,0,1,3.968-2.22,5.307,5.307,0,0,1,2.008.332,3.319,3.319,0,0,1,1.3.92,3.363,3.363,0,0,1,.7,1.4,7.651,7.651,0,0,1,.2,1.808v8.032H139.92v-8.268a2.429,2.429,0,0,0-.66-1.8,2.462,2.462,0,0,0-1.82-.66,4.123,4.123,0,0,0-1.6.284,2.939,2.939,0,0,0-1.12.8,3.437,3.437,0,0,0-.672,1.216,4.992,4.992,0,0,0-.224,1.524v6.9H131.82V144.194Z" transform="translate(-79.083 -86.349)"/><path class="b" d="M167.2,139.13V140.9h-2.432v7.58a2.18,2.18,0,0,0,.06.568.6.6,0,0,0,.224.332.947.947,0,0,0,.46.152,6.572,6.572,0,0,0,.768.036h.92v1.772h-1.536a7.126,7.126,0,0,1-1.336-.108,1.964,1.964,0,0,1-.9-.388,1.672,1.672,0,0,1-.508-.8,4.593,4.593,0,0,1-.164-1.368V140.9h-2.08V139.13h2.08v-3.66h2.008v3.66Z" transform="translate(-96.398 -81.285)"/><path class="b" d="M188.709,155.621a5.548,5.548,0,0,1-3.448,1.04,6.259,6.259,0,0,1-2.54-.472,5.015,5.015,0,0,1-1.808-1.324,5.63,5.63,0,0,1-1.1-2.032,9.808,9.808,0,0,1-.412-2.576,7.348,7.348,0,0,1,.424-2.552,6.11,6.11,0,0,1,1.192-2.008,5.39,5.39,0,0,1,1.82-1.324,5.534,5.534,0,0,1,2.3-.472,5.01,5.01,0,0,1,2.7.672,5.342,5.342,0,0,1,1.724,1.712,6.746,6.746,0,0,1,.9,2.268,9.781,9.781,0,0,1,.2,2.34h-9.14a4.89,4.89,0,0,0,.188,1.524,3.547,3.547,0,0,0,.684,1.276,3.412,3.412,0,0,0,1.2.888,4.169,4.169,0,0,0,1.724.332,3.463,3.463,0,0,0,2.092-.592,2.86,2.86,0,0,0,1.076-1.8h1.984a4.906,4.906,0,0,1-1.772,3.1Zm-.484-7.84a3.421,3.421,0,0,0-3.2-2.1,3.544,3.544,0,0,0-1.4.272,3.241,3.241,0,0,0-1.076.744,3.51,3.51,0,0,0-.708,1.1,4.232,4.232,0,0,0-.308,1.336h7.016a4.078,4.078,0,0,0-.32-1.348Z" transform="translate(-107.63 -86.343)"/><path class="b" d="M221.049,159.849a5.584,5.584,0,0,1-4.3,1.488,8.442,8.442,0,0,1-1.736-.188,5.4,5.4,0,0,1-1.608-.616,3.728,3.728,0,0,1-1.192-1.112,3.15,3.15,0,0,1-.52-1.676H213.7a1.461,1.461,0,0,0,.344.92,2.572,2.572,0,0,0,.78.616,3.864,3.864,0,0,0,1,.344,5.346,5.346,0,0,0,1.04.108,3.724,3.724,0,0,0,1.676-.344,3.178,3.178,0,0,0,1.136-.944,3.834,3.834,0,0,0,.648-1.452,8.222,8.222,0,0,0,.2-1.864v-.8h-.048a3.375,3.375,0,0,1-1.572,1.664,4.905,4.905,0,0,1-2.232.532,5.355,5.355,0,0,1-2.384-.5,5,5,0,0,1-1.7-1.336,5.7,5.7,0,0,1-1.028-1.96,8.107,8.107,0,0,1-.344-2.376,9.331,9.331,0,0,1,.284-2.232,6.107,6.107,0,0,1,.944-2.08A5.181,5.181,0,0,1,214.2,144.5a5.448,5.448,0,0,1,2.668-.6,4.5,4.5,0,0,1,2.128.508,3.609,3.609,0,0,1,1.512,1.524h.024v-1.748h1.888v11.173a6.438,6.438,0,0,1-1.368,4.488Zm-2.564-5.492a3.289,3.289,0,0,0,1.124-1.088,4.889,4.889,0,0,0,.624-1.524,7.474,7.474,0,0,0,.2-1.7,6.808,6.808,0,0,0-.188-1.584,4.516,4.516,0,0,0-.6-1.4,3.122,3.122,0,0,0-1.076-1,3.188,3.188,0,0,0-1.608-.38,3.5,3.5,0,0,0-1.652.368,3.247,3.247,0,0,0-1.124.98,4.117,4.117,0,0,0-.636,1.416,6.993,6.993,0,0,0-.2,1.676,8.538,8.538,0,0,0,.164,1.652,4.726,4.726,0,0,0,.568,1.5,3.183,3.183,0,0,0,1.064,1.088,3.058,3.058,0,0,0,1.652.412,3.249,3.249,0,0,0,1.688-.412Z" transform="translate(-126.721 -86.343)"/><path class="b" d="M248.2,144.2v2.576h.048a5.44,5.44,0,0,1,1.8-2.2,4.513,4.513,0,0,1,2.692-.66v2.124a5.694,5.694,0,0,0-2.056.332,3.217,3.217,0,0,0-1.368.968,3.949,3.949,0,0,0-.756,1.548,8.439,8.439,0,0,0-.236,2.092v5.432H246.31V144.2H248.2Z" transform="translate(-147.775 -86.35)"/><path class="b" d="M275.765,156.353a2.853,2.853,0,0,1-1.44.308,1.725,1.725,0,0,1-1.24-.436,1.9,1.9,0,0,1-.46-1.428,4.825,4.825,0,0,1-1.924,1.428,6.354,6.354,0,0,1-2.376.436,6.461,6.461,0,0,1-1.572-.188,3.7,3.7,0,0,1-1.288-.592,2.836,2.836,0,0,1-.864-1.052,3.541,3.541,0,0,1-.32-1.572,3.637,3.637,0,0,1,.352-1.7,3.122,3.122,0,0,1,.932-1.076,4.309,4.309,0,0,1,1.324-.628c.5-.14,1-.26,1.524-.356.552-.108,1.076-.192,1.572-.248a8.724,8.724,0,0,0,1.312-.236,2.216,2.216,0,0,0,.9-.448,1.1,1.1,0,0,0,.332-.86,2.024,2.024,0,0,0-.248-1.064,1.687,1.687,0,0,0-.64-.616,2.662,2.662,0,0,0-.872-.284,6.491,6.491,0,0,0-.956-.072,4.225,4.225,0,0,0-2.124.484,2.046,2.046,0,0,0-.92,1.832h-2.008a4.331,4.331,0,0,1,.472-1.912,3.567,3.567,0,0,1,1.136-1.264,4.739,4.739,0,0,1,1.616-.7,8.43,8.43,0,0,1,1.948-.212,11.193,11.193,0,0,1,1.64.12,4.306,4.306,0,0,1,1.476.484,2.84,2.84,0,0,1,1.064,1.024,3.269,3.269,0,0,1,.4,1.72v6.268a4.593,4.593,0,0,0,.084,1.036c.056.22.24.328.556.328a2.391,2.391,0,0,0,.612-.1v1.56Zm-3.26-6.26a2.542,2.542,0,0,1-.992.412c-.408.088-.84.156-1.288.212s-.9.116-1.36.188a5.09,5.09,0,0,0-1.228.34,2.29,2.29,0,0,0-.888.668,1.874,1.874,0,0,0-.344,1.188,1.571,1.571,0,0,0,.72,1.388,2.142,2.142,0,0,0,.744.3,4.333,4.333,0,0,0,.9.092,4.693,4.693,0,0,0,1.7-.272,3.621,3.621,0,0,0,1.156-.68,2.676,2.676,0,0,0,.66-.892,2.21,2.21,0,0,0,.212-.9v-2.044Z" transform="translate(-158.556 -86.343)"/><path class="b" d="M300.33,139.13V140.9H297.9v7.58a2.18,2.18,0,0,0,.06.568.611.611,0,0,0,.224.332.946.946,0,0,0,.46.152,6.572,6.572,0,0,0,.768.036h.92v1.772h-1.536a7.126,7.126,0,0,1-1.336-.108,1.964,1.964,0,0,1-.9-.388,1.672,1.672,0,0,1-.508-.8,4.593,4.593,0,0,1-.164-1.368V140.9h-2.08V139.13h2.08v-3.66H297.9v3.66Z" transform="translate(-176.274 -81.285)"/><path class="b" d="M321.845,155.621a5.548,5.548,0,0,1-3.448,1.04,6.259,6.259,0,0,1-2.54-.472,5.015,5.015,0,0,1-1.808-1.324,5.563,5.563,0,0,1-1.1-2.032,9.648,9.648,0,0,1-.412-2.576,7.442,7.442,0,0,1,.424-2.552,6.11,6.11,0,0,1,1.192-2.008,5.43,5.43,0,0,1,1.82-1.324,5.534,5.534,0,0,1,2.3-.472,5.011,5.011,0,0,1,2.7.672,5.342,5.342,0,0,1,1.724,1.712,6.747,6.747,0,0,1,.9,2.268,9.781,9.781,0,0,1,.2,2.34h-9.14a4.889,4.889,0,0,0,.188,1.524,3.486,3.486,0,0,0,.684,1.276,3.412,3.412,0,0,0,1.2.888,4.169,4.169,0,0,0,1.724.332,3.45,3.45,0,0,0,2.088-.592,2.861,2.861,0,0,0,1.076-1.8h1.984a4.905,4.905,0,0,1-1.772,3.1Zm-.484-7.84a3.421,3.421,0,0,0-3.2-2.1,3.558,3.558,0,0,0-1.4.272,3.241,3.241,0,0,0-1.076.744,3.51,3.51,0,0,0-.708,1.1,4.258,4.258,0,0,0-.308,1.336h7.016a4.077,4.077,0,0,0-.32-1.348Z" transform="translate(-187.511 -86.343)"/><path class="b" d="M353.918,149.861v-1.652h-.048a2.956,2.956,0,0,1-1.56,1.464,5.938,5.938,0,0,1-2.34.448,5.486,5.486,0,0,1-2.468-.52,5.128,5.128,0,0,1-1.748-1.392,6.094,6.094,0,0,1-1.052-2.032,8.364,8.364,0,0,1-.352-2.456,8.638,8.638,0,0,1,.344-2.456,5.8,5.8,0,0,1,1.04-2.02,4.972,4.972,0,0,1,1.748-1.368,5.536,5.536,0,0,1,2.444-.508,5.867,5.867,0,0,1,1.016.1,5.159,5.159,0,0,1,1.088.32,4.565,4.565,0,0,1,1.028.592,3.3,3.3,0,0,1,.816.908h.048V133h2.008v16.865h-2.008Zm-7.216-4.336a4.419,4.419,0,0,0,.684,1.452,3.377,3.377,0,0,0,1.18,1.016,3.587,3.587,0,0,0,1.688.38,3.445,3.445,0,0,0,1.724-.4,3.4,3.4,0,0,0,1.156-1.052,4.321,4.321,0,0,0,.648-1.476,7.192,7.192,0,0,0,.2-1.676,7.117,7.117,0,0,0-.212-1.736,4.3,4.3,0,0,0-.672-1.476,3.462,3.462,0,0,0-1.192-1.028,3.729,3.729,0,0,0-1.772-.388,3.446,3.446,0,0,0-1.724.4,3.226,3.226,0,0,0-1.136,1.064,4.642,4.642,0,0,0-.616,1.512,8.152,8.152,0,0,0-.188,1.748,6.277,6.277,0,0,0,.224,1.664Z" transform="translate(-206.596 -79.803)"/><path class="b" d="M404.054,132.99a8.406,8.406,0,0,1,6,1.984q2.1,1.986,2.1,6.048a13.632,13.632,0,0,1-.472,3.768,7.065,7.065,0,0,1-1.464,2.764,6.319,6.319,0,0,1-2.528,1.712,10.158,10.158,0,0,1-3.636.592H398.27V132.994h5.788Zm.188,14.977a9.219,9.219,0,0,0,.944-.06,5.214,5.214,0,0,0,1.2-.284,5.571,5.571,0,0,0,1.264-.648,4.242,4.242,0,0,0,1.12-1.156,6.431,6.431,0,0,0,.816-1.832,9.652,9.652,0,0,0,.32-2.656,11.165,11.165,0,0,0-.3-2.7,5.188,5.188,0,0,0-.968-2.032,4.251,4.251,0,0,0-1.736-1.276,6.909,6.909,0,0,0-2.624-.436h-3.78v13.085h3.732Z" transform="translate(-238.947 -79.797)"/><path class="b" d="M446.645,155.621a5.548,5.548,0,0,1-3.448,1.04,6.258,6.258,0,0,1-2.54-.472,5.015,5.015,0,0,1-1.808-1.324,5.563,5.563,0,0,1-1.1-2.032,9.646,9.646,0,0,1-.412-2.576,7.442,7.442,0,0,1,.424-2.552,6.11,6.11,0,0,1,1.192-2.008,5.43,5.43,0,0,1,1.82-1.324,5.534,5.534,0,0,1,2.3-.472,5.011,5.011,0,0,1,2.7.672,5.341,5.341,0,0,1,1.724,1.712,6.746,6.746,0,0,1,.9,2.268,9.783,9.783,0,0,1,.2,2.34h-9.141a4.89,4.89,0,0,0,.188,1.524,3.486,3.486,0,0,0,.684,1.276,3.413,3.413,0,0,0,1.2.888,4.169,4.169,0,0,0,1.724.332,3.45,3.45,0,0,0,2.088-.592,2.86,2.86,0,0,0,1.076-1.8h1.984a4.905,4.905,0,0,1-1.772,3.1Zm-.484-7.84a3.421,3.421,0,0,0-3.2-2.1,3.558,3.558,0,0,0-1.4.272,3.241,3.241,0,0,0-1.076.744,3.509,3.509,0,0,0-.708,1.1,4.232,4.232,0,0,0-.308,1.336h7.016A4.077,4.077,0,0,0,446.16,147.78Z" transform="translate(-262.388 -86.343)"/><path class="b" d="M471.17,153.673a2.1,2.1,0,0,0,.744.732,3.3,3.3,0,0,0,1.04.388,5.848,5.848,0,0,0,1.192.12,7.239,7.239,0,0,0,.992-.072,3.575,3.575,0,0,0,.956-.26,1.8,1.8,0,0,0,.72-.556,1.486,1.486,0,0,0,.284-.932,1.331,1.331,0,0,0-.592-1.18,5.037,5.037,0,0,0-1.476-.648c-.592-.164-1.232-.316-1.924-.448a9.822,9.822,0,0,1-1.924-.568,3.969,3.969,0,0,1-1.476-1.028,2.661,2.661,0,0,1-.592-1.844,2.939,2.939,0,0,1,.412-1.584,3.376,3.376,0,0,1,1.064-1.076,4.905,4.905,0,0,1,1.464-.616,6.846,6.846,0,0,1,1.616-.2,9.779,9.779,0,0,1,1.912.176,4.471,4.471,0,0,1,1.548.616,3.193,3.193,0,0,1,1.076,1.18,4.5,4.5,0,0,1,.472,1.856H476.67a2.014,2.014,0,0,0-.308-.98,2.062,2.062,0,0,0-.66-.628,3.086,3.086,0,0,0-.888-.344,4.487,4.487,0,0,0-.98-.108,5.865,5.865,0,0,0-.908.072,3.026,3.026,0,0,0-.84.248,1.747,1.747,0,0,0-.616.472,1.2,1.2,0,0,0-.236.768,1.14,1.14,0,0,0,.368.864,2.99,2.99,0,0,0,.932.568,8.634,8.634,0,0,0,1.276.38c.472.1.944.208,1.416.32.5.112,1,.244,1.476.4a4.8,4.8,0,0,1,1.276.628,3.046,3.046,0,0,1,.9.98,2.873,2.873,0,0,1,.344,1.464,3.4,3.4,0,0,1-.46,1.844,3.613,3.613,0,0,1-1.2,1.18,4.981,4.981,0,0,1-1.676.624,9.751,9.751,0,0,1-1.856.176,8.677,8.677,0,0,1-1.936-.212,4.72,4.72,0,0,1-1.632-.7,3.565,3.565,0,0,1-1.132-1.276,4.415,4.415,0,0,1-.472-1.924h2.008a2.287,2.287,0,0,0,.308,1.124Z" transform="translate(-281.294 -86.343)"/><path class="b" d="M500.31,135.446V132.99h2.008v2.456Zm2.008,2.2v12.213H500.31V137.642Z" transform="translate(-300.169 -79.797)"/><path class="b" d="M520.933,159.849a5.584,5.584,0,0,1-4.3,1.488,8.442,8.442,0,0,1-1.736-.188,5.355,5.355,0,0,1-1.608-.616,3.728,3.728,0,0,1-1.192-1.112,3.15,3.15,0,0,1-.52-1.676h2.008a1.484,1.484,0,0,0,.344.92,2.525,2.525,0,0,0,.78.616,3.864,3.864,0,0,0,1,.344,5.347,5.347,0,0,0,1.04.108,3.725,3.725,0,0,0,1.676-.344,3.132,3.132,0,0,0,1.132-.944,3.835,3.835,0,0,0,.648-1.452,8.221,8.221,0,0,0,.2-1.864v-.8h-.048a3.357,3.357,0,0,1-1.572,1.664,4.855,4.855,0,0,1-2.232.532,5.355,5.355,0,0,1-2.384-.5,5,5,0,0,1-1.7-1.336,5.7,5.7,0,0,1-1.028-1.96,8.107,8.107,0,0,1-.344-2.376,9.33,9.33,0,0,1,.284-2.232,6.107,6.107,0,0,1,.944-2.08,5.18,5.18,0,0,1,1.748-1.536,5.458,5.458,0,0,1,2.668-.6,4.477,4.477,0,0,1,2.124.508,3.609,3.609,0,0,1,1.512,1.524h.024v-1.748h1.888v11.173a6.438,6.438,0,0,1-1.368,4.488Zm-2.564-5.492a3.241,3.241,0,0,0,1.12-1.088,5.027,5.027,0,0,0,.624-1.524,7.474,7.474,0,0,0,.2-1.7,6.81,6.81,0,0,0-.188-1.584,4.433,4.433,0,0,0-.6-1.4,3.123,3.123,0,0,0-1.076-1,3.183,3.183,0,0,0-1.6-.38,3.508,3.508,0,0,0-1.652.368,3.2,3.2,0,0,0-1.12.98,4.2,4.2,0,0,0-.64,1.416,7,7,0,0,0-.2,1.676,8.54,8.54,0,0,0,.164,1.652,4.724,4.724,0,0,0,.568,1.5,3.183,3.183,0,0,0,1.064,1.088,3.058,3.058,0,0,0,1.652.412,3.249,3.249,0,0,0,1.688-.412Z" transform="translate(-306.643 -86.343)"/><path class="b" d="M548.168,144.194v1.936h.048a4.228,4.228,0,0,1,3.968-2.22,5.307,5.307,0,0,1,2.008.332,3.319,3.319,0,0,1,1.3.92,3.362,3.362,0,0,1,.7,1.4,7.651,7.651,0,0,1,.2,1.808v8.032H554.38v-8.268a2.429,2.429,0,0,0-.66-1.8,2.462,2.462,0,0,0-1.82-.66,4.088,4.088,0,0,0-1.592.284,2.984,2.984,0,0,0-1.124.8,3.436,3.436,0,0,0-.672,1.216,4.874,4.874,0,0,0-.224,1.524v6.9H546.28V144.194Z" transform="translate(-327.75 -86.349)"/></g></svg>