<?xml version="1.0" encoding="iso-8859-1"?>
<!-- Generator: Adobe Illustrator 30.2.1, SVG Export Plug-In . SVG Version: 9.03 Build 0)  -->
<svg version="1.1" id="Layer_1" xmlns="http://www.w3.org/2000/svg" xmlns:xlink="http://www.w3.org/1999/xlink" x="0px" y="0px"
	 viewBox="0 0 496.773438 112.443359" style="enable-background:new 0 0 496.773438 112.443359;" xml:space="preserve">
<g>
	<g>
		<path style="fill:#032044;" d="M0.061523,22.814453c0-14.197266,10.664062-22.442871,21.823242-22.442871
			c10.539062,0,18.84668,6.261719,20.148438,15.74707H31.927734C30.75,11.779297,27.030273,8.989258,21.822266,8.989258
			c-6.323242,0-11.344727,5.331543-11.344727,13.825195s5.083008,14.01123,11.407227,14.01123
			c5.083008,0,8.679688-2.666016,10.105469-7.129395h10.105469c-1.549805,9.547363-9.733398,15.74707-20.273438,15.74707
			C10.353516,45.443359,0.061523,37.07373,0.061523,22.814453z"/>
		<path style="fill:#032044;" d="M44.167969,28.456055c0-10.229492,7.874023-16.676758,17.420898-16.676758
			c9.609375,0,17.421875,6.385254,17.421875,16.676758c0,10.353516-7.75,16.987305-17.421875,16.987305
			C51.855469,45.443359,44.167969,38.871582,44.167969,28.456055z M69.338867,28.456055c0-5.393555-3.162109-8.989258-7.75-8.989258
			c-4.649414,0-7.749023,3.595703-7.749023,8.989258c0,5.641602,3.162109,9.299316,7.749023,9.299316
			C66.239258,37.755371,69.338867,34.159668,69.338867,28.456055z"/>
		<path style="fill:#032044;" d="M82.917969,0.062012h9.422852v44.637207h-9.422852V0.062012z"/>
		<path style="fill:#032044;" d="M97.94043,0.062012h9.422852v44.637207H97.94043V0.062012z"/>
		<path style="fill:#032044;" d="M128.306641,45.443359c-9.299805,0-17.111328-6.385742-17.111328-16.987305
			c0-10.291504,8.05957-16.676758,16.925781-16.676758c9.113281,0,16.614258,6.075684,16.614258,17.358887v1.921875h-24.116211
			c0.496094,4.649902,3.78125,7.439453,7.99707,7.439453c2.728516,0,5.456055-0.929688,6.757812-3.47168h9.051758
			C142.441406,42.219238,135.374023,45.443359,128.306641,45.443359z M120.556641,25.108398H135.25
			c-0.30957-3.905762-3.223633-6.447754-7.25293-6.447754C124.15332,18.660645,121.052734,21.016602,120.556641,25.108398z"/>
		<path style="fill:#032044;" d="M163.850586,57.160645c-9.299805,0-15.00293-4.277832-16.057617-11.097656h9.175781
			c0.682617,2.790039,3.099609,4.339844,6.943359,4.339844c3.967773,0,6.572266-1.983887,6.572266-6.447754v-4.649414
			c-1.860352,2.851562-5.083984,4.525391-9.423828,4.525391c-7.749023,0-14.197266-5.765625-14.197266-16.118652
			c0-10.043457,6.696289-15.871094,14.321289-15.871094c4.463867,0,7.625977,1.797852,9.485352,4.959473v-4.21582h9.175781
			v30.750488C179.845703,52.882812,172.77832,57.160645,163.850586,57.160645z M170.545898,27.712402
			c0-5.332031-3.099609-8.493652-7.004883-8.493652c-4.030273,0-7.005859,3.285645-7.005859,8.493652
			c0,5.517578,2.975586,8.741211,7.005859,8.741211C167.508789,36.453613,170.545898,33.167969,170.545898,27.712402z"/>
		<path style="fill:#032044;" d="M200.783203,45.443359c-9.298828,0-17.110352-6.385742-17.110352-16.987305
			c0-10.291504,8.05957-16.676758,16.924805-16.676758c9.113281,0,16.615234,6.075684,16.615234,17.358887v1.921875h-24.117188
			c0.496094,4.649902,3.782227,7.439453,7.998047,7.439453c2.727539,0,5.456055-0.929688,6.757812-3.47168h9.050781
			C214.918945,42.219238,207.851562,45.443359,200.783203,45.443359z M193.03418,25.108398h14.693359
			c-0.310547-3.905762-3.223633-6.447754-7.253906-6.447754C196.629883,18.660645,193.530273,21.016602,193.03418,25.108398z"/>
		<path style="fill:#032044;" d="M234.078125,28.456055c0-10.229492,7.873047-16.676758,17.420898-16.676758
			c9.609375,0,17.420898,6.385254,17.420898,16.676758c0,10.353516-7.75,16.987305-17.420898,16.987305
			C241.765625,45.443359,234.078125,38.871582,234.078125,28.456055z M259.248047,28.456055
			c0-5.393555-3.161133-8.989258-7.749023-8.989258c-4.649414,0-7.75,3.595703-7.75,8.989258
			c0,5.641602,3.162109,9.299316,7.75,9.299316C256.148438,37.755371,259.248047,34.159668,259.248047,28.456055z"/>
		<path style="fill:#032044;" d="M283.930664,19.466797v25.232422h-9.174805V19.466797h-5.332031v-6.881836h5.332031V9.175293
			C274.755859,2.107422,278.785156,0,284.861328,0c2.417969,0,3.967773,0,6.137695,0.062012v6.943359
			c-1.302734-0.062012-2.541992-0.062012-3.90625-0.062012c-1.859375,0-3.162109,0.496094-3.162109,3.099609v2.541992h7.068359
			v6.881836H283.930664z"/>
		<path style="fill:#032044;" d="M309.413086,1.301758h10.105469v34.96582h19.65332v8.431641h-29.758789V1.301758z"/>
		<path style="fill:#032044;" d="M341.858398,0.062012h9.485352v7.811523h-9.485352V0.062012z M341.858398,12.584961h9.422852
			v32.114258h-9.422852V12.584961z"/>
		<path style="fill:#032044;" d="M375.677734,45.381348c-4.463867,0-7.749023-1.859863-9.609375-5.208008v4.525879h-9.174805
			V0.062012h9.422852v16.304688c1.921875-2.913574,5.083984-4.525391,9.423828-4.525391
			c7.99707,0,14.817383,5.703613,14.817383,16.552734C390.557617,39.491699,383.675781,45.381348,375.677734,45.381348z
			 M380.947266,28.394043c0-5.889648-3.223633-8.989258-7.376953-8.989258c-4.27832,0-7.439453,3.285645-7.439453,8.989258
			c0,6.013672,3.347656,9.42334,7.439453,9.42334C377.723633,37.817383,380.947266,34.407715,380.947266,28.394043z"/>
		<path style="fill:#032044;" d="M409.863281,45.443359c-9.298828,0-17.110352-6.385742-17.110352-16.987305
			c0-10.291504,8.058594-16.676758,16.924805-16.676758c9.113281,0,16.615234,6.075684,16.615234,17.358887v1.921875h-24.117188
			c0.496094,4.649902,3.782227,7.439453,7.998047,7.439453c2.727539,0,5.455078-0.929688,6.756836-3.47168h9.051758
			C423.999023,42.219238,416.930664,45.443359,409.863281,45.443359z M402.114258,25.108398h14.692383
			c-0.30957-3.905762-3.223633-6.447754-7.25293-6.447754C405.709961,18.660645,402.610352,21.016602,402.114258,25.108398z"/>
		<path style="fill:#032044;" d="M439.685547,44.699219h-9.422852V12.584961h9.113281v4.773926
			c0.557617-0.992188,1.301758-1.921875,2.231445-2.728027c1.860352-1.487793,3.658203-2.293945,6.696289-2.293945
			c0.805664,0,1.735352,0.062012,2.292969,0.186035v8.679688c-1.487305-0.186035-2.231445-0.186035-3.161133-0.186035
			c-3.53418,0-7.75,1.301758-7.75,7.377441V44.699219z"/>
		<path style="fill:#032044;" d="M473.386719,41.041504c-2.107422,2.604004-5.393555,4.339844-10.042969,4.339844
			c-6.076172,0-11.90332-3.472168-11.90332-10.043457c0-6.695801,5.393555-9.051758,13.886719-10.415527l7.37793-1.177734v-0.434082
			c0-3.47168-1.921875-4.835938-5.269531-4.835938c-3.410156,0-5.517578,1.611816-6.076172,4.587891h-8.802734
			c1.053711-7.005859,7.191406-11.283203,15.3125-11.283203c8.679688,0,14.135742,3.409668,14.073242,12.460938l-0.061523,13.63916
			c0,1.054199,0.061523,2.914062,0.248047,6.819824h-8.618164L473.386719,41.041504z M465.761719,38.685547
			c3.78125,0,6.943359-2.231934,6.943359-6.695801v-2.169922c-8.493164,1.054199-12.151367,1.984375-12.151367,5.083984
			C460.553711,37.383789,462.786133,38.685547,465.761719,38.685547z"/>
		<path style="fill:#032044;" d="M487.350586,0.062012h9.422852v44.637207h-9.422852V0.062012z"/>
		<path style="fill:#032044;" d="M27.898438,108.661621c-3.47168,2.355469-7.439453,3.781738-12.585938,3.781738
			C6.385742,112.443359,0,107.607422,0,99.795898c0-5.641602,3.223633-9.485352,8.431641-12.151367
			c-2.293945-2.604004-3.84375-5.269531-3.84375-8.865234c0-6.633789,5.765625-11.345703,13.205078-11.345703
			c7.625,0,13.018555,4.339844,13.018555,11.097656c0,4.959473-3.161133,8.431152-8.865234,10.911133l6.572266,7.067871
			c1.363281-2.045898,2.169922-4.401855,2.541016-7.315918h8.679688c-0.496094,5.27002-2.293945,10.043457-5.393555,13.63916
			l8.183594,8.803711v0.062012H30.75L27.898438,108.661621z M16.119141,104.941406c2.355469,0,4.587891-0.681641,6.509766-2.045898
			l-9.051758-9.79541c-2.790039,1.488281-4.154297,3.53418-4.154297,6.013672
			C9.422852,102.647949,12.523438,104.941406,16.119141,104.941406z M16.800781,84.48291
			c3.782227-1.42627,5.517578-3.286133,5.517578-5.703613c0-2.541992-1.983398-4.277832-4.587891-4.277832
			c-2.727539,0-4.649414,1.859863-4.649414,4.339844C13.081055,80.887207,14.569336,82.499023,16.800781,84.48291z"/>
		<path style="fill:#032044;" d="M70.368164,94.588379v17.11084h-9.981445V68.301758h30.316406v8.431641H70.368164v9.857422
			h18.351562v7.997559H70.368164z"/>
		<path style="fill:#032044;" d="M93.674805,67.062012h9.485352v7.811523h-9.485352V67.062012z M93.674805,79.584961h9.422852
			v32.114258h-9.422852V79.584961z"/>
		<path style="fill:#032044;" d="M118.132812,111.699219h-9.423828V79.584961h9.114258v3.905762
			c2.044922-2.975586,5.579102-4.649414,9.733398-4.649414c7.004883,0,11.716797,4.215332,11.716797,12.833008v20.024902h-9.423828
			V93.348145c0-4.091797-2.107422-6.447266-5.641602-6.447266c-3.285156,0-6.075195,2.41748-6.075195,7.6875V111.699219z"/>
		<path style="fill:#032044;" d="M159.888672,112.443359c-9.299805,0-17.111328-6.385742-17.111328-16.987305
			c0-10.291504,8.05957-16.676758,16.925781-16.676758c9.113281,0,16.614258,6.075684,16.614258,17.358887v1.921875h-24.116211
			c0.496094,4.649902,3.78125,7.439453,7.99707,7.439453c2.728516,0,5.456055-0.929688,6.757812-3.47168h9.051758
			C174.023438,109.219238,166.956055,112.443359,159.888672,112.443359z M152.138672,92.108398h14.693359
			c-0.30957-3.905762-3.223633-6.447754-7.25293-6.447754C155.735352,85.660645,152.634766,88.016602,152.138672,92.108398z"/>
		<path style="fill:#032044;" d="M222.754883,102.399902h-17.730469l-3.286133,9.299316h-10.166992l16.552734-43.397461h12.027344
			l16.552734,43.397461h-10.663086L222.754883,102.399902z M219.90332,94.402344l-6.013672-17.049316l-6.013672,17.049316H219.90332
			z"/>
		<path style="fill:#032044;" d="M248.368164,111.699219h-9.423828V79.584961h9.114258v4.773926
			c0.557617-0.992188,1.301758-1.921875,2.231445-2.728027c1.859375-1.487793,3.658203-2.293945,6.695312-2.293945
			c0.806641,0,1.736328,0.062012,2.293945,0.186035v8.679688c-1.487305-0.186035-2.231445-0.186035-3.162109-0.186035
			c-3.533203,0-7.749023,1.301758-7.749023,7.377441V111.699219z"/>
		<path style="fill:#032044;" d="M265.324219,102.95752V86.466797h-5.207031v-6.881836h5.207031v-7.997559h9.237305v7.997559
			h7.129883v6.881836h-7.129883v14.320801c0,3.224121,0.992188,3.844238,3.53418,3.844238h3.595703v7.005371
			c-2.169922,0.124023-3.967773,0.124023-7.005859,0.124023C268.795898,111.76123,265.324219,110.025391,265.324219,102.95752z"/>
		<path style="fill:#032044;" d="M283.347656,101.531738h8.741211c0.496094,2.976074,3.038086,4.401855,6.509766,4.401855
			c2.727539,0,5.145508-0.992188,5.145508-3.223633c0-1.983887-1.797852-2.852051-5.827148-3.53418l-3.348633-0.619629
			c-6.571289-1.178223-10.663086-4.091797-10.663086-9.237793c0-6.571289,6.076172-10.601074,13.825195-10.601074
			c7.37793,0,13.453125,3.719727,14.321289,10.291016h-8.617188c-0.620117-2.41748-2.728516-3.781738-5.889648-3.781738
			c-2.728516,0-4.774414,1.240234-4.774414,3.162109c0,1.797852,1.612305,2.47998,5.083984,3.099609l3.286133,0.558105
			c7.31543,1.301758,11.655273,4.153809,11.655273,9.733398c0,7.067383-6.695312,10.663574-14.382812,10.663574
			C290.539062,112.443359,284.277344,109.033203,283.347656,101.531738z"/>
	</g>
</g>
<g>
</g>
<g>
</g>
<g>
</g>
<g>
</g>
<g>
</g>
<g>
</g>
<g>
</g>
<g>
</g>
<g>
</g>
<g>
</g>
<g>
</g>
<g>
</g>
<g>
</g>
<g>
</g>
<g>
</g>
</svg>
