<?xml version="1.0" encoding="iso-8859-1"?>
<!-- Generator: Adobe Illustrator 30.2.1, SVG Export Plug-In . SVG Version: 9.03 Build 0)  -->
<svg version="1.1" id="Layer_1" xmlns="http://www.w3.org/2000/svg" xmlns:xlink="http://www.w3.org/1999/xlink" x="0px" y="0px"
	 viewBox="0 0 601.575684 45.381348" style="enable-background:new 0 0 601.575684 45.381348;" xml:space="preserve">
<g>
	<g>
		<path style="fill:#032044;" d="M13.32959,9.671387H0V1.23999h36.76416v8.431396H23.435059v34.966064H13.32959V9.671387z"/>
		<path style="fill:#032044;" d="M48.904297,44.637451h-9.42334V0h9.42334v13.577148c0,0.86792,0,1.674072,0,2.417969
			c2.045898-2.665771,5.456055-4.21582,9.423828-4.21582c7.005371,0,11.717285,4.21582,11.717285,12.833252v20.024902h-9.423828
			V26.286377c0-4.091553-2.107422-6.44751-5.641602-6.44751c-3.285645,0-6.075684,2.417969-6.075684,7.6875V44.637451z"/>
		<path style="fill:#032044;" d="M90.660645,45.381348c-9.299316,0-17.11084-6.385498-17.11084-16.987061
			c0-10.29126,8.05957-16.677002,16.925293-16.677002c9.113281,0,16.614746,6.075684,16.614746,17.359131v1.921875H82.973145
			c0.496094,4.649658,3.781738,7.439453,7.997559,7.439453c2.728027,0,5.456055-0.929932,6.757812-3.47168h9.05127
			C104.795898,42.157471,97.728516,45.381348,90.660645,45.381348z M82.911133,25.046631h14.693359
			c-0.310059-3.905762-3.223633-6.447754-7.253418-6.447754C86.507324,18.598877,83.407227,20.954834,82.911133,25.046631z"/>
		<path style="fill:#032044;" d="M147.141602,20.954834h19.838867v23.682617h-8.431152l-0.062012-4.959717
			c-2.728027,3.223877-7.439941,5.641602-13.32959,5.641602c-11.035156,0-20.95459-8.55542-20.95459-22.56665
			c0-14.135254,10.353516-22.442627,22.690918-22.442627c10.166992,0,18.536621,5.517578,20.024414,14.445068h-9.981445
			c-1.115723-3.719727-4.897461-6.137695-10.042969-6.137695c-7.37793,0-12.399414,5.331787-12.399414,14.135254
			c0,8.989502,5.145508,14.321289,12.275391,14.321289c5.455566,0,10.166992-3.533936,10.849121-8.431641v-0.062012h-10.477539
			V20.954834z"/>
		<path style="fill:#032044;" d="M182.457031,44.637451h-9.42334V12.523193h9.113281v4.773926
			c0.558105-0.991943,1.302246-1.921875,2.231934-2.728027c1.859863-1.487793,3.658203-2.293701,6.695801-2.293701
			c0.806152,0,1.73584,0.062012,2.293945,0.185791v8.679688c-1.487793-0.186035-2.231934-0.186035-3.162109-0.186035
			c-3.533691,0-7.749512,1.302002-7.749512,7.377441V44.637451z"/>
		<path style="fill:#032044;" d="M216.158691,40.979736c-2.10791,2.60376-5.393555,4.3396-10.043457,4.3396
			c-6.075684,0-11.90332-3.47168-11.90332-10.043457c0-6.695557,5.393555-9.05127,13.887207-10.415283l7.377441-1.177979v-0.433838
			c0-3.471924-1.921875-4.835938-5.269531-4.835938c-3.409668,0-5.517578,1.612061-6.075684,4.587891h-8.803711
			c1.054199-7.005615,7.191895-11.283447,15.313477-11.283447c8.679199,0,14.134766,3.409912,14.073242,12.461426
			l-0.062012,13.63916c0,1.053955,0.062012,2.913818,0.247559,6.81958h-8.617188L216.158691,40.979736z M208.533203,38.623779
			c3.781738,0,6.943359-2.231934,6.943359-6.695557v-2.169922c-8.493652,1.053955-12.151367,1.983887-12.151367,5.08374
			C203.325195,37.321777,205.557129,38.623779,208.533203,38.623779z"/>
		<path style="fill:#032044;" d="M252.831055,40.111816c-1.921875,3.347656-5.208008,5.20752-9.671387,5.20752
			c-7.997559,0-14.879395-5.827637-14.879395-16.987061c0-10.725342,7.129395-16.552979,15.00293-16.552979
			c4.153809,0,7.315918,1.550049,9.237793,4.339844V0h9.42334v44.637451h-9.113281V40.111816z M252.707031,28.332275
			c0-5.703613-3.162109-8.989258-7.37793-8.989258c-4.277344,0-7.377441,3.285645-7.377441,8.989258
			c0,5.95166,3.100098,9.423584,7.377441,9.423584C249.420898,37.755859,252.707031,34.345947,252.707031,28.332275z"/>
		<path style="fill:#032044;" d="M288.511719,40.855713c-2.10791,2.97583-5.456055,4.525635-9.423828,4.525635
			c-6.819336,0-11.717285-4.215576-11.717285-12.709229V12.523193h9.423828v18.413086
			c0,4.153809,2.169434,6.323486,5.57959,6.323486c3.037598,0,5.827637-2.169678,5.827637-7.31543V12.523193h9.42334v32.114258
			h-9.113281V40.855713z"/>
		<path style="fill:#032044;" d="M323.509766,40.979736c-2.10791,2.60376-5.393555,4.3396-10.043457,4.3396
			c-6.075684,0-11.90332-3.47168-11.90332-10.043457c0-6.695557,5.393555-9.05127,13.887207-10.415283l7.377441-1.177979v-0.433838
			c0-3.471924-1.921875-4.835938-5.269531-4.835938c-3.409668,0-5.517578,1.612061-6.075684,4.587891h-8.803711
			c1.054199-7.005615,7.191895-11.283447,15.313477-11.283447c8.679199,0,14.135254,3.409912,14.073242,12.461426
			l-0.062012,13.63916c0,1.053955,0.062012,2.913818,0.247559,6.81958h-8.617188L323.509766,40.979736z M315.884277,38.623779
			c3.781738,0,6.943359-2.231934,6.943359-6.695557v-2.169922c-8.493652,1.053955-12.151367,1.983887-12.151367,5.08374
			C310.67627,37.321777,312.908203,38.623779,315.884277,38.623779z"/>
		<path style="fill:#032044;" d="M339.227051,35.895996V19.404785h-5.208008v-6.881592h5.208008V4.525635h9.237305v7.997559
			h7.129883v6.881592h-7.129883v14.321289c0,3.223877,0.992188,3.84375,3.53418,3.84375h3.595703v7.005615
			c-2.169922,0.124023-3.967773,0.124023-7.005859,0.124023C342.69873,44.699463,339.227051,42.963623,339.227051,35.895996z"/>
		<path style="fill:#032044;" d="M373.92041,45.381348c-9.298828,0-17.110352-6.385498-17.110352-16.987061
			c0-10.29126,8.058594-16.677002,16.924805-16.677002c9.113281,0,16.615234,6.075684,16.615234,17.359131v1.921875H366.23291
			c0.496094,4.649658,3.782227,7.439453,7.998047,7.439453c2.727539,0,5.455078-0.929932,6.756836-3.47168h9.051758
			C388.056152,42.157471,380.987793,45.381348,373.92041,45.381348z M366.171387,25.046631h14.692383
			c-0.30957-3.905762-3.223633-6.447754-7.25293-6.447754C369.76709,18.598877,366.66748,20.954834,366.171387,25.046631z"/>
		<path style="fill:#032044;" d="M407.152832,30.936279h9.857422c0.620117,4.649658,4.21582,6.81958,8.927734,6.81958
			c4.339844,0,7.625-1.797852,7.625-5.08374c0-2.851807-2.665039-4.277832-7.439453-5.269775l-4.339844-0.929932
			c-9.237305-1.921875-13.577148-6.075684-13.577148-12.709229c0-7.935547,7.625977-13.453125,16.925781-13.453125
			c9.485352,0,16.676758,4.897705,17.544922,13.515137h-9.795898c-0.557617-3.719727-3.53418-5.889648-7.811523-5.889648
			c-3.967773,0-7.067383,2.045898-7.067383,4.959717c0,2.60376,1.921875,3.719727,6.261719,4.587646l4.835938,1.053955
			c8.741211,1.736084,14.382812,5.641846,14.382812,13.205322c0,8.92749-8.370117,13.63916-17.607422,13.63916
			C415.83252,45.381348,408.020996,40.793701,407.152832,30.936279z"/>
		<path style="fill:#032044;" d="M445.847168,28.394287c0-10.043457,7.811523-16.677002,17.048828-16.677002
			c8.369141,0,14.94043,4.959717,15.932617,12.647217h-9.298828c-0.744141-3.037598-3.410156-4.959717-6.633789-4.959717
			c-4.339844,0-7.37793,3.657959-7.37793,8.989502c0,5.517822,3.099609,9.299561,7.37793,9.299561
			c3.161133,0,5.703125-1.797852,6.571289-5.021729h9.361328c-1.239258,7.935547-7.873047,12.709229-15.995117,12.709229
			C453.410645,45.381348,445.847168,38.747803,445.847168,28.394287z"/>
		<path style="fill:#032044;" d="M491.930176,44.637451h-9.422852V0h9.422852v13.577148c0,0.86792,0,1.674072,0,2.417969
			c2.045898-2.665771,5.456055-4.21582,9.423828-4.21582c7.005859,0,11.716797,4.21582,11.716797,12.833252v20.024902h-9.422852
			V26.286377c0-4.091553-2.108398-6.44751-5.641602-6.44751c-3.286133,0-6.076172,2.417969-6.076172,7.6875V44.637451z"/>
		<path style="fill:#032044;" d="M516.575684,28.394287c0-10.229248,7.873047-16.677002,17.420898-16.677002
			c9.609375,0,17.420898,6.385742,17.420898,16.677002c0,10.353516-7.75,16.987061-17.420898,16.987061
			C524.263184,45.381348,516.575684,38.809814,516.575684,28.394287z M541.745605,28.394287
			c0-5.393555-3.162109-8.989502-7.749023-8.989502c-4.650391,0-7.75,3.595947-7.75,8.989502
			c0,5.641846,3.162109,9.299561,7.75,9.299561C538.645996,37.693848,541.745605,34.098145,541.745605,28.394287z"/>
		<path style="fill:#032044;" d="M553.403809,28.394287c0-10.229248,7.873047-16.677002,17.420898-16.677002
			c9.609375,0,17.420898,6.385742,17.420898,16.677002c0,10.353516-7.75,16.987061-17.420898,16.987061
			C561.091309,45.381348,553.403809,38.809814,553.403809,28.394287z M578.57373,28.394287
			c0-5.393555-3.162109-8.989502-7.749023-8.989502c-4.650391,0-7.75,3.595947-7.75,8.989502
			c0,5.641846,3.162109,9.299561,7.75,9.299561C575.474121,37.693848,578.57373,34.098145,578.57373,28.394287z"/>
		<path style="fill:#032044;" d="M592.152832,0h9.422852v44.637451h-9.422852V0z"/>
	</g>
</g>
<g>
</g>
<g>
</g>
<g>
</g>
<g>
</g>
<g>
</g>
<g>
</g>
<g>
</g>
<g>
</g>
<g>
</g>
<g>
</g>
<g>
</g>
<g>
</g>
<g>
</g>
<g>
</g>
<g>
</g>
</svg>
