<?xml version="1.0" encoding="iso-8859-1"?>
<!-- Generator: Adobe Illustrator 30.2.1, SVG Export Plug-In . SVG Version: 9.03 Build 0)  -->
<svg version="1.1" id="Layer_1" xmlns="http://www.w3.org/2000/svg" xmlns:xlink="http://www.w3.org/1999/xlink" x="0px" y="0px"
	 viewBox="0 0 515.978516 57.098633" style="enable-background:new 0 0 515.978516 57.098633;" xml:space="preserve">
<g>
	<g>
		<path style="fill:#032044;" d="M0,27.278564V1.23999h10.105469v25.480469c0,6.447754,3.533691,10.043457,8.741699,10.043457
			c5.331543,0,8.741211-3.595703,8.741211-9.981445V1.23999h10.105469v25.976562
			c0,11.593262-7.811523,18.164795-18.908691,18.164795C7.6875,45.381348,0,38.933838,0,27.278564z"/>
		<path style="fill:#032044;" d="M52.984375,44.637451h-9.42334V12.523193h9.11377v3.905762
			c2.04541-2.97583,5.57959-4.649658,9.733398-4.649658c7.005371,0,11.717285,4.21582,11.717285,12.833252v20.024902H64.70166
			V26.286377c0-4.091553-2.10791-6.44751-5.641602-6.44751c-3.285645,0-6.075684,2.417969-6.075684,7.6875V44.637451z"/>
		<path style="fill:#032044;" d="M79.54541,0h9.485352v7.811523H79.54541V0z M79.54541,12.523193h9.42334v32.114258h-9.42334
			V12.523193z"/>
		<path style="fill:#032044;" d="M112.552734,44.637451h-9.733398l-11.90332-32.114258h9.733398l7.253418,22.070801
			l7.191895-22.070801h9.299316L112.552734,44.637451z"/>
		<path style="fill:#032044;" d="M140.321777,45.381348c-9.299316,0-17.11084-6.385498-17.11084-16.987061
			c0-10.29126,8.05957-16.677002,16.925293-16.677002c9.113281,0,16.614746,6.075684,16.614746,17.359131v1.921875h-24.116699
			c0.496094,4.649658,3.781738,7.439453,7.997559,7.439453c2.728027,0,5.456055-0.929932,6.757812-3.47168h9.05127
			C154.457031,42.157471,147.389648,45.381348,140.321777,45.381348z M132.572266,25.046631h14.693359
			c-0.310059-3.905762-3.223633-6.447754-7.253418-6.447754C136.168457,18.598877,133.068359,20.954834,132.572266,25.046631z"/>
		<path style="fill:#032044;" d="M170.143555,44.637451h-9.42334V12.523193h9.11377v4.773926
			c0.557617-0.991943,1.301758-1.921875,2.231445-2.728027c1.859863-1.487793,3.658203-2.293701,6.695801-2.293701
			c0.806152,0,1.73584,0.062012,2.293945,0.185791v8.679688c-1.487793-0.186035-2.231934-0.186035-3.162109-0.186035
			c-3.533691,0-7.749512,1.302002-7.749512,7.377441V44.637451z"/>
		<path style="fill:#032044;" d="M182.12793,34.469971h8.741699c0.495605,2.97583,3.037598,4.401855,6.509277,4.401855
			c2.728027,0,5.145996-0.991943,5.145996-3.223877c0-1.983887-1.797852-2.851807-5.827637-3.533691l-3.348145-0.620117
			c-6.571289-1.177979-10.663086-4.091797-10.663086-9.237305c0-6.571777,6.075684-10.601562,13.825195-10.601562
			c7.377441,0,13.453125,3.719971,14.321289,10.291504h-8.617676c-0.620117-2.417969-2.728027-3.781738-5.889648-3.781738
			c-2.728027,0-4.773926,1.239746-4.773926,3.161865c0,1.797852,1.612305,2.479736,5.083984,3.099609l3.285645,0.558105
			c7.31543,1.301758,11.655273,4.153809,11.655273,9.733398c0,7.067627-6.695312,10.66333-14.382812,10.66333
			C189.319336,45.381348,183.058105,41.97168,182.12793,34.469971z"/>
		<path style="fill:#032044;" d="M215.452148,0h9.485352v7.811523h-9.485352V0z M215.452148,12.523193h9.42334v32.114258h-9.42334
			V12.523193z"/>
		<path style="fill:#032044;" d="M232.495605,35.895996V19.404785h-5.20752v-6.881592h5.20752V4.525635h9.237305v7.997559h7.129883
			v6.881592h-7.129883v14.321289c0,3.223877,0.992188,3.84375,3.53418,3.84375h3.595703v7.005615
			c-2.169922,0.124023-3.967773,0.124023-7.005859,0.124023C235.967285,44.699463,232.495605,42.963623,232.495605,35.895996z"/>
		<path style="fill:#032044;" d="M266.525879,56.416748h-9.671387l5.765625-14.01123l-12.771484-29.882324h9.857422
			l7.625488,19.776855l7.005859-19.776855h9.42334L266.525879,56.416748z"/>
		<path style="fill:#032044;" d="M298.827637,22.752686c0-14.197266,10.663574-22.442627,21.822754-22.442627
			c10.539062,0,18.84668,6.261475,20.148438,15.74707h-10.10498c-1.178223-4.339844-4.897949-7.129639-10.105469-7.129639
			c-6.32373,0-11.345215,5.331787-11.345215,13.825195c0,8.493652,5.083496,14.01123,11.407227,14.01123
			c5.083496,0,8.679688-2.665771,10.105469-7.129639h10.105469c-1.549805,9.547607-9.733398,15.74707-20.272949,15.74707
			C309.119141,45.381348,298.827637,37.011963,298.827637,22.752686z"/>
		<path style="fill:#032044;" d="M342.93457,28.394287c0-10.229248,7.873047-16.677002,17.420898-16.677002
			c9.609375,0,17.420898,6.385742,17.420898,16.677002c0,10.353516-7.75,16.987061-17.420898,16.987061
			C350.62207,45.381348,342.93457,38.809814,342.93457,28.394287z M368.104492,28.394287
			c0-5.393555-3.162109-8.989502-7.749023-8.989502c-4.650391,0-7.75,3.595947-7.75,8.989502
			c0,5.641846,3.162109,9.299561,7.75,9.299561C365.004883,37.693848,368.104492,34.098145,368.104492,28.394287z"/>
		<path style="fill:#032044;" d="M381.683594,0h9.422852v44.637451h-9.422852V0z"/>
		<path style="fill:#032044;" d="M396.706055,0h9.422852v44.637451h-9.422852V0z"/>
		<path style="fill:#032044;" d="M427.072266,45.381348c-9.298828,0-17.110352-6.385498-17.110352-16.987061
			c0-10.29126,8.05957-16.677002,16.924805-16.677002c9.113281,0,16.615234,6.075684,16.615234,17.359131v1.921875h-24.117188
			c0.496094,4.649658,3.782227,7.439453,7.998047,7.439453c2.727539,0,5.455078-0.929932,6.756836-3.47168h9.051758
			C441.208008,42.157471,434.139648,45.381348,427.072266,45.381348z M419.323242,25.046631h14.692383
			c-0.30957-3.905762-3.223633-6.447754-7.25293-6.447754C422.918945,18.598877,419.819336,20.954834,419.323242,25.046631z"/>
		<path style="fill:#032044;" d="M462.616211,57.098633c-9.298828,0-15.00293-4.277588-16.056641-11.097168h9.174805
			c0.682617,2.789795,3.100586,4.3396,6.944336,4.3396c3.967773,0,6.571289-1.983887,6.571289-6.44751v-4.649902
			c-1.860352,2.852051-5.083984,4.525879-9.423828,4.525879c-7.749023,0-14.197266-5.765625-14.197266-16.119141
			c0-10.043457,6.696289-15.871094,14.321289-15.871094c4.463867,0,7.625977,1.797852,9.485352,4.959717v-4.21582h9.175781
			v30.750244C478.611328,52.821045,471.543945,57.098633,462.616211,57.098633z M469.3125,27.650391
			c0-5.331787-3.100586-8.493408-7.005859-8.493408c-4.030273,0-7.005859,3.285645-7.005859,8.493408
			c0,5.517822,2.975586,8.741455,7.005859,8.741455C466.274414,36.391846,469.3125,33.106201,469.3125,27.650391z"/>
		<path style="fill:#032044;" d="M499.548828,45.381348c-9.298828,0-17.110352-6.385498-17.110352-16.987061
			c0-10.29126,8.05957-16.677002,16.924805-16.677002c9.113281,0,16.615234,6.075684,16.615234,17.359131v1.921875h-24.117188
			c0.496094,4.649658,3.782227,7.439453,7.998047,7.439453c2.727539,0,5.455078-0.929932,6.756836-3.47168h9.051758
			C513.68457,42.157471,506.616211,45.381348,499.548828,45.381348z M491.799805,25.046631h14.692383
			c-0.30957-3.905762-3.223633-6.447754-7.25293-6.447754C495.395508,18.598877,492.295898,20.954834,491.799805,25.046631z"/>
	</g>
</g>
<g>
</g>
<g>
</g>
<g>
</g>
<g>
</g>
<g>
</g>
<g>
</g>
<g>
</g>
<g>
</g>
<g>
</g>
<g>
</g>
<g>
</g>
<g>
</g>
<g>
</g>
<g>
</g>
<g>
</g>
</svg>
