<?xml version="1.0" encoding="iso-8859-1"?>
<!-- Generator: Adobe Illustrator 30.2.1, SVG Export Plug-In . SVG Version: 9.03 Build 0)  -->
<svg version="1.1" id="Layer_1" xmlns="http://www.w3.org/2000/svg" xmlns:xlink="http://www.w3.org/1999/xlink" x="0px" y="0px"
	 viewBox="0 0 662.193359 123.478516" style="enable-background:new 0 0 662.193359 123.478516;" xml:space="preserve">
<g>
	<g>
		<path style="fill:#032044;" d="M0.061523,22.814453c0-14.197266,10.664062-22.442871,21.823242-22.442871
			c10.539062,0,18.84668,6.261719,20.148438,15.74707H31.927734C30.75,11.779297,27.030273,8.989258,21.822266,8.989258
			c-6.323242,0-11.344727,5.331543-11.344727,13.825195s5.083008,14.01123,11.407227,14.01123
			c5.083008,0,8.679688-2.666016,10.105469-7.129395h10.105469c-1.549805,9.547363-9.733398,15.74707-20.273438,15.74707
			C10.353516,45.443359,0.061523,37.07373,0.061523,22.814453z"/>
		<path style="fill:#032044;" d="M44.167969,28.456055c0-10.229492,7.874023-16.676758,17.420898-16.676758
			c9.609375,0,17.421875,6.385254,17.421875,16.676758c0,10.353516-7.75,16.987305-17.421875,16.987305
			C51.855469,45.443359,44.167969,38.871582,44.167969,28.456055z M69.338867,28.456055c0-5.393555-3.162109-8.989258-7.75-8.989258
			c-4.649414,0-7.749023,3.595703-7.749023,8.989258c0,5.641602,3.162109,9.299316,7.749023,9.299316
			C66.239258,37.755371,69.338867,34.159668,69.338867,28.456055z"/>
		<path style="fill:#032044;" d="M82.917969,0.062012h9.422852v44.637207h-9.422852V0.062012z"/>
		<path style="fill:#032044;" d="M97.94043,0.062012h9.422852v44.637207H97.94043V0.062012z"/>
		<path style="fill:#032044;" d="M128.306641,45.443359c-9.299805,0-17.111328-6.385742-17.111328-16.987305
			c0-10.291504,8.05957-16.676758,16.925781-16.676758c9.113281,0,16.614258,6.075684,16.614258,17.358887v1.921875h-24.116211
			c0.496094,4.649902,3.78125,7.439453,7.99707,7.439453c2.728516,0,5.456055-0.929688,6.757812-3.47168h9.051758
			C142.441406,42.219238,135.374023,45.443359,128.306641,45.443359z M120.556641,25.108398H135.25
			c-0.30957-3.905762-3.223633-6.447754-7.25293-6.447754C124.15332,18.660645,121.052734,21.016602,120.556641,25.108398z"/>
		<path style="fill:#032044;" d="M163.850586,57.160645c-9.299805,0-15.00293-4.277832-16.057617-11.097656h9.175781
			c0.682617,2.790039,3.099609,4.339844,6.943359,4.339844c3.967773,0,6.572266-1.983887,6.572266-6.447754v-4.649414
			c-1.860352,2.851562-5.083984,4.525391-9.423828,4.525391c-7.749023,0-14.197266-5.765625-14.197266-16.118652
			c0-10.043457,6.696289-15.871094,14.321289-15.871094c4.463867,0,7.625977,1.797852,9.485352,4.959473v-4.21582h9.175781
			v30.750488C179.845703,52.882812,172.77832,57.160645,163.850586,57.160645z M170.545898,27.712402
			c0-5.332031-3.099609-8.493652-7.004883-8.493652c-4.030273,0-7.005859,3.285645-7.005859,8.493652
			c0,5.517578,2.975586,8.741211,7.005859,8.741211C167.508789,36.453613,170.545898,33.167969,170.545898,27.712402z"/>
		<path style="fill:#032044;" d="M200.783203,45.443359c-9.298828,0-17.110352-6.385742-17.110352-16.987305
			c0-10.291504,8.05957-16.676758,16.924805-16.676758c9.113281,0,16.615234,6.075684,16.615234,17.358887v1.921875h-24.117188
			c0.496094,4.649902,3.782227,7.439453,7.998047,7.439453c2.727539,0,5.456055-0.929688,6.757812-3.47168h9.050781
			C214.918945,42.219238,207.851562,45.443359,200.783203,45.443359z M193.03418,25.108398h14.693359
			c-0.310547-3.905762-3.223633-6.447754-7.253906-6.447754C196.629883,18.660645,193.530273,21.016602,193.03418,25.108398z"/>
		<path style="fill:#032044;" d="M234.078125,28.456055c0-10.229492,7.873047-16.676758,17.420898-16.676758
			c9.609375,0,17.420898,6.385254,17.420898,16.676758c0,10.353516-7.75,16.987305-17.420898,16.987305
			C241.765625,45.443359,234.078125,38.871582,234.078125,28.456055z M259.248047,28.456055
			c0-5.393555-3.161133-8.989258-7.749023-8.989258c-4.649414,0-7.75,3.595703-7.75,8.989258
			c0,5.641602,3.162109,9.299316,7.75,9.299316C256.148438,37.755371,259.248047,34.159668,259.248047,28.456055z"/>
		<path style="fill:#032044;" d="M283.930664,19.466797v25.232422h-9.174805V19.466797h-5.332031v-6.881836h5.332031V9.175293
			C274.755859,2.107422,278.785156,0,284.861328,0c2.417969,0,3.967773,0,6.137695,0.062012v6.943359
			c-1.302734-0.062012-2.541992-0.062012-3.90625-0.062012c-1.859375,0-3.162109,0.496094-3.162109,3.099609v2.541992h7.068359
			v6.881836H283.930664z"/>
		<path style="fill:#032044;" d="M341.46582,44.699219h-32.052734V1.301758h31.680664v8.05957h-21.823242v9.113281h20.086914
			v7.873535h-20.086914v10.291504h22.195312V44.699219z"/>
		<path style="fill:#032044;" d="M368.578125,40.17334c-1.921875,3.348145-5.207031,5.208008-9.670898,5.208008
			c-7.998047,0-14.878906-5.827637-14.878906-16.987305c0-10.725098,7.128906-16.552734,15.00293-16.552734
			c4.15332,0,7.31543,1.549805,9.237305,4.339355V0.062012h9.423828v44.637207h-9.114258V40.17334z M368.454102,28.394043
			c0-5.703613-3.161133-8.989258-7.376953-8.989258c-4.27832,0-7.37793,3.285645-7.37793,8.989258
			c0,5.95166,3.099609,9.42334,7.37793,9.42334C365.168945,37.817383,368.454102,34.407715,368.454102,28.394043z"/>
		<path style="fill:#032044;" d="M404.258789,40.91748c-2.108398,2.975586-5.456055,4.525879-9.423828,4.525879
			c-6.819336,0-11.716797-4.21582-11.716797-12.709473V12.584961h9.422852v18.413086c0,4.153809,2.169922,6.32373,5.580078,6.32373
			c3.038086,0,5.827148-2.169922,5.827148-7.315918V12.584961h9.423828v32.114258h-9.113281V40.91748z"/>
		<path style="fill:#032044;" d="M417.168945,28.456055c0-10.043457,7.811523-16.676758,17.048828-16.676758
			c8.369141,0,14.94043,4.959473,15.932617,12.646973h-9.298828c-0.744141-3.037598-3.410156-4.959473-6.633789-4.959473
			c-4.339844,0-7.37793,3.657715-7.37793,8.989258c0,5.517578,3.099609,9.299316,7.37793,9.299316
			c3.161133,0,5.703125-1.797852,6.571289-5.021484h9.361328c-1.239258,7.935547-7.873047,12.709473-15.995117,12.709473
			C424.732422,45.443359,417.168945,38.80957,417.168945,28.456055z"/>
		<path style="fill:#032044;" d="M474.044922,41.041504c-2.107422,2.604004-5.393555,4.339844-10.042969,4.339844
			c-6.076172,0-11.90332-3.472168-11.90332-10.043457c0-6.695801,5.393555-9.051758,13.886719-10.415527l7.37793-1.177734v-0.434082
			c0-3.47168-1.921875-4.835938-5.269531-4.835938c-3.410156,0-5.517578,1.611816-6.076172,4.587891h-8.802734
			c1.053711-7.005859,7.191406-11.283203,15.3125-11.283203c8.679688,0,14.135742,3.409668,14.073242,12.460938l-0.061523,13.63916
			c0,1.054199,0.061523,2.914062,0.248047,6.819824h-8.618164L474.044922,41.041504z M466.419922,38.685547
			c3.78125,0,6.943359-2.231934,6.943359-6.695801v-2.169922c-8.493164,1.054199-12.151367,1.984375-12.151367,5.083984
			C461.211914,37.383789,463.444336,38.685547,466.419922,38.685547z"/>
		<path style="fill:#032044;" d="M489.763672,35.95752V19.466797h-5.208008v-6.881836h5.208008V4.587402h9.237305v7.997559h7.128906
			v6.881836h-7.128906v14.320801c0,3.224121,0.991211,3.844238,3.533203,3.844238h3.595703v7.005371
			c-2.169922,0.124023-3.967773,0.124023-7.004883,0.124023C493.235352,44.76123,489.763672,43.025391,489.763672,35.95752z"/>
		<path style="fill:#032044;" d="M510.204102,0.062012h9.485352v7.811523h-9.485352V0.062012z M510.204102,12.584961h9.422852
			v32.114258h-9.422852V12.584961z"/>
		<path style="fill:#032044;" d="M523.297852,28.456055c0-10.229492,7.873047-16.676758,17.420898-16.676758
			c9.609375,0,17.420898,6.385254,17.420898,16.676758c0,10.353516-7.75,16.987305-17.420898,16.987305
			C530.985352,45.443359,523.297852,38.871582,523.297852,28.456055z M548.467773,28.456055
			c0-5.393555-3.162109-8.989258-7.749023-8.989258c-4.650391,0-7.75,3.595703-7.75,8.989258
			c0,5.641602,3.162109,9.299316,7.75,9.299316C545.368164,37.755371,548.467773,34.159668,548.467773,28.456055z"/>
		<path style="fill:#032044;" d="M571.389648,44.699219h-9.422852V12.584961h9.113281v3.905762
			c2.045898-2.975586,5.579102-4.649414,9.733398-4.649414c7.005859,0,11.716797,4.215332,11.716797,12.833008v20.024902h-9.422852
			V26.348145c0-4.091797-2.108398-6.447266-5.641602-6.447266c-3.286133,0-6.076172,2.41748-6.076172,7.6875V44.699219z"/>
		<path style="fill:#032044;" d="M27.898438,108.661621c-3.47168,2.355469-7.439453,3.781738-12.585938,3.781738
			C6.385742,112.443359,0,107.607422,0,99.795898c0-5.641602,3.223633-9.485352,8.431641-12.151367
			c-2.293945-2.604004-3.84375-5.269531-3.84375-8.865234c0-6.633789,5.765625-11.345703,13.205078-11.345703
			c7.625,0,13.018555,4.339844,13.018555,11.097656c0,4.959473-3.161133,8.431152-8.865234,10.911133l6.572266,7.067871
			c1.363281-2.045898,2.169922-4.401855,2.541016-7.315918h8.679688c-0.496094,5.27002-2.293945,10.043457-5.393555,13.63916
			l8.183594,8.803711v0.062012H30.75L27.898438,108.661621z M16.119141,104.941406c2.355469,0,4.587891-0.681641,6.509766-2.045898
			l-9.051758-9.79541c-2.790039,1.488281-4.154297,3.53418-4.154297,6.013672
			C9.422852,102.647949,12.523438,104.941406,16.119141,104.941406z M16.800781,84.48291
			c3.782227-1.42627,5.517578-3.286133,5.517578-5.703613c0-2.541992-1.983398-4.277832-4.587891-4.277832
			c-2.727539,0-4.649414,1.859863-4.649414,4.339844C13.081055,80.887207,14.569336,82.499023,16.800781,84.48291z"/>
		<path style="fill:#032044;" d="M60.386719,68.301758h10.105469v16.676758h18.90918V68.301758h10.105469v43.397461H89.401367
			V93.410156h-18.90918v18.289062H60.386719V68.301758z"/>
		<path style="fill:#032044;" d="M126.731445,107.91748c-2.107422,2.975586-5.456055,4.525879-9.423828,4.525879
			c-6.819336,0-11.716797-4.21582-11.716797-12.709473V79.584961h9.423828v18.413086c0,4.153809,2.168945,6.32373,5.579102,6.32373
			c3.038086,0,5.828125-2.169922,5.828125-7.315918V79.584961h9.422852v32.114258h-9.113281V107.91748z"/>
		<path style="fill:#032044;" d="M150.917969,111.699219h-9.423828V79.584961h9.114258v3.781738
			c1.983398-2.913574,5.393555-4.525391,9.546875-4.525391c3.782227,0,7.501953,1.549805,9.671875,5.20752
			c2.107422-3.409668,5.951172-5.20752,10.477539-5.20752c6.323242,0,11.84082,3.47168,11.84082,12.522949v20.334961h-9.423828
			V93.100098c0-4.153809-2.293945-6.199219-5.393555-6.199219c-3.037109,0-5.765625,2.355469-5.765625,7.31543v17.48291h-9.422852
			V93.100098c0-4.153809-2.293945-6.199219-5.394531-6.199219c-3.037109,0-5.827148,2.293457-5.827148,7.31543V111.699219z"/>
		<path style="fill:#032044;" d="M217.839844,108.041504c-2.107422,2.604004-5.393555,4.339844-10.042969,4.339844
			c-6.076172,0-11.90332-3.472168-11.90332-10.043457c0-6.695801,5.393555-9.051758,13.886719-10.415527l7.37793-1.177734v-0.434082
			c0-3.47168-1.921875-4.835938-5.269531-4.835938c-3.410156,0-5.517578,1.611816-6.076172,4.587891h-8.803711
			c1.054688-7.005859,7.192383-11.283203,15.313477-11.283203c8.679688,0,14.135742,3.409668,14.073242,12.460938
			l-0.061523,13.63916c0,1.054199,0.061523,2.914062,0.24707,6.819824h-8.617188L217.839844,108.041504z M210.214844,105.685547
			c3.78125,0,6.943359-2.231934,6.943359-6.695801v-2.169922c-8.494141,1.054199-12.151367,1.984375-12.151367,5.083984
			C205.006836,104.383789,207.238281,105.685547,210.214844,105.685547z"/>
		<path style="fill:#032044;" d="M241.208008,111.699219h-9.423828V79.584961h9.114258v3.905762
			c2.044922-2.975586,5.579102-4.649414,9.733398-4.649414c7.004883,0,11.716797,4.215332,11.716797,12.833008v20.024902h-9.423828
			V93.348145c0-4.091797-2.107422-6.447266-5.641602-6.447266c-3.285156,0-6.075195,2.41748-6.075195,7.6875V111.699219z"/>
		<path style="fill:#032044;" d="M283.120117,68.301758h16.180664c13.825195,0,22.876953,7.067383,22.876953,21.450684
			c0,13.825195-9.113281,21.946777-22.938477,21.946777h-16.119141V68.301758z M298.24707,103.391602
			c8.927734,0,13.577148-5.083496,13.577148-13.577148c0-8.431641-4.649414-13.205078-13.577148-13.205078h-5.021484v26.782227
			H298.24707z"/>
		<path style="fill:#032044;" d="M341.62793,112.443359c-9.299805,0-17.111328-6.385742-17.111328-16.987305
			c0-10.291504,8.05957-16.676758,16.925781-16.676758c9.113281,0,16.615234,6.075684,16.615234,17.358887v1.921875H333.94043
			c0.496094,4.649902,3.782227,7.439453,7.998047,7.439453c2.727539,0,5.455078-0.929688,6.756836-3.47168h9.051758
			C355.763672,109.219238,348.695312,112.443359,341.62793,112.443359z M333.878906,92.108398h14.692383
			c-0.30957-3.905762-3.223633-6.447754-7.25293-6.447754C337.474609,85.660645,334.375,88.016602,333.878906,92.108398z"/>
		<path style="fill:#032044;" d="M378.678711,111.699219h-9.733398l-11.90332-32.114258h9.733398l7.25293,22.070801
			l7.191406-22.070801h9.299805L378.678711,111.699219z"/>
		<path style="fill:#032044;" d="M406.447266,112.443359c-9.298828,0-17.110352-6.385742-17.110352-16.987305
			c0-10.291504,8.058594-16.676758,16.924805-16.676758c9.113281,0,16.615234,6.075684,16.615234,17.358887v1.921875h-24.117188
			c0.496094,4.649902,3.782227,7.439453,7.998047,7.439453c2.727539,0,5.455078-0.929688,6.756836-3.47168h9.051758
			C420.583008,109.219238,413.514648,112.443359,406.447266,112.443359z M398.698242,92.108398h14.692383
			c-0.30957-3.905762-3.223633-6.447754-7.25293-6.447754C402.293945,85.660645,399.194336,88.016602,398.698242,92.108398z"/>
		<path style="fill:#032044;" d="M426.80957,67.062012h9.422852v44.637207h-9.422852V67.062012z"/>
		<path style="fill:#032044;" d="M440.064453,95.456055c0-10.229492,7.873047-16.676758,17.420898-16.676758
			c9.609375,0,17.420898,6.385254,17.420898,16.676758c0,10.353516-7.75,16.987305-17.420898,16.987305
			C447.751953,112.443359,440.064453,105.871582,440.064453,95.456055z M465.234375,95.456055
			c0-5.393555-3.162109-8.989258-7.749023-8.989258c-4.650391,0-7.75,3.595703-7.75,8.989258
			c0,5.641602,3.162109,9.299316,7.75,9.299316C462.134766,104.755371,465.234375,101.159668,465.234375,95.456055z"/>
		<path style="fill:#032044;" d="M488.15625,107.669434v15.809082h-9.422852V79.584961h9.174805v4.153809
			c1.860352-3.099609,5.145508-4.897461,9.671875-4.897461c7.99707,0,14.817383,5.703613,14.817383,16.552734
			c0,11.097656-6.881836,16.987305-14.879883,16.987305C493.177734,112.381348,490.078125,110.645508,488.15625,107.669434z
			 M502.787109,95.394043c0-5.889648-3.223633-8.989258-7.376953-8.989258c-4.27832,0-7.439453,3.347656-7.439453,8.989258
			c0,6.013672,3.347656,9.42334,7.439453,9.42334C499.563477,104.817383,502.787109,101.407715,502.787109,95.394043z"/>
		<path style="fill:#032044;" d="M525.814453,111.699219h-9.422852V79.584961h9.113281v3.781738
			c1.983398-2.913574,5.393555-4.525391,9.546875-4.525391c3.782227,0,7.501953,1.549805,9.671875,5.20752
			c2.107422-3.409668,5.951172-5.20752,10.477539-5.20752c6.323242,0,11.84082,3.47168,11.84082,12.522949v20.334961h-9.422852
			V93.100098c0-4.153809-2.293945-6.199219-5.393555-6.199219c-3.038086,0-5.766602,2.355469-5.766602,7.31543v17.48291h-9.422852
			V93.100098c0-4.153809-2.293945-6.199219-5.393555-6.199219c-3.038086,0-5.828125,2.293457-5.828125,7.31543V111.699219z"/>
		<path style="fill:#032044;" d="M587.757812,112.443359c-9.298828,0-17.110352-6.385742-17.110352-16.987305
			c0-10.291504,8.058594-16.676758,16.924805-16.676758c9.113281,0,16.615234,6.075684,16.615234,17.358887v1.921875h-24.117188
			c0.496094,4.649902,3.782227,7.439453,7.998047,7.439453c2.727539,0,5.455078-0.929688,6.756836-3.47168h9.051758
			C601.893555,109.219238,594.825195,112.443359,587.757812,112.443359z M580.008789,92.108398h14.692383
			c-0.30957-3.905762-3.223633-6.447754-7.25293-6.447754C583.604492,85.660645,580.504883,88.016602,580.008789,92.108398z"/>
		<path style="fill:#032044;" d="M617.580078,111.699219h-9.422852V79.584961h9.113281v3.905762
			c2.045898-2.975586,5.579102-4.649414,9.733398-4.649414c7.005859,0,11.716797,4.215332,11.716797,12.833008v20.024902h-9.422852
			V93.348145c0-4.091797-2.108398-6.447266-5.641602-6.447266c-3.286133,0-6.076172,2.41748-6.076172,7.6875V111.699219z"/>
		<path style="fill:#032044;" d="M645.827148,102.95752V86.466797h-5.208008v-6.881836h5.208008v-7.997559h9.237305v7.997559
			h7.128906v6.881836h-7.128906v14.320801c0,3.224121,0.991211,3.844238,3.533203,3.844238h3.595703v7.005371
			c-2.169922,0.124023-3.967773,0.124023-7.004883,0.124023C649.298828,111.76123,645.827148,110.025391,645.827148,102.95752z"/>
	</g>
</g>
<g>
</g>
<g>
</g>
<g>
</g>
<g>
</g>
<g>
</g>
<g>
</g>
<g>
</g>
<g>
</g>
<g>
</g>
<g>
</g>
<g>
</g>
<g>
</g>
<g>
</g>
<g>
</g>
<g>
</g>
</svg>
