<?xml version="1.0" encoding="iso-8859-1"?>
<!-- Generator: Adobe Illustrator 30.2.1, SVG Export Plug-In . SVG Version: 9.03 Build 0)  -->
<svg version="1.1" id="Layer_1" xmlns="http://www.w3.org/2000/svg" xmlns:xlink="http://www.w3.org/1999/xlink" x="0px" y="0px"
	 viewBox="0 0 1164.770508 45.443359" style="enable-background:new 0 0 1164.770508 45.443359;" xml:space="preserve">
<g>
	<g>
		<path style="fill:#032044;" d="M22.938477,21.016846h19.838867v23.682617h-8.431152l-0.062012-4.959717
			c-2.728027,3.223877-7.439941,5.641602-13.32959,5.641602C9.919434,45.381348,0,36.825928,0,22.814697
			C0,8.679443,10.353516,0.37207,22.690918,0.37207c10.166992,0,18.536621,5.517578,20.024414,14.445068h-9.981445
			c-1.115723-3.719727-4.897461-6.137695-10.042969-6.137695c-7.37793,0-12.399414,5.331787-12.399414,14.135254
			c0,8.989502,5.145508,14.321289,12.275391,14.321289c5.455566,0,10.166992-3.533936,10.849121-8.431641v-0.062012H22.938477
			V21.016846z"/>
		<path style="fill:#032044;" d="M58.253906,44.699463h-9.42334V12.585205h9.113281v4.773926
			c0.558105-0.991943,1.302246-1.921875,2.231934-2.728027c1.859863-1.487793,3.658203-2.293701,6.695801-2.293701
			c0.806152,0,1.73584,0.062012,2.293945,0.185791v8.679688c-1.487793-0.186035-2.231934-0.186035-3.162109-0.186035
			c-3.533691,0-7.749512,1.302002-7.749512,7.377441V44.699463z"/>
		<path style="fill:#032044;" d="M91.955566,41.041748c-2.10791,2.60376-5.393555,4.3396-10.043457,4.3396
			c-6.075684,0-11.90332-3.47168-11.90332-10.043457c0-6.695557,5.393555-9.05127,13.887207-10.415283l7.377441-1.177979v-0.433838
			c0-3.471924-1.921875-4.835938-5.269531-4.835938c-3.409668,0-5.517578,1.612061-6.075684,4.587891h-8.803711
			c1.054199-7.005615,7.191895-11.283447,15.313477-11.283447c8.679199,0,14.134766,3.409912,14.073242,12.461426
			l-0.062012,13.63916c0,1.053955,0.062012,2.913818,0.247559,6.81958H92.07959L91.955566,41.041748z M84.330078,38.685791
			c3.781738,0,6.943359-2.231934,6.943359-6.695557v-2.169922c-8.493652,1.053955-12.151367,1.983887-12.151367,5.08374
			C79.12207,37.383789,81.354004,38.685791,84.330078,38.685791z"/>
		<path style="fill:#032044;" d="M128.62793,40.173828c-1.921875,3.347656-5.208008,5.20752-9.671387,5.20752
			c-7.997559,0-14.879395-5.827637-14.879395-16.987061c0-10.725342,7.129395-16.552979,15.00293-16.552979
			c4.153809,0,7.315918,1.550049,9.237793,4.339844V0.062012h9.42334v44.637451h-9.113281V40.173828z M128.503906,28.394287
			c0-5.703613-3.162109-8.989258-7.37793-8.989258c-4.277344,0-7.377441,3.285645-7.377441,8.989258
			c0,5.95166,3.100098,9.423584,7.377441,9.423584C125.217773,37.817871,128.503906,34.407959,128.503906,28.394287z"/>
		<path style="fill:#032044;" d="M164.308594,40.917725c-2.10791,2.97583-5.456055,4.525635-9.423828,4.525635
			c-6.819336,0-11.717285-4.215576-11.717285-12.709229V12.585205h9.423828v18.413086
			c0,4.153809,2.169434,6.323486,5.57959,6.323486c3.037598,0,5.827637-2.169678,5.827637-7.31543V12.585205h9.42334v32.114258
			h-9.113281V40.917725z"/>
		<path style="fill:#032044;" d="M199.306641,41.041748c-2.10791,2.60376-5.393555,4.3396-10.043457,4.3396
			c-6.075684,0-11.90332-3.47168-11.90332-10.043457c0-6.695557,5.393555-9.05127,13.887207-10.415283l7.377441-1.177979v-0.433838
			c0-3.471924-1.921875-4.835938-5.269531-4.835938c-3.409668,0-5.517578,1.612061-6.075684,4.587891h-8.803711
			c1.054199-7.005615,7.191895-11.283447,15.313477-11.283447c8.679199,0,14.135254,3.409912,14.073242,12.461426
			l-0.062012,13.63916c0,1.053955,0.062012,2.913818,0.247559,6.81958h-8.617188L199.306641,41.041748z M191.681152,38.685791
			c3.781738,0,6.943359-2.231934,6.943359-6.695557v-2.169922c-8.493652,1.053955-12.151367,1.983887-12.151367,5.08374
			C186.473145,37.383789,188.705078,38.685791,191.681152,38.685791z"/>
		<path style="fill:#032044;" d="M215.023926,35.958008V19.466797h-5.20752v-6.881592h5.20752V4.587646h9.237305v7.997559h7.129883
			v6.881592h-7.129883v14.321289c0,3.223877,0.992188,3.84375,3.53418,3.84375h3.595703v7.005615
			c-2.169922,0.124023-3.967773,0.124023-7.005859,0.124023C218.495605,44.761475,215.023926,43.025635,215.023926,35.958008z"/>
		<path style="fill:#032044;" d="M249.717285,45.443359c-9.299316,0-17.11084-6.385498-17.11084-16.987061
			c0-10.29126,8.05957-16.677002,16.925293-16.677002c9.113281,0,16.614746,6.075684,16.614746,17.359131v1.921875h-24.116699
			c0.496094,4.649658,3.781738,7.439453,7.997559,7.439453c2.728027,0,5.456055-0.929932,6.757812-3.47168h9.05127
			C263.852539,42.219482,256.785156,45.443359,249.717285,45.443359z M241.967773,25.108643h14.693359
			c-0.310059-3.905762-3.223633-6.447754-7.253418-6.447754C245.563965,18.660889,242.463867,21.016846,241.967773,25.108643z"/>
		<path style="fill:#032044;" d="M282.949707,30.998291h9.857422c0.620117,4.649658,4.21582,6.81958,8.927734,6.81958
			c4.339355,0,7.625488-1.797852,7.625488-5.08374c0-2.851807-2.666016-4.277832-7.439453-5.269775l-4.339844-0.929932
			c-9.237793-1.921875-13.577148-6.075684-13.577148-12.709229c0-7.935547,7.625488-13.453125,16.924805-13.453125
			c9.485352,0,16.677246,4.897705,17.544922,13.515137h-9.79541c-0.558105-3.719727-3.533691-5.889648-7.811523-5.889648
			c-3.967773,0-7.067383,2.045898-7.067383,4.959717c0,2.60376,1.921875,3.719727,6.26123,4.587646l4.835938,1.053955
			c8.741699,1.736084,14.383301,5.641846,14.383301,13.205322c0,8.92749-8.369629,13.63916-17.606934,13.63916
			C291.629395,45.443359,283.817871,40.855713,282.949707,30.998291z"/>
		<path style="fill:#032044;" d="M321.643066,28.456299c0-10.043457,7.811523-16.677002,17.048828-16.677002
			c8.370117,0,14.941406,4.959717,15.933594,12.647217h-9.299805c-0.744141-3.037598-3.410156-4.959717-6.633789-4.959717
			c-4.339844,0-7.377441,3.657959-7.377441,8.989502c0,5.517822,3.100098,9.299561,7.377441,9.299561
			c3.162109,0,5.704102-1.797852,6.572266-5.021729h9.361328c-1.240234,7.935547-7.874023,12.709229-15.995117,12.709229
			C329.206543,45.443359,321.643066,38.809814,321.643066,28.456299z"/>
		<path style="fill:#032044;" d="M367.727051,44.699463h-9.422852V0.062012h9.422852V13.63916c0,0.86792,0,1.674072,0,2.417969
			c2.045898-2.665771,5.456055-4.21582,9.423828-4.21582c7.005859,0,11.716797,4.21582,11.716797,12.833252v20.024902h-9.422852
			V26.348389c0-4.091553-2.108398-6.44751-5.641602-6.44751c-3.286133,0-6.076172,2.417969-6.076172,7.6875V44.699463z"/>
		<path style="fill:#032044;" d="M392.372559,28.456299c0-10.229248,7.873047-16.677002,17.420898-16.677002
			c9.609375,0,17.420898,6.385742,17.420898,16.677002c0,10.353516-7.75,16.987061-17.420898,16.987061
			C400.060059,45.443359,392.372559,38.871826,392.372559,28.456299z M417.54248,28.456299
			c0-5.393555-3.162109-8.989502-7.749023-8.989502c-4.650391,0-7.75,3.595947-7.75,8.989502
			c0,5.641846,3.162109,9.299561,7.75,9.299561C414.442871,37.755859,417.54248,34.160156,417.54248,28.456299z"/>
		<path style="fill:#032044;" d="M429.200684,28.456299c0-10.229248,7.873047-16.677002,17.420898-16.677002
			c9.609375,0,17.420898,6.385742,17.420898,16.677002c0,10.353516-7.75,16.987061-17.420898,16.987061
			C436.888184,45.443359,429.200684,38.871826,429.200684,28.456299z M454.370605,28.456299
			c0-5.393555-3.162109-8.989502-7.749023-8.989502c-4.650391,0-7.75,3.595947-7.75,8.989502
			c0,5.641846,3.162109,9.299561,7.75,9.299561C451.270996,37.755859,454.370605,34.160156,454.370605,28.456299z"/>
		<path style="fill:#032044;" d="M467.949707,0.062012h9.422852v44.637451h-9.422852V0.062012z"/>
		<path style="fill:#032044;" d="M496.159668,28.456299c0-10.229248,7.873047-16.677002,17.420898-16.677002
			c9.609375,0,17.420898,6.385742,17.420898,16.677002c0,10.353516-7.75,16.987061-17.420898,16.987061
			C503.847168,45.443359,496.159668,38.871826,496.159668,28.456299z M521.32959,28.456299
			c0-5.393555-3.162109-8.989502-7.749023-8.989502c-4.650391,0-7.75,3.595947-7.75,8.989502
			c0,5.641846,3.162109,9.299561,7.75,9.299561C518.22998,37.755859,521.32959,34.160156,521.32959,28.456299z"/>
		<path style="fill:#032044;" d="M546.012207,19.466797v25.232666h-9.175781V19.466797h-5.331055v-6.881592h5.331055V9.175537
			C536.836426,2.10791,540.866699,0,546.941895,0c2.417969,0,3.967773,0,6.137695,0.062012v6.943604
			c-1.301758-0.062012-2.541016-0.062012-3.905273-0.062012c-1.860352,0-3.162109,0.496094-3.162109,3.099854v2.541748h7.067383
			v6.881592H546.012207z"/>
		<path style="fill:#032044;" d="M571.493652,1.302002h19.777344c10.105469,0,14.878906,4.773682,14.878906,11.53125
			c0,4.835693-2.727539,8.05957-6.323242,9.175537v0.124023c4.21582,1.301758,7.25293,4.959717,7.25293,10.353271
			c0,7.563721-5.765625,12.213379-16.304688,12.213379h-19.28125V1.302002z M581.289551,8.741455v10.105469h8.679688
			c4.091797,0,6.261719-1.797852,6.261719-5.021729c0-3.099854-2.232422-5.08374-6.261719-5.08374H581.289551z
			 M581.289551,26.038574V37.26001h8.493164c4.711914,0,7.253906-2.045898,7.253906-5.579834
			c0-3.595703-2.541992-5.641602-7.191406-5.641602H581.289551z"/>
		<path style="fill:#032044;" d="M611.838379,0.062012h9.485352v7.811523h-9.485352V0.062012z M611.838379,12.585205h9.422852
			v32.114258h-9.422852V12.585205z"/>
		<path style="fill:#032044;" d="M624.932129,28.456299c0-10.229248,7.873047-16.677002,17.420898-16.677002
			c9.609375,0,17.420898,6.385742,17.420898,16.677002c0,10.353516-7.75,16.987061-17.420898,16.987061
			C632.619629,45.443359,624.932129,38.871826,624.932129,28.456299z M650.102051,28.456299
			c0-5.393555-3.162109-8.989502-7.749023-8.989502c-4.650391,0-7.75,3.595947-7.75,8.989502
			c0,5.641846,3.162109,9.299561,7.75,9.299561C647.002441,37.755859,650.102051,34.160156,650.102051,28.456299z"/>
		<path style="fill:#032044;" d="M673.023926,44.699463h-9.422852V12.585205h9.113281v3.781982
			c1.983398-2.913818,5.393555-4.525879,9.546875-4.525879c3.782227,0,7.501953,1.550049,9.671875,5.207764
			c2.107422-3.409912,5.951172-5.207764,10.477539-5.207764c6.323242,0,11.84082,3.471924,11.84082,12.523193v20.334961h-9.422852
			V26.100586c0-4.153809-2.293945-6.199707-5.393555-6.199707c-3.038086,0-5.766602,2.355957-5.766602,7.315674v17.48291h-9.422852
			V26.100586c0-4.153809-2.293945-6.199707-5.393555-6.199707c-3.038086,0-5.828125,2.293945-5.828125,7.315674V44.699463z"/>
		<path style="fill:#032044;" d="M734.968262,45.443359c-9.298828,0-17.110352-6.385498-17.110352-16.987061
			c0-10.29126,8.05957-16.677002,16.924805-16.677002c9.113281,0,16.615234,6.075684,16.615234,17.359131v1.921875h-24.117188
			c0.496094,4.649658,3.782227,7.439453,7.998047,7.439453c2.727539,0,5.455078-0.929932,6.756836-3.47168h9.051758
			C749.104004,42.219482,742.035645,45.443359,734.968262,45.443359z M727.219238,25.108643h14.692383
			c-0.30957-3.905762-3.223633-6.447754-7.25293-6.447754C730.814941,18.660889,727.715332,21.016846,727.219238,25.108643z"/>
		<path style="fill:#032044;" d="M778.174316,40.173828c-1.921875,3.347656-5.207031,5.20752-9.670898,5.20752
			c-7.998047,0-14.878906-5.827637-14.878906-16.987061c0-10.725342,7.128906-16.552979,15.00293-16.552979
			c4.15332,0,7.31543,1.550049,9.237305,4.339844V0.062012h9.423828v44.637451h-9.114258V40.173828z M778.050293,28.394287
			c0-5.703613-3.161133-8.989258-7.376953-8.989258c-4.27832,0-7.37793,3.285645-7.37793,8.989258
			c0,5.95166,3.099609,9.423584,7.37793,9.423584C774.765137,37.817871,778.050293,34.407959,778.050293,28.394287z"/>
		<path style="fill:#032044;" d="M792.969238,0.062012h9.485352v7.811523h-9.485352V0.062012z M792.969238,12.585205h9.422852
			v32.114258h-9.422852V12.585205z"/>
		<path style="fill:#032044;" d="M806.062988,28.456299c0-10.043457,7.811523-16.677002,17.048828-16.677002
			c8.369141,0,14.94043,4.959717,15.932617,12.647217h-9.298828c-0.744141-3.037598-3.410156-4.959717-6.633789-4.959717
			c-4.339844,0-7.37793,3.657959-7.37793,8.989502c0,5.517822,3.099609,9.299561,7.37793,9.299561
			c3.161133,0,5.703125-1.797852,6.571289-5.021729h9.361328c-1.239258,7.935547-7.873047,12.709229-15.995117,12.709229
			C813.626465,45.443359,806.062988,38.809814,806.062988,28.456299z"/>
		<path style="fill:#032044;" d="M862.939941,41.041748c-2.107422,2.60376-5.393555,4.3396-10.042969,4.3396
			c-6.076172,0-11.90332-3.47168-11.90332-10.043457c0-6.695557,5.393555-9.05127,13.886719-10.415283l7.37793-1.177979v-0.433838
			c0-3.471924-1.921875-4.835938-5.269531-4.835938c-3.410156,0-5.517578,1.612061-6.076172,4.587891h-8.802734
			c1.053711-7.005615,7.191406-11.283447,15.3125-11.283447c8.679688,0,14.135742,3.409912,14.073242,12.461426l-0.061523,13.63916
			c0,1.053955,0.061523,2.913818,0.248047,6.81958h-8.618164L862.939941,41.041748z M855.314941,38.685791
			c3.78125,0,6.943359-2.231934,6.943359-6.695557v-2.169922c-8.493164,1.053955-12.151367,1.983887-12.151367,5.08374
			C850.106934,37.383789,852.339355,38.685791,855.314941,38.685791z"/>
		<path style="fill:#032044;" d="M876.903809,0.062012h9.422852v44.637451h-9.422852V0.062012z"/>
		<path style="fill:#032044;" d="M905.050293,30.998291h9.857422c0.620117,4.649658,4.216309,6.81958,8.928223,6.81958
			c4.339844,0,7.625-1.797852,7.625-5.08374c0-2.851807-2.665039-4.277832-7.439453-5.269775l-4.339844-0.929932
			c-9.237793-1.921875-13.577637-6.075684-13.577637-12.709229c0-7.935547,7.625977-13.453125,16.92627-13.453125
			c9.485352,0,16.676758,4.897705,17.544922,13.515137h-9.795898c-0.557617-3.719727-3.53418-5.889648-7.811523-5.889648
			c-3.967773,0-7.067871,2.045898-7.067871,4.959717c0,2.60376,1.922363,3.719727,6.262207,4.587646l4.835938,1.053955
			c8.741211,1.736084,14.382812,5.641846,14.382812,13.205322c0,8.92749-8.369141,13.63916-17.607422,13.63916
			C913.72998,45.443359,905.918457,40.855713,905.050293,30.998291z"/>
		<path style="fill:#032044;" d="M943.745117,28.456299c0-10.043457,7.811523-16.677002,17.048828-16.677002
			c8.369141,0,14.94043,4.959717,15.932617,12.647217h-9.298828c-0.744141-3.037598-3.410156-4.959717-6.633789-4.959717
			c-4.339844,0-7.37793,3.657959-7.37793,8.989502c0,5.517822,3.099609,9.299561,7.37793,9.299561
			c3.161133,0,5.703125-1.797852,6.571289-5.021729h9.361328c-1.239258,7.935547-7.873047,12.709229-15.995117,12.709229
			C951.308594,45.443359,943.745117,38.809814,943.745117,28.456299z"/>
		<path style="fill:#032044;" d="M980.405273,0.062012h9.485352v7.811523h-9.485352V0.062012z M980.405273,12.585205h9.422852
			v32.114258h-9.422852V12.585205z"/>
		<path style="fill:#032044;" d="M1010.609375,45.443359c-9.298828,0-17.110352-6.385498-17.110352-16.987061
			c0-10.29126,8.05957-16.677002,16.924805-16.677002c9.113281,0,16.615234,6.075684,16.615234,17.359131v1.921875h-24.117188
			c0.496094,4.649658,3.782227,7.439453,7.998047,7.439453c2.727539,0,5.455078-0.929932,6.756836-3.47168h9.051758
			C1024.745117,42.219482,1017.676758,45.443359,1010.609375,45.443359z M1002.860352,25.108643h14.692383
			c-0.30957-3.905762-3.223633-6.447754-7.25293-6.447754C1006.456055,18.660889,1003.356445,21.016846,1002.860352,25.108643z"/>
		<path style="fill:#032044;" d="M1040.431641,44.699463h-9.422852V12.585205h9.113281v3.905762
			c2.045898-2.97583,5.579102-4.649658,9.733398-4.649658c7.005859,0,11.716797,4.21582,11.716797,12.833252v20.024902h-9.422852
			V26.348389c0-4.091553-2.108398-6.44751-5.641602-6.44751c-3.286133,0-6.076172,2.417969-6.076172,7.6875V44.699463z"/>
		<path style="fill:#032044;" d="M1065.077148,28.456299c0-10.043457,7.811523-16.677002,17.048828-16.677002
			c8.369141,0,14.94043,4.959717,15.932617,12.647217h-9.298828c-0.744141-3.037598-3.410156-4.959717-6.633789-4.959717
			c-4.339844,0-7.37793,3.657959-7.37793,8.989502c0,5.517822,3.099609,9.299561,7.37793,9.299561
			c3.161133,0,5.703125-1.797852,6.571289-5.021729h9.361328c-1.239258,7.935547-7.873047,12.709229-15.995117,12.709229
			C1072.640625,45.443359,1065.077148,38.809814,1065.077148,28.456299z"/>
		<path style="fill:#032044;" d="M1116.907227,45.443359c-9.298828,0-17.110352-6.385498-17.110352-16.987061
			c0-10.29126,8.058594-16.677002,16.924805-16.677002c9.113281,0,16.615234,6.075684,16.615234,17.359131v1.921875h-24.117188
			c0.496094,4.649658,3.782227,7.439453,7.998047,7.439453c2.727539,0,5.455078-0.929932,6.756836-3.47168h9.051758
			C1131.042969,42.219482,1123.974609,45.443359,1116.907227,45.443359z M1109.158203,25.108643h14.692383
			c-0.30957-3.905762-3.223633-6.447754-7.25293-6.447754C1112.753906,18.660889,1109.654297,21.016846,1109.158203,25.108643z"/>
		<path style="fill:#032044;" d="M1135.322266,34.531982h8.741211c0.496094,2.97583,3.038086,4.401855,6.509766,4.401855
			c2.728516,0,5.145508-0.991943,5.145508-3.223877c0-1.983887-1.797852-2.851807-5.827148-3.533691l-3.347656-0.620117
			c-6.572266-1.177979-10.664062-4.091797-10.664062-9.237305c0-6.571777,6.076172-10.601562,13.825195-10.601562
			c7.37793,0,13.454102,3.719971,14.321289,10.291504h-8.617188c-0.620117-2.417969-2.727539-3.781738-5.889648-3.781738
			c-2.727539,0-4.773438,1.239746-4.773438,3.161865c0,1.797852,1.611328,2.479736,5.083008,3.099609l3.286133,0.558105
			c7.31543,1.301758,11.655273,4.153809,11.655273,9.733398c0,7.067627-6.695312,10.66333-14.382812,10.66333
			C1142.513672,45.443359,1136.251953,42.033691,1135.322266,34.531982z"/>
	</g>
</g>
<g>
</g>
<g>
</g>
<g>
</g>
<g>
</g>
<g>
</g>
<g>
</g>
<g>
</g>
<g>
</g>
<g>
</g>
<g>
</g>
<g>
</g>
<g>
</g>
<g>
</g>
<g>
</g>
<g>
</g>
</svg>
