<?xml version="1.0" encoding="iso-8859-1"?>
<!-- Generator: Adobe Illustrator 30.2.1, SVG Export Plug-In . SVG Version: 9.03 Build 0)  -->
<svg version="1.1" id="Layer_1" xmlns="http://www.w3.org/2000/svg" xmlns:xlink="http://www.w3.org/1999/xlink" x="0px" y="0px"
	 viewBox="0 0 578.37793 123.478516" style="enable-background:new 0 0 578.37793 123.478516;" xml:space="preserve">
<g>
	<g>
		<path style="fill:#032044;" d="M0,22.814453C0,8.617188,10.664062,0.371582,21.823242,0.371582
			c10.539062,0,18.84668,6.261719,20.148438,15.74707H31.866211c-1.177734-4.339355-4.897461-7.129395-10.105469-7.129395
			c-6.323242,0-11.344727,5.331543-11.344727,13.825195s5.083008,14.01123,11.407227,14.01123
			c5.083008,0,8.679688-2.666016,10.105469-7.129395H42.03418c-1.549805,9.547363-9.733398,15.74707-20.273438,15.74707
			C10.291992,45.443359,0,37.07373,0,22.814453z"/>
		<path style="fill:#032044;" d="M44.106445,28.456055c0-10.229492,7.874023-16.676758,17.420898-16.676758
			c9.609375,0,17.421875,6.385254,17.421875,16.676758c0,10.353516-7.75,16.987305-17.421875,16.987305
			C51.793945,45.443359,44.106445,38.871582,44.106445,28.456055z M69.277344,28.456055c0-5.393555-3.162109-8.989258-7.75-8.989258
			c-4.649414,0-7.749023,3.595703-7.749023,8.989258c0,5.641602,3.162109,9.299316,7.749023,9.299316
			C66.177734,37.755371,69.277344,34.159668,69.277344,28.456055z"/>
		<path style="fill:#032044;" d="M82.856445,0.062012h9.422852v44.637207h-9.422852V0.062012z"/>
		<path style="fill:#032044;" d="M97.878906,0.062012h9.422852v44.637207h-9.422852V0.062012z"/>
		<path style="fill:#032044;" d="M128.245117,45.443359c-9.299805,0-17.111328-6.385742-17.111328-16.987305
			c0-10.291504,8.05957-16.676758,16.925781-16.676758c9.113281,0,16.614258,6.075684,16.614258,17.358887v1.921875h-24.116211
			c0.496094,4.649902,3.78125,7.439453,7.99707,7.439453c2.728516,0,5.456055-0.929688,6.757812-3.47168h9.051758
			C142.379883,42.219238,135.3125,45.443359,128.245117,45.443359z M120.495117,25.108398h14.693359
			c-0.30957-3.905762-3.223633-6.447754-7.25293-6.447754C124.091797,18.660645,120.991211,21.016602,120.495117,25.108398z"/>
		<path style="fill:#032044;" d="M163.789062,57.160645c-9.299805,0-15.00293-4.277832-16.057617-11.097656h9.175781
			c0.682617,2.790039,3.099609,4.339844,6.943359,4.339844c3.967773,0,6.572266-1.983887,6.572266-6.447754v-4.649414
			c-1.860352,2.851562-5.083984,4.525391-9.423828,4.525391c-7.749023,0-14.197266-5.765625-14.197266-16.118652
			c0-10.043457,6.696289-15.871094,14.321289-15.871094c4.463867,0,7.625977,1.797852,9.485352,4.959473v-4.21582h9.175781
			v30.750488C179.78418,52.882812,172.716797,57.160645,163.789062,57.160645z M170.484375,27.712402
			c0-5.332031-3.099609-8.493652-7.004883-8.493652c-4.030273,0-7.005859,3.285645-7.005859,8.493652
			c0,5.517578,2.975586,8.741211,7.005859,8.741211C167.447266,36.453613,170.484375,33.167969,170.484375,27.712402z"/>
		<path style="fill:#032044;" d="M200.72168,45.443359c-9.298828,0-17.110352-6.385742-17.110352-16.987305
			c0-10.291504,8.05957-16.676758,16.924805-16.676758c9.113281,0,16.615234,6.075684,16.615234,17.358887v1.921875H193.03418
			c0.496094,4.649902,3.782227,7.439453,7.998047,7.439453c2.727539,0,5.456055-0.929688,6.757812-3.47168h9.050781
			C214.857422,42.219238,207.790039,45.443359,200.72168,45.443359z M192.972656,25.108398h14.693359
			c-0.310547-3.905762-3.223633-6.447754-7.253906-6.447754C196.568359,18.660645,193.46875,21.016602,192.972656,25.108398z"/>
		<path style="fill:#032044;" d="M247.407227,19.466797v25.232422h-9.174805V19.466797h-5.332031v-6.881836h5.332031V9.175293
			C238.232422,2.107422,242.261719,0,248.337891,0c2.417969,0,3.967773,0,6.137695,0.062012v6.943359
			c-1.302734-0.062012-2.541992-0.062012-3.90625-0.062012c-1.859375,0-3.162109,0.496094-3.162109,3.099609v2.541992h7.068359
			v6.881836H247.407227z"/>
		<path style="fill:#032044;" d="M255.052734,28.456055c0-10.229492,7.874023-16.676758,17.420898-16.676758
			c9.609375,0,17.421875,6.385254,17.421875,16.676758c0,10.353516-7.75,16.987305-17.421875,16.987305
			C262.740234,45.443359,255.052734,38.871582,255.052734,28.456055z M280.223633,28.456055
			c0-5.393555-3.162109-8.989258-7.75-8.989258c-4.649414,0-7.749023,3.595703-7.749023,8.989258
			c0,5.641602,3.162109,9.299316,7.749023,9.299316C277.124023,37.755371,280.223633,34.159668,280.223633,28.456055z"/>
		<path style="fill:#032044;" d="M303.145508,44.699219h-9.423828V12.584961h9.114258v4.773926
			c0.557617-0.992188,1.301758-1.921875,2.231445-2.728027c1.859375-1.487793,3.658203-2.293945,6.695312-2.293945
			c0.806641,0,1.736328,0.062012,2.293945,0.186035v8.679688c-1.487305-0.186035-2.231445-0.186035-3.162109-0.186035
			c-3.533203,0-7.749023,1.301758-7.749023,7.377441V44.699219z"/>
		<path style="fill:#032044;" d="M332.161133,1.301758h10.105469v16.676758h18.90918V1.301758h10.105469v43.397461h-10.105469
			V26.410156h-18.90918v18.289062h-10.105469V1.301758z"/>
		<path style="fill:#032044;" d="M392.882812,45.443359c-9.298828,0-17.110352-6.385742-17.110352-16.987305
			c0-10.291504,8.05957-16.676758,16.924805-16.676758c9.113281,0,16.615234,6.075684,16.615234,17.358887v1.921875h-24.117188
			c0.496094,4.649902,3.782227,7.439453,7.998047,7.439453c2.727539,0,5.455078-0.929688,6.756836-3.47168h9.051758
			C407.018555,42.219238,399.950195,45.443359,392.882812,45.443359z M385.133789,25.108398h14.692383
			c-0.30957-3.905762-3.223633-6.447754-7.25293-6.447754C388.729492,18.660645,385.629883,21.016602,385.133789,25.108398z"/>
		<path style="fill:#032044;" d="M433.25,41.041504c-2.107422,2.604004-5.393555,4.339844-10.042969,4.339844
			c-6.076172,0-11.90332-3.472168-11.90332-10.043457c0-6.695801,5.393555-9.051758,13.886719-10.415527l7.37793-1.177734v-0.434082
			c0-3.47168-1.921875-4.835938-5.269531-4.835938c-3.410156,0-5.517578,1.611816-6.076172,4.587891h-8.802734
			c1.053711-7.005859,7.191406-11.283203,15.3125-11.283203c8.679688,0,14.135742,3.409668,14.073242,12.460938l-0.061523,13.63916
			c0,1.054199,0.061523,2.914062,0.248047,6.819824h-8.618164L433.25,41.041504z M425.625,38.685547
			c3.78125,0,6.943359-2.231934,6.943359-6.695801v-2.169922c-8.493164,1.054199-12.151367,1.984375-12.151367,5.083984
			C420.416992,37.383789,422.649414,38.685547,425.625,38.685547z"/>
		<path style="fill:#032044;" d="M447.213867,0.062012h9.422852v44.637207h-9.422852V0.062012z"/>
		<path style="fill:#032044;" d="M464.34375,35.95752V19.466797h-5.208008v-6.881836h5.208008V4.587402h9.237305v7.997559h7.128906
			v6.881836h-7.128906v14.320801c0,3.224121,0.991211,3.844238,3.533203,3.844238h3.595703v7.005371
			c-2.169922,0.124023-3.967773,0.124023-7.004883,0.124023C467.81543,44.76123,464.34375,43.025391,464.34375,35.95752z"/>
		<path style="fill:#032044;" d="M494.207031,44.699219h-9.422852V0.062012h9.422852V13.63916c0,0.867676,0,1.673828,0,2.41748
			c2.045898-2.665527,5.456055-4.215332,9.423828-4.215332c7.005859,0,11.716797,4.215332,11.716797,12.833008v20.024902h-9.422852
			V26.348145c0-4.091797-2.108398-6.447266-5.641602-6.447266c-3.286133,0-6.076172,2.41748-6.076172,7.6875V44.699219z"/>
		<path style="fill:#032044;" d="M520.886719,34.59375h10.291016v9.361328c0,6.881836-3.719727,9.79541-10.477539,11.097656
			v-5.517578c2.727539-0.620117,4.587891-1.983887,4.587891-3.844238c0-0.681641-0.37207-0.991699-1.177734-0.991699h-3.223633
			V34.59375z"/>
		<path style="fill:#032044;" d="M0,89.814453c0-14.197266,10.664062-22.442871,21.823242-22.442871
			c10.539062,0,18.84668,6.261719,20.148438,15.74707H31.866211c-1.177734-4.339355-4.897461-7.129395-10.105469-7.129395
			c-6.323242,0-11.344727,5.331543-11.344727,13.825195s5.083008,14.01123,11.407227,14.01123
			c5.083008,0,8.679688-2.666016,10.105469-7.129395H42.03418c-1.549805,9.547363-9.733398,15.74707-20.273438,15.74707
			C10.291992,112.443359,0,104.07373,0,89.814453z"/>
		<path style="fill:#032044;" d="M44.106445,95.456055c0-10.229492,7.874023-16.676758,17.420898-16.676758
			c9.609375,0,17.421875,6.385254,17.421875,16.676758c0,10.353516-7.75,16.987305-17.421875,16.987305
			C51.793945,112.443359,44.106445,105.871582,44.106445,95.456055z M69.277344,95.456055
			c0-5.393555-3.162109-8.989258-7.75-8.989258c-4.649414,0-7.749023,3.595703-7.749023,8.989258
			c0,5.641602,3.162109,9.299316,7.749023,9.299316C66.177734,104.755371,69.277344,101.159668,69.277344,95.456055z"/>
		<path style="fill:#032044;" d="M92.199219,111.699219h-9.423828V79.584961h9.114258v3.781738
			c1.983398-2.913574,5.393555-4.525391,9.546875-4.525391c3.782227,0,7.501953,1.549805,9.671875,5.20752
			c2.107422-3.409668,5.951172-5.20752,10.477539-5.20752c6.323242,0,11.84082,3.47168,11.84082,12.522949v20.334961h-9.423828
			V93.100098c0-4.153809-2.293945-6.199219-5.393555-6.199219c-3.037109,0-5.765625,2.355469-5.765625,7.31543v17.48291h-9.422852
			V93.100098c0-4.153809-2.293945-6.199219-5.394531-6.199219c-3.037109,0-5.827148,2.293457-5.827148,7.31543V111.699219z"/>
		<path style="fill:#032044;" d="M148.376953,111.699219h-9.422852V79.584961h9.113281v3.781738
			c1.984375-2.913574,5.393555-4.525391,9.547852-4.525391c3.78125,0,7.500977,1.549805,9.670898,5.20752
			c2.108398-3.409668,5.952148-5.20752,10.477539-5.20752c6.323242,0,11.841797,3.47168,11.841797,12.522949v20.334961h-9.423828
			V93.100098c0-4.153809-2.293945-6.199219-5.393555-6.199219c-3.038086,0-5.765625,2.355469-5.765625,7.31543v17.48291h-9.423828
			V93.100098c0-4.153809-2.293945-6.199219-5.393555-6.199219c-3.038086,0-5.828125,2.293457-5.828125,7.31543V111.699219z"/>
		<path style="fill:#032044;" d="M215.882812,107.91748c-2.108398,2.975586-5.456055,4.525879-9.423828,4.525879
			c-6.819336,0-11.717773-4.21582-11.717773-12.709473V79.584961h9.423828v18.413086c0,4.153809,2.169922,6.32373,5.580078,6.32373
			c3.037109,0,5.827148-2.169922,5.827148-7.315918V79.584961h9.423828v32.114258h-9.113281V107.91748z"/>
		<path style="fill:#032044;" d="M240.068359,111.699219h-9.423828V79.584961h9.114258v3.905762
			c2.044922-2.975586,5.579102-4.649414,9.733398-4.649414c7.004883,0,11.716797,4.215332,11.716797,12.833008v20.024902h-9.423828
			V93.348145c0-4.091797-2.107422-6.447266-5.641602-6.447266c-3.285156,0-6.075195,2.41748-6.075195,7.6875V111.699219z"/>
		<path style="fill:#032044;" d="M266.628906,67.062012h9.485352v7.811523h-9.485352V67.062012z M266.628906,79.584961h9.423828
			v32.114258h-9.423828V79.584961z"/>
		<path style="fill:#032044;" d="M283.672852,102.95752V86.466797h-5.208008v-6.881836h5.208008v-7.997559h9.237305v7.997559
			h7.129883v6.881836h-7.129883v14.320801c0,3.224121,0.992188,3.844238,3.53418,3.844238h3.595703v7.005371
			c-2.169922,0.124023-3.967773,0.124023-7.005859,0.124023C287.144531,111.76123,283.672852,110.025391,283.672852,102.95752z"/>
		<path style="fill:#032044;" d="M317.703125,123.478516h-9.671875l5.765625-14.01123l-12.771484-29.882324h9.857422
			l7.625977,19.776855l7.005859-19.776855h9.423828L317.703125,123.478516z"/>
		<path style="fill:#032044;" d="M377.84082,108.661621c-3.47168,2.355469-7.439453,3.781738-12.584961,3.781738
			c-8.927734,0-15.313477-4.835938-15.313477-12.647461c0-5.641602,3.223633-9.485352,8.431641-12.151367
			c-2.293945-2.604004-3.84375-5.269531-3.84375-8.865234c0-6.633789,5.765625-11.345703,13.205078-11.345703
			c7.625977,0,13.019531,4.339844,13.019531,11.097656c0,4.959473-3.162109,8.431152-8.866211,10.911133l6.572266,7.067871
			c1.363281-2.045898,2.169922-4.401855,2.541992-7.315918h8.678711c-0.495117,5.27002-2.292969,10.043457-5.393555,13.63916
			l8.183594,8.803711v0.062012h-11.779297L377.84082,108.661621z M366.061523,104.941406
			c2.355469,0,4.587891-0.681641,6.509766-2.045898l-9.051758-9.79541c-2.790039,1.488281-4.15332,3.53418-4.15332,6.013672
			C359.366211,102.647949,362.46582,104.941406,366.061523,104.941406z M366.743164,84.48291
			c3.782227-1.42627,5.517578-3.286133,5.517578-5.703613c0-2.541992-1.983398-4.277832-4.586914-4.277832
			c-2.728516,0-4.650391,1.859863-4.650391,4.339844C363.023438,80.887207,364.511719,82.499023,366.743164,84.48291z"/>
		<path style="fill:#032044;" d="M410.329102,68.301758h18.661133c10.601562,0,16.119141,5.827637,16.119141,14.197266
			c0,8.617188-5.765625,14.444824-16.180664,14.444824h-8.494141v14.755371h-10.105469V68.301758z M427.50293,88.884277
			c4.897461,0,7.439453-2.479492,7.439453-6.26123s-2.604492-6.261719-7.439453-6.261719h-7.068359v12.522949H427.50293z"/>
		<path style="fill:#032044;" d="M445.875,95.456055c0-10.229492,7.873047-16.676758,17.420898-16.676758
			c9.609375,0,17.420898,6.385254,17.420898,16.676758c0,10.353516-7.75,16.987305-17.420898,16.987305
			C453.5625,112.443359,445.875,105.871582,445.875,95.456055z M471.044922,95.456055
			c0-5.393555-3.162109-8.989258-7.749023-8.989258c-4.650391,0-7.75,3.595703-7.75,8.989258
			c0,5.641602,3.162109,9.299316,7.75,9.299316C467.945312,104.755371,471.044922,101.159668,471.044922,95.456055z"/>
		<path style="fill:#032044;" d="M484.624023,67.062012h9.422852v44.637207h-9.422852V67.062012z"/>
		<path style="fill:#032044;" d="M499.633789,67.062012h9.485352v7.811523h-9.485352V67.062012z M499.633789,79.584961h9.422852
			v32.114258h-9.422852V79.584961z"/>
		<path style="fill:#032044;" d="M512.728516,95.456055c0-10.043457,7.811523-16.676758,17.048828-16.676758
			c8.369141,0,14.94043,4.959473,15.932617,12.646973h-9.298828c-0.744141-3.037598-3.410156-4.959473-6.633789-4.959473
			c-4.339844,0-7.37793,3.657715-7.37793,8.989258c0,5.517578,3.099609,9.299316,7.37793,9.299316
			c3.161133,0,5.703125-1.797852,6.571289-5.021484h9.361328c-1.239258,7.935547-7.873047,12.709473-15.995117,12.709473
			C520.291992,112.443359,512.728516,105.80957,512.728516,95.456055z"/>
		<path style="fill:#032044;" d="M561.142578,123.478516h-9.670898l5.765625-14.01123L544.46582,79.584961h9.857422
			l7.625977,19.776855l7.004883-19.776855h9.423828L561.142578,123.478516z"/>
	</g>
</g>
<g>
</g>
<g>
</g>
<g>
</g>
<g>
</g>
<g>
</g>
<g>
</g>
<g>
</g>
<g>
</g>
<g>
</g>
<g>
</g>
<g>
</g>
<g>
</g>
<g>
</g>
<g>
</g>
<g>
</g>
</svg>
