<svg xmlns="http://www.w3.org/2000/svg" width="50" height="50" viewBox="0 0 50 50"><defs><style>.a{fill:#0c2340;}.b,.c{fill:#fff;}.b{opacity:0.203;}.d,.e{fill:none;}.e{stroke:#fff;stroke-width:2px;}</style></defs><g transform="translate(-1 -1)"><circle class="a" cx="24" cy="24" r="24" transform="translate(2 2)"/><path class="b" d="M42.7,42.7a23.237,23.237,0,0,1-32.9,0c-.3,0,33-33.3,32.9-32.9A23.237,23.237,0,0,1,42.7,42.7Z"/><g transform="translate(12.004 40) rotate(-90)"><g transform="translate(0 -0.006)"><path class="c" d="M28.4,15.4,17.7,26.1a2.083,2.083,0,0,1-3-.1,2.174,2.174,0,0,1,0-3l7.1-7.1H1.1a2.027,2.027,0,0,1-2.1-2,2.182,2.182,0,0,1,2.1-2.1H21.6L14.5,4.7a2.083,2.083,0,0,1,.1-3,2.174,2.174,0,0,1,3,0L28.3,12.4a2.083,2.083,0,0,1,.1,3"/></g></g><circle class="d" cx="25" cy="25" r="25" transform="translate(1 1)"/><circle class="e" cx="24" cy="24" r="24" transform="translate(2 2)"/></g></svg>