<svg width="276" height="120" viewBox="0 0 276 120" fill="none" xmlns="http://www.w3.org/2000/svg">
<path d="M138.407 14.9297C138.523 16.0306 138.814 17.4215 139.045 18.4077C142.064 30.1163 154.833 34.6364 171.144 31.2746V19.2761C158.2 21.9416 142.179 20.4359 138.523 5.71292H137.478C133.821 20.4345 117.8 21.9416 104.857 19.2761V31.2746C121.168 34.6364 133.938 30.1148 136.956 18.4077C137.189 17.423 137.478 16.0306 137.595 14.9297H138.407ZM138.522 25.9421C141.598 38.9254 155.239 42.577 170.854 39.5053C169.983 44.2579 168.068 48.7794 165.107 52.4885C147.693 53.4158 139.915 46.7498 138.405 35.1574H137.593C136.084 46.7498 128.306 53.4158 110.892 52.4885C107.932 48.7794 106.016 44.2579 105.145 39.5053C120.759 42.577 134.399 38.9254 137.477 25.9421H138.522ZM138.755 0.03302C143.688 12.7263 160.29 13.2488 171.144 11.0455V0.03302H138.755ZM137.245 0.03302H104.856V11.0455C115.71 13.2474 132.312 12.7263 137.245 0.03302ZM137.536 46.1713C135.272 54.8656 127.843 59.3871 120.877 60.3144L138 69.5885L155.124 60.3144C148.157 59.3871 140.728 54.8656 138.464 46.1713H137.536Z" fill="#F55600"/>
<path d="M96.7711 99.6818C95.3364 97.8761 92.828 96.8742 90.4058 96.8742C83.8681 96.8742 80.0141 102.088 80.0141 108.421C80.0141 114.754 83.674 119.967 90.3569 119.967C92.782 119.967 95.3235 118.962 96.7696 117.152L96.9436 119.479H102.165V97.3608H96.9436L96.7711 99.6818ZM91.2841 115.435C87.7709 115.435 85.5758 112.318 85.5758 108.421C85.5758 104.523 87.7709 101.406 91.2841 101.406C94.001 101.406 95.7231 103.144 96.6992 105.103V111.738C95.7217 113.699 93.9996 115.435 91.2841 115.435ZM126.072 105.4V119.48H120.608V105.889C120.608 103.599 119.291 101.699 116.803 101.699C114.166 101.699 111.965 103.873 110.948 106.049V119.482H105.484V97.4612H110.754L110.907 100.52C112.599 98.0856 115.305 97.022 117.976 97.022C123.148 97.022 126.074 100.384 126.074 105.402L126.072 105.4ZM17.9055 91.6608H23.6627V108.858C23.6627 116.361 18.6372 119.966 11.7099 119.966C4.39156 119.966 0 116.02 0 109.052V91.6593H5.75719V108.467C5.75719 112.803 8.29438 114.995 11.8565 114.995C15.4186 114.995 17.9069 112.803 17.9069 108.467V91.6593L17.9055 91.6608ZM62.9869 99.1636C62.9869 101.258 65.1331 102.086 68.2079 102.623C73.623 103.549 78.5508 105.254 78.5508 111.489C78.5508 117.189 73.9651 119.967 67.6214 119.967C60.3031 119.967 55.9604 115.972 56.1559 109.493H62.0109C62.0597 113.147 64.1082 115.193 67.6214 115.193C70.4993 115.193 72.4026 114.316 72.4026 111.978C72.4026 109.639 70.5971 108.616 66.792 107.983C62.2064 107.203 56.8387 105.791 56.8387 99.6517C56.8387 94.2445 61.4244 91.1742 67.3771 91.1742C73.8171 91.1742 78.4516 94.6335 78.5493 100.333H72.6944C72.5966 97.8 70.6459 95.9483 67.3771 95.9483C64.8399 95.9483 62.9855 97.1182 62.9855 99.1636H62.9869ZM26.1021 91.6608H49.8137V97.556L40.8365 95.3153V119.479H35.0793V95.3153L26.1021 97.556V91.6608ZM209.598 96.9718C202.767 96.9718 198.523 101.6 198.523 108.469C198.523 115.339 202.768 119.967 209.598 119.967C216.427 119.967 220.672 115.339 220.672 108.469C220.672 101.6 216.427 96.9718 209.598 96.9718ZM209.598 115.533C206.035 115.533 204.036 112.464 204.036 108.469C204.036 104.475 206.037 101.406 209.598 101.406C213.158 101.406 215.159 104.475 215.159 108.469C215.159 112.464 213.158 115.533 209.598 115.533ZM246.142 90.0531H251.997V95.3153H246.142V90.0531ZM264.925 96.9718C258.094 96.9718 253.851 101.6 253.851 108.469C253.851 115.339 258.096 119.967 264.925 119.967C271.755 119.967 276 115.339 276 108.469C276 101.6 271.755 96.9718 264.925 96.9718ZM264.925 115.533C261.363 115.533 259.364 112.464 259.364 108.469C259.364 104.475 261.365 101.406 264.925 101.406C268.486 101.406 270.487 104.475 270.487 108.469C270.487 112.464 268.486 115.533 264.925 115.533ZM246.336 97.4584H251.8V119.479H246.336V97.4584ZM182.228 105.4V119.48H176.764V105.889C176.764 103.599 175.447 101.699 172.959 101.699C170.322 101.699 168.121 103.873 167.104 106.049V119.482H161.64V97.4612H166.91L167.063 100.52C168.755 98.0856 171.461 97.022 174.132 97.022C179.304 97.022 182.23 100.384 182.23 105.402L182.228 105.4ZM243.311 105.4V119.48H237.847V105.889C237.847 103.599 236.531 101.699 234.042 101.699C231.406 101.699 229.205 103.873 228.187 106.049V119.482H222.723V97.4612H227.993L228.147 100.52C229.839 98.0856 232.544 97.022 235.215 97.022C240.387 97.022 243.314 100.384 243.314 105.402L243.311 105.4ZM138.171 91.6608L141.273 95.7474L132.854 119.479H138.611L140.895 112.853H152.122L154.37 119.479H160.323L150.712 91.6608H138.173H138.171ZM142.54 108.079L144.807 101.502L146.52 95.8679L148.269 101.502L150.5 108.079H142.538H142.54ZM192.23 97.4584H198.036V101.892H192.23V111.733C192.23 114.169 192.913 115.046 195.401 115.046H198.036V119.48H194.084C188.571 119.48 186.766 116.654 186.766 112.368V101.894H183.253V97.4598H186.766V93.4651L192.23 90.7364V97.4598V97.4584Z" fill="white"/>
</svg>
