<?xml version="1.0" encoding="iso-8859-1"?>
<!-- Generator: Adobe Illustrator 30.2.1, SVG Export Plug-In . SVG Version: 9.03 Build 0)  -->
<svg version="1.1" id="Layer_1" xmlns="http://www.w3.org/2000/svg" xmlns:xlink="http://www.w3.org/1999/xlink" x="0px" y="0px"
	 viewBox="0 0 828.47998 57.160645" style="enable-background:new 0 0 828.47998 57.160645;" xml:space="preserve">
<g>
	<g>
		<path style="fill:#032044;" d="M0,22.814697C0,8.617432,10.663574,0.37207,21.822754,0.37207
			c10.539551,0,18.84668,6.261475,20.148926,15.74707H31.866211c-1.178223-4.339844-4.897949-7.129639-10.105469-7.129639
			c-6.32373,0-11.345215,5.331787-11.345215,13.825195c0,8.493652,5.083496,14.01123,11.407227,14.01123
			c5.083496,0,8.679688-2.665771,10.105469-7.129639h10.105469c-1.549805,9.547607-9.733398,15.74707-20.272949,15.74707
			C10.291504,45.443359,0,37.073975,0,22.814697z"/>
		<path style="fill:#032044;" d="M44.106445,28.456299c0-10.229248,7.873535-16.677002,17.420898-16.677002
			c9.609375,0,17.421387,6.385742,17.421387,16.677002c0,10.353516-7.75,16.987061-17.421387,16.987061
			C51.793945,45.443359,44.106445,38.871826,44.106445,28.456299z M69.276855,28.456299
			c0-5.393555-3.161621-8.989502-7.749512-8.989502c-4.649414,0-7.749512,3.595947-7.749512,8.989502
			c0,5.641846,3.162109,9.299561,7.749512,9.299561C66.177246,37.755859,69.276855,34.160156,69.276855,28.456299z"/>
		<path style="fill:#032044;" d="M82.855957,0.062012h9.42334v44.637451h-9.42334V0.062012z"/>
		<path style="fill:#032044;" d="M97.878418,0.062012h9.42334v44.637451h-9.42334V0.062012z"/>
		<path style="fill:#032044;" d="M128.244629,45.443359c-9.299316,0-17.11084-6.385498-17.11084-16.987061
			c0-10.29126,8.05957-16.677002,16.925293-16.677002c9.113281,0,16.614746,6.075684,16.614746,17.359131v1.921875h-24.116699
			c0.496094,4.649658,3.781738,7.439453,7.997559,7.439453c2.728027,0,5.456055-0.929932,6.757812-3.47168h9.05127
			C142.379883,42.219482,135.3125,45.443359,128.244629,45.443359z M120.495117,25.108643h14.693359
			c-0.310059-3.905762-3.223633-6.447754-7.253418-6.447754C124.091309,18.660889,120.991211,21.016846,120.495117,25.108643z"/>
		<path style="fill:#032044;" d="M163.788574,57.160645c-9.299316,0-15.00293-4.277588-16.057129-11.097168h9.175781
			c0.682129,2.789795,3.099609,4.3396,6.943359,4.3396c3.967773,0,6.571777-1.983887,6.571777-6.44751v-4.649902
			c-1.859863,2.852051-5.083496,4.525879-9.42334,4.525879c-7.749512,0-14.197266-5.765625-14.197266-16.119141
			c0-10.043457,6.695801-15.871094,14.321289-15.871094c4.463379,0,7.625488,1.797852,9.485352,4.959717v-4.21582h9.175293
			v30.750244C179.783691,52.883057,172.716309,57.160645,163.788574,57.160645z M170.484375,27.712402
			c0-5.331787-3.099609-8.493408-7.005371-8.493408c-4.029785,0-7.005859,3.285645-7.005859,8.493408
			c0,5.517822,2.976074,8.741455,7.005859,8.741455C167.446777,36.453857,170.484375,33.168213,170.484375,27.712402z"/>
		<path style="fill:#032044;" d="M200.72168,45.443359c-9.299316,0-17.11084-6.385498-17.11084-16.987061
			c0-10.29126,8.05957-16.677002,16.925293-16.677002c9.113281,0,16.614746,6.075684,16.614746,17.359131v1.921875H193.03418
			c0.496094,4.649658,3.781738,7.439453,7.997559,7.439453c2.728027,0,5.456055-0.929932,6.757812-3.47168h9.05127
			C214.856934,42.219482,207.789551,45.443359,200.72168,45.443359z M192.972168,25.108643h14.693359
			c-0.310059-3.905762-3.223633-6.447754-7.253418-6.447754C196.568359,18.660889,193.468262,21.016846,192.972168,25.108643z"/>
		<path style="fill:#032044;" d="M234.016113,28.456299c0-10.229248,7.873535-16.677002,17.420898-16.677002
			c9.609375,0,17.420898,6.385742,17.420898,16.677002c0,10.353516-7.749512,16.987061-17.420898,16.987061
			C241.703613,45.443359,234.016113,38.871826,234.016113,28.456299z M259.186523,28.456299
			c0-5.393555-3.161621-8.989502-7.749512-8.989502c-4.649414,0-7.749512,3.595947-7.749512,8.989502
			c0,5.641846,3.162109,9.299561,7.749512,9.299561C256.086914,37.755859,259.186523,34.160156,259.186523,28.456299z"/>
		<path style="fill:#032044;" d="M283.869141,19.466797v25.232666h-9.175293V19.466797h-5.331543v-6.881592h5.331543V9.175537
			C274.693848,2.10791,278.723633,0,284.799316,0c2.417969,0,3.967773,0,6.137695,0.062012v6.943604
			c-1.302246-0.062012-2.541992-0.062012-3.905762-0.062012c-1.859863,0-3.162109,0.496094-3.162109,3.099854v2.541748h7.067871
			v6.881592H283.869141z"/>
		<path style="fill:#032044;" d="M309.351562,1.302002h10.105469v34.96582h19.652832v8.431641h-29.758301V1.302002z"/>
		<path style="fill:#032044;" d="M341.796387,0.062012h9.485352v7.811523h-9.485352V0.062012z M341.796387,12.585205h9.422852
			v32.114258h-9.422852V12.585205z"/>
		<path style="fill:#032044;" d="M375.615723,45.381348c-4.463867,0-7.749023-1.859863-9.609375-5.20752v4.525635h-9.174805
			V0.062012h9.422852v16.305176c1.921875-2.913818,5.083984-4.525879,9.423828-4.525879
			c7.99707,0,14.817383,5.703613,14.817383,16.552979C390.495605,39.491699,383.61377,45.381348,375.615723,45.381348z
			 M380.885254,28.394287c0-5.889648-3.223633-8.989258-7.376953-8.989258c-4.27832,0-7.439453,3.285645-7.439453,8.989258
			c0,6.013672,3.347656,9.423584,7.439453,9.423584C377.661621,37.817871,380.885254,34.407959,380.885254,28.394287z"/>
		<path style="fill:#032044;" d="M409.80127,45.443359c-9.298828,0-17.110352-6.385498-17.110352-16.987061
			c0-10.29126,8.058594-16.677002,16.924805-16.677002c9.113281,0,16.615234,6.075684,16.615234,17.359131v1.921875H402.11377
			c0.496094,4.649658,3.782227,7.439453,7.998047,7.439453c2.727539,0,5.455078-0.929932,6.756836-3.47168h9.051758
			C423.937012,42.219482,416.868652,45.443359,409.80127,45.443359z M402.052246,25.108643h14.692383
			c-0.30957-3.905762-3.223633-6.447754-7.25293-6.447754C405.647949,18.660889,402.54834,21.016846,402.052246,25.108643z"/>
		<path style="fill:#032044;" d="M439.623535,44.699463h-9.422852V12.585205h9.113281v4.773926
			c0.557617-0.991943,1.301758-1.921875,2.231445-2.728027c1.860352-1.487793,3.658203-2.293701,6.696289-2.293701
			c0.805664,0,1.735352,0.062012,2.292969,0.185791v8.679688c-1.487305-0.186035-2.231445-0.186035-3.161133-0.186035
			c-3.53418,0-7.75,1.302002-7.75,7.377441V44.699463z"/>
		<path style="fill:#032044;" d="M473.324707,41.041748c-2.107422,2.60376-5.393555,4.3396-10.042969,4.3396
			c-6.076172,0-11.90332-3.47168-11.90332-10.043457c0-6.695557,5.393555-9.05127,13.886719-10.415283l7.37793-1.177979v-0.433838
			c0-3.471924-1.921875-4.835938-5.269531-4.835938c-3.410156,0-5.517578,1.612061-6.076172,4.587891h-8.802734
			c1.053711-7.005615,7.191406-11.283447,15.3125-11.283447c8.679688,0,14.135742,3.409912,14.073242,12.461426l-0.061523,13.63916
			c0,1.053955,0.061523,2.913818,0.248047,6.81958h-8.618164L473.324707,41.041748z M465.699707,38.685791
			c3.78125,0,6.943359-2.231934,6.943359-6.695557v-2.169922c-8.493164,1.053955-12.151367,1.983887-12.151367,5.08374
			C460.491699,37.383789,462.724121,38.685791,465.699707,38.685791z"/>
		<path style="fill:#032044;" d="M487.288574,0.062012h9.422852v44.637451h-9.422852V0.062012z"/>
		<path style="fill:#032044;" d="M543.58252,41.661621c-3.47168,2.355957-7.439453,3.781738-12.584961,3.781738
			c-8.927734,0-15.313477-4.835693-15.313477-12.647217c0-5.641602,3.223633-9.485352,8.431641-12.151367
			c-2.293945-2.60376-3.84375-5.269531-3.84375-8.865479c0-6.633545,5.765625-11.345215,13.205078-11.345215
			c7.625977,0,13.019531,4.3396,13.019531,11.097168c0,4.959717-3.162109,8.431641-8.866211,10.911377l6.572266,7.067627
			c1.363281-2.045898,2.169922-4.401611,2.541992-7.31543h8.678711c-0.495117,5.269531-2.292969,10.043457-5.393555,13.63916
			l8.183594,8.803467v0.062012h-11.779297L543.58252,41.661621z M531.803223,37.941895
			c2.355469,0,4.587891-0.681885,6.509766-2.045898l-9.051758-9.79541c-2.790039,1.487793-4.15332,3.533691-4.15332,6.013672
			C525.10791,35.647949,528.20752,37.941895,531.803223,37.941895z M532.484863,17.48291
			c3.782227-1.425781,5.517578-3.285645,5.517578-5.703613c0-2.541748-1.983398-4.277588-4.586914-4.277588
			c-2.728516,0-4.650391,1.859863-4.650391,4.3396C528.765137,13.887207,530.253418,15.499023,532.484863,17.48291z"/>
		<path style="fill:#032044;" d="M586.052246,27.588379v17.111084h-9.981445V1.302002h30.316406v8.431396h-20.334961v9.857422
			h18.351562v7.997559H586.052246z"/>
		<path style="fill:#032044;" d="M609.358887,0.062012h9.485352v7.811523h-9.485352V0.062012z M609.358887,12.585205h9.422852
			v32.114258h-9.422852V12.585205z"/>
		<path style="fill:#032044;" d="M633.816895,44.699463h-9.422852V12.585205h9.113281v3.905762
			c2.045898-2.97583,5.579102-4.649658,9.733398-4.649658c7.005859,0,11.716797,4.21582,11.716797,12.833252v20.024902h-9.422852
			V26.348389c0-4.091553-2.108398-6.44751-5.641602-6.44751c-3.286133,0-6.076172,2.417969-6.076172,7.6875V44.699463z"/>
		<path style="fill:#032044;" d="M675.572754,45.443359c-9.298828,0-17.110352-6.385498-17.110352-16.987061
			c0-10.29126,8.058594-16.677002,16.924805-16.677002c9.113281,0,16.615234,6.075684,16.615234,17.359131v1.921875h-24.117188
			c0.496094,4.649658,3.782227,7.439453,7.998047,7.439453c2.727539,0,5.455078-0.929932,6.756836-3.47168h9.051758
			C689.708496,42.219482,682.640137,45.443359,675.572754,45.443359z M667.82373,25.108643h14.692383
			c-0.30957-3.905762-3.223633-6.447754-7.25293-6.447754C671.419434,18.660889,668.319824,21.016846,667.82373,25.108643z"/>
		<path style="fill:#032044;" d="M738.439941,35.399902h-17.731445l-3.286133,9.299561h-10.166992l16.552734-43.397461h12.027344
			l16.553711,43.397461h-10.664062L738.439941,35.399902z M735.587402,27.402344l-6.013672-17.048828l-6.013672,17.048828
			H735.587402z"/>
		<path style="fill:#032044;" d="M764.052246,44.699463h-9.422852V12.585205h9.113281v4.773926
			c0.557617-0.991943,1.301758-1.921875,2.231445-2.728027c1.860352-1.487793,3.658203-2.293701,6.695312-2.293701
			c0.806641,0,1.736328,0.062012,2.293945,0.185791v8.679688c-1.487305-0.186035-2.231445-0.186035-3.161133-0.186035
			c-3.53418,0-7.75,1.302002-7.75,7.377441V44.699463z"/>
		<path style="fill:#032044;" d="M781.009277,35.958008V19.466797h-5.208008v-6.881592h5.208008V4.587646h9.237305v7.997559
			h7.128906v6.881592h-7.128906v14.321289c0,3.223877,0.991211,3.84375,3.533203,3.84375h3.595703v7.005615
			c-2.169922,0.124023-3.967773,0.124023-7.004883,0.124023C784.480957,44.761475,781.009277,43.025635,781.009277,35.958008z"/>
		<path style="fill:#032044;" d="M799.031738,34.531982h8.741211c0.496094,2.97583,3.038086,4.401855,6.509766,4.401855
			c2.728516,0,5.145508-0.991943,5.145508-3.223877c0-1.983887-1.797852-2.851807-5.827148-3.533691l-3.347656-0.620117
			c-6.572266-1.177979-10.664062-4.091797-10.664062-9.237305c0-6.571777,6.076172-10.601562,13.825195-10.601562
			c7.37793,0,13.454102,3.719971,14.321289,10.291504h-8.617188c-0.620117-2.417969-2.727539-3.781738-5.889648-3.781738
			c-2.727539,0-4.773438,1.239746-4.773438,3.161865c0,1.797852,1.611328,2.479736,5.083008,3.099609l3.286133,0.558105
			c7.31543,1.301758,11.655273,4.153809,11.655273,9.733398c0,7.067627-6.695312,10.66333-14.382812,10.66333
			C806.223145,45.443359,799.961426,42.033691,799.031738,34.531982z"/>
	</g>
</g>
<g>
</g>
<g>
</g>
<g>
</g>
<g>
</g>
<g>
</g>
<g>
</g>
<g>
</g>
<g>
</g>
<g>
</g>
<g>
</g>
<g>
</g>
<g>
</g>
<g>
</g>
<g>
</g>
<g>
</g>
</svg>
