<svg width="289" height="120" viewBox="0 0 289 120" fill="none" xmlns="http://www.w3.org/2000/svg">
<g clip-path="url(#clip0_900_3365)">
<path d="M138.305 14.9052C138.421 16.0068 138.711 17.3989 138.943 18.3847C141.959 30.0993 154.72 34.6233 171.019 31.2597V19.2545C158.085 21.9228 142.075 20.4149 138.421 5.68426H137.376C133.721 20.4149 117.713 21.9228 104.778 19.2545V31.2597C121.076 34.6233 133.837 30.0993 136.854 18.3847C137.085 17.3989 137.376 16.0068 137.492 14.9052H138.303H138.305ZM138.421 25.923C141.494 38.9139 155.125 42.568 170.728 39.4933C169.858 44.249 167.944 48.773 164.986 52.4842C147.584 53.4128 139.813 46.7428 138.305 35.144H137.493C135.985 46.7428 128.212 53.4128 110.812 52.4842C107.854 48.773 105.94 44.249 105.07 39.4933C120.673 42.5665 134.304 38.9139 137.377 25.923H138.422H138.421ZM138.652 0C143.582 12.7004 160.172 13.2226 171.019 11.0194V0H138.652ZM137.144 0H104.778V11.0194C115.624 13.2226 132.213 12.7019 137.144 0ZM137.435 46.1633C135.172 54.862 127.749 59.386 120.787 60.3145L137.898 69.5942L155.009 60.3145C148.049 59.386 140.624 54.8636 138.362 46.1633H137.433H137.435Z" fill="#F55600"/>
<path d="M96.7006 99.7055C95.2676 97.8981 92.7615 96.8958 90.3411 96.8958C83.8085 96.8958 79.9567 102.112 79.9567 108.448C79.9567 114.784 83.6128 120 90.2929 120C92.7163 120 95.2556 118.995 96.7006 117.184L96.8737 119.512H102.091V97.3819H96.8737L96.7006 99.704V99.7055ZM91.2171 115.467C87.707 115.467 85.5124 112.347 85.5124 108.448C85.5124 104.549 87.707 101.429 91.2171 101.429C93.931 101.429 95.653 103.167 96.6284 105.129V111.768C95.6515 113.729 93.931 115.469 91.2171 115.469V115.467ZM125.978 105.426V119.514H120.518V105.914C120.518 103.623 119.2 101.721 116.715 101.721C114.08 101.721 111.881 103.895 110.865 106.073V119.512H105.404V97.4797H110.669L110.822 100.541C112.513 98.1058 115.216 97.0417 117.885 97.0417C123.052 97.0417 125.978 100.405 125.978 105.426ZM17.8924 91.6795H23.6453V108.887C23.6453 116.394 18.6239 120.002 11.7015 120.002C4.38919 120.002 0 116.052 0 109.083V91.6811H5.75291V108.498C5.75291 112.836 8.28768 115.029 11.8475 115.029C15.4073 115.029 17.8924 112.835 17.8924 108.498V91.6811V91.6795ZM62.9403 99.1863C62.9403 101.283 65.0852 102.11 68.1573 102.648C73.5686 103.573 78.4936 105.28 78.4936 111.52C78.4936 117.223 73.9102 120.002 67.5733 120.002C60.261 120.002 55.9215 116.004 56.1157 109.521H61.9664C62.0146 113.176 64.0632 115.225 67.5733 115.225C70.4498 115.225 72.3509 114.347 72.3509 112.007C72.3509 109.667 70.5476 108.644 66.7439 108.01C62.1606 107.23 56.7975 105.816 56.7975 99.6739C56.7975 94.2636 61.3809 91.1919 67.328 91.1919C73.7627 91.1919 78.3943 94.6534 78.4921 100.356H72.6414C72.5435 97.8213 70.5943 95.9687 67.328 95.9687C64.7932 95.9687 62.9403 97.1381 62.9403 99.1863ZM26.0838 91.6795H49.7772V97.5775L40.8062 95.3351V119.512H35.0533V95.3351L26.0822 97.5775V91.6795H26.0838ZM209.444 96.9921C202.618 96.9921 198.377 101.623 198.377 108.496C198.377 115.369 202.619 120 209.444 120C216.268 120 220.51 115.369 220.51 108.496C220.51 101.623 216.268 96.9921 209.444 96.9921ZM209.444 115.565C205.885 115.565 203.886 112.493 203.886 108.496C203.886 104.499 205.885 101.427 209.444 101.427C213.002 101.427 215.001 104.499 215.001 108.496C215.001 112.493 213.002 115.565 209.444 115.565ZM245.96 90.0707H251.811V95.3351H245.96V90.0707ZM264.73 96.9921C257.904 96.9921 253.664 101.623 253.664 108.496C253.664 115.369 257.905 120 264.73 120C271.555 120 275.796 115.369 275.796 108.496C275.796 101.623 271.555 96.9921 264.73 96.9921ZM264.73 115.565C261.172 115.565 259.173 112.493 259.173 108.496C259.173 104.499 261.172 101.427 264.73 101.427C268.288 101.427 270.287 104.499 270.287 108.496C270.287 112.493 268.288 115.565 264.73 115.565ZM246.156 97.4797H251.617V119.512H246.156V97.4797ZM182.094 105.426V119.514H176.633V105.914C176.633 103.623 175.316 101.721 172.831 101.721C170.197 101.721 167.998 103.895 166.98 106.073V119.512H161.519V97.4797H166.785L166.938 100.541C168.628 98.1058 171.332 97.0417 174.001 97.0417C179.168 97.0417 182.094 100.405 182.094 105.426ZM243.133 105.426V119.514H237.672V105.914C237.672 103.623 236.355 101.721 233.87 101.721C231.236 101.721 229.037 103.895 228.019 106.073V119.512H222.559V97.4797H227.824L227.977 100.541C229.668 98.1058 232.371 97.0417 235.04 97.0417C240.207 97.0417 243.133 100.405 243.133 105.426ZM138.07 91.6795L141.169 95.7685L132.755 119.514H138.508L140.79 112.885H152.009L154.255 119.514H160.204L150.599 91.6795H138.07ZM142.435 108.106L144.7 101.525L146.413 95.8874L148.162 101.525L150.391 108.106H142.435ZM192.089 97.4797H197.89V101.915H192.089V111.762C192.089 114.198 192.771 115.076 195.257 115.076H197.89V119.511H193.94C188.431 119.511 186.628 116.683 186.628 112.394V101.913H183.118V97.4782H186.628V93.481L192.089 90.751V97.4782V97.4797ZM280.041 98.1268H278.236V97.4797H282.598V98.1268H280.801V102.744H280.041V98.1268ZM284.111 98.029V102.744H283.389V97.4797H284.638L286.217 101.901L287.788 97.4797H289V102.744H288.277V98.0064L286.578 102.744H285.81L284.111 98.029Z" fill="white"/>
</g>
<defs>
<clipPath id="clip0_900_3365">
<rect width="289" height="120" fill="white"/>
</clipPath>
</defs>
</svg>
