<?xml version="1.0" encoding="UTF-8"?><svg id="Group_-_Formal_Single" xmlns="http://www.w3.org/2000/svg" viewBox="0 0 594.64 74.58"><defs><style>.cls-1{fill:#e67943;}.cls-1,.cls-2{stroke-width:0px;}.cls-2{fill:#14435c;}</style></defs><g id="Group_-_Formal_Single_-_Condensed"><path class="cls-1" d="M156.27,1.71l-17.72,46.06c.09-1.06.14-2.13.14-3.19,0-10.46-6.94-15-15.95-17.66l-4.28-1.29c-2.91-.94-7.46-2.4-7.46-6.17s4.12-5.39,7.2-5.39c4.12,0,8.06,1.71,11.15,4.28l6.68-13.03c-5.75-3.26-13.71-5.32-20.23-5.32-8.06,0-14.72,3.33-18.6,9V1.71h-57.61v34.03c0,8.41-.6,17.57-11.4,17.57s-11.4-9.17-11.4-17.57V1.71H0v36.35c0,8.31.34,16.54,6.77,22.8,5.4,5.32,13.89,7.2,21.43,7.2s16.03-1.88,21.43-7.2c6.43-6.26,6.77-14.49,6.77-22.8V15.95h10.12v50.4h16.8V15.95h10.88c-.43,1.8-.68,3.71-.68,5.74,0,12.52,6.94,15.26,17.48,18.26,3.61,1.03,10.21,2.66,10.21,7.38s-4.2,6.51-8.15,6.51c-5.74,0-10.71-3-14.92-6.69l-7.19,13.55c6.6,4.63,14.57,7.37,22.71,7.37,6.51,0,13.29-1.79,18.34-6.08.63-.54,1.21-1.11,1.74-1.71l-2.34,6.08h17.83l4.46-11.23h23.15l4.19,11.23h17.92L174.61,1.71h-18.34ZM158.33,42.25l6.94-20.57h.18l6.85,20.57h-13.97Z"/><path class="cls-1" d="M203.85,57.98h-.03c-2.49,0-4.47,1.93-4.47,4.34s1.98,4.36,4.47,4.36,4.45-1.91,4.45-4.36-1.93-4.34-4.42-4.34ZM203.85,65.78c-1.96,0-3.39-1.53-3.39-3.46s1.43-3.46,3.33-3.46h.03c1.93,0,3.34,1.56,3.34,3.46s-1.4,3.48-3.31,3.46Z"/><path class="cls-1" d="M204.83,62.46v-.05c.53-.16.9-.53.9-1.03,0-.4-.19-.75-.42-.93-.32-.22-.69-.35-1.51-.35-.71,0-1.26.09-1.66.16v4.3h1v-1.72h.48c.55,0,.82.21.89.69.13.51.22.87.35,1.03h1.08c-.11-.13-.19-.4-.31-1.06-.13-.58-.38-.92-.8-1.05ZM203.64,62.14h-.48v-1.25c.11-.03.29-.05.56-.05.64,0,.92.27.92.66,0,.45-.45.64-1,.64Z"/><path class="cls-2" d="M236.66,5.92c-1.38-.96-3.02-1.44-4.92-1.44-1.62,0-3.01.3-4.16.91-1.15.61-2.1,1.43-2.85,2.45-.75,1.03-1.3,2.2-1.65,3.52-.35,1.32-.53,2.69-.53,4.1,0,1.55.18,3.01.53,4.39.35,1.38.91,2.58,1.65,3.61.75,1.03,1.7,1.84,2.87,2.45,1.17.61,2.56.91,4.18.91,1.19,0,2.25-.2,3.17-.59.92-.39,1.72-.94,2.39-1.63.67-.7,1.2-1.53,1.58-2.49.38-.96.61-2,.68-3.12h3.61c-.35,3.42-1.53,6.08-3.53,7.98-2,1.9-4.74,2.85-8.21,2.85-2.1,0-3.94-.36-5.51-1.08-1.57-.72-2.88-1.72-3.91-2.98-1.04-1.27-1.82-2.76-2.34-4.48-.52-1.72-.78-3.57-.78-5.55s.28-3.83.84-5.57c.56-1.73,1.37-3.25,2.45-4.54,1.08-1.29,2.42-2.31,4.03-3.06,1.61-.75,3.45-1.12,5.53-1.12,1.42,0,2.76.19,4.03.57,1.27.38,2.39.94,3.38,1.67.99.74,1.81,1.65,2.47,2.76.66,1.1,1.09,2.38,1.29,3.82h-3.61c-.41-1.92-1.3-3.37-2.68-4.33Z"/><path class="cls-2" d="M246.37,15.36c.4-1.25,1.01-2.34,1.82-3.27.81-.92,1.81-1.65,3-2.19,1.19-.53,2.56-.8,4.1-.8s2.95.27,4.12.8c1.18.53,2.17,1.26,2.98,2.19.81.93,1.42,2.01,1.82,3.27.4,1.25.61,2.6.61,4.05s-.2,2.79-.61,4.03c-.41,1.24-1.01,2.32-1.82,3.25-.81.92-1.81,1.65-2.98,2.17-1.18.52-2.55.78-4.12.78s-2.91-.26-4.1-.78c-1.19-.52-2.19-1.24-3-2.17-.81-.92-1.42-2.01-1.82-3.25-.41-1.24-.61-2.58-.61-4.03s.2-2.79.61-4.05ZM249.65,22.58c.32.92.75,1.7,1.31,2.32.56.62,1.21,1.1,1.96,1.42.75.33,1.54.49,2.38.49s1.63-.16,2.38-.49c.75-.33,1.4-.8,1.96-1.42.56-.62.99-1.39,1.31-2.32.32-.92.48-1.98.48-3.17s-.16-2.25-.48-3.17c-.32-.92-.75-1.7-1.31-2.34-.56-.63-1.21-1.11-1.96-1.44s-1.54-.49-2.38-.49-1.63.17-2.38.49-1.4.81-1.96,1.44c-.56.63-.99,1.41-1.31,2.34-.32.93-.48,1.98-.48,3.17s.16,2.25.48,3.17Z"/><path class="cls-2" d="M271.62,2.08v27.13h-3.23V2.08h3.23Z"/><path class="cls-2" d="M279.51,2.08v27.13h-3.23V2.08h3.23Z"/><path class="cls-2" d="M298.08,27.96c-1.47,1.11-3.32,1.67-5.55,1.67-1.57,0-2.93-.25-4.08-.76-1.15-.51-2.12-1.22-2.91-2.13-.79-.91-1.37-2-1.77-3.27-.39-1.27-.61-2.65-.67-4.14,0-1.49.23-2.86.68-4.1.46-1.24,1.1-2.32,1.92-3.23.82-.91,1.8-1.62,2.93-2.13,1.13-.51,2.36-.76,3.71-.76,1.75,0,3.2.36,4.35,1.08,1.15.72,2.08,1.64,2.77,2.75.7,1.12,1.18,2.33,1.44,3.65.27,1.32.37,2.57.32,3.76h-14.71c-.03.86.08,1.68.3,2.45.23.77.6,1.46,1.1,2.05.51.6,1.15,1.07,1.94,1.43.79.35,1.71.53,2.77.53,1.37,0,2.49-.32,3.36-.95.87-.63,1.45-1.6,1.73-2.89h3.19c-.43,2.2-1.38,3.86-2.85,4.98ZM297.31,15.34c-.29-.68-.68-1.27-1.18-1.77s-1.08-.89-1.75-1.18c-.67-.29-1.41-.44-2.22-.44s-1.59.15-2.26.44c-.67.29-1.25.69-1.73,1.2-.48.51-.86,1.1-1.14,1.77-.28.67-.44,1.39-.49,2.15h11.29c-.05-.76-.22-1.48-.51-2.17Z"/><path class="cls-2" d="M319.28,34.76c-1.47,1.6-3.77,2.39-6.92,2.39-.91,0-1.84-.1-2.79-.3-.95-.2-1.81-.53-2.58-.99-.77-.46-1.41-1.05-1.92-1.79s-.79-1.63-.84-2.7h3.23c.02.58.21,1.08.55,1.48.34.4.76.73,1.25.99.49.25,1.03.44,1.61.55.58.11,1.14.17,1.67.17,1.06,0,1.96-.18,2.7-.55.73-.37,1.34-.87,1.82-1.52.48-.65.83-1.43,1.04-2.34.21-.91.32-1.91.32-3v-1.29h-.08c-.56,1.22-1.4,2.11-2.53,2.68-1.13.57-2.32.85-3.59.85-1.47,0-2.75-.27-3.84-.8-1.09-.53-2-1.25-2.74-2.15-.73-.9-1.29-1.95-1.65-3.15-.37-1.2-.55-2.48-.55-3.82,0-1.17.15-2.36.46-3.59.3-1.23.81-2.34,1.52-3.34.71-1,1.65-1.82,2.81-2.47,1.17-.65,2.6-.97,4.29-.97,1.24,0,2.38.27,3.42.82,1.04.55,1.85,1.36,2.43,2.45h.04v-2.81h3.04v17.97c0,3.22-.73,5.62-2.2,7.22ZM315.16,25.92c.75-.44,1.35-1.03,1.8-1.75.46-.72.79-1.54,1.01-2.45.21-.91.32-1.82.32-2.74,0-.86-.1-1.71-.3-2.55s-.53-1.59-.97-2.26c-.44-.67-1.02-1.21-1.73-1.62-.71-.4-1.57-.61-2.58-.61s-1.93.2-2.66.59c-.73.39-1.34.92-1.8,1.58-.47.66-.81,1.42-1.03,2.28-.22.86-.32,1.76-.32,2.7,0,.89.09,1.77.27,2.66.18.89.48,1.69.91,2.41.43.72,1,1.31,1.71,1.75.71.44,1.6.67,2.66.67s1.97-.22,2.72-.67Z"/><path class="cls-2" d="M339.94,27.96c-1.47,1.11-3.32,1.67-5.55,1.67-1.57,0-2.93-.25-4.08-.76-1.15-.51-2.12-1.22-2.91-2.13-.79-.91-1.37-2-1.77-3.27-.39-1.27-.61-2.65-.67-4.14,0-1.49.23-2.86.68-4.1.46-1.24,1.1-2.32,1.92-3.23.82-.91,1.8-1.62,2.93-2.13,1.13-.51,2.36-.76,3.71-.76,1.75,0,3.2.36,4.35,1.08,1.15.72,2.08,1.64,2.77,2.75.7,1.12,1.18,2.33,1.44,3.65.27,1.32.37,2.57.32,3.76h-14.71c-.03.86.08,1.68.3,2.45.23.77.6,1.46,1.1,2.05.51.6,1.15,1.07,1.94,1.43.79.35,1.71.53,2.77.53,1.37,0,2.49-.32,3.36-.95.87-.63,1.45-1.6,1.73-2.89h3.19c-.43,2.2-1.38,3.86-2.85,4.98ZM339.16,15.34c-.29-.68-.68-1.27-1.18-1.77s-1.08-.89-1.75-1.18c-.67-.29-1.41-.44-2.22-.44s-1.59.15-2.26.44c-.67.29-1.25.69-1.73,1.2-.48.51-.86,1.1-1.14,1.77-.28.67-.44,1.39-.49,2.15h11.29c-.05-.76-.22-1.48-.51-2.17Z"/><path class="cls-2" d="M355.03,12.41v-2.85h3.31v-2.93c0-1.6.46-2.81,1.39-3.63.92-.82,2.27-1.23,4.05-1.23.3,0,.65.03,1.05.08.39.05.74.13,1.04.23v2.81c-.28-.1-.58-.17-.91-.21-.33-.04-.63-.06-.91-.06-.79,0-1.39.15-1.82.46-.43.3-.65.89-.65,1.75v2.74h3.8v2.85h-3.8v16.8h-3.23V12.41h-3.31Z"/><path class="cls-2" d="M367.02,15.36c.4-1.25,1.01-2.34,1.82-3.27.81-.92,1.81-1.65,3-2.19,1.19-.53,2.56-.8,4.1-.8s2.95.27,4.12.8c1.18.53,2.17,1.26,2.98,2.19.81.93,1.42,2.01,1.82,3.27.41,1.25.61,2.6.61,4.05s-.2,2.79-.61,4.03c-.4,1.24-1.01,2.32-1.82,3.25s-1.8,1.65-2.98,2.17c-1.18.52-2.55.78-4.12.78s-2.91-.26-4.1-.78c-1.19-.52-2.19-1.24-3-2.17-.81-.92-1.42-2.01-1.82-3.25-.41-1.24-.61-2.58-.61-4.03s.2-2.79.61-4.05ZM370.31,22.58c.32.92.75,1.7,1.31,2.32.56.62,1.21,1.1,1.96,1.42.75.33,1.54.49,2.38.49s1.63-.16,2.38-.49c.75-.33,1.4-.8,1.96-1.42.56-.62.99-1.39,1.31-2.32s.48-1.98.48-3.17-.16-2.25-.48-3.17c-.32-.92-.75-1.7-1.31-2.34-.56-.63-1.21-1.11-1.96-1.44-.75-.33-1.54-.49-2.38-.49s-1.63.17-2.38.49-1.4.81-1.96,1.44c-.56.63-.99,1.41-1.31,2.34-.32.93-.48,1.98-.48,3.17s.16,2.25.48,3.17Z"/><path class="cls-2" d="M391.96,9.56v4.14h.08c.79-1.6,1.75-2.77,2.89-3.53,1.14-.76,2.58-1.11,4.33-1.06v3.42c-1.29,0-2.39.18-3.31.53-.91.35-1.65.87-2.2,1.56-.56.68-.96,1.51-1.22,2.49-.25.98-.38,2.1-.38,3.36v8.74h-3.23V9.56h3.04Z"/><path class="cls-2" d="M416.39,2.08v11.67h14.29V2.08h3.61v27.13h-3.61v-12.43h-14.29v12.43h-3.61V2.08h3.61Z"/><path class="cls-2" d="M453.24,27.96c-1.47,1.11-3.32,1.67-5.55,1.67-1.57,0-2.93-.25-4.08-.76-1.15-.51-2.12-1.22-2.91-2.13-.79-.91-1.37-2-1.77-3.27-.39-1.27-.61-2.65-.67-4.14,0-1.49.23-2.86.68-4.1s1.1-2.32,1.92-3.23,1.8-1.62,2.93-2.13c1.13-.51,2.36-.76,3.7-.76,1.75,0,3.2.36,4.35,1.08,1.15.72,2.08,1.64,2.77,2.75.7,1.12,1.18,2.33,1.44,3.65.27,1.32.37,2.57.32,3.76h-14.71c-.03.86.08,1.68.3,2.45.23.77.59,1.46,1.1,2.05.51.6,1.15,1.07,1.94,1.43.79.35,1.71.53,2.77.53,1.37,0,2.49-.32,3.36-.95.87-.63,1.45-1.6,1.73-2.89h3.19c-.43,2.2-1.38,3.86-2.85,4.98ZM452.46,15.34c-.29-.68-.68-1.27-1.18-1.77-.49-.49-1.08-.89-1.75-1.18-.67-.29-1.41-.44-2.22-.44s-1.59.15-2.26.44c-.67.29-1.25.69-1.73,1.2-.48.51-.86,1.1-1.14,1.77-.28.67-.44,1.39-.49,2.15h11.29c-.05-.76-.22-1.48-.51-2.17Z"/><path class="cls-2" d="M476.91,29.13c-.56.33-1.33.49-2.32.49-.84,0-1.5-.23-1.99-.7-.49-.47-.74-1.23-.74-2.3-.89,1.06-1.92,1.83-3.1,2.3-1.18.47-2.45.7-3.82.7-.89,0-1.73-.1-2.53-.3-.8-.2-1.49-.52-2.07-.95-.58-.43-1.04-.99-1.39-1.69s-.51-1.54-.51-2.53c0-1.11.19-2.03.57-2.74.38-.71.88-1.29,1.5-1.73.62-.44,1.33-.78,2.13-1.01.8-.23,1.61-.42,2.45-.57.89-.18,1.73-.31,2.53-.4.8-.09,1.5-.21,2.11-.38.61-.16,1.09-.4,1.44-.72.35-.32.53-.78.53-1.39,0-.71-.13-1.28-.4-1.71-.27-.43-.61-.76-1.03-.99s-.89-.38-1.41-.46c-.52-.08-1.03-.11-1.54-.11-1.37,0-2.51.26-3.42.78-.91.52-1.41,1.5-1.48,2.95h-3.23c.05-1.22.3-2.24.76-3.08s1.06-1.51,1.82-2.03c.76-.52,1.63-.89,2.6-1.12.97-.23,2.02-.34,3.13-.34.89,0,1.77.06,2.64.19s1.67.39,2.38.78,1.28.94,1.71,1.65.65,1.63.65,2.77v10.09c0,.76.04,1.31.13,1.67s.39.53.89.53c.28,0,.61-.05.99-.15v2.51ZM471.66,19.06c-.41.3-.94.52-1.6.66-.66.14-1.35.25-2.07.34-.72.09-1.45.19-2.18.3-.74.11-1.39.3-1.98.55-.58.25-1.06.61-1.42,1.08s-.55,1.1-.55,1.91c0,.53.11.98.32,1.34.21.37.49.66.84.89.34.23.74.39,1.2.49.46.1.94.15,1.44.15,1.06,0,1.98-.14,2.74-.43.76-.29,1.38-.66,1.86-1.1.48-.44.84-.92,1.06-1.44.23-.52.34-1,.34-1.46v-3.29Z"/><path class="cls-2" d="M483.09,2.08v27.13h-3.23V2.08h3.23Z"/><path class="cls-2" d="M496.1,9.56v2.85h-3.91v12.2c0,.38.03.68.09.91s.18.41.36.53c.18.13.42.21.74.25.32.04.73.06,1.23.06h1.48v2.85h-2.47c-.84,0-1.55-.06-2.15-.17-.6-.11-1.08-.32-1.44-.63-.37-.3-.64-.73-.82-1.29-.18-.56-.27-1.29-.27-2.2v-12.5h-3.34v-2.85h3.34V3.67h3.23v5.89h3.91Z"/><path class="cls-2" d="M502.34,2.08v10.37h.08c.25-.61.61-1.12,1.06-1.54s.97-.76,1.54-1.03c.57-.27,1.17-.46,1.79-.59.62-.13,1.22-.19,1.8-.19,1.29,0,2.37.18,3.23.53.86.35,1.56.85,2.09,1.48.53.63.91,1.39,1.12,2.26.21.87.32,1.84.32,2.91v12.92h-3.23v-13.3c0-1.22-.35-2.18-1.06-2.89-.71-.71-1.69-1.06-2.93-1.06-.99,0-1.84.15-2.56.46-.72.3-1.32.73-1.8,1.29-.48.56-.84,1.21-1.08,1.96-.24.75-.36,1.56-.36,2.45v11.1h-3.23V2.08h3.23Z"/><path class="cls-2" d="M524.44,24.99v3.84c0,1.44-.33,2.69-.99,3.72-.66,1.04-1.72,1.77-3.19,2.2v-1.9c.43-.15.79-.37,1.08-.67.29-.29.53-.61.7-.95.18-.34.3-.69.36-1.05.06-.35.08-.68.06-.99h-2.24v-4.22h4.22Z"/><path class="cls-2" d="M236.66,43.42c-1.38-.96-3.02-1.44-4.92-1.44-1.62,0-3.01.3-4.16.91-1.15.61-2.1,1.43-2.85,2.45-.75,1.03-1.3,2.2-1.65,3.52-.35,1.32-.53,2.69-.53,4.1,0,1.55.18,3.01.53,4.39.35,1.38.91,2.58,1.65,3.61.75,1.03,1.7,1.84,2.87,2.45,1.17.61,2.56.91,4.18.91,1.19,0,2.25-.2,3.17-.59.92-.39,1.72-.94,2.39-1.63.67-.7,1.2-1.53,1.58-2.49.38-.96.61-2,.68-3.12h3.61c-.35,3.42-1.53,6.08-3.53,7.98-2,1.9-4.74,2.85-8.21,2.85-2.1,0-3.94-.36-5.51-1.08-1.57-.72-2.88-1.72-3.91-2.98-1.04-1.27-1.82-2.76-2.34-4.48-.52-1.72-.78-3.57-.78-5.55s.28-3.83.84-5.57c.56-1.73,1.37-3.25,2.45-4.54,1.08-1.29,2.42-2.31,4.03-3.06,1.61-.75,3.45-1.12,5.53-1.12,1.42,0,2.76.19,4.03.57,1.27.38,2.39.94,3.38,1.67.99.74,1.81,1.65,2.47,2.76.66,1.1,1.09,2.38,1.29,3.82h-3.61c-.41-1.92-1.3-3.37-2.68-4.33Z"/><path class="cls-2" d="M246.37,52.86c.4-1.25,1.01-2.34,1.82-3.27.81-.92,1.81-1.65,3-2.19,1.19-.53,2.56-.8,4.1-.8s2.95.27,4.12.8c1.18.53,2.17,1.26,2.98,2.19.81.93,1.42,2.01,1.82,3.27.4,1.25.61,2.6.61,4.05s-.2,2.79-.61,4.03c-.41,1.24-1.01,2.32-1.82,3.25-.81.92-1.81,1.65-2.98,2.17-1.18.52-2.55.78-4.12.78s-2.91-.26-4.1-.78c-1.19-.52-2.19-1.24-3-2.17-.81-.92-1.42-2.01-1.82-3.25-.41-1.24-.61-2.58-.61-4.03s.2-2.79.61-4.05ZM249.65,60.08c.32.92.75,1.7,1.31,2.32.56.62,1.21,1.1,1.96,1.42.75.33,1.54.49,2.38.49s1.63-.16,2.38-.49c.75-.33,1.4-.8,1.96-1.42.56-.62.99-1.39,1.31-2.32.32-.92.48-1.98.48-3.17s-.16-2.25-.48-3.17c-.32-.92-.75-1.7-1.31-2.34-.56-.63-1.21-1.11-1.96-1.44s-1.54-.49-2.38-.49-1.63.17-2.38.49-1.4.81-1.96,1.44c-.56.63-.99,1.41-1.31,2.34-.32.93-.48,1.98-.48,3.17s.16,2.25.48,3.17Z"/><path class="cls-2" d="M271.36,47.06v2.89h.08c1.47-2.23,3.58-3.34,6.35-3.34,1.22,0,2.32.25,3.31.76.99.51,1.68,1.37,2.09,2.58.66-1.06,1.53-1.89,2.6-2.47,1.08-.58,2.26-.87,3.55-.87.99,0,1.88.11,2.68.32s1.48.55,2.05,1.01c.57.46,1.01,1.04,1.33,1.77.32.72.48,1.59.48,2.6v14.4h-3.23v-12.88c0-.61-.05-1.18-.15-1.71-.1-.53-.29-.99-.57-1.39-.28-.39-.66-.7-1.16-.93s-1.13-.34-1.92-.34c-1.6,0-2.85.46-3.76,1.37-.91.91-1.37,2.13-1.37,3.65v12.24h-3.23v-12.88c0-.63-.06-1.22-.17-1.75-.11-.53-.31-.99-.59-1.39-.28-.39-.65-.7-1.12-.91-.47-.21-1.07-.32-1.81-.32-.94,0-1.74.19-2.41.57-.67.38-1.22.84-1.63,1.37-.42.53-.72,1.08-.91,1.65-.19.57-.28,1.04-.28,1.43v12.24h-3.23v-19.65h3.04Z"/><path class="cls-2" d="M303.39,47.06v2.89h.08c1.47-2.23,3.58-3.34,6.35-3.34,1.22,0,2.32.25,3.31.76.99.51,1.68,1.37,2.09,2.58.66-1.06,1.53-1.89,2.6-2.47,1.08-.58,2.26-.87,3.55-.87.99,0,1.88.11,2.68.32s1.48.55,2.05,1.01c.57.46,1.01,1.04,1.33,1.77.32.72.48,1.59.48,2.6v14.4h-3.23v-12.88c0-.61-.05-1.18-.15-1.71-.1-.53-.29-.99-.57-1.39-.28-.39-.66-.7-1.16-.93s-1.13-.34-1.92-.34c-1.6,0-2.85.46-3.76,1.37-.91.91-1.37,2.13-1.37,3.65v12.24h-3.23v-12.88c0-.63-.06-1.22-.17-1.75-.11-.53-.31-.99-.59-1.39-.28-.39-.65-.7-1.12-.91-.47-.21-1.07-.32-1.81-.32-.94,0-1.74.19-2.41.57-.67.38-1.22.84-1.63,1.37-.42.53-.72,1.08-.91,1.65-.19.57-.28,1.04-.28,1.43v12.24h-3.23v-19.65h3.04Z"/><path class="cls-2" d="M345.53,66.71v-3.12h-.08c-.68,1.22-1.56,2.11-2.62,2.68s-2.32.85-3.76.85c-1.29,0-2.37-.17-3.23-.51-.86-.34-1.56-.83-2.09-1.46-.53-.63-.91-1.39-1.12-2.26-.22-.87-.32-1.84-.32-2.91v-12.92h3.23v13.3c0,1.22.35,2.18,1.06,2.89.71.71,1.68,1.06,2.93,1.06.99,0,1.84-.15,2.56-.46.72-.3,1.32-.73,1.81-1.29.48-.56.84-1.21,1.08-1.96.24-.75.36-1.56.36-2.45v-11.1h3.23v19.65h-3.04Z"/><path class="cls-2" d="M356.1,47.06v3.12h.08c1.34-2.38,3.47-3.57,6.38-3.57,1.29,0,2.37.18,3.23.53.86.35,1.56.85,2.09,1.48.53.63.91,1.39,1.12,2.26.21.87.32,1.84.32,2.91v12.92h-3.23v-13.3c0-1.22-.35-2.18-1.06-2.89-.71-.71-1.69-1.06-2.93-1.06-.99,0-1.84.15-2.56.46-.72.3-1.32.73-1.81,1.29-.48.56-.84,1.21-1.08,1.96-.24.75-.36,1.56-.36,2.45v11.1h-3.23v-19.65h3.04Z"/><path class="cls-2" d="M373.87,43.53v-3.95h3.23v3.95h-3.23ZM377.1,47.06v19.65h-3.23v-19.65h3.23Z"/><path class="cls-2" d="M390.12,47.06v2.85h-3.91v12.2c0,.38.03.68.09.91s.18.41.36.53c.18.13.42.21.74.25.32.04.73.06,1.23.06h1.48v2.85h-2.47c-.84,0-1.55-.06-2.15-.17-.6-.11-1.08-.32-1.44-.63-.37-.3-.64-.73-.82-1.29-.18-.56-.27-1.29-.27-2.2v-12.5h-3.34v-2.85h3.34v-5.89h3.23v5.89h3.91Z"/><path class="cls-2" d="M401.78,69.33c-.38.96-.75,1.77-1.12,2.43-.37.66-.77,1.2-1.22,1.61s-.94.72-1.48.91c-.54.19-1.17.29-1.88.29-.38,0-.76-.03-1.14-.08-.38-.05-.75-.14-1.1-.27v-2.96c.28.13.6.23.97.32s.68.13.93.13c.66,0,1.21-.16,1.65-.48.44-.32.78-.77,1.01-1.35l1.33-3.31-7.79-19.53h3.65l5.74,16.07h.08l5.51-16.07h3.42l-8.55,22.27Z"/><path class="cls-2" d="M441.03,66.63c-.56.33-1.33.49-2.32.49-.84,0-1.5-.23-1.99-.7-.49-.47-.74-1.23-.74-2.3-.89,1.06-1.92,1.83-3.1,2.3-1.18.47-2.45.7-3.82.7-.89,0-1.73-.1-2.53-.3-.8-.2-1.49-.52-2.07-.95-.58-.43-1.04-.99-1.39-1.69s-.51-1.54-.51-2.53c0-1.11.19-2.03.57-2.74.38-.71.88-1.29,1.5-1.73.62-.44,1.33-.78,2.13-1.01.8-.23,1.61-.42,2.45-.57.89-.18,1.73-.31,2.53-.4.8-.09,1.5-.21,2.11-.38.61-.16,1.09-.4,1.44-.72.35-.32.53-.78.53-1.39,0-.71-.13-1.28-.4-1.71-.27-.43-.61-.76-1.03-.99s-.89-.38-1.41-.46c-.52-.08-1.03-.11-1.54-.11-1.37,0-2.51.26-3.42.78-.91.52-1.41,1.5-1.48,2.95h-3.23c.05-1.22.3-2.24.76-3.08s1.06-1.51,1.82-2.03c.76-.52,1.63-.89,2.6-1.12.97-.23,2.02-.34,3.13-.34.89,0,1.77.06,2.64.19s1.67.39,2.38.78,1.28.94,1.71,1.65.65,1.63.65,2.77v10.09c0,.76.04,1.31.13,1.67s.39.53.89.53c.28,0,.61-.05.99-.15v2.51ZM435.79,56.56c-.41.3-.94.52-1.6.66-.66.14-1.35.25-2.07.34-.72.09-1.45.19-2.18.3-.74.11-1.39.3-1.98.55-.58.25-1.06.61-1.42,1.08s-.55,1.1-.55,1.91c0,.53.11.98.32,1.34.21.37.49.66.84.89.34.23.74.39,1.2.49.46.1.94.15,1.44.15,1.06,0,1.98-.14,2.74-.43.76-.29,1.38-.66,1.86-1.1.48-.44.84-.92,1.06-1.44.23-.52.34-1,.34-1.46v-3.29Z"/><path class="cls-2" d="M446.87,47.06v3.12h.08c1.34-2.38,3.47-3.57,6.38-3.57,1.29,0,2.37.18,3.23.53.86.35,1.56.85,2.09,1.48.53.63.91,1.39,1.12,2.26.21.87.32,1.84.32,2.91v12.92h-3.23v-13.3c0-1.22-.35-2.18-1.06-2.89-.71-.71-1.69-1.06-2.93-1.06-.99,0-1.84.15-2.56.46-.72.3-1.32.73-1.8,1.29-.48.56-.84,1.21-1.08,1.96-.24.75-.36,1.56-.36,2.45v11.1h-3.23v-19.65h3.04Z"/><path class="cls-2" d="M478.95,66.71v-2.66h-.08c-.53,1.09-1.37,1.88-2.51,2.36-1.14.48-2.39.72-3.76.72-1.52,0-2.84-.28-3.97-.84-1.13-.56-2.07-1.3-2.81-2.24-.75-.94-1.31-2.03-1.69-3.27-.38-1.24-.57-2.56-.57-3.95s.18-2.71.55-3.95c.37-1.24.92-2.32,1.67-3.25.75-.92,1.68-1.66,2.81-2.2,1.13-.54,2.44-.82,3.93-.82.51,0,1.05.05,1.63.15.58.1,1.17.27,1.75.51.58.24,1.13.56,1.65.95.52.39.96.88,1.31,1.46h.08v-10.11h3.23v27.13h-3.23ZM467.34,59.74c.24.87.61,1.65,1.1,2.34.49.68,1.13,1.23,1.9,1.63.77.41,1.68.61,2.72.61s2.01-.21,2.77-.65c.76-.43,1.38-.99,1.86-1.69.48-.7.83-1.49,1.04-2.38.21-.89.32-1.79.32-2.7,0-.96-.11-1.89-.34-2.79-.23-.9-.59-1.69-1.08-2.38-.49-.68-1.13-1.23-1.92-1.65-.79-.42-1.74-.63-2.85-.63s-2.01.22-2.77.65c-.76.43-1.37,1-1.82,1.71-.46.71-.79,1.52-.99,2.43s-.3,1.85-.3,2.81c0,.91.12,1.8.36,2.68Z"/><path class="cls-2" d="M510.15,39.58c2.74,0,4.81.7,6.21,2.11,1.41,1.41,2.11,3.38,2.11,5.91s-.7,4.51-2.11,5.93c-1.41,1.42-3.48,2.12-6.21,2.09h-8.28v11.1h-3.61v-27.13h11.89ZM508.93,52.57c2.05.03,3.55-.39,4.5-1.25.95-.86,1.43-2.1,1.43-3.72s-.48-2.86-1.43-3.71c-.95-.85-2.45-1.27-4.5-1.27h-7.07v9.96h7.07Z"/><path class="cls-2" d="M520.78,52.86c.41-1.25,1.01-2.34,1.82-3.27.81-.92,1.81-1.65,3-2.19,1.19-.53,2.56-.8,4.1-.8s2.94.27,4.12.8c1.18.53,2.17,1.26,2.98,2.19.81.93,1.42,2.01,1.82,3.27s.61,2.6.61,4.05-.2,2.79-.61,4.03-1.01,2.32-1.82,3.25-1.8,1.65-2.98,2.17c-1.18.52-2.55.78-4.12.78s-2.91-.26-4.1-.78c-1.19-.52-2.19-1.24-3-2.17s-1.42-2.01-1.82-3.25-.61-2.58-.61-4.03.2-2.79.61-4.05ZM524.07,60.08c.32.92.75,1.7,1.31,2.32.56.62,1.21,1.1,1.96,1.42.75.33,1.54.49,2.38.49s1.63-.16,2.38-.49c.75-.33,1.4-.8,1.96-1.42.56-.62.99-1.39,1.31-2.32s.48-1.98.48-3.17-.16-2.25-.48-3.17c-.32-.92-.75-1.7-1.31-2.34-.56-.63-1.21-1.11-1.96-1.44-.75-.33-1.54-.49-2.38-.49s-1.63.17-2.38.49c-.75.33-1.4.81-1.96,1.44-.56.63-1,1.41-1.31,2.34-.32.93-.47,1.98-.47,3.17s.16,2.25.47,3.17Z"/><path class="cls-2" d="M546.03,39.58v27.13h-3.23v-27.13h3.23Z"/><path class="cls-2" d="M550.69,43.53v-3.95h3.23v3.95h-3.23ZM553.92,47.06v19.65h-3.23v-19.65h3.23Z"/><path class="cls-2" d="M570.39,50.48c-.81-.68-1.9-1.03-3.27-1.03-1.17,0-2.14.22-2.93.65-.79.43-1.41,1-1.88,1.71-.47.71-.8,1.53-1.01,2.45s-.3,1.88-.3,2.87c0,.91.11,1.8.32,2.66.21.86.55,1.63,1.01,2.3.46.67,1.05,1.21,1.79,1.62.73.41,1.61.61,2.62.61,1.6,0,2.84-.42,3.74-1.25s1.45-2.01,1.65-3.53h3.31c-.35,2.43-1.26,4.31-2.72,5.62-1.46,1.32-3.44,1.98-5.95,1.98-1.5,0-2.82-.24-3.97-.72-1.15-.48-2.12-1.16-2.89-2.05-.77-.89-1.36-1.94-1.75-3.17-.39-1.23-.59-2.58-.59-4.05s.19-2.84.57-4.12c.38-1.28.96-2.39,1.73-3.34.77-.95,1.74-1.7,2.91-2.24,1.17-.54,2.52-.82,4.07-.82,1.12,0,2.16.13,3.14.4.97.27,1.84.68,2.58,1.24.75.56,1.36,1.26,1.84,2.11.48.85.79,1.86.91,3.02h-3.34c-.25-1.24-.79-2.2-1.6-2.89Z"/><path class="cls-2" d="M586.09,69.33c-.38.96-.75,1.77-1.12,2.43-.37.66-.77,1.2-1.22,1.61s-.94.72-1.48.91c-.54.19-1.17.29-1.88.29-.38,0-.76-.03-1.14-.08-.38-.05-.75-.14-1.1-.27v-2.96c.28.13.6.23.97.32s.68.13.93.13c.66,0,1.21-.16,1.65-.48.44-.32.78-.77,1.01-1.35l1.33-3.31-7.79-19.53h3.65l5.74,16.07h.08l5.51-16.07h3.42l-8.55,22.27Z"/></g></svg>