<?xml version="1.0" encoding="iso-8859-1"?>
<!-- Generator: Adobe Illustrator 30.2.1, SVG Export Plug-In . SVG Version: 9.03 Build 0)  -->
<svg version="1.1" id="Layer_1" xmlns="http://www.w3.org/2000/svg" xmlns:xlink="http://www.w3.org/1999/xlink" x="0px" y="0px"
	 viewBox="0 0 574.217 136.315" style="enable-background:new 0 0 574.217 136.315;" xml:space="preserve">
<g id="UnitName_00000155828925717603015420000013519887324746876054_">
	<g>
		<path style="fill:#032044;" d="M2.107,30.814c0-14.197,10.664-22.443,21.823-22.443c10.539,0,18.847,6.262,20.148,15.747H33.974
			c-1.178-4.339-4.897-7.129-10.105-7.129c-6.323,0-11.345,5.332-11.345,13.825s5.083,14.011,11.407,14.011
			c5.083,0,8.68-2.666,10.105-7.129h10.105c-1.55,9.547-9.733,15.747-20.273,15.747C12.399,53.443,2.107,45.074,2.107,30.814z"/>
		<path style="fill:#032044;" d="M46.214,36.456c0-10.229,7.874-16.677,17.421-16.677c9.609,0,17.422,6.385,17.422,16.677
			c0,10.354-7.75,16.987-17.422,16.987C53.901,53.443,46.214,46.872,46.214,36.456z M71.385,36.456c0-5.394-3.162-8.989-7.75-8.989
			c-4.649,0-7.749,3.596-7.749,8.989c0,5.642,3.162,9.299,7.749,9.299C68.285,45.755,71.385,42.16,71.385,36.456z"/>
		<path style="fill:#032044;" d="M84.964,8.062h9.423v44.637h-9.423V8.062z"/>
		<path style="fill:#032044;" d="M99.986,8.062h9.423v44.637h-9.423V8.062z"/>
		<path style="fill:#032044;" d="M130.353,53.443c-9.3,0-17.111-6.386-17.111-16.987c0-10.292,8.06-16.677,16.926-16.677
			c9.113,0,16.614,6.076,16.614,17.359v1.922h-24.116c0.496,4.65,3.781,7.439,7.997,7.439c2.729,0,5.456-0.93,6.758-3.472h9.052
			C144.487,50.219,137.42,53.443,130.353,53.443z M122.603,33.108h14.693c-0.31-3.906-3.224-6.448-7.253-6.448
			C126.199,26.661,123.099,29.017,122.603,33.108z"/>
		<path style="fill:#032044;" d="M165.896,65.161c-9.3,0-15.003-4.278-16.058-11.098h9.176c0.683,2.79,3.1,4.34,6.943,4.34
			c3.968,0,6.572-1.984,6.572-6.448v-4.649c-1.86,2.852-5.084,4.525-9.424,4.525c-7.749,0-14.197-5.766-14.197-16.119
			c0-10.043,6.696-15.871,14.321-15.871c4.464,0,7.626,1.798,9.485,4.959v-4.216h9.176v30.75
			C181.892,60.883,174.824,65.161,165.896,65.161z M172.592,35.712c0-5.332-3.1-8.494-7.005-8.494c-4.03,0-7.006,3.286-7.006,8.494
			c0,5.518,2.976,8.741,7.006,8.741C169.555,44.454,172.592,41.168,172.592,35.712z"/>
		<path style="fill:#032044;" d="M202.829,53.443c-9.299,0-17.11-6.386-17.11-16.987c0-10.292,8.06-16.677,16.925-16.677
			c9.113,0,16.615,6.076,16.615,17.359v1.922h-24.117c0.496,4.65,3.782,7.439,7.998,7.439c2.728,0,5.456-0.93,6.758-3.472h9.051
			C216.965,50.219,209.897,53.443,202.829,53.443z M195.08,33.108h14.693c-0.311-3.906-3.224-6.448-7.254-6.448
			C198.676,26.661,195.576,29.017,195.08,33.108z"/>
		<path style="fill:#032044;" d="M236.124,36.456c0-10.229,7.873-16.677,17.421-16.677c9.609,0,17.421,6.385,17.421,16.677
			c0,10.354-7.75,16.987-17.421,16.987C243.812,53.443,236.124,46.872,236.124,36.456z M261.294,36.456
			c0-5.394-3.161-8.989-7.749-8.989c-4.649,0-7.75,3.596-7.75,8.989c0,5.642,3.162,9.299,7.75,9.299
			C258.194,45.755,261.294,42.16,261.294,36.456z"/>
		<path style="fill:#032044;" d="M285.977,27.467v25.232h-9.175V27.467h-5.332v-6.882h5.332v-3.41c0-7.068,4.029-9.175,10.105-9.175
			c2.418,0,3.968,0,6.138,0.062v6.943c-1.303-0.062-2.542-0.062-3.906-0.062c-1.859,0-3.162,0.496-3.162,3.1v2.542h7.068v6.882
			H285.977z"/>
		<path style="fill:#032044;" d="M338.614,43.4h-17.731l-3.286,9.299H307.43l16.553-43.397h12.027l16.554,43.397h-10.664
			L338.614,43.4z M335.762,35.402l-6.014-17.049l-6.014,17.049H335.762z"/>
		<path style="fill:#032044;" d="M355.113,9.302h10.105v43.397h-10.105V9.302z"/>
		<path style="fill:#032044;" d="M371.896,42.594h10.291v9.361c0,6.882-3.72,9.795-10.478,11.098v-5.518
			c2.728-0.62,4.588-1.984,4.588-3.844c0-0.682-0.372-0.992-1.178-0.992h-3.224V42.594z"/>
		<path style="fill:#032044;" d="M401.097,30.814c0-14.197,10.664-22.443,21.823-22.443c10.539,0,18.847,6.262,20.148,15.747
			h-10.105c-1.178-4.339-4.897-7.129-10.105-7.129c-6.323,0-11.345,5.332-11.345,13.825s5.084,14.011,11.407,14.011
			c5.084,0,8.68-2.666,10.105-7.129h10.105c-1.55,9.547-9.733,15.747-20.273,15.747C411.389,53.443,401.097,45.074,401.097,30.814z"
			/>
		<path style="fill:#032044;" d="M460.609,64.479h-9.671l5.766-14.011l-12.771-29.882h9.857l7.626,19.777l7.005-19.777h9.424
			L460.609,64.479z"/>
		<path style="fill:#032044;" d="M498.553,53.381c-4.464,0-7.749-1.86-9.609-5.208v4.526h-9.175V8.062h9.423v16.305
			c1.922-2.914,5.084-4.525,9.424-4.525c7.997,0,14.817,5.704,14.817,16.553C513.433,47.492,506.551,53.381,498.553,53.381z
			 M503.822,36.394c0-5.89-3.224-8.989-7.377-8.989c-4.278,0-7.439,3.286-7.439,8.989c0,6.014,3.348,9.423,7.439,9.423
			C500.599,45.817,503.822,42.408,503.822,36.394z"/>
		<path style="fill:#032044;" d="M532.738,53.443c-9.299,0-17.11-6.386-17.11-16.987c0-10.292,8.06-16.677,16.925-16.677
			c9.113,0,16.615,6.076,16.615,17.359v1.922h-24.117c0.496,4.65,3.782,7.439,7.998,7.439c2.728,0,5.455-0.93,6.757-3.472h9.052
			C546.874,50.219,539.806,53.443,532.738,53.443z M524.989,33.108h14.692c-0.31-3.906-3.224-6.448-7.253-6.448
			C528.585,26.661,525.485,29.017,524.989,33.108z"/>
		<path style="fill:#032044;" d="M562.561,52.699h-9.423V20.585h9.113v4.774c0.558-0.992,1.302-1.922,2.231-2.728
			c1.86-1.488,3.658-2.294,6.695-2.294c0.807,0,1.736,0.062,2.294,0.186v8.68c-1.487-0.186-2.231-0.186-3.161-0.186
			c-3.534,0-7.75,1.302-7.75,7.377V52.699z"/>
		<path style="fill:#032044;" d="M29.944,116.662c-3.472,2.355-7.439,3.782-12.586,3.782c-8.927,0-15.312-4.836-15.312-12.647
			c0-5.642,3.224-9.485,8.432-12.151c-2.294-2.604-3.844-5.27-3.844-8.865c0-6.634,5.766-11.346,13.205-11.346
			c7.625,0,13.019,4.34,13.019,11.098c0,4.959-3.161,8.431-8.865,10.911l6.572,7.068c1.363-2.046,2.17-4.402,2.541-7.316h8.68
			c-0.496,5.27-2.294,10.043-5.394,13.639l8.184,8.804v0.062H32.796L29.944,116.662z M18.165,112.941
			c2.355,0,4.588-0.682,6.51-2.046l-9.052-9.795c-2.79,1.488-4.154,3.534-4.154,6.014C11.469,110.648,14.569,112.941,18.165,112.941
			z M18.847,92.483c3.782-1.426,5.518-3.286,5.518-5.704c0-2.542-1.983-4.278-4.588-4.278c-2.728,0-4.649,1.86-4.649,4.34
			C15.127,88.887,16.615,90.499,18.847,92.483z"/>
		<path style="fill:#032044;" d="M60.263,97.814c0-14.197,10.664-22.443,21.823-22.443c10.539,0,18.847,6.262,20.148,15.747H92.129
			c-1.178-4.339-4.897-7.129-10.105-7.129c-6.323,0-11.345,5.332-11.345,13.825s5.083,14.011,11.407,14.011
			c5.083,0,8.68-2.666,10.105-7.129h10.105c-1.55,9.547-9.733,15.747-20.273,15.747C70.555,120.443,60.263,112.074,60.263,97.814z"
			/>
		<path style="fill:#032044;" d="M104.369,103.456c0-10.229,7.874-16.677,17.421-16.677c9.609,0,17.422,6.385,17.422,16.677
			c0,10.354-7.75,16.987-17.422,16.987C112.057,120.443,104.369,113.872,104.369,103.456z M129.54,103.456
			c0-5.394-3.162-8.989-7.75-8.989c-4.649,0-7.749,3.596-7.749,8.989c0,5.642,3.162,9.299,7.749,9.299
			C126.44,112.755,129.54,109.16,129.54,103.456z"/>
		<path style="fill:#032044;" d="M152.462,119.699h-9.424V87.585h9.114v3.782c1.983-2.914,5.394-4.525,9.547-4.525
			c3.782,0,7.502,1.55,9.672,5.208c2.107-3.41,5.951-5.208,10.478-5.208c6.323,0,11.841,3.472,11.841,12.523v20.335h-9.424V101.1
			c0-4.154-2.294-6.199-5.394-6.199c-3.037,0-5.766,2.355-5.766,7.315v17.483h-9.423V101.1c0-4.154-2.294-6.199-5.395-6.199
			c-3.037,0-5.827,2.293-5.827,7.315V119.699z"/>
		<path style="fill:#032044;" d="M208.64,115.669v15.809h-9.423V87.585h9.175v4.154c1.86-3.1,5.146-4.897,9.672-4.897
			c7.998,0,14.817,5.704,14.817,16.553c0,11.098-6.882,16.987-14.879,16.987C213.662,120.381,210.562,118.646,208.64,115.669z
			 M223.271,103.394c0-5.89-3.224-8.989-7.378-8.989c-4.277,0-7.439,3.348-7.439,8.989c0,6.014,3.348,9.423,7.439,9.423
			C220.048,112.817,223.271,109.408,223.271,103.394z"/>
		<path style="fill:#032044;" d="M257.736,115.917c-2.107,2.976-5.456,4.526-9.424,4.526c-6.819,0-11.717-4.216-11.717-12.709
			V87.585h9.424v18.413c0,4.154,2.169,6.324,5.579,6.324c3.038,0,5.828-2.17,5.828-7.316V87.585h9.423v32.114h-9.113V115.917z"/>
		<path style="fill:#032044;" d="M274.477,110.958V94.467h-5.207v-6.882h5.207v-7.998h9.237v7.998h7.13v6.882h-7.13v14.321
			c0,3.224,0.992,3.844,3.534,3.844h3.596v7.005c-2.17,0.124-3.968,0.124-7.006,0.124
			C277.948,119.761,274.477,118.025,274.477,110.958z"/>
		<path style="fill:#032044;" d="M294.917,75.062h9.485v7.812h-9.485V75.062z M294.917,87.585h9.424v32.114h-9.424V87.585z"/>
		<path style="fill:#032044;" d="M319.375,119.699h-9.423V87.585h9.113v3.906c2.046-2.976,5.58-4.649,9.733-4.649
			c7.006,0,11.718,4.215,11.718,12.833v20.025h-9.424v-18.351c0-4.092-2.107-6.447-5.642-6.447c-3.286,0-6.076,2.417-6.076,7.688
			V119.699z"/>
		<path style="fill:#032044;" d="M361.125,132.161c-9.299,0-15.003-4.278-16.057-11.098h9.175c0.683,2.79,3.101,4.34,6.944,4.34
			c3.968,0,6.571-1.984,6.571-6.448v-4.649c-1.86,2.852-5.084,4.525-9.424,4.525c-7.749,0-14.197-5.766-14.197-16.119
			c0-10.043,6.696-15.871,14.321-15.871c4.464,0,7.626,1.798,9.485,4.959v-4.216h9.176v30.75
			C377.12,127.883,370.053,132.161,361.125,132.161z M367.82,102.712c0-5.332-3.1-8.494-7.005-8.494
			c-4.03,0-7.006,3.286-7.006,8.494c0,5.518,2.976,8.741,7.006,8.741C364.783,111.454,367.82,108.168,367.82,102.712z"/>
	</g>
</g>
<g>
</g>
<g>
</g>
<g>
</g>
<g>
</g>
<g>
</g>
<g>
</g>
<g>
</g>
<g>
</g>
<g>
</g>
<g>
</g>
<g>
</g>
<g>
</g>
<g>
</g>
<g>
</g>
<g>
</g>
</svg>
