<?xml version="1.0" encoding="UTF-8"?><svg id="UnitNameTyped" xmlns="http://www.w3.org/2000/svg" width="563.87" height="124" viewBox="0 0 563.87 124"><defs><style>.cls-1{fill:#032044;}</style></defs><path class="cls-1" d="M1.46,22.54C1.46,8.34,12.12.1,23.28.1c10.54,0,18.85,6.26,20.15,15.75h-10.11c-1.18-4.34-4.9-7.13-10.11-7.13-6.32,0-11.34,5.33-11.34,13.83s5.08,14.01,11.41,14.01c5.08,0,8.68-2.67,10.11-7.13h10.11c-1.55,9.55-9.73,15.75-20.27,15.75-11.47,0-21.76-8.37-21.76-22.63Z"/><path class="cls-1" d="M67.3,40.77c-2.11,2.6-5.39,4.34-10.04,4.34-6.08,0-11.9-3.47-11.9-10.04s5.39-9.05,13.89-10.42l7.38-1.18v-.43c0-3.47-1.92-4.84-5.27-4.84s-5.52,1.61-6.08,4.59h-8.8c1.05-7.01,7.19-11.28,15.31-11.28,8.68,0,14.14,3.41,14.07,12.46l-.06,13.64c0,1.05.06,2.91.25,6.82h-8.62l-.12-3.66ZM59.68,38.41c3.78,0,6.94-2.23,6.94-6.7v-2.17c-8.49,1.05-12.15,1.98-12.15,5.08,0,2.48,2.23,3.78,5.21,3.78Z"/><path class="cls-1" d="M90.67,44.43h-9.42V12.31h9.11v4.77c.56-.99,1.3-1.92,2.23-2.73,1.86-1.49,3.66-2.29,6.7-2.29.81,0,1.74.06,2.29.19v8.68c-1.49-.19-2.23-.19-3.16-.19-3.53,0-7.75,1.3-7.75,7.38v16.31Z"/><path class="cls-1" d="M103.86-.21h9.42v44.64h-9.42V-.21Z"/><path class="cls-1" d="M117.12,28.18c0-10.23,7.87-16.68,17.42-16.68s17.42,6.39,17.42,16.68-7.75,16.99-17.42,16.99-17.42-6.57-17.42-16.99ZM142.29,28.18c0-5.39-3.16-8.99-7.75-8.99s-7.75,3.6-7.75,8.99,3.16,9.3,7.75,9.3,7.75-3.6,7.75-9.3Z"/><path class="cls-1" d="M153.75,34.26h8.74c.5,2.98,3.04,4.4,6.51,4.4,2.73,0,5.15-.99,5.15-3.22,0-1.98-1.8-2.85-5.83-3.53l-3.35-.62c-6.57-1.18-10.66-4.09-10.66-9.24,0-6.57,6.08-10.6,13.83-10.6s13.45,3.72,14.32,10.29h-8.62c-.62-2.42-2.73-3.78-5.89-3.78-2.73,0-4.77,1.24-4.77,3.16,0,1.8,1.61,2.48,5.08,3.1l3.29.56c7.32,1.3,11.66,4.15,11.66,9.73,0,7.07-6.7,10.66-14.38,10.66s-14.13-3.41-15.07-10.91Z"/><path class="cls-1" d="M229.51,35.13h-17.73l-3.29,9.3h-10.17L214.88,1.03h12.03l16.55,43.4h-10.66l-3.29-9.3ZM226.66,27.13l-6.01-17.05-6.01,17.05h12.03Z"/><path class="cls-1" d="M245.7-.21h9.42v44.64h-9.42V-.21Z"/><path class="cls-1" d="M278.7,44.43h-9.73l-11.9-32.11h9.73l7.25,22.07,7.19-22.07h9.3l-11.84,32.11Z"/><path class="cls-1" d="M311.54,40.77c-2.11,2.6-5.39,4.34-10.04,4.34-6.08,0-11.9-3.47-11.9-10.04s5.39-9.05,13.89-10.42l7.38-1.18v-.43c0-3.47-1.92-4.84-5.27-4.84s-5.52,1.61-6.08,4.59h-8.8c1.05-7.01,7.19-11.28,15.31-11.28,8.68,0,14.14,3.41,14.07,12.46l-.06,13.64c0,1.05.06,2.91.25,6.82h-8.62l-.12-3.66ZM303.92,38.41c3.78,0,6.94-2.23,6.94-6.7v-2.17c-8.49,1.05-12.15,1.98-12.15,5.08,0,2.48,2.23,3.78,5.21,3.78Z"/><path class="cls-1" d="M334.91,44.43h-9.42V12.31h9.11v4.77c.56-.99,1.3-1.92,2.23-2.73,1.86-1.49,3.66-2.29,6.7-2.29.81,0,1.74.06,2.29.19v8.68c-1.49-.19-2.23-.19-3.16-.19-3.53,0-7.75,1.3-7.75,7.38v16.31Z"/><path class="cls-1" d="M363.67,45.17c-9.3,0-17.11-6.39-17.11-16.99s8.06-16.68,16.92-16.68,16.62,6.08,16.62,17.36v1.92h-24.12c.5,4.65,3.78,7.44,8,7.44,2.73,0,5.46-.93,6.76-3.47h9.05c-1.98,7.19-9.05,10.42-16.12,10.42ZM355.92,24.84h14.69c-.31-3.91-3.22-6.45-7.25-6.45s-6.94,2.36-7.44,6.45Z"/><path class="cls-1" d="M409.91,44.43h-28.02v-7.69l16.68-17.17h-16.3v-7.25h27.34v7.69l-16.55,17.17h16.86v7.25Z"/><path class="cls-1" d="M1.46,89.54c0-14.2,10.66-22.44,21.82-22.44,10.54,0,18.85,6.26,20.15,15.75h-10.11c-1.18-4.34-4.9-7.13-10.11-7.13-6.32,0-11.34,5.33-11.34,13.83s5.08,14.01,11.41,14.01c5.08,0,8.68-2.67,10.11-7.13h10.11c-1.55,9.55-9.73,15.75-20.27,15.75-11.47,0-21.76-8.37-21.76-22.63Z"/><path class="cls-1" d="M45.56,95.18c0-10.23,7.87-16.68,17.42-16.68s17.42,6.39,17.42,16.68-7.75,16.99-17.42,16.99-17.42-6.57-17.42-16.99ZM70.74,95.18c0-5.39-3.16-8.99-7.75-8.99s-7.75,3.6-7.75,8.99,3.16,9.3,7.75,9.3,7.75-3.6,7.75-9.3Z"/><path class="cls-1" d="M84.31,66.79h9.42v44.64h-9.42v-44.64Z"/><path class="cls-1" d="M99.34,66.79h9.42v44.64h-9.42v-44.64Z"/><path class="cls-1" d="M129.7,112.17c-9.3,0-17.11-6.39-17.11-16.99s8.06-16.68,16.93-16.68,16.61,6.08,16.61,17.36v1.92h-24.12c.5,4.65,3.78,7.44,8,7.44,2.73,0,5.46-.93,6.76-3.47h9.05c-1.98,7.19-9.05,10.42-16.12,10.42ZM121.95,91.84h14.69c-.31-3.91-3.22-6.45-7.25-6.45s-6.94,2.36-7.44,6.45Z"/><path class="cls-1" d="M165.25,123.89c-9.3,0-15-4.28-16.06-11.1h9.18c.68,2.79,3.1,4.34,6.94,4.34s6.57-1.98,6.57-6.45v-4.65c-1.86,2.85-5.08,4.53-9.42,4.53-7.75,0-14.2-5.77-14.2-16.12s6.7-15.87,14.32-15.87c4.46,0,7.63,1.8,9.49,4.96v-4.22h9.18v30.75c0,9.55-7.07,13.83-16,13.83ZM171.94,94.44c0-5.33-3.1-8.49-7-8.49s-7.01,3.29-7.01,8.49c0,5.52,2.98,8.74,7.01,8.74s7-3.29,7-8.74Z"/><path class="cls-1" d="M202.18,112.17c-9.3,0-17.11-6.39-17.11-16.99s8.06-16.68,16.92-16.68,16.62,6.08,16.62,17.36v1.92h-24.12c.5,4.65,3.78,7.44,8,7.44,2.73,0,5.46-.93,6.76-3.47h9.05c-1.98,7.19-9.05,10.42-16.12,10.42ZM194.43,91.84h14.69c-.31-3.91-3.22-6.45-7.25-6.45s-6.94,2.36-7.44,6.45Z"/><path class="cls-1" d="M235.47,95.18c0-10.23,7.87-16.68,17.42-16.68s17.42,6.39,17.42,16.68-7.75,16.99-17.42,16.99-17.42-6.57-17.42-16.99ZM260.64,95.18c0-5.39-3.16-8.99-7.75-8.99s-7.75,3.6-7.75,8.99,3.16,9.3,7.75,9.3,7.75-3.6,7.75-9.3Z"/><path class="cls-1" d="M285.33,86.19v25.23h-9.17v-25.23h-5.33v-6.88h5.33v-3.41c0-7.07,4.03-9.18,10.11-9.18,2.42,0,3.97,0,6.14.06v6.94c-1.3-.06-2.54-.06-3.91-.06-1.86,0-3.16.5-3.16,3.1v2.54h7.07v6.88h-7.07Z"/><path class="cls-1" d="M310.81,68.03h19.78c10.11,0,14.88,4.77,14.88,11.53,0,4.84-2.73,8.06-6.32,9.18v.12c4.22,1.3,7.25,4.96,7.25,10.35,0,7.56-5.77,12.21-16.3,12.21h-19.28v-43.4ZM320.61,75.47v10.11h8.68c4.09,0,6.26-1.8,6.26-5.02s-2.23-5.08-6.26-5.08h-8.68ZM320.61,92.77v11.22h8.49c4.71,0,7.25-2.05,7.25-5.58s-2.54-5.64-7.19-5.64h-8.56Z"/><path class="cls-1" d="M371.91,107.64c-2.11,2.98-5.46,4.53-9.42,4.53-6.82,0-11.72-4.22-11.72-12.71v-20.15h9.42v18.41c0,4.15,2.17,6.32,5.58,6.32,3.04,0,5.83-2.17,5.83-7.32v-17.42h9.42v32.11h-9.11v-3.78Z"/><path class="cls-1" d="M384.9,101.26h8.74c.5,2.98,3.04,4.4,6.51,4.4,2.73,0,5.15-.99,5.15-3.22,0-1.98-1.8-2.85-5.83-3.53l-3.35-.62c-6.57-1.18-10.66-4.09-10.66-9.24,0-6.57,6.08-10.6,13.83-10.6s13.45,3.72,14.32,10.29h-8.62c-.62-2.42-2.73-3.78-5.89-3.78-2.73,0-4.77,1.24-4.77,3.16,0,1.8,1.61,2.48,5.08,3.1l3.29.56c7.32,1.3,11.66,4.15,11.66,9.73,0,7.07-6.7,10.66-14.38,10.66s-14.14-3.41-15.07-10.91Z"/><path class="cls-1" d="M418.22,66.79h9.49v7.81h-9.49v-7.81ZM418.22,79.31h9.42v32.11h-9.42v-32.11Z"/><path class="cls-1" d="M442.68,111.43h-9.42v-32.11h9.11v3.91c2.05-2.98,5.58-4.65,9.73-4.65,7.01,0,11.72,4.22,11.72,12.83v20.02h-9.42v-18.35c0-4.09-2.11-6.45-5.64-6.45-3.29,0-6.08,2.42-6.08,7.69v17.11Z"/><path class="cls-1" d="M484.44,112.17c-9.3,0-17.11-6.39-17.11-16.99s8.06-16.68,16.92-16.68,16.62,6.08,16.62,17.36v1.92h-24.12c.5,4.65,3.78,7.44,8,7.44,2.73,0,5.46-.93,6.76-3.47h9.05c-1.98,7.19-9.05,10.42-16.12,10.42ZM476.69,91.84h14.69c-.31-3.91-3.22-6.45-7.25-6.45s-6.94,2.36-7.44,6.45Z"/><path class="cls-1" d="M502.85,101.26h8.74c.5,2.98,3.04,4.4,6.51,4.4,2.73,0,5.15-.99,5.15-3.22,0-1.98-1.8-2.85-5.83-3.53l-3.35-.62c-6.57-1.18-10.66-4.09-10.66-9.24,0-6.57,6.08-10.6,13.83-10.6s13.45,3.72,14.32,10.29h-8.62c-.62-2.42-2.73-3.78-5.89-3.78-2.73,0-4.77,1.24-4.77,3.16,0,1.8,1.61,2.48,5.08,3.1l3.29.56c7.32,1.3,11.66,4.15,11.66,9.73,0,7.07-6.7,10.66-14.38,10.66s-14.14-3.41-15.07-10.91Z"/><path class="cls-1" d="M534.35,101.26h8.74c.5,2.98,3.04,4.4,6.51,4.4,2.73,0,5.15-.99,5.15-3.22,0-1.98-1.8-2.85-5.83-3.53l-3.35-.62c-6.57-1.18-10.66-4.09-10.66-9.24,0-6.57,6.08-10.6,13.83-10.6s13.45,3.72,14.32,10.29h-8.62c-.62-2.42-2.73-3.78-5.89-3.78-2.73,0-4.77,1.24-4.77,3.16,0,1.8,1.61,2.48,5.08,3.1l3.29.56c7.32,1.3,11.66,4.15,11.66,9.73,0,7.07-6.7,10.66-14.38,10.66s-14.14-3.41-15.07-10.91Z"/></svg>