<?xml version="1.0" encoding="iso-8859-1"?>
<!-- Generator: Adobe Illustrator 30.2.1, SVG Export Plug-In . SVG Version: 9.03 Build 0)  -->
<svg version="1.1" id="Layer_1" xmlns="http://www.w3.org/2000/svg" xmlns:xlink="http://www.w3.org/1999/xlink" x="0px" y="0px"
	 viewBox="0 0 448.271 136.315" style="enable-background:new 0 0 448.271 136.315;" xml:space="preserve">
<g id="UnitName_00000155828925717603015420000013519887324746876054_">
	<g>
		<path style="fill:#032044;" d="M31.432,43.4h-17.73l-3.286,9.299H0.248L16.801,9.302h12.027l16.553,43.397H34.718L31.432,43.4z
			 M28.58,35.402l-6.014-17.049l-6.014,17.049H28.58z"/>
		<path style="fill:#032044;" d="M47.621,8.062h9.424v44.637h-9.424V8.062z"/>
		<path style="fill:#032044;" d="M80.622,52.699h-9.733L58.985,20.585h9.733l7.254,22.071l7.191-22.071h9.3L80.622,52.699z"/>
		<path style="fill:#032044;" d="M113.469,49.042c-2.107,2.604-5.394,4.34-10.043,4.34c-6.076,0-11.903-3.472-11.903-10.043
			c0-6.696,5.394-9.052,13.887-10.416l7.378-1.178v-0.434c0-3.472-1.922-4.836-5.27-4.836c-3.41,0-5.518,1.612-6.076,4.588h-8.804
			c1.055-7.006,7.192-11.283,15.313-11.283c8.68,0,14.136,3.41,14.073,12.461l-0.062,13.639c0,1.054,0.062,2.914,0.247,6.82h-8.617
			L113.469,49.042z M105.844,46.686c3.781,0,6.943-2.232,6.943-6.696v-2.17c-8.494,1.054-12.151,1.984-12.151,5.084
			C100.636,45.384,102.867,46.686,105.844,46.686z"/>
		<path style="fill:#032044;" d="M136.837,52.699h-9.424V20.585h9.114v4.774c0.558-0.992,1.302-1.922,2.231-2.728
			c1.859-1.488,3.658-2.294,6.695-2.294c0.807,0,1.736,0.062,2.294,0.186v8.68c-1.487-0.186-2.231-0.186-3.162-0.186
			c-3.533,0-7.749,1.302-7.749,7.377V52.699z"/>
		<path style="fill:#032044;" d="M165.598,53.443c-9.3,0-17.111-6.386-17.111-16.987c0-10.292,8.06-16.677,16.926-16.677
			c9.113,0,16.614,6.076,16.614,17.359v1.922H157.91c0.496,4.65,3.781,7.439,7.997,7.439c2.729,0,5.456-0.93,6.758-3.472h9.052
			C179.732,50.219,172.665,53.443,165.598,53.443z M157.848,33.108h14.693c-0.31-3.906-3.224-6.448-7.253-6.448
			C161.444,26.661,158.344,29.017,157.848,33.108z"/>
		<path style="fill:#032044;" d="M211.836,52.699h-28.022v-7.688l16.678-17.173h-16.306v-7.254h27.341v7.688l-16.554,17.173h16.863
			V52.699z"/>
		<path style="fill:#032044;" d="M229.196,30.814c0-14.197,10.664-22.443,21.823-22.443c10.539,0,18.847,6.262,20.148,15.747
			h-10.105c-1.178-4.339-4.897-7.129-10.105-7.129c-6.323,0-11.345,5.332-11.345,13.825s5.083,14.011,11.407,14.011
			c5.083,0,8.68-2.666,10.105-7.129h10.105c-1.55,9.547-9.733,15.747-20.273,15.747C239.488,53.443,229.196,45.074,229.196,30.814z"
			/>
		<path style="fill:#032044;" d="M273.304,36.456c0-10.229,7.873-16.677,17.421-16.677c9.609,0,17.421,6.385,17.421,16.677
			c0,10.354-7.75,16.987-17.421,16.987C280.991,53.443,273.304,46.872,273.304,36.456z M298.474,36.456
			c0-5.394-3.161-8.989-7.749-8.989c-4.649,0-7.75,3.596-7.75,8.989c0,5.642,3.162,9.299,7.75,9.299
			C295.374,45.755,298.474,42.16,298.474,36.456z"/>
		<path style="fill:#032044;" d="M312.053,8.062h9.424v44.637h-9.424V8.062z"/>
		<path style="fill:#032044;" d="M327.075,8.062h9.424v44.637h-9.424V8.062z"/>
		<path style="fill:#032044;" d="M357.441,53.443c-9.299,0-17.11-6.386-17.11-16.987c0-10.292,8.06-16.677,16.925-16.677
			c9.113,0,16.615,6.076,16.615,17.359v1.922h-24.117c0.496,4.65,3.782,7.439,7.998,7.439c2.728,0,5.455-0.93,6.757-3.472h9.052
			C371.577,50.219,364.509,53.443,357.441,53.443z M349.692,33.108h14.692c-0.31-3.906-3.224-6.448-7.253-6.448
			C353.288,26.661,350.188,29.017,349.692,33.108z"/>
		<path style="fill:#032044;" d="M392.985,65.161c-9.299,0-15.003-4.278-16.057-11.098h9.175c0.683,2.79,3.101,4.34,6.944,4.34
			c3.968,0,6.571-1.984,6.571-6.448v-4.649c-1.86,2.852-5.084,4.525-9.424,4.525c-7.749,0-14.197-5.766-14.197-16.119
			c0-10.043,6.696-15.871,14.321-15.871c4.464,0,7.626,1.798,9.485,4.959v-4.216h9.176v30.75
			C408.98,60.883,401.913,65.161,392.985,65.161z M399.682,35.712c0-5.332-3.101-8.494-7.006-8.494c-4.03,0-7.006,3.286-7.006,8.494
			c0,5.518,2.976,8.741,7.006,8.741C396.644,44.454,399.682,41.168,399.682,35.712z"/>
		<path style="fill:#032044;" d="M429.919,53.443c-9.299,0-17.11-6.386-17.11-16.987c0-10.292,8.059-16.677,16.925-16.677
			c9.113,0,16.615,6.076,16.615,17.359v1.922h-24.117c0.496,4.65,3.782,7.439,7.998,7.439c2.728,0,5.455-0.93,6.757-3.472h9.052
			C444.055,50.219,436.986,53.443,429.919,53.443z M422.17,33.108h14.692c-0.31-3.906-3.224-6.448-7.253-6.448
			C425.766,26.661,422.666,29.017,422.17,33.108z"/>
		<path style="fill:#032044;" d="M1.859,103.456c0-10.229,7.874-16.677,17.421-16.677c9.609,0,17.422,6.385,17.422,16.677
			c0,10.354-7.75,16.987-17.422,16.987C9.547,120.443,1.859,113.872,1.859,103.456z M27.03,103.456c0-5.394-3.162-8.989-7.75-8.989
			c-4.649,0-7.749,3.596-7.749,8.989c0,5.642,3.162,9.299,7.749,9.299C23.931,112.755,27.03,109.16,27.03,103.456z"/>
		<path style="fill:#032044;" d="M51.713,94.467v25.232h-9.176V94.467h-5.331v-6.882h5.331v-3.41c0-7.068,4.03-9.175,10.105-9.175
			c2.418,0,3.968,0,6.138,0.062v6.943c-1.302-0.062-2.542-0.062-3.905-0.062c-1.86,0-3.162,0.496-3.162,3.1v2.542h7.067v6.882
			H51.713z"/>
		<path style="fill:#032044;" d="M77.195,76.302h19.776c10.105,0,14.879,4.773,14.879,11.531c0,4.836-2.728,8.06-6.323,9.175v0.124
			c4.216,1.302,7.254,4.96,7.254,10.354c0,7.563-5.766,12.213-16.306,12.213h-19.28V76.302z M86.99,83.741v10.105h8.68
			c4.092,0,6.262-1.798,6.262-5.021c0-3.1-2.231-5.084-6.262-5.084H86.99z M86.99,101.038v11.222h8.494
			c4.711,0,7.253-2.046,7.253-5.58c0-3.596-2.542-5.642-7.191-5.642H86.99z"/>
		<path style="fill:#032044;" d="M138.295,115.917c-2.107,2.976-5.456,4.526-9.424,4.526c-6.819,0-11.717-4.216-11.717-12.709
			V87.585h9.424v18.413c0,4.154,2.169,6.324,5.579,6.324c3.038,0,5.828-2.17,5.828-7.316V87.585h9.423v32.114h-9.113V115.917z"/>
		<path style="fill:#032044;" d="M151.284,109.532h8.742c0.495,2.976,3.037,4.402,6.509,4.402c2.729,0,5.146-0.992,5.146-3.224
			c0-1.984-1.798-2.852-5.828-3.534l-3.348-0.62c-6.571-1.178-10.663-4.092-10.663-9.238c0-6.571,6.075-10.601,13.825-10.601
			c7.377,0,13.453,3.72,14.321,10.291h-8.618c-0.62-2.417-2.728-3.782-5.89-3.782c-2.728,0-4.773,1.24-4.773,3.162
			c0,1.798,1.612,2.48,5.084,3.1l3.285,0.558c7.315,1.302,11.655,4.154,11.655,9.733c0,7.067-6.695,10.664-14.383,10.664
			C158.476,120.443,152.215,117.033,151.284,109.532z"/>
		<path style="fill:#032044;" d="M184.608,75.062h9.485v7.812h-9.485V75.062z M184.608,87.585h9.424v32.114h-9.424V87.585z"/>
		<path style="fill:#032044;" d="M209.066,119.699h-9.423V87.585h9.113v3.906c2.046-2.976,5.58-4.649,9.733-4.649
			c7.006,0,11.718,4.215,11.718,12.833v20.025h-9.424v-18.351c0-4.092-2.107-6.447-5.642-6.447c-3.286,0-6.076,2.417-6.076,7.688
			V119.699z"/>
		<path style="fill:#032044;" d="M250.823,120.443c-9.3,0-17.111-6.386-17.111-16.987c0-10.292,8.06-16.677,16.926-16.677
			c9.113,0,16.614,6.076,16.614,17.359v1.922h-24.116c0.496,4.65,3.781,7.439,7.997,7.439c2.729,0,5.456-0.93,6.758-3.472h9.052
			C264.958,117.219,257.891,120.443,250.823,120.443z M243.073,100.108h14.693c-0.31-3.906-3.224-6.448-7.253-6.448
			C246.67,93.661,243.569,96.017,243.073,100.108z"/>
		<path style="fill:#032044;" d="M269.237,109.532h8.742c0.495,2.976,3.037,4.402,6.509,4.402c2.729,0,5.146-0.992,5.146-3.224
			c0-1.984-1.798-2.852-5.828-3.534l-3.348-0.62c-6.571-1.178-10.663-4.092-10.663-9.238c0-6.571,6.075-10.601,13.825-10.601
			c7.377,0,13.453,3.72,14.321,10.291h-8.618c-0.62-2.417-2.728-3.782-5.89-3.782c-2.728,0-4.773,1.24-4.773,3.162
			c0,1.798,1.612,2.48,5.084,3.1l3.285,0.558c7.315,1.302,11.655,4.154,11.655,9.733c0,7.067-6.695,10.664-14.383,10.664
			C276.429,120.443,270.168,117.033,269.237,109.532z"/>
		<path style="fill:#032044;" d="M300.732,109.532h8.742c0.495,2.976,3.037,4.402,6.509,4.402c2.729,0,5.146-0.992,5.146-3.224
			c0-1.984-1.798-2.852-5.828-3.534l-3.348-0.62c-6.571-1.178-10.663-4.092-10.663-9.238c0-6.571,6.075-10.601,13.825-10.601
			c7.377,0,13.453,3.72,14.321,10.291h-8.618c-0.62-2.417-2.728-3.782-5.89-3.782c-2.728,0-4.773,1.24-4.773,3.162
			c0,1.798,1.612,2.48,5.084,3.1l3.285,0.558c7.315,1.302,11.655,4.154,11.655,9.733c0,7.067-6.695,10.664-14.383,10.664
			C307.924,120.443,301.663,117.033,300.732,109.532z"/>
	</g>
</g>
<g>
</g>
<g>
</g>
<g>
</g>
<g>
</g>
<g>
</g>
<g>
</g>
<g>
</g>
<g>
</g>
<g>
</g>
<g>
</g>
<g>
</g>
<g>
</g>
<g>
</g>
<g>
</g>
<g>
</g>
</svg>
