<?xml version="1.0" encoding="iso-8859-1"?>
<!-- Generator: Adobe Illustrator 30.2.1, SVG Export Plug-In . SVG Version: 9.03 Build 0)  -->
<svg version="1.1" id="Layer_1" xmlns="http://www.w3.org/2000/svg" xmlns:xlink="http://www.w3.org/1999/xlink" x="0px" y="0px"
	 viewBox="0 0 1277.171 69.316" style="enable-background:new 0 0 1277.171 69.316;" xml:space="preserve">
<g id="UnitName_00000083051636230227074460000000021105607283046073_">
	<g>
		<path style="fill:#032044;" d="M2.108,30.815c0-14.197,10.664-22.443,21.823-22.443c10.54,0,18.847,6.261,20.149,15.747H33.974
			c-1.178-4.34-4.898-7.13-10.105-7.13c-6.324,0-11.345,5.332-11.345,13.825c0,8.494,5.083,14.011,11.407,14.011
			c5.083,0,8.68-2.666,10.105-7.13h10.105c-1.55,9.548-9.733,15.747-20.273,15.747C12.399,53.443,2.108,45.074,2.108,30.815z"/>
		<path style="fill:#032044;" d="M46.214,36.456c0-10.229,7.874-16.677,17.421-16.677c9.609,0,17.421,6.386,17.421,16.677
			c0,10.354-7.75,16.987-17.421,16.987C53.902,53.443,46.214,46.872,46.214,36.456z M71.385,36.456c0-5.394-3.162-8.99-7.75-8.99
			c-4.649,0-7.75,3.596-7.75,8.99c0,5.642,3.162,9.3,7.75,9.3C68.285,45.756,71.385,42.16,71.385,36.456z"/>
		<path style="fill:#032044;" d="M84.964,8.062h9.423v44.637h-9.423V8.062z"/>
		<path style="fill:#032044;" d="M99.986,8.062h9.423v44.637h-9.423V8.062z"/>
		<path style="fill:#032044;" d="M130.353,53.443c-9.299,0-17.111-6.385-17.111-16.987c0-10.291,8.06-16.677,16.925-16.677
			c9.113,0,16.615,6.076,16.615,17.359v1.922h-24.117c0.496,4.65,3.782,7.439,7.998,7.439c2.728,0,5.456-0.93,6.758-3.472h9.051
			C144.488,50.219,137.42,53.443,130.353,53.443z M122.603,33.109h14.693c-0.31-3.906-3.224-6.448-7.253-6.448
			C126.199,26.661,123.099,29.017,122.603,33.109z"/>
		<path style="fill:#032044;" d="M165.896,65.161c-9.299,0-15.003-4.278-16.057-11.097h9.176c0.682,2.79,3.1,4.34,6.943,4.34
			c3.968,0,6.572-1.984,6.572-6.448v-4.65c-1.86,2.852-5.083,4.526-9.423,4.526c-7.75,0-14.197-5.766-14.197-16.119
			c0-10.043,6.696-15.871,14.321-15.871c4.463,0,7.625,1.798,9.485,4.96v-4.216h9.175v30.75
			C181.892,60.883,174.824,65.161,165.896,65.161z M172.592,35.712c0-5.332-3.1-8.493-7.005-8.493c-4.03,0-7.006,3.286-7.006,8.493
			c0,5.518,2.976,8.741,7.006,8.741C169.555,44.454,172.592,41.168,172.592,35.712z"/>
		<path style="fill:#032044;" d="M202.83,53.443c-9.299,0-17.111-6.385-17.111-16.987c0-10.291,8.06-16.677,16.925-16.677
			c9.113,0,16.615,6.076,16.615,17.359v1.922h-24.117c0.496,4.65,3.782,7.439,7.998,7.439c2.728,0,5.456-0.93,6.758-3.472h9.051
			C216.965,50.219,209.897,53.443,202.83,53.443z M195.08,33.109h14.693c-0.31-3.906-3.224-6.448-7.253-6.448
			C198.676,26.661,195.576,29.017,195.08,33.109z"/>
		<path style="fill:#032044;" d="M236.124,36.456c0-10.229,7.874-16.677,17.421-16.677c9.609,0,17.421,6.386,17.421,16.677
			c0,10.354-7.75,16.987-17.421,16.987C243.812,53.443,236.124,46.872,236.124,36.456z M261.294,36.456
			c0-5.394-3.162-8.99-7.75-8.99c-4.649,0-7.75,3.596-7.75,8.99c0,5.642,3.162,9.3,7.75,9.3
			C258.195,45.756,261.294,42.16,261.294,36.456z"/>
		<path style="fill:#032044;" d="M285.977,27.467v25.233h-9.175V27.467h-5.332v-6.882h5.332v-3.41c0-7.068,4.03-9.176,10.105-9.176
			c2.418,0,3.968,0,6.138,0.062v6.944c-1.302-0.062-2.542-0.062-3.906-0.062c-1.86,0-3.162,0.496-3.162,3.1v2.542h7.068v6.882
			H285.977z"/>
		<path style="fill:#032044;" d="M343.512,52.699h-32.052V9.302h31.68v8.06h-21.823v9.113h20.086v7.874h-20.086V44.64h22.195V52.699
			z"/>
		<path style="fill:#032044;" d="M370.624,48.174c-1.922,3.348-5.207,5.208-9.671,5.208c-7.998,0-14.879-5.828-14.879-16.987
			c0-10.725,7.129-16.553,15.003-16.553c4.153,0,7.315,1.55,9.237,4.34V8.062h9.424v44.637h-9.114V48.174z M370.5,36.394
			c0-5.704-3.161-8.989-7.377-8.989c-4.278,0-7.378,3.286-7.378,8.989c0,5.952,3.1,9.424,7.378,9.424
			C367.215,45.818,370.5,42.408,370.5,36.394z"/>
		<path style="fill:#032044;" d="M406.305,48.918c-2.108,2.976-5.456,4.526-9.424,4.526c-6.819,0-11.717-4.216-11.717-12.709V20.585
			h9.423v18.413c0,4.154,2.17,6.323,5.58,6.323c3.038,0,5.827-2.17,5.827-7.315V20.585h9.424v32.114h-9.113V48.918z"/>
		<path style="fill:#032044;" d="M419.215,36.456c0-10.043,7.812-16.677,17.049-16.677c8.369,0,14.94,4.96,15.933,12.647h-9.299
			c-0.744-3.038-3.41-4.96-6.634-4.96c-4.34,0-7.378,3.658-7.378,8.99c0,5.518,3.1,9.3,7.378,9.3c3.161,0,5.703-1.798,6.571-5.022
			h9.361c-1.239,7.936-7.873,12.709-15.995,12.709C426.778,53.443,419.215,46.81,419.215,36.456z"/>
		<path style="fill:#032044;" d="M476.091,49.042c-2.107,2.604-5.394,4.34-10.043,4.34c-6.076,0-11.903-3.472-11.903-10.043
			c0-6.696,5.394-9.051,13.887-10.415l7.378-1.178v-0.434c0-3.472-1.922-4.836-5.27-4.836c-3.41,0-5.518,1.612-6.076,4.588h-8.803
			c1.054-7.006,7.191-11.283,15.312-11.283c8.68,0,14.136,3.41,14.073,12.461l-0.062,13.639c0,1.054,0.062,2.914,0.248,6.82h-8.618
			L476.091,49.042z M468.466,46.686c3.781,0,6.943-2.232,6.943-6.696v-2.17c-8.493,1.054-12.151,1.984-12.151,5.084
			C463.258,45.384,465.49,46.686,468.466,46.686z"/>
		<path style="fill:#032044;" d="M491.81,43.958V27.467h-5.208v-6.882h5.208v-7.998h9.237v7.998h7.129v6.882h-7.129v14.321
			c0,3.224,0.991,3.844,3.533,3.844h3.596v7.006c-2.17,0.124-3.968,0.124-7.005,0.124C495.281,52.761,491.81,51.026,491.81,43.958z"
			/>
		<path style="fill:#032044;" d="M512.25,8.062h9.485v7.812h-9.485V8.062z M512.25,20.585h9.423v32.114h-9.423V20.585z"/>
		<path style="fill:#032044;" d="M525.344,36.456c0-10.229,7.873-16.677,17.421-16.677c9.609,0,17.421,6.386,17.421,16.677
			c0,10.354-7.75,16.987-17.421,16.987C533.031,53.443,525.344,46.872,525.344,36.456z M550.514,36.456
			c0-5.394-3.162-8.99-7.749-8.99c-4.65,0-7.75,3.596-7.75,8.99c0,5.642,3.162,9.3,7.75,9.3
			C547.414,45.756,550.514,42.16,550.514,36.456z"/>
		<path style="fill:#032044;" d="M573.436,52.699h-9.423V20.585h9.113v3.906c2.046-2.976,5.579-4.65,9.733-4.65
			c7.006,0,11.717,4.216,11.717,12.833v20.025h-9.423V34.348c0-4.092-2.108-6.448-5.642-6.448c-3.286,0-6.076,2.418-6.076,7.688
			V52.699z"/>
		<path style="fill:#032044;" d="M641.015,49.662c-3.472,2.356-7.439,3.782-12.585,3.782c-8.928,0-15.313-4.836-15.313-12.647
			c0-5.642,3.224-9.485,8.432-12.151c-2.294-2.604-3.844-5.27-3.844-8.865c0-6.634,5.766-11.345,13.205-11.345
			c7.626,0,13.02,4.34,13.02,11.097c0,4.96-3.162,8.432-8.866,10.911l6.572,7.068c1.363-2.046,2.17-4.402,2.542-7.315h8.679
			c-0.495,5.27-2.293,10.043-5.394,13.639l8.184,8.803v0.062h-11.779L641.015,49.662z M629.235,45.942
			c2.355,0,4.588-0.682,6.51-2.046l-9.052-9.795c-2.79,1.488-4.153,3.534-4.153,6.014C622.54,43.648,625.64,45.942,629.235,45.942z
			 M629.917,25.483c3.782-1.426,5.518-3.286,5.518-5.704c0-2.542-1.983-4.278-4.587-4.278c-2.729,0-4.65,1.86-4.65,4.34
			C626.197,21.887,627.686,23.499,629.917,25.483z"/>
		<path style="fill:#032044;" d="M673.503,9.302h10.105v16.677h18.909V9.302h10.105v43.397h-10.105V34.41h-18.909v18.289h-10.105
			V9.302z"/>
		<path style="fill:#032044;" d="M739.849,48.918c-2.108,2.976-5.456,4.526-9.424,4.526c-6.819,0-11.717-4.216-11.717-12.709V20.585
			h9.423v18.413c0,4.154,2.17,6.323,5.58,6.323c3.038,0,5.827-2.17,5.827-7.315V20.585h9.424v32.114h-9.113V48.918z"/>
		<path style="fill:#032044;" d="M764.034,52.699h-9.423V20.585h9.113v3.782c1.983-2.914,5.394-4.526,9.547-4.526
			c3.782,0,7.502,1.55,9.672,5.208c2.107-3.41,5.951-5.208,10.478-5.208c6.323,0,11.841,3.472,11.841,12.523v20.335h-9.423V34.101
			c0-4.154-2.294-6.2-5.394-6.2c-3.038,0-5.767,2.356-5.767,7.316v17.483h-9.423V34.101c0-4.154-2.294-6.2-5.394-6.2
			c-3.038,0-5.828,2.294-5.828,7.316V52.699z"/>
		<path style="fill:#032044;" d="M830.956,49.042c-2.107,2.604-5.394,4.34-10.043,4.34c-6.076,0-11.903-3.472-11.903-10.043
			c0-6.696,5.394-9.051,13.887-10.415l7.378-1.178v-0.434c0-3.472-1.922-4.836-5.27-4.836c-3.41,0-5.518,1.612-6.076,4.588h-8.803
			c1.054-7.006,7.191-11.283,15.312-11.283c8.68,0,14.136,3.41,14.073,12.461L839.45,45.88c0,1.054,0.062,2.914,0.248,6.82h-8.618
			L830.956,49.042z M823.331,46.686c3.781,0,6.943-2.232,6.943-6.696v-2.17c-8.493,1.054-12.151,1.984-12.151,5.084
			C818.123,45.384,820.355,46.686,823.331,46.686z"/>
		<path style="fill:#032044;" d="M854.324,52.699h-9.423V20.585h9.113v3.906c2.046-2.976,5.579-4.65,9.733-4.65
			c7.006,0,11.717,4.216,11.717,12.833v20.025h-9.423V34.348c0-4.092-2.108-6.448-5.642-6.448c-3.286,0-6.076,2.418-6.076,7.688
			V52.699z"/>
		<path style="fill:#032044;" d="M896.235,9.302h16.182c13.826,0,22.877,7.068,22.877,21.451c0,13.825-9.114,21.947-22.94,21.947
			h-16.119V9.302z M911.363,44.392c8.927,0,13.578-5.083,13.578-13.577c0-8.431-4.65-13.205-13.578-13.205h-5.022v26.782H911.363z"
			/>
		<path style="fill:#032044;" d="M954.745,53.443c-9.299,0-17.11-6.385-17.11-16.987c0-10.291,8.06-16.677,16.925-16.677
			c9.113,0,16.615,6.076,16.615,17.359v1.922h-24.117c0.496,4.65,3.782,7.439,7.998,7.439c2.728,0,5.455-0.93,6.757-3.472h9.052
			C968.88,50.219,961.812,53.443,954.745,53.443z M946.996,33.109h14.692c-0.31-3.906-3.224-6.448-7.253-6.448
			C950.591,26.661,947.492,29.017,946.996,33.109z"/>
		<path style="fill:#032044;" d="M991.795,52.699h-9.733l-11.903-32.114h9.733l7.253,22.071l7.191-22.071h9.3L991.795,52.699z"/>
		<path style="fill:#032044;" d="M1019.564,53.443c-9.299,0-17.11-6.385-17.11-16.987c0-10.291,8.059-16.677,16.925-16.677
			c9.113,0,16.615,6.076,16.615,17.359v1.922h-24.117c0.496,4.65,3.782,7.439,7.998,7.439c2.728,0,5.455-0.93,6.757-3.472h9.052
			C1033.7,50.219,1026.631,53.443,1019.564,53.443z M1011.815,33.109h14.692c-0.31-3.906-3.224-6.448-7.253-6.448
			C1015.411,26.661,1012.311,29.017,1011.815,33.109z"/>
		<path style="fill:#032044;" d="M1039.925,8.062h9.423v44.637h-9.423V8.062z"/>
		<path style="fill:#032044;" d="M1053.181,36.456c0-10.229,7.873-16.677,17.421-16.677c9.609,0,17.421,6.386,17.421,16.677
			c0,10.354-7.75,16.987-17.421,16.987C1060.869,53.443,1053.181,46.872,1053.181,36.456z M1078.351,36.456
			c0-5.394-3.162-8.99-7.749-8.99c-4.65,0-7.75,3.596-7.75,8.99c0,5.642,3.162,9.3,7.75,9.3
			C1075.251,45.756,1078.351,42.16,1078.351,36.456z"/>
		<path style="fill:#032044;" d="M1101.273,48.67v15.809h-9.423V20.585h9.175v4.154c1.86-3.1,5.146-4.898,9.672-4.898
			c7.997,0,14.817,5.704,14.817,16.553c0,11.097-6.882,16.987-14.88,16.987C1106.294,53.381,1103.195,51.646,1101.273,48.67z
			 M1115.904,36.394c0-5.89-3.224-8.989-7.377-8.989c-4.278,0-7.439,3.348-7.439,8.989c0,6.014,3.348,9.424,7.439,9.424
			C1112.68,45.818,1115.904,42.408,1115.904,36.394z"/>
		<path style="fill:#032044;" d="M1138.931,52.699h-9.423V20.585h9.113v3.782c1.983-2.914,5.394-4.526,9.547-4.526
			c3.782,0,7.502,1.55,9.672,5.208c2.107-3.41,5.951-5.208,10.478-5.208c6.323,0,11.841,3.472,11.841,12.523v20.335h-9.423V34.101
			c0-4.154-2.294-6.2-5.394-6.2c-3.038,0-5.767,2.356-5.767,7.316v17.483h-9.423V34.101c0-4.154-2.294-6.2-5.394-6.2
			c-3.038,0-5.828,2.294-5.828,7.316V52.699z"/>
		<path style="fill:#032044;" d="M1200.875,53.443c-9.299,0-17.11-6.385-17.11-16.987c0-10.291,8.059-16.677,16.925-16.677
			c9.113,0,16.615,6.076,16.615,17.359v1.922h-24.117c0.496,4.65,3.782,7.439,7.998,7.439c2.728,0,5.455-0.93,6.757-3.472h9.052
			C1215.01,50.219,1207.942,53.443,1200.875,53.443z M1193.125,33.109h14.692c-0.31-3.906-3.224-6.448-7.253-6.448
			C1196.721,26.661,1193.622,29.017,1193.125,33.109z"/>
		<path style="fill:#032044;" d="M1230.697,52.699h-9.423V20.585h9.113v3.906c2.046-2.976,5.579-4.65,9.733-4.65
			c7.006,0,11.717,4.216,11.717,12.833v20.025h-9.423V34.348c0-4.092-2.108-6.448-5.642-6.448c-3.286,0-6.076,2.418-6.076,7.688
			V52.699z"/>
		<path style="fill:#032044;" d="M1258.944,43.958V27.467h-5.208v-6.882h5.208v-7.998h9.237v7.998h7.129v6.882h-7.129v14.321
			c0,3.224,0.991,3.844,3.533,3.844h3.596v7.006c-2.17,0.124-3.968,0.124-7.005,0.124
			C1262.416,52.761,1258.944,51.026,1258.944,43.958z"/>
	</g>
</g>
<g>
</g>
<g>
</g>
<g>
</g>
<g>
</g>
<g>
</g>
<g>
</g>
<g>
</g>
<g>
</g>
<g>
</g>
<g>
</g>
<g>
</g>
<g>
</g>
<g>
</g>
<g>
</g>
<g>
</g>
</svg>
