<?xml version="1.0" encoding="iso-8859-1"?>
<!-- Generator: Adobe Illustrator 30.2.1, SVG Export Plug-In . SVG Version: 9.03 Build 0)  -->
<svg version="1.1" id="Layer_1" xmlns="http://www.w3.org/2000/svg" xmlns:xlink="http://www.w3.org/1999/xlink" x="0px" y="0px"
	 viewBox="0 0 672.27 136.315" style="enable-background:new 0 0 672.27 136.315;" xml:space="preserve">
<g id="UnitName_00000155828925717603015420000013519887324746876054_">
	<g>
		<path style="fill:#032044;" d="M25.046,29.017h19.839v23.683h-8.431l-0.062-4.959c-2.728,3.224-7.439,5.642-13.329,5.642
			c-11.035,0-20.955-8.556-20.955-22.567c0-14.135,10.354-22.443,22.691-22.443c10.167,0,18.536,5.518,20.024,14.445h-9.981
			c-1.116-3.72-4.897-6.138-10.043-6.138c-7.378,0-12.399,5.332-12.399,14.135c0,8.99,5.146,14.321,12.275,14.321
			c5.455,0,10.167-3.534,10.849-8.432v-0.062H25.046V29.017z"/>
		<path style="fill:#032044;" d="M60.361,52.699h-9.423V20.585h9.113v4.774c0.558-0.992,1.302-1.922,2.231-2.728
			c1.86-1.488,3.658-2.294,6.696-2.294c0.806,0,1.735,0.062,2.294,0.186v8.68c-1.488-0.186-2.232-0.186-3.162-0.186
			c-3.534,0-7.75,1.302-7.75,7.377V52.699z"/>
		<path style="fill:#032044;" d="M94.063,49.042c-2.108,2.604-5.394,4.34-10.044,4.34c-6.075,0-11.903-3.472-11.903-10.043
			c0-6.696,5.394-9.052,13.888-10.416l7.377-1.178v-0.434c0-3.472-1.922-4.836-5.27-4.836c-3.409,0-5.518,1.612-6.075,4.588h-8.804
			c1.054-7.006,7.191-11.283,15.313-11.283c8.679,0,14.135,3.41,14.073,12.461l-0.062,13.639c0,1.054,0.062,2.914,0.248,6.82h-8.617
			L94.063,49.042z M86.438,46.686c3.782,0,6.943-2.232,6.943-6.696v-2.17c-8.493,1.054-12.151,1.984-12.151,5.084
			C81.229,45.384,83.462,46.686,86.438,46.686z"/>
		<path style="fill:#032044;" d="M130.735,48.173c-1.922,3.348-5.208,5.208-9.671,5.208c-7.998,0-14.88-5.828-14.88-16.987
			c0-10.725,7.13-16.553,15.003-16.553c4.154,0,7.316,1.55,9.238,4.339V8.062h9.423v44.637h-9.113V48.173z M130.611,36.394
			c0-5.704-3.162-8.989-7.378-8.989c-4.277,0-7.377,3.286-7.377,8.989c0,5.952,3.1,9.423,7.377,9.423
			C127.325,45.817,130.611,42.408,130.611,36.394z"/>
		<path style="fill:#032044;" d="M166.416,48.917c-2.107,2.976-5.456,4.526-9.424,4.526c-6.819,0-11.717-4.216-11.717-12.709V20.585
			h9.424v18.413c0,4.154,2.169,6.324,5.579,6.324c3.038,0,5.828-2.17,5.828-7.316V20.585h9.423v32.114h-9.113V48.917z"/>
		<path style="fill:#032044;" d="M201.414,49.042c-2.107,2.604-5.394,4.34-10.043,4.34c-6.076,0-11.903-3.472-11.903-10.043
			c0-6.696,5.394-9.052,13.887-10.416l7.378-1.178v-0.434c0-3.472-1.922-4.836-5.27-4.836c-3.41,0-5.518,1.612-6.076,4.588h-8.804
			c1.055-7.006,7.192-11.283,15.313-11.283c8.68,0,14.136,3.41,14.073,12.461l-0.062,13.639c0,1.054,0.062,2.914,0.247,6.82h-8.617
			L201.414,49.042z M193.789,46.686c3.781,0,6.943-2.232,6.943-6.696v-2.17c-8.494,1.054-12.151,1.984-12.151,5.084
			C188.581,45.384,190.812,46.686,193.789,46.686z"/>
		<path style="fill:#032044;" d="M217.132,43.958V27.467h-5.208v-6.882h5.208v-7.998h9.237v7.998h7.13v6.882h-7.13v14.321
			c0,3.224,0.992,3.844,3.534,3.844h3.596v7.005c-2.17,0.124-3.968,0.124-7.006,0.124C220.604,52.761,217.132,51.025,217.132,43.958
			z"/>
		<path style="fill:#032044;" d="M251.825,53.443c-9.3,0-17.111-6.386-17.111-16.987c0-10.292,8.06-16.677,16.926-16.677
			c9.113,0,16.614,6.076,16.614,17.359v1.922h-24.116c0.496,4.65,3.781,7.439,7.997,7.439c2.729,0,5.456-0.93,6.758-3.472h9.052
			C265.96,50.219,258.893,53.443,251.825,53.443z M244.075,33.108h14.693c-0.31-3.906-3.224-6.448-7.253-6.448
			C247.672,26.661,244.571,29.017,244.075,33.108z"/>
		<path style="fill:#032044;" d="M285.058,38.998h9.857c0.62,4.65,4.216,6.819,8.928,6.819c4.339,0,7.625-1.798,7.625-5.083
			c0-2.852-2.666-4.278-7.439-5.27l-4.34-0.93c-9.237-1.922-13.577-6.076-13.577-12.709c0-7.936,7.626-13.454,16.925-13.454
			c9.485,0,16.678,4.898,17.545,13.516h-9.795c-0.559-3.72-3.534-5.89-7.812-5.89c-3.968,0-7.067,2.045-7.067,4.959
			c0,2.604,1.922,3.72,6.261,4.588l4.836,1.054c8.742,1.736,14.384,5.642,14.384,13.206c0,8.927-8.37,13.639-17.607,13.639
			C293.737,53.443,285.926,48.855,285.058,38.998z"/>
		<path style="fill:#032044;" d="M323.751,36.456c0-10.043,7.812-16.677,17.049-16.677c8.37,0,14.941,4.959,15.934,12.647h-9.3
			c-0.744-3.038-3.41-4.959-6.634-4.959c-4.34,0-7.378,3.658-7.378,8.989c0,5.518,3.101,9.299,7.378,9.299
			c3.162,0,5.704-1.798,6.572-5.021h9.361c-1.24,7.936-7.874,12.709-15.995,12.709C331.314,53.443,323.751,46.81,323.751,36.456z"/>
		<path style="fill:#032044;" d="M369.835,52.699h-9.423V8.062h9.423v13.577c0,0.868,0,1.674,0,2.417
			c2.046-2.666,5.456-4.215,9.424-4.215c7.006,0,11.717,4.215,11.717,12.833v20.025h-9.423V34.348c0-4.092-2.108-6.447-5.642-6.447
			c-3.286,0-6.076,2.417-6.076,7.688V52.699z"/>
		<path style="fill:#032044;" d="M394.48,36.456c0-10.229,7.873-16.677,17.421-16.677c9.609,0,17.421,6.385,17.421,16.677
			c0,10.354-7.75,16.987-17.421,16.987C402.168,53.443,394.48,46.872,394.48,36.456z M419.65,36.456
			c0-5.394-3.162-8.989-7.749-8.989c-4.65,0-7.75,3.596-7.75,8.989c0,5.642,3.162,9.299,7.75,9.299
			C416.551,45.755,419.65,42.16,419.65,36.456z"/>
		<path style="fill:#032044;" d="M431.309,36.456c0-10.229,7.873-16.677,17.421-16.677c9.609,0,17.421,6.385,17.421,16.677
			c0,10.354-7.75,16.987-17.421,16.987C438.996,53.443,431.309,46.872,431.309,36.456z M456.479,36.456
			c0-5.394-3.162-8.989-7.749-8.989c-4.65,0-7.75,3.596-7.75,8.989c0,5.642,3.162,9.299,7.75,9.299
			C453.379,45.755,456.479,42.16,456.479,36.456z"/>
		<path style="fill:#032044;" d="M470.058,8.062h9.423v44.637h-9.423V8.062z"/>
		<path style="fill:#032044;" d="M1.859,103.456c0-10.229,7.874-16.677,17.421-16.677c9.609,0,17.422,6.385,17.422,16.677
			c0,10.354-7.75,16.987-17.422,16.987C9.547,120.443,1.859,113.872,1.859,103.456z M27.03,103.456c0-5.394-3.162-8.989-7.75-8.989
			c-4.649,0-7.749,3.596-7.749,8.989c0,5.642,3.162,9.299,7.749,9.299C23.931,112.755,27.03,109.16,27.03,103.456z"/>
		<path style="fill:#032044;" d="M51.713,94.467v25.232h-9.176V94.467h-5.331v-6.882h5.331v-3.41c0-7.068,4.03-9.175,10.105-9.175
			c2.418,0,3.968,0,6.138,0.062v6.943c-1.302-0.062-2.542-0.062-3.905-0.062c-1.86,0-3.162,0.496-3.162,3.1v2.542h7.067v6.882
			H51.713z"/>
		<path style="fill:#032044;" d="M77.195,76.302h19.776c10.105,0,14.879,4.773,14.879,11.531c0,4.836-2.728,8.06-6.323,9.175v0.124
			c4.216,1.302,7.254,4.96,7.254,10.354c0,7.563-5.766,12.213-16.306,12.213h-19.28V76.302z M86.99,83.741v10.105h8.68
			c4.092,0,6.262-1.798,6.262-5.021c0-3.1-2.231-5.084-6.262-5.084H86.99z M86.99,101.038v11.222h8.494
			c4.711,0,7.253-2.046,7.253-5.58c0-3.596-2.542-5.642-7.191-5.642H86.99z"/>
		<path style="fill:#032044;" d="M117.538,75.062h9.485v7.812h-9.485V75.062z M117.538,87.585h9.424v32.114h-9.424V87.585z"/>
		<path style="fill:#032044;" d="M130.633,103.456c0-10.229,7.873-16.677,17.421-16.677c9.609,0,17.421,6.385,17.421,16.677
			c0,10.354-7.75,16.987-17.421,16.987C138.32,120.443,130.633,113.872,130.633,103.456z M155.803,103.456
			c0-5.394-3.161-8.989-7.749-8.989c-4.649,0-7.75,3.596-7.75,8.989c0,5.642,3.162,9.299,7.75,9.299
			C152.703,112.755,155.803,109.16,155.803,103.456z"/>
		<path style="fill:#032044;" d="M178.725,119.699h-9.423V87.585h9.113v3.782c1.984-2.914,5.394-4.525,9.548-4.525
			c3.781,0,7.501,1.55,9.671,5.208c2.108-3.41,5.952-5.208,10.478-5.208c6.323,0,11.842,3.472,11.842,12.523v20.335h-9.424V101.1
			c0-4.154-2.294-6.199-5.394-6.199c-3.038,0-5.766,2.355-5.766,7.315v17.483h-9.424V101.1c0-4.154-2.294-6.199-5.394-6.199
			c-3.038,0-5.828,2.293-5.828,7.315V119.699z"/>
		<path style="fill:#032044;" d="M240.669,120.443c-9.3,0-17.111-6.386-17.111-16.987c0-10.292,8.06-16.677,16.926-16.677
			c9.113,0,16.614,6.076,16.614,17.359v1.922h-24.116c0.496,4.65,3.781,7.439,7.997,7.439c2.729,0,5.456-0.93,6.758-3.472h9.052
			C254.804,117.219,247.736,120.443,240.669,120.443z M232.919,100.108h14.693c-0.31-3.906-3.224-6.448-7.253-6.448
			C236.516,93.661,233.415,96.017,232.919,100.108z"/>
		<path style="fill:#032044;" d="M283.876,115.173c-1.922,3.348-5.208,5.208-9.672,5.208c-7.997,0-14.879-5.828-14.879-16.987
			c0-10.725,7.129-16.553,15.003-16.553c4.153,0,7.315,1.55,9.237,4.339V75.062h9.424v44.637h-9.113V115.173z M283.752,103.394
			c0-5.704-3.162-8.989-7.378-8.989c-4.277,0-7.378,3.286-7.378,8.989c0,5.952,3.101,9.423,7.378,9.423
			C280.466,112.817,283.752,109.408,283.752,103.394z"/>
		<path style="fill:#032044;" d="M298.669,75.062h9.485v7.812h-9.485V75.062z M298.669,87.585h9.424v32.114h-9.424V87.585z"/>
		<path style="fill:#032044;" d="M311.764,103.456c0-10.043,7.812-16.677,17.049-16.677c8.37,0,14.941,4.959,15.934,12.647h-9.3
			c-0.744-3.038-3.41-4.959-6.634-4.959c-4.34,0-7.378,3.658-7.378,8.989c0,5.518,3.101,9.299,7.378,9.299
			c3.162,0,5.704-1.798,6.572-5.021h9.361c-1.24,7.936-7.874,12.709-15.995,12.709C319.327,120.443,311.764,113.81,311.764,103.456z
			"/>
		<path style="fill:#032044;" d="M368.641,116.042c-2.107,2.604-5.394,4.34-10.043,4.34c-6.076,0-11.903-3.472-11.903-10.043
			c0-6.696,5.394-9.052,13.887-10.416l7.378-1.178v-0.434c0-3.472-1.922-4.836-5.27-4.836c-3.41,0-5.518,1.612-6.076,4.588h-8.803
			c1.054-7.006,7.191-11.283,15.312-11.283c8.68,0,14.136,3.41,14.073,12.461l-0.062,13.639c0,1.054,0.062,2.914,0.248,6.82h-8.618
			L368.641,116.042z M361.016,113.686c3.781,0,6.943-2.232,6.943-6.696v-2.17c-8.493,1.054-12.151,1.984-12.151,5.084
			C355.808,112.384,358.04,113.686,361.016,113.686z"/>
		<path style="fill:#032044;" d="M382.604,75.062h9.423v44.637h-9.423V75.062z"/>
		<path style="fill:#032044;" d="M410.752,105.998h9.857c0.62,4.65,4.216,6.819,8.928,6.819c4.34,0,7.625-1.798,7.625-5.083
			c0-2.852-2.665-4.278-7.439-5.27l-4.34-0.93c-9.237-1.922-13.577-6.076-13.577-12.709c0-7.936,7.626-13.454,16.926-13.454
			c9.485,0,16.677,4.898,17.545,13.516h-9.796c-0.558-3.72-3.534-5.89-7.812-5.89c-3.968,0-7.067,2.045-7.067,4.959
			c0,2.604,1.922,3.72,6.262,4.588l4.836,1.054c8.741,1.736,14.383,5.642,14.383,13.206c0,8.927-8.369,13.639-17.607,13.639
			C419.432,120.443,411.62,115.855,410.752,105.998z"/>
		<path style="fill:#032044;" d="M449.445,103.456c0-10.043,7.812-16.677,17.049-16.677c8.369,0,14.94,4.959,15.933,12.647h-9.299
			c-0.744-3.038-3.41-4.959-6.634-4.959c-4.34,0-7.378,3.658-7.378,8.989c0,5.518,3.1,9.299,7.378,9.299
			c3.161,0,5.703-1.798,6.571-5.021h9.361c-1.239,7.936-7.873,12.709-15.995,12.709C457.009,120.443,449.445,113.81,449.445,103.456
			z"/>
		<path style="fill:#032044;" d="M486.105,75.062h9.485v7.812h-9.485V75.062z M486.105,87.585h9.423v32.114h-9.423V87.585z"/>
		<path style="fill:#032044;" d="M516.311,120.443c-9.299,0-17.11-6.386-17.11-16.987c0-10.292,8.06-16.677,16.925-16.677
			c9.113,0,16.615,6.076,16.615,17.359v1.922h-24.117c0.496,4.65,3.782,7.439,7.998,7.439c2.728,0,5.455-0.93,6.757-3.472h9.052
			C530.446,117.219,523.378,120.443,516.311,120.443z M508.562,100.108h14.692c-0.31-3.906-3.224-6.448-7.253-6.448
			C512.157,93.661,509.058,96.017,508.562,100.108z"/>
		<path style="fill:#032044;" d="M546.132,119.699h-9.423V87.585h9.113v3.906c2.046-2.976,5.579-4.649,9.733-4.649
			c7.006,0,11.717,4.215,11.717,12.833v20.025h-9.423v-18.351c0-4.092-2.108-6.447-5.642-6.447c-3.286,0-6.076,2.417-6.076,7.688
			V119.699z"/>
		<path style="fill:#032044;" d="M570.777,103.456c0-10.043,7.812-16.677,17.049-16.677c8.369,0,14.94,4.959,15.933,12.647h-9.299
			c-0.744-3.038-3.41-4.959-6.634-4.959c-4.34,0-7.378,3.658-7.378,8.989c0,5.518,3.1,9.299,7.378,9.299
			c3.161,0,5.703-1.798,6.571-5.021h9.361c-1.239,7.936-7.873,12.709-15.995,12.709C578.341,120.443,570.777,113.81,570.777,103.456
			z"/>
		<path style="fill:#032044;" d="M622.608,120.443c-9.299,0-17.11-6.386-17.11-16.987c0-10.292,8.059-16.677,16.925-16.677
			c9.113,0,16.615,6.076,16.615,17.359v1.922h-24.117c0.496,4.65,3.782,7.439,7.998,7.439c2.728,0,5.455-0.93,6.757-3.472h9.052
			C636.744,117.219,629.676,120.443,622.608,120.443z M614.859,100.108h14.692c-0.31-3.906-3.224-6.448-7.253-6.448
			C618.455,93.661,615.355,96.017,614.859,100.108z"/>
		<path style="fill:#032044;" d="M641.022,109.532h8.741c0.496,2.976,3.038,4.402,6.51,4.402c2.729,0,5.146-0.992,5.146-3.224
			c0-1.984-1.798-2.852-5.827-3.534l-3.348-0.62c-6.572-1.178-10.664-4.092-10.664-9.238c0-6.571,6.076-10.601,13.825-10.601
			c7.378,0,13.454,3.72,14.321,10.291h-8.617c-0.62-2.417-2.728-3.782-5.89-3.782c-2.728,0-4.773,1.24-4.773,3.162
			c0,1.798,1.611,2.48,5.083,3.1l3.286,0.558c7.315,1.302,11.655,4.154,11.655,9.733c0,7.067-6.695,10.664-14.383,10.664
			C648.214,120.443,641.952,117.033,641.022,109.532z"/>
	</g>
</g>
<g>
</g>
<g>
</g>
<g>
</g>
<g>
</g>
<g>
</g>
<g>
</g>
<g>
</g>
<g>
</g>
<g>
</g>
<g>
</g>
<g>
</g>
<g>
</g>
<g>
</g>
<g>
</g>
<g>
</g>
</svg>
