<?xml version="1.0" encoding="iso-8859-1"?>
<!-- Generator: Adobe Illustrator 30.2.1, SVG Export Plug-In . SVG Version: 9.03 Build 0)  -->
<svg version="1.1" id="Layer_1" xmlns="http://www.w3.org/2000/svg" xmlns:xlink="http://www.w3.org/1999/xlink" x="0px" y="0px"
	 viewBox="0 0 580.487 136.315" style="enable-background:new 0 0 580.487 136.315;" xml:space="preserve">
<g id="UnitName_00000155828925717603015420000013519887324746876054_">
	<g>
		<path style="fill:#032044;" d="M2.107,30.814c0-14.197,10.664-22.443,21.823-22.443c10.539,0,18.847,6.262,20.148,15.747H33.974
			c-1.178-4.339-4.897-7.129-10.105-7.129c-6.323,0-11.345,5.332-11.345,13.825s5.083,14.011,11.407,14.011
			c5.083,0,8.68-2.666,10.105-7.129h10.105c-1.55,9.547-9.733,15.747-20.273,15.747C12.399,53.443,2.107,45.074,2.107,30.814z"/>
		<path style="fill:#032044;" d="M46.214,36.456c0-10.229,7.874-16.677,17.421-16.677c9.609,0,17.422,6.385,17.422,16.677
			c0,10.354-7.75,16.987-17.422,16.987C53.901,53.443,46.214,46.872,46.214,36.456z M71.385,36.456c0-5.394-3.162-8.989-7.75-8.989
			c-4.649,0-7.749,3.596-7.749,8.989c0,5.642,3.162,9.299,7.749,9.299C68.285,45.755,71.385,42.16,71.385,36.456z"/>
		<path style="fill:#032044;" d="M84.964,8.062h9.423v44.637h-9.423V8.062z"/>
		<path style="fill:#032044;" d="M99.986,8.062h9.423v44.637h-9.423V8.062z"/>
		<path style="fill:#032044;" d="M130.353,53.443c-9.3,0-17.111-6.386-17.111-16.987c0-10.292,8.06-16.677,16.926-16.677
			c9.113,0,16.614,6.076,16.614,17.359v1.922h-24.116c0.496,4.65,3.781,7.439,7.997,7.439c2.729,0,5.456-0.93,6.758-3.472h9.052
			C144.487,50.219,137.42,53.443,130.353,53.443z M122.603,33.108h14.693c-0.31-3.906-3.224-6.448-7.253-6.448
			C126.199,26.661,123.099,29.017,122.603,33.108z"/>
		<path style="fill:#032044;" d="M165.896,65.161c-9.3,0-15.003-4.278-16.058-11.098h9.176c0.683,2.79,3.1,4.34,6.943,4.34
			c3.968,0,6.572-1.984,6.572-6.448v-4.649c-1.86,2.852-5.084,4.525-9.424,4.525c-7.749,0-14.197-5.766-14.197-16.119
			c0-10.043,6.696-15.871,14.321-15.871c4.464,0,7.626,1.798,9.485,4.959v-4.216h9.176v30.75
			C181.892,60.883,174.824,65.161,165.896,65.161z M172.592,35.712c0-5.332-3.1-8.494-7.005-8.494c-4.03,0-7.006,3.286-7.006,8.494
			c0,5.518,2.976,8.741,7.006,8.741C169.555,44.454,172.592,41.168,172.592,35.712z"/>
		<path style="fill:#032044;" d="M202.829,53.443c-9.299,0-17.11-6.386-17.11-16.987c0-10.292,8.06-16.677,16.925-16.677
			c9.113,0,16.615,6.076,16.615,17.359v1.922h-24.117c0.496,4.65,3.782,7.439,7.998,7.439c2.728,0,5.456-0.93,6.758-3.472h9.051
			C216.965,50.219,209.897,53.443,202.829,53.443z M195.08,33.108h14.693c-0.311-3.906-3.224-6.448-7.254-6.448
			C198.676,26.661,195.576,29.017,195.08,33.108z"/>
		<path style="fill:#032044;" d="M249.515,27.467v25.232h-9.175V27.467h-5.332v-6.882h5.332v-3.41c0-7.068,4.029-9.175,10.105-9.175
			c2.418,0,3.968,0,6.138,0.062v6.943c-1.303-0.062-2.542-0.062-3.906-0.062c-1.859,0-3.162,0.496-3.162,3.1v2.542h7.068v6.882
			H249.515z"/>
		<path style="fill:#032044;" d="M257.16,36.456c0-10.229,7.874-16.677,17.421-16.677c9.609,0,17.422,6.385,17.422,16.677
			c0,10.354-7.75,16.987-17.422,16.987C264.848,53.443,257.16,46.872,257.16,36.456z M282.331,36.456
			c0-5.394-3.162-8.989-7.75-8.989c-4.649,0-7.749,3.596-7.749,8.989c0,5.642,3.162,9.299,7.749,9.299
			C279.231,45.755,282.331,42.16,282.331,36.456z"/>
		<path style="fill:#032044;" d="M305.253,52.699h-9.424V20.585h9.114v4.774c0.558-0.992,1.302-1.922,2.231-2.728
			c1.859-1.488,3.658-2.294,6.695-2.294c0.807,0,1.736,0.062,2.294,0.186v8.68c-1.487-0.186-2.231-0.186-3.162-0.186
			c-3.533,0-7.749,1.302-7.749,7.377V52.699z"/>
		<path style="fill:#032044;" d="M334.269,9.302h10.105v16.677h18.909V9.302h10.105v43.397h-10.105V34.41h-18.909v18.289h-10.105
			V9.302z"/>
		<path style="fill:#032044;" d="M394.99,53.443c-9.299,0-17.11-6.386-17.11-16.987c0-10.292,8.06-16.677,16.925-16.677
			c9.113,0,16.615,6.076,16.615,17.359v1.922h-24.117c0.496,4.65,3.782,7.439,7.998,7.439c2.728,0,5.455-0.93,6.757-3.472h9.052
			C409.126,50.219,402.058,53.443,394.99,53.443z M387.241,33.108h14.692c-0.31-3.906-3.224-6.448-7.253-6.448
			C390.837,26.661,387.737,29.017,387.241,33.108z"/>
		<path style="fill:#032044;" d="M435.357,49.042c-2.107,2.604-5.394,4.34-10.043,4.34c-6.076,0-11.903-3.472-11.903-10.043
			c0-6.696,5.394-9.052,13.887-10.416l7.378-1.178v-0.434c0-3.472-1.922-4.836-5.27-4.836c-3.41,0-5.518,1.612-6.076,4.588h-8.803
			c1.054-7.006,7.191-11.283,15.312-11.283c8.68,0,14.136,3.41,14.073,12.461l-0.062,13.639c0,1.054,0.062,2.914,0.248,6.82h-8.618
			L435.357,49.042z M427.732,46.686c3.781,0,6.943-2.232,6.943-6.696v-2.17c-8.493,1.054-12.151,1.984-12.151,5.084
			C422.524,45.384,424.757,46.686,427.732,46.686z"/>
		<path style="fill:#032044;" d="M449.321,8.062h9.423v44.637h-9.423V8.062z"/>
		<path style="fill:#032044;" d="M466.451,43.958V27.467h-5.208v-6.882h5.208v-7.998h9.237v7.998h7.129v6.882h-7.129v14.321
			c0,3.224,0.991,3.844,3.533,3.844h3.596v7.005c-2.17,0.124-3.968,0.124-7.005,0.124C469.923,52.761,466.451,51.025,466.451,43.958
			z"/>
		<path style="fill:#032044;" d="M496.314,52.699h-9.423V8.062h9.423v13.577c0,0.868,0,1.674,0,2.417
			c2.046-2.666,5.456-4.215,9.424-4.215c7.006,0,11.717,4.215,11.717,12.833v20.025h-9.423V34.348c0-4.092-2.108-6.447-5.642-6.447
			c-3.286,0-6.076,2.417-6.076,7.688V52.699z"/>
		<path style="fill:#032044;" d="M522.994,42.594h10.291v9.361c0,6.882-3.72,9.795-10.478,11.098v-5.518
			c2.728-0.62,4.588-1.984,4.588-3.844c0-0.682-0.372-0.992-1.178-0.992h-3.224V42.594z"/>
		<path style="fill:#032044;" d="M2.107,97.814c0-14.197,10.664-22.443,21.823-22.443c10.539,0,18.847,6.262,20.148,15.747H33.974
			c-1.178-4.339-4.897-7.129-10.105-7.129c-6.323,0-11.345,5.332-11.345,13.825s5.083,14.011,11.407,14.011
			c5.083,0,8.68-2.666,10.105-7.129h10.105c-1.55,9.547-9.733,15.747-20.273,15.747C12.399,120.443,2.107,112.074,2.107,97.814z"/>
		<path style="fill:#032044;" d="M46.214,103.456c0-10.229,7.874-16.677,17.421-16.677c9.609,0,17.422,6.385,17.422,16.677
			c0,10.354-7.75,16.987-17.422,16.987C53.901,120.443,46.214,113.872,46.214,103.456z M71.385,103.456
			c0-5.394-3.162-8.989-7.75-8.989c-4.649,0-7.749,3.596-7.749,8.989c0,5.642,3.162,9.299,7.749,9.299
			C68.285,112.755,71.385,109.16,71.385,103.456z"/>
		<path style="fill:#032044;" d="M94.307,119.699h-9.424V87.585h9.114v3.782c1.983-2.914,5.394-4.525,9.547-4.525
			c3.782,0,7.502,1.55,9.672,5.208c2.107-3.41,5.951-5.208,10.478-5.208c6.323,0,11.841,3.472,11.841,12.523v20.335h-9.424V101.1
			c0-4.154-2.294-6.199-5.394-6.199c-3.037,0-5.766,2.355-5.766,7.315v17.483h-9.423V101.1c0-4.154-2.294-6.199-5.395-6.199
			c-3.037,0-5.827,2.293-5.827,7.315V119.699z"/>
		<path style="fill:#032044;" d="M150.484,119.699h-9.423V87.585h9.113v3.782c1.984-2.914,5.394-4.525,9.548-4.525
			c3.781,0,7.501,1.55,9.671,5.208c2.108-3.41,5.952-5.208,10.478-5.208c6.323,0,11.842,3.472,11.842,12.523v20.335h-9.424V101.1
			c0-4.154-2.294-6.199-5.394-6.199c-3.038,0-5.766,2.355-5.766,7.315v17.483h-9.424V101.1c0-4.154-2.294-6.199-5.394-6.199
			c-3.038,0-5.828,2.293-5.828,7.315V119.699z"/>
		<path style="fill:#032044;" d="M217.99,115.917c-2.108,2.976-5.456,4.526-9.424,4.526c-6.819,0-11.718-4.216-11.718-12.709V87.585
			h9.424v18.413c0,4.154,2.17,6.324,5.58,6.324c3.037,0,5.827-2.17,5.827-7.316V87.585h9.424v32.114h-9.113V115.917z"/>
		<path style="fill:#032044;" d="M242.176,119.699h-9.424V87.585h9.114v3.906c2.045-2.976,5.579-4.649,9.733-4.649
			c7.005,0,11.717,4.215,11.717,12.833v20.025h-9.424v-18.351c0-4.092-2.107-6.447-5.642-6.447c-3.285,0-6.075,2.417-6.075,7.688
			V119.699z"/>
		<path style="fill:#032044;" d="M268.736,75.062h9.485v7.812h-9.485V75.062z M268.736,87.585h9.424v32.114h-9.424V87.585z"/>
		<path style="fill:#032044;" d="M285.78,110.958V94.467h-5.208v-6.882h5.208v-7.998h9.237v7.998h7.13v6.882h-7.13v14.321
			c0,3.224,0.992,3.844,3.534,3.844h3.596v7.005c-2.17,0.124-3.968,0.124-7.006,0.124
			C289.252,119.761,285.78,118.025,285.78,110.958z"/>
		<path style="fill:#032044;" d="M319.811,131.479h-9.672l5.766-14.011l-12.771-29.882h9.857l7.626,19.777l7.006-19.777h9.424
			L319.811,131.479z"/>
		<path style="fill:#032044;" d="M379.948,116.662c-3.472,2.355-7.439,3.782-12.585,3.782c-8.928,0-15.313-4.836-15.313-12.647
			c0-5.642,3.224-9.485,8.432-12.151c-2.294-2.604-3.844-5.27-3.844-8.865c0-6.634,5.766-11.346,13.205-11.346
			c7.626,0,13.02,4.34,13.02,11.098c0,4.959-3.162,8.431-8.866,10.911l6.572,7.068c1.363-2.046,2.17-4.402,2.542-7.316h8.679
			c-0.495,5.27-2.293,10.043-5.394,13.639l8.184,8.804v0.062H382.8L379.948,116.662z M368.169,112.941
			c2.355,0,4.588-0.682,6.51-2.046l-9.052-9.795c-2.79,1.488-4.153,3.534-4.153,6.014
			C361.474,110.648,364.573,112.941,368.169,112.941z M368.851,92.483c3.782-1.426,5.518-3.286,5.518-5.704
			c0-2.542-1.983-4.278-4.587-4.278c-2.729,0-4.65,1.86-4.65,4.34C365.131,88.887,366.619,90.499,368.851,92.483z"/>
		<path style="fill:#032044;" d="M412.437,76.302h18.661c10.602,0,16.119,5.828,16.119,14.197c0,8.617-5.766,14.445-16.181,14.445
			h-8.494v14.755h-10.105V76.302z M429.61,96.884c4.897,0,7.439-2.479,7.439-6.261s-2.604-6.262-7.439-6.262h-7.068v12.523H429.61z"
			/>
		<path style="fill:#032044;" d="M447.982,103.456c0-10.229,7.873-16.677,17.421-16.677c9.609,0,17.421,6.385,17.421,16.677
			c0,10.354-7.75,16.987-17.421,16.987C455.67,120.443,447.982,113.872,447.982,103.456z M473.152,103.456
			c0-5.394-3.162-8.989-7.749-8.989c-4.65,0-7.75,3.596-7.75,8.989c0,5.642,3.162,9.299,7.75,9.299
			C470.053,112.755,473.152,109.16,473.152,103.456z"/>
		<path style="fill:#032044;" d="M486.731,75.062h9.423v44.637h-9.423V75.062z"/>
		<path style="fill:#032044;" d="M501.741,75.062h9.485v7.812h-9.485V75.062z M501.741,87.585h9.423v32.114h-9.423V87.585z"/>
		<path style="fill:#032044;" d="M514.836,103.456c0-10.043,7.812-16.677,17.049-16.677c8.369,0,14.94,4.959,15.933,12.647h-9.299
			c-0.744-3.038-3.41-4.959-6.634-4.959c-4.34,0-7.378,3.658-7.378,8.989c0,5.518,3.1,9.299,7.378,9.299
			c3.161,0,5.703-1.798,6.571-5.021h9.361c-1.239,7.936-7.873,12.709-15.995,12.709C522.399,120.443,514.836,113.81,514.836,103.456
			z"/>
		<path style="fill:#032044;" d="M563.25,131.479h-9.671l5.766-14.011l-12.771-29.882h9.857l7.626,19.777l7.005-19.777h9.424
			L563.25,131.479z"/>
	</g>
</g>
<g>
</g>
<g>
</g>
<g>
</g>
<g>
</g>
<g>
</g>
<g>
</g>
<g>
</g>
<g>
</g>
<g>
</g>
<g>
</g>
<g>
</g>
<g>
</g>
<g>
</g>
<g>
</g>
<g>
</g>
</svg>
