<?xml version="1.0" encoding="iso-8859-1"?>
<!-- Generator: Adobe Illustrator 30.2.1, SVG Export Plug-In . SVG Version: 9.03 Build 0)  -->
<svg version="1.1" id="Layer_1" xmlns="http://www.w3.org/2000/svg" xmlns:xlink="http://www.w3.org/1999/xlink" x="0px" y="0px"
	 viewBox="0 0 1130.574 69.316" style="enable-background:new 0 0 1130.574 69.316;" xml:space="preserve">
<g id="UnitName_00000083051636230227074460000000021105607283046073_">
	<g>
		<path style="fill:#032044;" d="M2.108,30.815c0-14.197,10.664-22.443,21.823-22.443c10.54,0,18.847,6.261,20.149,15.747H33.974
			c-1.178-4.34-4.898-7.13-10.105-7.13c-6.324,0-11.345,5.332-11.345,13.825c0,8.494,5.083,14.011,11.407,14.011
			c5.083,0,8.68-2.666,10.105-7.13h10.105c-1.55,9.548-9.733,15.747-20.273,15.747C12.399,53.443,2.108,45.074,2.108,30.815z"/>
		<path style="fill:#032044;" d="M46.214,36.456c0-10.229,7.874-16.677,17.421-16.677c9.609,0,17.421,6.386,17.421,16.677
			c0,10.354-7.75,16.987-17.421,16.987C53.902,53.443,46.214,46.872,46.214,36.456z M71.385,36.456c0-5.394-3.162-8.99-7.75-8.99
			c-4.649,0-7.75,3.596-7.75,8.99c0,5.642,3.162,9.3,7.75,9.3C68.285,45.756,71.385,42.16,71.385,36.456z"/>
		<path style="fill:#032044;" d="M84.964,8.062h9.423v44.637h-9.423V8.062z"/>
		<path style="fill:#032044;" d="M99.986,8.062h9.423v44.637h-9.423V8.062z"/>
		<path style="fill:#032044;" d="M130.353,53.443c-9.299,0-17.111-6.385-17.111-16.987c0-10.291,8.06-16.677,16.925-16.677
			c9.113,0,16.615,6.076,16.615,17.359v1.922h-24.117c0.496,4.65,3.782,7.439,7.998,7.439c2.728,0,5.456-0.93,6.758-3.472h9.051
			C144.488,50.219,137.42,53.443,130.353,53.443z M122.603,33.109h14.693c-0.31-3.906-3.224-6.448-7.253-6.448
			C126.199,26.661,123.099,29.017,122.603,33.109z"/>
		<path style="fill:#032044;" d="M165.896,65.161c-9.299,0-15.003-4.278-16.057-11.097h9.176c0.682,2.79,3.1,4.34,6.943,4.34
			c3.968,0,6.572-1.984,6.572-6.448v-4.65c-1.86,2.852-5.083,4.526-9.423,4.526c-7.75,0-14.197-5.766-14.197-16.119
			c0-10.043,6.696-15.871,14.321-15.871c4.463,0,7.625,1.798,9.485,4.96v-4.216h9.175v30.75
			C181.892,60.883,174.824,65.161,165.896,65.161z M172.592,35.712c0-5.332-3.1-8.493-7.005-8.493c-4.03,0-7.006,3.286-7.006,8.493
			c0,5.518,2.976,8.741,7.006,8.741C169.555,44.454,172.592,41.168,172.592,35.712z"/>
		<path style="fill:#032044;" d="M202.83,53.443c-9.299,0-17.111-6.385-17.111-16.987c0-10.291,8.06-16.677,16.925-16.677
			c9.113,0,16.615,6.076,16.615,17.359v1.922h-24.117c0.496,4.65,3.782,7.439,7.998,7.439c2.728,0,5.456-0.93,6.758-3.472h9.051
			C216.965,50.219,209.897,53.443,202.83,53.443z M195.08,33.109h14.693c-0.31-3.906-3.224-6.448-7.253-6.448
			C198.676,26.661,195.576,29.017,195.08,33.109z"/>
		<path style="fill:#032044;" d="M249.515,27.467v25.233h-9.175V27.467h-5.332v-6.882h5.332v-3.41c0-7.068,4.03-9.176,10.105-9.176
			c2.418,0,3.968,0,6.138,0.062v6.944c-1.302-0.062-2.542-0.062-3.906-0.062c-1.86,0-3.162,0.496-3.162,3.1v2.542h7.068v6.882
			H249.515z"/>
		<path style="fill:#032044;" d="M257.161,36.456c0-10.229,7.874-16.677,17.421-16.677c9.609,0,17.421,6.386,17.421,16.677
			c0,10.354-7.75,16.987-17.421,16.987C264.848,53.443,257.161,46.872,257.161,36.456z M282.331,36.456
			c0-5.394-3.162-8.99-7.75-8.99c-4.649,0-7.75,3.596-7.75,8.99c0,5.642,3.162,9.3,7.75,9.3
			C279.231,45.756,282.331,42.16,282.331,36.456z"/>
		<path style="fill:#032044;" d="M305.253,52.699h-9.423V20.585h9.114v4.774c0.558-0.992,1.302-1.922,2.231-2.728
			c1.86-1.488,3.658-2.294,6.696-2.294c0.806,0,1.736,0.062,2.294,0.186v8.68c-1.488-0.186-2.232-0.186-3.162-0.186
			c-3.534,0-7.75,1.302-7.75,7.377V52.699z"/>
		<path style="fill:#032044;" d="M334.269,9.302h10.105v16.677h18.909V9.302h10.105v43.397h-10.105V34.41h-18.909v18.289h-10.105
			V9.302z"/>
		<path style="fill:#032044;" d="M394.99,53.443c-9.299,0-17.11-6.385-17.11-16.987c0-10.291,8.06-16.677,16.925-16.677
			c9.113,0,16.615,6.076,16.615,17.359v1.922h-24.117c0.496,4.65,3.782,7.439,7.998,7.439c2.728,0,5.455-0.93,6.757-3.472h9.052
			C409.126,50.219,402.058,53.443,394.99,53.443z M387.241,33.109h14.692c-0.31-3.906-3.224-6.448-7.253-6.448
			C390.837,26.661,387.737,29.017,387.241,33.109z"/>
		<path style="fill:#032044;" d="M435.357,49.042c-2.107,2.604-5.394,4.34-10.043,4.34c-6.076,0-11.903-3.472-11.903-10.043
			c0-6.696,5.394-9.051,13.887-10.415l7.378-1.178v-0.434c0-3.472-1.922-4.836-5.27-4.836c-3.41,0-5.518,1.612-6.076,4.588h-8.803
			c1.054-7.006,7.191-11.283,15.312-11.283c8.68,0,14.136,3.41,14.073,12.461l-0.062,13.639c0,1.054,0.062,2.914,0.248,6.82h-8.618
			L435.357,49.042z M427.732,46.686c3.781,0,6.943-2.232,6.943-6.696v-2.17c-8.493,1.054-12.151,1.984-12.151,5.084
			C422.524,45.384,424.757,46.686,427.732,46.686z"/>
		<path style="fill:#032044;" d="M449.321,8.062h9.423v44.637h-9.423V8.062z"/>
		<path style="fill:#032044;" d="M466.451,43.958V27.467h-5.208v-6.882h5.208v-7.998h9.237v7.998h7.129v6.882h-7.129v14.321
			c0,3.224,0.991,3.844,3.533,3.844h3.596v7.006c-2.17,0.124-3.968,0.124-7.005,0.124C469.923,52.761,466.451,51.026,466.451,43.958
			z"/>
		<path style="fill:#032044;" d="M496.314,52.699h-9.423V8.062h9.423v13.577c0,0.868,0,1.674,0,2.418
			c2.046-2.666,5.456-4.216,9.424-4.216c7.006,0,11.717,4.216,11.717,12.833v20.025h-9.423V34.348c0-4.092-2.108-6.448-5.642-6.448
			c-3.286,0-6.076,2.418-6.076,7.688V52.699z"/>
		<path style="fill:#032044;" d="M522.994,42.594h10.291v9.362c0,6.882-3.72,9.795-10.478,11.097v-5.518
			c2.728-0.62,4.588-1.984,4.588-3.844c0-0.682-0.372-0.992-1.178-0.992h-3.224V42.594z"/>
		<path style="fill:#032044;" d="M552.194,30.815c0-14.197,10.664-22.443,21.823-22.443c10.539,0,18.847,6.261,20.148,15.747
			h-10.105c-1.178-4.34-4.897-7.13-10.105-7.13c-6.323,0-11.345,5.332-11.345,13.825c0,8.494,5.084,14.011,11.407,14.011
			c5.084,0,8.68-2.666,10.105-7.13h10.105c-1.55,9.548-9.733,15.747-20.273,15.747C562.486,53.443,552.194,45.074,552.194,30.815z"
			/>
		<path style="fill:#032044;" d="M596.302,36.456c0-10.229,7.873-16.677,17.421-16.677c9.609,0,17.421,6.386,17.421,16.677
			c0,10.354-7.75,16.987-17.421,16.987C603.989,53.443,596.302,46.872,596.302,36.456z M621.472,36.456
			c0-5.394-3.162-8.99-7.749-8.99c-4.65,0-7.75,3.596-7.75,8.99c0,5.642,3.162,9.3,7.75,9.3
			C618.372,45.756,621.472,42.16,621.472,36.456z"/>
		<path style="fill:#032044;" d="M644.394,52.699h-9.423V20.585h9.113v3.782c1.983-2.914,5.394-4.526,9.547-4.526
			c3.782,0,7.502,1.55,9.672,5.208c2.107-3.41,5.951-5.208,10.478-5.208c6.323,0,11.841,3.472,11.841,12.523v20.335h-9.423V34.101
			c0-4.154-2.294-6.2-5.394-6.2c-3.038,0-5.767,2.356-5.767,7.316v17.483h-9.423V34.101c0-4.154-2.294-6.2-5.394-6.2
			c-3.038,0-5.828,2.294-5.828,7.316V52.699z"/>
		<path style="fill:#032044;" d="M700.571,52.699h-9.423V20.585h9.113v3.782c1.983-2.914,5.394-4.526,9.547-4.526
			c3.782,0,7.502,1.55,9.672,5.208c2.107-3.41,5.951-5.208,10.478-5.208c6.323,0,11.841,3.472,11.841,12.523v20.335h-9.423V34.101
			c0-4.154-2.294-6.2-5.394-6.2c-3.038,0-5.767,2.356-5.767,7.316v17.483h-9.423V34.101c0-4.154-2.294-6.2-5.394-6.2
			c-3.038,0-5.828,2.294-5.828,7.316V52.699z"/>
		<path style="fill:#032044;" d="M768.077,48.918c-2.108,2.976-5.456,4.526-9.424,4.526c-6.819,0-11.717-4.216-11.717-12.709V20.585
			h9.423v18.413c0,4.154,2.17,6.323,5.58,6.323c3.038,0,5.827-2.17,5.827-7.315V20.585h9.424v32.114h-9.113V48.918z"/>
		<path style="fill:#032044;" d="M792.263,52.699h-9.423V20.585h9.113v3.906c2.046-2.976,5.579-4.65,9.733-4.65
			c7.006,0,11.717,4.216,11.717,12.833v20.025h-9.423V34.348c0-4.092-2.108-6.448-5.642-6.448c-3.286,0-6.076,2.418-6.076,7.688
			V52.699z"/>
		<path style="fill:#032044;" d="M818.824,8.062h9.485v7.812h-9.485V8.062z M818.824,20.585h9.423v32.114h-9.423V20.585z"/>
		<path style="fill:#032044;" d="M835.867,43.958V27.467h-5.208v-6.882h5.208v-7.998h9.237v7.998h7.129v6.882h-7.129v14.321
			c0,3.224,0.991,3.844,3.533,3.844h3.596v7.006c-2.17,0.124-3.968,0.124-7.005,0.124C839.339,52.761,835.867,51.026,835.867,43.958
			z"/>
		<path style="fill:#032044;" d="M869.897,64.479h-9.671l5.766-14.011l-12.771-29.882h9.857l7.626,19.777l7.005-19.777h9.424
			L869.897,64.479z"/>
		<path style="fill:#032044;" d="M930.036,49.662c-3.472,2.356-7.439,3.782-12.585,3.782c-8.928,0-15.313-4.836-15.313-12.647
			c0-5.642,3.224-9.485,8.432-12.151c-2.294-2.604-3.844-5.27-3.844-8.865c0-6.634,5.766-11.345,13.206-11.345
			c7.626,0,13.02,4.34,13.02,11.097c0,4.96-3.162,8.432-8.866,10.911l6.572,7.068c1.363-2.046,2.17-4.402,2.542-7.315h8.679
			c-0.495,5.27-2.293,10.043-5.394,13.639l8.184,8.803v0.062h-11.779L930.036,49.662z M918.256,45.942
			c2.356,0,4.588-0.682,6.51-2.046l-9.052-9.795c-2.79,1.488-4.153,3.534-4.153,6.014C911.561,43.648,914.66,45.942,918.256,45.942z
			 M918.938,25.483c3.783-1.426,5.518-3.286,5.518-5.704c0-2.542-1.983-4.278-4.587-4.278c-2.729,0-4.651,1.86-4.651,4.34
			C915.218,21.887,916.706,23.499,918.938,25.483z"/>
		<path style="fill:#032044;" d="M962.524,9.302h18.661c10.602,0,16.119,5.828,16.119,14.197c0,8.618-5.766,14.445-16.181,14.445
			h-8.494v14.755h-10.105V9.302z M979.698,29.885c4.897,0,7.439-2.48,7.439-6.262c0-3.782-2.604-6.261-7.439-6.261h-7.068v12.523
			H979.698z"/>
		<path style="fill:#032044;" d="M998.07,36.456c0-10.229,7.873-16.677,17.421-16.677c9.609,0,17.421,6.386,17.421,16.677
			c0,10.354-7.75,16.987-17.421,16.987C1005.757,53.443,998.07,46.872,998.07,36.456z M1023.24,36.456
			c0-5.394-3.162-8.99-7.749-8.99c-4.65,0-7.75,3.596-7.75,8.99c0,5.642,3.162,9.3,7.75,9.3
			C1020.14,45.756,1023.24,42.16,1023.24,36.456z"/>
		<path style="fill:#032044;" d="M1036.819,8.062h9.423v44.637h-9.423V8.062z"/>
		<path style="fill:#032044;" d="M1051.829,8.062h9.485v7.812h-9.485V8.062z M1051.829,20.585h9.423v32.114h-9.423V20.585z"/>
		<path style="fill:#032044;" d="M1064.922,36.456c0-10.043,7.812-16.677,17.049-16.677c8.369,0,14.94,4.96,15.933,12.647h-9.299
			c-0.744-3.038-3.41-4.96-6.634-4.96c-4.34,0-7.378,3.658-7.378,8.99c0,5.518,3.1,9.3,7.378,9.3c3.161,0,5.703-1.798,6.571-5.022
			h9.361c-1.239,7.936-7.873,12.709-15.995,12.709C1072.486,53.443,1064.922,46.81,1064.922,36.456z"/>
		<path style="fill:#032044;" d="M1113.336,64.479h-9.671l5.766-14.011l-12.771-29.882h9.857l7.626,19.777l7.005-19.777h9.424
			L1113.336,64.479z"/>
	</g>
</g>
<g>
</g>
<g>
</g>
<g>
</g>
<g>
</g>
<g>
</g>
<g>
</g>
<g>
</g>
<g>
</g>
<g>
</g>
<g>
</g>
<g>
</g>
<g>
</g>
<g>
</g>
<g>
</g>
<g>
</g>
</svg>
