<?xml version="1.0" encoding="UTF-8"?><svg id="UnitNameTyped" xmlns="http://www.w3.org/2000/svg" width="647.63" height="192.6" viewBox="0 0 647.63 192.6"><defs><style>.cls-1{fill:#032044;}</style></defs><path class="cls-1" d="M12.48,10.06v35.4H2.93V2.06h15.87l9.61,31.8L38.02,2.06h15.5v43.4h-9.61V10.25l-10.97,35.21h-9.49L12.48,10.06Z"/><path class="cls-1" d="M80.17,41.8c-2.11,2.6-5.39,4.34-10.04,4.34-6.08,0-11.9-3.47-11.9-10.04s5.39-9.05,13.89-10.42l7.38-1.18v-.43c0-3.47-1.92-4.84-5.27-4.84s-5.52,1.61-6.08,4.59h-8.8c1.05-7.01,7.19-11.28,15.31-11.28,8.68,0,14.14,3.41,14.07,12.46l-.06,13.64c0,1.05.06,2.91.25,6.82h-8.62l-.12-3.66ZM72.55,39.45c3.78,0,6.94-2.23,6.94-6.7v-2.17c-8.49,1.05-12.15,1.98-12.15,5.08,0,2.48,2.23,3.78,5.21,3.78Z"/><path class="cls-1" d="M103.54,45.46h-9.42V13.35h9.11v4.77c.56-.99,1.3-1.92,2.23-2.73,1.86-1.49,3.66-2.29,6.7-2.29.81,0,1.74.06,2.29.19v8.68c-1.49-.19-2.23-.19-3.16-.19-3.53,0-7.75,1.3-7.75,7.38v16.31Z"/><path class="cls-1" d="M132.52,57.92c-9.3,0-15-4.28-16.06-11.1h9.18c.68,2.79,3.1,4.34,6.94,4.34s6.57-1.98,6.57-6.45v-4.65c-1.86,2.85-5.08,4.53-9.42,4.53-7.75,0-14.2-5.77-14.2-16.12s6.7-15.87,14.32-15.87c4.46,0,7.63,1.8,9.49,4.96v-4.22h9.18v30.75c0,9.55-7.07,13.83-16,13.83ZM139.22,28.47c0-5.33-3.1-8.49-7.01-8.49s-7.01,3.29-7.01,8.49c0,5.52,2.98,8.74,7.01,8.74s7.01-3.29,7.01-8.74Z"/><path class="cls-1" d="M154.2.82h9.49v7.81h-9.49V.82ZM154.2,13.35h9.42v32.11h-9.42V13.35Z"/><path class="cls-1" d="M184.4,46.21c-9.3,0-17.11-6.39-17.11-16.99s8.06-16.68,16.93-16.68,16.61,6.08,16.61,17.36v1.92h-24.12c.5,4.65,3.78,7.44,8,7.44,2.73,0,5.46-.93,6.76-3.47h9.05c-1.98,7.19-9.05,10.42-16.12,10.42ZM176.66,25.87h14.69c-.31-3.91-3.22-6.45-7.25-6.45s-6.94,2.36-7.44,6.45Z"/><path class="cls-1" d="M239.96,41.8c-2.11,2.6-5.39,4.34-10.04,4.34-6.08,0-11.9-3.47-11.9-10.04s5.39-9.05,13.89-10.42l7.38-1.18v-.43c0-3.47-1.92-4.84-5.27-4.84s-5.52,1.61-6.08,4.59h-8.8c1.05-7.01,7.19-11.28,15.31-11.28,8.68,0,14.13,3.41,14.07,12.46l-.06,13.64c0,1.05.06,2.91.25,6.82h-8.62l-.12-3.66ZM232.33,39.45c3.78,0,6.94-2.23,6.94-6.7v-2.17c-8.49,1.05-12.15,1.98-12.15,5.08,0,2.48,2.23,3.78,5.21,3.78Z"/><path class="cls-1" d="M263.32,45.46h-9.42V13.35h9.11v3.91c2.05-2.98,5.58-4.65,9.73-4.65,7.01,0,11.72,4.22,11.72,12.83v20.02h-9.42v-18.35c0-4.09-2.11-6.45-5.64-6.45-3.29,0-6.08,2.42-6.08,7.69v17.11Z"/><path class="cls-1" d="M312.69,40.94c-1.92,3.35-5.21,5.21-9.67,5.21-8,0-14.88-5.83-14.88-16.99s7.13-16.55,15-16.55c4.15,0,7.32,1.55,9.24,4.34V.82h9.42v44.64h-9.11v-4.53ZM312.57,29.16c0-5.7-3.16-8.99-7.38-8.99s-7.38,3.29-7.38,8.99,3.1,9.42,7.38,9.42,7.38-3.41,7.38-9.42Z"/><path class="cls-1" d="M342.95,2.06h19.78c10.11,0,14.88,4.77,14.88,11.53,0,4.84-2.73,8.06-6.32,9.18v.12c4.22,1.3,7.25,4.96,7.25,10.35,0,7.56-5.77,12.21-16.3,12.21h-19.28V2.06ZM352.75,9.5v10.11h8.68c4.09,0,6.26-1.8,6.26-5.02s-2.23-5.08-6.26-5.08h-8.68ZM352.75,26.8v11.22h8.49c4.71,0,7.25-2.05,7.25-5.58s-2.54-5.64-7.19-5.64h-8.56Z"/><path class="cls-1" d="M383.29.82h9.49v7.81h-9.49V.82ZM383.29,13.35h9.42v32.11h-9.42V13.35Z"/><path class="cls-1" d="M398.33.82h9.42v44.64h-9.42V.82Z"/><path class="cls-1" d="M413.35.82h9.42v44.64h-9.42V.82Z"/><path class="cls-1" d="M460.96,26.18l-7.07,7.63v11.66h-9.92V2.06h9.92v19.03l17.11-19.03h12.34l-15.44,16.68,15.81,26.72h-11.59l-11.16-19.28Z"/><path class="cls-1" d="M486.07.82h9.42v44.64h-9.42V.82Z"/><path class="cls-1" d="M516.43,46.21c-9.3,0-17.11-6.39-17.11-16.99s8.06-16.68,16.92-16.68,16.62,6.08,16.62,17.36v1.92h-24.12c.5,4.65,3.78,7.44,8,7.44,2.73,0,5.46-.93,6.76-3.47h9.05c-1.98,7.19-9.05,10.42-16.12,10.42ZM508.69,25.87h14.69c-.31-3.91-3.22-6.45-7.25-6.45s-6.94,2.36-7.44,6.45Z"/><path class="cls-1" d="M534.85,35.29h8.74c.5,2.98,3.04,4.4,6.51,4.4,2.73,0,5.15-.99,5.15-3.22,0-1.98-1.8-2.85-5.83-3.53l-3.35-.62c-6.57-1.18-10.66-4.09-10.66-9.24,0-6.57,6.08-10.6,13.83-10.6s13.45,3.72,14.32,10.29h-8.62c-.62-2.42-2.73-3.78-5.89-3.78-2.73,0-4.77,1.24-4.77,3.16,0,1.8,1.61,2.48,5.08,3.1l3.29.56c7.32,1.3,11.66,4.15,11.66,9.73,0,7.07-6.7,10.66-14.38,10.66s-14.14-3.41-15.07-10.91Z"/><path class="cls-1" d="M566.34,35.29h8.74c.5,2.98,3.04,4.4,6.51,4.4,2.73,0,5.15-.99,5.15-3.22,0-1.98-1.8-2.85-5.83-3.53l-3.35-.62c-6.57-1.18-10.66-4.09-10.66-9.24,0-6.57,6.08-10.6,13.83-10.6s13.45,3.72,14.32,10.29h-8.62c-.62-2.42-2.73-3.78-5.89-3.78-2.73,0-4.77,1.24-4.77,3.16,0,1.8,1.61,2.48,5.08,3.1l3.29.56c7.32,1.3,11.66,4.15,11.66,9.73,0,7.07-6.7,10.66-14.38,10.66s-14.14-3.41-15.07-10.91Z"/><path class="cls-1" d="M614.66,46.21c-9.3,0-17.11-6.39-17.11-16.99s8.06-16.68,16.92-16.68,16.62,6.08,16.62,17.36v1.92h-24.12c.5,4.65,3.78,7.44,8,7.44,2.73,0,5.46-.93,6.76-3.47h9.05c-1.98,7.19-9.05,10.42-16.12,10.42ZM606.91,25.87h14.69c-.31-3.91-3.22-6.45-7.25-6.45s-6.94,2.36-7.44,6.45Z"/><path class="cls-1" d="M.76,90.58c0-14.2,10.66-22.44,21.82-22.44,10.54,0,18.85,6.26,20.15,15.75h-10.11c-1.18-4.34-4.9-7.13-10.11-7.13-6.32,0-11.35,5.33-11.35,13.83s5.08,14.01,11.41,14.01c5.08,0,8.68-2.67,10.11-7.13h10.11c-1.55,9.55-9.73,15.75-20.27,15.75-11.47,0-21.76-8.37-21.76-22.63Z"/><path class="cls-1" d="M44.87,96.22c0-10.23,7.87-16.68,17.42-16.68s17.42,6.39,17.42,16.68-7.75,16.99-17.42,16.99-17.42-6.57-17.42-16.99ZM70.04,96.22c0-5.39-3.16-8.99-7.75-8.99s-7.75,3.6-7.75,8.99,3.16,9.3,7.75,9.3,7.75-3.6,7.75-9.3Z"/><path class="cls-1" d="M83.62,67.82h9.42v44.64h-9.42v-44.64Z"/><path class="cls-1" d="M98.64,67.82h9.42v44.64h-9.42v-44.64Z"/><path class="cls-1" d="M129.01,113.21c-9.3,0-17.11-6.39-17.11-16.99s8.06-16.68,16.93-16.68,16.61,6.08,16.61,17.36v1.92h-24.12c.5,4.65,3.78,7.44,8,7.44,2.73,0,5.46-.93,6.76-3.47h9.05c-1.98,7.19-9.05,10.42-16.12,10.42ZM121.26,92.87h14.69c-.31-3.91-3.22-6.45-7.25-6.45s-6.94,2.36-7.44,6.45Z"/><path class="cls-1" d="M164.55,124.92c-9.3,0-15-4.28-16.06-11.1h9.18c.68,2.79,3.1,4.34,6.94,4.34s6.57-1.98,6.57-6.45v-4.65c-1.86,2.85-5.08,4.53-9.42,4.53-7.75,0-14.2-5.77-14.2-16.12s6.7-15.87,14.32-15.87c4.46,0,7.63,1.8,9.49,4.96v-4.22h9.18v30.75c0,9.55-7.07,13.83-16,13.83ZM171.25,95.47c0-5.33-3.1-8.49-7.01-8.49s-7.01,3.29-7.01,8.49c0,5.52,2.98,8.74,7.01,8.74s7.01-3.29,7.01-8.74Z"/><path class="cls-1" d="M201.49,113.21c-9.3,0-17.11-6.39-17.11-16.99s8.06-16.68,16.93-16.68,16.61,6.08,16.61,17.36v1.92h-24.12c.5,4.65,3.78,7.44,8,7.44,2.73,0,5.46-.93,6.76-3.47h9.05c-1.98,7.19-9.05,10.42-16.12,10.42ZM193.74,92.87h14.69c-.31-3.91-3.22-6.45-7.25-6.45s-6.94,2.36-7.44,6.45Z"/><path class="cls-1" d="M234.78,96.22c0-10.23,7.87-16.68,17.42-16.68s17.42,6.39,17.42,16.68-7.75,16.99-17.42,16.99-17.42-6.57-17.42-16.99ZM259.95,96.22c0-5.39-3.16-8.99-7.75-8.99s-7.75,3.6-7.75,8.99,3.16,9.3,7.75,9.3,7.75-3.6,7.75-9.3Z"/><path class="cls-1" d="M284.63,87.23v25.23h-9.18v-25.23h-5.33v-6.88h5.33v-3.41c0-7.07,4.03-9.18,10.11-9.18,2.42,0,3.97,0,6.14.06v6.94c-1.3-.06-2.54-.06-3.91-.06-1.86,0-3.16.5-3.16,3.1v2.54h7.07v6.88h-7.07Z"/><path class="cls-1" d="M342.17,112.46h-32.05v-43.4h31.68v8.06h-21.82v9.11h20.09v7.87h-20.09v10.29h22.19v8.06Z"/><path class="cls-1" d="M356.49,112.46h-9.42v-32.11h9.11v3.91c2.05-2.98,5.58-4.65,9.73-4.65,7.01,0,11.72,4.22,11.72,12.83v20.02h-9.42v-18.35c0-4.09-2.11-6.45-5.64-6.45-3.29,0-6.08,2.42-6.08,7.69v17.11Z"/><path class="cls-1" d="M398.24,124.92c-9.3,0-15-4.28-16.06-11.1h9.17c.68,2.79,3.1,4.34,6.94,4.34s6.57-1.98,6.57-6.45v-4.65c-1.86,2.85-5.08,4.53-9.42,4.53-7.75,0-14.2-5.77-14.2-16.12s6.7-15.87,14.32-15.87c4.46,0,7.63,1.8,9.49,4.96v-4.22h9.18v30.75c0,9.55-7.07,13.83-16,13.83ZM404.94,95.47c0-5.33-3.1-8.49-7.01-8.49s-7.01,3.29-7.01,8.49c0,5.52,2.98,8.74,7.01,8.74s7.01-3.29,7.01-8.74Z"/><path class="cls-1" d="M419.92,67.82h9.49v7.81h-9.49v-7.81ZM419.92,80.35h9.42v32.11h-9.42v-32.11Z"/><path class="cls-1" d="M444.38,112.46h-9.42v-32.11h9.11v3.91c2.05-2.98,5.58-4.65,9.73-4.65,7.01,0,11.72,4.22,11.72,12.83v20.02h-9.42v-18.35c0-4.09-2.11-6.45-5.64-6.45-3.29,0-6.08,2.42-6.08,7.69v17.11Z"/><path class="cls-1" d="M486.13,113.21c-9.3,0-17.11-6.39-17.11-16.99s8.06-16.68,16.92-16.68,16.62,6.08,16.62,17.36v1.92h-24.12c.5,4.65,3.78,7.44,8,7.44,2.73,0,5.46-.93,6.76-3.47h9.05c-1.98,7.19-9.05,10.42-16.12,10.42ZM478.38,92.87h14.69c-.31-3.91-3.22-6.45-7.25-6.45s-6.94,2.36-7.44,6.45Z"/><path class="cls-1" d="M521.69,113.21c-9.3,0-17.11-6.39-17.11-16.99s8.06-16.68,16.92-16.68,16.62,6.08,16.62,17.36v1.92h-24.12c.5,4.65,3.78,7.44,8,7.44,2.73,0,5.46-.93,6.76-3.47h9.05c-1.98,7.19-9.05,10.42-16.12,10.42ZM513.94,92.87h14.69c-.31-3.91-3.22-6.45-7.25-6.45s-6.94,2.36-7.44,6.45Z"/><path class="cls-1" d="M551.51,112.46h-9.42v-32.11h9.11v4.77c.56-.99,1.3-1.92,2.23-2.73,1.86-1.49,3.66-2.29,6.7-2.29.81,0,1.74.06,2.29.19v8.68c-1.49-.19-2.23-.19-3.16-.19-3.53,0-7.75,1.3-7.75,7.38v16.31Z"/><path class="cls-1" d="M564.71,67.82h9.49v7.81h-9.49v-7.81ZM564.71,80.35h9.42v32.11h-9.42v-32.11Z"/><path class="cls-1" d="M589.17,112.46h-9.42v-32.11h9.11v3.91c2.05-2.98,5.58-4.65,9.73-4.65,7.01,0,11.72,4.22,11.72,12.83v20.02h-9.42v-18.35c0-4.09-2.11-6.45-5.64-6.45-3.29,0-6.08,2.42-6.08,7.69v17.11Z"/><path class="cls-1" d="M630.92,124.92c-9.3,0-15-4.28-16.06-11.1h9.17c.68,2.79,3.1,4.34,6.94,4.34s6.57-1.98,6.57-6.45v-4.65c-1.86,2.85-5.08,4.53-9.42,4.53-7.75,0-14.2-5.77-14.2-16.12s6.7-15.87,14.32-15.87c4.46,0,7.63,1.8,9.49,4.96v-4.22h9.18v30.75c0,9.55-7.07,13.83-16,13.83ZM637.61,95.47c0-5.33-3.1-8.49-7.01-8.49s-7.01,3.29-7.01,8.49c0,5.52,2.98,8.74,7.01,8.74s7.01-3.29,7.01-8.74Z"/><path class="cls-1" d="M28.6,176.42c-3.47,2.36-7.44,3.78-12.59,3.78-8.93,0-15.31-4.84-15.31-12.65,0-5.64,3.22-9.49,8.43-12.15-2.29-2.6-3.84-5.27-3.84-8.87,0-6.63,5.77-11.35,13.21-11.35s13.02,4.34,13.02,11.1c0,4.96-3.16,8.43-8.87,10.91l6.57,7.07c1.36-2.05,2.17-4.4,2.54-7.32h8.68c-.5,5.27-2.29,10.04-5.39,13.64l8.18,8.8v.06h-11.78l-2.85-3.04ZM16.82,172.7c2.36,0,4.59-.68,6.51-2.05l-9.05-9.8c-2.79,1.49-4.15,3.53-4.15,6.01,0,3.53,3.1,5.83,6.7,5.83ZM17.5,152.25c3.78-1.43,5.52-3.29,5.52-5.7,0-2.54-1.98-4.28-4.59-4.28s-4.65,1.86-4.65,4.34c0,2.05,1.49,3.66,3.72,5.64Z"/><path class="cls-1" d="M61.09,136.06h10.11v43.4h-10.11v-43.4Z"/><path class="cls-1" d="M86.86,179.46h-9.42v-32.11h9.11v3.91c2.05-2.98,5.58-4.65,9.73-4.65,7.01,0,11.72,4.22,11.72,12.83v20.02h-9.42v-18.35c0-4.09-2.11-6.45-5.64-6.45-3.29,0-6.08,2.42-6.08,7.69v17.11Z"/><path class="cls-1" d="M115.11,170.72v-16.49h-5.21v-6.88h5.21v-8h9.24v8h7.13v6.88h-7.13v14.32c0,3.22.99,3.84,3.53,3.84h3.6v7.01c-2.17.12-3.97.12-7.01.12-5.89,0-9.36-1.74-9.36-8.8Z"/><path class="cls-1" d="M149.8,180.21c-9.3,0-17.11-6.39-17.11-16.99s8.06-16.68,16.93-16.68,16.61,6.08,16.61,17.36v1.92h-24.12c.5,4.65,3.78,7.44,8,7.44,2.73,0,5.46-.93,6.76-3.47h9.05c-1.98,7.19-9.05,10.42-16.12,10.42ZM142.05,159.87h14.69c-.31-3.91-3.22-6.45-7.25-6.45s-6.94,2.36-7.44,6.45Z"/><path class="cls-1" d="M185.35,191.92c-9.3,0-15-4.28-16.06-11.1h9.18c.68,2.79,3.1,4.34,6.94,4.34s6.57-1.98,6.57-6.45v-4.65c-1.86,2.85-5.08,4.53-9.42,4.53-7.75,0-14.2-5.77-14.2-16.12s6.7-15.87,14.32-15.87c4.46,0,7.63,1.8,9.49,4.96v-4.22h9.18v30.75c0,9.55-7.07,13.83-16,13.83ZM192.04,162.47c0-5.33-3.1-8.49-7.01-8.49s-7.01,3.29-7.01,8.49c0,5.52,2.98,8.74,7.01,8.74s7.01-3.29,7.01-8.74Z"/><path class="cls-1" d="M216.45,179.46h-9.42v-32.11h9.11v4.77c.56-.99,1.3-1.92,2.23-2.73,1.86-1.49,3.66-2.29,6.7-2.29.81,0,1.74.06,2.29.19v8.68c-1.49-.19-2.23-.19-3.16-.19-3.53,0-7.75,1.3-7.75,7.38v16.31Z"/><path class="cls-1" d="M250.15,175.8c-2.11,2.6-5.39,4.34-10.04,4.34-6.08,0-11.9-3.47-11.9-10.04s5.39-9.05,13.89-10.42l7.38-1.18v-.43c0-3.47-1.92-4.84-5.27-4.84s-5.52,1.61-6.08,4.59h-8.8c1.05-7.01,7.19-11.28,15.31-11.28,8.68,0,14.14,3.41,14.07,12.46l-.06,13.64c0,1.05.06,2.91.25,6.82h-8.62l-.12-3.66ZM242.52,173.45c3.78,0,6.94-2.23,6.94-6.7v-2.17c-8.49,1.05-12.15,1.98-12.15,5.08,0,2.48,2.23,3.78,5.21,3.78Z"/><path class="cls-1" d="M265.86,170.72v-16.49h-5.21v-6.88h5.21v-8h9.24v8h7.13v6.88h-7.13v14.32c0,3.22.99,3.84,3.53,3.84h3.6v7.01c-2.17.12-3.97.12-7.01.12-5.89,0-9.36-1.74-9.36-8.8Z"/><path class="cls-1" d="M300.56,180.21c-9.3,0-17.11-6.39-17.11-16.99s8.06-16.68,16.93-16.68,16.61,6.08,16.61,17.36v1.92h-24.12c.5,4.65,3.78,7.44,8,7.44,2.73,0,5.46-.93,6.76-3.47h9.05c-1.98,7.19-9.05,10.42-16.12,10.42ZM292.81,159.87h14.69c-.31-3.91-3.22-6.45-7.25-6.45s-6.94,2.36-7.44,6.45Z"/><path class="cls-1" d="M343.76,174.94c-1.92,3.35-5.21,5.21-9.67,5.21-8,0-14.88-5.83-14.88-16.99s7.13-16.55,15-16.55c4.15,0,7.32,1.55,9.24,4.34v-16.12h9.42v44.64h-9.11v-4.53ZM343.64,163.16c0-5.7-3.16-8.99-7.38-8.99s-7.38,3.29-7.38,8.99,3.1,9.42,7.38,9.42,7.38-3.41,7.38-9.42Z"/><path class="cls-1" d="M374.02,136.06h16.18c13.83,0,22.88,7.07,22.88,21.45s-9.11,21.95-22.94,21.95h-16.12v-43.4ZM389.15,171.15c8.93,0,13.58-5.08,13.58-13.58s-4.65-13.21-13.58-13.21h-5.02v26.78h5.02Z"/><path class="cls-1" d="M432.53,180.21c-9.3,0-17.11-6.39-17.11-16.99s8.06-16.68,16.92-16.68,16.62,6.08,16.62,17.36v1.92h-24.12c.5,4.65,3.78,7.44,8,7.44,2.73,0,5.46-.93,6.76-3.47h9.05c-1.98,7.19-9.05,10.42-16.12,10.42ZM424.78,159.87h14.69c-.31-3.91-3.22-6.45-7.25-6.45s-6.94,2.36-7.44,6.45Z"/><path class="cls-1" d="M450.94,169.29h8.74c.5,2.98,3.04,4.4,6.51,4.4,2.73,0,5.15-.99,5.15-3.22,0-1.98-1.8-2.85-5.83-3.53l-3.35-.62c-6.57-1.18-10.66-4.09-10.66-9.24,0-6.57,6.08-10.6,13.83-10.6s13.45,3.72,14.32,10.29h-8.62c-.62-2.42-2.73-3.78-5.89-3.78-2.73,0-4.77,1.24-4.77,3.16,0,1.8,1.61,2.48,5.08,3.1l3.29.56c7.32,1.3,11.66,4.15,11.66,9.73,0,7.07-6.7,10.66-14.38,10.66s-14.14-3.41-15.07-10.91Z"/><path class="cls-1" d="M484.27,134.82h9.49v7.81h-9.49v-7.81ZM484.27,147.35h9.42v32.11h-9.42v-32.11Z"/><path class="cls-1" d="M514.58,191.92c-9.3,0-15-4.28-16.06-11.1h9.17c.68,2.79,3.1,4.34,6.94,4.34s6.57-1.98,6.57-6.45v-4.65c-1.86,2.85-5.08,4.53-9.42,4.53-7.75,0-14.2-5.77-14.2-16.12s6.7-15.87,14.32-15.87c4.46,0,7.63,1.8,9.49,4.96v-4.22h9.18v30.75c0,9.55-7.07,13.83-16,13.83ZM521.27,162.47c0-5.33-3.1-8.49-7-8.49s-7.01,3.29-7.01,8.49c0,5.52,2.98,8.74,7.01,8.74s7-3.29,7-8.74Z"/><path class="cls-1" d="M545.68,179.46h-9.42v-32.11h9.11v3.91c2.05-2.98,5.58-4.65,9.73-4.65,7.01,0,11.72,4.22,11.72,12.83v20.02h-9.42v-18.35c0-4.09-2.11-6.45-5.64-6.45-3.29,0-6.08,2.42-6.08,7.69v17.11Z"/></svg>