<?xml version="1.0" encoding="iso-8859-1"?>
<!-- Generator: Adobe Illustrator 30.2.1, SVG Export Plug-In . SVG Version: 9.03 Build 0)  -->
<svg version="1.1" id="Layer_1" xmlns="http://www.w3.org/2000/svg" xmlns:xlink="http://www.w3.org/1999/xlink" x="0px" y="0px"
	 viewBox="0 0 1435.400391 57.160645" style="enable-background:new 0 0 1435.400391 57.160645;" xml:space="preserve">
<g>
	<g>
		<path style="fill:#032044;" d="M16.986816,25.418457l-7.067383,7.625732v11.655273H0V1.302002h9.919434v19.032959
			l17.11084-19.032959h12.337402L23.930664,17.979004l15.809082,26.720459H28.146484L16.986816,25.418457z"/>
		<path style="fill:#032044;" d="M42.09082,0.062012h9.42334v44.637451h-9.42334V0.062012z"/>
		<path style="fill:#032044;" d="M72.457031,45.443359c-9.299316,0-17.11084-6.385498-17.11084-16.987061
			c0-10.29126,8.05957-16.677002,16.925293-16.677002c9.113281,0,16.614746,6.075684,16.614746,17.359131v1.921875H64.769531
			c0.496094,4.649658,3.781738,7.439453,7.997559,7.439453c2.728027,0,5.456055-0.929932,6.757812-3.47168h9.05127
			C86.592285,42.219482,79.524902,45.443359,72.457031,45.443359z M64.70752,25.108643h14.693359
			c-0.310059-3.905762-3.223633-6.447754-7.253418-6.447754C68.303711,18.660889,65.203613,21.016846,64.70752,25.108643z"/>
		<path style="fill:#032044;" d="M90.871582,34.531982h8.741699c0.495605,2.97583,3.037598,4.401855,6.509277,4.401855
			c2.728027,0,5.145996-0.991943,5.145996-3.223877c0-1.983887-1.797852-2.851807-5.827637-3.533691l-3.348145-0.620117
			c-6.571289-1.177979-10.663086-4.091797-10.663086-9.237305c0-6.571777,6.075684-10.601562,13.825195-10.601562
			c7.377441,0,13.453125,3.719971,14.321289,10.291504h-8.617676c-0.620117-2.417969-2.728027-3.781738-5.889648-3.781738
			c-2.728027,0-4.773926,1.239746-4.773926,3.161865c0,1.797852,1.612305,2.479736,5.083984,3.099609l3.285645,0.558105
			c7.31543,1.301758,11.655273,4.153809,11.655273,9.733398c0,7.067627-6.695312,10.66333-14.382812,10.66333
			C98.062988,45.443359,91.801758,42.033691,90.871582,34.531982z"/>
		<path style="fill:#032044;" d="M122.367188,34.531982h8.741699c0.495605,2.97583,3.037598,4.401855,6.509277,4.401855
			c2.728027,0,5.145996-0.991943,5.145996-3.223877c0-1.983887-1.797852-2.851807-5.827637-3.533691l-3.348145-0.620117
			c-6.571289-1.177979-10.663086-4.091797-10.663086-9.237305c0-6.571777,6.075684-10.601562,13.825195-10.601562
			c7.377441,0,13.453125,3.719971,14.321289,10.291504h-8.617676c-0.620117-2.417969-2.728027-3.781738-5.889648-3.781738
			c-2.728027,0-4.773926,1.239746-4.773926,3.161865c0,1.797852,1.612305,2.479736,5.083984,3.099609l3.285645,0.558105
			c7.31543,1.301758,11.655273,4.153809,11.655273,9.733398c0,7.067627-6.695312,10.66333-14.383301,10.66333
			C129.558594,45.443359,123.297363,42.033691,122.367188,34.531982z"/>
		<path style="fill:#032044;" d="M170.681641,45.443359c-9.299316,0-17.11084-6.385498-17.11084-16.987061
			c0-10.29126,8.05957-16.677002,16.925293-16.677002c9.113281,0,16.614746,6.075684,16.614746,17.359131v1.921875h-24.116699
			c0.496094,4.649658,3.781738,7.439453,7.997559,7.439453c2.728027,0,5.456055-0.929932,6.757812-3.47168h9.05127
			C184.816895,42.219482,177.749512,45.443359,170.681641,45.443359z M162.932129,25.108643h14.693359
			c-0.310059-3.905762-3.223633-6.447754-7.253418-6.447754C166.52832,18.660889,163.428223,21.016846,162.932129,25.108643z"/>
		<path style="fill:#032044;" d="M204.224121,22.814697c0-14.197266,10.663574-22.442627,21.822754-22.442627
			c10.539551,0,18.84668,6.261475,20.148926,15.74707h-10.105469c-1.178223-4.339844-4.897949-7.129639-10.105469-7.129639
			c-6.32373,0-11.345215,5.331787-11.345215,13.825195c0,8.493652,5.083496,14.01123,11.407227,14.01123
			c5.083496,0,8.679688-2.665771,10.105469-7.129639h10.105469c-1.549805,9.547607-9.733398,15.74707-20.272949,15.74707
			C214.515625,45.443359,204.224121,37.073975,204.224121,22.814697z"/>
		<path style="fill:#032044;" d="M248.330566,28.456299c0-10.229248,7.873535-16.677002,17.420898-16.677002
			c9.609375,0,17.420898,6.385742,17.420898,16.677002c0,10.353516-7.749512,16.987061-17.420898,16.987061
			C256.018066,45.443359,248.330566,38.871826,248.330566,28.456299z M273.500977,28.456299
			c0-5.393555-3.161621-8.989502-7.749512-8.989502c-4.649414,0-7.749512,3.595947-7.749512,8.989502
			c0,5.641846,3.162109,9.299561,7.749512,9.299561C270.401367,37.755859,273.500977,34.160156,273.500977,28.456299z"/>
		<path style="fill:#032044;" d="M287.080078,0.062012h9.42334v44.637451h-9.42334V0.062012z"/>
		<path style="fill:#032044;" d="M302.102539,0.062012h9.42334v44.637451h-9.42334V0.062012z"/>
		<path style="fill:#032044;" d="M332.469238,45.443359c-9.299805,0-17.111328-6.385498-17.111328-16.987061
			c0-10.29126,8.05957-16.677002,16.924805-16.677002c9.113281,0,16.615234,6.075684,16.615234,17.359131v1.921875H324.78125
			c0.496094,4.649658,3.781738,7.439453,7.997559,7.439453c2.727539,0,5.456055-0.929932,6.757812-3.47168h9.051758
			C346.604004,42.219482,339.536621,45.443359,332.469238,45.443359z M324.719238,25.108643h14.693359
			c-0.30957-3.905762-3.223633-6.447754-7.253906-6.447754C328.31543,18.660889,325.215332,21.016846,324.719238,25.108643z"/>
		<path style="fill:#032044;" d="M368.012207,57.160645c-9.298828,0-15.00293-4.277588-16.056641-11.097168h9.174805
			c0.682617,2.789795,3.100586,4.3396,6.944336,4.3396c3.967773,0,6.571289-1.983887,6.571289-6.44751v-4.649902
			c-1.860352,2.852051-5.083984,4.525879-9.423828,4.525879c-7.749023,0-14.197266-5.765625-14.197266-16.119141
			c0-10.043457,6.696289-15.871094,14.321289-15.871094c4.463867,0,7.625977,1.797852,9.485352,4.959717v-4.21582h9.175781
			v30.750244C384.007324,52.883057,376.939941,57.160645,368.012207,57.160645z M374.708496,27.712402
			c0-5.331787-3.100586-8.493408-7.005859-8.493408c-4.030273,0-7.005859,3.285645-7.005859,8.493408
			c0,5.517822,2.975586,8.741455,7.005859,8.741455C371.67041,36.453857,374.708496,33.168213,374.708496,27.712402z"/>
		<path style="fill:#032044;" d="M404.945801,45.443359c-9.298828,0-17.110352-6.385498-17.110352-16.987061
			c0-10.29126,8.058594-16.677002,16.924805-16.677002c9.113281,0,16.615234,6.075684,16.615234,17.359131v1.921875h-24.117188
			c0.496094,4.649658,3.782227,7.439453,7.998047,7.439453c2.727539,0,5.455078-0.929932,6.756836-3.47168h9.051758
			C419.081543,42.219482,412.013184,45.443359,404.945801,45.443359z M397.196777,25.108643h14.692383
			c-0.30957-3.905762-3.223633-6.447754-7.25293-6.447754C400.79248,18.660889,397.692871,21.016846,397.196777,25.108643z"/>
		<path style="fill:#032044;" d="M438.240723,28.456299c0-10.229248,7.873047-16.677002,17.420898-16.677002
			c9.609375,0,17.420898,6.385742,17.420898,16.677002c0,10.353516-7.75,16.987061-17.420898,16.987061
			C445.928223,45.443359,438.240723,38.871826,438.240723,28.456299z M463.410645,28.456299
			c0-5.393555-3.162109-8.989502-7.749023-8.989502c-4.650391,0-7.75,3.595947-7.75,8.989502
			c0,5.641846,3.162109,9.299561,7.75,9.299561C460.311035,37.755859,463.410645,34.160156,463.410645,28.456299z"/>
		<path style="fill:#032044;" d="M488.093262,19.466797v25.232666h-9.175781V19.466797h-5.331055v-6.881592h5.331055V9.175537
			C478.91748,2.10791,482.947754,0,489.022949,0c2.417969,0,3.967773,0,6.137695,0.062012v6.943604
			c-1.301758-0.062012-2.541016-0.062012-3.905273-0.062012c-1.860352,0-3.162109,0.496094-3.162109,3.099854v2.541748h7.067383
			v6.881592H488.093262z"/>
		<path style="fill:#032044;" d="M545.628418,44.699463h-32.052734V1.302002h31.680664v8.05957h-21.823242v9.113281h20.086914
			v7.873535h-20.086914v10.291504h22.195312V44.699463z"/>
		<path style="fill:#032044;" d="M559.950684,44.699463h-9.422852V12.585205h9.113281v3.905762
			c2.045898-2.97583,5.579102-4.649658,9.733398-4.649658c7.005859,0,11.716797,4.21582,11.716797,12.833252v20.024902h-9.422852
			V26.348389c0-4.091553-2.108398-6.44751-5.641602-6.44751c-3.286133,0-6.076172,2.417969-6.076172,7.6875V44.699463z"/>
		<path style="fill:#032044;" d="M601.700684,57.160645c-9.298828,0-15.00293-4.277588-16.056641-11.097168h9.174805
			c0.682617,2.789795,3.100586,4.3396,6.944336,4.3396c3.967773,0,6.571289-1.983887,6.571289-6.44751v-4.649902
			c-1.860352,2.852051-5.083984,4.525879-9.423828,4.525879c-7.749023,0-14.197266-5.765625-14.197266-16.119141
			c0-10.043457,6.696289-15.871094,14.321289-15.871094c4.463867,0,7.625977,1.797852,9.485352,4.959717v-4.21582h9.175781
			v30.750244C617.695801,52.883057,610.628418,57.160645,601.700684,57.160645z M608.395996,27.712402
			c0-5.331787-3.099609-8.493408-7.004883-8.493408c-4.030273,0-7.005859,3.285645-7.005859,8.493408
			c0,5.517822,2.975586,8.741455,7.005859,8.741455C605.358887,36.453857,608.395996,33.168213,608.395996,27.712402z"/>
		<path style="fill:#032044;" d="M623.377441,0.062012h9.485352v7.811523h-9.485352V0.062012z M623.377441,12.585205h9.422852
			v32.114258h-9.422852V12.585205z"/>
		<path style="fill:#032044;" d="M647.835449,44.699463h-9.422852V12.585205h9.113281v3.905762
			c2.045898-2.97583,5.579102-4.649658,9.733398-4.649658c7.005859,0,11.716797,4.21582,11.716797,12.833252v20.024902h-9.422852
			V26.348389c0-4.091553-2.108398-6.44751-5.641602-6.44751c-3.286133,0-6.076172,2.417969-6.076172,7.6875V44.699463z"/>
		<path style="fill:#032044;" d="M689.591309,45.443359c-9.298828,0-17.110352-6.385498-17.110352-16.987061
			c0-10.29126,8.05957-16.677002,16.924805-16.677002c9.113281,0,16.615234,6.075684,16.615234,17.359131v1.921875h-24.117188
			c0.496094,4.649658,3.782227,7.439453,7.998047,7.439453c2.727539,0,5.455078-0.929932,6.756836-3.47168h9.051758
			C703.727051,42.219482,696.658691,45.443359,689.591309,45.443359z M681.842285,25.108643h14.692383
			c-0.30957-3.905762-3.223633-6.447754-7.25293-6.447754C685.437988,18.660889,682.338379,21.016846,681.842285,25.108643z"/>
		<path style="fill:#032044;" d="M725.147949,45.443359c-9.298828,0-17.110352-6.385498-17.110352-16.987061
			c0-10.29126,8.05957-16.677002,16.924805-16.677002c9.113281,0,16.615234,6.075684,16.615234,17.359131v1.921875h-24.117188
			c0.496094,4.649658,3.782227,7.439453,7.998047,7.439453c2.727539,0,5.455078-0.929932,6.756836-3.47168h9.051758
			C739.283691,42.219482,732.215332,45.443359,725.147949,45.443359z M717.398926,25.108643h14.692383
			c-0.30957-3.905762-3.223633-6.447754-7.25293-6.447754C720.994629,18.660889,717.89502,21.016846,717.398926,25.108643z"/>
		<path style="fill:#032044;" d="M754.969238,44.699463h-9.422852V12.585205h9.113281v4.773926
			c0.557617-0.991943,1.301758-1.921875,2.231445-2.728027c1.860352-1.487793,3.658203-2.293701,6.696289-2.293701
			c0.805664,0,1.735352,0.062012,2.292969,0.185791v8.679688c-1.487305-0.186035-2.231445-0.186035-3.161133-0.186035
			c-3.53418,0-7.75,1.302002-7.75,7.377441V44.699463z"/>
		<path style="fill:#032044;" d="M768.169434,0.062012h9.485352v7.811523h-9.485352V0.062012z M768.169434,12.585205h9.422852
			v32.114258h-9.422852V12.585205z"/>
		<path style="fill:#032044;" d="M792.626465,44.699463h-9.422852V12.585205h9.113281v3.905762
			c2.045898-2.97583,5.579102-4.649658,9.733398-4.649658c7.005859,0,11.716797,4.21582,11.716797,12.833252v20.024902h-9.422852
			V26.348389c0-4.091553-2.108398-6.44751-5.641602-6.44751c-3.286133,0-6.076172,2.417969-6.076172,7.6875V44.699463z"/>
		<path style="fill:#032044;" d="M834.377441,57.160645c-9.298828,0-15.00293-4.277588-16.056641-11.097168h9.174805
			c0.682617,2.789795,3.100586,4.3396,6.944336,4.3396c3.967773,0,6.571289-1.983887,6.571289-6.44751v-4.649902
			c-1.860352,2.852051-5.083984,4.525879-9.423828,4.525879c-7.749023,0-14.197266-5.765625-14.197266-16.119141
			c0-10.043457,6.696289-15.871094,14.321289-15.871094c4.463867,0,7.625977,1.797852,9.485352,4.959717v-4.21582h9.175781
			v30.750244C850.372559,52.883057,843.305176,57.160645,834.377441,57.160645z M841.07373,27.712402
			c0-5.331787-3.100586-8.493408-7.005859-8.493408c-4.030273,0-7.005859,3.285645-7.005859,8.493408
			c0,5.517822,2.975586,8.741455,7.005859,8.741455C838.035645,36.453857,841.07373,33.168213,841.07373,27.712402z"/>
		<path style="fill:#032044;" d="M897.182129,41.661621c-3.47168,2.355957-7.439453,3.781738-12.584961,3.781738
			c-8.927734,0-15.313477-4.835693-15.313477-12.647217c0-5.641602,3.223633-9.485352,8.431641-12.151367
			c-2.293945-2.60376-3.84375-5.269531-3.84375-8.865479c0-6.633545,5.765625-11.345215,13.205078-11.345215
			c7.625977,0,13.019531,4.3396,13.019531,11.097168c0,4.959717-3.162109,8.431641-8.866211,10.911377l6.572266,7.067627
			c1.363281-2.045898,2.169922-4.401611,2.541992-7.31543h8.678711c-0.495117,5.269531-2.292969,10.043457-5.393555,13.63916
			l8.183594,8.803467v0.062012h-11.779297L897.182129,41.661621z M885.402832,37.941895
			c2.355469,0,4.587891-0.681885,6.509766-2.045898l-9.051758-9.79541c-2.790039,1.487793-4.15332,3.533691-4.15332,6.013672
			C878.70752,35.647949,881.807129,37.941895,885.402832,37.941895z M886.084473,17.48291
			c3.782227-1.425781,5.517578-3.285645,5.517578-5.703613c0-2.541748-1.983398-4.277588-4.586914-4.277588
			c-2.728516,0-4.650391,1.859863-4.650391,4.3396C882.364746,13.887207,883.853027,15.499023,886.084473,17.48291z"/>
		<path style="fill:#032044;" d="M929.670898,1.302002h10.105469v43.397461h-10.105469V1.302002z"/>
		<path style="fill:#032044;" d="M955.443359,44.699463h-9.422852V12.585205h9.113281v3.905762
			c2.045898-2.97583,5.579102-4.649658,9.733398-4.649658c7.005859,0,11.716797,4.21582,11.716797,12.833252v20.024902h-9.422852
			V26.348389c0-4.091553-2.108398-6.44751-5.641602-6.44751c-3.286133,0-6.076172,2.417969-6.076172,7.6875V44.699463z"/>
		<path style="fill:#032044;" d="M983.691406,35.958008V19.466797h-5.208008v-6.881592h5.208008V4.587646h9.237305v7.997559
			h7.128906v6.881592h-7.128906v14.321289c0,3.223877,0.991211,3.84375,3.533203,3.84375h3.595703v7.005615
			c-2.169922,0.124023-3.967773,0.124023-7.004883,0.124023C987.163086,44.761475,983.691406,43.025635,983.691406,35.958008z"/>
		<path style="fill:#032044;" d="M1018.383789,45.443359c-9.298828,0-17.110352-6.385498-17.110352-16.987061
			c0-10.29126,8.058594-16.677002,16.924805-16.677002c9.113281,0,16.615234,6.075684,16.615234,17.359131v1.921875h-24.117188
			c0.496094,4.649658,3.782227,7.439453,7.998047,7.439453c2.727539,0,5.455078-0.929932,6.756836-3.47168h9.051758
			C1032.519531,42.219482,1025.451172,45.443359,1018.383789,45.443359z M1010.634766,25.108643h14.692383
			c-0.30957-3.905762-3.223633-6.447754-7.25293-6.447754C1014.230469,18.660889,1011.130859,21.016846,1010.634766,25.108643z"/>
		<path style="fill:#032044;" d="M1053.927734,57.160645c-9.298828,0-15.00293-4.277588-16.056641-11.097168h9.174805
			c0.682617,2.789795,3.100586,4.3396,6.944336,4.3396c3.967773,0,6.571289-1.983887,6.571289-6.44751v-4.649902
			c-1.860352,2.852051-5.083984,4.525879-9.423828,4.525879c-7.749023,0-14.197266-5.765625-14.197266-16.119141
			c0-10.043457,6.696289-15.871094,14.321289-15.871094c4.463867,0,7.625977,1.797852,9.485352,4.959717v-4.21582h9.175781
			v30.750244C1069.922852,52.883057,1062.855469,57.160645,1053.927734,57.160645z M1060.623047,27.712402
			c0-5.331787-3.099609-8.493408-7.004883-8.493408c-4.030273,0-7.005859,3.285645-7.005859,8.493408
			c0,5.517822,2.975586,8.741455,7.005859,8.741455C1057.585938,36.453857,1060.623047,33.168213,1060.623047,27.712402z"/>
		<path style="fill:#032044;" d="M1085.027344,44.699463h-9.422852V12.585205h9.113281v4.773926
			c0.557617-0.991943,1.301758-1.921875,2.231445-2.728027c1.860352-1.487793,3.658203-2.293701,6.695312-2.293701
			c0.806641,0,1.736328,0.062012,2.293945,0.185791v8.679688c-1.487305-0.186035-2.231445-0.186035-3.161133-0.186035
			c-3.53418,0-7.75,1.302002-7.75,7.377441V44.699463z"/>
		<path style="fill:#032044;" d="M1118.728516,41.041748c-2.107422,2.60376-5.393555,4.3396-10.042969,4.3396
			c-6.076172,0-11.90332-3.47168-11.90332-10.043457c0-6.695557,5.393555-9.05127,13.886719-10.415283l7.37793-1.177979v-0.433838
			c0-3.471924-1.921875-4.835938-5.269531-4.835938c-3.410156,0-5.517578,1.612061-6.076172,4.587891h-8.802734
			c1.053711-7.005615,7.191406-11.283447,15.3125-11.283447c8.679688,0,14.135742,3.409912,14.073242,12.461426l-0.061523,13.63916
			c0,1.053955,0.061523,2.913818,0.248047,6.81958h-8.618164L1118.728516,41.041748z M1111.103516,38.685791
			c3.78125,0,6.943359-2.231934,6.943359-6.695557v-2.169922c-8.493164,1.053955-12.151367,1.983887-12.151367,5.08374
			C1105.895508,37.383789,1108.12793,38.685791,1111.103516,38.685791z"/>
		<path style="fill:#032044;" d="M1134.447266,35.958008V19.466797h-5.208008v-6.881592h5.208008V4.587646h9.237305v7.997559
			h7.128906v6.881592h-7.128906v14.321289c0,3.223877,0.991211,3.84375,3.533203,3.84375h3.595703v7.005615
			c-2.169922,0.124023-3.967773,0.124023-7.004883,0.124023C1137.918945,44.761475,1134.447266,43.025635,1134.447266,35.958008z"/>
		<path style="fill:#032044;" d="M1169.139648,45.443359c-9.298828,0-17.110352-6.385498-17.110352-16.987061
			c0-10.29126,8.058594-16.677002,16.924805-16.677002c9.113281,0,16.615234,6.075684,16.615234,17.359131v1.921875h-24.117188
			c0.496094,4.649658,3.782227,7.439453,7.998047,7.439453c2.727539,0,5.455078-0.929932,6.756836-3.47168h9.051758
			C1183.275391,42.219482,1176.207031,45.443359,1169.139648,45.443359z M1161.390625,25.108643h14.692383
			c-0.30957-3.905762-3.223633-6.447754-7.25293-6.447754C1164.986328,18.660889,1161.886719,21.016846,1161.390625,25.108643z"/>
		<path style="fill:#032044;" d="M1212.34668,40.173828c-1.921875,3.347656-5.207031,5.20752-9.670898,5.20752
			c-7.998047,0-14.878906-5.827637-14.878906-16.987061c0-10.725342,7.128906-16.552979,15.00293-16.552979
			c4.15332,0,7.31543,1.550049,9.237305,4.339844V0.062012h9.423828v44.637451h-9.114258V40.173828z M1212.222656,28.394287
			c0-5.703613-3.161133-8.989258-7.376953-8.989258c-4.27832,0-7.37793,3.285645-7.37793,8.989258
			c0,5.95166,3.099609,9.423584,7.37793,9.423584C1208.9375,37.817871,1212.222656,34.407959,1212.222656,28.394287z"/>
		<path style="fill:#032044;" d="M1242.602539,1.302002h16.181641c13.825195,0,22.876953,7.067627,22.876953,21.450684
			c0,13.825195-9.114258,21.946777-22.939453,21.946777h-16.119141V1.302002z M1257.730469,36.391846
			c8.926758,0,13.577148-5.083496,13.577148-13.577148c0-8.431396-4.650391-13.205322-13.577148-13.205322h-5.022461v26.782471
			H1257.730469z"/>
		<path style="fill:#032044;" d="M1301.111328,45.443359c-9.298828,0-17.110352-6.385498-17.110352-16.987061
			c0-10.29126,8.05957-16.677002,16.924805-16.677002c9.113281,0,16.615234,6.075684,16.615234,17.359131v1.921875h-24.117188
			c0.496094,4.649658,3.782227,7.439453,7.998047,7.439453c2.727539,0,5.455078-0.929932,6.756836-3.47168h9.051758
			C1315.24707,42.219482,1308.178711,45.443359,1301.111328,45.443359z M1293.362305,25.108643h14.692383
			c-0.30957-3.905762-3.223633-6.447754-7.25293-6.447754C1296.958008,18.660889,1293.858398,21.016846,1293.362305,25.108643z"/>
		<path style="fill:#032044;" d="M1319.525391,34.531982h8.741211c0.496094,2.97583,3.038086,4.401855,6.509766,4.401855
			c2.728516,0,5.145508-0.991943,5.145508-3.223877c0-1.983887-1.797852-2.851807-5.827148-3.533691l-3.347656-0.620117
			c-6.572266-1.177979-10.664062-4.091797-10.664062-9.237305c0-6.571777,6.076172-10.601562,13.825195-10.601562
			c7.37793,0,13.454102,3.719971,14.321289,10.291504h-8.617188c-0.620117-2.417969-2.727539-3.781738-5.889648-3.781738
			c-2.727539,0-4.773438,1.239746-4.773438,3.161865c0,1.797852,1.611328,2.479736,5.083008,3.099609l3.286133,0.558105
			c7.31543,1.301758,11.655273,4.153809,11.655273,9.733398c0,7.067627-6.695312,10.66333-14.382812,10.66333
			C1326.716797,45.443359,1320.455078,42.033691,1319.525391,34.531982z"/>
		<path style="fill:#032044;" d="M1352.850586,0.062012h9.485352v7.811523h-9.485352V0.062012z M1352.850586,12.585205h9.422852
			v32.114258h-9.422852V12.585205z"/>
		<path style="fill:#032044;" d="M1383.160156,57.160645c-9.298828,0-15.00293-4.277588-16.056641-11.097168h9.174805
			c0.682617,2.789795,3.100586,4.3396,6.944336,4.3396c3.967773,0,6.571289-1.983887,6.571289-6.44751v-4.649902
			c-1.860352,2.852051-5.083984,4.525879-9.423828,4.525879c-7.749023,0-14.197266-5.765625-14.197266-16.119141
			c0-10.043457,6.696289-15.871094,14.321289-15.871094c4.463867,0,7.625977,1.797852,9.485352,4.959717v-4.21582h9.175781
			v30.750244C1399.155273,52.883057,1392.087891,57.160645,1383.160156,57.160645z M1389.855469,27.712402
			c0-5.331787-3.099609-8.493408-7.004883-8.493408c-4.030273,0-7.005859,3.285645-7.005859,8.493408
			c0,5.517822,2.975586,8.741455,7.005859,8.741455C1386.818359,36.453857,1389.855469,33.168213,1389.855469,27.712402z"/>
		<path style="fill:#032044;" d="M1414.259766,44.699463h-9.422852V12.585205h9.113281v3.905762
			c2.045898-2.97583,5.579102-4.649658,9.733398-4.649658c7.005859,0,11.716797,4.21582,11.716797,12.833252v20.024902h-9.422852
			V26.348389c0-4.091553-2.108398-6.44751-5.641602-6.44751c-3.286133,0-6.076172,2.417969-6.076172,7.6875V44.699463z"/>
	</g>
</g>
<g>
</g>
<g>
</g>
<g>
</g>
<g>
</g>
<g>
</g>
<g>
</g>
<g>
</g>
<g>
</g>
<g>
</g>
<g>
</g>
<g>
</g>
<g>
</g>
<g>
</g>
<g>
</g>
<g>
</g>
</svg>
