<?xml version="1.0" encoding="iso-8859-1"?>
<!-- Generator: Adobe Illustrator 30.2.1, SVG Export Plug-In . SVG Version: 9.03 Build 0)  -->
<svg version="1.1" id="Layer_1" xmlns="http://www.w3.org/2000/svg" xmlns:xlink="http://www.w3.org/1999/xlink" x="0px" y="0px"
	 viewBox="0 0 352.200195 112.381348" style="enable-background:new 0 0 352.200195 112.381348;" xml:space="preserve">
<g>
	<g>
		<path style="fill:#032044;" d="M2.417969,1.239746h10.105469v34.96582h19.65332v8.431641H2.417969V1.239746z"/>
		<path style="fill:#032044;" d="M33.275391,28.394043c0-10.229492,7.874023-16.676758,17.420898-16.676758
			c9.609375,0,17.421875,6.385254,17.421875,16.676758c0,10.353516-7.75,16.987305-17.421875,16.987305
			C40.962891,45.381348,33.275391,38.80957,33.275391,28.394043z M58.446289,28.394043c0-5.393555-3.162109-8.989258-7.75-8.989258
			c-4.649414,0-7.749023,3.595703-7.749023,8.989258c0,5.641602,3.162109,9.299316,7.749023,9.299316
			C55.34668,37.693359,58.446289,34.097656,58.446289,28.394043z"/>
		<path style="fill:#032044;" d="M81.368164,44.637207h-9.423828V12.522949h9.114258v3.905762
			c2.044922-2.975586,5.579102-4.649414,9.733398-4.649414c7.004883,0,11.716797,4.215332,11.716797,12.833008v20.024902h-9.423828
			V26.286133c0-4.091797-2.107422-6.447266-5.641602-6.447266c-3.285156,0-6.075195,2.41748-6.075195,7.6875V44.637207z"/>
		<path style="fill:#032044;" d="M123.118164,57.098633c-9.299805,0-15.00293-4.277832-16.057617-11.097656h9.175781
			c0.682617,2.790039,3.099609,4.339844,6.943359,4.339844c3.967773,0,6.572266-1.983887,6.572266-6.447754v-4.649414
			c-1.860352,2.851562-5.083984,4.525391-9.423828,4.525391c-7.749023,0-14.197266-5.765625-14.197266-16.118652
			c0-10.043457,6.696289-15.871094,14.321289-15.871094c4.463867,0,7.625977,1.797852,9.485352,4.959473v-4.21582h9.175781
			v30.750488C139.113281,52.820801,132.045898,57.098633,123.118164,57.098633z M129.813477,27.650391
			c0-5.332031-3.099609-8.493652-7.004883-8.493652c-4.030273,0-7.005859,3.285645-7.005859,8.493652
			c0,5.517578,2.975586,8.741211,7.005859,8.741211C126.776367,36.391602,129.813477,33.105957,129.813477,27.650391z"/>
		<path style="fill:#032044;" d="M157.776367,30.936035h9.857422c0.620117,4.649902,4.21582,6.819336,8.927734,6.819336
			c4.339844,0,7.625977-1.797852,7.625977-5.083496c0-2.852051-2.666016-4.277832-7.439453-5.269531l-4.339844-0.930176
			c-9.238281-1.921875-13.577148-6.075684-13.577148-12.708984c0-7.935547,7.625-13.453613,16.924805-13.453613
			c9.485352,0,16.676758,4.897949,17.544922,13.515625h-9.795898c-0.557617-3.720215-3.533203-5.889648-7.811523-5.889648
			c-3.967773,0-7.067383,2.04541-7.067383,4.959473c0,2.604004,1.921875,3.719727,6.261719,4.587891l4.835938,1.053711
			c8.741211,1.73584,14.382812,5.641602,14.382812,13.205566c0,8.927246-8.369141,13.63916-17.606445,13.63916
			C166.456055,45.381348,158.644531,40.793457,157.776367,30.936035z"/>
		<path style="fill:#032044;" d="M196.469727,28.394043c0-10.043457,7.811523-16.676758,17.048828-16.676758
			c8.370117,0,14.941406,4.959473,15.933594,12.646973h-9.299805c-0.743164-3.037598-3.40918-4.959473-6.633789-4.959473
			c-4.338867,0-7.376953,3.657715-7.376953,8.989258c0,5.517578,3.099609,9.299316,7.376953,9.299316
			c3.162109,0,5.704102-1.797852,6.572266-5.021484h9.361328c-1.240234,7.935547-7.874023,12.709473-15.995117,12.709473
			C204.033203,45.381348,196.469727,38.747559,196.469727,28.394043z"/>
		<path style="fill:#032044;" d="M242.553711,44.637207h-9.422852V0h9.422852v13.577148c0,0.867676,0,1.673828,0,2.41748
			c2.045898-2.665527,5.456055-4.215332,9.423828-4.215332c7.005859,0,11.717773,4.215332,11.717773,12.833008v20.024902h-9.423828
			V26.286133c0-4.091797-2.107422-6.447266-5.641602-6.447266c-3.286133,0-6.076172,2.41748-6.076172,7.6875V44.637207z"/>
		<path style="fill:#032044;" d="M267.199219,28.394043c0-10.229492,7.874023-16.676758,17.420898-16.676758
			c9.609375,0,17.421875,6.385254,17.421875,16.676758c0,10.353516-7.75,16.987305-17.421875,16.987305
			C274.886719,45.381348,267.199219,38.80957,267.199219,28.394043z M292.370117,28.394043
			c0-5.393555-3.162109-8.989258-7.75-8.989258c-4.649414,0-7.749023,3.595703-7.749023,8.989258
			c0,5.641602,3.162109,9.299316,7.749023,9.299316C289.270508,37.693359,292.370117,34.097656,292.370117,28.394043z"/>
		<path style="fill:#032044;" d="M304.026367,28.394043c0-10.229492,7.874023-16.676758,17.420898-16.676758
			c9.609375,0,17.421875,6.385254,17.421875,16.676758c0,10.353516-7.75,16.987305-17.421875,16.987305
			C311.713867,45.381348,304.026367,38.80957,304.026367,28.394043z M329.197266,28.394043
			c0-5.393555-3.162109-8.989258-7.75-8.989258c-4.649414,0-7.749023,3.595703-7.749023,8.989258
			c0,5.641602,3.162109,9.299316,7.749023,9.299316C326.097656,37.693359,329.197266,34.097656,329.197266,28.394043z"/>
		<path style="fill:#032044;" d="M342.777344,0h9.422852v44.637207h-9.422852V0z"/>
		<path style="fill:#032044;" d="M0,95.394043c0-10.229492,7.874023-16.676758,17.420898-16.676758
			c9.609375,0,17.421875,6.385254,17.421875,16.676758c0,10.353516-7.75,16.987305-17.421875,16.987305
			C7.6875,112.381348,0,105.80957,0,95.394043z M25.170898,95.394043c0-5.393555-3.162109-8.989258-7.75-8.989258
			c-4.649414,0-7.749023,3.595703-7.749023,8.989258c0,5.641602,3.162109,9.299316,7.749023,9.299316
			C22.071289,104.693359,25.170898,101.097656,25.170898,95.394043z"/>
		<path style="fill:#032044;" d="M49.853516,86.404785v25.232422h-9.175781V86.404785H35.34668v-6.881836h5.331055v-3.409668
			c0-7.067871,4.030273-9.175293,10.105469-9.175293c2.417969,0,3.967773,0,6.137695,0.062012v6.943359
			c-1.301758-0.062012-2.541992-0.062012-3.905273-0.062012c-1.860352,0-3.162109,0.496094-3.162109,3.099609v2.541992h7.067383
			v6.881836H49.853516z"/>
		<path style="fill:#032044;" d="M84.882812,76.237305v35.399902h-9.546875V68.239746h15.871094l9.609375,31.804199
			l9.609375-31.804199h15.499023v43.397461h-9.609375V76.42334l-10.973633,35.213867h-9.485352L84.882812,76.237305z"/>
		<path style="fill:#032044;" d="M147.595703,112.381348c-9.299805,0-17.111328-6.385742-17.111328-16.987305
			c0-10.291504,8.05957-16.676758,16.925781-16.676758c9.113281,0,16.614258,6.075684,16.614258,17.358887v1.921875h-24.116211
			c0.496094,4.649902,3.78125,7.439453,7.99707,7.439453c2.728516,0,5.456055-0.929688,6.757812-3.47168h9.051758
			C161.730469,109.157227,154.663086,112.381348,147.595703,112.381348z M139.845703,92.046387h14.693359
			c-0.30957-3.905762-3.223633-6.447754-7.25293-6.447754C143.442383,85.598633,140.341797,87.95459,139.845703,92.046387z"/>
		<path style="fill:#032044;" d="M190.802734,107.111328c-1.921875,3.348145-5.208008,5.208008-9.671875,5.208008
			c-7.99707,0-14.878906-5.827637-14.878906-16.987305c0-10.725098,7.128906-16.552734,15.00293-16.552734
			c4.15332,0,7.31543,1.549805,9.237305,4.339355V67h9.423828v44.637207h-9.113281V107.111328z M190.678711,95.332031
			c0-5.703613-3.162109-8.989258-7.37793-8.989258c-4.277344,0-7.37793,3.285645-7.37793,8.989258
			c0,5.95166,3.100586,9.42334,7.37793,9.42334C187.392578,104.755371,190.678711,101.345703,190.678711,95.332031z"/>
		<path style="fill:#032044;" d="M205.595703,67h9.485352v7.811523h-9.485352V67z M205.595703,79.522949h9.423828v32.114258
			h-9.423828V79.522949z"/>
		<path style="fill:#032044;" d="M218.69043,95.394043c0-10.043457,7.811523-16.676758,17.048828-16.676758
			c8.369141,0,14.941406,4.959473,15.932617,12.646973h-9.298828c-0.744141-3.037598-3.410156-4.959473-6.633789-4.959473
			c-4.339844,0-7.37793,3.657715-7.37793,8.989258c0,5.517578,3.100586,9.299316,7.37793,9.299316
			c3.162109,0,5.704102-1.797852,6.571289-5.021484h9.361328c-1.239258,7.935547-7.873047,12.709473-15.994141,12.709473
			C226.253906,112.381348,218.69043,105.747559,218.69043,95.394043z"/>
		<path style="fill:#032044;" d="M255.350586,67h9.485352v7.811523h-9.485352V67z M255.350586,79.522949h9.422852v32.114258
			h-9.422852V79.522949z"/>
		<path style="fill:#032044;" d="M279.808594,111.637207h-9.423828V79.522949h9.114258v3.905762
			c2.044922-2.975586,5.579102-4.649414,9.733398-4.649414c7.004883,0,11.716797,4.215332,11.716797,12.833008v20.024902h-9.423828
			V93.286133c0-4.091797-2.107422-6.447266-5.641602-6.447266c-3.285156,0-6.075195,2.41748-6.075195,7.6875V111.637207z"/>
		<path style="fill:#032044;" d="M321.564453,112.381348c-9.298828,0-17.110352-6.385742-17.110352-16.987305
			c0-10.291504,8.05957-16.676758,16.924805-16.676758c9.113281,0,16.615234,6.075684,16.615234,17.358887v1.921875h-24.117188
			c0.496094,4.649902,3.782227,7.439453,7.998047,7.439453c2.727539,0,5.456055-0.929688,6.757812-3.47168h9.051758
			C335.700195,109.157227,328.632812,112.381348,321.564453,112.381348z M313.81543,92.046387h14.693359
			c-0.310547-3.905762-3.223633-6.447754-7.253906-6.447754C317.411133,85.598633,314.311523,87.95459,313.81543,92.046387z"/>
	</g>
</g>
<g>
</g>
<g>
</g>
<g>
</g>
<g>
</g>
<g>
</g>
<g>
</g>
<g>
</g>
<g>
</g>
<g>
</g>
<g>
</g>
<g>
</g>
<g>
</g>
<g>
</g>
<g>
</g>
<g>
</g>
</svg>
