<?xml version="1.0" encoding="iso-8859-1"?>
<!-- Generator: Adobe Illustrator 30.2.1, SVG Export Plug-In . SVG Version: 9.03 Build 0)  -->
<svg version="1.1" id="Layer_1" xmlns="http://www.w3.org/2000/svg" xmlns:xlink="http://www.w3.org/1999/xlink" x="0px" y="0px"
	 viewBox="0 0 941.048 69.316" style="enable-background:new 0 0 941.048 69.316;" xml:space="preserve">
<g id="UnitName_00000083051636230227074460000000021105607283046073_">
	<g>
		<path style="fill:#032044;" d="M13.825,17.3v35.4H4.278V9.302h15.871l9.609,31.804l9.609-31.804h15.499v43.397h-9.609V17.486
			L34.284,52.699h-9.485L13.825,17.3z"/>
		<path style="fill:#032044;" d="M81.516,49.042c-2.108,2.604-5.394,4.34-10.043,4.34c-6.076,0-11.903-3.472-11.903-10.043
			c0-6.696,5.394-9.051,13.887-10.415l7.377-1.178v-0.434c0-3.472-1.922-4.836-5.27-4.836c-3.41,0-5.518,1.612-6.076,4.588h-8.804
			c1.054-7.006,7.192-11.283,15.313-11.283c8.679,0,14.135,3.41,14.073,12.461L90.01,45.88c0,1.054,0.062,2.914,0.248,6.82H81.64
			L81.516,49.042z M73.891,46.686c3.782,0,6.943-2.232,6.943-6.696v-2.17c-8.494,1.054-12.151,1.984-12.151,5.084
			C68.683,45.384,70.915,46.686,73.891,46.686z"/>
		<path style="fill:#032044;" d="M104.884,52.699H95.46V20.585h9.114v4.774c0.558-0.992,1.302-1.922,2.231-2.728
			c1.86-1.488,3.658-2.294,6.696-2.294c0.806,0,1.736,0.062,2.294,0.186v8.68c-1.488-0.186-2.232-0.186-3.162-0.186
			c-3.534,0-7.75,1.302-7.75,7.377V52.699z"/>
		<path style="fill:#032044;" d="M127.507,52.699h-9.423V20.585h9.114v3.782c1.983-2.914,5.394-4.526,9.547-4.526
			c3.782,0,7.501,1.55,9.671,5.208c2.108-3.41,5.952-5.208,10.478-5.208c6.323,0,11.841,3.472,11.841,12.523v20.335h-9.424V34.101
			c0-4.154-2.294-6.2-5.394-6.2c-3.038,0-5.766,2.356-5.766,7.316v17.483h-9.423V34.101c0-4.154-2.294-6.2-5.394-6.2
			c-3.038,0-5.828,2.294-5.828,7.316V52.699z"/>
		<path style="fill:#032044;" d="M174.261,8.062h9.485v7.812h-9.485V8.062z M174.261,20.585h9.423v32.114h-9.423V20.585z"/>
		<path style="fill:#032044;" d="M187.355,36.456c0-10.229,7.874-16.677,17.421-16.677c9.609,0,17.421,6.386,17.421,16.677
			c0,10.354-7.75,16.987-17.421,16.987C195.043,53.443,187.355,46.872,187.355,36.456z M212.526,36.456
			c0-5.394-3.162-8.99-7.75-8.99c-4.649,0-7.75,3.596-7.75,8.99c0,5.642,3.162,9.3,7.75,9.3
			C209.426,45.756,212.526,42.16,212.526,36.456z"/>
		<path style="fill:#032044;" d="M235.448,52.699h-9.423V20.585h9.113v3.906c2.046-2.976,5.58-4.65,9.734-4.65
			c7.005,0,11.717,4.216,11.717,12.833v20.025h-9.424V34.348c0-4.092-2.107-6.448-5.642-6.448c-3.286,0-6.076,2.418-6.076,7.688
			V52.699z"/>
		<path style="fill:#032044;" d="M274.88,38.998h9.857c0.62,4.65,4.216,6.82,8.928,6.82c4.339,0,7.625-1.798,7.625-5.084
			c0-2.852-2.666-4.278-7.439-5.27l-4.34-0.93c-9.238-1.922-13.577-6.076-13.577-12.709c0-7.936,7.625-13.453,16.925-13.453
			c9.485,0,16.677,4.898,17.545,13.515h-9.795c-0.558-3.72-3.534-5.89-7.812-5.89c-3.968,0-7.067,2.046-7.067,4.96
			c0,2.604,1.922,3.72,6.261,4.588l4.836,1.054c8.742,1.736,14.383,5.642,14.383,13.205c0,8.927-8.37,13.639-17.607,13.639
			C283.56,53.443,275.748,48.856,274.88,38.998z"/>
		<path style="fill:#032044;" d="M313.573,36.456c0-10.043,7.812-16.677,17.049-16.677c8.37,0,14.941,4.96,15.934,12.647h-9.3
			c-0.744-3.038-3.41-4.96-6.634-4.96c-4.339,0-7.377,3.658-7.377,8.99c0,5.518,3.1,9.3,7.377,9.3c3.162,0,5.704-1.798,6.572-5.022
			h9.361c-1.24,7.936-7.874,12.709-15.995,12.709C321.137,53.443,313.573,46.81,313.573,36.456z"/>
		<path style="fill:#032044;" d="M359.657,52.699h-9.423V8.062h9.423v13.577c0,0.868,0,1.674,0,2.418
			c2.046-2.666,5.456-4.216,9.424-4.216c7.006,0,11.717,4.216,11.717,12.833v20.025h-9.423V34.348c0-4.092-2.108-6.448-5.642-6.448
			c-3.286,0-6.076,2.418-6.076,7.688V52.699z"/>
		<path style="fill:#032044;" d="M384.303,36.456c0-10.229,7.873-16.677,17.421-16.677c9.609,0,17.421,6.386,17.421,16.677
			c0,10.354-7.75,16.987-17.421,16.987C391.99,53.443,384.303,46.872,384.303,36.456z M409.473,36.456
			c0-5.394-3.162-8.99-7.749-8.99c-4.65,0-7.75,3.596-7.75,8.99c0,5.642,3.162,9.3,7.75,9.3
			C406.373,45.756,409.473,42.16,409.473,36.456z"/>
		<path style="fill:#032044;" d="M421.131,36.456c0-10.229,7.873-16.677,17.421-16.677c9.609,0,17.421,6.386,17.421,16.677
			c0,10.354-7.75,16.987-17.421,16.987C428.818,53.443,421.131,46.872,421.131,36.456z M446.301,36.456
			c0-5.394-3.162-8.99-7.749-8.99c-4.65,0-7.75,3.596-7.75,8.99c0,5.642,3.162,9.3,7.75,9.3
			C443.201,45.756,446.301,42.16,446.301,36.456z"/>
		<path style="fill:#032044;" d="M459.88,8.062h9.423v44.637h-9.423V8.062z"/>
		<path style="fill:#032044;" d="M488.09,36.456c0-10.229,7.873-16.677,17.421-16.677c9.609,0,17.421,6.386,17.421,16.677
			c0,10.354-7.75,16.987-17.421,16.987C495.777,53.443,488.09,46.872,488.09,36.456z M513.26,36.456c0-5.394-3.162-8.99-7.749-8.99
			c-4.65,0-7.75,3.596-7.75,8.99c0,5.642,3.162,9.3,7.75,9.3C510.16,45.756,513.26,42.16,513.26,36.456z"/>
		<path style="fill:#032044;" d="M537.942,27.467v25.233h-9.176V27.467h-5.331v-6.882h5.331v-3.41c0-7.068,4.03-9.176,10.105-9.176
			c2.418,0,3.968,0,6.138,0.062v6.944c-1.302-0.062-2.541-0.062-3.905-0.062c-1.86,0-3.162,0.496-3.162,3.1v2.542h7.067v6.882
			H537.942z"/>
		<path style="fill:#032044;" d="M563.424,9.302h18.661c10.602,0,16.119,5.828,16.119,14.197c0,8.618-5.766,14.445-16.181,14.445
			h-8.494v14.755h-10.105V9.302z M580.598,29.885c4.897,0,7.439-2.48,7.439-6.262c0-3.782-2.604-6.261-7.439-6.261h-7.068v12.523
			H580.598z"/>
		<path style="fill:#032044;" d="M621.896,48.918c-2.108,2.976-5.456,4.526-9.424,4.526c-6.819,0-11.717-4.216-11.717-12.709V20.585
			h9.423v18.413c0,4.154,2.17,6.323,5.58,6.323c3.038,0,5.827-2.17,5.827-7.315V20.585h9.424v32.114h-9.113V48.918z"/>
		<path style="fill:#032044;" d="M655.442,53.381c-4.464,0-7.749-1.86-9.609-5.208v4.526h-9.175V8.062h9.423v16.305
			c1.922-2.914,5.084-4.526,9.424-4.526c7.997,0,14.817,5.704,14.817,16.553C670.322,47.492,663.44,53.381,655.442,53.381z
			 M660.712,36.394c0-5.89-3.224-8.989-7.377-8.989c-4.278,0-7.439,3.286-7.439,8.989c0,6.014,3.348,9.424,7.439,9.424
			C657.488,45.818,660.712,42.408,660.712,36.394z"/>
		<path style="fill:#032044;" d="M674.391,8.062h9.423v44.637h-9.423V8.062z"/>
		<path style="fill:#032044;" d="M689.4,8.062h9.485v7.812H689.4V8.062z M689.4,20.585h9.423v32.114H689.4V20.585z"/>
		<path style="fill:#032044;" d="M702.494,36.456c0-10.043,7.812-16.677,17.049-16.677c8.369,0,14.94,4.96,15.933,12.647h-9.299
			c-0.744-3.038-3.41-4.96-6.634-4.96c-4.34,0-7.378,3.658-7.378,8.99c0,5.518,3.1,9.3,7.378,9.3c3.161,0,5.703-1.798,6.571-5.022
			h9.361c-1.239,7.936-7.873,12.709-15.995,12.709C710.058,53.443,702.494,46.81,702.494,36.456z"/>
		<path style="fill:#032044;" d="M754.449,9.302h10.105v16.677h18.909V9.302h10.105v43.397h-10.105V34.41h-18.909v18.289h-10.105
			V9.302z"/>
		<path style="fill:#032044;" d="M815.171,53.443c-9.299,0-17.11-6.385-17.11-16.987c0-10.291,8.059-16.677,16.925-16.677
			c9.113,0,16.615,6.076,16.615,17.359v1.922h-24.117c0.496,4.65,3.782,7.439,7.998,7.439c2.728,0,5.455-0.93,6.757-3.472h9.052
			C829.307,50.219,822.238,53.443,815.171,53.443z M807.422,33.109h14.692c-0.31-3.906-3.224-6.448-7.253-6.448
			C811.018,26.661,807.918,29.017,807.422,33.109z"/>
		<path style="fill:#032044;" d="M855.538,49.042c-2.107,2.604-5.394,4.34-10.043,4.34c-6.076,0-11.903-3.472-11.903-10.043
			c0-6.696,5.394-9.051,13.887-10.415l7.378-1.178v-0.434c0-3.472-1.922-4.836-5.27-4.836c-3.41,0-5.518,1.612-6.076,4.588h-8.803
			c1.054-7.006,7.191-11.283,15.312-11.283c8.68,0,14.136,3.41,14.073,12.461l-0.062,13.639c0,1.054,0.062,2.914,0.248,6.82h-8.618
			L855.538,49.042z M847.913,46.686c3.781,0,6.943-2.232,6.943-6.696v-2.17c-8.493,1.054-12.151,1.984-12.151,5.084
			C842.705,45.384,844.938,46.686,847.913,46.686z"/>
		<path style="fill:#032044;" d="M869.502,8.062h9.423v44.637h-9.423V8.062z"/>
		<path style="fill:#032044;" d="M886.633,43.958V27.467h-5.208v-6.882h5.208v-7.998h9.237v7.998h7.129v6.882h-7.129v14.321
			c0,3.224,0.991,3.844,3.533,3.844h3.596v7.006c-2.17,0.124-3.968,0.124-7.005,0.124C890.104,52.761,886.633,51.026,886.633,43.958
			z"/>
		<path style="fill:#032044;" d="M916.496,52.699h-9.423V8.062h9.423v13.577c0,0.868,0,1.674,0,2.418
			c2.046-2.666,5.457-4.216,9.424-4.216c7.006,0,11.717,4.216,11.717,12.833v20.025h-9.423V34.348c0-4.092-2.108-6.448-5.642-6.448
			c-3.286,0-6.077,2.418-6.077,7.688V52.699z"/>
	</g>
</g>
<g>
</g>
<g>
</g>
<g>
</g>
<g>
</g>
<g>
</g>
<g>
</g>
<g>
</g>
<g>
</g>
<g>
</g>
<g>
</g>
<g>
</g>
<g>
</g>
<g>
</g>
<g>
</g>
<g>
</g>
</svg>
