<?xml version="1.0" encoding="iso-8859-1"?>
<!-- Generator: Adobe Illustrator 30.2.1, SVG Export Plug-In . SVG Version: 9.03 Build 0)  -->
<svg version="1.1" id="Layer_1" xmlns="http://www.w3.org/2000/svg" xmlns:xlink="http://www.w3.org/1999/xlink" x="0px" y="0px"
	 viewBox="0 0 467.443359 112.381348" style="enable-background:new 0 0 467.443359 112.381348;" xml:space="preserve">
<g>
	<g>
		<path style="fill:#032044;" d="M11.96582,9.237305v35.399902H2.417969V1.239746h15.871094l9.609375,31.804199l9.609375-31.804199
			h15.499023v43.397461h-9.609375V9.42334L32.424805,44.637207h-9.485352L11.96582,9.237305z"/>
		<path style="fill:#032044;" d="M79.65625,40.979492c-2.107422,2.604004-5.393555,4.339844-10.042969,4.339844
			c-6.076172,0-11.90332-3.472168-11.90332-10.043457c0-6.695801,5.393555-9.051758,13.886719-10.415527l7.37793-1.177734v-0.434082
			c0-3.47168-1.921875-4.835938-5.269531-4.835938c-3.410156,0-5.517578,1.611816-6.076172,4.587891h-8.803711
			c1.054688-7.005859,7.192383-11.283203,15.313477-11.283203c8.679688,0,14.135742,3.409668,14.073242,12.460938
			l-0.061523,13.63916c0,1.054199,0.061523,2.914062,0.24707,6.819824h-8.617188L79.65625,40.979492z M72.03125,38.623535
			c3.78125,0,6.943359-2.231934,6.943359-6.695801v-2.169922c-8.494141,1.054199-12.151367,1.984375-12.151367,5.083984
			C66.823242,37.321777,69.054688,38.623535,72.03125,38.623535z"/>
		<path style="fill:#032044;" d="M103.024414,44.637207h-9.423828V12.522949h9.114258v4.773926
			c0.557617-0.992188,1.301758-1.921875,2.231445-2.728027c1.859375-1.487793,3.658203-2.293945,6.695312-2.293945
			c0.806641,0,1.736328,0.062012,2.293945,0.186035v8.679688c-1.487305-0.186035-2.231445-0.186035-3.162109-0.186035
			c-3.533203,0-7.749023,1.301758-7.749023,7.377441V44.637207z"/>
		<path style="fill:#032044;" d="M125.647461,44.637207h-9.423828V12.522949h9.114258v3.781738
			c1.983398-2.913574,5.393555-4.525391,9.546875-4.525391c3.782227,0,7.501953,1.549805,9.671875,5.20752
			c2.107422-3.409668,5.951172-5.20752,10.477539-5.20752c6.323242,0,11.84082,3.47168,11.84082,12.522949v20.334961h-9.423828
			V26.038086c0-4.153809-2.293945-6.199219-5.393555-6.199219c-3.037109,0-5.765625,2.355469-5.765625,7.31543v17.48291h-9.422852
			V26.038086c0-4.153809-2.293945-6.199219-5.394531-6.199219c-3.037109,0-5.827148,2.293457-5.827148,7.31543V44.637207z"/>
		<path style="fill:#032044;" d="M172.401367,0h9.485352v7.811523h-9.485352V0z M172.401367,12.522949h9.423828v32.114258h-9.423828
			V12.522949z"/>
		<path style="fill:#032044;" d="M185.496094,28.394043c0-10.229492,7.873047-16.676758,17.420898-16.676758
			c9.609375,0,17.420898,6.385254,17.420898,16.676758c0,10.353516-7.75,16.987305-17.420898,16.987305
			C193.183594,45.381348,185.496094,38.80957,185.496094,28.394043z M210.666016,28.394043
			c0-5.393555-3.161133-8.989258-7.749023-8.989258c-4.649414,0-7.75,3.595703-7.75,8.989258
			c0,5.641602,3.162109,9.299316,7.75,9.299316C207.566406,37.693359,210.666016,34.097656,210.666016,28.394043z"/>
		<path style="fill:#032044;" d="M233.587891,44.637207h-9.422852V12.522949h9.113281v3.905762
			c2.045898-2.975586,5.580078-4.649414,9.733398-4.649414c7.005859,0,11.717773,4.215332,11.717773,12.833008v20.024902h-9.423828
			V26.286133c0-4.091797-2.107422-6.447266-5.641602-6.447266c-3.286133,0-6.076172,2.41748-6.076172,7.6875V44.637207z"/>
		<path style="fill:#032044;" d="M273.020508,30.936035h9.857422c0.620117,4.649902,4.21582,6.819336,8.927734,6.819336
			c4.338867,0,7.625-1.797852,7.625-5.083496c0-2.852051-2.666016-4.277832-7.439453-5.269531l-4.339844-0.930176
			c-9.237305-1.921875-13.577148-6.075684-13.577148-12.708984c0-7.935547,7.625977-13.453613,16.924805-13.453613
			c9.485352,0,16.677734,4.897949,17.544922,13.515625h-9.794922c-0.558594-3.720215-3.53418-5.889648-7.811523-5.889648
			c-3.967773,0-7.067383,2.04541-7.067383,4.959473c0,2.604004,1.921875,3.719727,6.260742,4.587891l4.835938,1.053711
			c8.742188,1.73584,14.383789,5.641602,14.383789,13.205566c0,8.927246-8.370117,13.63916-17.607422,13.63916
			C281.700195,45.381348,273.888672,40.793457,273.020508,30.936035z"/>
		<path style="fill:#032044;" d="M311.713867,28.394043c0-10.043457,7.811523-16.676758,17.048828-16.676758
			c8.370117,0,14.941406,4.959473,15.933594,12.646973h-9.299805c-0.744141-3.037598-3.410156-4.959473-6.633789-4.959473
			c-4.339844,0-7.37793,3.657715-7.37793,8.989258c0,5.517578,3.100586,9.299316,7.37793,9.299316
			c3.162109,0,5.704102-1.797852,6.572266-5.021484h9.361328c-1.240234,7.935547-7.874023,12.709473-15.995117,12.709473
			C319.277344,45.381348,311.713867,38.747559,311.713867,28.394043z"/>
		<path style="fill:#032044;" d="M357.797852,44.637207H348.375V0h9.422852v13.577148c0,0.867676,0,1.673828,0,2.41748
			c2.045898-2.665527,5.456055-4.215332,9.423828-4.215332c7.005859,0,11.716797,4.215332,11.716797,12.833008v20.024902h-9.422852
			V26.286133c0-4.091797-2.108398-6.447266-5.641602-6.447266c-3.286133,0-6.076172,2.41748-6.076172,7.6875V44.637207z"/>
		<path style="fill:#032044;" d="M382.443359,28.394043c0-10.229492,7.873047-16.676758,17.420898-16.676758
			c9.609375,0,17.420898,6.385254,17.420898,16.676758c0,10.353516-7.75,16.987305-17.420898,16.987305
			C390.130859,45.381348,382.443359,38.80957,382.443359,28.394043z M407.613281,28.394043
			c0-5.393555-3.162109-8.989258-7.749023-8.989258c-4.650391,0-7.75,3.595703-7.75,8.989258
			c0,5.641602,3.162109,9.299316,7.75,9.299316C404.513672,37.693359,407.613281,34.097656,407.613281,28.394043z"/>
		<path style="fill:#032044;" d="M419.271484,28.394043c0-10.229492,7.873047-16.676758,17.420898-16.676758
			c9.609375,0,17.420898,6.385254,17.420898,16.676758c0,10.353516-7.75,16.987305-17.420898,16.987305
			C426.958984,45.381348,419.271484,38.80957,419.271484,28.394043z M444.441406,28.394043
			c0-5.393555-3.162109-8.989258-7.749023-8.989258c-4.650391,0-7.75,3.595703-7.75,8.989258
			c0,5.641602,3.162109,9.299316,7.75,9.299316C441.341797,37.693359,444.441406,34.097656,444.441406,28.394043z"/>
		<path style="fill:#032044;" d="M458.020508,0h9.422852v44.637207h-9.422852V0z"/>
		<path style="fill:#032044;" d="M0,95.394043c0-10.229492,7.874023-16.676758,17.420898-16.676758
			c9.609375,0,17.421875,6.385254,17.421875,16.676758c0,10.353516-7.75,16.987305-17.421875,16.987305
			C7.6875,112.381348,0,105.80957,0,95.394043z M25.170898,95.394043c0-5.393555-3.162109-8.989258-7.75-8.989258
			c-4.649414,0-7.749023,3.595703-7.749023,8.989258c0,5.641602,3.162109,9.299316,7.749023,9.299316
			C22.071289,104.693359,25.170898,101.097656,25.170898,95.394043z"/>
		<path style="fill:#032044;" d="M49.853516,86.404785v25.232422h-9.175781V86.404785H35.34668v-6.881836h5.331055v-3.409668
			c0-7.067871,4.030273-9.175293,10.105469-9.175293c2.417969,0,3.967773,0,6.137695,0.062012v6.943359
			c-1.301758-0.062012-2.541992-0.062012-3.905273-0.062012c-1.860352,0-3.162109,0.496094-3.162109,3.099609v2.541992h7.067383
			v6.881836H49.853516z"/>
		<path style="fill:#032044;" d="M75.335938,68.239746h18.660156c10.601562,0,16.119141,5.827637,16.119141,14.197266
			c0,8.617188-5.765625,14.444824-16.180664,14.444824h-8.493164v14.755371H75.335938V68.239746z M92.508789,88.822266
			c4.897461,0,7.439453-2.479492,7.439453-6.26123s-2.603516-6.261719-7.439453-6.261719h-7.067383v12.522949H92.508789z"/>
		<path style="fill:#032044;" d="M133.806641,107.855469c-2.108398,2.975586-5.456055,4.525879-9.423828,4.525879
			c-6.819336,0-11.717773-4.21582-11.717773-12.709473V79.522949h9.423828v18.413086c0,4.153809,2.169922,6.32373,5.580078,6.32373
			c3.037109,0,5.827148-2.169922,5.827148-7.315918V79.522949h9.423828v32.114258h-9.113281V107.855469z"/>
		<path style="fill:#032044;" d="M167.354492,112.319336c-4.463867,0-7.75-1.859863-9.610352-5.208008v4.525879h-9.174805V67
			h9.422852v16.304688c1.921875-2.913574,5.083984-4.525391,9.423828-4.525391c7.998047,0,14.817383,5.703613,14.817383,16.552734
			C182.233398,106.429688,175.351562,112.319336,167.354492,112.319336z M172.624023,95.332031
			c0-5.889648-3.223633-8.989258-7.37793-8.989258c-4.277344,0-7.439453,3.285645-7.439453,8.989258
			c0,6.013672,3.347656,9.42334,7.439453,9.42334C169.400391,104.755371,172.624023,101.345703,172.624023,95.332031z"/>
		<path style="fill:#032044;" d="M186.301758,67h9.422852v44.637207h-9.422852V67z"/>
		<path style="fill:#032044;" d="M201.311523,67h9.485352v7.811523h-9.485352V67z M201.311523,79.522949h9.422852v32.114258
			h-9.422852V79.522949z"/>
		<path style="fill:#032044;" d="M214.405273,95.394043c0-10.043457,7.811523-16.676758,17.048828-16.676758
			c8.370117,0,14.941406,4.959473,15.933594,12.646973h-9.299805c-0.743164-3.037598-3.40918-4.959473-6.633789-4.959473
			c-4.338867,0-7.376953,3.657715-7.376953,8.989258c0,5.517578,3.099609,9.299316,7.376953,9.299316
			c3.162109,0,5.704102-1.797852,6.572266-5.021484h9.361328c-1.240234,7.935547-7.874023,12.709473-15.995117,12.709473
			C221.96875,112.381348,214.405273,105.747559,214.405273,95.394043z"/>
		<path style="fill:#032044;" d="M266.361328,68.239746h10.105469v16.676758H295.375V68.239746h10.105469v43.397461H295.375
			V93.348145h-18.908203v18.289062h-10.105469V68.239746z"/>
		<path style="fill:#032044;" d="M327.082031,112.381348c-9.298828,0-17.110352-6.385742-17.110352-16.987305
			c0-10.291504,8.05957-16.676758,16.924805-16.676758c9.113281,0,16.615234,6.075684,16.615234,17.358887v1.921875h-24.117188
			c0.496094,4.649902,3.782227,7.439453,7.998047,7.439453c2.727539,0,5.456055-0.929688,6.757812-3.47168h9.051758
			C341.217773,109.157227,334.150391,112.381348,327.082031,112.381348z M319.333008,92.046387h14.693359
			c-0.30957-3.905762-3.223633-6.447754-7.253906-6.447754C322.928711,85.598633,319.829102,87.95459,319.333008,92.046387z"/>
		<path style="fill:#032044;" d="M367.450195,107.979492c-2.107422,2.604004-5.393555,4.339844-10.042969,4.339844
			c-6.076172,0-11.90332-3.472168-11.90332-10.043457c0-6.695801,5.393555-9.051758,13.886719-10.415527l7.37793-1.177734v-0.434082
			c0-3.47168-1.921875-4.835938-5.269531-4.835938c-3.410156,0-5.517578,1.611816-6.076172,4.587891h-8.802734
			c1.053711-7.005859,7.191406-11.283203,15.3125-11.283203c8.679688,0,14.135742,3.409668,14.073242,12.460938l-0.061523,13.63916
			c0,1.054199,0.061523,2.914062,0.248047,6.819824h-8.618164L367.450195,107.979492z M359.825195,105.623535
			c3.78125,0,6.943359-2.231934,6.943359-6.695801v-2.169922c-8.493164,1.054199-12.151367,1.984375-12.151367,5.083984
			C354.617188,104.321777,356.849609,105.623535,359.825195,105.623535z"/>
		<path style="fill:#032044;" d="M381.414062,67h9.422852v44.637207h-9.422852V67z"/>
		<path style="fill:#032044;" d="M398.543945,102.895508V86.404785h-5.208008v-6.881836h5.208008v-7.997559h9.237305v7.997559
			h7.128906v6.881836h-7.128906v14.320801c0,3.224121,0.991211,3.844238,3.533203,3.844238h3.595703v7.005371
			c-2.169922,0.124023-3.967773,0.124023-7.004883,0.124023C402.015625,111.699219,398.543945,109.963379,398.543945,102.895508z"/>
		<path style="fill:#032044;" d="M428.407227,111.637207h-9.422852V67h9.422852v13.577148c0,0.867676,0,1.673828,0,2.41748
			c2.045898-2.665527,5.456055-4.215332,9.423828-4.215332c7.005859,0,11.716797,4.215332,11.716797,12.833008v20.024902H440.125
			V93.286133c0-4.091797-2.108398-6.447266-5.641602-6.447266c-3.286133,0-6.076172,2.41748-6.076172,7.6875V111.637207z"/>
	</g>
</g>
<g>
</g>
<g>
</g>
<g>
</g>
<g>
</g>
<g>
</g>
<g>
</g>
<g>
</g>
<g>
</g>
<g>
</g>
<g>
</g>
<g>
</g>
<g>
</g>
<g>
</g>
<g>
</g>
<g>
</g>
</svg>
