<?xml version="1.0" encoding="iso-8859-1"?>
<!-- Generator: Adobe Illustrator 30.2.1, SVG Export Plug-In . SVG Version: 9.03 Build 0)  -->
<svg version="1.1" id="Layer_1" xmlns="http://www.w3.org/2000/svg" xmlns:xlink="http://www.w3.org/1999/xlink" x="0px" y="0px"
	 viewBox="0 0 512.447 69.316" style="enable-background:new 0 0 512.447 69.316;" xml:space="preserve">
<g id="UnitName_00000083051636230227074460000000021105607283046073_">
	<g>
		<path style="fill:#032044;" d="M1.798,38.998h9.857c0.62,4.65,4.216,6.82,8.928,6.82c4.339,0,7.625-1.798,7.625-5.084
			c0-2.852-2.666-4.278-7.439-5.27l-4.34-0.93C7.191,32.613,2.852,28.459,2.852,21.825c0-7.936,7.625-13.453,16.925-13.453
			c9.485,0,16.677,4.898,17.545,13.515h-9.795c-0.558-3.72-3.534-5.89-7.812-5.89c-3.968,0-7.067,2.046-7.067,4.96
			c0,2.604,1.922,3.72,6.261,4.588l4.836,1.054c8.742,1.736,14.383,5.642,14.383,13.205c0,8.927-8.37,13.639-17.607,13.639
			C10.478,53.443,2.666,48.856,1.798,38.998z"/>
		<path style="fill:#032044;" d="M40.491,36.456c0-10.043,7.812-16.677,17.049-16.677c8.37,0,14.941,4.96,15.933,12.647h-9.299
			c-0.744-3.038-3.41-4.96-6.634-4.96c-4.339,0-7.377,3.658-7.377,8.99c0,5.518,3.1,9.3,7.377,9.3c3.162,0,5.704-1.798,6.572-5.022
			h9.361c-1.24,7.936-7.874,12.709-15.995,12.709C48.055,53.443,40.491,46.81,40.491,36.456z"/>
		<path style="fill:#032044;" d="M86.575,52.699h-9.423V8.062h9.423v13.577c0,0.868,0,1.674,0,2.418
			c2.046-2.666,5.456-4.216,9.424-4.216c7.005,0,11.717,4.216,11.717,12.833v20.025h-9.424V34.348c0-4.092-2.107-6.448-5.642-6.448
			c-3.286,0-6.076,2.418-6.076,7.688V52.699z"/>
		<path style="fill:#032044;" d="M111.22,36.456c0-10.229,7.874-16.677,17.421-16.677c9.609,0,17.421,6.386,17.421,16.677
			c0,10.354-7.75,16.987-17.421,16.987C118.908,53.443,111.22,46.872,111.22,36.456z M136.391,36.456c0-5.394-3.162-8.99-7.75-8.99
			c-4.649,0-7.75,3.596-7.75,8.99c0,5.642,3.162,9.3,7.75,9.3C133.291,45.756,136.391,42.16,136.391,36.456z"/>
		<path style="fill:#032044;" d="M148.048,36.456c0-10.229,7.874-16.677,17.421-16.677c9.609,0,17.421,6.386,17.421,16.677
			c0,10.354-7.75,16.987-17.421,16.987C155.735,53.443,148.048,46.872,148.048,36.456z M173.218,36.456
			c0-5.394-3.162-8.99-7.75-8.99c-4.649,0-7.75,3.596-7.75,8.99c0,5.642,3.162,9.3,7.75,9.3
			C170.119,45.756,173.218,42.16,173.218,36.456z"/>
		<path style="fill:#032044;" d="M186.797,8.062h9.423v44.637h-9.423V8.062z"/>
		<path style="fill:#032044;" d="M215.007,36.456c0-10.229,7.874-16.677,17.421-16.677c9.609,0,17.421,6.386,17.421,16.677
			c0,10.354-7.75,16.987-17.421,16.987C222.694,53.443,215.007,46.872,215.007,36.456z M240.177,36.456
			c0-5.394-3.162-8.99-7.75-8.99c-4.649,0-7.75,3.596-7.75,8.99c0,5.642,3.162,9.3,7.75,9.3
			C237.078,45.756,240.177,42.16,240.177,36.456z"/>
		<path style="fill:#032044;" d="M264.86,27.467v25.233h-9.175V27.467h-5.332v-6.882h5.332v-3.41c0-7.068,4.03-9.176,10.105-9.176
			c2.418,0,3.968,0,6.138,0.062v6.944c-1.302-0.062-2.542-0.062-3.906-0.062c-1.86,0-3.162,0.496-3.162,3.1v2.542h7.068v6.882
			H264.86z"/>
		<path style="fill:#032044;" d="M300.014,22.693v30.006h-9.671V9.302h11.965l17.793,30.068V9.302h9.609v43.397h-11.903
			L300.014,22.693z"/>
		<path style="fill:#032044;" d="M356.966,48.918c-2.108,2.976-5.456,4.526-9.424,4.526c-6.819,0-11.717-4.216-11.717-12.709V20.585
			h9.423v18.413c0,4.154,2.17,6.323,5.58,6.323c3.038,0,5.827-2.17,5.827-7.315V20.585h9.424v32.114h-9.113V48.918z"/>
		<path style="fill:#032044;" d="M381.151,52.699h-9.423V20.585h9.113v4.774c0.558-0.992,1.302-1.922,2.231-2.728
			c1.86-1.488,3.658-2.294,6.696-2.294c0.806,0,1.735,0.062,2.293,0.186v8.68c-1.487-0.186-2.231-0.186-3.161-0.186
			c-3.534,0-7.75,1.302-7.75,7.377V52.699z"/>
		<path style="fill:#032044;" d="M393.136,42.532h8.741c0.496,2.976,3.038,4.402,6.51,4.402c2.729,0,5.146-0.992,5.146-3.224
			c0-1.984-1.798-2.852-5.827-3.534l-3.348-0.62c-6.572-1.178-10.664-4.092-10.664-9.237c0-6.572,6.076-10.602,13.825-10.602
			c7.378,0,13.454,3.72,14.321,10.292h-8.617c-0.62-2.418-2.728-3.782-5.89-3.782c-2.728,0-4.773,1.24-4.773,3.162
			c0,1.798,1.611,2.48,5.083,3.1l3.286,0.558c7.315,1.302,11.655,4.154,11.655,9.733c0,7.068-6.695,10.663-14.383,10.663
			C400.327,53.443,394.065,50.034,393.136,42.532z"/>
		<path style="fill:#032044;" d="M426.461,8.062h9.485v7.812h-9.485V8.062z M426.461,20.585h9.423v32.114h-9.423V20.585z"/>
		<path style="fill:#032044;" d="M450.918,52.699h-9.423V20.585h9.113v3.906c2.046-2.976,5.579-4.65,9.733-4.65
			c7.006,0,11.717,4.216,11.717,12.833v20.025h-9.423V34.348c0-4.092-2.108-6.448-5.642-6.448c-3.286,0-6.076,2.418-6.076,7.688
			V52.699z"/>
		<path style="fill:#032044;" d="M492.668,65.161c-9.299,0-15.003-4.278-16.057-11.097h9.175c0.683,2.79,3.101,4.34,6.944,4.34
			c3.968,0,6.571-1.984,6.571-6.448v-4.65c-1.86,2.852-5.084,4.526-9.424,4.526c-7.749,0-14.197-5.766-14.197-16.119
			c0-10.043,6.696-15.871,14.321-15.871c4.464,0,7.626,1.798,9.485,4.96v-4.216h9.176v30.75
			C508.663,60.883,501.596,65.161,492.668,65.161z M499.363,35.712c0-5.332-3.1-8.493-7.005-8.493c-4.03,0-7.006,3.286-7.006,8.493
			c0,5.518,2.976,8.741,7.006,8.741C496.326,44.454,499.363,41.168,499.363,35.712z"/>
	</g>
</g>
<g>
</g>
<g>
</g>
<g>
</g>
<g>
</g>
<g>
</g>
<g>
</g>
<g>
</g>
<g>
</g>
<g>
</g>
<g>
</g>
<g>
</g>
<g>
</g>
<g>
</g>
<g>
</g>
<g>
</g>
</svg>
