<?xml version="1.0" encoding="iso-8859-1"?>
<!-- Generator: Adobe Illustrator 30.2.1, SVG Export Plug-In . SVG Version: 9.03 Build 0)  -->
<svg version="1.1" id="Layer_1" xmlns="http://www.w3.org/2000/svg" xmlns:xlink="http://www.w3.org/1999/xlink" x="0px" y="0px"
	 viewBox="0 0 393.637 136.315" style="enable-background:new 0 0 393.637 136.315;" xml:space="preserve">
<g id="UnitName_00000155828925717603015420000013519887324746876054_">
	<g>
		<path style="fill:#032044;" d="M14.693,17.733H1.363V9.302h36.765v8.432H24.799v34.966H14.693V17.733z"/>
		<path style="fill:#032044;" d="M50.268,52.699h-9.423V8.062h9.423v13.577c0,0.868,0,1.674,0,2.417
			c2.046-2.666,5.456-4.215,9.424-4.215c7.006,0,11.718,4.215,11.718,12.833v20.025h-9.424V34.348c0-4.092-2.107-6.447-5.642-6.447
			c-3.286,0-6.076,2.417-6.076,7.688V52.699z"/>
		<path style="fill:#032044;" d="M92.024,53.443c-9.3,0-17.111-6.386-17.111-16.987c0-10.292,8.06-16.677,16.926-16.677
			c9.113,0,16.614,6.076,16.614,17.359v1.922H84.337c0.496,4.65,3.781,7.439,7.997,7.439c2.729,0,5.456-0.93,6.758-3.472h9.052
			C106.159,50.219,99.092,53.443,92.024,53.443z M84.274,33.108h14.693c-0.31-3.906-3.224-6.448-7.253-6.448
			C87.871,26.661,84.771,29.017,84.274,33.108z"/>
		<path style="fill:#032044;" d="M148.505,29.017h19.839v23.683h-8.431l-0.062-4.959c-2.728,3.224-7.439,5.642-13.329,5.642
			c-11.035,0-20.955-8.556-20.955-22.567c0-14.135,10.354-22.443,22.691-22.443c10.167,0,18.536,5.518,20.024,14.445h-9.981
			c-1.116-3.72-4.897-6.138-10.043-6.138c-7.378,0-12.399,5.332-12.399,14.135c0,8.99,5.146,14.321,12.275,14.321
			c5.455,0,10.167-3.534,10.849-8.432v-0.062h-10.478V29.017z"/>
		<path style="fill:#032044;" d="M183.82,52.699h-9.423V20.585h9.113v4.774c0.558-0.992,1.302-1.922,2.231-2.728
			c1.86-1.488,3.658-2.294,6.696-2.294c0.806,0,1.735,0.062,2.294,0.186v8.68c-1.488-0.186-2.232-0.186-3.162-0.186
			c-3.534,0-7.75,1.302-7.75,7.377V52.699z"/>
		<path style="fill:#032044;" d="M217.522,49.042c-2.108,2.604-5.394,4.34-10.044,4.34c-6.075,0-11.903-3.472-11.903-10.043
			c0-6.696,5.394-9.052,13.888-10.416l7.377-1.178v-0.434c0-3.472-1.922-4.836-5.27-4.836c-3.409,0-5.518,1.612-6.075,4.588h-8.804
			c1.054-7.006,7.191-11.283,15.313-11.283c8.679,0,14.135,3.41,14.073,12.461l-0.062,13.639c0,1.054,0.062,2.914,0.248,6.82h-8.617
			L217.522,49.042z M209.896,46.686c3.782,0,6.943-2.232,6.943-6.696v-2.17c-8.493,1.054-12.151,1.984-12.151,5.084
			C204.688,45.384,206.921,46.686,209.896,46.686z"/>
		<path style="fill:#032044;" d="M254.194,48.173c-1.922,3.348-5.208,5.208-9.671,5.208c-7.998,0-14.88-5.828-14.88-16.987
			c0-10.725,7.13-16.553,15.003-16.553c4.154,0,7.316,1.55,9.238,4.339V8.062h9.423v44.637h-9.113V48.173z M254.07,36.394
			c0-5.704-3.162-8.989-7.378-8.989c-4.277,0-7.377,3.286-7.377,8.989c0,5.952,3.1,9.423,7.377,9.423
			C250.784,45.817,254.07,42.408,254.07,36.394z"/>
		<path style="fill:#032044;" d="M289.875,48.917c-2.107,2.976-5.456,4.526-9.424,4.526c-6.819,0-11.717-4.216-11.717-12.709V20.585
			h9.424v18.413c0,4.154,2.169,6.324,5.579,6.324c3.038,0,5.828-2.17,5.828-7.316V20.585h9.423v32.114h-9.113V48.917z"/>
		<path style="fill:#032044;" d="M324.873,49.042c-2.107,2.604-5.394,4.34-10.043,4.34c-6.076,0-11.903-3.472-11.903-10.043
			c0-6.696,5.394-9.052,13.887-10.416l7.378-1.178v-0.434c0-3.472-1.922-4.836-5.27-4.836c-3.41,0-5.518,1.612-6.076,4.588h-8.804
			c1.055-7.006,7.192-11.283,15.313-11.283c8.68,0,14.136,3.41,14.073,12.461l-0.062,13.639c0,1.054,0.062,2.914,0.247,6.82h-8.617
			L324.873,49.042z M317.248,46.686c3.781,0,6.943-2.232,6.943-6.696v-2.17c-8.494,1.054-12.151,1.984-12.151,5.084
			C312.04,45.384,314.271,46.686,317.248,46.686z"/>
		<path style="fill:#032044;" d="M340.591,43.958V27.467h-5.208v-6.882h5.208v-7.998h9.237v7.998h7.13v6.882h-7.13v14.321
			c0,3.224,0.992,3.844,3.534,3.844h3.596v7.005c-2.17,0.124-3.968,0.124-7.006,0.124C344.062,52.761,340.591,51.025,340.591,43.958
			z"/>
		<path style="fill:#032044;" d="M375.284,53.443c-9.299,0-17.11-6.386-17.11-16.987c0-10.292,8.059-16.677,16.925-16.677
			c9.113,0,16.615,6.076,16.615,17.359v1.922h-24.117c0.496,4.65,3.782,7.439,7.998,7.439c2.728,0,5.455-0.93,6.757-3.472h9.052
			C389.42,50.219,382.352,53.443,375.284,53.443z M367.535,33.108h14.692c-0.31-3.906-3.224-6.448-7.253-6.448
			C371.131,26.661,368.031,29.017,367.535,33.108z"/>
		<path style="fill:#032044;" d="M1.798,105.998h9.857c0.62,4.65,4.216,6.819,8.928,6.819c4.339,0,7.625-1.798,7.625-5.083
			c0-2.852-2.666-4.278-7.439-5.27l-4.34-0.93C7.191,99.612,2.852,95.458,2.852,88.825c0-7.936,7.626-13.454,16.925-13.454
			c9.485,0,16.678,4.898,17.545,13.516h-9.795c-0.559-3.72-3.534-5.89-7.812-5.89c-3.968,0-7.067,2.045-7.067,4.959
			c0,2.604,1.922,3.72,6.261,4.588l4.836,1.054c8.742,1.736,14.384,5.642,14.384,13.206c0,8.927-8.37,13.639-17.607,13.639
			C10.478,120.443,2.666,115.855,1.798,105.998z"/>
		<path style="fill:#032044;" d="M40.491,103.456c0-10.043,7.812-16.677,17.049-16.677c8.369,0,14.941,4.959,15.933,12.647h-9.299
			c-0.744-3.038-3.41-4.959-6.634-4.959c-4.34,0-7.378,3.658-7.378,8.989c0,5.518,3.101,9.299,7.378,9.299
			c3.162,0,5.704-1.798,6.571-5.021h9.361c-1.239,7.936-7.873,12.709-15.994,12.709C48.055,120.443,40.491,113.81,40.491,103.456z"
			/>
		<path style="fill:#032044;" d="M86.574,119.699h-9.423V75.062h9.423v13.577c0,0.868,0,1.674,0,2.417
			c2.046-2.666,5.456-4.215,9.424-4.215c7.006,0,11.718,4.215,11.718,12.833v20.025h-9.424v-18.351c0-4.092-2.107-6.447-5.642-6.447
			c-3.286,0-6.076,2.417-6.076,7.688V119.699z"/>
		<path style="fill:#032044;" d="M111.22,103.456c0-10.229,7.874-16.677,17.421-16.677c9.609,0,17.422,6.385,17.422,16.677
			c0,10.354-7.75,16.987-17.422,16.987C118.907,120.443,111.22,113.872,111.22,103.456z M136.391,103.456
			c0-5.394-3.162-8.989-7.75-8.989c-4.649,0-7.749,3.596-7.749,8.989c0,5.642,3.162,9.299,7.749,9.299
			C133.291,112.755,136.391,109.16,136.391,103.456z"/>
		<path style="fill:#032044;" d="M148.048,103.456c0-10.229,7.873-16.677,17.421-16.677c9.609,0,17.421,6.385,17.421,16.677
			c0,10.354-7.75,16.987-17.421,16.987C155.735,120.443,148.048,113.872,148.048,103.456z M173.218,103.456
			c0-5.394-3.161-8.989-7.749-8.989c-4.649,0-7.75,3.596-7.75,8.989c0,5.642,3.162,9.299,7.75,9.299
			C170.118,112.755,173.218,109.16,173.218,103.456z"/>
		<path style="fill:#032044;" d="M186.797,75.062h9.424v44.637h-9.424V75.062z"/>
	</g>
</g>
<g>
</g>
<g>
</g>
<g>
</g>
<g>
</g>
<g>
</g>
<g>
</g>
<g>
</g>
<g>
</g>
<g>
</g>
<g>
</g>
<g>
</g>
<g>
</g>
<g>
</g>
<g>
</g>
<g>
</g>
</svg>
