<svg width="279" height="50" viewBox="0 0 279 50" fill="none" xmlns="http://www.w3.org/2000/svg">
<g clip-path="url(#clip0_172_424)">
<path d="M24.0594 10.7195C24.1422 11.5102 24.3515 12.5102 24.5171 13.218C26.6823 21.6279 35.8399 24.8765 47.5361 22.4608V13.8416C38.2535 15.7573 26.7651 14.6744 24.1422 4.09886H23.3924C20.771 14.6744 9.28256 15.7573 0 13.8416V22.4608C11.6962 24.875 20.8553 21.6279 23.019 13.218C23.1861 12.5102 23.3939 11.5117 23.4767 10.7195H24.0594ZM24.1437 18.6294C26.3495 27.9564 36.132 30.5785 47.3297 28.3721C46.7049 31.7864 45.3317 35.0335 43.2087 37.6992C30.7205 38.3648 25.1434 33.5771 24.0608 25.25H23.4781C22.3956 33.5771 16.8185 38.3648 4.33031 37.6992C2.2073 35.0349 0.834094 31.7864 0.20925 28.3721C11.407 30.5785 21.188 27.9564 23.3953 18.6294H24.1451H24.1437ZM24.3093 0.0189209C27.8477 9.13665 39.7531 9.51165 47.5361 7.93026V0.0189209H24.3093ZM23.2267 0.0189209H0V7.93026C7.78439 9.51165 19.6884 9.13665 23.2267 0.0189209ZM23.436 33.1614C21.8129 39.407 16.4843 42.6541 11.4899 43.3212L23.7688 49.9826L36.0477 43.3212C31.0533 42.6555 25.7247 39.407 24.1015 33.1614H23.436Z" fill="#F55600"/>
<path d="M61.998 36.2006H59.2705V34.7878H66.4068V36.2006H63.6793V43.3139H61.9995V36.2006H61.998ZM69.0602 43.3154H67.501V34.545H69.0602V37.7369C69.4627 37.1773 70.1326 36.8605 70.9231 36.8605C72.3109 36.8605 73.2132 37.7253 73.2132 39.3823V43.3168H71.654V39.6134C71.654 38.7485 71.1905 38.2006 70.4 38.2006C69.6821 38.2006 69.0602 38.7485 69.0602 39.8939V43.3168V43.3154ZM77.4753 43.4491C75.685 43.4491 74.1868 42.2064 74.1868 40.1119C74.1868 38.0174 75.733 36.859 77.4142 36.859C79.0955 36.859 80.5806 38.016 80.5806 40.2573V40.5988H75.7707C75.8928 41.5974 76.6237 42.2195 77.5247 42.2195C78.1088 42.2195 78.6944 42.0247 78.9865 41.4636H80.521C80.1316 42.8517 78.7802 43.4491 77.4767 43.4491H77.4753ZM75.7591 39.4898H78.9749C78.9022 38.6366 78.2687 38.077 77.3924 38.077C76.5641 38.077 75.8696 38.6003 75.7606 39.4898H75.7591ZM84.8063 39.9171V34.7892H86.4875V39.8328C86.4875 41.2209 87.2548 42.0014 88.3868 42.0014C89.5188 42.0014 90.2744 41.234 90.2744 39.8459V34.7907H91.9542V39.907C91.9542 42.173 90.4691 43.4637 88.3737 43.4637C86.2783 43.4637 84.8048 42.1962 84.8048 39.9186L84.8063 39.9171ZM94.9026 43.3154H93.3434V37.0058H94.8779V37.7616C95.2804 37.1889 95.9619 36.8605 96.7655 36.8605C98.1532 36.8605 99.0556 37.7253 99.0556 39.3823V43.3168H97.4964V39.6134C97.4964 38.7485 97.0343 38.2006 96.2424 38.2006C95.5245 38.2006 94.9026 38.7485 94.9026 39.8939V43.3168V43.3154ZM100.481 34.545H102.064V36.0073H100.481V34.545ZM100.493 37.0058H102.052V43.3154H100.493V37.0058ZM106.887 43.3154H105.23L102.892 37.0058H104.524L106.095 41.6221L107.677 37.0058H109.223L106.885 43.3154H106.887ZM112.695 43.4491C110.904 43.4491 109.406 42.2064 109.406 40.1119C109.406 38.0174 110.952 36.859 112.634 36.859C114.315 36.859 115.8 38.016 115.8 40.2573V40.5988H110.99C111.112 41.5974 111.843 42.2195 112.744 42.2195C113.328 42.2195 113.914 42.0247 114.206 41.4636H115.74C115.351 42.8517 114 43.4491 112.696 43.4491H112.695ZM110.979 39.4898H114.194C114.122 38.6366 113.488 38.077 112.612 38.077C111.784 38.077 111.089 38.6003 110.98 39.4898H110.979ZM118.468 43.3154H116.909V37.0058H118.432V37.968C118.565 37.7485 118.724 37.5421 118.931 37.3706C119.309 37.0785 119.662 36.9564 120.21 36.9564C120.38 36.9564 120.539 36.968 120.649 36.9927V38.4666C120.344 38.4418 120.199 38.4419 120.027 38.4419C119.346 38.4419 118.468 38.686 118.468 39.9157V43.3139V43.3154ZM121.171 41.3169H122.644C122.753 41.9869 123.326 42.2907 124.057 42.2907C124.654 42.2907 125.226 42.0596 125.226 41.5596C125.226 41.109 124.801 40.9142 123.959 40.7674L123.326 40.6584C122.059 40.4273 121.291 39.8546 121.291 38.8677C121.291 37.6003 122.448 36.8459 123.874 36.8459C125.299 36.8459 126.406 37.5523 126.565 38.8198H125.116C124.969 38.2834 124.507 38.016 123.837 38.016C123.228 38.016 122.765 38.2965 122.765 38.7224C122.765 39.125 123.118 39.2703 123.837 39.4041L124.471 39.5131C125.859 39.7573 126.723 40.3052 126.723 41.4012C126.723 42.7413 125.444 43.4593 124.032 43.4593C122.545 43.4593 121.329 42.7776 121.171 41.3154V41.3169ZM127.918 34.545H129.5V36.0073H127.918V34.545ZM127.931 37.0058H129.49V43.3154H127.931V37.0058ZM131.511 41.6221V38.1991H130.452V37.0058H131.511V35.4709H133.057V37.0058H134.519V38.1991H133.057V41.3169C133.057 41.9869 133.265 42.0959 133.764 42.0959H134.519V43.3023C134.069 43.327 133.801 43.327 133.265 43.327C132.193 43.327 131.511 43.0102 131.511 41.6221ZM138.197 45.6293H136.59L137.735 42.8648L135.214 37.0058H136.87L138.502 41.1105L140.012 37.0058H141.594L138.197 45.6293ZM145.003 40.1235C145.003 38.1381 146.502 36.859 148.328 36.859C150.155 36.859 151.641 38.1134 151.641 40.1235C151.641 42.1337 150.156 43.4491 148.328 43.4491C146.5 43.4491 145.003 42.17 145.003 40.1235ZM150.034 40.1235C150.034 38.9782 149.34 38.1744 148.33 38.1744C147.32 38.1744 146.612 38.9666 146.612 40.1235C146.612 41.2805 147.307 42.1337 148.33 42.1337C149.353 42.1337 150.034 41.3299 150.034 40.1235ZM154.697 38.1991V43.3154H153.176V38.1991H152.092V37.0058H153.176V36.3241C153.176 34.936 153.931 34.5218 155.088 34.5218C155.491 34.5218 155.77 34.5334 156.123 34.5465V35.7529C155.892 35.7413 155.648 35.7282 155.405 35.7282C155.002 35.7282 154.699 35.8503 154.699 36.423V37.0073H156.124V38.2006H154.699L154.697 38.1991ZM162.345 36.2006H159.617V34.7878H166.754V36.2006H164.026V43.3139H162.346V36.2006H162.345ZM169.762 43.4491C167.972 43.4491 166.473 42.2064 166.473 40.1119C166.473 38.0174 168.019 36.859 169.701 36.859C171.382 36.859 172.867 38.016 172.867 40.2573V40.5988H168.057C168.179 41.5974 168.91 42.2195 169.811 42.2195C170.395 42.2195 170.981 42.0247 171.273 41.4636H172.808C172.418 42.8517 171.067 43.4491 169.763 43.4491H169.762ZM168.046 39.4898H171.261C171.189 38.6366 170.555 38.077 169.679 38.077C168.851 38.077 168.156 38.6003 168.047 39.4898H168.046ZM176.228 41.1105L174.803 43.3154H173.085L175.278 40.1366L173.134 37.0058H174.913L176.301 39.1381L177.665 37.0058H179.37L177.238 40.0756L179.418 43.3154H177.628L176.227 41.1105H176.228ZM184.011 42.5349C183.597 43.1075 182.939 43.4491 182.001 43.4491C180.832 43.4491 179.7 42.7907 179.7 41.5C179.7 40.2093 180.795 39.6977 182.464 39.4288L183.901 39.1977V39.125C183.901 38.3328 183.462 38.0291 182.719 38.0291C181.977 38.0291 181.526 38.3823 181.391 39.0276H179.905C180.088 37.6875 181.269 36.859 182.779 36.859C184.289 36.859 185.445 37.4796 185.434 39.234L185.409 42.0116C185.409 42.2195 185.421 42.548 185.47 43.3154H184.033L184.008 42.5363L184.011 42.5349ZM182.355 42.2674C183.208 42.2674 183.901 41.7558 183.901 40.7456V40.3067C182.013 40.5509 181.221 40.7456 181.221 41.4273C181.221 41.9753 181.696 42.2674 182.353 42.2674H182.355ZM186.386 41.3169H187.859C187.968 41.9869 188.54 42.2907 189.271 42.2907C189.869 42.2907 190.441 42.0596 190.441 41.5596C190.441 41.109 190.015 40.9142 189.174 40.7674L188.54 40.6584C187.273 40.4273 186.506 39.8546 186.506 38.8677C186.506 37.6003 187.663 36.8459 189.088 36.8459C190.514 36.8459 191.621 37.5523 191.78 38.8198H190.331C190.184 38.2834 189.722 38.016 189.052 38.016C188.443 38.016 187.98 38.2965 187.98 38.7224C187.98 39.125 188.333 39.2703 189.052 39.4041L189.686 39.5131C191.073 39.7573 191.938 40.3052 191.938 41.4012C191.938 42.7413 190.659 43.4593 189.247 43.4593C187.76 43.4593 186.544 42.7776 186.386 41.3154V41.3169ZM200.11 42.5349C199.696 43.1075 199.038 43.4491 198.101 43.4491C196.931 43.4491 195.799 42.7907 195.799 41.5C195.799 40.2093 196.895 39.6977 198.563 39.4288L200 39.1977V39.125C200 38.3328 199.561 38.0291 198.818 38.0291C198.076 38.0291 197.625 38.3823 197.49 39.0276H196.005C196.188 37.6875 197.368 36.859 198.879 36.859C200.391 36.859 201.546 37.4796 201.534 39.234L201.51 42.0116C201.51 42.2195 201.521 42.548 201.571 43.3154H200.134L200.109 42.5363L200.11 42.5349ZM198.454 42.2674C199.307 42.2674 200 41.7558 200 40.7456V40.3067C198.112 40.5509 197.32 40.7456 197.32 41.4273C197.32 41.9753 197.795 42.2674 198.452 42.2674H198.454ZM203.227 41.6221V38.1991H202.168V37.0058H203.227V35.4709H204.773V37.0058H206.235V38.1991H204.773V41.3169C204.773 41.9869 204.981 42.0959 205.48 42.0959H206.235V43.3023C205.785 43.327 205.517 43.327 204.981 43.327C203.909 43.327 203.227 43.0102 203.227 41.6221ZM209.974 40.6468H211.606C211.753 41.6453 212.543 42.1337 213.543 42.1337C214.543 42.1337 215.236 41.7078 215.236 40.9884C215.236 40.343 214.627 40.0145 213.616 39.8067L212.739 39.6119C211.046 39.2471 210.207 38.4666 210.207 37.2006C210.207 35.6657 211.655 34.6061 213.421 34.6061C215.186 34.6061 216.576 35.5567 216.746 37.2122H215.114C214.992 36.42 214.358 35.9448 213.421 35.9448C212.545 35.9448 211.838 36.3953 211.838 37.0654C211.838 37.6381 212.253 37.8939 213.167 38.0886L214.165 38.2965C215.821 38.6381 216.892 39.3924 216.892 40.8183C216.892 42.5843 215.285 43.4622 213.543 43.4622C211.644 43.4622 210.146 42.548 209.976 40.6482L209.974 40.6468ZM222.019 42.5349C221.605 43.1075 220.947 43.4491 220.009 43.4491C218.84 43.4491 217.708 42.7907 217.708 41.5C217.708 40.2093 218.803 39.6977 220.471 39.4288L221.909 39.1977V39.125C221.909 38.3328 221.47 38.0291 220.727 38.0291C219.985 38.0291 219.534 38.3823 219.399 39.0276H217.913C218.096 37.6875 219.277 36.859 220.787 36.859C222.297 36.859 223.453 37.4796 223.442 39.234L223.417 42.0116C223.417 42.2195 223.429 42.548 223.478 43.3154H222.041L222.016 42.5363L222.019 42.5349ZM220.362 42.2674C221.215 42.2674 221.909 41.7558 221.909 40.7456V40.3067C220.021 40.5509 219.229 40.7456 219.229 41.4273C219.229 41.9753 219.704 42.2674 220.361 42.2674H220.362ZM226.317 43.3154H224.758V37.0058H226.293V37.7616C226.695 37.1889 227.377 36.8605 228.18 36.8605C229.568 36.8605 230.47 37.7253 230.47 39.3823V43.3168H228.911V39.6134C228.911 38.7485 228.448 38.2006 227.657 38.2006C226.939 38.2006 226.317 38.7485 226.317 39.8939V43.3168V43.3154ZM240.347 41.3299H236.681L235.95 43.3154H234.257L237.594 34.7892H239.518L242.842 43.3154H241.077L240.346 41.3299H240.347ZM239.836 39.9535L238.521 36.3968L237.193 39.9535H239.836ZM245.279 43.3154H243.72V37.0058H245.255V37.7616C245.657 37.1889 246.339 36.8605 247.142 36.8605C248.53 36.8605 249.432 37.7253 249.432 39.3823V43.3168H247.873V39.6134C247.873 38.7485 247.411 38.2006 246.619 38.2006C245.901 38.2006 245.279 38.7485 245.279 39.8939V43.3168V43.3154ZM251.368 41.6221V38.1991H250.308V37.0058H251.368V35.4709H252.914V37.0058H254.376V38.1991H252.914V41.3169C252.914 41.9869 253.122 42.0959 253.62 42.0959H254.376V43.3023C253.925 43.327 253.658 43.327 253.122 43.327C252.049 43.327 251.368 43.0102 251.368 41.6221ZM254.912 40.1235C254.912 38.1381 256.41 36.859 258.237 36.859C260.063 36.859 261.55 38.1134 261.55 40.1235C261.55 42.1337 260.065 43.4491 258.237 43.4491C256.409 43.4491 254.912 42.17 254.912 40.1235ZM259.941 40.1235C259.941 38.9782 259.247 38.1744 258.237 38.1744C257.227 38.1744 256.519 38.9666 256.519 40.1235C256.519 41.2805 257.214 42.1337 258.237 42.1337C259.26 42.1337 259.941 41.3299 259.941 40.1235ZM264.155 43.3154H262.596V37.0058H264.131V37.7616C264.533 37.1889 265.215 36.8605 266.018 36.8605C267.406 36.8605 268.308 37.7253 268.308 39.3823V43.3168H266.749V39.6134C266.749 38.7485 266.286 38.2006 265.495 38.2006C264.777 38.2006 264.155 38.7485 264.155 39.8939V43.3168V43.3154ZM269.673 34.545H271.255V36.0073H269.673V34.545ZM269.684 37.0058H271.244V43.3154H269.684V37.0058ZM272.364 40.1235C272.364 38.1381 273.862 36.859 275.689 36.859C277.515 36.859 279.002 38.1134 279.002 40.1235C279.002 42.1337 277.517 43.4491 275.689 43.4491C273.861 43.4491 272.364 42.17 272.364 40.1235ZM277.393 40.1235C277.393 38.9782 276.699 38.1744 275.689 38.1744C274.679 38.1744 273.971 38.9666 273.971 40.1235C273.971 41.2805 274.666 42.1337 275.689 42.1337C276.712 42.1337 277.393 41.3299 277.393 40.1235Z" fill="#032044"/>
<path d="M136.31 10.4956C135.168 9.05521 133.172 8.25579 131.243 8.25579C126.038 8.25579 122.969 12.4128 122.969 17.4636C122.969 22.5145 125.883 26.6715 131.204 26.6715C133.135 26.6715 135.158 25.8706 136.309 24.4273L136.447 26.2834H140.603V8.64387H136.447L136.309 10.4942L136.31 10.4956ZM131.944 23.0581C129.146 23.0581 127.4 20.5712 127.4 17.4636C127.4 14.3561 129.148 11.8692 131.944 11.8692C134.106 11.8692 135.478 13.2543 136.255 14.8183V20.109C135.478 21.6729 134.106 23.0581 131.944 23.0581ZM159.637 15.0552V26.2834H155.287V15.4433C155.287 13.6177 154.238 12.1017 152.257 12.1017C150.157 12.1017 148.406 13.8357 147.595 15.5712V26.2834H143.245V8.72236H147.44L147.562 11.1613C148.909 9.21945 151.062 8.37207 153.188 8.37207C157.305 8.37207 159.636 11.0523 159.636 15.0552H159.637ZM73.5237 4.09881H78.1069V17.8139C78.1069 23.7965 74.1064 26.6715 68.5904 26.6715C62.7633 26.6715 59.2686 23.5247 59.2686 17.968V4.09881H63.8517V17.5029C63.8517 20.9607 65.8716 22.7093 68.7066 22.7093C71.5416 22.7093 73.5237 20.9607 73.5237 17.5029V4.09881ZM109.414 10.0814C109.414 11.7514 111.123 12.4128 113.57 12.8401C117.882 13.5785 121.805 14.9375 121.805 19.9113C121.805 24.4564 118.154 26.6715 113.104 26.6715C107.277 26.6715 103.82 23.4854 103.975 18.3183H108.637C108.676 21.2325 110.307 22.8633 113.104 22.8633C115.396 22.8633 116.911 22.1642 116.911 20.2994C116.911 18.4346 115.474 17.6192 112.444 17.1133C108.793 16.4913 104.52 15.3648 104.52 10.4694C104.52 6.15695 108.172 3.70928 112.911 3.70928C118.037 3.70928 121.728 6.468 121.805 11.0131H117.144C117.067 8.99271 115.512 7.51596 112.909 7.51596C110.889 7.51596 109.413 8.4491 109.413 10.0799L109.414 10.0814ZM80.0497 4.09881H98.9272V8.79939L91.7808 7.0116V26.2819H87.1976V7.01305L80.0511 8.80084V4.09881H80.0497ZM226.135 8.33282C220.698 8.33282 217.318 12.0232 217.318 17.5014C217.318 22.9796 220.698 26.67 226.135 26.67C231.573 26.67 234.953 22.9796 234.953 17.5014C234.953 12.0232 231.573 8.33282 226.135 8.33282ZM226.135 23.1366C223.3 23.1366 221.708 20.6889 221.708 17.5029C221.708 14.3168 223.3 11.8692 226.135 11.8692C228.97 11.8692 230.563 14.3168 230.563 17.5029C230.563 20.6889 228.97 23.1366 226.135 23.1366ZM255.228 2.81683H259.89V7.01305H255.228V2.81683ZM270.182 8.33282C264.745 8.33282 261.365 12.0232 261.365 17.5014C261.365 22.9796 264.745 26.67 270.182 26.67C275.62 26.67 279 22.9796 279 17.5014C279 12.0232 275.62 8.33282 270.182 8.33282ZM270.182 23.1366C267.347 23.1366 265.755 20.6889 265.755 17.5029C265.755 14.3168 267.347 11.8692 270.182 11.8692C273.017 11.8692 274.61 14.3168 274.61 17.5029C274.61 20.6889 273.017 23.1366 270.182 23.1366ZM255.384 8.72236H259.734V26.2834H255.384V8.72236ZM204.346 15.0552V26.2834H199.995V15.4433C199.995 13.6177 198.946 12.1017 196.965 12.1017C194.865 12.1017 193.114 13.8357 192.304 15.5712V26.2834H187.953V8.72236H192.148L192.27 11.1613C193.617 9.21945 195.771 8.37207 197.897 8.37207C202.013 8.37207 204.344 11.0523 204.344 15.0552H204.346ZM252.976 15.0552V26.2834H248.625V15.4433C248.625 13.6177 247.576 12.1017 245.595 12.1017C243.496 12.1017 241.745 13.8357 240.934 15.5712V26.2834H236.583V8.72236H240.778L240.9 11.1613C242.247 9.2209 244.401 8.37207 246.527 8.37207C250.644 8.37207 252.974 11.0523 252.974 15.0552H252.976ZM169.27 4.09881L171.74 7.35753L165.037 26.2834H169.62L171.438 21H180.376L182.165 26.2834H186.904L179.252 4.09881H169.269H169.27ZM172.749 17.1918L174.554 11.9462L175.918 7.45346L177.312 11.9462L179.087 17.1918H172.749ZM212.307 8.72236H216.93V12.2572H212.307V20.1061C212.307 22.0494 212.851 22.7485 214.831 22.7485H216.928V26.2834H213.782C209.392 26.2834 207.955 24.0305 207.955 20.6104V12.2572H205.158V8.72236H207.955V5.53631L212.306 3.36044V8.72236H212.307Z" fill="#032044"/>
</g>
<defs>
<clipPath id="clip0_172_424">
<rect width="279" height="50" fill="white"/>
</clipPath>
</defs>
</svg>
