<?xml version="1.0" encoding="UTF-8"?><svg id="Layer_1" xmlns="http://www.w3.org/2000/svg" width="1907.58" height="331.26" viewBox="0 0 1907.58 331.26"><defs><style>.cls-1{fill:#f15a22;}.cls-2{fill:#fff;}</style></defs><path class="cls-1" d="M159.56,70.94c.55,5.24,1.93,11.87,3.04,16.56,14.35,55.76,75.09,77.29,152.66,61.28v-57.14c-61.56,12.7-137.75,5.52-155.14-64.6h-4.97C137.75,97.17,61.56,104.35,0,91.65v57.14c77.57,16.01,138.3-5.52,152.66-61.28,1.1-4.69,2.48-11.32,3.04-16.56h3.86ZM160.11,123.39c14.63,61.84,79.5,79.23,153.76,64.6-4.14,22.64-13.25,44.17-27.33,61.84-82.82,4.42-119.81-27.33-126.98-82.54h-3.86c-7.18,55.21-44.17,86.96-126.98,82.54-14.08-17.67-23.19-39.2-27.33-61.84,74.26,14.63,139.13-2.76,153.76-64.6h4.97ZM161.21,0c23.46,60.45,102.41,62.94,154.04,52.45V0h-154.04ZM154.04,0H0v52.45C51.62,62.94,130.57,60.45,154.04,0ZM155.42,219.74c-10.77,41.41-46.1,62.94-79.23,67.36l81.43,44.17,81.43-44.17c-33.13-4.42-68.46-25.95-79.23-67.36h-4.42Z"/><path class="cls-2" d="M411.15,239.89h-18.09v-9.37h47.33v9.37h-18.09v47.16h-11.14v-47.16ZM457.99,287.06h-10.34v-58.15h10.34v21.16c2.67-3.71,7.11-5.82,12.36-5.82,9.21,0,15.18,5.73,15.18,16.72v26.09h-10.34v-24.55c0-5.73-3.07-9.37-8.32-9.37-4.76,0-8.88,3.63-8.88,11.23v22.69ZM513.79,287.95c-11.87,0-21.81-8.24-21.81-22.13s10.26-21.56,21.4-21.56,21,7.67,21,22.53v2.26h-31.9c.81,6.62,5.65,10.74,11.63,10.74,3.88,0,7.75-1.29,9.69-5.01h10.18c-2.58,9.21-11.55,13.16-20.19,13.16ZM502.41,261.7h21.32c-.49-5.65-4.68-9.37-10.5-9.37-5.49,0-10.1,3.47-10.82,9.37ZM562.41,264.53v-34h11.15v33.43c0,9.21,5.09,14.38,12.6,14.38s12.52-5.09,12.52-14.3v-33.51h11.14v33.92c0,15.02-9.85,23.58-23.74,23.58s-23.66-8.4-23.66-23.5ZM629.37,287.06h-10.34v-41.83h10.18v5.01c2.67-3.8,7.19-5.98,12.52-5.98,9.21,0,15.18,5.73,15.18,16.72v26.09h-10.34v-24.55c0-5.73-3.07-9.37-8.32-9.37-4.76,0-8.88,3.63-8.88,11.23v22.69ZM666.35,228.91h10.5v9.69h-10.5v-9.69ZM666.43,245.22h10.34v41.83h-10.34v-41.83ZM708.83,287.06h-10.98l-15.51-41.83h10.82l10.42,30.61,10.5-30.61h10.26l-15.51,41.83ZM747.36,287.95c-11.87,0-21.81-8.24-21.81-22.13s10.26-21.56,21.4-21.56,21,7.67,21,22.53v2.26h-31.9c.81,6.62,5.65,10.74,11.63,10.74,3.88,0,7.75-1.29,9.69-5.01h10.18c-2.58,9.21-11.55,13.16-20.19,13.16ZM735.97,261.7h21.32c-.49-5.65-4.68-9.37-10.5-9.37-5.49,0-10.1,3.47-10.82,9.37ZM785.64,287.06h-10.34v-41.83h10.1v6.38c.89-1.45,1.94-2.83,3.31-3.96,2.5-1.94,4.85-2.74,8.48-2.74,1.13,0,2.18.08,2.91.24v9.77c-2.02-.16-2.99-.16-4.12-.16-4.52,0-10.34,1.62-10.34,9.77v22.53ZM803.57,273.81h9.77c.73,4.44,4.52,6.46,9.37,6.46,3.96,0,7.75-1.53,7.75-4.85,0-2.99-2.83-4.28-8.4-5.25l-4.2-.73c-8.4-1.54-13.49-5.33-13.49-11.87,0-8.4,7.67-13.41,17.12-13.41s16.8,4.68,17.85,13.08h-9.61c-.97-3.55-4.04-5.33-8.48-5.33-4.04,0-7.11,1.86-7.11,4.68,0,2.67,2.34,3.63,7.11,4.52l4.2.73c9.21,1.61,14.94,5.25,14.94,12.52,0,8.88-8.48,13.65-17.85,13.65-9.85,0-17.93-4.52-18.98-14.21ZM848.31,228.91h10.5v9.69h-10.5v-9.69ZM848.39,245.22h10.34v41.83h-10.34v-41.83ZM872.14,275.83v-22.69h-7.03v-7.91h7.03v-10.18h10.26v10.18h9.69v7.91h-9.69v20.67c0,4.44,1.37,5.17,4.68,5.17h5.01v8c-2.99.16-4.77.16-8.32.16-7.11,0-11.63-2.1-11.63-11.31ZM916.47,302.4h-10.66l7.59-18.33-16.72-38.85h10.98l10.82,27.22,10.01-27.22h10.5l-22.53,57.18ZM961.62,265.9c0-13.16,9.93-21.64,22.05-21.64s21.97,8.32,21.97,21.64-9.85,22.05-21.97,22.05-22.05-8.48-22.05-22.05ZM994.97,265.9c0-7.59-4.6-12.92-11.31-12.92s-11.39,5.25-11.39,12.92,4.6,13.33,11.39,13.33,11.31-5.33,11.31-13.33ZM1025.91,253.14v33.92h-10.09v-33.92h-7.19v-7.91h7.19v-4.52c0-9.21,5.01-11.95,12.68-11.95,2.67,0,4.52.08,6.87.16v7.99c-1.54-.08-3.15-.16-4.77-.16-2.67,0-4.68.81-4.68,4.6v3.88h9.45v7.91h-9.45ZM1076.62,239.89h-18.09v-9.37h47.33v9.37h-18.09v47.16h-11.14v-47.16ZM1125.81,287.95c-11.87,0-21.81-8.24-21.81-22.13s10.26-21.56,21.4-21.56,21,7.67,21,22.53v2.26h-31.9c.81,6.62,5.65,10.74,11.63,10.74,3.88,0,7.75-1.29,9.69-5.01h10.18c-2.58,9.21-11.55,13.16-20.19,13.16ZM1114.42,261.7h21.32c-.49-5.65-4.68-9.37-10.5-9.37-5.49,0-10.1,3.47-10.82,9.37ZM1168.69,272.44l-9.45,14.62h-11.39l14.54-21.08-14.22-20.76h11.79l9.21,14.13,9.05-14.13h11.31l-14.13,20.35,14.46,21.48h-11.87l-9.29-14.62ZM1220.3,281.89c-2.75,3.8-7.11,6.06-13.33,6.06-7.75,0-15.26-4.36-15.26-12.92s7.27-11.95,18.33-13.73l9.53-1.53v-.48c0-5.25-2.91-7.27-7.83-7.27s-7.91,2.34-8.8,6.62h-9.85c1.21-8.88,9.05-14.38,19.06-14.38s17.69,4.12,17.61,15.75l-.16,18.41c0,1.37.08,3.55.4,8.64h-9.53l-.16-5.17ZM1209.32,280.11c5.65,0,10.26-3.39,10.26-10.09v-2.91c-12.52,1.62-17.77,2.91-17.77,7.43,0,3.63,3.15,5.57,7.51,5.57ZM1236.05,273.81h9.77c.73,4.44,4.52,6.46,9.37,6.46,3.96,0,7.75-1.53,7.75-4.85,0-2.99-2.83-4.28-8.4-5.25l-4.2-.73c-8.4-1.54-13.49-5.33-13.49-11.87,0-8.4,7.67-13.41,17.12-13.41s16.8,4.68,17.85,13.08h-9.61c-.97-3.55-4.04-5.33-8.48-5.33-4.04,0-7.11,1.86-7.11,4.68,0,2.67,2.34,3.63,7.11,4.52l4.2.73c9.21,1.61,14.94,5.25,14.94,12.52,0,8.88-8.48,13.65-17.85,13.65-9.85,0-17.93-4.52-18.98-14.21ZM1327.07,281.89c-2.75,3.8-7.11,6.06-13.33,6.06-7.75,0-15.26-4.36-15.26-12.92s7.27-11.95,18.33-13.73l9.53-1.53v-.48c0-5.25-2.91-7.27-7.83-7.27s-7.91,2.34-8.8,6.62h-9.85c1.21-8.88,9.04-14.38,19.06-14.38s17.69,4.12,17.61,15.75l-.16,18.41c0,1.37.08,3.55.4,8.64h-9.53l-.16-5.17ZM1316.08,280.11c5.65,0,10.26-3.39,10.26-10.09v-2.91c-12.52,1.62-17.77,2.91-17.77,7.43,0,3.63,3.15,5.57,7.51,5.57ZM1347.74,275.83v-22.69h-7.03v-7.91h7.03v-10.18h10.26v10.18h9.69v7.91h-9.69v20.67c0,4.44,1.37,5.17,4.68,5.17h5.01v8c-2.99.16-4.77.16-8.32.16-7.11,0-11.63-2.1-11.63-11.31ZM1392.49,269.37h10.82c.97,6.62,6.22,9.85,12.84,9.85s11.23-2.83,11.23-7.59c0-4.28-4.04-6.46-10.74-7.83l-5.81-1.29c-11.23-2.42-16.8-7.59-16.8-15.99,0-10.18,9.61-17.2,21.32-17.2s20.92,6.3,22.05,17.28h-10.82c-.81-5.25-5.01-8.4-11.23-8.4-5.81,0-10.5,2.99-10.5,7.43,0,3.8,2.75,5.49,8.8,6.78l6.62,1.37c10.98,2.26,18.09,7.27,18.09,16.72,0,11.71-10.66,17.53-22.21,17.53-12.6,0-22.53-6.06-23.66-18.66ZM1472.36,281.89c-2.75,3.8-7.11,6.06-13.33,6.06-7.75,0-15.26-4.36-15.26-12.92s7.27-11.95,18.33-13.73l9.53-1.53v-.48c0-5.25-2.91-7.27-7.83-7.27s-7.91,2.34-8.8,6.62h-9.85c1.21-8.88,9.05-14.38,19.06-14.38s17.69,4.12,17.61,15.75l-.16,18.41c0,1.37.08,3.55.4,8.64h-9.53l-.16-5.17ZM1461.38,280.11c5.65,0,10.26-3.39,10.26-10.09v-2.91c-12.52,1.62-17.77,2.91-17.77,7.43,0,3.63,3.15,5.57,7.51,5.57ZM1500.87,287.06h-10.34v-41.83h10.18v5.01c2.67-3.8,7.19-5.98,12.52-5.98,9.21,0,15.18,5.73,15.18,16.72v26.09h-10.34v-24.55c0-5.73-3.07-9.37-8.32-9.37-4.76,0-8.88,3.63-8.88,11.23v22.69ZM1593.91,273.9h-24.31l-4.85,13.16h-11.23l22.13-56.53h12.76l22.05,56.53h-11.71l-4.85-13.16ZM1590.51,264.77l-8.72-23.58-8.8,23.58h17.53ZM1626.61,287.06h-10.34v-41.83h10.18v5.01c2.67-3.8,7.19-5.98,12.52-5.98,9.21,0,15.18,5.73,15.18,16.72v26.09h-10.34v-24.55c0-5.73-3.07-9.37-8.32-9.37-4.76,0-8.88,3.63-8.88,11.23v22.69ZM1667,275.83v-22.69h-7.03v-7.91h7.03v-10.18h10.26v10.18h9.69v7.91h-9.69v20.67c0,4.44,1.37,5.17,4.68,5.17h5.01v8c-2.99.16-4.77.16-8.32.16-7.11,0-11.63-2.1-11.63-11.31ZM1690.5,265.9c0-13.16,9.93-21.64,22.05-21.64s21.97,8.32,21.97,21.64-9.85,22.05-21.97,22.05-22.05-8.48-22.05-22.05ZM1723.85,265.9c0-7.59-4.6-12.92-11.31-12.92s-11.39,5.25-11.39,12.92,4.6,13.33,11.39,13.33,11.31-5.33,11.31-13.33ZM1751.8,287.06h-10.34v-41.83h10.18v5.01c2.67-3.8,7.19-5.98,12.52-5.98,9.21,0,15.18,5.73,15.18,16.72v26.09h-10.34v-24.55c0-5.73-3.07-9.37-8.32-9.37-4.76,0-8.88,3.63-8.88,11.23v22.69ZM1788.38,228.91h10.5v9.69h-10.5v-9.69ZM1788.46,245.22h10.34v41.83h-10.34v-41.83ZM1806.23,265.9c0-13.16,9.93-21.64,22.05-21.64s21.97,8.32,21.97,21.64-9.85,22.05-21.97,22.05-22.05-8.48-22.05-22.05ZM1839.59,265.9c0-7.59-4.6-12.92-11.31-12.92s-11.39,5.25-11.39,12.92,4.6,13.33,11.39,13.33,11.31-5.33,11.31-13.33Z"/><path class="cls-2" d="M903.97,69.46c-7.57-9.55-20.81-14.85-33.6-14.85-34.52,0-54.87,27.56-54.87,61.05s19.32,61.05,54.61,61.05c12.8,0,26.22-5.31,33.86-14.88l.92,12.31h27.56V57.19h-27.56l-.91,12.27ZM875.01,152.76c-18.55,0-30.14-16.49-30.14-37.09s11.59-37.09,30.14-37.09c14.34,0,23.43,9.19,28.59,19.55v35.08c-5.16,10.36-14.25,19.55-28.59,19.55ZM1058.67,99.69v74.44h-28.85v-71.87c0-12.11-6.95-22.15-20.09-22.15-13.92,0-25.54,11.49-30.91,23v71.02h-28.85V57.71h27.82l.81,16.17c8.93-12.87,23.22-18.49,37.31-18.49,27.3,0,42.76,17.77,42.76,44.31ZM487.59,27.05h30.4v90.93c0,39.67-26.53,58.73-63.11,58.73-38.64,0-61.82-20.86-61.82-57.7V27.05h30.4v88.87c0,22.93,13.39,34.52,32.2,34.52s31.94-11.59,31.94-34.52V27.05ZM725.6,66.72c0,11.08,11.33,15.46,27.56,18.29,28.59,4.89,54.61,13.91,54.61,46.88,0,30.14-24.21,44.82-57.7,44.82-38.64,0-61.56-21.12-60.53-55.38h30.91c.26,19.32,11.08,30.14,29.62,30.14,15.2,0,25.24-4.64,25.24-17s-9.53-17.77-29.62-21.12c-24.21-4.12-52.55-11.59-52.55-44.05,0-28.59,24.21-44.82,55.64-44.82,34,0,58.47,18.29,58.99,48.43h-30.91c-.52-13.39-10.82-23.18-28.08-23.18-13.39,0-23.18,6.18-23.18,17ZM530.87,27.05h125.19v31.17l-47.4-11.85v127.76h-30.4V46.37l-47.4,11.85v-31.17ZM1499.66,55.13c-36.06,0-58.47,24.47-58.47,60.79s22.41,60.79,58.47,60.79,58.47-24.47,58.47-60.79-22.41-60.79-58.47-60.79ZM1499.66,153.27c-18.8,0-29.37-16.23-29.37-37.35s10.56-37.35,29.37-37.35,29.37,16.23,29.37,37.35-10.56,37.35-29.37,37.35ZM1692.6,18.55h30.91v27.82h-30.91v-27.82ZM1791.77,55.13c-36.06,0-58.47,24.47-58.47,60.79s22.41,60.79,58.47,60.79,58.47-24.47,58.47-60.79-22.41-60.79-58.47-60.79ZM1791.77,153.27c-18.8,0-29.37-16.23-29.37-37.35s10.56-37.35,29.37-37.35,29.37,16.23,29.37,37.35-10.56,37.35-29.37,37.35ZM1693.63,57.71h28.85v116.43h-28.85V57.71ZM1355.16,99.69v74.44h-28.85v-71.87c0-12.11-6.96-22.15-20.09-22.15-13.92,0-25.54,11.49-30.91,23v71.02h-28.85V57.71h27.82l.81,16.17c8.93-12.87,23.22-18.49,37.31-18.49,27.3,0,42.76,17.77,42.76,44.31ZM1677.66,99.69v74.44h-28.85v-71.87c0-12.11-6.95-22.15-20.09-22.15-13.92,0-25.54,11.49-30.91,23v71.02h-28.85V57.71h27.82l.81,16.17c8.93-12.87,23.22-18.49,37.31-18.49,27.3,0,42.76,17.77,42.76,44.31ZM1122.55,27.05l16.38,21.61-44.46,125.48h30.4l12.06-35.03h59.28l11.87,35.03h31.43l-50.75-147.08h-66.2ZM1145.62,113.86l11.97-34.77,9.05-29.79,9.24,29.79,11.78,34.77h-42.04ZM1407.96,57.71h30.65v23.44h-30.65v52.03c0,12.88,3.61,17.52,16.74,17.52h13.91v23.44h-20.86c-29.11,0-38.64-14.94-38.64-37.61v-55.38h-18.55v-23.44h18.55v-21.12l28.85-14.43v35.55Z"/><path id="RegistrationMark" class="cls-2" d="M1865,76.87c0-11.89,9.45-21.35,21.24-21.35s21.34,9.03,21.34,21.35-9.77,21.24-21.34,21.24-21.24-9.45-21.24-21.24ZM1902.8,76.87c0-8.92-7.43-16.99-16.57-16.99s-16.57,7.97-16.57,16.99,7.43,16.89,16.57,16.89,16.57-7.75,16.57-16.89ZM1882.73,79.63v7.97h-4.78v-21.77h10.3c4.67,0,7.11,3.19,7.11,6.8,0,3.19-1.91,5.2-4.25,6.05v.11c.32.42.53.74,1.17,2.12l3.72,6.69h-5.52l-3.82-7.12c-.32-.74-.53-.85-1.38-.85h-2.55ZM1882.73,75.6h4.36c2.23,0,3.29-1.06,3.29-2.87s-1.17-2.97-3.29-2.97h-4.36v5.84Z"/></svg>