<svg width="172" height="24" viewBox="0 0 172 24" fill="none" xmlns="http://www.w3.org/2000/svg">
<g clip-path="url(#clip0_897_3145)">
<path d="M167.601 7.0015H166.715V6.68354H168.857V7.0015H167.975V9.27485H167.602V7.0015H167.601ZM169.6 6.953V9.27485H169.245V6.68354H169.858L170.634 8.86078L171.406 6.68354H172.001V9.27485H171.646V6.94222L170.811 9.27485H170.435L169.6 6.953ZM77.5845 7.77845C76.8812 6.88833 75.6504 6.39521 74.4616 6.39521C71.2536 6.39521 69.3634 8.96318 69.3634 12.0835C69.3634 15.2039 71.1587 17.7719 74.4383 17.7719C75.628 17.7719 76.875 17.277 77.5845 16.385L77.6696 17.532H80.2308V6.63593H77.6696L77.5845 7.77935V7.77845ZM74.8925 15.5389C73.1689 15.5389 72.0921 14.003 72.0921 12.0826C72.0921 10.1623 73.1689 8.62635 74.8925 8.62635C76.2255 8.62635 77.0703 9.48234 77.5495 10.4479V13.7165C77.0703 14.682 76.2255 15.538 74.8925 15.538V15.5389ZM91.9599 10.5952V17.5311H89.2787V10.835C89.2787 9.70689 88.6328 8.77096 87.4118 8.77096C86.1182 8.77096 85.0387 9.84162 84.5397 10.9141V17.5311H81.8585V6.68264H84.4439L84.5191 8.18982C85.3487 6.99072 86.6763 6.46707 87.9869 6.46707C90.5239 6.46707 91.9608 8.12336 91.9608 10.5952H91.9599ZM38.8916 3.82635H41.7162V12.2982C41.7162 15.9943 39.2509 17.7701 35.8512 17.7701C32.2607 17.7701 30.1062 15.8264 30.1062 12.3943V3.82635H32.9308V12.1069C32.9308 14.2428 34.1751 15.3234 35.9228 15.3234C37.6706 15.3234 38.8907 14.2437 38.8907 12.1069V3.82635H38.8916ZM61.0098 7.52246C61.0098 8.55449 62.0633 8.96228 63.571 9.22635C66.228 9.68264 68.6459 10.5225 68.6459 13.5943C68.6459 16.4021 66.3955 17.7701 63.2843 17.7701C59.6938 17.7701 57.5635 15.8021 57.6593 12.6099H60.5314C60.5556 14.4099 61.5607 15.4177 63.2843 15.4177C64.697 15.4177 65.6305 14.9856 65.6305 13.8332C65.6305 12.6808 64.7445 12.177 62.8776 11.8653C60.6272 11.4808 57.9944 10.7856 57.9944 7.76138C57.9944 5.09731 60.2447 3.58563 63.1651 3.58563C66.3247 3.58563 68.5993 5.28953 68.6467 8.09731H65.7747C65.7272 6.8497 64.7696 5.93713 63.1651 5.93713C61.9208 5.93713 61.0107 6.51288 61.0107 7.52156L61.0098 7.52246ZM42.913 3.82635H54.5463V6.73024L50.1415 5.62635V17.5302H47.317V5.62635L42.9121 6.73024V3.82635H42.913ZM132.94 6.44282C129.588 6.44282 127.506 8.72246 127.506 12.1069C127.506 15.4913 129.588 17.771 132.94 17.771C136.291 17.771 138.374 15.4913 138.374 12.1069C138.374 8.72246 136.291 6.44282 132.94 6.44282ZM132.94 15.5865C131.192 15.5865 130.211 14.0749 130.211 12.1069C130.211 10.1389 131.193 8.62725 132.94 8.62725C134.687 8.62725 135.669 10.1389 135.669 12.1069C135.669 14.0749 134.687 15.5865 132.94 15.5865ZM150.869 3.03503H153.741V5.62725H150.869V3.03503ZM160.084 6.44282C156.733 6.44282 154.65 8.72246 154.65 12.1069C154.65 15.4913 156.733 17.771 160.084 17.771C163.436 17.771 165.519 15.4913 165.519 12.1069C165.519 8.72246 163.436 6.44282 160.084 6.44282ZM160.084 15.5865C158.337 15.5865 157.356 14.0749 157.356 12.1069C157.356 10.1389 158.338 8.62725 160.084 8.62725C161.831 8.62725 162.813 10.1389 162.813 12.1069C162.813 14.0749 161.831 15.5865 160.084 15.5865ZM150.965 6.68264H153.646V17.5311H150.965V6.68264ZM119.511 10.5952V17.5311H116.83V10.835C116.83 9.70689 116.184 8.77096 114.963 8.77096C113.67 8.77096 112.59 9.84162 112.091 10.9141V17.5311H109.41V6.68264H111.995L112.07 8.18982C112.9 6.99072 114.228 6.46707 115.538 6.46707C118.075 6.46707 119.512 8.12336 119.512 10.5952H119.511ZM149.48 10.5952V17.5311H146.799V10.835C146.799 9.70689 146.153 8.77096 144.932 8.77096C143.639 8.77096 142.559 9.84162 142.06 10.9141V17.5311H139.379V6.68264H141.964L142.04 8.18982C142.869 6.99072 144.197 6.46707 145.507 6.46707C148.044 6.46707 149.481 8.12336 149.481 10.5952H149.48ZM97.8966 3.82635L99.4186 5.83923L95.2879 17.5302H98.1125L99.2332 14.2662H104.742L105.844 17.5302H108.765L104.049 3.82635H97.8975H97.8966ZM100.039 11.9147L101.152 8.67485L101.993 5.89941L102.851 8.67485L103.946 11.9147H100.039ZM124.419 6.68264H127.267V8.86707H124.419V13.7156C124.419 14.9156 124.754 15.3476 125.975 15.3476H127.267V17.532H125.329C122.624 17.532 121.738 16.1398 121.738 14.0281V8.86797H120.015V6.68354H121.738V4.71557L124.42 3.37186V6.68354L124.419 6.68264Z" fill="white"/>
<path d="M11.5294 5.14042C11.5697 5.52036 11.6691 6 11.7489 6.34042C12.7862 10.3805 17.1749 11.9407 22.7801 10.7802V6.64042C18.3314 7.56018 12.8265 7.04012 11.5697 1.96078H11.2105C9.9536 7.04012 4.44871 7.56018 0 6.64042V10.7802C5.60523 11.9398 9.99392 10.3805 11.0313 6.34042C11.111 6 11.2105 5.52036 11.2508 5.14042H11.5303H11.5294ZM11.5697 8.93982C12.6268 13.4201 17.3147 14.6802 22.6807 13.6195C22.3815 15.2596 21.7231 16.8198 20.7063 18.0997C14.7221 18.4195 12.049 16.1201 11.5303 12.1195H11.2508C10.7321 16.1192 8.05892 18.4195 2.07475 18.0997C1.05708 16.8198 0.399542 15.2596 0.100333 13.6195C5.46637 14.6793 10.1543 13.4192 11.2114 8.93982H11.5706H11.5697ZM11.6494 0C13.3452 4.37964 19.0499 4.56018 22.7801 3.8003V0H11.6494ZM11.1307 0H0V3.8003C3.73025 4.56018 9.43492 4.37964 11.1307 0ZM11.2302 15.9207C10.4526 18.9207 7.89856 20.4808 5.5049 20.8006L11.3896 24.0009L17.2744 20.8006C14.8807 20.4808 12.3276 18.9207 11.5491 15.9207H11.2302Z" fill="white"/>
</g>
<defs>
<clipPath id="clip0_897_3145">
<rect width="172" height="24" fill="white"/>
</clipPath>
</defs>
</svg>
