<?xml version="1.0" encoding="iso-8859-1"?>
<!-- Generator: Adobe Illustrator 30.2.1, SVG Export Plug-In . SVG Version: 9.03 Build 0)  -->
<svg version="1.1" id="Layer_1" xmlns="http://www.w3.org/2000/svg" xmlns:xlink="http://www.w3.org/1999/xlink" x="0px" y="0px"
	 viewBox="0 0 791.286133 57.160645" style="enable-background:new 0 0 791.286133 57.160645;" xml:space="preserve">
<g>
	<g>
		<path style="fill:#032044;" d="M31.184082,35.399902H13.453125l-3.285645,9.299561H0L16.553223,1.302002h12.026855
			l16.553223,43.397461H34.469727L31.184082,35.399902z M28.33252,27.402344l-6.013672-17.048828l-6.013672,17.048828H28.33252z"/>
		<path style="fill:#032044;" d="M47.373535,0.062012h9.42334v44.637451h-9.42334V0.062012z"/>
		<path style="fill:#032044;" d="M80.374512,44.699463h-9.733398l-11.90332-32.114258h9.733398l7.253418,22.070801
			l7.191895-22.070801h9.299316L80.374512,44.699463z"/>
		<path style="fill:#032044;" d="M113.221191,41.041748c-2.10791,2.60376-5.393555,4.3396-10.043457,4.3396
			c-6.075684,0-11.90332-3.47168-11.90332-10.043457c0-6.695557,5.393555-9.05127,13.887207-10.415283l7.377441-1.177979v-0.433838
			c0-3.471924-1.921875-4.835938-5.269531-4.835938c-3.409668,0-5.517578,1.612061-6.075684,4.587891h-8.803711
			c1.054199-7.005615,7.191895-11.283447,15.313477-11.283447c8.679199,0,14.135254,3.409912,14.073242,12.461426
			l-0.062012,13.63916c0,1.053955,0.062012,2.913818,0.247559,6.81958h-8.617188L113.221191,41.041748z M105.595703,38.685791
			c3.781738,0,6.943359-2.231934,6.943359-6.695557v-2.169922c-8.493652,1.053955-12.151367,1.983887-12.151367,5.08374
			C100.387695,37.383789,102.619629,38.685791,105.595703,38.685791z"/>
		<path style="fill:#032044;" d="M136.588867,44.699463h-9.42334V12.585205h9.11377v4.773926
			c0.557617-0.991943,1.301758-1.921875,2.231445-2.728027c1.859863-1.487793,3.658203-2.293701,6.695801-2.293701
			c0.806152,0,1.73584,0.062012,2.293945,0.185791v8.679688c-1.487793-0.186035-2.231934-0.186035-3.162109-0.186035
			c-3.533691,0-7.749512,1.302002-7.749512,7.377441V44.699463z"/>
		<path style="fill:#032044;" d="M165.349609,45.443359c-9.299316,0-17.11084-6.385498-17.11084-16.987061
			c0-10.29126,8.05957-16.677002,16.925293-16.677002c9.113281,0,16.614746,6.075684,16.614746,17.359131v1.921875h-24.116699
			c0.496094,4.649658,3.781738,7.439453,7.997559,7.439453c2.728027,0,5.456055-0.929932,6.757812-3.47168h9.05127
			C179.484863,42.219482,172.41748,45.443359,165.349609,45.443359z M157.600098,25.108643h14.693359
			c-0.310059-3.905762-3.223633-6.447754-7.253418-6.447754C161.196289,18.660889,158.096191,21.016846,157.600098,25.108643z"/>
		<path style="fill:#032044;" d="M211.588379,44.699463h-28.022461v-7.6875l16.677246-17.173096h-16.305176v-7.253662h27.340332
			v7.687744l-16.553223,17.172852h16.863281V44.699463z"/>
		<path style="fill:#032044;" d="M228.94873,22.814697c0-14.197266,10.663574-22.442627,21.822754-22.442627
			c10.539551,0,18.84668,6.261475,20.148926,15.74707h-10.105469c-1.178223-4.339844-4.897949-7.129639-10.105469-7.129639
			c-6.32373,0-11.345215,5.331787-11.345215,13.825195c0,8.493652,5.083496,14.01123,11.407227,14.01123
			c5.083496,0,8.679688-2.665771,10.105469-7.129639h10.105469c-1.549805,9.547607-9.733398,15.74707-20.272949,15.74707
			C239.240234,45.443359,228.94873,37.073975,228.94873,22.814697z"/>
		<path style="fill:#032044;" d="M273.055664,28.456299c0-10.229248,7.873535-16.677002,17.420898-16.677002
			c9.609375,0,17.420898,6.385742,17.420898,16.677002c0,10.353516-7.749512,16.987061-17.420898,16.987061
			C280.743164,45.443359,273.055664,38.871826,273.055664,28.456299z M298.226074,28.456299
			c0-5.393555-3.161621-8.989502-7.749512-8.989502c-4.649414,0-7.749512,3.595947-7.749512,8.989502
			c0,5.641846,3.162109,9.299561,7.749512,9.299561C295.126465,37.755859,298.226074,34.160156,298.226074,28.456299z"/>
		<path style="fill:#032044;" d="M311.805176,0.062012h9.42334v44.637451h-9.42334V0.062012z"/>
		<path style="fill:#032044;" d="M326.827148,0.062012h9.423828v44.637451h-9.423828V0.062012z"/>
		<path style="fill:#032044;" d="M357.193359,45.443359c-9.298828,0-17.110352-6.385498-17.110352-16.987061
			c0-10.29126,8.05957-16.677002,16.924805-16.677002c9.113281,0,16.615234,6.075684,16.615234,17.359131v1.921875h-24.117188
			c0.496094,4.649658,3.782227,7.439453,7.998047,7.439453c2.727539,0,5.455078-0.929932,6.756836-3.47168h9.051758
			C371.329102,42.219482,364.260742,45.443359,357.193359,45.443359z M349.444336,25.108643h14.692383
			c-0.30957-3.905762-3.223633-6.447754-7.25293-6.447754C353.040039,18.660889,349.94043,21.016846,349.444336,25.108643z"/>
		<path style="fill:#032044;" d="M392.737305,57.160645c-9.298828,0-15.00293-4.277588-16.056641-11.097168h9.174805
			c0.682617,2.789795,3.100586,4.3396,6.944336,4.3396c3.967773,0,6.571289-1.983887,6.571289-6.44751v-4.649902
			c-1.860352,2.852051-5.083984,4.525879-9.423828,4.525879c-7.749023,0-14.197266-5.765625-14.197266-16.119141
			c0-10.043457,6.696289-15.871094,14.321289-15.871094c4.463867,0,7.625977,1.797852,9.485352,4.959717v-4.21582h9.175781
			v30.750244C408.732422,52.883057,401.665039,57.160645,392.737305,57.160645z M399.433594,27.712402
			c0-5.331787-3.100586-8.493408-7.005859-8.493408c-4.030273,0-7.005859,3.285645-7.005859,8.493408
			c0,5.517822,2.975586,8.741455,7.005859,8.741455C396.395508,36.453857,399.433594,33.168213,399.433594,27.712402z"/>
		<path style="fill:#032044;" d="M429.670898,45.443359c-9.298828,0-17.110352-6.385498-17.110352-16.987061
			c0-10.29126,8.058594-16.677002,16.924805-16.677002c9.113281,0,16.615234,6.075684,16.615234,17.359131v1.921875h-24.117188
			c0.496094,4.649658,3.782227,7.439453,7.998047,7.439453c2.727539,0,5.455078-0.929932,6.756836-3.47168h9.051758
			C443.806641,42.219482,436.738281,45.443359,429.670898,45.443359z M421.921875,25.108643h14.692383
			c-0.30957-3.905762-3.223633-6.447754-7.25293-6.447754C425.517578,18.660889,422.417969,21.016846,421.921875,25.108643z"/>
		<path style="fill:#032044;" d="M462.96582,28.456299c0-10.229248,7.873047-16.677002,17.420898-16.677002
			c9.609375,0,17.420898,6.385742,17.420898,16.677002c0,10.353516-7.75,16.987061-17.420898,16.987061
			C470.65332,45.443359,462.96582,38.871826,462.96582,28.456299z M488.135742,28.456299
			c0-5.393555-3.162109-8.989502-7.749023-8.989502c-4.650391,0-7.75,3.595947-7.75,8.989502
			c0,5.641846,3.162109,9.299561,7.75,9.299561C485.036133,37.755859,488.135742,34.160156,488.135742,28.456299z"/>
		<path style="fill:#032044;" d="M512.818359,19.466797v25.232666h-9.175781V19.466797h-5.331055v-6.881592h5.331055V9.175537
			C503.642578,2.10791,507.672852,0,513.748047,0c2.417969,0,3.967773,0,6.137695,0.062012v6.943604
			c-1.301758-0.062012-2.541016-0.062012-3.905273-0.062012c-1.860352,0-3.162109,0.496094-3.162109,3.099854v2.541748h7.067383
			v6.881592H512.818359z"/>
		<path style="fill:#032044;" d="M538.299805,1.302002h19.777344c10.105469,0,14.878906,4.773682,14.878906,11.53125
			c0,4.835693-2.727539,8.05957-6.323242,9.175537v0.124023c4.21582,1.301758,7.25293,4.959717,7.25293,10.353271
			c0,7.563721-5.765625,12.213379-16.304688,12.213379h-19.28125V1.302002z M548.095703,8.741455v10.105469h8.679688
			c4.091797,0,6.261719-1.797852,6.261719-5.021729c0-3.099854-2.232422-5.08374-6.261719-5.08374H548.095703z
			 M548.095703,26.038574V37.26001h8.493164c4.711914,0,7.253906-2.045898,7.253906-5.579834
			c0-3.595703-2.541992-5.641602-7.191406-5.641602H548.095703z"/>
		<path style="fill:#032044;" d="M599.400391,40.917725c-2.108398,2.97583-5.456055,4.525635-9.423828,4.525635
			c-6.819336,0-11.716797-4.215576-11.716797-12.709229V12.585205h9.422852v18.413086
			c0,4.153809,2.169922,6.323486,5.580078,6.323486c3.038086,0,5.827148-2.169678,5.827148-7.31543V12.585205h9.423828v32.114258
			h-9.113281V40.917725z"/>
		<path style="fill:#032044;" d="M612.389648,34.531982h8.741211c0.496094,2.97583,3.038086,4.401855,6.509766,4.401855
			c2.728516,0,5.145508-0.991943,5.145508-3.223877c0-1.983887-1.797852-2.851807-5.827148-3.533691l-3.347656-0.620117
			c-6.572266-1.177979-10.664062-4.091797-10.664062-9.237305c0-6.571777,6.076172-10.601562,13.825195-10.601562
			c7.37793,0,13.454102,3.719971,14.321289,10.291504h-8.617188c-0.620117-2.417969-2.727539-3.781738-5.889648-3.781738
			c-2.727539,0-4.773438,1.239746-4.773438,3.161865c0,1.797852,1.611328,2.479736,5.083008,3.099609l3.286133,0.558105
			c7.31543,1.301758,11.655273,4.153809,11.655273,9.733398c0,7.067627-6.695312,10.66333-14.382812,10.66333
			C619.581055,45.443359,613.319336,42.033691,612.389648,34.531982z"/>
		<path style="fill:#032044;" d="M645.714844,0.062012h9.485352v7.811523h-9.485352V0.062012z M645.714844,12.585205h9.422852
			v32.114258h-9.422852V12.585205z"/>
		<path style="fill:#032044;" d="M670.171875,44.699463h-9.422852V12.585205h9.113281v3.905762
			c2.045898-2.97583,5.579102-4.649658,9.733398-4.649658c7.005859,0,11.716797,4.21582,11.716797,12.833252v20.024902h-9.422852
			V26.348389c0-4.091553-2.108398-6.44751-5.641602-6.44751c-3.286133,0-6.076172,2.417969-6.076172,7.6875V44.699463z"/>
		<path style="fill:#032044;" d="M711.927734,45.443359c-9.298828,0-17.110352-6.385498-17.110352-16.987061
			c0-10.29126,8.05957-16.677002,16.924805-16.677002c9.113281,0,16.615234,6.075684,16.615234,17.359131v1.921875h-24.117188
			c0.496094,4.649658,3.782227,7.439453,7.998047,7.439453c2.727539,0,5.455078-0.929932,6.756836-3.47168h9.051758
			C726.063477,42.219482,718.995117,45.443359,711.927734,45.443359z M704.178711,25.108643h14.692383
			c-0.30957-3.905762-3.223633-6.447754-7.25293-6.447754C707.774414,18.660889,704.674805,21.016846,704.178711,25.108643z"/>
		<path style="fill:#032044;" d="M730.342773,34.531982h8.741211c0.496094,2.97583,3.038086,4.401855,6.509766,4.401855
			c2.728516,0,5.145508-0.991943,5.145508-3.223877c0-1.983887-1.797852-2.851807-5.827148-3.533691l-3.347656-0.620117
			c-6.572266-1.177979-10.664062-4.091797-10.664062-9.237305c0-6.571777,6.076172-10.601562,13.825195-10.601562
			c7.37793,0,13.454102,3.719971,14.321289,10.291504h-8.617188c-0.620117-2.417969-2.727539-3.781738-5.889648-3.781738
			c-2.727539,0-4.773438,1.239746-4.773438,3.161865c0,1.797852,1.611328,2.479736,5.083008,3.099609l3.286133,0.558105
			c7.31543,1.301758,11.655273,4.153809,11.655273,9.733398c0,7.067627-6.695312,10.66333-14.382812,10.66333
			C737.53418,45.443359,731.272461,42.033691,730.342773,34.531982z"/>
		<path style="fill:#032044;" d="M761.837891,34.531982h8.741211c0.496094,2.97583,3.038086,4.401855,6.509766,4.401855
			c2.728516,0,5.145508-0.991943,5.145508-3.223877c0-1.983887-1.797852-2.851807-5.827148-3.533691l-3.347656-0.620117
			c-6.572266-1.177979-10.664062-4.091797-10.664062-9.237305c0-6.571777,6.076172-10.601562,13.825195-10.601562
			c7.37793,0,13.454102,3.719971,14.321289,10.291504h-8.617188c-0.620117-2.417969-2.727539-3.781738-5.889648-3.781738
			c-2.727539,0-4.773438,1.239746-4.773438,3.161865c0,1.797852,1.611328,2.479736,5.083008,3.099609l3.286133,0.558105
			c7.31543,1.301758,11.655273,4.153809,11.655273,9.733398c0,7.067627-6.695312,10.66333-14.382812,10.66333
			C769.029297,45.443359,762.767578,42.033691,761.837891,34.531982z"/>
	</g>
</g>
<g>
</g>
<g>
</g>
<g>
</g>
<g>
</g>
<g>
</g>
<g>
</g>
<g>
</g>
<g>
</g>
<g>
</g>
<g>
</g>
<g>
</g>
<g>
</g>
<g>
</g>
<g>
</g>
<g>
</g>
</svg>
