<?xml version="1.0" encoding="iso-8859-1"?>
<!-- Generator: Adobe Illustrator 30.2.1, SVG Export Plug-In . SVG Version: 9.03 Build 0)  -->
<svg version="1.1" id="Layer_1" xmlns="http://www.w3.org/2000/svg" xmlns:xlink="http://www.w3.org/1999/xlink" x="0px" y="0px"
	 viewBox="0 0 793.334 69.316" style="enable-background:new 0 0 793.334 69.316;" xml:space="preserve">
<g id="UnitName_00000083051636230227074460000000021105607283046073_">
	<g>
		<path style="fill:#032044;" d="M31.432,43.4H13.701l-3.286,9.3H0.248L16.801,9.302h12.027l16.553,43.397H34.718L31.432,43.4z
			 M28.581,35.402l-6.014-17.049l-6.014,17.049H28.581z"/>
		<path style="fill:#032044;" d="M47.622,8.062h9.423v44.637h-9.423V8.062z"/>
		<path style="fill:#032044;" d="M80.623,52.699h-9.733L58.986,20.585h9.733l7.253,22.071l7.192-22.071h9.299L80.623,52.699z"/>
		<path style="fill:#032044;" d="M113.469,49.042c-2.108,2.604-5.394,4.34-10.043,4.34c-6.076,0-11.903-3.472-11.903-10.043
			c0-6.696,5.394-9.051,13.887-10.415l7.377-1.178v-0.434c0-3.472-1.922-4.836-5.27-4.836c-3.41,0-5.518,1.612-6.076,4.588h-8.804
			c1.054-7.006,7.192-11.283,15.313-11.283c8.679,0,14.135,3.41,14.073,12.461l-0.062,13.639c0,1.054,0.062,2.914,0.248,6.82h-8.617
			L113.469,49.042z M105.844,46.686c3.782,0,6.943-2.232,6.943-6.696v-2.17c-8.494,1.054-12.151,1.984-12.151,5.084
			C100.636,45.384,102.868,46.686,105.844,46.686z"/>
		<path style="fill:#032044;" d="M136.837,52.699h-9.423V20.585h9.114v4.774c0.558-0.992,1.302-1.922,2.231-2.728
			c1.86-1.488,3.658-2.294,6.696-2.294c0.806,0,1.736,0.062,2.294,0.186v8.68c-1.488-0.186-2.232-0.186-3.162-0.186
			c-3.534,0-7.75,1.302-7.75,7.377V52.699z"/>
		<path style="fill:#032044;" d="M165.598,53.443c-9.299,0-17.111-6.385-17.111-16.987c0-10.291,8.06-16.677,16.925-16.677
			c9.113,0,16.615,6.076,16.615,17.359v1.922H157.91c0.496,4.65,3.782,7.439,7.998,7.439c2.728,0,5.456-0.93,6.758-3.472h9.051
			C179.733,50.219,172.666,53.443,165.598,53.443z M157.848,33.109h14.693c-0.31-3.906-3.224-6.448-7.253-6.448
			C161.444,26.661,158.344,29.017,157.848,33.109z"/>
		<path style="fill:#032044;" d="M211.836,52.699h-28.022v-7.688l16.677-17.173h-16.305v-7.254h27.34v7.688l-16.553,17.173h16.863
			V52.699z"/>
		<path style="fill:#032044;" d="M229.197,30.815c0-14.197,10.664-22.443,21.823-22.443c10.54,0,18.847,6.261,20.149,15.747h-10.105
			c-1.178-4.34-4.898-7.13-10.105-7.13c-6.324,0-11.345,5.332-11.345,13.825c0,8.494,5.083,14.011,11.407,14.011
			c5.083,0,8.68-2.666,10.105-7.13h10.105c-1.55,9.548-9.733,15.747-20.273,15.747C239.488,53.443,229.197,45.074,229.197,30.815z"
			/>
		<path style="fill:#032044;" d="M273.304,36.456c0-10.229,7.874-16.677,17.421-16.677c9.609,0,17.421,6.386,17.421,16.677
			c0,10.354-7.75,16.987-17.421,16.987C280.991,53.443,273.304,46.872,273.304,36.456z M298.474,36.456
			c0-5.394-3.162-8.99-7.75-8.99c-4.649,0-7.75,3.596-7.75,8.99c0,5.642,3.162,9.3,7.75,9.3
			C295.375,45.756,298.474,42.16,298.474,36.456z"/>
		<path style="fill:#032044;" d="M312.053,8.062h9.423v44.637h-9.423V8.062z"/>
		<path style="fill:#032044;" d="M327.075,8.062h9.424v44.637h-9.424V8.062z"/>
		<path style="fill:#032044;" d="M357.441,53.443c-9.299,0-17.11-6.385-17.11-16.987c0-10.291,8.06-16.677,16.925-16.677
			c9.113,0,16.615,6.076,16.615,17.359v1.922h-24.117c0.496,4.65,3.782,7.439,7.998,7.439c2.728,0,5.455-0.93,6.757-3.472h9.052
			C371.577,50.219,364.509,53.443,357.441,53.443z M349.692,33.109h14.692c-0.31-3.906-3.224-6.448-7.253-6.448
			C353.288,26.661,350.188,29.017,349.692,33.109z"/>
		<path style="fill:#032044;" d="M392.985,65.161c-9.299,0-15.003-4.278-16.057-11.097h9.175c0.683,2.79,3.101,4.34,6.944,4.34
			c3.968,0,6.571-1.984,6.571-6.448v-4.65c-1.86,2.852-5.084,4.526-9.424,4.526c-7.749,0-14.197-5.766-14.197-16.119
			c0-10.043,6.696-15.871,14.321-15.871c4.464,0,7.626,1.798,9.485,4.96v-4.216h9.176v30.75
			C408.98,60.883,401.913,65.161,392.985,65.161z M399.682,35.712c0-5.332-3.101-8.493-7.006-8.493c-4.03,0-7.006,3.286-7.006,8.493
			c0,5.518,2.976,8.741,7.006,8.741C396.644,44.454,399.682,41.168,399.682,35.712z"/>
		<path style="fill:#032044;" d="M429.919,53.443c-9.299,0-17.11-6.385-17.11-16.987c0-10.291,8.059-16.677,16.925-16.677
			c9.113,0,16.615,6.076,16.615,17.359v1.922h-24.117c0.496,4.65,3.782,7.439,7.998,7.439c2.728,0,5.455-0.93,6.757-3.472h9.052
			C444.055,50.219,436.986,53.443,429.919,53.443z M422.17,33.109h14.692c-0.31-3.906-3.224-6.448-7.253-6.448
			C425.766,26.661,422.666,29.017,422.17,33.109z"/>
		<path style="fill:#032044;" d="M463.214,36.456c0-10.229,7.873-16.677,17.421-16.677c9.609,0,17.421,6.386,17.421,16.677
			c0,10.354-7.75,16.987-17.421,16.987C470.901,53.443,463.214,46.872,463.214,36.456z M488.384,36.456
			c0-5.394-3.162-8.99-7.749-8.99c-4.65,0-7.75,3.596-7.75,8.99c0,5.642,3.162,9.3,7.75,9.3
			C485.284,45.756,488.384,42.16,488.384,36.456z"/>
		<path style="fill:#032044;" d="M513.066,27.467v25.233h-9.176V27.467h-5.331v-6.882h5.331v-3.41c0-7.068,4.03-9.176,10.105-9.176
			c2.418,0,3.968,0,6.138,0.062v6.944c-1.302-0.062-2.541-0.062-3.905-0.062c-1.86,0-3.162,0.496-3.162,3.1v2.542h7.067v6.882
			H513.066z"/>
		<path style="fill:#032044;" d="M538.548,9.302h19.777c10.105,0,14.879,4.774,14.879,11.531c0,4.836-2.728,8.06-6.323,9.176v0.124
			c4.216,1.302,7.253,4.96,7.253,10.353c0,7.564-5.766,12.213-16.305,12.213h-19.281V9.302z M548.344,16.741v10.105h8.68
			c4.092,0,6.262-1.798,6.262-5.022c0-3.1-2.232-5.084-6.262-5.084H548.344z M548.344,34.039V45.26h8.493
			c4.712,0,7.254-2.046,7.254-5.58c0-3.596-2.542-5.642-7.191-5.642H548.344z"/>
		<path style="fill:#032044;" d="M599.648,48.918c-2.108,2.976-5.456,4.526-9.424,4.526c-6.819,0-11.717-4.216-11.717-12.709V20.585
			h9.423v18.413c0,4.154,2.17,6.323,5.58,6.323c3.038,0,5.827-2.17,5.827-7.315V20.585h9.424v32.114h-9.113V48.918z"/>
		<path style="fill:#032044;" d="M612.638,42.532h8.741c0.496,2.976,3.038,4.402,6.51,4.402c2.729,0,5.146-0.992,5.146-3.224
			c0-1.984-1.798-2.852-5.827-3.534l-3.348-0.62c-6.572-1.178-10.664-4.092-10.664-9.237c0-6.572,6.076-10.602,13.825-10.602
			c7.378,0,13.454,3.72,14.321,10.292h-8.617c-0.62-2.418-2.728-3.782-5.89-3.782c-2.728,0-4.773,1.24-4.773,3.162
			c0,1.798,1.611,2.48,5.083,3.1l3.286,0.558c7.315,1.302,11.655,4.154,11.655,9.733c0,7.068-6.695,10.663-14.383,10.663
			C619.829,53.443,613.567,50.034,612.638,42.532z"/>
		<path style="fill:#032044;" d="M645.963,8.062h9.485v7.812h-9.485V8.062z M645.963,20.585h9.423v32.114h-9.423V20.585z"/>
		<path style="fill:#032044;" d="M670.42,52.699h-9.423V20.585h9.113v3.906c2.046-2.976,5.579-4.65,9.733-4.65
			c7.006,0,11.717,4.216,11.717,12.833v20.025h-9.423V34.348c0-4.092-2.108-6.448-5.642-6.448c-3.286,0-6.076,2.418-6.076,7.688
			V52.699z"/>
		<path style="fill:#032044;" d="M712.176,53.443c-9.299,0-17.11-6.385-17.11-16.987c0-10.291,8.06-16.677,16.925-16.677
			c9.113,0,16.615,6.076,16.615,17.359v1.922h-24.117c0.496,4.65,3.782,7.439,7.998,7.439c2.728,0,5.455-0.93,6.757-3.472h9.052
			C726.312,50.219,719.243,53.443,712.176,53.443z M704.427,33.109h14.692c-0.31-3.906-3.224-6.448-7.253-6.448
			C708.022,26.661,704.923,29.017,704.427,33.109z"/>
		<path style="fill:#032044;" d="M730.591,42.532h8.741c0.496,2.976,3.038,4.402,6.51,4.402c2.729,0,5.146-0.992,5.146-3.224
			c0-1.984-1.798-2.852-5.827-3.534l-3.348-0.62c-6.572-1.178-10.664-4.092-10.664-9.237c0-6.572,6.076-10.602,13.825-10.602
			c7.378,0,13.454,3.72,14.321,10.292h-8.617c-0.62-2.418-2.728-3.782-5.89-3.782c-2.728,0-4.773,1.24-4.773,3.162
			c0,1.798,1.611,2.48,5.083,3.1l3.286,0.558c7.315,1.302,11.655,4.154,11.655,9.733c0,7.068-6.695,10.663-14.383,10.663
			C737.782,53.443,731.521,50.034,730.591,42.532z"/>
		<path style="fill:#032044;" d="M762.086,42.532h8.741c0.496,2.976,3.038,4.402,6.51,4.402c2.729,0,5.146-0.992,5.146-3.224
			c0-1.984-1.798-2.852-5.827-3.534l-3.348-0.62c-6.572-1.178-10.664-4.092-10.664-9.237c0-6.572,6.076-10.602,13.825-10.602
			c7.378,0,13.454,3.72,14.321,10.292h-8.617c-0.62-2.418-2.728-3.782-5.89-3.782c-2.728,0-4.773,1.24-4.773,3.162
			c0,1.798,1.611,2.48,5.083,3.1l3.286,0.558c7.315,1.302,11.655,4.154,11.655,9.733c0,7.068-6.695,10.663-14.383,10.663
			C769.277,53.443,763.016,50.034,762.086,42.532z"/>
	</g>
</g>
<g>
</g>
<g>
</g>
<g>
</g>
<g>
</g>
<g>
</g>
<g>
</g>
<g>
</g>
<g>
</g>
<g>
</g>
<g>
</g>
<g>
</g>
<g>
</g>
<g>
</g>
<g>
</g>
<g>
</g>
</svg>
