<?xml version="1.0" encoding="iso-8859-1"?>
<!-- Generator: Adobe Illustrator 30.2.1, SVG Export Plug-In . SVG Version: 9.03 Build 0)  -->
<svg version="1.1" id="Layer_1" xmlns="http://www.w3.org/2000/svg" xmlns:xlink="http://www.w3.org/1999/xlink" x="0px" y="0px"
	 viewBox="0 0 446.100586 112.381348" style="enable-background:new 0 0 446.100586 112.381348;" xml:space="preserve">
<g>
	<g>
		<path style="fill:#032044;" d="M31.183594,35.337891H13.453125l-3.286133,9.299316H0L16.552734,1.239746h12.027344
			l16.552734,43.397461H34.469727L31.183594,35.337891z M28.332031,27.340332l-6.013672-17.049316l-6.013672,17.049316H28.332031z"
			/>
		<path style="fill:#032044;" d="M47.373047,0h9.423828v44.637207h-9.423828V0z"/>
		<path style="fill:#032044;" d="M80.374023,44.637207h-9.733398l-11.90332-32.114258h9.733398l7.253906,22.070801
			l7.191406-22.070801h9.299805L80.374023,44.637207z"/>
		<path style="fill:#032044;" d="M113.220703,40.979492c-2.107422,2.604004-5.393555,4.339844-10.042969,4.339844
			c-6.076172,0-11.90332-3.472168-11.90332-10.043457c0-6.695801,5.393555-9.051758,13.886719-10.415527l7.37793-1.177734v-0.434082
			c0-3.47168-1.921875-4.835938-5.269531-4.835938c-3.410156,0-5.517578,1.611816-6.076172,4.587891h-8.803711
			c1.054688-7.005859,7.192383-11.283203,15.313477-11.283203c8.679688,0,14.135742,3.409668,14.073242,12.460938
			l-0.061523,13.63916c0,1.054199,0.061523,2.914062,0.24707,6.819824h-8.617188L113.220703,40.979492z M105.595703,38.623535
			c3.78125,0,6.943359-2.231934,6.943359-6.695801v-2.169922c-8.494141,1.054199-12.151367,1.984375-12.151367,5.083984
			C100.387695,37.321777,102.619141,38.623535,105.595703,38.623535z"/>
		<path style="fill:#032044;" d="M136.588867,44.637207h-9.423828V12.522949h9.114258v4.773926
			c0.557617-0.992188,1.301758-1.921875,2.231445-2.728027c1.859375-1.487793,3.658203-2.293945,6.695312-2.293945
			c0.806641,0,1.736328,0.062012,2.293945,0.186035v8.679688c-1.487305-0.186035-2.231445-0.186035-3.162109-0.186035
			c-3.533203,0-7.749023,1.301758-7.749023,7.377441V44.637207z"/>
		<path style="fill:#032044;" d="M165.349609,45.381348c-9.299805,0-17.111328-6.385742-17.111328-16.987305
			c0-10.291504,8.05957-16.676758,16.925781-16.676758c9.113281,0,16.614258,6.075684,16.614258,17.358887v1.921875h-24.116211
			c0.496094,4.649902,3.78125,7.439453,7.99707,7.439453c2.728516,0,5.456055-0.929688,6.757812-3.47168h9.051758
			C179.484375,42.157227,172.416992,45.381348,165.349609,45.381348z M157.599609,25.046387h14.693359
			c-0.30957-3.905762-3.223633-6.447754-7.25293-6.447754C161.196289,18.598633,158.095703,20.95459,157.599609,25.046387z"/>
		<path style="fill:#032044;" d="M211.587891,44.637207H183.56543v-7.6875l16.677734-17.172852H183.9375v-7.253906h27.34082v7.6875
			l-16.553711,17.17334h16.863281V44.637207z"/>
		<path style="fill:#032044;" d="M228.948242,22.752441c0-14.197266,10.664062-22.442871,21.823242-22.442871
			c10.539062,0,18.84668,6.261719,20.148438,15.74707h-10.105469c-1.177734-4.339355-4.897461-7.129395-10.105469-7.129395
			c-6.323242,0-11.344727,5.331543-11.344727,13.825195s5.083008,14.01123,11.407227,14.01123
			c5.083008,0,8.679688-2.666016,10.105469-7.129395h10.105469c-1.549805,9.547363-9.733398,15.74707-20.273438,15.74707
			C239.240234,45.381348,228.948242,37.011719,228.948242,22.752441z"/>
		<path style="fill:#032044;" d="M273.055664,28.394043c0-10.229492,7.873047-16.676758,17.420898-16.676758
			c9.609375,0,17.420898,6.385254,17.420898,16.676758c0,10.353516-7.75,16.987305-17.420898,16.987305
			C280.743164,45.381348,273.055664,38.80957,273.055664,28.394043z M298.225586,28.394043
			c0-5.393555-3.161133-8.989258-7.749023-8.989258c-4.649414,0-7.75,3.595703-7.75,8.989258
			c0,5.641602,3.162109,9.299316,7.75,9.299316C295.125977,37.693359,298.225586,34.097656,298.225586,28.394043z"/>
		<path style="fill:#032044;" d="M311.804688,0h9.423828v44.637207h-9.423828V0z"/>
		<path style="fill:#032044;" d="M326.827148,0h9.423828v44.637207h-9.423828V0z"/>
		<path style="fill:#032044;" d="M357.193359,45.381348c-9.298828,0-17.110352-6.385742-17.110352-16.987305
			c0-10.291504,8.05957-16.676758,16.924805-16.676758c9.113281,0,16.615234,6.075684,16.615234,17.358887v1.921875h-24.117188
			c0.496094,4.649902,3.782227,7.439453,7.998047,7.439453c2.727539,0,5.455078-0.929688,6.756836-3.47168h9.051758
			C371.329102,42.157227,364.260742,45.381348,357.193359,45.381348z M349.444336,25.046387h14.692383
			c-0.30957-3.905762-3.223633-6.447754-7.25293-6.447754C353.040039,18.598633,349.94043,20.95459,349.444336,25.046387z"/>
		<path style="fill:#032044;" d="M392.737305,57.098633c-9.298828,0-15.00293-4.277832-16.056641-11.097656h9.174805
			c0.682617,2.790039,3.100586,4.339844,6.944336,4.339844c3.967773,0,6.571289-1.983887,6.571289-6.447754v-4.649414
			c-1.860352,2.851562-5.083984,4.525391-9.423828,4.525391c-7.749023,0-14.197266-5.765625-14.197266-16.118652
			c0-10.043457,6.696289-15.871094,14.321289-15.871094c4.463867,0,7.625977,1.797852,9.485352,4.959473v-4.21582h9.175781
			v30.750488C408.732422,52.820801,401.665039,57.098633,392.737305,57.098633z M399.433594,27.650391
			c0-5.332031-3.100586-8.493652-7.005859-8.493652c-4.030273,0-7.005859,3.285645-7.005859,8.493652
			c0,5.517578,2.975586,8.741211,7.005859,8.741211C396.395508,36.391602,399.433594,33.105957,399.433594,27.650391z"/>
		<path style="fill:#032044;" d="M429.670898,45.381348c-9.298828,0-17.110352-6.385742-17.110352-16.987305
			c0-10.291504,8.058594-16.676758,16.924805-16.676758c9.113281,0,16.615234,6.075684,16.615234,17.358887v1.921875h-24.117188
			c0.496094,4.649902,3.782227,7.439453,7.998047,7.439453c2.727539,0,5.455078-0.929688,6.756836-3.47168h9.051758
			C443.806641,42.157227,436.738281,45.381348,429.670898,45.381348z M421.921875,25.046387h14.692383
			c-0.30957-3.905762-3.223633-6.447754-7.25293-6.447754C425.517578,18.598633,422.417969,20.95459,421.921875,25.046387z"/>
		<path style="fill:#032044;" d="M1.611328,95.394043c0-10.229492,7.874023-16.676758,17.420898-16.676758
			c9.609375,0,17.421875,6.385254,17.421875,16.676758c0,10.353516-7.75,16.987305-17.421875,16.987305
			C9.298828,112.381348,1.611328,105.80957,1.611328,95.394043z M26.782227,95.394043c0-5.393555-3.162109-8.989258-7.75-8.989258
			c-4.649414,0-7.749023,3.595703-7.749023,8.989258c0,5.641602,3.162109,9.299316,7.749023,9.299316
			C23.682617,104.693359,26.782227,101.097656,26.782227,95.394043z"/>
		<path style="fill:#032044;" d="M51.464844,86.404785v25.232422h-9.175781V86.404785h-5.331055v-6.881836h5.331055v-3.409668
			c0-7.067871,4.030273-9.175293,10.105469-9.175293c2.417969,0,3.967773,0,6.137695,0.062012v6.943359
			c-1.301758-0.062012-2.541992-0.062012-3.905273-0.062012c-1.860352,0-3.162109,0.496094-3.162109,3.099609v2.541992h7.067383
			v6.881836H51.464844z"/>
		<path style="fill:#032044;" d="M76.947266,68.239746h19.776367c10.105469,0,14.878906,4.773438,14.878906,11.53125
			c0,4.835938-2.727539,8.05957-6.323242,9.175293v0.124023c4.21582,1.302246,7.253906,4.959961,7.253906,10.353516
			c0,7.563477-5.765625,12.213379-16.305664,12.213379H76.947266V68.239746z M86.742188,75.679199v10.105469h8.679688
			c4.091797,0,6.261719-1.797852,6.261719-5.021484c0-3.100098-2.231445-5.083984-6.261719-5.083984H86.742188z
			 M86.742188,92.976074v11.22168h8.494141c4.710938,0,7.25293-2.045898,7.25293-5.57959
			c0-3.596191-2.541992-5.64209-7.191406-5.64209H86.742188z"/>
		<path style="fill:#032044;" d="M138.046875,107.855469c-2.107422,2.975586-5.456055,4.525879-9.423828,4.525879
			c-6.819336,0-11.716797-4.21582-11.716797-12.709473V79.522949h9.423828v18.413086c0,4.153809,2.168945,6.32373,5.579102,6.32373
			c3.038086,0,5.828125-2.169922,5.828125-7.315918V79.522949h9.422852v32.114258h-9.113281V107.855469z"/>
		<path style="fill:#032044;" d="M151.036133,101.469727h8.742188c0.495117,2.976074,3.037109,4.401855,6.508789,4.401855
			c2.728516,0,5.146484-0.992188,5.146484-3.223633c0-1.983887-1.797852-2.852051-5.828125-3.53418l-3.347656-0.619629
			c-6.571289-1.178223-10.663086-4.091797-10.663086-9.237793c0-6.571289,6.075195-10.601074,13.825195-10.601074
			c7.376953,0,13.453125,3.719727,14.321289,10.291016h-8.618164c-0.620117-2.41748-2.727539-3.781738-5.889648-3.781738
			c-2.727539,0-4.773438,1.240234-4.773438,3.162109c0,1.797852,1.612305,2.47998,5.083984,3.099609l3.285156,0.558105
			c7.31543,1.301758,11.655273,4.153809,11.655273,9.733398c0,7.067383-6.695312,10.663574-14.382812,10.663574
			C158.227539,112.381348,151.966797,108.971191,151.036133,101.469727z"/>
		<path style="fill:#032044;" d="M184.360352,67h9.485352v7.811523h-9.485352V67z M184.360352,79.522949h9.423828v32.114258
			h-9.423828V79.522949z"/>
		<path style="fill:#032044;" d="M208.818359,111.637207h-9.422852V79.522949h9.113281v3.905762
			c2.045898-2.975586,5.580078-4.649414,9.733398-4.649414c7.005859,0,11.717773,4.215332,11.717773,12.833008v20.024902h-9.423828
			V93.286133c0-4.091797-2.107422-6.447266-5.641602-6.447266c-3.286133,0-6.076172,2.41748-6.076172,7.6875V111.637207z"/>
		<path style="fill:#032044;" d="M250.575195,112.381348c-9.299805,0-17.111328-6.385742-17.111328-16.987305
			c0-10.291504,8.05957-16.676758,16.925781-16.676758c9.113281,0,16.614258,6.075684,16.614258,17.358887v1.921875h-24.116211
			c0.496094,4.649902,3.78125,7.439453,7.99707,7.439453c2.728516,0,5.456055-0.929688,6.757812-3.47168h9.051758
			C264.709961,109.157227,257.642578,112.381348,250.575195,112.381348z M242.825195,92.046387h14.693359
			c-0.30957-3.905762-3.223633-6.447754-7.25293-6.447754C246.421875,85.598633,243.321289,87.95459,242.825195,92.046387z"/>
		<path style="fill:#032044;" d="M268.989258,101.469727h8.742188c0.495117,2.976074,3.037109,4.401855,6.508789,4.401855
			c2.728516,0,5.146484-0.992188,5.146484-3.223633c0-1.983887-1.797852-2.852051-5.828125-3.53418l-3.347656-0.619629
			c-6.571289-1.178223-10.663086-4.091797-10.663086-9.237793c0-6.571289,6.075195-10.601074,13.825195-10.601074
			c7.376953,0,13.453125,3.719727,14.321289,10.291016h-8.618164c-0.620117-2.41748-2.727539-3.781738-5.889648-3.781738
			c-2.727539,0-4.773438,1.240234-4.773438,3.162109c0,1.797852,1.612305,2.47998,5.083984,3.099609l3.285156,0.558105
			c7.31543,1.301758,11.655273,4.153809,11.655273,9.733398c0,7.067383-6.695312,10.663574-14.382812,10.663574
			C276.180664,112.381348,269.919922,108.971191,268.989258,101.469727z"/>
		<path style="fill:#032044;" d="M300.484375,101.469727h8.742188c0.495117,2.976074,3.037109,4.401855,6.508789,4.401855
			c2.728516,0,5.146484-0.992188,5.146484-3.223633c0-1.983887-1.797852-2.852051-5.828125-3.53418l-3.347656-0.619629
			c-6.571289-1.178223-10.663086-4.091797-10.663086-9.237793c0-6.571289,6.075195-10.601074,13.825195-10.601074
			c7.376953,0,13.453125,3.719727,14.321289,10.291016h-8.618164c-0.620117-2.41748-2.727539-3.781738-5.889648-3.781738
			c-2.727539,0-4.773438,1.240234-4.773438,3.162109c0,1.797852,1.612305,2.47998,5.083984,3.099609l3.285156,0.558105
			c7.31543,1.301758,11.655273,4.153809,11.655273,9.733398c0,7.067383-6.695312,10.663574-14.382812,10.663574
			C307.675781,112.381348,301.415039,108.971191,300.484375,101.469727z"/>
	</g>
</g>
<g>
</g>
<g>
</g>
<g>
</g>
<g>
</g>
<g>
</g>
<g>
</g>
<g>
</g>
<g>
</g>
<g>
</g>
<g>
</g>
<g>
</g>
<g>
</g>
<g>
</g>
<g>
</g>
<g>
</g>
</svg>
