<?xml version="1.0" encoding="iso-8859-1"?>
<!-- Generator: Adobe Illustrator 30.2.1, SVG Export Plug-In . SVG Version: 9.03 Build 0)  -->
<svg version="1.1" id="Layer_1" xmlns="http://www.w3.org/2000/svg" xmlns:xlink="http://www.w3.org/1999/xlink" x="0px" y="0px"
	 viewBox="0 0 338.024 136.315" style="enable-background:new 0 0 338.024 136.315;" xml:space="preserve">
<g id="UnitName_00000155828925717603015420000013519887324746876054_">
	<g>
		<path style="fill:#032044;" d="M1.798,38.998h9.857c0.62,4.65,4.216,6.819,8.928,6.819c4.339,0,7.625-1.798,7.625-5.083
			c0-2.852-2.666-4.278-7.439-5.27l-4.34-0.93C7.191,32.612,2.852,28.458,2.852,21.825c0-7.936,7.626-13.454,16.925-13.454
			c9.485,0,16.678,4.898,17.545,13.516h-9.795c-0.559-3.72-3.534-5.89-7.812-5.89c-3.968,0-7.067,2.045-7.067,4.959
			c0,2.604,1.922,3.72,6.261,4.588l4.836,1.054c8.742,1.736,14.384,5.642,14.384,13.206c0,8.927-8.37,13.639-17.607,13.639
			C10.478,53.443,2.666,48.855,1.798,38.998z"/>
		<path style="fill:#032044;" d="M40.491,36.456c0-10.043,7.812-16.677,17.049-16.677c8.369,0,14.941,4.959,15.933,12.647h-9.299
			c-0.744-3.038-3.41-4.959-6.634-4.959c-4.34,0-7.378,3.658-7.378,8.989c0,5.518,3.101,9.299,7.378,9.299
			c3.162,0,5.704-1.798,6.571-5.021h9.361c-1.239,7.936-7.873,12.709-15.994,12.709C48.055,53.443,40.491,46.81,40.491,36.456z"/>
		<path style="fill:#032044;" d="M86.574,52.699h-9.423V8.062h9.423v13.577c0,0.868,0,1.674,0,2.417
			c2.046-2.666,5.456-4.215,9.424-4.215c7.006,0,11.718,4.215,11.718,12.833v20.025h-9.424V34.348c0-4.092-2.107-6.447-5.642-6.447
			c-3.286,0-6.076,2.417-6.076,7.688V52.699z"/>
		<path style="fill:#032044;" d="M111.22,36.456c0-10.229,7.874-16.677,17.421-16.677c9.609,0,17.422,6.385,17.422,16.677
			c0,10.354-7.75,16.987-17.422,16.987C118.907,53.443,111.22,46.872,111.22,36.456z M136.391,36.456
			c0-5.394-3.162-8.989-7.75-8.989c-4.649,0-7.749,3.596-7.749,8.989c0,5.642,3.162,9.299,7.749,9.299
			C133.291,45.755,136.391,42.16,136.391,36.456z"/>
		<path style="fill:#032044;" d="M148.048,36.456c0-10.229,7.873-16.677,17.421-16.677c9.609,0,17.421,6.385,17.421,16.677
			c0,10.354-7.75,16.987-17.421,16.987C155.735,53.443,148.048,46.872,148.048,36.456z M173.218,36.456
			c0-5.394-3.161-8.989-7.749-8.989c-4.649,0-7.75,3.596-7.75,8.989c0,5.642,3.162,9.299,7.75,9.299
			C170.118,45.755,173.218,42.16,173.218,36.456z"/>
		<path style="fill:#032044;" d="M186.797,8.062h9.424v44.637h-9.424V8.062z"/>
		<path style="fill:#032044;" d="M1.859,103.456c0-10.229,7.874-16.677,17.421-16.677c9.609,0,17.422,6.385,17.422,16.677
			c0,10.354-7.75,16.987-17.422,16.987C9.547,120.443,1.859,113.872,1.859,103.456z M27.03,103.456c0-5.394-3.162-8.989-7.75-8.989
			c-4.649,0-7.749,3.596-7.749,8.989c0,5.642,3.162,9.299,7.749,9.299C23.931,112.755,27.03,109.16,27.03,103.456z"/>
		<path style="fill:#032044;" d="M51.713,94.467v25.232h-9.176V94.467h-5.331v-6.882h5.331v-3.41c0-7.068,4.03-9.175,10.105-9.175
			c2.418,0,3.968,0,6.138,0.062v6.943c-1.302-0.062-2.542-0.062-3.905-0.062c-1.86,0-3.162,0.496-3.162,3.1v2.542h7.067v6.882
			H51.713z"/>
		<path style="fill:#032044;" d="M77.195,76.302h16.181c13.825,0,22.877,7.067,22.877,21.451c0,13.825-9.113,21.947-22.938,21.947
			H77.195V76.302z M92.322,111.392c8.928,0,13.577-5.083,13.577-13.577c0-8.432-4.649-13.205-13.577-13.205h-5.021v26.782H92.322z"
			/>
		<path style="fill:#032044;" d="M135.703,120.443c-9.3,0-17.111-6.386-17.111-16.987c0-10.292,8.06-16.677,16.926-16.677
			c9.113,0,16.614,6.076,16.614,17.359v1.922h-24.116c0.496,4.65,3.781,7.439,7.997,7.439c2.729,0,5.456-0.93,6.758-3.472h9.052
			C149.838,117.219,142.771,120.443,135.703,120.443z M127.953,100.108h14.693c-0.31-3.906-3.224-6.448-7.253-6.448
			C131.55,93.661,128.449,96.017,127.953,100.108z"/>
		<path style="fill:#032044;" d="M165.524,119.699h-9.423V87.585h9.113v3.906c2.046-2.976,5.58-4.649,9.733-4.649
			c7.006,0,11.718,4.215,11.718,12.833v20.025h-9.424v-18.351c0-4.092-2.107-6.447-5.642-6.447c-3.286,0-6.076,2.417-6.076,7.688
			V119.699z"/>
		<path style="fill:#032044;" d="M193.772,110.958V94.467h-5.208v-6.882h5.208v-7.998h9.237v7.998h7.13v6.882h-7.13v14.321
			c0,3.224,0.992,3.844,3.534,3.844h3.596v7.005c-2.17,0.124-3.968,0.124-7.006,0.124
			C197.244,119.761,193.772,118.025,193.772,110.958z"/>
		<path style="fill:#032044;" d="M214.213,75.062h9.485v7.812h-9.485V75.062z M214.213,87.585h9.423v32.114h-9.423V87.585z"/>
		<path style="fill:#032044;" d="M227.394,109.532h8.742c0.495,2.976,3.037,4.402,6.509,4.402c2.729,0,5.146-0.992,5.146-3.224
			c0-1.984-1.798-2.852-5.828-3.534l-3.348-0.62c-6.571-1.178-10.663-4.092-10.663-9.238c0-6.571,6.075-10.601,13.825-10.601
			c7.377,0,13.453,3.72,14.321,10.291h-8.618c-0.62-2.417-2.728-3.782-5.89-3.782c-2.728,0-4.773,1.24-4.773,3.162
			c0,1.798,1.612,2.48,5.084,3.1l3.285,0.558c7.315,1.302,11.655,4.154,11.655,9.733c0,7.067-6.695,10.664-14.383,10.664
			C234.585,120.443,228.324,117.033,227.394,109.532z"/>
		<path style="fill:#032044;" d="M262.863,110.958V94.467h-5.208v-6.882h5.208v-7.998h9.237v7.998h7.13v6.882h-7.13v14.321
			c0,3.224,0.992,3.844,3.534,3.844h3.596v7.005c-2.17,0.124-3.968,0.124-7.006,0.124
			C266.335,119.761,262.863,118.025,262.863,110.958z"/>
		<path style="fill:#032044;" d="M292.727,119.699h-9.423V87.585h9.113v4.774c0.558-0.992,1.302-1.922,2.231-2.728
			c1.86-1.488,3.658-2.294,6.696-2.294c0.806,0,1.735,0.062,2.294,0.186v8.68c-1.488-0.186-2.232-0.186-3.162-0.186
			c-3.534,0-7.75,1.302-7.75,7.377V119.699z"/>
		<path style="fill:#032044;" d="M320.787,131.479h-9.671l5.766-14.011L304.11,87.585h9.857l7.625,19.777l7.006-19.777h9.424
			L320.787,131.479z"/>
	</g>
</g>
<g>
</g>
<g>
</g>
<g>
</g>
<g>
</g>
<g>
</g>
<g>
</g>
<g>
</g>
<g>
</g>
<g>
</g>
<g>
</g>
<g>
</g>
<g>
</g>
<g>
</g>
<g>
</g>
<g>
</g>
</svg>
