<?xml version="1.0" encoding="iso-8859-1"?>
<!-- Generator: Adobe Illustrator 30.2.1, SVG Export Plug-In . SVG Version: 9.03 Build 0)  -->
<svg version="1.1" id="Layer_1" xmlns="http://www.w3.org/2000/svg" xmlns:xlink="http://www.w3.org/1999/xlink" x="0px" y="0px"
	 viewBox="0 0 549.37207 56.47876" style="enable-background:new 0 0 549.37207 56.47876;" xml:space="preserve">
<g>
	<g>
		<path style="fill:#032044;" d="M0,30.998291h9.857422c0.620117,4.649658,4.21582,6.81958,8.927734,6.81958
			c4.339355,0,7.625488-1.797852,7.625488-5.08374c0-2.851807-2.666016-4.277832-7.439453-5.269775l-4.339844-0.929932
			C5.393555,24.612549,1.054199,20.45874,1.054199,13.825195c0-7.935547,7.625488-13.453125,16.924805-13.453125
			c9.485352,0,16.677246,4.897705,17.544922,13.515137h-9.79541c-0.558105-3.719727-3.533691-5.889648-7.811523-5.889648
			c-3.967773,0-7.067383,2.045898-7.067383,4.959717c0,2.60376,1.921875,3.719727,6.26123,4.587646l4.835938,1.053955
			c8.741699,1.736084,14.383301,5.641846,14.383301,13.205322c0,8.92749-8.369629,13.63916-17.606934,13.63916
			C8.679688,45.443359,0.868164,40.855713,0,30.998291z"/>
		<path style="fill:#032044;" d="M38.693359,28.456299c0-10.043457,7.811523-16.677002,17.048828-16.677002
			c8.369629,0,14.941406,4.959717,15.933105,12.647217h-9.299316c-0.744141-3.037598-3.409668-4.959717-6.633789-4.959717
			c-4.339355,0-7.377441,3.657959-7.377441,8.989502c0,5.517822,3.100098,9.299561,7.377441,9.299561
			c3.162109,0,5.704102-1.797852,6.571777-5.021729h9.361328c-1.239746,7.935547-7.873535,12.709229-15.994629,12.709229
			C46.256836,45.443359,38.693359,38.809814,38.693359,28.456299z"/>
		<path style="fill:#032044;" d="M84.776855,44.699463h-9.42334V0.062012h9.42334V13.63916c0,0.86792,0,1.674072,0,2.417969
			c2.045898-2.665771,5.456055-4.21582,9.423828-4.21582c7.005371,0,11.717285,4.21582,11.717285,12.833252v20.024902h-9.423828
			V26.348389c0-4.091553-2.107422-6.44751-5.641602-6.44751c-3.285645,0-6.075684,2.417969-6.075684,7.6875V44.699463z"/>
		<path style="fill:#032044;" d="M109.422363,28.456299c0-10.229248,7.873535-16.677002,17.420898-16.677002
			c9.609375,0,17.421387,6.385742,17.421387,16.677002c0,10.353516-7.75,16.987061-17.421387,16.987061
			C117.109863,45.443359,109.422363,38.871826,109.422363,28.456299z M134.592773,28.456299
			c0-5.393555-3.161621-8.989502-7.749512-8.989502c-4.649414,0-7.749512,3.595947-7.749512,8.989502
			c0,5.641846,3.162109,9.299561,7.749512,9.299561C131.493164,37.755859,134.592773,34.160156,134.592773,28.456299z"/>
		<path style="fill:#032044;" d="M146.25,28.456299c0-10.229248,7.873535-16.677002,17.420898-16.677002
			c9.609375,0,17.420898,6.385742,17.420898,16.677002c0,10.353516-7.749512,16.987061-17.420898,16.987061
			C153.9375,45.443359,146.25,38.871826,146.25,28.456299z M171.42041,28.456299c0-5.393555-3.161621-8.989502-7.749512-8.989502
			c-4.649414,0-7.749512,3.595947-7.749512,8.989502c0,5.641846,3.162109,9.299561,7.749512,9.299561
			C168.320801,37.755859,171.42041,34.160156,171.42041,28.456299z"/>
		<path style="fill:#032044;" d="M184.999512,0.062012h9.42334v44.637451h-9.42334V0.062012z"/>
		<path style="fill:#032044;" d="M213.208984,28.456299c0-10.229248,7.873535-16.677002,17.420898-16.677002
			c9.609375,0,17.420898,6.385742,17.420898,16.677002c0,10.353516-7.749512,16.987061-17.420898,16.987061
			C220.896484,45.443359,213.208984,38.871826,213.208984,28.456299z M238.379395,28.456299
			c0-5.393555-3.161621-8.989502-7.749512-8.989502c-4.649414,0-7.749512,3.595947-7.749512,8.989502
			c0,5.641846,3.162109,9.299561,7.749512,9.299561C235.279785,37.755859,238.379395,34.160156,238.379395,28.456299z"/>
		<path style="fill:#032044;" d="M263.062012,19.466797v25.232666h-9.175293V19.466797h-5.331543v-6.881592h5.331543V9.175537
			C253.886719,2.10791,257.916504,0,263.992188,0c2.417969,0,3.967773,0,6.137695,0.062012v6.943604
			c-1.302246-0.062012-2.541992-0.062012-3.905762-0.062012c-1.859863,0-3.162109,0.496094-3.162109,3.099854v2.541748h7.067871
			v6.881592H263.062012z"/>
		<path style="fill:#032044;" d="M288.544922,1.302002h16.181152c13.825195,0,22.876465,7.067627,22.876465,21.450684
			c0,13.825195-9.113281,21.946777-22.938477,21.946777h-16.119141V1.302002z M303.671875,36.391846
			c8.927734,0,13.577148-5.083496,13.577148-13.577148c0-8.431396-4.649414-13.205322-13.577148-13.205322h-5.021484v26.782471
			H303.671875z"/>
		<path style="fill:#032044;" d="M347.052734,45.443359c-9.298828,0-17.11084-6.385498-17.11084-16.987061
			c0-10.29126,8.059082-16.677002,16.925293-16.677002c9.113281,0,16.615234,6.075684,16.615234,17.359131v1.921875h-24.117188
			c0.496094,4.649658,3.782227,7.439453,7.998047,7.439453c2.727539,0,5.455078-0.929932,6.756836-3.47168h9.051758
			C361.188477,42.219482,354.120117,45.443359,347.052734,45.443359z M339.303711,25.108643h14.692383
			c-0.30957-3.905762-3.223633-6.447754-7.25293-6.447754C342.899414,18.660889,339.799805,21.016846,339.303711,25.108643z"/>
		<path style="fill:#032044;" d="M376.874023,44.699463h-9.422852V12.585205h9.113281v3.905762
			c2.045898-2.97583,5.579102-4.649658,9.733398-4.649658c7.005859,0,11.716797,4.21582,11.716797,12.833252v20.024902h-9.422852
			V26.348389c0-4.091553-2.108398-6.44751-5.641602-6.44751c-3.286133,0-6.076172,2.417969-6.076172,7.6875V44.699463z"/>
		<path style="fill:#032044;" d="M405.12207,35.958008V19.466797h-5.208008v-6.881592h5.208008V4.587646h9.237305v7.997559h7.128906
			v6.881592h-7.128906v14.321289c0,3.223877,0.991211,3.84375,3.533203,3.84375h3.595703v7.005615
			c-2.169922,0.124023-3.967773,0.124023-7.004883,0.124023C408.59375,44.761475,405.12207,43.025635,405.12207,35.958008z"/>
		<path style="fill:#032044;" d="M425.5625,0.062012h9.485352v7.811523H425.5625V0.062012z M425.5625,12.585205h9.422852v32.114258
			H425.5625V12.585205z"/>
		<path style="fill:#032044;" d="M438.743164,34.531982h8.741211c0.496094,2.97583,3.038086,4.401855,6.509766,4.401855
			c2.728516,0,5.145508-0.991943,5.145508-3.223877c0-1.983887-1.797852-2.851807-5.827148-3.533691l-3.347656-0.620117
			c-6.572266-1.177979-10.664062-4.091797-10.664062-9.237305c0-6.571777,6.076172-10.601562,13.825195-10.601562
			c7.37793,0,13.454102,3.719971,14.321289,10.291504h-8.617188c-0.620117-2.417969-2.727539-3.781738-5.889648-3.781738
			c-2.727539,0-4.773438,1.239746-4.773438,3.161865c0,1.797852,1.611328,2.479736,5.083008,3.099609l3.286133,0.558105
			c7.31543,1.301758,11.655273,4.153809,11.655273,9.733398c0,7.067627-6.695312,10.66333-14.382812,10.66333
			C445.93457,45.443359,439.672852,42.033691,438.743164,34.531982z"/>
		<path style="fill:#032044;" d="M474.212891,35.958008V19.466797h-5.208008v-6.881592h5.208008V4.587646h9.237305v7.997559
			h7.128906v6.881592h-7.128906v14.321289c0,3.223877,0.991211,3.84375,3.533203,3.84375h3.595703v7.005615
			c-2.169922,0.124023-3.967773,0.124023-7.004883,0.124023C477.68457,44.761475,474.212891,43.025635,474.212891,35.958008z"/>
		<path style="fill:#032044;" d="M504.076172,44.699463h-9.422852V12.585205h9.113281v4.773926
			c0.557617-0.991943,1.301758-1.921875,2.231445-2.728027c1.860352-1.487793,3.658203-2.293701,6.696289-2.293701
			c0.805664,0,1.735352,0.062012,2.292969,0.185791v8.679688c-1.487305-0.186035-2.231445-0.186035-3.161133-0.186035
			c-3.53418,0-7.75,1.302002-7.75,7.377441V44.699463z"/>
		<path style="fill:#032044;" d="M532.136719,56.47876h-9.670898l5.765625-14.01123l-12.771484-29.882324h9.857422
			l7.625977,19.776855l7.004883-19.776855h9.423828L532.136719,56.47876z"/>
	</g>
</g>
<g>
</g>
<g>
</g>
<g>
</g>
<g>
</g>
<g>
</g>
<g>
</g>
<g>
</g>
<g>
</g>
<g>
</g>
<g>
</g>
<g>
</g>
<g>
</g>
<g>
</g>
<g>
</g>
<g>
</g>
</svg>
