<?xml version="1.0" encoding="iso-8859-1"?>
<!-- Generator: Adobe Illustrator 30.2.1, SVG Export Plug-In . SVG Version: 9.03 Build 0)  -->
<svg version="1.1" id="Layer_1" xmlns="http://www.w3.org/2000/svg" xmlns:xlink="http://www.w3.org/1999/xlink" x="0px" y="0px"
	 viewBox="0 0 666.101 136.315" style="enable-background:new 0 0 666.101 136.315;" xml:space="preserve">
<g id="UnitName_00000155828925717603015420000013519887324746876054_">
	<g>
		<path style="fill:#032044;" d="M2.107,30.814c0-14.197,10.664-22.443,21.823-22.443c10.539,0,18.847,6.262,20.148,15.747H33.974
			c-1.178-4.339-4.897-7.129-10.105-7.129c-6.323,0-11.345,5.332-11.345,13.825s5.083,14.011,11.407,14.011
			c5.083,0,8.68-2.666,10.105-7.129h10.105c-1.55,9.547-9.733,15.747-20.273,15.747C12.399,53.443,2.107,45.074,2.107,30.814z"/>
		<path style="fill:#032044;" d="M46.214,36.456c0-10.229,7.874-16.677,17.421-16.677c9.609,0,17.422,6.385,17.422,16.677
			c0,10.354-7.75,16.987-17.422,16.987C53.901,53.443,46.214,46.872,46.214,36.456z M71.385,36.456c0-5.394-3.162-8.989-7.75-8.989
			c-4.649,0-7.749,3.596-7.749,8.989c0,5.642,3.162,9.299,7.749,9.299C68.285,45.755,71.385,42.16,71.385,36.456z"/>
		<path style="fill:#032044;" d="M84.964,8.062h9.423v44.637h-9.423V8.062z"/>
		<path style="fill:#032044;" d="M99.986,8.062h9.423v44.637h-9.423V8.062z"/>
		<path style="fill:#032044;" d="M130.353,53.443c-9.3,0-17.111-6.386-17.111-16.987c0-10.292,8.06-16.677,16.926-16.677
			c9.113,0,16.614,6.076,16.614,17.359v1.922h-24.116c0.496,4.65,3.781,7.439,7.997,7.439c2.729,0,5.456-0.93,6.758-3.472h9.052
			C144.487,50.219,137.42,53.443,130.353,53.443z M122.603,33.108h14.693c-0.31-3.906-3.224-6.448-7.253-6.448
			C126.199,26.661,123.099,29.017,122.603,33.108z"/>
		<path style="fill:#032044;" d="M165.896,65.161c-9.3,0-15.003-4.278-16.058-11.098h9.176c0.683,2.79,3.1,4.34,6.943,4.34
			c3.968,0,6.572-1.984,6.572-6.448v-4.649c-1.86,2.852-5.084,4.525-9.424,4.525c-7.749,0-14.197-5.766-14.197-16.119
			c0-10.043,6.696-15.871,14.321-15.871c4.464,0,7.626,1.798,9.485,4.959v-4.216h9.176v30.75
			C181.892,60.883,174.824,65.161,165.896,65.161z M172.592,35.712c0-5.332-3.1-8.494-7.005-8.494c-4.03,0-7.006,3.286-7.006,8.494
			c0,5.518,2.976,8.741,7.006,8.741C169.555,44.454,172.592,41.168,172.592,35.712z"/>
		<path style="fill:#032044;" d="M202.829,53.443c-9.299,0-17.11-6.386-17.11-16.987c0-10.292,8.06-16.677,16.925-16.677
			c9.113,0,16.615,6.076,16.615,17.359v1.922h-24.117c0.496,4.65,3.782,7.439,7.998,7.439c2.728,0,5.456-0.93,6.758-3.472h9.051
			C216.965,50.219,209.897,53.443,202.829,53.443z M195.08,33.108h14.693c-0.311-3.906-3.224-6.448-7.254-6.448
			C198.676,26.661,195.576,29.017,195.08,33.108z"/>
		<path style="fill:#032044;" d="M236.124,36.456c0-10.229,7.873-16.677,17.421-16.677c9.609,0,17.421,6.385,17.421,16.677
			c0,10.354-7.75,16.987-17.421,16.987C243.812,53.443,236.124,46.872,236.124,36.456z M261.294,36.456
			c0-5.394-3.161-8.989-7.749-8.989c-4.649,0-7.75,3.596-7.75,8.989c0,5.642,3.162,9.299,7.75,9.299
			C258.194,45.755,261.294,42.16,261.294,36.456z"/>
		<path style="fill:#032044;" d="M285.977,27.467v25.232h-9.175V27.467h-5.332v-6.882h5.332v-3.41c0-7.068,4.029-9.175,10.105-9.175
			c2.418,0,3.968,0,6.138,0.062v6.943c-1.303-0.062-2.542-0.062-3.906-0.062c-1.859,0-3.162,0.496-3.162,3.1v2.542h7.068v6.882
			H285.977z"/>
		<path style="fill:#032044;" d="M343.512,52.699h-32.053V9.302h31.681v8.06h-21.823v9.113h20.087v7.874h-20.087V44.64h22.195
			V52.699z"/>
		<path style="fill:#032044;" d="M370.624,48.173c-1.922,3.348-5.207,5.208-9.671,5.208c-7.998,0-14.879-5.828-14.879-16.987
			c0-10.725,7.129-16.553,15.003-16.553c4.153,0,7.315,1.55,9.237,4.339V8.062h9.424v44.637h-9.114V48.173z M370.5,36.394
			c0-5.704-3.161-8.989-7.377-8.989c-4.278,0-7.378,3.286-7.378,8.989c0,5.952,3.1,9.423,7.378,9.423
			C367.215,45.817,370.5,42.408,370.5,36.394z"/>
		<path style="fill:#032044;" d="M406.305,48.917c-2.108,2.976-5.456,4.526-9.424,4.526c-6.819,0-11.717-4.216-11.717-12.709V20.585
			h9.423v18.413c0,4.154,2.17,6.324,5.58,6.324c3.038,0,5.827-2.17,5.827-7.316V20.585h9.424v32.114h-9.113V48.917z"/>
		<path style="fill:#032044;" d="M419.215,36.456c0-10.043,7.812-16.677,17.049-16.677c8.369,0,14.94,4.959,15.933,12.647h-9.299
			c-0.744-3.038-3.41-4.959-6.634-4.959c-4.34,0-7.378,3.658-7.378,8.989c0,5.518,3.1,9.299,7.378,9.299
			c3.161,0,5.703-1.798,6.571-5.021h9.361c-1.239,7.936-7.873,12.709-15.995,12.709C426.778,53.443,419.215,46.81,419.215,36.456z"
			/>
		<path style="fill:#032044;" d="M476.091,49.042c-2.107,2.604-5.394,4.34-10.043,4.34c-6.076,0-11.903-3.472-11.903-10.043
			c0-6.696,5.394-9.052,13.887-10.416l7.378-1.178v-0.434c0-3.472-1.922-4.836-5.27-4.836c-3.41,0-5.518,1.612-6.076,4.588h-8.803
			c1.054-7.006,7.191-11.283,15.312-11.283c8.68,0,14.136,3.41,14.073,12.461l-0.062,13.639c0,1.054,0.062,2.914,0.248,6.82h-8.618
			L476.091,49.042z M468.466,46.686c3.781,0,6.943-2.232,6.943-6.696v-2.17c-8.493,1.054-12.151,1.984-12.151,5.084
			C463.258,45.384,465.49,46.686,468.466,46.686z"/>
		<path style="fill:#032044;" d="M491.81,43.958V27.467h-5.208v-6.882h5.208v-7.998h9.237v7.998h7.129v6.882h-7.129v14.321
			c0,3.224,0.991,3.844,3.533,3.844h3.596v7.005c-2.17,0.124-3.968,0.124-7.005,0.124C495.281,52.761,491.81,51.025,491.81,43.958z"
			/>
		<path style="fill:#032044;" d="M512.25,8.062h9.485v7.812h-9.485V8.062z M512.25,20.585h9.423v32.114h-9.423V20.585z"/>
		<path style="fill:#032044;" d="M525.344,36.456c0-10.229,7.873-16.677,17.421-16.677c9.609,0,17.421,6.385,17.421,16.677
			c0,10.354-7.75,16.987-17.421,16.987C533.031,53.443,525.344,46.872,525.344,36.456z M550.514,36.456
			c0-5.394-3.162-8.989-7.749-8.989c-4.65,0-7.75,3.596-7.75,8.989c0,5.642,3.162,9.299,7.75,9.299
			C547.414,45.755,550.514,42.16,550.514,36.456z"/>
		<path style="fill:#032044;" d="M573.436,52.699h-9.423V20.585h9.113v3.906c2.046-2.976,5.579-4.649,9.733-4.649
			c7.006,0,11.717,4.215,11.717,12.833v20.025h-9.423V34.348c0-4.092-2.108-6.447-5.642-6.447c-3.286,0-6.076,2.417-6.076,7.688
			V52.699z"/>
		<path style="fill:#032044;" d="M29.944,116.662c-3.472,2.355-7.439,3.782-12.586,3.782c-8.927,0-15.312-4.836-15.312-12.647
			c0-5.642,3.224-9.485,8.432-12.151c-2.294-2.604-3.844-5.27-3.844-8.865c0-6.634,5.766-11.346,13.205-11.346
			c7.625,0,13.019,4.34,13.019,11.098c0,4.959-3.161,8.431-8.865,10.911l6.572,7.068c1.363-2.046,2.17-4.402,2.541-7.316h8.68
			c-0.496,5.27-2.294,10.043-5.394,13.639l8.184,8.804v0.062H32.796L29.944,116.662z M18.165,112.941
			c2.355,0,4.588-0.682,6.51-2.046l-9.052-9.795c-2.79,1.488-4.154,3.534-4.154,6.014C11.469,110.648,14.569,112.941,18.165,112.941
			z M18.847,92.483c3.782-1.426,5.518-3.286,5.518-5.704c0-2.542-1.983-4.278-4.588-4.278c-2.728,0-4.649,1.86-4.649,4.34
			C15.127,88.887,16.615,90.499,18.847,92.483z"/>
		<path style="fill:#032044;" d="M62.433,76.302h10.105v16.677h18.909V76.302h10.105v43.397H91.447V101.41H72.538v18.289H62.433
			V76.302z"/>
		<path style="fill:#032044;" d="M128.777,115.917c-2.107,2.976-5.456,4.526-9.424,4.526c-6.819,0-11.717-4.216-11.717-12.709
			V87.585h9.424v18.413c0,4.154,2.169,6.324,5.579,6.324c3.038,0,5.828-2.17,5.828-7.316V87.585h9.423v32.114h-9.113V115.917z"/>
		<path style="fill:#032044;" d="M152.964,119.699h-9.424V87.585h9.114v3.782c1.983-2.914,5.394-4.525,9.547-4.525
			c3.782,0,7.502,1.55,9.672,5.208c2.107-3.41,5.951-5.208,10.478-5.208c6.323,0,11.841,3.472,11.841,12.523v20.335h-9.424V101.1
			c0-4.154-2.294-6.199-5.394-6.199c-3.037,0-5.766,2.355-5.766,7.315v17.483h-9.423V101.1c0-4.154-2.294-6.199-5.395-6.199
			c-3.037,0-5.827,2.293-5.827,7.315V119.699z"/>
		<path style="fill:#032044;" d="M219.886,116.042c-2.107,2.604-5.394,4.34-10.043,4.34c-6.076,0-11.903-3.472-11.903-10.043
			c0-6.696,5.394-9.052,13.887-10.416l7.378-1.178v-0.434c0-3.472-1.922-4.836-5.27-4.836c-3.41,0-5.518,1.612-6.076,4.588h-8.804
			c1.055-7.006,7.192-11.283,15.313-11.283c8.68,0,14.136,3.41,14.073,12.461l-0.062,13.639c0,1.054,0.062,2.914,0.247,6.82h-8.617
			L219.886,116.042z M212.261,113.686c3.781,0,6.943-2.232,6.943-6.696v-2.17c-8.494,1.054-12.151,1.984-12.151,5.084
			C207.053,112.384,209.284,113.686,212.261,113.686z"/>
		<path style="fill:#032044;" d="M243.254,119.699h-9.424V87.585h9.114v3.906c2.045-2.976,5.579-4.649,9.733-4.649
			c7.005,0,11.717,4.215,11.717,12.833v20.025h-9.424v-18.351c0-4.092-2.107-6.447-5.642-6.447c-3.285,0-6.075,2.417-6.075,7.688
			V119.699z"/>
		<path style="fill:#032044;" d="M285.166,76.302h16.181c13.825,0,22.877,7.067,22.877,21.451c0,13.825-9.113,21.947-22.938,21.947
			h-16.119V76.302z M300.293,111.392c8.928,0,13.577-5.083,13.577-13.577c0-8.432-4.649-13.205-13.577-13.205h-5.021v26.782H300.293
			z"/>
		<path style="fill:#032044;" d="M343.674,120.443c-9.3,0-17.111-6.386-17.111-16.987c0-10.292,8.06-16.677,16.926-16.677
			c9.113,0,16.615,6.076,16.615,17.359v1.922h-24.117c0.496,4.65,3.782,7.439,7.998,7.439c2.728,0,5.455-0.93,6.757-3.472h9.052
			C357.81,117.219,350.741,120.443,343.674,120.443z M335.925,100.108h14.692c-0.31-3.906-3.224-6.448-7.253-6.448
			C339.521,93.661,336.421,96.017,335.925,100.108z"/>
		<path style="fill:#032044;" d="M380.725,119.699h-9.733l-11.903-32.114h9.733l7.253,22.071l7.191-22.071h9.3L380.725,119.699z"/>
		<path style="fill:#032044;" d="M408.493,120.443c-9.299,0-17.11-6.386-17.11-16.987c0-10.292,8.059-16.677,16.925-16.677
			c9.113,0,16.615,6.076,16.615,17.359v1.922h-24.117c0.496,4.65,3.782,7.439,7.998,7.439c2.728,0,5.455-0.93,6.757-3.472h9.052
			C422.629,117.219,415.561,120.443,408.493,120.443z M400.744,100.108h14.692c-0.31-3.906-3.224-6.448-7.253-6.448
			C404.34,93.661,401.24,96.017,400.744,100.108z"/>
		<path style="fill:#032044;" d="M428.855,75.062h9.423v44.637h-9.423V75.062z"/>
		<path style="fill:#032044;" d="M442.11,103.456c0-10.229,7.873-16.677,17.421-16.677c9.609,0,17.421,6.385,17.421,16.677
			c0,10.354-7.75,16.987-17.421,16.987C449.798,120.443,442.11,113.872,442.11,103.456z M467.28,103.456
			c0-5.394-3.162-8.989-7.749-8.989c-4.65,0-7.75,3.596-7.75,8.989c0,5.642,3.162,9.299,7.75,9.299
			C464.181,112.755,467.28,109.16,467.28,103.456z"/>
		<path style="fill:#032044;" d="M490.202,115.669v15.809h-9.423V87.585h9.175v4.154c1.86-3.1,5.146-4.897,9.672-4.897
			c7.997,0,14.817,5.704,14.817,16.553c0,11.098-6.882,16.987-14.88,16.987C495.224,120.381,492.124,118.646,490.202,115.669z
			 M504.833,103.394c0-5.89-3.224-8.989-7.377-8.989c-4.278,0-7.439,3.348-7.439,8.989c0,6.014,3.348,9.423,7.439,9.423
			C501.609,112.817,504.833,109.408,504.833,103.394z"/>
		<path style="fill:#032044;" d="M527.86,119.699h-9.423V87.585h9.113v3.782c1.983-2.914,5.394-4.525,9.547-4.525
			c3.782,0,7.502,1.55,9.672,5.208c2.107-3.41,5.951-5.208,10.478-5.208c6.323,0,11.841,3.472,11.841,12.523v20.335h-9.423V101.1
			c0-4.154-2.294-6.199-5.394-6.199c-3.038,0-5.767,2.355-5.767,7.315v17.483h-9.423V101.1c0-4.154-2.294-6.199-5.394-6.199
			c-3.038,0-5.828,2.293-5.828,7.315V119.699z"/>
		<path style="fill:#032044;" d="M589.804,120.443c-9.299,0-17.11-6.386-17.11-16.987c0-10.292,8.059-16.677,16.925-16.677
			c9.113,0,16.615,6.076,16.615,17.359v1.922h-24.117c0.496,4.65,3.782,7.439,7.998,7.439c2.728,0,5.455-0.93,6.757-3.472h9.052
			C603.939,117.219,596.871,120.443,589.804,120.443z M582.055,100.108h14.692c-0.31-3.906-3.224-6.448-7.253-6.448
			C585.65,93.661,582.551,96.017,582.055,100.108z"/>
		<path style="fill:#032044;" d="M619.626,119.699h-9.423V87.585h9.113v3.906c2.046-2.976,5.579-4.649,9.733-4.649
			c7.006,0,11.717,4.215,11.717,12.833v20.025h-9.423v-18.351c0-4.092-2.108-6.447-5.642-6.447c-3.286,0-6.076,2.417-6.076,7.688
			V119.699z"/>
		<path style="fill:#032044;" d="M647.873,110.958V94.467h-5.208v-6.882h5.208v-7.998h9.237v7.998h7.129v6.882h-7.129v14.321
			c0,3.224,0.991,3.844,3.533,3.844h3.596v7.005c-2.17,0.124-3.968,0.124-7.005,0.124
			C651.345,119.761,647.873,118.025,647.873,110.958z"/>
	</g>
</g>
<g>
</g>
<g>
</g>
<g>
</g>
<g>
</g>
<g>
</g>
<g>
</g>
<g>
</g>
<g>
</g>
<g>
</g>
<g>
</g>
<g>
</g>
<g>
</g>
<g>
</g>
<g>
</g>
<g>
</g>
</svg>
