<?xml version="1.0" encoding="iso-8859-1"?>
<!-- Generator: Adobe Illustrator 30.2.1, SVG Export Plug-In . SVG Version: 9.03 Build 0)  -->
<svg version="1.1" id="Layer_1" xmlns="http://www.w3.org/2000/svg" xmlns:xlink="http://www.w3.org/1999/xlink" x="0px" y="0px"
	 viewBox="0 0 1168.677 69.316" style="enable-background:new 0 0 1168.677 69.316;" xml:space="preserve">
<g id="UnitName_00000083051636230227074460000000021105607283046073_">
	<g>
		<path style="fill:#032044;" d="M25.046,29.017h19.839v23.683h-8.431l-0.062-4.96c-2.728,3.224-7.44,5.642-13.33,5.642
			c-11.035,0-20.955-8.555-20.955-22.567c0-14.135,10.354-22.443,22.691-22.443c10.167,0,18.537,5.518,20.024,14.445h-9.981
			c-1.116-3.72-4.897-6.138-10.043-6.138c-7.378,0-12.399,5.332-12.399,14.135c0,8.99,5.146,14.321,12.275,14.321
			c5.456,0,10.167-3.534,10.849-8.432v-0.062H25.046V29.017z"/>
		<path style="fill:#032044;" d="M60.362,52.699h-9.423V20.585h9.113v4.774c0.558-0.992,1.302-1.922,2.232-2.728
			c1.86-1.488,3.658-2.294,6.696-2.294c0.806,0,1.736,0.062,2.294,0.186v8.68c-1.488-0.186-2.232-0.186-3.162-0.186
			c-3.534,0-7.75,1.302-7.75,7.377V52.699z"/>
		<path style="fill:#032044;" d="M94.063,49.042c-2.108,2.604-5.394,4.34-10.043,4.34c-6.076,0-11.903-3.472-11.903-10.043
			c0-6.696,5.394-9.051,13.887-10.415l7.377-1.178v-0.434c0-3.472-1.922-4.836-5.27-4.836c-3.41,0-5.518,1.612-6.076,4.588h-8.804
			c1.054-7.006,7.192-11.283,15.313-11.283c8.679,0,14.135,3.41,14.073,12.461l-0.062,13.639c0,1.054,0.062,2.914,0.248,6.82h-8.617
			L94.063,49.042z M86.438,46.686c3.782,0,6.943-2.232,6.943-6.696v-2.17c-8.494,1.054-12.151,1.984-12.151,5.084
			C81.23,45.384,83.462,46.686,86.438,46.686z"/>
		<path style="fill:#032044;" d="M130.736,48.174c-1.922,3.348-5.208,5.208-9.671,5.208c-7.998,0-14.879-5.828-14.879-16.987
			c0-10.725,7.129-16.553,15.003-16.553c4.154,0,7.316,1.55,9.238,4.34V8.062h9.423v44.637h-9.113V48.174z M130.612,36.394
			c0-5.704-3.162-8.989-7.378-8.989c-4.277,0-7.377,3.286-7.377,8.989c0,5.952,3.1,9.424,7.377,9.424
			C127.326,45.818,130.612,42.408,130.612,36.394z"/>
		<path style="fill:#032044;" d="M166.417,48.918c-2.108,2.976-5.456,4.526-9.424,4.526c-6.819,0-11.717-4.216-11.717-12.709V20.585
			h9.424v18.413c0,4.154,2.169,6.323,5.58,6.323c3.038,0,5.828-2.17,5.828-7.315V20.585h9.423v32.114h-9.113V48.918z"/>
		<path style="fill:#032044;" d="M201.415,49.042c-2.108,2.604-5.394,4.34-10.043,4.34c-6.076,0-11.903-3.472-11.903-10.043
			c0-6.696,5.394-9.051,13.887-10.415l7.377-1.178v-0.434c0-3.472-1.922-4.836-5.27-4.836c-3.41,0-5.518,1.612-6.076,4.588h-8.804
			c1.054-7.006,7.192-11.283,15.313-11.283c8.679,0,14.135,3.41,14.073,12.461l-0.062,13.639c0,1.054,0.062,2.914,0.248,6.82h-8.617
			L201.415,49.042z M193.789,46.686c3.782,0,6.943-2.232,6.943-6.696v-2.17c-8.494,1.054-12.151,1.984-12.151,5.084
			C188.581,45.384,190.813,46.686,193.789,46.686z"/>
		<path style="fill:#032044;" d="M217.132,43.958V27.467h-5.208v-6.882h5.208v-7.998h9.237v7.998h7.13v6.882h-7.13v14.321
			c0,3.224,0.992,3.844,3.534,3.844h3.596v7.006c-2.17,0.124-3.968,0.124-7.006,0.124C220.604,52.761,217.132,51.026,217.132,43.958
			z"/>
		<path style="fill:#032044;" d="M251.825,53.443c-9.299,0-17.111-6.385-17.111-16.987c0-10.291,8.06-16.677,16.925-16.677
			c9.113,0,16.615,6.076,16.615,17.359v1.922h-24.117c0.496,4.65,3.782,7.439,7.998,7.439c2.728,0,5.456-0.93,6.758-3.472h9.051
			C265.96,50.219,258.893,53.443,251.825,53.443z M244.076,33.109h14.693c-0.31-3.906-3.224-6.448-7.253-6.448
			C247.672,26.661,244.572,29.017,244.076,33.109z"/>
		<path style="fill:#032044;" d="M285.058,38.998h9.857c0.62,4.65,4.216,6.82,8.928,6.82c4.339,0,7.625-1.798,7.625-5.084
			c0-2.852-2.666-4.278-7.439-5.27l-4.34-0.93c-9.238-1.922-13.577-6.076-13.577-12.709c0-7.936,7.625-13.453,16.925-13.453
			c9.485,0,16.677,4.898,17.545,13.515h-9.795c-0.558-3.72-3.534-5.89-7.812-5.89c-3.968,0-7.067,2.046-7.067,4.96
			c0,2.604,1.922,3.72,6.261,4.588l4.836,1.054c8.742,1.736,14.383,5.642,14.383,13.205c0,8.927-8.37,13.639-17.607,13.639
			C293.737,53.443,285.926,48.856,285.058,38.998z"/>
		<path style="fill:#032044;" d="M323.751,36.456c0-10.043,7.812-16.677,17.049-16.677c8.37,0,14.941,4.96,15.934,12.647h-9.3
			c-0.744-3.038-3.41-4.96-6.634-4.96c-4.34,0-7.377,3.658-7.377,8.99c0,5.518,3.1,9.3,7.377,9.3c3.162,0,5.704-1.798,6.572-5.022
			h9.361c-1.24,7.936-7.874,12.709-15.995,12.709C331.314,53.443,323.751,46.81,323.751,36.456z"/>
		<path style="fill:#032044;" d="M369.835,52.699h-9.423V8.062h9.423v13.577c0,0.868,0,1.674,0,2.418
			c2.046-2.666,5.456-4.216,9.424-4.216c7.006,0,11.717,4.216,11.717,12.833v20.025h-9.423V34.348c0-4.092-2.108-6.448-5.642-6.448
			c-3.286,0-6.076,2.418-6.076,7.688V52.699z"/>
		<path style="fill:#032044;" d="M394.48,36.456c0-10.229,7.873-16.677,17.421-16.677c9.609,0,17.421,6.386,17.421,16.677
			c0,10.354-7.75,16.987-17.421,16.987C402.168,53.443,394.48,46.872,394.48,36.456z M419.65,36.456c0-5.394-3.162-8.99-7.749-8.99
			c-4.65,0-7.75,3.596-7.75,8.99c0,5.642,3.162,9.3,7.75,9.3C416.551,45.756,419.65,42.16,419.65,36.456z"/>
		<path style="fill:#032044;" d="M431.309,36.456c0-10.229,7.873-16.677,17.421-16.677c9.609,0,17.421,6.386,17.421,16.677
			c0,10.354-7.75,16.987-17.421,16.987C438.996,53.443,431.309,46.872,431.309,36.456z M456.479,36.456
			c0-5.394-3.162-8.99-7.749-8.99c-4.65,0-7.75,3.596-7.75,8.99c0,5.642,3.162,9.3,7.75,9.3
			C453.379,45.756,456.479,42.16,456.479,36.456z"/>
		<path style="fill:#032044;" d="M470.058,8.062h9.423v44.637h-9.423V8.062z"/>
		<path style="fill:#032044;" d="M498.268,36.456c0-10.229,7.873-16.677,17.421-16.677c9.609,0,17.421,6.386,17.421,16.677
			c0,10.354-7.75,16.987-17.421,16.987C505.955,53.443,498.268,46.872,498.268,36.456z M523.438,36.456
			c0-5.394-3.162-8.99-7.749-8.99c-4.65,0-7.75,3.596-7.75,8.99c0,5.642,3.162,9.3,7.75,9.3
			C520.338,45.756,523.438,42.16,523.438,36.456z"/>
		<path style="fill:#032044;" d="M548.12,27.467v25.233h-9.176V27.467h-5.331v-6.882h5.331v-3.41c0-7.068,4.03-9.176,10.105-9.176
			c2.418,0,3.968,0,6.138,0.062v6.944c-1.302-0.062-2.541-0.062-3.905-0.062c-1.86,0-3.162,0.496-3.162,3.1v2.542h7.067v6.882
			H548.12z"/>
		<path style="fill:#032044;" d="M573.602,9.302h19.777c10.105,0,14.879,4.774,14.879,11.531c0,4.836-2.728,8.06-6.323,9.176v0.124
			c4.216,1.302,7.253,4.96,7.253,10.353c0,7.564-5.766,12.213-16.305,12.213h-19.281V9.302z M583.397,16.741v10.105h8.68
			c4.092,0,6.262-1.798,6.262-5.022c0-3.1-2.232-5.084-6.262-5.084H583.397z M583.397,34.039V45.26h8.493
			c4.712,0,7.254-2.046,7.254-5.58c0-3.596-2.542-5.642-7.191-5.642H583.397z"/>
		<path style="fill:#032044;" d="M613.946,8.062h9.485v7.812h-9.485V8.062z M613.946,20.585h9.423v32.114h-9.423V20.585z"/>
		<path style="fill:#032044;" d="M627.04,36.456c0-10.229,7.873-16.677,17.421-16.677c9.609,0,17.421,6.386,17.421,16.677
			c0,10.354-7.75,16.987-17.421,16.987C634.728,53.443,627.04,46.872,627.04,36.456z M652.21,36.456c0-5.394-3.162-8.99-7.749-8.99
			c-4.65,0-7.75,3.596-7.75,8.99c0,5.642,3.162,9.3,7.75,9.3C649.11,45.756,652.21,42.16,652.21,36.456z"/>
		<path style="fill:#032044;" d="M675.132,52.699h-9.423V20.585h9.113v3.782c1.983-2.914,5.394-4.526,9.547-4.526
			c3.782,0,7.502,1.55,9.672,5.208c2.107-3.41,5.951-5.208,10.478-5.208c6.323,0,11.841,3.472,11.841,12.523v20.335h-9.423V34.101
			c0-4.154-2.294-6.2-5.394-6.2c-3.038,0-5.767,2.356-5.767,7.316v17.483h-9.423V34.101c0-4.154-2.294-6.2-5.394-6.2
			c-3.038,0-5.828,2.294-5.828,7.316V52.699z"/>
		<path style="fill:#032044;" d="M737.076,53.443c-9.299,0-17.11-6.385-17.11-16.987c0-10.291,8.06-16.677,16.925-16.677
			c9.113,0,16.615,6.076,16.615,17.359v1.922h-24.117c0.496,4.65,3.782,7.439,7.998,7.439c2.728,0,5.455-0.93,6.757-3.472h9.052
			C751.212,50.219,744.144,53.443,737.076,53.443z M729.327,33.109h14.692c-0.31-3.906-3.224-6.448-7.253-6.448
			C732.923,26.661,729.823,29.017,729.327,33.109z"/>
		<path style="fill:#032044;" d="M780.282,48.174c-1.922,3.348-5.207,5.208-9.671,5.208c-7.998,0-14.879-5.828-14.879-16.987
			c0-10.725,7.129-16.553,15.003-16.553c4.153,0,7.315,1.55,9.237,4.34V8.062h9.424v44.637h-9.114V48.174z M780.158,36.394
			c0-5.704-3.161-8.989-7.377-8.989c-4.278,0-7.378,3.286-7.378,8.989c0,5.952,3.1,9.424,7.378,9.424
			C776.873,45.818,780.158,42.408,780.158,36.394z"/>
		<path style="fill:#032044;" d="M795.077,8.062h9.485v7.812h-9.485V8.062z M795.077,20.585h9.423v32.114h-9.423V20.585z"/>
		<path style="fill:#032044;" d="M808.171,36.456c0-10.043,7.812-16.677,17.049-16.677c8.369,0,14.94,4.96,15.933,12.647h-9.299
			c-0.744-3.038-3.41-4.96-6.634-4.96c-4.34,0-7.378,3.658-7.378,8.99c0,5.518,3.1,9.3,7.378,9.3c3.161,0,5.703-1.798,6.571-5.022
			h9.361c-1.239,7.936-7.873,12.709-15.995,12.709C815.734,53.443,808.171,46.81,808.171,36.456z"/>
		<path style="fill:#032044;" d="M865.048,49.042c-2.107,2.604-5.394,4.34-10.043,4.34c-6.076,0-11.903-3.472-11.903-10.043
			c0-6.696,5.394-9.051,13.887-10.415l7.378-1.178v-0.434c0-3.472-1.922-4.836-5.27-4.836c-3.41,0-5.518,1.612-6.076,4.588h-8.803
			c1.054-7.006,7.191-11.283,15.312-11.283c8.68,0,14.136,3.41,14.073,12.461l-0.062,13.639c0,1.054,0.062,2.914,0.248,6.82h-8.618
			L865.048,49.042z M857.423,46.686c3.781,0,6.943-2.232,6.943-6.696v-2.17c-8.493,1.054-12.151,1.984-12.151,5.084
			C852.215,45.384,854.447,46.686,857.423,46.686z"/>
		<path style="fill:#032044;" d="M879.012,8.062h9.423v44.637h-9.423V8.062z"/>
		<path style="fill:#032044;" d="M907.158,38.998h9.857c0.62,4.65,4.216,6.82,8.928,6.82c4.34,0,7.625-1.798,7.625-5.084
			c0-2.852-2.665-4.278-7.439-5.27l-4.34-0.93c-9.238-1.922-13.578-6.076-13.578-12.709c0-7.936,7.626-13.453,16.926-13.453
			c9.485,0,16.677,4.898,17.545,13.515h-9.796c-0.558-3.72-3.534-5.89-7.812-5.89c-3.968,0-7.068,2.046-7.068,4.96
			c0,2.604,1.922,3.72,6.262,4.588l4.836,1.054c8.741,1.736,14.383,5.642,14.383,13.205c0,8.927-8.369,13.639-17.607,13.639
			C915.838,53.443,908.026,48.856,907.158,38.998z"/>
		<path style="fill:#032044;" d="M945.853,36.456c0-10.043,7.812-16.677,17.049-16.677c8.369,0,14.94,4.96,15.933,12.647h-9.299
			c-0.744-3.038-3.41-4.96-6.634-4.96c-4.34,0-7.378,3.658-7.378,8.99c0,5.518,3.1,9.3,7.378,9.3c3.161,0,5.703-1.798,6.571-5.022
			h9.361c-1.239,7.936-7.873,12.709-15.995,12.709C953.417,53.443,945.853,46.81,945.853,36.456z"/>
		<path style="fill:#032044;" d="M982.513,8.062h9.485v7.812h-9.485V8.062z M982.513,20.585h9.423v32.114h-9.423V20.585z"/>
		<path style="fill:#032044;" d="M1012.717,53.443c-9.299,0-17.11-6.385-17.11-16.987c0-10.291,8.06-16.677,16.925-16.677
			c9.113,0,16.615,6.076,16.615,17.359v1.922h-24.117c0.496,4.65,3.782,7.439,7.998,7.439c2.728,0,5.455-0.93,6.757-3.472h9.052
			C1026.853,50.219,1019.785,53.443,1012.717,53.443z M1004.968,33.109h14.692c-0.31-3.906-3.224-6.448-7.253-6.448
			C1008.564,26.661,1005.464,29.017,1004.968,33.109z"/>
		<path style="fill:#032044;" d="M1042.54,52.699h-9.423V20.585h9.113v3.906c2.046-2.976,5.579-4.65,9.733-4.65
			c7.006,0,11.717,4.216,11.717,12.833v20.025h-9.423V34.348c0-4.092-2.108-6.448-5.642-6.448c-3.286,0-6.076,2.418-6.076,7.688
			V52.699z"/>
		<path style="fill:#032044;" d="M1067.185,36.456c0-10.043,7.812-16.677,17.049-16.677c8.369,0,14.94,4.96,15.933,12.647h-9.299
			c-0.744-3.038-3.41-4.96-6.634-4.96c-4.34,0-7.378,3.658-7.378,8.99c0,5.518,3.1,9.3,7.378,9.3c3.161,0,5.703-1.798,6.571-5.022
			h9.361c-1.239,7.936-7.873,12.709-15.995,12.709C1074.749,53.443,1067.185,46.81,1067.185,36.456z"/>
		<path style="fill:#032044;" d="M1119.015,53.443c-9.299,0-17.11-6.385-17.11-16.987c0-10.291,8.059-16.677,16.925-16.677
			c9.113,0,16.615,6.076,16.615,17.359v1.922h-24.117c0.496,4.65,3.782,7.439,7.998,7.439c2.728,0,5.455-0.93,6.757-3.472h9.052
			C1133.151,50.219,1126.083,53.443,1119.015,53.443z M1111.266,33.109h14.692c-0.31-3.906-3.224-6.448-7.253-6.448
			C1114.862,26.661,1111.762,29.017,1111.266,33.109z"/>
		<path style="fill:#032044;" d="M1137.43,42.532h8.741c0.496,2.976,3.038,4.402,6.51,4.402c2.729,0,5.146-0.992,5.146-3.224
			c0-1.984-1.798-2.852-5.827-3.534l-3.348-0.62c-6.572-1.178-10.664-4.092-10.664-9.237c0-6.572,6.076-10.602,13.825-10.602
			c7.378,0,13.454,3.72,14.321,10.292h-8.617c-0.62-2.418-2.728-3.782-5.89-3.782c-2.728,0-4.773,1.24-4.773,3.162
			c0,1.798,1.611,2.48,5.083,3.1l3.286,0.558c7.315,1.302,11.655,4.154,11.655,9.733c0,7.068-6.695,10.663-14.383,10.663
			C1144.622,53.443,1138.36,50.034,1137.43,42.532z"/>
	</g>
</g>
<g>
</g>
<g>
</g>
<g>
</g>
<g>
</g>
<g>
</g>
<g>
</g>
<g>
</g>
<g>
</g>
<g>
</g>
<g>
</g>
<g>
</g>
<g>
</g>
<g>
</g>
<g>
</g>
<g>
</g>
</svg>
