<?xml version="1.0" encoding="iso-8859-1"?>
<!-- Generator: Adobe Illustrator 30.2.1, SVG Export Plug-In . SVG Version: 9.03 Build 0)  -->
<svg version="1.1" id="Layer_1" xmlns="http://www.w3.org/2000/svg" xmlns:xlink="http://www.w3.org/1999/xlink" x="0px" y="0px"
	 viewBox="0 0 476.941 136.315" style="enable-background:new 0 0 476.941 136.315;" xml:space="preserve">
<g id="UnitName_00000155828925717603015420000013519887324746876054_">
	<g>
		<path style="fill:#032044;" d="M1.798,38.998h9.857c0.62,4.65,4.216,6.819,8.928,6.819c4.339,0,7.625-1.798,7.625-5.083
			c0-2.852-2.666-4.278-7.439-5.27l-4.34-0.93C7.191,32.612,2.852,28.458,2.852,21.825c0-7.936,7.626-13.454,16.925-13.454
			c9.485,0,16.678,4.898,17.545,13.516h-9.795c-0.559-3.72-3.534-5.89-7.812-5.89c-3.968,0-7.067,2.045-7.067,4.959
			c0,2.604,1.922,3.72,6.261,4.588l4.836,1.054c8.742,1.736,14.384,5.642,14.384,13.206c0,8.927-8.37,13.639-17.607,13.639
			C10.478,53.443,2.666,48.855,1.798,38.998z"/>
		<path style="fill:#032044;" d="M40.491,36.456c0-10.043,7.812-16.677,17.049-16.677c8.369,0,14.941,4.959,15.933,12.647h-9.299
			c-0.744-3.038-3.41-4.959-6.634-4.959c-4.34,0-7.378,3.658-7.378,8.989c0,5.518,3.101,9.299,7.378,9.299
			c3.162,0,5.704-1.798,6.571-5.021h9.361c-1.239,7.936-7.873,12.709-15.994,12.709C48.055,53.443,40.491,46.81,40.491,36.456z"/>
		<path style="fill:#032044;" d="M86.574,52.699h-9.423V8.062h9.423v13.577c0,0.868,0,1.674,0,2.417
			c2.046-2.666,5.456-4.215,9.424-4.215c7.006,0,11.718,4.215,11.718,12.833v20.025h-9.424V34.348c0-4.092-2.107-6.447-5.642-6.447
			c-3.286,0-6.076,2.417-6.076,7.688V52.699z"/>
		<path style="fill:#032044;" d="M111.22,36.456c0-10.229,7.874-16.677,17.421-16.677c9.609,0,17.422,6.385,17.422,16.677
			c0,10.354-7.75,16.987-17.422,16.987C118.907,53.443,111.22,46.872,111.22,36.456z M136.391,36.456
			c0-5.394-3.162-8.989-7.75-8.989c-4.649,0-7.749,3.596-7.749,8.989c0,5.642,3.162,9.299,7.749,9.299
			C133.291,45.755,136.391,42.16,136.391,36.456z"/>
		<path style="fill:#032044;" d="M148.048,36.456c0-10.229,7.873-16.677,17.421-16.677c9.609,0,17.421,6.385,17.421,16.677
			c0,10.354-7.75,16.987-17.421,16.987C155.735,53.443,148.048,46.872,148.048,36.456z M173.218,36.456
			c0-5.394-3.161-8.989-7.749-8.989c-4.649,0-7.75,3.596-7.75,8.989c0,5.642,3.162,9.299,7.75,9.299
			C170.118,45.755,173.218,42.16,173.218,36.456z"/>
		<path style="fill:#032044;" d="M186.797,8.062h9.424v44.637h-9.424V8.062z"/>
		<path style="fill:#032044;" d="M215.007,36.456c0-10.229,7.873-16.677,17.421-16.677c9.609,0,17.421,6.385,17.421,16.677
			c0,10.354-7.75,16.987-17.421,16.987C222.694,53.443,215.007,46.872,215.007,36.456z M240.177,36.456
			c0-5.394-3.161-8.989-7.749-8.989c-4.649,0-7.75,3.596-7.75,8.989c0,5.642,3.162,9.299,7.75,9.299
			C237.077,45.755,240.177,42.16,240.177,36.456z"/>
		<path style="fill:#032044;" d="M264.859,27.467v25.232h-9.175V27.467h-5.332v-6.882h5.332v-3.41c0-7.068,4.029-9.175,10.105-9.175
			c2.418,0,3.968,0,6.138,0.062v6.943c-1.303-0.062-2.542-0.062-3.906-0.062c-1.859,0-3.162,0.496-3.162,3.1v2.542h7.068v6.882
			H264.859z"/>
		<path style="fill:#032044;" d="M290.343,9.302h10.105v16.677h18.908V9.302h10.105v43.397h-10.105V34.41h-18.908v18.289h-10.105
			V9.302z"/>
		<path style="fill:#032044;" d="M351.064,53.443c-9.3,0-17.111-6.386-17.111-16.987c0-10.292,8.06-16.677,16.925-16.677
			c9.113,0,16.615,6.076,16.615,17.359v1.922h-24.116c0.496,4.65,3.781,7.439,7.997,7.439c2.728,0,5.456-0.93,6.758-3.472h9.052
			C365.199,50.219,358.132,53.443,351.064,53.443z M343.314,33.108h14.693c-0.31-3.906-3.224-6.448-7.254-6.448
			C346.91,26.661,343.811,29.017,343.314,33.108z"/>
		<path style="fill:#032044;" d="M391.431,49.042c-2.107,2.604-5.394,4.34-10.043,4.34c-6.076,0-11.903-3.472-11.903-10.043
			c0-6.696,5.394-9.052,13.887-10.416l7.378-1.178v-0.434c0-3.472-1.922-4.836-5.27-4.836c-3.41,0-5.518,1.612-6.076,4.588h-8.803
			c1.054-7.006,7.191-11.283,15.312-11.283c8.68,0,14.136,3.41,14.073,12.461l-0.062,13.639c0,1.054,0.062,2.914,0.248,6.82h-8.618
			L391.431,49.042z M383.806,46.686c3.781,0,6.943-2.232,6.943-6.696v-2.17c-8.493,1.054-12.151,1.984-12.151,5.084
			C378.598,45.384,380.83,46.686,383.806,46.686z"/>
		<path style="fill:#032044;" d="M405.396,8.062h9.423v44.637h-9.423V8.062z"/>
		<path style="fill:#032044;" d="M422.525,43.958V27.467h-5.208v-6.882h5.208v-7.998h9.237v7.998h7.129v6.882h-7.129v14.321
			c0,3.224,0.991,3.844,3.533,3.844h3.596v7.005c-2.17,0.124-3.968,0.124-7.005,0.124C425.997,52.761,422.525,51.025,422.525,43.958
			z"/>
		<path style="fill:#032044;" d="M452.389,52.699h-9.423V8.062h9.423v13.577c0,0.868,0,1.674,0,2.417
			c2.046-2.666,5.456-4.215,9.424-4.215c7.006,0,11.717,4.215,11.717,12.833v20.025h-9.423V34.348c0-4.092-2.108-6.447-5.642-6.447
			c-3.286,0-6.076,2.417-6.076,7.688V52.699z"/>
		<path style="fill:#032044;" d="M4.277,76.302h18.661c10.602,0,16.119,5.828,16.119,14.197c0,8.617-5.766,14.445-16.182,14.445
			h-8.493v14.755H4.277V76.302z M21.45,96.884c4.898,0,7.439-2.479,7.439-6.261s-2.604-6.262-7.439-6.262h-7.067v12.523H21.45z"/>
		<path style="fill:#032044;" d="M51.198,119.699h-9.424V87.585h9.114v4.774c0.558-0.992,1.302-1.922,2.231-2.728
			c1.859-1.488,3.658-2.294,6.695-2.294c0.807,0,1.736,0.062,2.294,0.186v8.68c-1.487-0.186-2.231-0.186-3.162-0.186
			c-3.533,0-7.749,1.302-7.749,7.377V119.699z"/>
		<path style="fill:#032044;" d="M62.879,103.456c0-10.229,7.873-16.677,17.421-16.677c9.609,0,17.421,6.385,17.421,16.677
			c0,10.354-7.75,16.987-17.421,16.987C70.566,120.443,62.879,113.872,62.879,103.456z M88.049,103.456
			c0-5.394-3.161-8.989-7.749-8.989c-4.649,0-7.75,3.596-7.75,8.989c0,5.642,3.162,9.299,7.75,9.299
			C84.949,112.755,88.049,109.16,88.049,103.456z"/>
		<path style="fill:#032044;" d="M112.731,94.467v25.232h-9.175V94.467h-5.332v-6.882h5.332v-3.41c0-7.068,4.029-9.175,10.105-9.175
			c2.418,0,3.968,0,6.138,0.062v6.943c-1.303-0.062-2.542-0.062-3.906-0.062c-1.859,0-3.162,0.496-3.162,3.1v2.542h7.068v6.882
			H112.731z"/>
		<path style="fill:#032044;" d="M137.488,120.443c-9.3,0-17.111-6.386-17.111-16.987c0-10.292,8.06-16.677,16.926-16.677
			c9.113,0,16.614,6.076,16.614,17.359v1.922h-24.116c0.496,4.65,3.781,7.439,7.997,7.439c2.729,0,5.456-0.93,6.758-3.472h9.052
			C151.623,117.219,144.556,120.443,137.488,120.443z M129.738,100.108h14.693c-0.31-3.906-3.224-6.448-7.253-6.448
			C133.335,93.661,130.234,96.017,129.738,100.108z"/>
		<path style="fill:#032044;" d="M155.902,109.532h8.742c0.495,2.976,3.037,4.402,6.509,4.402c2.729,0,5.146-0.992,5.146-3.224
			c0-1.984-1.798-2.852-5.828-3.534l-3.348-0.62c-6.571-1.178-10.663-4.092-10.663-9.238c0-6.571,6.075-10.601,13.825-10.601
			c7.377,0,13.453,3.72,14.321,10.291h-8.618c-0.62-2.417-2.728-3.782-5.89-3.782c-2.728,0-4.773,1.24-4.773,3.162
			c0,1.798,1.612,2.48,5.084,3.1l3.285,0.558c7.315,1.302,11.655,4.154,11.655,9.733c0,7.067-6.695,10.664-14.383,10.664
			C163.094,120.443,156.833,117.033,155.902,109.532z"/>
		<path style="fill:#032044;" d="M187.397,109.532h8.742c0.495,2.976,3.037,4.402,6.509,4.402c2.729,0,5.146-0.992,5.146-3.224
			c0-1.984-1.798-2.852-5.828-3.534l-3.348-0.62c-6.571-1.178-10.663-4.092-10.663-9.238c0-6.571,6.075-10.601,13.825-10.601
			c7.377,0,13.453,3.72,14.321,10.291h-8.618c-0.62-2.417-2.728-3.782-5.89-3.782c-2.728,0-4.773,1.24-4.773,3.162
			c0,1.798,1.612,2.48,5.084,3.1l3.285,0.558c7.315,1.302,11.655,4.154,11.655,9.733c0,7.067-6.695,10.664-14.383,10.664
			C194.589,120.443,188.328,117.033,187.397,109.532z"/>
		<path style="fill:#032044;" d="M220.722,75.062h9.485v7.812h-9.485V75.062z M220.722,87.585h9.424v32.114h-9.424V87.585z"/>
		<path style="fill:#032044;" d="M233.816,103.456c0-10.229,7.873-16.677,17.421-16.677c9.609,0,17.421,6.385,17.421,16.677
			c0,10.354-7.75,16.987-17.421,16.987C241.504,120.443,233.816,113.872,233.816,103.456z M258.986,103.456
			c0-5.394-3.161-8.989-7.749-8.989c-4.649,0-7.75,3.596-7.75,8.989c0,5.642,3.162,9.299,7.75,9.299
			C255.887,112.755,258.986,109.16,258.986,103.456z"/>
		<path style="fill:#032044;" d="M281.908,119.699h-9.423V87.585h9.113v3.906c2.046-2.976,5.58-4.649,9.733-4.649
			c7.006,0,11.718,4.215,11.718,12.833v20.025h-9.424v-18.351c0-4.092-2.107-6.447-5.642-6.447c-3.286,0-6.076,2.417-6.076,7.688
			V119.699z"/>
		<path style="fill:#032044;" d="M306.529,109.532h8.741c0.496,2.976,3.038,4.402,6.51,4.402c2.728,0,5.146-0.992,5.146-3.224
			c0-1.984-1.798-2.852-5.827-3.534l-3.349-0.62c-6.571-1.178-10.663-4.092-10.663-9.238c0-6.571,6.076-10.601,13.825-10.601
			c7.378,0,13.453,3.72,14.321,10.291h-8.617c-0.62-2.417-2.729-3.782-5.89-3.782c-2.729,0-4.774,1.24-4.774,3.162
			c0,1.798,1.612,2.48,5.084,3.1l3.286,0.558c7.315,1.302,11.655,4.154,11.655,9.733c0,7.067-6.695,10.664-14.383,10.664
			C313.721,120.443,307.459,117.033,306.529,109.532z"/>
	</g>
</g>
<g>
</g>
<g>
</g>
<g>
</g>
<g>
</g>
<g>
</g>
<g>
</g>
<g>
</g>
<g>
</g>
<g>
</g>
<g>
</g>
<g>
</g>
<g>
</g>
<g>
</g>
<g>
</g>
<g>
</g>
</svg>
