<?xml version="1.0" encoding="iso-8859-1"?>
<!-- Generator: Adobe Illustrator 30.2.1, SVG Export Plug-In . SVG Version: 9.03 Build 0)  -->
<svg version="1.1" id="Layer_1" xmlns="http://www.w3.org/2000/svg" xmlns:xlink="http://www.w3.org/1999/xlink" x="0px" y="0px"
	 viewBox="0 0 827.8 69.316" style="enable-background:new 0 0 827.8 69.316;" xml:space="preserve">
<g id="UnitName_00000083051636230227074460000000021105607283046073_">
	<g>
		<path style="fill:#032044;" d="M1.798,38.998h9.857c0.62,4.65,4.216,6.82,8.928,6.82c4.339,0,7.625-1.798,7.625-5.084
			c0-2.852-2.666-4.278-7.439-5.27l-4.34-0.93C7.191,32.613,2.852,28.459,2.852,21.825c0-7.936,7.625-13.453,16.925-13.453
			c9.485,0,16.677,4.898,17.545,13.515h-9.795c-0.558-3.72-3.534-5.89-7.812-5.89c-3.968,0-7.067,2.046-7.067,4.96
			c0,2.604,1.922,3.72,6.261,4.588l4.836,1.054c8.742,1.736,14.383,5.642,14.383,13.205c0,8.927-8.37,13.639-17.607,13.639
			C10.478,53.443,2.666,48.856,1.798,38.998z"/>
		<path style="fill:#032044;" d="M40.491,36.456c0-10.043,7.812-16.677,17.049-16.677c8.37,0,14.941,4.96,15.933,12.647h-9.299
			c-0.744-3.038-3.41-4.96-6.634-4.96c-4.339,0-7.377,3.658-7.377,8.99c0,5.518,3.1,9.3,7.377,9.3c3.162,0,5.704-1.798,6.572-5.022
			h9.361c-1.24,7.936-7.874,12.709-15.995,12.709C48.055,53.443,40.491,46.81,40.491,36.456z"/>
		<path style="fill:#032044;" d="M86.575,52.699h-9.423V8.062h9.423v13.577c0,0.868,0,1.674,0,2.418
			c2.046-2.666,5.456-4.216,9.424-4.216c7.005,0,11.717,4.216,11.717,12.833v20.025h-9.424V34.348c0-4.092-2.107-6.448-5.642-6.448
			c-3.286,0-6.076,2.418-6.076,7.688V52.699z"/>
		<path style="fill:#032044;" d="M111.22,36.456c0-10.229,7.874-16.677,17.421-16.677c9.609,0,17.421,6.386,17.421,16.677
			c0,10.354-7.75,16.987-17.421,16.987C118.908,53.443,111.22,46.872,111.22,36.456z M136.391,36.456c0-5.394-3.162-8.99-7.75-8.99
			c-4.649,0-7.75,3.596-7.75,8.99c0,5.642,3.162,9.3,7.75,9.3C133.291,45.756,136.391,42.16,136.391,36.456z"/>
		<path style="fill:#032044;" d="M148.048,36.456c0-10.229,7.874-16.677,17.421-16.677c9.609,0,17.421,6.386,17.421,16.677
			c0,10.354-7.75,16.987-17.421,16.987C155.735,53.443,148.048,46.872,148.048,36.456z M173.218,36.456
			c0-5.394-3.162-8.99-7.75-8.99c-4.649,0-7.75,3.596-7.75,8.99c0,5.642,3.162,9.3,7.75,9.3
			C170.119,45.756,173.218,42.16,173.218,36.456z"/>
		<path style="fill:#032044;" d="M186.797,8.062h9.423v44.637h-9.423V8.062z"/>
		<path style="fill:#032044;" d="M215.007,36.456c0-10.229,7.874-16.677,17.421-16.677c9.609,0,17.421,6.386,17.421,16.677
			c0,10.354-7.75,16.987-17.421,16.987C222.694,53.443,215.007,46.872,215.007,36.456z M240.177,36.456
			c0-5.394-3.162-8.99-7.75-8.99c-4.649,0-7.75,3.596-7.75,8.99c0,5.642,3.162,9.3,7.75,9.3
			C237.078,45.756,240.177,42.16,240.177,36.456z"/>
		<path style="fill:#032044;" d="M264.86,27.467v25.233h-9.175V27.467h-5.332v-6.882h5.332v-3.41c0-7.068,4.03-9.176,10.105-9.176
			c2.418,0,3.968,0,6.138,0.062v6.944c-1.302-0.062-2.542-0.062-3.906-0.062c-1.86,0-3.162,0.496-3.162,3.1v2.542h7.068v6.882
			H264.86z"/>
		<path style="fill:#032044;" d="M290.343,9.302h10.105v16.677h18.909V9.302h10.105v43.397h-10.105V34.41h-18.909v18.289h-10.105
			V9.302z"/>
		<path style="fill:#032044;" d="M351.064,53.443c-9.3,0-17.111-6.385-17.111-16.987c0-10.291,8.06-16.677,16.925-16.677
			c9.113,0,16.615,6.076,16.615,17.359v1.922h-24.116c0.496,4.65,3.781,7.439,7.997,7.439c2.728,0,5.456-0.93,6.758-3.472h9.052
			C365.199,50.219,358.132,53.443,351.064,53.443z M343.314,33.109h14.693c-0.31-3.906-3.224-6.448-7.254-6.448
			C346.91,26.661,343.811,29.017,343.314,33.109z"/>
		<path style="fill:#032044;" d="M391.431,49.042c-2.107,2.604-5.394,4.34-10.043,4.34c-6.076,0-11.903-3.472-11.903-10.043
			c0-6.696,5.394-9.051,13.887-10.415l7.378-1.178v-0.434c0-3.472-1.922-4.836-5.27-4.836c-3.41,0-5.518,1.612-6.076,4.588h-8.803
			c1.054-7.006,7.191-11.283,15.312-11.283c8.68,0,14.136,3.41,14.073,12.461l-0.062,13.639c0,1.054,0.062,2.914,0.248,6.82h-8.618
			L391.431,49.042z M383.806,46.686c3.781,0,6.943-2.232,6.943-6.696v-2.17c-8.493,1.054-12.151,1.984-12.151,5.084
			C378.598,45.384,380.83,46.686,383.806,46.686z"/>
		<path style="fill:#032044;" d="M405.396,8.062h9.423v44.637h-9.423V8.062z"/>
		<path style="fill:#032044;" d="M422.525,43.958V27.467h-5.208v-6.882h5.208v-7.998h9.237v7.998h7.129v6.882h-7.129v14.321
			c0,3.224,0.991,3.844,3.533,3.844h3.596v7.006c-2.17,0.124-3.968,0.124-7.005,0.124C425.997,52.761,422.525,51.026,422.525,43.958
			z"/>
		<path style="fill:#032044;" d="M452.389,52.699h-9.423V8.062h9.423v13.577c0,0.868,0,1.674,0,2.418
			c2.046-2.666,5.456-4.216,9.424-4.216c7.006,0,11.717,4.216,11.717,12.833v20.025h-9.423V34.348c0-4.092-2.108-6.448-5.642-6.448
			c-3.286,0-6.076,2.418-6.076,7.688V52.699z"/>
		<path style="fill:#032044;" d="M494.301,9.302h18.661c10.602,0,16.119,5.828,16.119,14.197c0,8.618-5.766,14.445-16.181,14.445
			h-8.494v14.755h-10.105V9.302z M511.475,29.885c4.897,0,7.439-2.48,7.439-6.262c0-3.782-2.604-6.261-7.439-6.261h-7.068v12.523
			H511.475z"/>
		<path style="fill:#032044;" d="M541.221,52.699h-9.423V20.585h9.113v4.774c0.558-0.992,1.302-1.922,2.231-2.728
			c1.86-1.488,3.658-2.294,6.695-2.294c0.807,0,1.736,0.062,2.294,0.186v8.68c-1.487-0.186-2.231-0.186-3.161-0.186
			c-3.534,0-7.75,1.302-7.75,7.377V52.699z"/>
		<path style="fill:#032044;" d="M552.902,36.456c0-10.229,7.873-16.677,17.421-16.677c9.609,0,17.421,6.386,17.421,16.677
			c0,10.354-7.75,16.987-17.421,16.987C560.59,53.443,552.902,46.872,552.902,36.456z M578.072,36.456
			c0-5.394-3.162-8.99-7.749-8.99c-4.65,0-7.75,3.596-7.75,8.99c0,5.642,3.162,9.3,7.75,9.3
			C574.973,45.756,578.072,42.16,578.072,36.456z"/>
		<path style="fill:#032044;" d="M602.755,27.467v25.233h-9.176V27.467h-5.331v-6.882h5.331v-3.41c0-7.068,4.03-9.176,10.105-9.176
			c2.418,0,3.968,0,6.138,0.062v6.944c-1.302-0.062-2.541-0.062-3.905-0.062c-1.86,0-3.162,0.496-3.162,3.1v2.542h7.067v6.882
			H602.755z"/>
		<path style="fill:#032044;" d="M627.511,53.443c-9.299,0-17.11-6.385-17.11-16.987c0-10.291,8.059-16.677,16.925-16.677
			c9.113,0,16.615,6.076,16.615,17.359v1.922h-24.117c0.496,4.65,3.782,7.439,7.998,7.439c2.728,0,5.455-0.93,6.757-3.472h9.052
			C641.646,50.219,634.578,53.443,627.511,53.443z M619.762,33.109h14.692c-0.31-3.906-3.224-6.448-7.253-6.448
			C623.357,26.661,620.258,29.017,619.762,33.109z"/>
		<path style="fill:#032044;" d="M645.926,42.532h8.741c0.496,2.976,3.038,4.402,6.51,4.402c2.729,0,5.146-0.992,5.146-3.224
			c0-1.984-1.798-2.852-5.827-3.534l-3.348-0.62c-6.572-1.178-10.664-4.092-10.664-9.237c0-6.572,6.076-10.602,13.825-10.602
			c7.378,0,13.454,3.72,14.321,10.292h-8.617c-0.62-2.418-2.728-3.782-5.89-3.782c-2.728,0-4.773,1.24-4.773,3.162
			c0,1.798,1.611,2.48,5.083,3.1l3.286,0.558c7.315,1.302,11.655,4.154,11.655,9.733c0,7.068-6.695,10.663-14.383,10.663
			C653.117,53.443,646.855,50.034,645.926,42.532z"/>
		<path style="fill:#032044;" d="M677.421,42.532h8.741c0.496,2.976,3.038,4.402,6.51,4.402c2.729,0,5.146-0.992,5.146-3.224
			c0-1.984-1.798-2.852-5.827-3.534l-3.348-0.62c-6.572-1.178-10.664-4.092-10.664-9.237c0-6.572,6.076-10.602,13.825-10.602
			c7.378,0,13.454,3.72,14.321,10.292h-8.617c-0.62-2.418-2.728-3.782-5.89-3.782c-2.728,0-4.773,1.24-4.773,3.162
			c0,1.798,1.611,2.48,5.083,3.1l3.286,0.558c7.315,1.302,11.655,4.154,11.655,9.733c0,7.068-6.695,10.663-14.383,10.663
			C684.612,53.443,678.351,50.034,677.421,42.532z"/>
		<path style="fill:#032044;" d="M710.745,8.062h9.485v7.812h-9.485V8.062z M710.745,20.585h9.423v32.114h-9.423V20.585z"/>
		<path style="fill:#032044;" d="M723.84,36.456c0-10.229,7.873-16.677,17.421-16.677c9.609,0,17.421,6.386,17.421,16.677
			c0,10.354-7.75,16.987-17.421,16.987C731.527,53.443,723.84,46.872,723.84,36.456z M749.01,36.456c0-5.394-3.162-8.99-7.749-8.99
			c-4.65,0-7.75,3.596-7.75,8.99c0,5.642,3.162,9.3,7.75,9.3C745.91,45.756,749.01,42.16,749.01,36.456z"/>
		<path style="fill:#032044;" d="M771.932,52.699h-9.423V20.585h9.113v3.906c2.046-2.976,5.579-4.65,9.733-4.65
			c7.006,0,11.717,4.216,11.717,12.833v20.025h-9.423V34.348c0-4.092-2.108-6.448-5.642-6.448c-3.286,0-6.076,2.418-6.076,7.688
			V52.699z"/>
		<path style="fill:#032044;" d="M796.552,42.532h8.741c0.496,2.976,3.038,4.402,6.51,4.402c2.729,0,5.146-0.992,5.146-3.224
			c0-1.984-1.798-2.852-5.827-3.534l-3.348-0.62c-6.572-1.178-10.664-4.092-10.664-9.237c0-6.572,6.076-10.602,13.825-10.602
			c7.378,0,13.454,3.72,14.321,10.292h-8.617c-0.62-2.418-2.728-3.782-5.89-3.782c-2.728,0-4.773,1.24-4.773,3.162
			c0,1.798,1.611,2.48,5.083,3.1l3.286,0.558C821.66,34.348,826,37.2,826,42.78c0,7.068-6.695,10.663-14.383,10.663
			C803.743,53.443,797.481,50.034,796.552,42.532z"/>
	</g>
</g>
<g>
</g>
<g>
</g>
<g>
</g>
<g>
</g>
<g>
</g>
<g>
</g>
<g>
</g>
<g>
</g>
<g>
</g>
<g>
</g>
<g>
</g>
<g>
</g>
<g>
</g>
<g>
</g>
<g>
</g>
</svg>
