<?xml version="1.0" encoding="iso-8859-1"?>
<!-- Generator: Adobe Illustrator 30.2.1, SVG Export Plug-In . SVG Version: 9.03 Build 0)  -->
<svg version="1.1" id="Layer_1" xmlns="http://www.w3.org/2000/svg" xmlns:xlink="http://www.w3.org/1999/xlink" x="0px" y="0px"
	 viewBox="0 0 446.215 69.316" style="enable-background:new 0 0 446.215 69.316;" xml:space="preserve">
<g id="UnitName_00000083051636230227074460000000021105607283046073_">
	<g>
		<path style="fill:#032044;" d="M4.278,9.302h10.105v16.677h18.909V9.302h10.105v43.397H33.292V34.41H14.383v18.289H4.278V9.302z"
			/>
		<path style="fill:#032044;" d="M47.889,36.456c0-10.229,7.874-16.677,17.421-16.677c9.609,0,17.421,6.386,17.421,16.677
			c0,10.354-7.75,16.987-17.421,16.987C55.576,53.443,47.889,46.872,47.889,36.456z M73.059,36.456c0-5.394-3.162-8.99-7.75-8.99
			c-4.649,0-7.75,3.596-7.75,8.99c0,5.642,3.162,9.3,7.75,9.3C69.959,45.756,73.059,42.16,73.059,36.456z"/>
		<path style="fill:#032044;" d="M95.981,52.699h-9.423V20.585h9.113v3.906c2.046-2.976,5.58-4.65,9.734-4.65
			c7.005,0,11.717,4.216,11.717,12.833v20.025h-9.424V34.348c0-4.092-2.107-6.448-5.642-6.448c-3.286,0-6.076,2.418-6.076,7.688
			V52.699z"/>
		<path style="fill:#032044;" d="M120.626,36.456c0-10.229,7.874-16.677,17.421-16.677c9.609,0,17.421,6.386,17.421,16.677
			c0,10.354-7.75,16.987-17.421,16.987C128.313,53.443,120.626,46.872,120.626,36.456z M145.796,36.456
			c0-5.394-3.162-8.99-7.75-8.99c-4.649,0-7.75,3.596-7.75,8.99c0,5.642,3.162,9.3,7.75,9.3
			C142.697,45.756,145.796,42.16,145.796,36.456z"/>
		<path style="fill:#032044;" d="M168.718,52.699h-9.423V20.585h9.113v4.774c0.558-0.992,1.302-1.922,2.232-2.728
			c1.86-1.488,3.658-2.294,6.696-2.294c0.806,0,1.736,0.062,2.294,0.186v8.68c-1.488-0.186-2.232-0.186-3.162-0.186
			c-3.534,0-7.75,1.302-7.75,7.377V52.699z"/>
		<path style="fill:#032044;" d="M180.703,42.532h8.742c0.496,2.976,3.038,4.402,6.509,4.402c2.728,0,5.146-0.992,5.146-3.224
			c0-1.984-1.798-2.852-5.828-3.534l-3.348-0.62c-6.571-1.178-10.663-4.092-10.663-9.237c0-6.572,6.076-10.602,13.825-10.602
			c7.377,0,13.453,3.72,14.321,10.292h-8.618c-0.62-2.418-2.728-3.782-5.89-3.782c-2.728,0-4.774,1.24-4.774,3.162
			c0,1.798,1.612,2.48,5.084,3.1l3.286,0.558c7.315,1.302,11.655,4.154,11.655,9.733c0,7.068-6.695,10.663-14.383,10.663
			C187.894,53.443,181.633,50.034,180.703,42.532z"/>
		<path style="fill:#032044;" d="M227.14,30.815c0-14.197,10.664-22.443,21.823-22.443c10.54,0,18.847,6.261,20.149,15.747h-10.105
			c-1.178-4.34-4.898-7.13-10.105-7.13c-6.324,0-11.345,5.332-11.345,13.825c0,8.494,5.083,14.011,11.407,14.011
			c5.083,0,8.68-2.666,10.105-7.13h10.105c-1.55,9.548-9.733,15.747-20.273,15.747C237.432,53.443,227.14,45.074,227.14,30.815z"/>
		<path style="fill:#032044;" d="M271.247,36.456c0-10.229,7.874-16.677,17.421-16.677c9.609,0,17.421,6.386,17.421,16.677
			c0,10.354-7.75,16.987-17.421,16.987C278.934,53.443,271.247,46.872,271.247,36.456z M296.417,36.456
			c0-5.394-3.162-8.99-7.75-8.99c-4.649,0-7.75,3.596-7.75,8.99c0,5.642,3.162,9.3,7.75,9.3
			C293.317,45.756,296.417,42.16,296.417,36.456z"/>
		<path style="fill:#032044;" d="M309.996,8.062h9.423v44.637h-9.423V8.062z"/>
		<path style="fill:#032044;" d="M325.019,8.062h9.423v44.637h-9.423V8.062z"/>
		<path style="fill:#032044;" d="M355.385,53.443c-9.299,0-17.11-6.385-17.11-16.987c0-10.291,8.06-16.677,16.925-16.677
			c9.113,0,16.615,6.076,16.615,17.359v1.922h-24.117c0.496,4.65,3.782,7.439,7.998,7.439c2.728,0,5.455-0.93,6.757-3.472h9.052
			C369.521,50.219,362.452,53.443,355.385,53.443z M347.636,33.109h14.692c-0.31-3.906-3.224-6.448-7.253-6.448
			C351.231,26.661,348.132,29.017,347.636,33.109z"/>
		<path style="fill:#032044;" d="M390.929,65.161c-9.299,0-15.003-4.278-16.057-11.097h9.175c0.683,2.79,3.101,4.34,6.944,4.34
			c3.968,0,6.571-1.984,6.571-6.448v-4.65c-1.86,2.852-5.084,4.526-9.424,4.526c-7.749,0-14.197-5.766-14.197-16.119
			c0-10.043,6.696-15.871,14.321-15.871c4.464,0,7.626,1.798,9.485,4.96v-4.216h9.176v30.75
			C406.924,60.883,399.856,65.161,390.929,65.161z M397.625,35.712c0-5.332-3.101-8.493-7.006-8.493
			c-4.03,0-7.006,3.286-7.006,8.493c0,5.518,2.976,8.741,7.006,8.741C394.587,44.454,397.625,41.168,397.625,35.712z"/>
		<path style="fill:#032044;" d="M427.862,53.443c-9.299,0-17.11-6.385-17.11-16.987c0-10.291,8.059-16.677,16.925-16.677
			c9.113,0,16.615,6.076,16.615,17.359v1.922h-24.117c0.496,4.65,3.782,7.439,7.998,7.439c2.728,0,5.455-0.93,6.757-3.472h9.052
			C441.998,50.219,434.93,53.443,427.862,53.443z M420.113,33.109h14.692c-0.31-3.906-3.224-6.448-7.253-6.448
			C423.709,26.661,420.609,29.017,420.113,33.109z"/>
	</g>
</g>
<g>
</g>
<g>
</g>
<g>
</g>
<g>
</g>
<g>
</g>
<g>
</g>
<g>
</g>
<g>
</g>
<g>
</g>
<g>
</g>
<g>
</g>
<g>
</g>
<g>
</g>
<g>
</g>
<g>
</g>
</svg>
