<svg xmlns="http://www.w3.org/2000/svg" width="252.792" height="55.002" viewBox="0 0 252.792 55.002"><defs><style>.a{fill:#f15a22;}.b{fill:#032044;}</style></defs><path class="a" d="M115.14,1.26,102.084,35.2c.066-.781.1-1.569.1-2.35,0-7.707-5.113-11.052-11.752-13.012l-3.154-.95c-2.144-.693-5.5-1.768-5.5-4.546s3.036-3.971,5.3-3.971a13.037,13.037,0,0,1,8.215,3.154l4.922-9.6A32.554,32.554,0,0,0,85.322,0c-5.939,0-10.846,2.454-13.7,6.631V1.26H29.17V26.333c0,6.2-.442,12.946-8.4,12.946s-8.4-6.756-8.4-12.946V1.26H0V28.043c0,6.123.251,12.187,4.988,16.8,3.979,3.92,10.234,5.3,15.79,5.3s11.811-1.385,15.79-5.3c4.738-4.612,4.988-10.676,4.988-16.8V11.752h7.456V48.887H61.39V11.752h8.016a18.124,18.124,0,0,0-.5,4.229c0,9.225,5.113,11.244,12.879,13.454,2.66.759,7.523,1.96,7.523,5.438s-3.095,4.8-6,4.8c-4.229,0-7.891-2.21-10.993-4.929l-5.3,9.984a29.368,29.368,0,0,0,16.733,5.43,20.86,20.86,0,0,0,13.513-4.48,12.963,12.963,0,0,0,1.282-1.26l-1.724,4.48h13.137l3.286-8.274H130.3l3.087,8.274h13.2L128.653,1.26Zm1.51,29.87,5.113-15.156h.133l5.047,15.156Z" transform="translate(0 0)"/><path class="a" d="M202.666,57.98h-.022a3.206,3.206,0,1,0,3.279,3.2A3.181,3.181,0,0,0,202.666,57.98Zm0,5.747a2.551,2.551,0,0,1-.044-5.1h.022a2.551,2.551,0,0,1,.022,5.1Z" transform="translate(-52.469 -15.26)"/><path class="a" d="M204.122,61.839V61.8a.822.822,0,0,0,.663-.759.889.889,0,0,0-.309-.685,1.772,1.772,0,0,0-1.113-.258,6.758,6.758,0,0,0-1.223.118v3.168h.737V62.119h.354c.405,0,.6.155.656.508a2.464,2.464,0,0,0,.258.759h.8a1.918,1.918,0,0,1-.228-.781.912.912,0,0,0-.589-.774Zm-.877-.228h-.354v-.921a1.69,1.69,0,0,1,.413-.037c.472,0,.678.2.678.486C203.982,61.47,203.65,61.61,203.245,61.61Z" transform="translate(-53.203 -15.818)"/><g transform="translate(161.309 1.533)"><path class="b" d="M222.92,2.08v8.6h10.529V2.08h2.66V22.069h-2.66V12.911H222.92v9.158h-2.66V2.08Z" transform="translate(-219.28 -2.08)"/><path class="b" d="M246.2,13.712A6.763,6.763,0,0,1,247.54,11.3a6.453,6.453,0,0,1,2.21-1.614,8.074,8.074,0,0,1,6.057,0A6.278,6.278,0,0,1,258,11.3a6.7,6.7,0,0,1,1.341,2.409,9.739,9.739,0,0,1,.449,2.984,9.4,9.4,0,0,1-.449,2.969A6.877,6.877,0,0,1,258,22.06a6.308,6.308,0,0,1-2.2,1.6,8.266,8.266,0,0,1-6.057,0,6.143,6.143,0,0,1-2.21-1.6,6.7,6.7,0,0,1-1.341-2.395,9.394,9.394,0,0,1-.449-2.969,9.553,9.553,0,0,1,.449-2.984Zm2.424,5.32a4.932,4.932,0,0,0,.965,1.709,4.108,4.108,0,0,0,1.444,1.046,4.439,4.439,0,0,0,3.507,0,4.2,4.2,0,0,0,1.444-1.046,4.865,4.865,0,0,0,.965-1.709A7.106,7.106,0,0,0,257.3,16.7a7.106,7.106,0,0,0-.354-2.336,5.144,5.144,0,0,0-.965-1.724,4.149,4.149,0,0,0-1.444-1.061,4.3,4.3,0,0,0-1.754-.361,4.419,4.419,0,0,0-1.754.361,4.059,4.059,0,0,0-1.444,1.061,5,5,0,0,0-.965,1.724,7.138,7.138,0,0,0-.354,2.336,7.107,7.107,0,0,0,.354,2.336Z" transform="translate(-225.989 -3.928)"/><path class="b" d="M270.55,9.442v2.3h.059a5.007,5.007,0,0,1,4.7-2.63,6.354,6.354,0,0,1,2.38.391,3.9,3.9,0,0,1,1.54,1.09,4.025,4.025,0,0,1,.825,1.665,9.142,9.142,0,0,1,.236,2.144V23.92h-2.38v-9.8a2.871,2.871,0,0,0-.781-2.129,2.919,2.919,0,0,0-2.159-.781,4.74,4.74,0,0,0-1.886.339,3.562,3.562,0,0,0-1.334.95,4.114,4.114,0,0,0-.8,1.444,5.872,5.872,0,0,0-.265,1.805v8.178h-2.38V9.442Z" transform="translate(-231.927 -3.93)"/><path class="b" d="M288.419,13.712A6.763,6.763,0,0,1,289.76,11.3a6.453,6.453,0,0,1,2.21-1.614,8.073,8.073,0,0,1,6.056,0,6.278,6.278,0,0,1,2.2,1.614,6.7,6.7,0,0,1,1.341,2.409,9.739,9.739,0,0,1,.449,2.984,9.394,9.394,0,0,1-.449,2.969,6.876,6.876,0,0,1-1.341,2.395,6.308,6.308,0,0,1-2.2,1.6,8.265,8.265,0,0,1-6.056,0,6.143,6.143,0,0,1-2.21-1.6,6.7,6.7,0,0,1-1.341-2.395,9.394,9.394,0,0,1-.449-2.969A9.553,9.553,0,0,1,288.419,13.712Zm2.424,5.32a4.932,4.932,0,0,0,.965,1.709,4.108,4.108,0,0,0,1.444,1.046,4.439,4.439,0,0,0,3.507,0,4.2,4.2,0,0,0,1.444-1.046,4.864,4.864,0,0,0,.965-1.709,7.1,7.1,0,0,0,.354-2.336,7.1,7.1,0,0,0-.354-2.336,5.143,5.143,0,0,0-.965-1.724,4.149,4.149,0,0,0-1.444-1.061,4.3,4.3,0,0,0-1.754-.361,4.42,4.42,0,0,0-1.754.361,4.059,4.059,0,0,0-1.444,1.061,5,5,0,0,0-.965,1.724,7.137,7.137,0,0,0-.354,2.336A7.106,7.106,0,0,0,290.844,19.032Z" transform="translate(-237.101 -3.928)"/><path class="b" d="M312.72,9.44v3.05h.059a6.388,6.388,0,0,1,2.129-2.6,5.344,5.344,0,0,1,3.19-.781v2.52a6.853,6.853,0,0,0-2.439.391,3.743,3.743,0,0,0-1.621,1.149,4.753,4.753,0,0,0-.9,1.835,10.041,10.041,0,0,0-.28,2.476v6.44h-2.38V9.44h2.24Z" transform="translate(-243.026 -3.929)"/><path class="b" d="M324.941,20.69a2.5,2.5,0,0,0,.884.869,4.025,4.025,0,0,0,1.23.464,6.876,6.876,0,0,0,1.415.14,9.517,9.517,0,0,0,1.179-.081,4.5,4.5,0,0,0,1.135-.309,2.15,2.15,0,0,0,.855-.656,1.764,1.764,0,0,0,.339-1.105,1.586,1.586,0,0,0-.7-1.4,5.85,5.85,0,0,0-1.754-.766c-.7-.2-1.459-.376-2.284-.53a12.171,12.171,0,0,1-2.284-.67A4.745,4.745,0,0,1,323.2,15.43a3.178,3.178,0,0,1-.7-2.181A3.435,3.435,0,0,1,323,11.37a3.93,3.93,0,0,1,1.26-1.275,5.938,5.938,0,0,1,1.739-.729,7.834,7.834,0,0,1,1.916-.236,11.474,11.474,0,0,1,2.269.214,5.207,5.207,0,0,1,1.835.729,3.774,3.774,0,0,1,1.275,1.4,5.367,5.367,0,0,1,.56,2.2h-2.38a2.5,2.5,0,0,0-.361-1.164,2.431,2.431,0,0,0-.781-.744,3.559,3.559,0,0,0-1.054-.405,5.577,5.577,0,0,0-1.164-.125,7.634,7.634,0,0,0-1.076.081,3.814,3.814,0,0,0-.995.295,1.993,1.993,0,0,0-.729.56,1.43,1.43,0,0,0-.28.906,1.352,1.352,0,0,0,.435,1.024,3.379,3.379,0,0,0,1.105.67,10.221,10.221,0,0,0,1.51.449l1.68.376a17.584,17.584,0,0,1,1.754.479,5.556,5.556,0,0,1,1.51.744,3.572,3.572,0,0,1,1.061,1.164,3.393,3.393,0,0,1,.405,1.739,4.039,4.039,0,0,1-.545,2.181,4.191,4.191,0,0,1-1.429,1.4,6.017,6.017,0,0,1-1.989.744,11.788,11.788,0,0,1-2.2.214,10.131,10.131,0,0,1-2.3-.251,5.63,5.63,0,0,1-1.93-.825,4.155,4.155,0,0,1-1.341-1.51,5.193,5.193,0,0,1-.56-2.284h2.38a2.644,2.644,0,0,0,.361,1.326Z" transform="translate(-246.11 -3.936)"/><path class="b" d="M231.993,42.241a6.188,6.188,0,0,0-3.625-1.061,6.471,6.471,0,0,0-3.065.67,6.147,6.147,0,0,0-2.1,1.805,7.713,7.713,0,0,0-1.216,2.594,11.752,11.752,0,0,0-.39,3.021,13.1,13.1,0,0,0,.39,3.235,7.8,7.8,0,0,0,1.216,2.66,5.987,5.987,0,0,0,2.115,1.805,6.574,6.574,0,0,0,3.08.67,5.948,5.948,0,0,0,2.336-.435,5.341,5.341,0,0,0,1.761-1.2,5.612,5.612,0,0,0,1.164-1.835,7.475,7.475,0,0,0,.5-2.3h2.66a9.066,9.066,0,0,1-2.6,5.88,8.428,8.428,0,0,1-6.049,2.1,9.664,9.664,0,0,1-4.06-.8,7.946,7.946,0,0,1-2.881-2.2,9.462,9.462,0,0,1-1.724-3.3,14.065,14.065,0,0,1-.575-4.089,13.3,13.3,0,0,1,.619-4.1,9.894,9.894,0,0,1,1.805-3.345,8.48,8.48,0,0,1,2.969-2.255,9.537,9.537,0,0,1,4.075-.825,10.293,10.293,0,0,1,2.969.42,8.031,8.031,0,0,1,2.49,1.23,6.907,6.907,0,0,1,1.82,2.034,7.4,7.4,0,0,1,.95,2.815h-2.66a4.963,4.963,0,0,0-1.975-3.19Z" transform="translate(-218.93 -11.781)"/><path class="b" d="M246.209,51.212A6.763,6.763,0,0,1,247.55,48.8a6.453,6.453,0,0,1,2.21-1.614,8.073,8.073,0,0,1,6.056,0,6.278,6.278,0,0,1,2.2,1.614,6.7,6.7,0,0,1,1.341,2.409A9.738,9.738,0,0,1,259.8,54.2a9.4,9.4,0,0,1-.449,2.969,6.877,6.877,0,0,1-1.341,2.395,6.308,6.308,0,0,1-2.2,1.6,8.266,8.266,0,0,1-6.056,0,6.143,6.143,0,0,1-2.21-1.6,6.7,6.7,0,0,1-1.341-2.395,9.394,9.394,0,0,1-.449-2.969,9.553,9.553,0,0,1,.449-2.984Zm2.424,5.32a4.932,4.932,0,0,0,.965,1.709,4.108,4.108,0,0,0,1.444,1.046,4.439,4.439,0,0,0,3.507,0,4.2,4.2,0,0,0,1.444-1.046,4.865,4.865,0,0,0,.965-1.709,7.889,7.889,0,0,0,0-4.671,5.143,5.143,0,0,0-.965-1.724,4.149,4.149,0,0,0-1.444-1.061,4.3,4.3,0,0,0-1.754-.361,4.419,4.419,0,0,0-1.754.361,4.059,4.059,0,0,0-1.444,1.061,5,5,0,0,0-.965,1.724,7.89,7.89,0,0,0,0,4.671Z" transform="translate(-225.992 -13.798)"/><path class="b" d="M270.77,39.58V59.569h-2.38V39.58Z" transform="translate(-231.948 -11.95)"/><path class="b" d="M278.66,39.58V59.569h-2.38V39.58Z" transform="translate(-234.024 -11.95)"/><path class="b" d="M294.137,60.5a6.6,6.6,0,0,1-4.089,1.23,7.371,7.371,0,0,1-3.006-.56A6.039,6.039,0,0,1,284.9,59.6a6.668,6.668,0,0,1-1.3-2.409,12.009,12.009,0,0,1-.494-3.05,8.808,8.808,0,0,1,.5-3.021,7.317,7.317,0,0,1,1.415-2.38,6.441,6.441,0,0,1,2.159-1.569,6.55,6.55,0,0,1,2.734-.56,5.94,5.94,0,0,1,3.205.8,6.31,6.31,0,0,1,2.041,2.026,7.9,7.9,0,0,1,1.061,2.689,11.4,11.4,0,0,1,.236,2.77H285.612a5.81,5.81,0,0,0,.221,1.805,4.16,4.16,0,0,0,.811,1.51,4.017,4.017,0,0,0,1.429,1.054,4.993,4.993,0,0,0,2.041.391,4.119,4.119,0,0,0,2.476-.7,3.4,3.4,0,0,0,1.275-2.129h2.35a5.8,5.8,0,0,1-2.1,3.669Zm-.575-9.3a4.064,4.064,0,0,0-3.795-2.5,4.221,4.221,0,0,0-1.665.324,3.805,3.805,0,0,0-1.275.884,4.307,4.307,0,0,0-.84,1.3,4.922,4.922,0,0,0-.361,1.584h8.319a4.922,4.922,0,0,0-.376-1.6Z" transform="translate(-235.819 -13.8)"/><path class="b" d="M315.111,65.506c-1.083,1.179-2.778,1.761-5.1,1.761a9.963,9.963,0,0,1-2.056-.221,6.144,6.144,0,0,1-1.9-.729A4.482,4.482,0,0,1,304.641,65a3.721,3.721,0,0,1-.619-1.989h2.38a1.737,1.737,0,0,0,.405,1.09,3.1,3.1,0,0,0,.921.729,4.42,4.42,0,0,0,1.186.405,6.64,6.64,0,0,0,1.23.125,4.414,4.414,0,0,0,1.989-.405,3.733,3.733,0,0,0,1.341-1.12,4.614,4.614,0,0,0,.766-1.724,9.828,9.828,0,0,0,.236-2.21v-.95h-.059a3.994,3.994,0,0,1-1.864,1.975,5.776,5.776,0,0,1-2.645.626,6.4,6.4,0,0,1-2.829-.589,5.944,5.944,0,0,1-2.019-1.584,6.713,6.713,0,0,1-1.216-2.321,9.524,9.524,0,0,1-.405-2.815,10.765,10.765,0,0,1,.339-2.645,7.124,7.124,0,0,1,1.12-2.461,6.214,6.214,0,0,1,2.07-1.82,6.426,6.426,0,0,1,3.161-.715,5.3,5.3,0,0,1,2.52.6,4.234,4.234,0,0,1,1.79,1.805h.03v-2.07h2.24v13.24a7.622,7.622,0,0,1-1.621,5.32ZM312.075,59a3.833,3.833,0,0,0,1.326-1.289,5.9,5.9,0,0,0,.744-1.805,8.942,8.942,0,0,0,.236-2.019,8.084,8.084,0,0,0-.221-1.879,5.2,5.2,0,0,0-.715-1.665,3.737,3.737,0,0,0-1.275-1.194,3.818,3.818,0,0,0-1.9-.449,4.181,4.181,0,0,0-1.96.435,3.75,3.75,0,0,0-1.326,1.164,5,5,0,0,0-.759,1.68,8,8,0,0,0-.236,1.989,9.832,9.832,0,0,0,.2,1.96,5.583,5.583,0,0,0,.671,1.776,3.768,3.768,0,0,0,1.26,1.289,3.665,3.665,0,0,0,1.96.494,3.832,3.832,0,0,0,2-.494Z" transform="translate(-241.173 -13.798)"/><path class="b" d="M336,60.5a6.6,6.6,0,0,1-4.089,1.23,7.371,7.371,0,0,1-3.006-.56,6.039,6.039,0,0,1-2.144-1.569,6.668,6.668,0,0,1-1.3-2.409,12.009,12.009,0,0,1-.494-3.05,8.808,8.808,0,0,1,.5-3.021,7.315,7.315,0,0,1,1.415-2.38,6.441,6.441,0,0,1,2.159-1.569,6.549,6.549,0,0,1,2.734-.56,5.94,5.94,0,0,1,3.205.8,6.31,6.31,0,0,1,2.041,2.026,7.9,7.9,0,0,1,1.061,2.689,11.4,11.4,0,0,1,.236,2.77H327.473a5.809,5.809,0,0,0,.221,1.805,4.16,4.16,0,0,0,.81,1.51,4.018,4.018,0,0,0,1.429,1.054,4.992,4.992,0,0,0,2.041.391,4.12,4.12,0,0,0,2.476-.7,3.4,3.4,0,0,0,1.275-2.129h2.35a5.8,5.8,0,0,1-2.1,3.669Zm-.575-9.3a4.064,4.064,0,0,0-3.795-2.5,4.221,4.221,0,0,0-1.665.324,3.805,3.805,0,0,0-1.275.884,4.307,4.307,0,0,0-.84,1.3,4.923,4.923,0,0,0-.361,1.584h8.318a4.922,4.922,0,0,0-.376-1.6Z" transform="translate(-246.837 -13.8)"/></g></svg>