<?xml version="1.0" encoding="iso-8859-1"?>
<!-- Generator: Adobe Illustrator 30.2.1, SVG Export Plug-In . SVG Version: 9.03 Build 0)  -->
<svg version="1.1" id="Layer_1" xmlns="http://www.w3.org/2000/svg" xmlns:xlink="http://www.w3.org/1999/xlink" x="0px" y="0px"
	 viewBox="0 0 440.01416 57.098633" style="enable-background:new 0 0 440.01416 57.098633;" xml:space="preserve">
<g>
	<g>
		<path style="fill:#032044;" d="M0,1.23999h10.105469v16.677002H29.01416V1.23999h10.105469v43.397461H29.01416V26.348389
			H10.105469v18.289062H0V1.23999z"/>
		<path style="fill:#032044;" d="M43.61084,28.394287c0-10.229248,7.873535-16.677002,17.420898-16.677002
			c9.609375,0,17.420898,6.385742,17.420898,16.677002c0,10.353516-7.749512,16.987061-17.420898,16.987061
			C51.29834,45.381348,43.61084,38.809814,43.61084,28.394287z M68.78125,28.394287c0-5.393555-3.161621-8.989502-7.749512-8.989502
			c-4.649414,0-7.749512,3.595947-7.749512,8.989502c0,5.641846,3.162109,9.299561,7.749512,9.299561
			C65.681641,37.693848,68.78125,34.098145,68.78125,28.394287z"/>
		<path style="fill:#032044;" d="M91.703125,44.637451h-9.42334V12.523193h9.113281v3.905762
			c2.045898-2.97583,5.580078-4.649658,9.733887-4.649658c7.005371,0,11.717285,4.21582,11.717285,12.833252v20.024902h-9.423828
			V26.286377c0-4.091553-2.107422-6.44751-5.641602-6.44751c-3.285645,0-6.075684,2.417969-6.075684,7.6875V44.637451z"/>
		<path style="fill:#032044;" d="M116.348145,28.394287c0-10.229248,7.873535-16.677002,17.420898-16.677002
			c9.609375,0,17.420898,6.385742,17.420898,16.677002c0,10.353516-7.749512,16.987061-17.420898,16.987061
			C124.035645,45.381348,116.348145,38.809814,116.348145,28.394287z M141.518555,28.394287
			c0-5.393555-3.161621-8.989502-7.749512-8.989502c-4.649414,0-7.749512,3.595947-7.749512,8.989502
			c0,5.641846,3.162109,9.299561,7.749512,9.299561C138.418945,37.693848,141.518555,34.098145,141.518555,28.394287z"/>
		<path style="fill:#032044;" d="M164.44043,44.637451h-9.42334V12.523193h9.113281v4.773926
			c0.558105-0.991943,1.302246-1.921875,2.231934-2.728027c1.859863-1.487793,3.658203-2.293701,6.695801-2.293701
			c0.806152,0,1.73584,0.062012,2.293945,0.185791v8.679688c-1.487793-0.186035-2.231934-0.186035-3.162109-0.186035
			c-3.533691,0-7.749512,1.302002-7.749512,7.377441V44.637451z"/>
		<path style="fill:#032044;" d="M176.424805,34.469971h8.741699c0.495605,2.97583,3.037598,4.401855,6.509277,4.401855
			c2.728027,0,5.145996-0.991943,5.145996-3.223877c0-1.983887-1.797852-2.851807-5.827637-3.533691l-3.348145-0.620117
			c-6.571289-1.177979-10.663086-4.091797-10.663086-9.237305c0-6.571777,6.075684-10.601562,13.825195-10.601562
			c7.377441,0,13.453125,3.719971,14.321289,10.291504h-8.617676c-0.620117-2.417969-2.728027-3.781738-5.889648-3.781738
			c-2.728027,0-4.773926,1.239746-4.773926,3.161865c0,1.797852,1.612305,2.479736,5.083984,3.099609l3.285645,0.558105
			c7.31543,1.301758,11.655273,4.153809,11.655273,9.733398c0,7.067627-6.695312,10.66333-14.383301,10.66333
			C183.616211,45.381348,177.35498,41.97168,176.424805,34.469971z"/>
		<path style="fill:#032044;" d="M222.862305,22.752686c0-14.197266,10.663574-22.442627,21.822754-22.442627
			c10.539551,0,18.84668,6.261475,20.148926,15.74707h-10.105469c-1.178223-4.339844-4.897949-7.129639-10.105469-7.129639
			c-6.32373,0-11.345215,5.331787-11.345215,13.825195c0,8.493652,5.083496,14.01123,11.407227,14.01123
			c5.083496,0,8.679688-2.665771,10.105469-7.129639h10.105469c-1.549805,9.547607-9.733398,15.74707-20.272949,15.74707
			C233.153809,45.381348,222.862305,37.011963,222.862305,22.752686z"/>
		<path style="fill:#032044;" d="M266.96875,28.394287c0-10.229248,7.873535-16.677002,17.420898-16.677002
			c9.609375,0,17.421387,6.385742,17.421387,16.677002c0,10.353516-7.75,16.987061-17.421387,16.987061
			C274.65625,45.381348,266.96875,38.809814,266.96875,28.394287z M292.13916,28.394287
			c0-5.393555-3.161621-8.989502-7.749512-8.989502c-4.649414,0-7.749512,3.595947-7.749512,8.989502
			c0,5.641846,3.162109,9.299561,7.749512,9.299561C289.039551,37.693848,292.13916,34.098145,292.13916,28.394287z"/>
		<path style="fill:#032044;" d="M305.718262,0h9.42334v44.637451h-9.42334V0z"/>
		<path style="fill:#032044;" d="M320.740723,0h9.42334v44.637451h-9.42334V0z"/>
		<path style="fill:#032044;" d="M351.106934,45.381348c-9.298828,0-17.110352-6.385498-17.110352-16.987061
			c0-10.29126,8.05957-16.677002,16.924805-16.677002c9.113281,0,16.615234,6.075684,16.615234,17.359131v1.921875h-24.117188
			c0.496094,4.649658,3.782227,7.439453,7.998047,7.439453c2.727539,0,5.455078-0.929932,6.756836-3.47168h9.051758
			C365.242676,42.157471,358.174316,45.381348,351.106934,45.381348z M343.35791,25.046631h14.692383
			c-0.30957-3.905762-3.223633-6.447754-7.25293-6.447754C346.953613,18.598877,343.854004,20.954834,343.35791,25.046631z"/>
		<path style="fill:#032044;" d="M386.650879,57.098633c-9.298828,0-15.00293-4.277588-16.056641-11.097168h9.174805
			c0.682617,2.789795,3.100586,4.3396,6.944336,4.3396c3.967773,0,6.571289-1.983887,6.571289-6.44751v-4.649902
			c-1.860352,2.852051-5.083984,4.525879-9.423828,4.525879c-7.749023,0-14.197266-5.765625-14.197266-16.119141
			c0-10.043457,6.696289-15.871094,14.321289-15.871094c4.463867,0,7.625977,1.797852,9.485352,4.959717v-4.21582h9.175781
			v30.750244C402.645996,52.821045,395.578613,57.098633,386.650879,57.098633z M393.347168,27.650391
			c0-5.331787-3.100586-8.493408-7.005859-8.493408c-4.030273,0-7.005859,3.285645-7.005859,8.493408
			c0,5.517822,2.975586,8.741455,7.005859,8.741455C390.309082,36.391846,393.347168,33.106201,393.347168,27.650391z"/>
		<path style="fill:#032044;" d="M423.584473,45.381348c-9.298828,0-17.110352-6.385498-17.110352-16.987061
			c0-10.29126,8.058594-16.677002,16.924805-16.677002c9.113281,0,16.615234,6.075684,16.615234,17.359131v1.921875h-24.117188
			c0.496094,4.649658,3.782227,7.439453,7.998047,7.439453c2.727539,0,5.455078-0.929932,6.756836-3.47168h9.051758
			C437.720215,42.157471,430.651855,45.381348,423.584473,45.381348z M415.835449,25.046631h14.692383
			c-0.30957-3.905762-3.223633-6.447754-7.25293-6.447754C419.431152,18.598877,416.331543,20.954834,415.835449,25.046631z"/>
	</g>
</g>
<g>
</g>
<g>
</g>
<g>
</g>
<g>
</g>
<g>
</g>
<g>
</g>
<g>
</g>
<g>
</g>
<g>
</g>
<g>
</g>
<g>
</g>
<g>
</g>
<g>
</g>
<g>
</g>
<g>
</g>
</svg>
