<?xml version="1.0" encoding="iso-8859-1"?>
<!-- Generator: Adobe Illustrator 30.2.1, SVG Export Plug-In . SVG Version: 9.03 Build 0)  -->
<svg version="1.1" id="Layer_1" xmlns="http://www.w3.org/2000/svg" xmlns:xlink="http://www.w3.org/1999/xlink" x="0px" y="0px"
	 viewBox="0 0 858.434 136.315" style="enable-background:new 0 0 858.434 136.315;" xml:space="preserve">
<g id="UnitName_00000155828925717603015420000013519887324746876054_">
	<g>
		<path style="fill:#032044;" d="M21.265,33.418l-7.067,7.625v11.655h-9.92V9.302h9.92v19.033l17.11-19.033h12.338L28.208,25.979
			l15.81,26.721H32.424L21.265,33.418z"/>
		<path style="fill:#032044;" d="M46.368,8.062h9.424v44.637h-9.424V8.062z"/>
		<path style="fill:#032044;" d="M76.734,53.443c-9.299,0-17.11-6.386-17.11-16.987c0-10.292,8.06-16.677,16.925-16.677
			c9.113,0,16.615,6.076,16.615,17.359v1.922H69.047c0.496,4.65,3.782,7.439,7.998,7.439c2.728,0,5.456-0.93,6.758-3.472h9.051
			C90.87,50.219,83.803,53.443,76.734,53.443z M68.985,33.108h14.693c-0.311-3.906-3.224-6.448-7.254-6.448
			C72.581,26.661,69.481,29.017,68.985,33.108z"/>
		<path style="fill:#032044;" d="M95.149,42.532h8.741c0.496,2.976,3.038,4.402,6.51,4.402c2.728,0,5.146-0.992,5.146-3.224
			c0-1.984-1.798-2.852-5.827-3.534l-3.349-0.62c-6.571-1.178-10.663-4.092-10.663-9.238c0-6.571,6.076-10.601,13.825-10.601
			c7.378,0,13.453,3.72,14.321,10.291h-8.617c-0.62-2.417-2.729-3.782-5.89-3.782c-2.729,0-4.774,1.24-4.774,3.162
			c0,1.798,1.612,2.48,5.084,3.1l3.286,0.558c7.315,1.302,11.655,4.154,11.655,9.733c0,7.067-6.695,10.664-14.383,10.664
			C102.341,53.443,96.079,50.033,95.149,42.532z"/>
		<path style="fill:#032044;" d="M126.645,42.532h8.742c0.495,2.976,3.037,4.402,6.509,4.402c2.729,0,5.146-0.992,5.146-3.224
			c0-1.984-1.798-2.852-5.828-3.534l-3.348-0.62c-6.571-1.178-10.663-4.092-10.663-9.238c0-6.571,6.075-10.601,13.825-10.601
			c7.377,0,13.453,3.72,14.321,10.291h-8.618c-0.62-2.417-2.728-3.782-5.89-3.782c-2.728,0-4.773,1.24-4.773,3.162
			c0,1.798,1.612,2.48,5.084,3.1l3.285,0.558c7.315,1.302,11.655,4.154,11.655,9.733c0,7.067-6.695,10.664-14.383,10.664
			C133.836,53.443,127.575,50.033,126.645,42.532z"/>
		<path style="fill:#032044;" d="M174.959,53.443c-9.299,0-17.11-6.386-17.11-16.987c0-10.292,8.06-16.677,16.925-16.677
			c9.113,0,16.615,6.076,16.615,17.359v1.922h-24.117c0.496,4.65,3.782,7.439,7.998,7.439c2.728,0,5.456-0.93,6.758-3.472h9.051
			C189.095,50.219,182.027,53.443,174.959,53.443z M167.21,33.108h14.693c-0.311-3.906-3.224-6.448-7.254-6.448
			C170.806,26.661,167.706,29.017,167.21,33.108z"/>
		<path style="fill:#032044;" d="M208.502,30.814c0-14.197,10.663-22.443,21.822-22.443c10.54,0,18.847,6.262,20.149,15.747h-10.105
			c-1.179-4.339-4.898-7.129-10.105-7.129c-6.324,0-11.346,5.332-11.346,13.825s5.084,14.011,11.407,14.011
			c5.084,0,8.68-2.666,10.105-7.129h10.105c-1.55,9.547-9.733,15.747-20.272,15.747C218.793,53.443,208.502,45.074,208.502,30.814z"
			/>
		<path style="fill:#032044;" d="M252.608,36.456c0-10.229,7.873-16.677,17.421-16.677c9.609,0,17.421,6.385,17.421,16.677
			c0,10.354-7.75,16.987-17.421,16.987C260.296,53.443,252.608,46.872,252.608,36.456z M277.778,36.456
			c0-5.394-3.161-8.989-7.749-8.989c-4.649,0-7.75,3.596-7.75,8.989c0,5.642,3.162,9.299,7.75,9.299
			C274.679,45.755,277.778,42.16,277.778,36.456z"/>
		<path style="fill:#032044;" d="M291.357,8.062h9.424v44.637h-9.424V8.062z"/>
		<path style="fill:#032044;" d="M306.38,8.062h9.424v44.637h-9.424V8.062z"/>
		<path style="fill:#032044;" d="M336.747,53.443c-9.3,0-17.111-6.386-17.111-16.987c0-10.292,8.06-16.677,16.925-16.677
			c9.113,0,16.615,6.076,16.615,17.359v1.922h-24.117c0.496,4.65,3.782,7.439,7.998,7.439c2.728,0,5.456-0.93,6.758-3.472h9.052
			C350.882,50.219,343.814,53.443,336.747,53.443z M328.997,33.108h14.693c-0.31-3.906-3.224-6.448-7.254-6.448
			C332.593,26.661,329.493,29.017,328.997,33.108z"/>
		<path style="fill:#032044;" d="M372.29,65.161c-9.299,0-15.003-4.278-16.057-11.098h9.175c0.683,2.79,3.101,4.34,6.944,4.34
			c3.968,0,6.571-1.984,6.571-6.448v-4.649c-1.86,2.852-5.084,4.525-9.424,4.525c-7.749,0-14.197-5.766-14.197-16.119
			c0-10.043,6.696-15.871,14.321-15.871c4.464,0,7.626,1.798,9.485,4.959v-4.216h9.176v30.75
			C388.285,60.883,381.218,65.161,372.29,65.161z M378.986,35.712c0-5.332-3.101-8.494-7.006-8.494c-4.03,0-7.006,3.286-7.006,8.494
			c0,5.518,2.976,8.741,7.006,8.741C375.948,44.454,378.986,41.168,378.986,35.712z"/>
		<path style="fill:#032044;" d="M409.224,53.443c-9.299,0-17.11-6.386-17.11-16.987c0-10.292,8.059-16.677,16.925-16.677
			c9.113,0,16.615,6.076,16.615,17.359v1.922h-24.117c0.496,4.65,3.782,7.439,7.998,7.439c2.728,0,5.455-0.93,6.757-3.472h9.052
			C423.359,50.219,416.291,53.443,409.224,53.443z M401.475,33.108h14.692c-0.31-3.906-3.224-6.448-7.253-6.448
			C405.07,26.661,401.971,29.017,401.475,33.108z"/>
		<path style="fill:#032044;" d="M442.519,36.456c0-10.229,7.873-16.677,17.421-16.677c9.609,0,17.421,6.385,17.421,16.677
			c0,10.354-7.75,16.987-17.421,16.987C450.206,53.443,442.519,46.872,442.519,36.456z M467.688,36.456
			c0-5.394-3.162-8.989-7.749-8.989c-4.65,0-7.75,3.596-7.75,8.989c0,5.642,3.162,9.299,7.75,9.299
			C464.589,45.755,467.688,42.16,467.688,36.456z"/>
		<path style="fill:#032044;" d="M492.371,27.467v25.232h-9.176V27.467h-5.331v-6.882h5.331v-3.41c0-7.068,4.03-9.175,10.105-9.175
			c2.418,0,3.968,0,6.138,0.062v6.943c-1.302-0.062-2.541-0.062-3.905-0.062c-1.86,0-3.162,0.496-3.162,3.1v2.542h7.067v6.882
			H492.371z"/>
		<path style="fill:#032044;" d="M549.906,52.699h-32.053V9.302h31.681v8.06h-21.823v9.113h20.087v7.874h-20.087V44.64h22.195
			V52.699z"/>
		<path style="fill:#032044;" d="M564.229,52.699h-9.423V20.585h9.113v3.906c2.046-2.976,5.579-4.649,9.733-4.649
			c7.006,0,11.717,4.215,11.717,12.833v20.025h-9.423V34.348c0-4.092-2.108-6.447-5.642-6.447c-3.286,0-6.076,2.417-6.076,7.688
			V52.699z"/>
		<path style="fill:#032044;" d="M605.979,65.161c-9.299,0-15.003-4.278-16.057-11.098h9.175c0.683,2.79,3.101,4.34,6.944,4.34
			c3.968,0,6.571-1.984,6.571-6.448v-4.649c-1.86,2.852-5.084,4.525-9.424,4.525c-7.749,0-14.197-5.766-14.197-16.119
			c0-10.043,6.696-15.871,14.321-15.871c4.464,0,7.626,1.798,9.485,4.959v-4.216h9.176v30.75
			C621.974,60.883,614.906,65.161,605.979,65.161z M612.674,35.712c0-5.332-3.1-8.494-7.005-8.494c-4.03,0-7.006,3.286-7.006,8.494
			c0,5.518,2.976,8.741,7.006,8.741C609.637,44.454,612.674,41.168,612.674,35.712z"/>
		<path style="fill:#032044;" d="M627.655,8.062h9.485v7.812h-9.485V8.062z M627.655,20.585h9.423v32.114h-9.423V20.585z"/>
		<path style="fill:#032044;" d="M652.113,52.699h-9.423V20.585h9.113v3.906c2.046-2.976,5.579-4.649,9.733-4.649
			c7.006,0,11.717,4.215,11.717,12.833v20.025h-9.423V34.348c0-4.092-2.108-6.447-5.642-6.447c-3.286,0-6.076,2.417-6.076,7.688
			V52.699z"/>
		<path style="fill:#032044;" d="M693.869,53.443c-9.299,0-17.11-6.386-17.11-16.987c0-10.292,8.06-16.677,16.925-16.677
			c9.113,0,16.615,6.076,16.615,17.359v1.922h-24.117c0.496,4.65,3.782,7.439,7.998,7.439c2.728,0,5.455-0.93,6.757-3.472h9.052
			C708.005,50.219,700.937,53.443,693.869,53.443z M686.12,33.108h14.692c-0.31-3.906-3.224-6.448-7.253-6.448
			C689.716,26.661,686.616,29.017,686.12,33.108z"/>
		<path style="fill:#032044;" d="M729.426,53.443c-9.299,0-17.11-6.386-17.11-16.987c0-10.292,8.06-16.677,16.925-16.677
			c9.113,0,16.615,6.076,16.615,17.359v1.922h-24.117c0.496,4.65,3.782,7.439,7.998,7.439c2.728,0,5.455-0.93,6.757-3.472h9.052
			C743.562,50.219,736.493,53.443,729.426,53.443z M721.677,33.108h14.692c-0.31-3.906-3.224-6.448-7.253-6.448
			C725.272,26.661,722.173,29.017,721.677,33.108z"/>
		<path style="fill:#032044;" d="M759.247,52.699h-9.423V20.585h9.113v4.774c0.558-0.992,1.302-1.922,2.231-2.728
			c1.86-1.488,3.658-2.294,6.696-2.294c0.806,0,1.735,0.062,2.293,0.186v8.68c-1.487-0.186-2.231-0.186-3.161-0.186
			c-3.534,0-7.75,1.302-7.75,7.377V52.699z"/>
		<path style="fill:#032044;" d="M772.447,8.062h9.485v7.812h-9.485V8.062z M772.447,20.585h9.423v32.114h-9.423V20.585z"/>
		<path style="fill:#032044;" d="M796.904,52.699h-9.423V20.585h9.113v3.906c2.046-2.976,5.579-4.649,9.733-4.649
			c7.006,0,11.717,4.215,11.717,12.833v20.025h-9.423V34.348c0-4.092-2.108-6.447-5.642-6.447c-3.286,0-6.076,2.417-6.076,7.688
			V52.699z"/>
		<path style="fill:#032044;" d="M838.655,65.161c-9.299,0-15.003-4.278-16.057-11.098h9.175c0.683,2.79,3.101,4.34,6.944,4.34
			c3.968,0,6.571-1.984,6.571-6.448v-4.649c-1.86,2.852-5.084,4.525-9.424,4.525c-7.749,0-14.197-5.766-14.197-16.119
			c0-10.043,6.696-15.871,14.321-15.871c4.464,0,7.626,1.798,9.485,4.959v-4.216h9.176v30.75
			C854.65,60.883,847.583,65.161,838.655,65.161z M845.352,35.712c0-5.332-3.101-8.494-7.006-8.494c-4.03,0-7.006,3.286-7.006,8.494
			c0,5.518,2.976,8.741,7.006,8.741C842.313,44.454,845.352,41.168,845.352,35.712z"/>
		<path style="fill:#032044;" d="M29.944,116.662c-3.472,2.355-7.439,3.782-12.586,3.782c-8.927,0-15.312-4.836-15.312-12.647
			c0-5.642,3.224-9.485,8.432-12.151c-2.294-2.604-3.844-5.27-3.844-8.865c0-6.634,5.766-11.346,13.205-11.346
			c7.625,0,13.019,4.34,13.019,11.098c0,4.959-3.161,8.431-8.865,10.911l6.572,7.068c1.363-2.046,2.17-4.402,2.541-7.316h8.68
			c-0.496,5.27-2.294,10.043-5.394,13.639l8.184,8.804v0.062H32.796L29.944,116.662z M18.165,112.941
			c2.355,0,4.588-0.682,6.51-2.046l-9.052-9.795c-2.79,1.488-4.154,3.534-4.154,6.014C11.469,110.648,14.569,112.941,18.165,112.941
			z M18.847,92.483c3.782-1.426,5.518-3.286,5.518-5.704c0-2.542-1.983-4.278-4.588-4.278c-2.728,0-4.649,1.86-4.649,4.34
			C15.127,88.887,16.615,90.499,18.847,92.483z"/>
		<path style="fill:#032044;" d="M62.433,76.302h10.105v43.397H62.433V76.302z"/>
		<path style="fill:#032044;" d="M88.205,119.699h-9.424V87.585h9.114v3.906c2.045-2.976,5.579-4.649,9.733-4.649
			c7.005,0,11.717,4.215,11.717,12.833v20.025h-9.424v-18.351c0-4.092-2.107-6.447-5.642-6.447c-3.285,0-6.075,2.417-6.075,7.688
			V119.699z"/>
		<path style="fill:#032044;" d="M116.452,110.958V94.467h-5.208v-6.882h5.208v-7.998h9.237v7.998h7.13v6.882h-7.13v14.321
			c0,3.224,0.992,3.844,3.534,3.844h3.596v7.005c-2.17,0.124-3.968,0.124-7.006,0.124
			C119.924,119.761,116.452,118.025,116.452,110.958z"/>
		<path style="fill:#032044;" d="M151.146,120.443c-9.3,0-17.111-6.386-17.111-16.987c0-10.292,8.06-16.677,16.926-16.677
			c9.113,0,16.614,6.076,16.614,17.359v1.922h-24.116c0.496,4.65,3.781,7.439,7.997,7.439c2.729,0,5.456-0.93,6.758-3.472h9.052
			C165.28,117.219,158.213,120.443,151.146,120.443z M143.396,100.108h14.693c-0.31-3.906-3.224-6.448-7.253-6.448
			C146.992,93.661,143.892,96.017,143.396,100.108z"/>
		<path style="fill:#032044;" d="M186.689,132.161c-9.3,0-15.003-4.278-16.058-11.098h9.176c0.683,2.79,3.1,4.34,6.943,4.34
			c3.968,0,6.572-1.984,6.572-6.448v-4.649c-1.86,2.852-5.084,4.525-9.424,4.525c-7.749,0-14.197-5.766-14.197-16.119
			c0-10.043,6.696-15.871,14.321-15.871c4.464,0,7.626,1.798,9.485,4.959v-4.216h9.176v30.75
			C202.685,127.883,195.617,132.161,186.689,132.161z M193.385,102.712c0-5.332-3.1-8.494-7.005-8.494
			c-4.03,0-7.006,3.286-7.006,8.494c0,5.518,2.976,8.741,7.006,8.741C190.348,111.454,193.385,108.168,193.385,102.712z"/>
		<path style="fill:#032044;" d="M217.789,119.699h-9.424V87.585h9.114v4.774c0.558-0.992,1.302-1.922,2.231-2.728
			c1.859-1.488,3.658-2.294,6.695-2.294c0.807,0,1.736,0.062,2.294,0.186v8.68c-1.487-0.186-2.231-0.186-3.162-0.186
			c-3.533,0-7.749,1.302-7.749,7.377V119.699z"/>
		<path style="fill:#032044;" d="M251.49,116.042c-2.107,2.604-5.394,4.34-10.043,4.34c-6.076,0-11.903-3.472-11.903-10.043
			c0-6.696,5.394-9.052,13.887-10.416l7.378-1.178v-0.434c0-3.472-1.922-4.836-5.27-4.836c-3.41,0-5.518,1.612-6.076,4.588h-8.804
			c1.055-7.006,7.192-11.283,15.313-11.283c8.68,0,14.136,3.41,14.073,12.461l-0.062,13.639c0,1.054,0.062,2.914,0.247,6.82h-8.617
			L251.49,116.042z M243.865,113.686c3.781,0,6.943-2.232,6.943-6.696v-2.17c-8.494,1.054-12.151,1.984-12.151,5.084
			C238.657,112.384,240.889,113.686,243.865,113.686z"/>
		<path style="fill:#032044;" d="M267.208,110.958V94.467h-5.207v-6.882h5.207v-7.998h9.237v7.998h7.13v6.882h-7.13v14.321
			c0,3.224,0.992,3.844,3.534,3.844h3.596v7.005c-2.17,0.124-3.968,0.124-7.006,0.124
			C270.68,119.761,267.208,118.025,267.208,110.958z"/>
		<path style="fill:#032044;" d="M301.901,120.443c-9.299,0-17.11-6.386-17.11-16.987c0-10.292,8.06-16.677,16.925-16.677
			c9.113,0,16.615,6.076,16.615,17.359v1.922h-24.117c0.496,4.65,3.782,7.439,7.998,7.439c2.728,0,5.456-0.93,6.758-3.472h9.051
			C316.037,117.219,308.97,120.443,301.901,120.443z M294.152,100.108h14.693c-0.311-3.906-3.224-6.448-7.254-6.448
			C297.748,93.661,294.648,96.017,294.152,100.108z"/>
		<path style="fill:#032044;" d="M345.108,115.173c-1.922,3.348-5.207,5.208-9.671,5.208c-7.998,0-14.88-5.828-14.88-16.987
			c0-10.725,7.13-16.553,15.004-16.553c4.153,0,7.315,1.55,9.237,4.339V75.062h9.424v44.637h-9.114V115.173z M344.984,103.394
			c0-5.704-3.161-8.989-7.377-8.989c-4.278,0-7.378,3.286-7.378,8.989c0,5.952,3.1,9.423,7.378,9.423
			C341.699,112.817,344.984,109.408,344.984,103.394z"/>
		<path style="fill:#032044;" d="M375.364,76.302h16.182c13.825,0,22.877,7.067,22.877,21.451c0,13.825-9.114,21.947-22.939,21.947
			h-16.119V76.302z M390.492,111.392c8.927,0,13.577-5.083,13.577-13.577c0-8.432-4.65-13.205-13.577-13.205h-5.022v26.782H390.492z
			"/>
		<path style="fill:#032044;" d="M433.873,120.443c-9.299,0-17.11-6.386-17.11-16.987c0-10.292,8.06-16.677,16.925-16.677
			c9.113,0,16.615,6.076,16.615,17.359v1.922h-24.117c0.496,4.65,3.782,7.439,7.998,7.439c2.728,0,5.455-0.93,6.757-3.472h9.052
			C448.009,117.219,440.94,120.443,433.873,120.443z M426.124,100.108h14.692c-0.31-3.906-3.224-6.448-7.253-6.448
			C429.72,93.661,426.62,96.017,426.124,100.108z"/>
		<path style="fill:#032044;" d="M452.287,109.532h8.741c0.496,2.976,3.038,4.402,6.51,4.402c2.729,0,5.146-0.992,5.146-3.224
			c0-1.984-1.798-2.852-5.827-3.534l-3.348-0.62c-6.572-1.178-10.664-4.092-10.664-9.238c0-6.571,6.076-10.601,13.825-10.601
			c7.378,0,13.454,3.72,14.321,10.291h-8.617c-0.62-2.417-2.728-3.782-5.89-3.782c-2.728,0-4.773,1.24-4.773,3.162
			c0,1.798,1.611,2.48,5.083,3.1l3.286,0.558c7.315,1.302,11.655,4.154,11.655,9.733c0,7.067-6.695,10.664-14.383,10.664
			C459.479,120.443,453.217,117.033,452.287,109.532z"/>
		<path style="fill:#032044;" d="M485.612,75.062h9.485v7.812h-9.485V75.062z M485.612,87.585h9.423v32.114h-9.423V87.585z"/>
		<path style="fill:#032044;" d="M515.922,132.161c-9.299,0-15.003-4.278-16.057-11.098h9.175c0.683,2.79,3.101,4.34,6.944,4.34
			c3.968,0,6.571-1.984,6.571-6.448v-4.649c-1.86,2.852-5.084,4.525-9.424,4.525c-7.749,0-14.197-5.766-14.197-16.119
			c0-10.043,6.696-15.871,14.321-15.871c4.464,0,7.626,1.798,9.485,4.959v-4.216h9.176v30.75
			C531.917,127.883,524.85,132.161,515.922,132.161z M522.617,102.712c0-5.332-3.1-8.494-7.005-8.494
			c-4.03,0-7.006,3.286-7.006,8.494c0,5.518,2.976,8.741,7.006,8.741C519.58,111.454,522.617,108.168,522.617,102.712z"/>
		<path style="fill:#032044;" d="M547.021,119.699h-9.423V87.585h9.113v3.906c2.046-2.976,5.579-4.649,9.733-4.649
			c7.006,0,11.717,4.215,11.717,12.833v20.025h-9.423v-18.351c0-4.092-2.108-6.447-5.642-6.447c-3.286,0-6.076,2.417-6.076,7.688
			V119.699z"/>
	</g>
</g>
<g>
</g>
<g>
</g>
<g>
</g>
<g>
</g>
<g>
</g>
<g>
</g>
<g>
</g>
<g>
</g>
<g>
</g>
<g>
</g>
<g>
</g>
<g>
</g>
<g>
</g>
<g>
</g>
<g>
</g>
</svg>
