<?xml version="1.0" encoding="iso-8859-1"?>
<!-- Generator: Adobe Illustrator 30.2.1, SVG Export Plug-In . SVG Version: 9.03 Build 0)  -->
<svg version="1.1" id="Layer_1" xmlns="http://www.w3.org/2000/svg" xmlns:xlink="http://www.w3.org/1999/xlink" x="0px" y="0px"
	 viewBox="0 0 502.664 136.315" style="enable-background:new 0 0 502.664 136.315;" xml:space="preserve">
<g id="UnitName_00000155828925717603015420000013519887324746876054_">
	<g>
		<path style="fill:#032044;" d="M2.107,30.814c0-14.197,10.664-22.443,21.823-22.443c10.539,0,18.847,6.262,20.148,15.747H33.974
			c-1.178-4.339-4.897-7.129-10.105-7.129c-6.323,0-11.345,5.332-11.345,13.825s5.083,14.011,11.407,14.011
			c5.083,0,8.68-2.666,10.105-7.129h10.105c-1.55,9.547-9.733,15.747-20.273,15.747C12.399,53.443,2.107,45.074,2.107,30.814z"/>
		<path style="fill:#032044;" d="M46.214,36.456c0-10.229,7.874-16.677,17.421-16.677c9.609,0,17.422,6.385,17.422,16.677
			c0,10.354-7.75,16.987-17.422,16.987C53.901,53.443,46.214,46.872,46.214,36.456z M71.385,36.456c0-5.394-3.162-8.989-7.75-8.989
			c-4.649,0-7.749,3.596-7.749,8.989c0,5.642,3.162,9.299,7.749,9.299C68.285,45.755,71.385,42.16,71.385,36.456z"/>
		<path style="fill:#032044;" d="M84.964,8.062h9.423v44.637h-9.423V8.062z"/>
		<path style="fill:#032044;" d="M99.986,8.062h9.423v44.637h-9.423V8.062z"/>
		<path style="fill:#032044;" d="M130.353,53.443c-9.3,0-17.111-6.386-17.111-16.987c0-10.292,8.06-16.677,16.926-16.677
			c9.113,0,16.614,6.076,16.614,17.359v1.922h-24.116c0.496,4.65,3.781,7.439,7.997,7.439c2.729,0,5.456-0.93,6.758-3.472h9.052
			C144.487,50.219,137.42,53.443,130.353,53.443z M122.603,33.108h14.693c-0.31-3.906-3.224-6.448-7.253-6.448
			C126.199,26.661,123.099,29.017,122.603,33.108z"/>
		<path style="fill:#032044;" d="M165.896,65.161c-9.3,0-15.003-4.278-16.058-11.098h9.176c0.683,2.79,3.1,4.34,6.943,4.34
			c3.968,0,6.572-1.984,6.572-6.448v-4.649c-1.86,2.852-5.084,4.525-9.424,4.525c-7.749,0-14.197-5.766-14.197-16.119
			c0-10.043,6.696-15.871,14.321-15.871c4.464,0,7.626,1.798,9.485,4.959v-4.216h9.176v30.75
			C181.892,60.883,174.824,65.161,165.896,65.161z M172.592,35.712c0-5.332-3.1-8.494-7.005-8.494c-4.03,0-7.006,3.286-7.006,8.494
			c0,5.518,2.976,8.741,7.006,8.741C169.555,44.454,172.592,41.168,172.592,35.712z"/>
		<path style="fill:#032044;" d="M202.829,53.443c-9.299,0-17.11-6.386-17.11-16.987c0-10.292,8.06-16.677,16.925-16.677
			c9.113,0,16.615,6.076,16.615,17.359v1.922h-24.117c0.496,4.65,3.782,7.439,7.998,7.439c2.728,0,5.456-0.93,6.758-3.472h9.051
			C216.965,50.219,209.897,53.443,202.829,53.443z M195.08,33.108h14.693c-0.311-3.906-3.224-6.448-7.254-6.448
			C198.676,26.661,195.576,29.017,195.08,33.108z"/>
		<path style="fill:#032044;" d="M236.124,36.456c0-10.229,7.873-16.677,17.421-16.677c9.609,0,17.421,6.385,17.421,16.677
			c0,10.354-7.75,16.987-17.421,16.987C243.812,53.443,236.124,46.872,236.124,36.456z M261.294,36.456
			c0-5.394-3.161-8.989-7.749-8.989c-4.649,0-7.75,3.596-7.75,8.989c0,5.642,3.162,9.299,7.75,9.299
			C258.194,45.755,261.294,42.16,261.294,36.456z"/>
		<path style="fill:#032044;" d="M285.977,27.467v25.232h-9.175V27.467h-5.332v-6.882h5.332v-3.41c0-7.068,4.029-9.175,10.105-9.175
			c2.418,0,3.968,0,6.138,0.062v6.943c-1.303-0.062-2.542-0.062-3.906-0.062c-1.859,0-3.162,0.496-3.162,3.1v2.542h7.068v6.882
			H285.977z"/>
		<path style="fill:#032044;" d="M311.459,9.302h10.105v34.966h19.653v8.432h-29.759V9.302z"/>
		<path style="fill:#032044;" d="M343.904,8.062h9.485v7.812h-9.485V8.062z M343.904,20.585h9.423v32.114h-9.423V20.585z"/>
		<path style="fill:#032044;" d="M377.724,53.381c-4.464,0-7.749-1.86-9.609-5.208v4.526h-9.175V8.062h9.423v16.305
			c1.922-2.914,5.084-4.525,9.424-4.525c7.997,0,14.817,5.704,14.817,16.553C392.604,47.492,385.722,53.381,377.724,53.381z
			 M382.993,36.394c0-5.89-3.224-8.989-7.377-8.989c-4.278,0-7.439,3.286-7.439,8.989c0,6.014,3.348,9.423,7.439,9.423
			C379.77,45.817,382.993,42.408,382.993,36.394z"/>
		<path style="fill:#032044;" d="M411.909,53.443c-9.299,0-17.11-6.386-17.11-16.987c0-10.292,8.059-16.677,16.925-16.677
			c9.113,0,16.615,6.076,16.615,17.359v1.922h-24.117c0.496,4.65,3.782,7.439,7.998,7.439c2.728,0,5.455-0.93,6.757-3.472h9.052
			C426.045,50.219,418.977,53.443,411.909,53.443z M404.16,33.108h14.692c-0.31-3.906-3.224-6.448-7.253-6.448
			C407.756,26.661,404.656,29.017,404.16,33.108z"/>
		<path style="fill:#032044;" d="M441.731,52.699h-9.423V20.585h9.113v4.774c0.558-0.992,1.302-1.922,2.231-2.728
			c1.86-1.488,3.658-2.294,6.696-2.294c0.806,0,1.735,0.062,2.293,0.186v8.68c-1.487-0.186-2.231-0.186-3.161-0.186
			c-3.534,0-7.75,1.302-7.75,7.377V52.699z"/>
		<path style="fill:#032044;" d="M475.433,49.042c-2.107,2.604-5.394,4.34-10.043,4.34c-6.076,0-11.903-3.472-11.903-10.043
			c0-6.696,5.394-9.052,13.887-10.416l7.378-1.178v-0.434c0-3.472-1.922-4.836-5.27-4.836c-3.41,0-5.518,1.612-6.076,4.588h-8.803
			c1.054-7.006,7.191-11.283,15.312-11.283c8.68,0,14.136,3.41,14.073,12.461l-0.062,13.639c0,1.054,0.062,2.914,0.248,6.82h-8.618
			L475.433,49.042z M467.808,46.686c3.781,0,6.943-2.232,6.943-6.696v-2.17c-8.493,1.054-12.151,1.984-12.151,5.084
			C462.6,45.384,464.832,46.686,467.808,46.686z"/>
		<path style="fill:#032044;" d="M489.396,8.062h9.423v44.637h-9.423V8.062z"/>
		<path style="fill:#032044;" d="M29.944,116.662c-3.472,2.355-7.439,3.782-12.586,3.782c-8.927,0-15.312-4.836-15.312-12.647
			c0-5.642,3.224-9.485,8.432-12.151c-2.294-2.604-3.844-5.27-3.844-8.865c0-6.634,5.766-11.346,13.205-11.346
			c7.625,0,13.019,4.34,13.019,11.098c0,4.959-3.161,8.431-8.865,10.911l6.572,7.068c1.363-2.046,2.17-4.402,2.541-7.316h8.68
			c-0.496,5.27-2.294,10.043-5.394,13.639l8.184,8.804v0.062H32.796L29.944,116.662z M18.165,112.941
			c2.355,0,4.588-0.682,6.51-2.046l-9.052-9.795c-2.79,1.488-4.154,3.534-4.154,6.014C11.469,110.648,14.569,112.941,18.165,112.941
			z M18.847,92.483c3.782-1.426,5.518-3.286,5.518-5.704c0-2.542-1.983-4.278-4.588-4.278c-2.728,0-4.649,1.86-4.649,4.34
			C15.127,88.887,16.615,90.499,18.847,92.483z"/>
		<path style="fill:#032044;" d="M72.414,102.588v17.111h-9.981V76.302h30.316v8.432H72.414v9.857h18.352v7.998H72.414z"/>
		<path style="fill:#032044;" d="M95.721,75.062h9.485v7.812h-9.485V75.062z M95.721,87.585h9.423v32.114h-9.423V87.585z"/>
		<path style="fill:#032044;" d="M120.179,119.699h-9.424V87.585h9.114v3.906c2.045-2.976,5.579-4.649,9.733-4.649
			c7.005,0,11.717,4.215,11.717,12.833v20.025h-9.424v-18.351c0-4.092-2.107-6.447-5.642-6.447c-3.285,0-6.075,2.417-6.075,7.688
			V119.699z"/>
		<path style="fill:#032044;" d="M161.935,120.443c-9.3,0-17.111-6.386-17.111-16.987c0-10.292,8.06-16.677,16.926-16.677
			c9.113,0,16.614,6.076,16.614,17.359v1.922h-24.116c0.496,4.65,3.781,7.439,7.997,7.439c2.729,0,5.456-0.93,6.758-3.472h9.052
			C176.069,117.219,169.002,120.443,161.935,120.443z M154.185,100.108h14.693c-0.31-3.906-3.224-6.448-7.253-6.448
			C157.781,93.661,154.681,96.017,154.185,100.108z"/>
		<path style="fill:#032044;" d="M224.801,110.4h-17.73l-3.286,9.299h-10.167l16.553-43.397h12.027l16.553,43.397h-10.663
			L224.801,110.4z M221.949,102.402l-6.014-17.049l-6.014,17.049H221.949z"/>
		<path style="fill:#032044;" d="M250.414,119.699h-9.424V87.585h9.114v4.774c0.558-0.992,1.302-1.922,2.231-2.728
			c1.859-1.488,3.658-2.294,6.695-2.294c0.807,0,1.736,0.062,2.294,0.186v8.68c-1.487-0.186-2.231-0.186-3.162-0.186
			c-3.533,0-7.749,1.302-7.749,7.377V119.699z"/>
		<path style="fill:#032044;" d="M267.37,110.958V94.467h-5.207v-6.882h5.207v-7.998h9.237v7.998h7.13v6.882h-7.13v14.321
			c0,3.224,0.992,3.844,3.534,3.844h3.596v7.005c-2.17,0.124-3.968,0.124-7.006,0.124
			C270.842,119.761,267.37,118.025,267.37,110.958z"/>
		<path style="fill:#032044;" d="M285.394,109.532h8.741c0.496,2.976,3.038,4.402,6.51,4.402c2.728,0,5.146-0.992,5.146-3.224
			c0-1.984-1.798-2.852-5.827-3.534l-3.349-0.62c-6.571-1.178-10.663-4.092-10.663-9.238c0-6.571,6.076-10.601,13.825-10.601
			c7.378,0,13.453,3.72,14.321,10.291h-8.617c-0.62-2.417-2.729-3.782-5.89-3.782c-2.729,0-4.774,1.24-4.774,3.162
			c0,1.798,1.612,2.48,5.084,3.1l3.286,0.558c7.315,1.302,11.655,4.154,11.655,9.733c0,7.067-6.695,10.664-14.383,10.664
			C292.585,120.443,286.323,117.033,285.394,109.532z"/>
	</g>
</g>
<g>
</g>
<g>
</g>
<g>
</g>
<g>
</g>
<g>
</g>
<g>
</g>
<g>
</g>
<g>
</g>
<g>
</g>
<g>
</g>
<g>
</g>
<g>
</g>
<g>
</g>
<g>
</g>
<g>
</g>
</svg>
