<?xml version="1.0" encoding="iso-8859-1"?>
<!-- Generator: Adobe Illustrator 30.2.1, SVG Export Plug-In . SVG Version: 9.03 Build 0)  -->
<svg version="1.1" id="Layer_1" xmlns="http://www.w3.org/2000/svg" xmlns:xlink="http://www.w3.org/1999/xlink" x="0px" y="0px"
	 viewBox="0 0 832.387 69.316" style="enable-background:new 0 0 832.387 69.316;" xml:space="preserve">
<g id="UnitName_00000083051636230227074460000000021105607283046073_">
	<g>
		<path style="fill:#032044;" d="M2.108,30.815c0-14.197,10.664-22.443,21.823-22.443c10.54,0,18.847,6.261,20.149,15.747H33.974
			c-1.178-4.34-4.898-7.13-10.105-7.13c-6.324,0-11.345,5.332-11.345,13.825c0,8.494,5.083,14.011,11.407,14.011
			c5.083,0,8.68-2.666,10.105-7.13h10.105c-1.55,9.548-9.733,15.747-20.273,15.747C12.399,53.443,2.108,45.074,2.108,30.815z"/>
		<path style="fill:#032044;" d="M46.214,36.456c0-10.229,7.874-16.677,17.421-16.677c9.609,0,17.421,6.386,17.421,16.677
			c0,10.354-7.75,16.987-17.421,16.987C53.902,53.443,46.214,46.872,46.214,36.456z M71.385,36.456c0-5.394-3.162-8.99-7.75-8.99
			c-4.649,0-7.75,3.596-7.75,8.99c0,5.642,3.162,9.3,7.75,9.3C68.285,45.756,71.385,42.16,71.385,36.456z"/>
		<path style="fill:#032044;" d="M84.964,8.062h9.423v44.637h-9.423V8.062z"/>
		<path style="fill:#032044;" d="M99.986,8.062h9.423v44.637h-9.423V8.062z"/>
		<path style="fill:#032044;" d="M130.353,53.443c-9.299,0-17.111-6.385-17.111-16.987c0-10.291,8.06-16.677,16.925-16.677
			c9.113,0,16.615,6.076,16.615,17.359v1.922h-24.117c0.496,4.65,3.782,7.439,7.998,7.439c2.728,0,5.456-0.93,6.758-3.472h9.051
			C144.488,50.219,137.42,53.443,130.353,53.443z M122.603,33.109h14.693c-0.31-3.906-3.224-6.448-7.253-6.448
			C126.199,26.661,123.099,29.017,122.603,33.109z"/>
		<path style="fill:#032044;" d="M165.896,65.161c-9.299,0-15.003-4.278-16.057-11.097h9.176c0.682,2.79,3.1,4.34,6.943,4.34
			c3.968,0,6.572-1.984,6.572-6.448v-4.65c-1.86,2.852-5.083,4.526-9.423,4.526c-7.75,0-14.197-5.766-14.197-16.119
			c0-10.043,6.696-15.871,14.321-15.871c4.463,0,7.625,1.798,9.485,4.96v-4.216h9.175v30.75
			C181.892,60.883,174.824,65.161,165.896,65.161z M172.592,35.712c0-5.332-3.1-8.493-7.005-8.493c-4.03,0-7.006,3.286-7.006,8.493
			c0,5.518,2.976,8.741,7.006,8.741C169.555,44.454,172.592,41.168,172.592,35.712z"/>
		<path style="fill:#032044;" d="M202.83,53.443c-9.299,0-17.111-6.385-17.111-16.987c0-10.291,8.06-16.677,16.925-16.677
			c9.113,0,16.615,6.076,16.615,17.359v1.922h-24.117c0.496,4.65,3.782,7.439,7.998,7.439c2.728,0,5.456-0.93,6.758-3.472h9.051
			C216.965,50.219,209.897,53.443,202.83,53.443z M195.08,33.109h14.693c-0.31-3.906-3.224-6.448-7.253-6.448
			C198.676,26.661,195.576,29.017,195.08,33.109z"/>
		<path style="fill:#032044;" d="M236.124,36.456c0-10.229,7.874-16.677,17.421-16.677c9.609,0,17.421,6.386,17.421,16.677
			c0,10.354-7.75,16.987-17.421,16.987C243.812,53.443,236.124,46.872,236.124,36.456z M261.294,36.456
			c0-5.394-3.162-8.99-7.75-8.99c-4.649,0-7.75,3.596-7.75,8.99c0,5.642,3.162,9.3,7.75,9.3
			C258.195,45.756,261.294,42.16,261.294,36.456z"/>
		<path style="fill:#032044;" d="M285.977,27.467v25.233h-9.175V27.467h-5.332v-6.882h5.332v-3.41c0-7.068,4.03-9.176,10.105-9.176
			c2.418,0,3.968,0,6.138,0.062v6.944c-1.302-0.062-2.542-0.062-3.906-0.062c-1.86,0-3.162,0.496-3.162,3.1v2.542h7.068v6.882
			H285.977z"/>
		<path style="fill:#032044;" d="M311.459,9.302h10.105v34.966h19.653v8.432h-29.758V9.302z"/>
		<path style="fill:#032044;" d="M343.904,8.062h9.485v7.812h-9.485V8.062z M343.904,20.585h9.423v32.114h-9.423V20.585z"/>
		<path style="fill:#032044;" d="M377.724,53.381c-4.464,0-7.749-1.86-9.609-5.208v4.526h-9.175V8.062h9.423v16.305
			c1.922-2.914,5.084-4.526,9.424-4.526c7.997,0,14.817,5.704,14.817,16.553C392.604,47.492,385.722,53.381,377.724,53.381z
			 M382.993,36.394c0-5.89-3.224-8.989-7.377-8.989c-4.278,0-7.439,3.286-7.439,8.989c0,6.014,3.348,9.424,7.439,9.424
			C379.77,45.818,382.993,42.408,382.993,36.394z"/>
		<path style="fill:#032044;" d="M411.909,53.443c-9.299,0-17.11-6.385-17.11-16.987c0-10.291,8.059-16.677,16.925-16.677
			c9.113,0,16.615,6.076,16.615,17.359v1.922h-24.117c0.496,4.65,3.782,7.439,7.998,7.439c2.728,0,5.455-0.93,6.757-3.472h9.052
			C426.045,50.219,418.977,53.443,411.909,53.443z M404.16,33.109h14.692c-0.31-3.906-3.224-6.448-7.253-6.448
			C407.756,26.661,404.656,29.017,404.16,33.109z"/>
		<path style="fill:#032044;" d="M441.731,52.699h-9.423V20.585h9.113v4.774c0.558-0.992,1.302-1.922,2.231-2.728
			c1.86-1.488,3.658-2.294,6.696-2.294c0.806,0,1.735,0.062,2.293,0.186v8.68c-1.487-0.186-2.231-0.186-3.161-0.186
			c-3.534,0-7.75,1.302-7.75,7.377V52.699z"/>
		<path style="fill:#032044;" d="M475.433,49.042c-2.107,2.604-5.394,4.34-10.043,4.34c-6.076,0-11.903-3.472-11.903-10.043
			c0-6.696,5.394-9.051,13.887-10.415l7.378-1.178v-0.434c0-3.472-1.922-4.836-5.27-4.836c-3.41,0-5.518,1.612-6.076,4.588h-8.803
			c1.054-7.006,7.191-11.283,15.312-11.283c8.68,0,14.136,3.41,14.073,12.461l-0.062,13.639c0,1.054,0.062,2.914,0.248,6.82h-8.618
			L475.433,49.042z M467.808,46.686c3.781,0,6.943-2.232,6.943-6.696v-2.17c-8.493,1.054-12.151,1.984-12.151,5.084
			C462.6,45.384,464.832,46.686,467.808,46.686z"/>
		<path style="fill:#032044;" d="M489.396,8.062h9.423v44.637h-9.423V8.062z"/>
		<path style="fill:#032044;" d="M545.69,49.662c-3.472,2.356-7.439,3.782-12.585,3.782c-8.928,0-15.313-4.836-15.313-12.647
			c0-5.642,3.224-9.485,8.432-12.151c-2.294-2.604-3.844-5.27-3.844-8.865c0-6.634,5.766-11.345,13.205-11.345
			c7.626,0,13.02,4.34,13.02,11.097c0,4.96-3.162,8.432-8.866,10.911l6.572,7.068c1.363-2.046,2.17-4.402,2.542-7.315h8.679
			c-0.495,5.27-2.293,10.043-5.394,13.639l8.184,8.803v0.062h-11.779L545.69,49.662z M533.911,45.942
			c2.355,0,4.588-0.682,6.51-2.046l-9.052-9.795c-2.79,1.488-4.153,3.534-4.153,6.014C527.216,43.648,530.315,45.942,533.911,45.942
			z M534.593,25.483c3.782-1.426,5.518-3.286,5.518-5.704c0-2.542-1.983-4.278-4.587-4.278c-2.729,0-4.65,1.86-4.65,4.34
			C530.873,21.887,532.361,23.499,534.593,25.483z"/>
		<path style="fill:#032044;" d="M588.16,35.588v17.111h-9.981V9.302h30.316v8.431H588.16v9.857h18.352v7.998H588.16z"/>
		<path style="fill:#032044;" d="M611.467,8.062h9.485v7.812h-9.485V8.062z M611.467,20.585h9.423v32.114h-9.423V20.585z"/>
		<path style="fill:#032044;" d="M635.925,52.699h-9.423V20.585h9.113v3.906c2.046-2.976,5.579-4.65,9.733-4.65
			c7.006,0,11.717,4.216,11.717,12.833v20.025h-9.423V34.348c0-4.092-2.108-6.448-5.642-6.448c-3.286,0-6.076,2.418-6.076,7.688
			V52.699z"/>
		<path style="fill:#032044;" d="M677.681,53.443c-9.299,0-17.11-6.385-17.11-16.987c0-10.291,8.059-16.677,16.925-16.677
			c9.113,0,16.615,6.076,16.615,17.359v1.922h-24.117c0.496,4.65,3.782,7.439,7.998,7.439c2.728,0,5.455-0.93,6.757-3.472h9.052
			C691.816,50.219,684.748,53.443,677.681,53.443z M669.932,33.109h14.692c-0.31-3.906-3.224-6.448-7.253-6.448
			C673.527,26.661,670.428,29.017,669.932,33.109z"/>
		<path style="fill:#032044;" d="M740.548,43.4h-17.731l-3.286,9.3h-10.167l16.553-43.397h12.027l16.554,43.397h-10.664
			L740.548,43.4z M737.695,35.402l-6.014-17.049l-6.014,17.049H737.695z"/>
		<path style="fill:#032044;" d="M766.16,52.699h-9.423V20.585h9.113v4.774c0.558-0.992,1.302-1.922,2.231-2.728
			c1.86-1.488,3.658-2.294,6.695-2.294c0.807,0,1.736,0.062,2.294,0.186v8.68c-1.487-0.186-2.231-0.186-3.161-0.186
			c-3.534,0-7.75,1.302-7.75,7.377V52.699z"/>
		<path style="fill:#032044;" d="M783.117,43.958V27.467h-5.208v-6.882h5.208v-7.998h9.237v7.998h7.129v6.882h-7.129v14.321
			c0,3.224,0.991,3.844,3.533,3.844h3.596v7.006c-2.17,0.124-3.968,0.124-7.005,0.124C786.589,52.761,783.117,51.026,783.117,43.958
			z"/>
		<path style="fill:#032044;" d="M801.14,42.532h8.741c0.496,2.976,3.038,4.402,6.51,4.402c2.729,0,5.146-0.992,5.146-3.224
			c0-1.984-1.798-2.852-5.827-3.534l-3.348-0.62c-6.572-1.178-10.664-4.092-10.664-9.237c0-6.572,6.076-10.602,13.825-10.602
			c7.378,0,13.454,3.72,14.321,10.292h-8.617c-0.62-2.418-2.728-3.782-5.89-3.782c-2.728,0-4.773,1.24-4.773,3.162
			c0,1.798,1.611,2.48,5.083,3.1l3.286,0.558c7.315,1.302,11.655,4.154,11.655,9.733c0,7.068-6.695,10.663-14.383,10.663
			C808.331,53.443,802.069,50.034,801.14,42.532z"/>
	</g>
</g>
<g>
</g>
<g>
</g>
<g>
</g>
<g>
</g>
<g>
</g>
<g>
</g>
<g>
</g>
<g>
</g>
<g>
</g>
<g>
</g>
<g>
</g>
<g>
</g>
<g>
</g>
<g>
</g>
<g>
</g>
</svg>
