<?xml version="1.0" encoding="iso-8859-1"?>
<!-- Generator: Adobe Illustrator 30.2.1, SVG Export Plug-In . SVG Version: 9.03 Build 0)  -->
<svg version="1.1" id="Layer_1" xmlns="http://www.w3.org/2000/svg" xmlns:xlink="http://www.w3.org/1999/xlink" x="0px" y="0px"
	 viewBox="0 0 706.562012 57.160645" style="enable-background:new 0 0 706.562012 57.160645;" xml:space="preserve">
<g>
	<g>
		<path style="fill:#032044;" d="M0,1.302002h10.105469v34.96582h19.652832v8.431641H0V1.302002z"/>
		<path style="fill:#032044;" d="M30.857422,28.456299c0-10.229248,7.873535-16.677002,17.420898-16.677002
			c9.609375,0,17.421387,6.385742,17.421387,16.677002c0,10.353516-7.75,16.987061-17.421387,16.987061
			C38.544922,45.443359,30.857422,38.871826,30.857422,28.456299z M56.027832,28.456299
			c0-5.393555-3.161621-8.989502-7.749512-8.989502c-4.649414,0-7.749512,3.595947-7.749512,8.989502
			c0,5.641846,3.162109,9.299561,7.749512,9.299561C52.928223,37.755859,56.027832,34.160156,56.027832,28.456299z"/>
		<path style="fill:#032044;" d="M78.949707,44.699463h-9.42334V12.585205h9.11377v3.905762
			c2.04541-2.97583,5.57959-4.649658,9.733398-4.649658c7.005371,0,11.717285,4.21582,11.717285,12.833252v20.024902h-9.423828
			V26.348389c0-4.091553-2.10791-6.44751-5.641602-6.44751c-3.285645,0-6.075684,2.417969-6.075684,7.6875V44.699463z"/>
		<path style="fill:#032044;" d="M120.699707,57.160645c-9.299316,0-15.00293-4.277588-16.057129-11.097168h9.175781
			c0.682129,2.789795,3.099609,4.3396,6.943359,4.3396c3.967773,0,6.571777-1.983887,6.571777-6.44751v-4.649902
			c-1.859863,2.852051-5.083496,4.525879-9.42334,4.525879c-7.749512,0-14.197266-5.765625-14.197266-16.119141
			c0-10.043457,6.695801-15.871094,14.321289-15.871094c4.463379,0,7.625488,1.797852,9.485352,4.959717v-4.21582h9.175293
			v30.750244C136.694824,52.883057,129.627441,57.160645,120.699707,57.160645z M127.395508,27.712402
			c0-5.331787-3.099609-8.493408-7.005371-8.493408c-4.029785,0-7.005859,3.285645-7.005859,8.493408
			c0,5.517822,2.976074,8.741455,7.005859,8.741455C124.35791,36.453857,127.395508,33.168213,127.395508,27.712402z"/>
		<path style="fill:#032044;" d="M155.358398,30.998291h9.857422c0.620117,4.649658,4.21582,6.81958,8.927734,6.81958
			c4.339355,0,7.625488-1.797852,7.625488-5.08374c0-2.851807-2.666016-4.277832-7.439453-5.269775l-4.339844-0.929932
			c-9.237793-1.921875-13.577148-6.075684-13.577148-12.709229c0-7.935547,7.625488-13.453125,16.924805-13.453125
			c9.485352,0,16.677246,4.897705,17.544922,13.515137h-9.79541c-0.558105-3.719727-3.533691-5.889648-7.811523-5.889648
			c-3.967773,0-7.067383,2.045898-7.067383,4.959717c0,2.60376,1.921875,3.719727,6.26123,4.587646l4.835938,1.053955
			c8.741699,1.736084,14.383301,5.641846,14.383301,13.205322c0,8.92749-8.369629,13.63916-17.606934,13.63916
			C164.038086,45.443359,156.226562,40.855713,155.358398,30.998291z"/>
		<path style="fill:#032044;" d="M194.051758,28.456299c0-10.043457,7.811523-16.677002,17.048828-16.677002
			c8.369629,0,14.941406,4.959717,15.933105,12.647217h-9.299316c-0.743652-3.037598-3.409668-4.959717-6.633789-4.959717
			c-4.339355,0-7.377441,3.657959-7.377441,8.989502c0,5.517822,3.100098,9.299561,7.377441,9.299561
			c3.162109,0,5.704102-1.797852,6.571777-5.021729h9.361328c-1.239746,7.935547-7.873535,12.709229-15.995117,12.709229
			C201.615234,45.443359,194.051758,38.809814,194.051758,28.456299z"/>
		<path style="fill:#032044;" d="M240.135742,44.699463h-9.42334V0.062012h9.42334V13.63916c0,0.86792,0,1.674072,0,2.417969
			c2.045898-2.665771,5.456055-4.21582,9.423828-4.21582c7.005371,0,11.717285,4.21582,11.717285,12.833252v20.024902h-9.423828
			V26.348389c0-4.091553-2.107422-6.44751-5.641602-6.44751c-3.285645,0-6.075684,2.417969-6.075684,7.6875V44.699463z"/>
		<path style="fill:#032044;" d="M264.78125,28.456299c0-10.229248,7.873535-16.677002,17.420898-16.677002
			c9.609375,0,17.421387,6.385742,17.421387,16.677002c0,10.353516-7.75,16.987061-17.421387,16.987061
			C272.46875,45.443359,264.78125,38.871826,264.78125,28.456299z M289.95166,28.456299
			c0-5.393555-3.161621-8.989502-7.749512-8.989502c-4.649414,0-7.749512,3.595947-7.749512,8.989502
			c0,5.641846,3.162109,9.299561,7.749512,9.299561C286.852051,37.755859,289.95166,34.160156,289.95166,28.456299z"/>
		<path style="fill:#032044;" d="M301.608398,28.456299c0-10.229248,7.873535-16.677002,17.420898-16.677002
			c9.609375,0,17.421387,6.385742,17.421387,16.677002c0,10.353516-7.75,16.987061-17.421387,16.987061
			C309.295898,45.443359,301.608398,38.871826,301.608398,28.456299z M326.778809,28.456299
			c0-5.393555-3.161621-8.989502-7.749512-8.989502c-4.649414,0-7.749512,3.595947-7.749512,8.989502
			c0,5.641846,3.162109,9.299561,7.749512,9.299561C323.679199,37.755859,326.778809,34.160156,326.778809,28.456299z"/>
		<path style="fill:#032044;" d="M340.358887,0.062012h9.422852v44.637451h-9.422852V0.062012z"/>
		<path style="fill:#032044;" d="M368.567871,28.456299c0-10.229248,7.873047-16.677002,17.420898-16.677002
			c9.609375,0,17.420898,6.385742,17.420898,16.677002c0,10.353516-7.75,16.987061-17.420898,16.987061
			C376.255371,45.443359,368.567871,38.871826,368.567871,28.456299z M393.737793,28.456299
			c0-5.393555-3.162109-8.989502-7.749023-8.989502c-4.650391,0-7.75,3.595947-7.75,8.989502
			c0,5.641846,3.162109,9.299561,7.75,9.299561C390.638184,37.755859,393.737793,34.160156,393.737793,28.456299z"/>
		<path style="fill:#032044;" d="M418.42041,19.466797v25.232666h-9.175781V19.466797h-5.331055v-6.881592h5.331055V9.175537
			C409.244629,2.10791,413.274902,0,419.350098,0c2.417969,0,3.967773,0,6.137695,0.062012v6.943604
			c-1.301758-0.062012-2.541016-0.062012-3.905273-0.062012c-1.860352,0-3.162109,0.496094-3.162109,3.099854v2.541748h7.067383
			v6.881592H418.42041z"/>
		<path style="fill:#032044;" d="M453.450684,9.299561v35.399902h-9.547852V1.302002h15.871094l9.610352,31.804199
			l9.609375-31.804199h15.499023v43.397461h-9.609375V9.485596l-10.973633,35.213867h-9.485352L453.450684,9.299561z"/>
		<path style="fill:#032044;" d="M516.162598,45.443359c-9.298828,0-17.110352-6.385498-17.110352-16.987061
			c0-10.29126,8.058594-16.677002,16.924805-16.677002c9.113281,0,16.615234,6.075684,16.615234,17.359131v1.921875h-24.117188
			c0.496094,4.649658,3.782227,7.439453,7.998047,7.439453c2.727539,0,5.455078-0.929932,6.756836-3.47168h9.051758
			C530.29834,42.219482,523.22998,45.443359,516.162598,45.443359z M508.413574,25.108643h14.692383
			c-0.30957-3.905762-3.223633-6.447754-7.25293-6.447754C512.009277,18.660889,508.909668,21.016846,508.413574,25.108643z"/>
		<path style="fill:#032044;" d="M559.369629,40.173828c-1.921875,3.347656-5.207031,5.20752-9.670898,5.20752
			c-7.998047,0-14.878906-5.827637-14.878906-16.987061c0-10.725342,7.128906-16.552979,15.00293-16.552979
			c4.15332,0,7.31543,1.550049,9.237305,4.339844V0.062012h9.423828v44.637451h-9.114258V40.173828z M559.245605,28.394287
			c0-5.703613-3.161133-8.989258-7.376953-8.989258c-4.27832,0-7.37793,3.285645-7.37793,8.989258
			c0,5.95166,3.099609,9.423584,7.37793,9.423584C555.960449,37.817871,559.245605,34.407959,559.245605,28.394287z"/>
		<path style="fill:#032044;" d="M574.163574,0.062012h9.485352v7.811523h-9.485352V0.062012z M574.163574,12.585205h9.422852
			v32.114258h-9.422852V12.585205z"/>
		<path style="fill:#032044;" d="M587.258301,28.456299c0-10.043457,7.811523-16.677002,17.048828-16.677002
			c8.369141,0,14.94043,4.959717,15.932617,12.647217h-9.298828c-0.744141-3.037598-3.410156-4.959717-6.633789-4.959717
			c-4.339844,0-7.37793,3.657959-7.37793,8.989502c0,5.517822,3.099609,9.299561,7.37793,9.299561
			c3.161133,0,5.703125-1.797852,6.571289-5.021729h9.361328c-1.239258,7.935547-7.873047,12.709229-15.995117,12.709229
			C594.821777,45.443359,587.258301,38.809814,587.258301,28.456299z"/>
		<path style="fill:#032044;" d="M623.918457,0.062012h9.485352v7.811523h-9.485352V0.062012z M623.918457,12.585205h9.422852
			v32.114258h-9.422852V12.585205z"/>
		<path style="fill:#032044;" d="M648.375488,44.699463h-9.422852V12.585205h9.113281v3.905762
			c2.045898-2.97583,5.579102-4.649658,9.733398-4.649658c7.005859,0,11.716797,4.21582,11.716797,12.833252v20.024902h-9.422852
			V26.348389c0-4.091553-2.108398-6.44751-5.641602-6.44751c-3.286133,0-6.076172,2.417969-6.076172,7.6875V44.699463z"/>
		<path style="fill:#032044;" d="M690.132324,45.443359c-9.298828,0-17.110352-6.385498-17.110352-16.987061
			c0-10.29126,8.05957-16.677002,16.924805-16.677002c9.113281,0,16.615234,6.075684,16.615234,17.359131v1.921875h-24.117188
			c0.496094,4.649658,3.782227,7.439453,7.998047,7.439453c2.727539,0,5.455078-0.929932,6.756836-3.47168h9.051758
			C704.268066,42.219482,697.199707,45.443359,690.132324,45.443359z M682.383301,25.108643h14.692383
			c-0.30957-3.905762-3.223633-6.447754-7.25293-6.447754C685.979004,18.660889,682.879395,21.016846,682.383301,25.108643z"/>
	</g>
</g>
<g>
</g>
<g>
</g>
<g>
</g>
<g>
</g>
<g>
</g>
<g>
</g>
<g>
</g>
<g>
</g>
<g>
</g>
<g>
</g>
<g>
</g>
<g>
</g>
<g>
</g>
<g>
</g>
<g>
</g>
</svg>
