<?xml version="1.0" encoding="iso-8859-1"?>
<!-- Generator: Adobe Illustrator 30.2.1, SVG Export Plug-In . SVG Version: 9.03 Build 0)  -->
<svg version="1.1" id="Layer_1" xmlns="http://www.w3.org/2000/svg" xmlns:xlink="http://www.w3.org/1999/xlink" x="0px" y="0px"
	 viewBox="0 0 357.904 136.315" style="enable-background:new 0 0 357.904 136.315;" xml:space="preserve">
<g id="UnitName_00000155828925717603015420000013519887324746876054_">
	<g>
		<path style="fill:#032044;" d="M4.277,9.302h10.105v34.966h19.653v8.432H4.277V9.302z"/>
		<path style="fill:#032044;" d="M35.135,36.456c0-10.229,7.874-16.677,17.421-16.677c9.609,0,17.422,6.385,17.422,16.677
			c0,10.354-7.75,16.987-17.422,16.987C42.822,53.443,35.135,46.872,35.135,36.456z M60.306,36.456c0-5.394-3.162-8.989-7.75-8.989
			c-4.649,0-7.749,3.596-7.749,8.989c0,5.642,3.162,9.299,7.749,9.299C57.206,45.755,60.306,42.16,60.306,36.456z"/>
		<path style="fill:#032044;" d="M83.228,52.699h-9.424V20.585h9.114v3.906c2.045-2.976,5.579-4.649,9.733-4.649
			c7.005,0,11.717,4.215,11.717,12.833v20.025h-9.424V34.348c0-4.092-2.107-6.447-5.642-6.447c-3.285,0-6.075,2.417-6.075,7.688
			V52.699z"/>
		<path style="fill:#032044;" d="M124.978,65.161c-9.3,0-15.003-4.278-16.058-11.098h9.176c0.683,2.79,3.1,4.34,6.943,4.34
			c3.968,0,6.572-1.984,6.572-6.448v-4.649c-1.86,2.852-5.084,4.525-9.424,4.525c-7.749,0-14.197-5.766-14.197-16.119
			c0-10.043,6.696-15.871,14.321-15.871c4.464,0,7.626,1.798,9.485,4.959v-4.216h9.176v30.75
			C140.973,60.883,133.905,65.161,124.978,65.161z M131.673,35.712c0-5.332-3.1-8.494-7.005-8.494c-4.03,0-7.006,3.286-7.006,8.494
			c0,5.518,2.976,8.741,7.006,8.741C128.636,44.454,131.673,41.168,131.673,35.712z"/>
		<path style="fill:#032044;" d="M159.636,38.998h9.857c0.62,4.65,4.216,6.819,8.928,6.819c4.34,0,7.626-1.798,7.626-5.083
			c0-2.852-2.666-4.278-7.439-5.27l-4.34-0.93c-9.238-1.922-13.577-6.076-13.577-12.709c0-7.936,7.625-13.454,16.925-13.454
			c9.485,0,16.677,4.898,17.545,13.516h-9.796c-0.558-3.72-3.533-5.89-7.812-5.89c-3.968,0-7.067,2.045-7.067,4.959
			c0,2.604,1.922,3.72,6.262,4.588l4.836,1.054c8.741,1.736,14.383,5.642,14.383,13.206c0,8.927-8.369,13.639-17.606,13.639
			C168.315,53.443,160.504,48.855,159.636,38.998z"/>
		<path style="fill:#032044;" d="M198.329,36.456c0-10.043,7.812-16.677,17.049-16.677c8.37,0,14.941,4.959,15.934,12.647h-9.3
			c-0.743-3.038-3.409-4.959-6.634-4.959c-4.339,0-7.377,3.658-7.377,8.989c0,5.518,3.1,9.299,7.377,9.299
			c3.162,0,5.704-1.798,6.572-5.021h9.361c-1.24,7.936-7.874,12.709-15.995,12.709C205.893,53.443,198.329,46.81,198.329,36.456z"/>
		<path style="fill:#032044;" d="M244.413,52.699h-9.423V8.062h9.423v13.577c0,0.868,0,1.674,0,2.417
			c2.046-2.666,5.456-4.215,9.424-4.215c7.006,0,11.718,4.215,11.718,12.833v20.025h-9.424V34.348c0-4.092-2.107-6.447-5.642-6.447
			c-3.286,0-6.076,2.417-6.076,7.688V52.699z"/>
		<path style="fill:#032044;" d="M269.059,36.456c0-10.229,7.874-16.677,17.421-16.677c9.609,0,17.422,6.385,17.422,16.677
			c0,10.354-7.75,16.987-17.422,16.987C276.746,53.443,269.059,46.872,269.059,36.456z M294.229,36.456
			c0-5.394-3.162-8.989-7.75-8.989c-4.649,0-7.749,3.596-7.749,8.989c0,5.642,3.162,9.299,7.749,9.299
			C291.13,45.755,294.229,42.16,294.229,36.456z"/>
		<path style="fill:#032044;" d="M305.886,36.456c0-10.229,7.874-16.677,17.421-16.677c9.609,0,17.422,6.385,17.422,16.677
			c0,10.354-7.75,16.987-17.422,16.987C313.573,53.443,305.886,46.872,305.886,36.456z M331.057,36.456
			c0-5.394-3.162-8.989-7.75-8.989c-4.649,0-7.749,3.596-7.749,8.989c0,5.642,3.162,9.299,7.749,9.299
			C327.957,45.755,331.057,42.16,331.057,36.456z"/>
		<path style="fill:#032044;" d="M344.637,8.062h9.423v44.637h-9.423V8.062z"/>
		<path style="fill:#032044;" d="M1.859,103.456c0-10.229,7.874-16.677,17.421-16.677c9.609,0,17.422,6.385,17.422,16.677
			c0,10.354-7.75,16.987-17.422,16.987C9.547,120.443,1.859,113.872,1.859,103.456z M27.03,103.456c0-5.394-3.162-8.989-7.75-8.989
			c-4.649,0-7.749,3.596-7.749,8.989c0,5.642,3.162,9.299,7.749,9.299C23.931,112.755,27.03,109.16,27.03,103.456z"/>
		<path style="fill:#032044;" d="M51.713,94.467v25.232h-9.176V94.467h-5.331v-6.882h5.331v-3.41c0-7.068,4.03-9.175,10.105-9.175
			c2.418,0,3.968,0,6.138,0.062v6.943c-1.302-0.062-2.542-0.062-3.905-0.062c-1.86,0-3.162,0.496-3.162,3.1v2.542h7.067v6.882
			H51.713z"/>
		<path style="fill:#032044;" d="M86.742,84.299v35.4h-9.547V76.302h15.871l9.609,31.804l9.609-31.804h15.499v43.397h-9.609V84.485
			l-10.974,35.214h-9.485L86.742,84.299z"/>
		<path style="fill:#032044;" d="M149.455,120.443c-9.3,0-17.111-6.386-17.111-16.987c0-10.292,8.06-16.677,16.926-16.677
			c9.113,0,16.614,6.076,16.614,17.359v1.922h-24.116c0.496,4.65,3.781,7.439,7.997,7.439c2.729,0,5.456-0.93,6.758-3.472h9.052
			C163.59,117.219,156.522,120.443,149.455,120.443z M141.705,100.108h14.693c-0.31-3.906-3.224-6.448-7.253-6.448
			C145.302,93.661,142.201,96.017,141.705,100.108z"/>
		<path style="fill:#032044;" d="M192.662,115.173c-1.922,3.348-5.208,5.208-9.672,5.208c-7.997,0-14.879-5.828-14.879-16.987
			c0-10.725,7.129-16.553,15.003-16.553c4.153,0,7.315,1.55,9.237,4.339V75.062h9.424v44.637h-9.113V115.173z M192.538,103.394
			c0-5.704-3.162-8.989-7.378-8.989c-4.277,0-7.378,3.286-7.378,8.989c0,5.952,3.101,9.423,7.378,9.423
			C189.252,112.817,192.538,109.408,192.538,103.394z"/>
		<path style="fill:#032044;" d="M207.455,75.062h9.485v7.812h-9.485V75.062z M207.455,87.585h9.424v32.114h-9.424V87.585z"/>
		<path style="fill:#032044;" d="M220.55,103.456c0-10.043,7.812-16.677,17.049-16.677c8.369,0,14.941,4.959,15.933,12.647h-9.299
			c-0.744-3.038-3.41-4.959-6.634-4.959c-4.34,0-7.378,3.658-7.378,8.989c0,5.518,3.101,9.299,7.378,9.299
			c3.162,0,5.704-1.798,6.571-5.021h9.361c-1.239,7.936-7.873,12.709-15.994,12.709C228.113,120.443,220.55,113.81,220.55,103.456z"
			/>
		<path style="fill:#032044;" d="M257.21,75.062h9.485v7.812h-9.485V75.062z M257.21,87.585h9.423v32.114h-9.423V87.585z"/>
		<path style="fill:#032044;" d="M281.668,119.699h-9.424V87.585h9.114v3.906c2.045-2.976,5.579-4.649,9.733-4.649
			c7.005,0,11.717,4.215,11.717,12.833v20.025h-9.424v-18.351c0-4.092-2.107-6.447-5.642-6.447c-3.285,0-6.075,2.417-6.075,7.688
			V119.699z"/>
		<path style="fill:#032044;" d="M323.424,120.443c-9.299,0-17.11-6.386-17.11-16.987c0-10.292,8.06-16.677,16.925-16.677
			c9.113,0,16.615,6.076,16.615,17.359v1.922h-24.117c0.496,4.65,3.782,7.439,7.998,7.439c2.728,0,5.456-0.93,6.758-3.472h9.052
			C337.56,117.219,330.492,120.443,323.424,120.443z M315.675,100.108h14.693c-0.311-3.906-3.224-6.448-7.254-6.448
			C319.271,93.661,316.171,96.017,315.675,100.108z"/>
	</g>
</g>
<g>
</g>
<g>
</g>
<g>
</g>
<g>
</g>
<g>
</g>
<g>
</g>
<g>
</g>
<g>
</g>
<g>
</g>
<g>
</g>
<g>
</g>
<g>
</g>
<g>
</g>
<g>
</g>
<g>
</g>
</svg>
