<?xml version="1.0" encoding="iso-8859-1"?>
<!-- Generator: Adobe Illustrator 30.2.1, SVG Export Plug-In . SVG Version: 9.03 Build 0)  -->
<svg version="1.1" id="Layer_1" xmlns="http://www.w3.org/2000/svg" xmlns:xlink="http://www.w3.org/1999/xlink" x="0px" y="0px"
	 viewBox="0 0 712.763 69.316" style="enable-background:new 0 0 712.763 69.316;" xml:space="preserve">
<g id="UnitName_00000083051636230227074460000000021105607283046073_">
	<g>
		<path style="fill:#032044;" d="M4.278,9.302h10.105v34.966h19.653v8.432H4.278V9.302z"/>
		<path style="fill:#032044;" d="M35.135,36.456c0-10.229,7.874-16.677,17.421-16.677c9.609,0,17.421,6.386,17.421,16.677
			c0,10.354-7.75,16.987-17.421,16.987C42.823,53.443,35.135,46.872,35.135,36.456z M60.306,36.456c0-5.394-3.162-8.99-7.75-8.99
			c-4.649,0-7.75,3.596-7.75,8.99c0,5.642,3.162,9.3,7.75,9.3C57.206,45.756,60.306,42.16,60.306,36.456z"/>
		<path style="fill:#032044;" d="M83.228,52.699h-9.423V20.585h9.114v3.906c2.045-2.976,5.58-4.65,9.733-4.65
			c7.005,0,11.717,4.216,11.717,12.833v20.025h-9.424V34.348c0-4.092-2.108-6.448-5.642-6.448c-3.286,0-6.076,2.418-6.076,7.688
			V52.699z"/>
		<path style="fill:#032044;" d="M124.978,65.161c-9.299,0-15.003-4.278-16.057-11.097h9.176c0.682,2.79,3.1,4.34,6.943,4.34
			c3.968,0,6.572-1.984,6.572-6.448v-4.65c-1.86,2.852-5.083,4.526-9.423,4.526c-7.75,0-14.197-5.766-14.197-16.119
			c0-10.043,6.696-15.871,14.321-15.871c4.463,0,7.625,1.798,9.485,4.96v-4.216h9.175v30.75
			C140.973,60.883,133.905,65.161,124.978,65.161z M131.673,35.712c0-5.332-3.1-8.493-7.005-8.493c-4.03,0-7.006,3.286-7.006,8.493
			c0,5.518,2.976,8.741,7.006,8.741C128.636,44.454,131.673,41.168,131.673,35.712z"/>
		<path style="fill:#032044;" d="M159.636,38.998h9.857c0.62,4.65,4.216,6.82,8.928,6.82c4.339,0,7.625-1.798,7.625-5.084
			c0-2.852-2.666-4.278-7.439-5.27l-4.34-0.93c-9.238-1.922-13.577-6.076-13.577-12.709c0-7.936,7.625-13.453,16.925-13.453
			c9.485,0,16.677,4.898,17.545,13.515h-9.795c-0.558-3.72-3.534-5.89-7.812-5.89c-3.968,0-7.067,2.046-7.067,4.96
			c0,2.604,1.922,3.72,6.261,4.588l4.836,1.054c8.742,1.736,14.383,5.642,14.383,13.205c0,8.927-8.37,13.639-17.607,13.639
			C168.316,53.443,160.504,48.856,159.636,38.998z"/>
		<path style="fill:#032044;" d="M198.33,36.456c0-10.043,7.812-16.677,17.049-16.677c8.37,0,14.941,4.96,15.933,12.647h-9.299
			c-0.744-3.038-3.41-4.96-6.634-4.96c-4.339,0-7.377,3.658-7.377,8.99c0,5.518,3.1,9.3,7.377,9.3c3.162,0,5.704-1.798,6.572-5.022
			h9.361c-1.24,7.936-7.874,12.709-15.995,12.709C205.893,53.443,198.33,46.81,198.33,36.456z"/>
		<path style="fill:#032044;" d="M244.414,52.699h-9.423V8.062h9.423v13.577c0,0.868,0,1.674,0,2.418
			c2.046-2.666,5.456-4.216,9.424-4.216c7.005,0,11.717,4.216,11.717,12.833v20.025h-9.424V34.348c0-4.092-2.107-6.448-5.642-6.448
			c-3.286,0-6.076,2.418-6.076,7.688V52.699z"/>
		<path style="fill:#032044;" d="M269.059,36.456c0-10.229,7.874-16.677,17.421-16.677c9.609,0,17.421,6.386,17.421,16.677
			c0,10.354-7.75,16.987-17.421,16.987C276.747,53.443,269.059,46.872,269.059,36.456z M294.229,36.456
			c0-5.394-3.162-8.99-7.75-8.99c-4.649,0-7.75,3.596-7.75,8.99c0,5.642,3.162,9.3,7.75,9.3
			C291.13,45.756,294.229,42.16,294.229,36.456z"/>
		<path style="fill:#032044;" d="M305.886,36.456c0-10.229,7.874-16.677,17.421-16.677c9.609,0,17.421,6.386,17.421,16.677
			c0,10.354-7.75,16.987-17.421,16.987C313.574,53.443,305.886,46.872,305.886,36.456z M331.057,36.456
			c0-5.394-3.162-8.99-7.75-8.99c-4.649,0-7.75,3.596-7.75,8.99c0,5.642,3.162,9.3,7.75,9.3
			C327.957,45.756,331.057,42.16,331.057,36.456z"/>
		<path style="fill:#032044;" d="M344.637,8.062h9.423v44.637h-9.423V8.062z"/>
		<path style="fill:#032044;" d="M372.846,36.456c0-10.229,7.873-16.677,17.421-16.677c9.609,0,17.421,6.386,17.421,16.677
			c0,10.354-7.75,16.987-17.421,16.987C380.533,53.443,372.846,46.872,372.846,36.456z M398.016,36.456
			c0-5.394-3.162-8.99-7.749-8.99c-4.65,0-7.75,3.596-7.75,8.99c0,5.642,3.162,9.3,7.75,9.3
			C394.916,45.756,398.016,42.16,398.016,36.456z"/>
		<path style="fill:#032044;" d="M422.698,27.467v25.233h-9.176V27.467h-5.331v-6.882h5.331v-3.41c0-7.068,4.03-9.176,10.105-9.176
			c2.418,0,3.968,0,6.138,0.062v6.944c-1.302-0.062-2.541-0.062-3.905-0.062c-1.86,0-3.162,0.496-3.162,3.1v2.542h7.067v6.882
			H422.698z"/>
		<path style="fill:#032044;" d="M457.729,17.3v35.4h-9.548V9.302h15.871l9.61,31.804l9.609-31.804h15.499v43.397h-9.609V17.486
			l-10.974,35.214h-9.485L457.729,17.3z"/>
		<path style="fill:#032044;" d="M520.44,53.443c-9.299,0-17.11-6.385-17.11-16.987c0-10.291,8.059-16.677,16.925-16.677
			c9.113,0,16.615,6.076,16.615,17.359v1.922h-24.117c0.496,4.65,3.782,7.439,7.998,7.439c2.728,0,5.455-0.93,6.757-3.472h9.052
			C534.576,50.219,527.508,53.443,520.44,53.443z M512.691,33.109h14.692c-0.31-3.906-3.224-6.448-7.253-6.448
			C516.287,26.661,513.188,29.017,512.691,33.109z"/>
		<path style="fill:#032044;" d="M563.647,48.174c-1.922,3.348-5.207,5.208-9.671,5.208c-7.998,0-14.879-5.828-14.879-16.987
			c0-10.725,7.129-16.553,15.003-16.553c4.153,0,7.315,1.55,9.237,4.34V8.062h9.424v44.637h-9.114V48.174z M563.523,36.394
			c0-5.704-3.161-8.989-7.377-8.989c-4.278,0-7.378,3.286-7.378,8.989c0,5.952,3.1,9.424,7.378,9.424
			C560.238,45.818,563.523,42.408,563.523,36.394z"/>
		<path style="fill:#032044;" d="M578.441,8.062h9.485v7.812h-9.485V8.062z M578.441,20.585h9.423v32.114h-9.423V20.585z"/>
		<path style="fill:#032044;" d="M591.536,36.456c0-10.043,7.812-16.677,17.049-16.677c8.369,0,14.94,4.96,15.933,12.647h-9.299
			c-0.744-3.038-3.41-4.96-6.634-4.96c-4.34,0-7.378,3.658-7.378,8.99c0,5.518,3.1,9.3,7.378,9.3c3.161,0,5.703-1.798,6.571-5.022
			h9.361c-1.239,7.936-7.873,12.709-15.995,12.709C599.1,53.443,591.536,46.81,591.536,36.456z"/>
		<path style="fill:#032044;" d="M628.196,8.062h9.485v7.812h-9.485V8.062z M628.196,20.585h9.423v32.114h-9.423V20.585z"/>
		<path style="fill:#032044;" d="M652.653,52.699h-9.423V20.585h9.113v3.906c2.046-2.976,5.579-4.65,9.733-4.65
			c7.006,0,11.717,4.216,11.717,12.833v20.025h-9.423V34.348c0-4.092-2.108-6.448-5.642-6.448c-3.286,0-6.076,2.418-6.076,7.688
			V52.699z"/>
		<path style="fill:#032044;" d="M694.41,53.443c-9.299,0-17.11-6.385-17.11-16.987c0-10.291,8.06-16.677,16.925-16.677
			c9.113,0,16.615,6.076,16.615,17.359v1.922h-24.117c0.496,4.65,3.782,7.439,7.998,7.439c2.728,0,5.455-0.93,6.757-3.472h9.052
			C708.546,50.219,701.478,53.443,694.41,53.443z M686.661,33.109h14.692c-0.31-3.906-3.224-6.448-7.253-6.448
			C690.257,26.661,687.157,29.017,686.661,33.109z"/>
	</g>
</g>
<g>
</g>
<g>
</g>
<g>
</g>
<g>
</g>
<g>
</g>
<g>
</g>
<g>
</g>
<g>
</g>
<g>
</g>
<g>
</g>
<g>
</g>
<g>
</g>
<g>
</g>
<g>
</g>
<g>
</g>
</svg>
