<?xml version="1.0" encoding="iso-8859-1"?>
<!-- Generator: Adobe Illustrator 30.2.1, SVG Export Plug-In . SVG Version: 9.03 Build 0)  -->
<svg version="1.1" id="Layer_1" xmlns="http://www.w3.org/2000/svg" xmlns:xlink="http://www.w3.org/1999/xlink" x="0px" y="0px"
	 viewBox="0 0 473.147 136.315" style="enable-background:new 0 0 473.147 136.315;" xml:space="preserve">
<g id="UnitName_00000155828925717603015420000013519887324746876054_">
	<g>
		<path style="fill:#032044;" d="M13.825,17.299v35.4H4.277V9.302h15.871l9.609,31.804l9.609-31.804h15.499v43.397h-9.609V17.485
			L34.284,52.699h-9.485L13.825,17.299z"/>
		<path style="fill:#032044;" d="M81.516,49.042c-2.107,2.604-5.394,4.34-10.043,4.34c-6.076,0-11.903-3.472-11.903-10.043
			c0-6.696,5.394-9.052,13.887-10.416l7.378-1.178v-0.434c0-3.472-1.922-4.836-5.27-4.836c-3.41,0-5.518,1.612-6.076,4.588h-8.804
			c1.055-7.006,7.192-11.283,15.313-11.283c8.68,0,14.136,3.41,14.073,12.461L90.01,45.879c0,1.054,0.062,2.914,0.247,6.82H81.64
			L81.516,49.042z M73.891,46.686c3.781,0,6.943-2.232,6.943-6.696v-2.17c-8.494,1.054-12.151,1.984-12.151,5.084
			C68.683,45.384,70.914,46.686,73.891,46.686z"/>
		<path style="fill:#032044;" d="M104.884,52.699H95.46V20.585h9.114v4.774c0.558-0.992,1.302-1.922,2.231-2.728
			c1.859-1.488,3.658-2.294,6.695-2.294c0.807,0,1.736,0.062,2.294,0.186v8.68c-1.487-0.186-2.231-0.186-3.162-0.186
			c-3.533,0-7.749,1.302-7.749,7.377V52.699z"/>
		<path style="fill:#032044;" d="M127.507,52.699h-9.424V20.585h9.114v3.782c1.983-2.914,5.394-4.525,9.547-4.525
			c3.782,0,7.502,1.55,9.672,5.208c2.107-3.41,5.951-5.208,10.478-5.208c6.323,0,11.841,3.472,11.841,12.523v20.335h-9.424V34.1
			c0-4.154-2.294-6.199-5.394-6.199c-3.037,0-5.766,2.355-5.766,7.315v17.483h-9.423V34.1c0-4.154-2.294-6.199-5.395-6.199
			c-3.037,0-5.827,2.293-5.827,7.315V52.699z"/>
		<path style="fill:#032044;" d="M174.261,8.062h9.485v7.812h-9.485V8.062z M174.261,20.585h9.424v32.114h-9.424V20.585z"/>
		<path style="fill:#032044;" d="M187.355,36.456c0-10.229,7.873-16.677,17.421-16.677c9.609,0,17.421,6.385,17.421,16.677
			c0,10.354-7.75,16.987-17.421,16.987C195.043,53.443,187.355,46.872,187.355,36.456z M212.525,36.456
			c0-5.394-3.161-8.989-7.749-8.989c-4.649,0-7.75,3.596-7.75,8.989c0,5.642,3.162,9.299,7.75,9.299
			C209.426,45.755,212.525,42.16,212.525,36.456z"/>
		<path style="fill:#032044;" d="M235.447,52.699h-9.423V20.585h9.113v3.906c2.046-2.976,5.58-4.649,9.733-4.649
			c7.006,0,11.718,4.215,11.718,12.833v20.025h-9.424V34.348c0-4.092-2.107-6.447-5.642-6.447c-3.286,0-6.076,2.417-6.076,7.688
			V52.699z"/>
		<path style="fill:#032044;" d="M274.88,38.998h9.857c0.62,4.65,4.216,6.819,8.928,6.819c4.339,0,7.625-1.798,7.625-5.083
			c0-2.852-2.666-4.278-7.439-5.27l-4.34-0.93c-9.237-1.922-13.577-6.076-13.577-12.709c0-7.936,7.626-13.454,16.925-13.454
			c9.485,0,16.678,4.898,17.545,13.516h-9.795c-0.559-3.72-3.534-5.89-7.812-5.89c-3.968,0-7.067,2.045-7.067,4.959
			c0,2.604,1.922,3.72,6.261,4.588l4.836,1.054c8.742,1.736,14.384,5.642,14.384,13.206c0,8.927-8.37,13.639-17.607,13.639
			C283.56,53.443,275.748,48.855,274.88,38.998z"/>
		<path style="fill:#032044;" d="M313.573,36.456c0-10.043,7.812-16.677,17.049-16.677c8.37,0,14.941,4.959,15.934,12.647h-9.3
			c-0.744-3.038-3.41-4.959-6.634-4.959c-4.34,0-7.378,3.658-7.378,8.989c0,5.518,3.101,9.299,7.378,9.299
			c3.162,0,5.704-1.798,6.572-5.021h9.361c-1.24,7.936-7.874,12.709-15.995,12.709C321.137,53.443,313.573,46.81,313.573,36.456z"/>
		<path style="fill:#032044;" d="M359.657,52.699h-9.423V8.062h9.423v13.577c0,0.868,0,1.674,0,2.417
			c2.046-2.666,5.456-4.215,9.424-4.215c7.006,0,11.717,4.215,11.717,12.833v20.025h-9.423V34.348c0-4.092-2.108-6.447-5.642-6.447
			c-3.286,0-6.076,2.417-6.076,7.688V52.699z"/>
		<path style="fill:#032044;" d="M384.303,36.456c0-10.229,7.873-16.677,17.421-16.677c9.609,0,17.421,6.385,17.421,16.677
			c0,10.354-7.75,16.987-17.421,16.987C391.99,53.443,384.303,46.872,384.303,36.456z M409.473,36.456
			c0-5.394-3.162-8.989-7.749-8.989c-4.65,0-7.75,3.596-7.75,8.989c0,5.642,3.162,9.299,7.75,9.299
			C406.373,45.755,409.473,42.16,409.473,36.456z"/>
		<path style="fill:#032044;" d="M421.131,36.456c0-10.229,7.873-16.677,17.421-16.677c9.609,0,17.421,6.385,17.421,16.677
			c0,10.354-7.75,16.987-17.421,16.987C428.818,53.443,421.131,46.872,421.131,36.456z M446.301,36.456
			c0-5.394-3.162-8.989-7.749-8.989c-4.65,0-7.75,3.596-7.75,8.989c0,5.642,3.162,9.299,7.75,9.299
			C443.201,45.755,446.301,42.16,446.301,36.456z"/>
		<path style="fill:#032044;" d="M459.88,8.062h9.423v44.637h-9.423V8.062z"/>
		<path style="fill:#032044;" d="M1.859,103.456c0-10.229,7.874-16.677,17.421-16.677c9.609,0,17.422,6.385,17.422,16.677
			c0,10.354-7.75,16.987-17.422,16.987C9.547,120.443,1.859,113.872,1.859,103.456z M27.03,103.456c0-5.394-3.162-8.989-7.75-8.989
			c-4.649,0-7.749,3.596-7.749,8.989c0,5.642,3.162,9.299,7.749,9.299C23.931,112.755,27.03,109.16,27.03,103.456z"/>
		<path style="fill:#032044;" d="M51.713,94.467v25.232h-9.176V94.467h-5.331v-6.882h5.331v-3.41c0-7.068,4.03-9.175,10.105-9.175
			c2.418,0,3.968,0,6.138,0.062v6.943c-1.302-0.062-2.542-0.062-3.905-0.062c-1.86,0-3.162,0.496-3.162,3.1v2.542h7.067v6.882
			H51.713z"/>
		<path style="fill:#032044;" d="M77.195,76.302h18.66c10.602,0,16.119,5.828,16.119,14.197c0,8.617-5.766,14.445-16.181,14.445
			h-8.493v14.755H77.195V76.302z M94.368,96.884c4.897,0,7.439-2.479,7.439-6.261s-2.604-6.262-7.439-6.262h-7.067v12.523H94.368z"
			/>
		<path style="fill:#032044;" d="M135.666,115.917c-2.108,2.976-5.456,4.526-9.424,4.526c-6.819,0-11.718-4.216-11.718-12.709
			V87.585h9.424v18.413c0,4.154,2.17,6.324,5.58,6.324c3.037,0,5.827-2.17,5.827-7.316V87.585h9.424v32.114h-9.113V115.917z"/>
		<path style="fill:#032044;" d="M169.214,120.381c-4.464,0-7.75-1.86-9.61-5.208v4.526h-9.175V75.062h9.423v16.305
			c1.922-2.914,5.084-4.525,9.424-4.525c7.998,0,14.817,5.704,14.817,16.553C184.093,114.492,177.211,120.381,169.214,120.381z
			 M174.483,103.394c0-5.89-3.224-8.989-7.378-8.989c-4.277,0-7.439,3.286-7.439,8.989c0,6.014,3.348,9.423,7.439,9.423
			C171.26,112.817,174.483,109.408,174.483,103.394z"/>
		<path style="fill:#032044;" d="M188.161,75.062h9.423v44.637h-9.423V75.062z"/>
		<path style="fill:#032044;" d="M203.171,75.062h9.485v7.812h-9.485V75.062z M203.171,87.585h9.423v32.114h-9.423V87.585z"/>
		<path style="fill:#032044;" d="M216.265,103.456c0-10.043,7.812-16.677,17.049-16.677c8.37,0,14.941,4.959,15.934,12.647h-9.3
			c-0.743-3.038-3.409-4.959-6.634-4.959c-4.339,0-7.377,3.658-7.377,8.989c0,5.518,3.1,9.299,7.377,9.299
			c3.162,0,5.704-1.798,6.572-5.021h9.361c-1.24,7.936-7.874,12.709-15.995,12.709C223.828,120.443,216.265,113.81,216.265,103.456z
			"/>
		<path style="fill:#032044;" d="M268.221,76.302h10.105v16.677h18.908V76.302h10.105v43.397h-10.105V101.41h-18.908v18.289h-10.105
			V76.302z"/>
		<path style="fill:#032044;" d="M328.941,120.443c-9.299,0-17.11-6.386-17.11-16.987c0-10.292,8.06-16.677,16.925-16.677
			c9.113,0,16.615,6.076,16.615,17.359v1.922h-24.117c0.496,4.65,3.782,7.439,7.998,7.439c2.728,0,5.456-0.93,6.758-3.472h9.052
			C343.077,117.219,336.01,120.443,328.941,120.443z M321.192,100.108h14.693c-0.31-3.906-3.224-6.448-7.254-6.448
			C324.788,93.661,321.688,96.017,321.192,100.108z"/>
		<path style="fill:#032044;" d="M369.31,116.042c-2.107,2.604-5.394,4.34-10.043,4.34c-6.076,0-11.903-3.472-11.903-10.043
			c0-6.696,5.394-9.052,13.887-10.416l7.378-1.178v-0.434c0-3.472-1.922-4.836-5.27-4.836c-3.41,0-5.518,1.612-6.076,4.588h-8.803
			c1.054-7.006,7.191-11.283,15.312-11.283c8.68,0,14.136,3.41,14.073,12.461l-0.062,13.639c0,1.054,0.062,2.914,0.248,6.82h-8.618
			L369.31,116.042z M361.685,113.686c3.781,0,6.943-2.232,6.943-6.696v-2.17c-8.493,1.054-12.151,1.984-12.151,5.084
			C356.477,112.384,358.709,113.686,361.685,113.686z"/>
		<path style="fill:#032044;" d="M383.273,75.062h9.423v44.637h-9.423V75.062z"/>
		<path style="fill:#032044;" d="M400.403,110.958V94.467h-5.208v-6.882h5.208v-7.998h9.237v7.998h7.129v6.882h-7.129v14.321
			c0,3.224,0.991,3.844,3.533,3.844h3.596v7.005c-2.17,0.124-3.968,0.124-7.005,0.124
			C403.875,119.761,400.403,118.025,400.403,110.958z"/>
		<path style="fill:#032044;" d="M430.267,119.699h-9.423V75.062h9.423v13.577c0,0.868,0,1.674,0,2.417
			c2.046-2.666,5.456-4.215,9.424-4.215c7.006,0,11.717,4.215,11.717,12.833v20.025h-9.423v-18.351c0-4.092-2.108-6.447-5.642-6.447
			c-3.286,0-6.076,2.417-6.076,7.688V119.699z"/>
	</g>
</g>
<g>
</g>
<g>
</g>
<g>
</g>
<g>
</g>
<g>
</g>
<g>
</g>
<g>
</g>
<g>
</g>
<g>
</g>
<g>
</g>
<g>
</g>
<g>
</g>
<g>
</g>
<g>
</g>
<g>
</g>
</svg>
