<?xml version="1.0" encoding="iso-8859-1"?>
<!-- Generator: Adobe Illustrator 30.2.1, SVG Export Plug-In . SVG Version: 9.03 Build 0)  -->
<svg version="1.1" id="Layer_1" xmlns="http://www.w3.org/2000/svg" xmlns:xlink="http://www.w3.org/1999/xlink" x="0px" y="0px"
	 viewBox="0 0 506.865234 57.160645" style="enable-background:new 0 0 506.865234 57.160645;" xml:space="preserve">
<g>
	<g>
		<path style="fill:#032044;" d="M0,30.998291h9.857422c0.620117,4.649658,4.21582,6.81958,8.927734,6.81958
			c4.339355,0,7.625488-1.797852,7.625488-5.08374c0-2.851807-2.666016-4.277832-7.439453-5.269775l-4.339844-0.929932
			C5.393555,24.612549,1.054199,20.45874,1.054199,13.825195c0-7.935547,7.625488-13.453125,16.924805-13.453125
			c9.485352,0,16.677246,4.897705,17.544922,13.515137h-9.79541c-0.558105-3.719727-3.533691-5.889648-7.811523-5.889648
			c-3.967773,0-7.067383,2.045898-7.067383,4.959717c0,2.60376,1.921875,3.719727,6.26123,4.587646l4.835938,1.053955
			c8.741699,1.736084,14.383301,5.641846,14.383301,13.205322c0,8.92749-8.369629,13.63916-17.606934,13.63916
			C8.679688,45.443359,0.868164,40.855713,0,30.998291z"/>
		<path style="fill:#032044;" d="M38.693359,28.456299c0-10.043457,7.811523-16.677002,17.048828-16.677002
			c8.369629,0,14.941406,4.959717,15.933105,12.647217h-9.299316c-0.744141-3.037598-3.409668-4.959717-6.633789-4.959717
			c-4.339355,0-7.377441,3.657959-7.377441,8.989502c0,5.517822,3.100098,9.299561,7.377441,9.299561
			c3.162109,0,5.704102-1.797852,6.571777-5.021729h9.361328c-1.239746,7.935547-7.873535,12.709229-15.994629,12.709229
			C46.256836,45.443359,38.693359,38.809814,38.693359,28.456299z"/>
		<path style="fill:#032044;" d="M84.776855,44.699463h-9.42334V0.062012h9.42334V13.63916c0,0.86792,0,1.674072,0,2.417969
			c2.045898-2.665771,5.456055-4.21582,9.423828-4.21582c7.005371,0,11.717285,4.21582,11.717285,12.833252v20.024902h-9.423828
			V26.348389c0-4.091553-2.107422-6.44751-5.641602-6.44751c-3.285645,0-6.075684,2.417969-6.075684,7.6875V44.699463z"/>
		<path style="fill:#032044;" d="M109.422363,28.456299c0-10.229248,7.873535-16.677002,17.420898-16.677002
			c9.609375,0,17.421387,6.385742,17.421387,16.677002c0,10.353516-7.75,16.987061-17.421387,16.987061
			C117.109863,45.443359,109.422363,38.871826,109.422363,28.456299z M134.592773,28.456299
			c0-5.393555-3.161621-8.989502-7.749512-8.989502c-4.649414,0-7.749512,3.595947-7.749512,8.989502
			c0,5.641846,3.162109,9.299561,7.749512,9.299561C131.493164,37.755859,134.592773,34.160156,134.592773,28.456299z"/>
		<path style="fill:#032044;" d="M146.25,28.456299c0-10.229248,7.873535-16.677002,17.420898-16.677002
			c9.609375,0,17.420898,6.385742,17.420898,16.677002c0,10.353516-7.749512,16.987061-17.420898,16.987061
			C153.9375,45.443359,146.25,38.871826,146.25,28.456299z M171.42041,28.456299c0-5.393555-3.161621-8.989502-7.749512-8.989502
			c-4.649414,0-7.749512,3.595947-7.749512,8.989502c0,5.641846,3.162109,9.299561,7.749512,9.299561
			C168.320801,37.755859,171.42041,34.160156,171.42041,28.456299z"/>
		<path style="fill:#032044;" d="M184.999512,0.062012h9.42334v44.637451h-9.42334V0.062012z"/>
		<path style="fill:#032044;" d="M213.208984,28.456299c0-10.229248,7.873535-16.677002,17.420898-16.677002
			c9.609375,0,17.420898,6.385742,17.420898,16.677002c0,10.353516-7.749512,16.987061-17.420898,16.987061
			C220.896484,45.443359,213.208984,38.871826,213.208984,28.456299z M238.379395,28.456299
			c0-5.393555-3.161621-8.989502-7.749512-8.989502c-4.649414,0-7.749512,3.595947-7.749512,8.989502
			c0,5.641846,3.162109,9.299561,7.749512,9.299561C235.279785,37.755859,238.379395,34.160156,238.379395,28.456299z"/>
		<path style="fill:#032044;" d="M263.062012,19.466797v25.232666h-9.175293V19.466797h-5.331543v-6.881592h5.331543V9.175537
			C253.886719,2.10791,257.916504,0,263.992188,0c2.417969,0,3.967773,0,6.137695,0.062012v6.943604
			c-1.302246-0.062012-2.541992-0.062012-3.905762-0.062012c-1.859863,0-3.162109,0.496094-3.162109,3.099854v2.541748h7.067871
			v6.881592H263.062012z"/>
		<path style="fill:#032044;" d="M298.216309,14.693115v30.006348h-9.671387V1.302002h11.965332l17.792969,30.068115V1.302002
			h9.609375v43.397461h-11.90332L298.216309,14.693115z"/>
		<path style="fill:#032044;" d="M355.167969,40.917725c-2.108398,2.97583-5.456055,4.525635-9.423828,4.525635
			c-6.819336,0-11.716797-4.215576-11.716797-12.709229V12.585205h9.422852v18.413086
			c0,4.153809,2.169922,6.323486,5.580078,6.323486c3.038086,0,5.827148-2.169678,5.827148-7.31543V12.585205h9.423828v32.114258
			h-9.113281V40.917725z"/>
		<path style="fill:#032044;" d="M379.353516,44.699463h-9.422852V12.585205h9.113281v4.773926
			c0.557617-0.991943,1.301758-1.921875,2.231445-2.728027c1.860352-1.487793,3.658203-2.293701,6.696289-2.293701
			c0.805664,0,1.735352,0.062012,2.292969,0.185791v8.679688c-1.487305-0.186035-2.231445-0.186035-3.161133-0.186035
			c-3.53418,0-7.75,1.302002-7.75,7.377441V44.699463z"/>
		<path style="fill:#032044;" d="M391.337891,34.531982h8.741211c0.496094,2.97583,3.038086,4.401855,6.509766,4.401855
			c2.728516,0,5.145508-0.991943,5.145508-3.223877c0-1.983887-1.797852-2.851807-5.827148-3.533691l-3.347656-0.620117
			c-6.572266-1.177979-10.664062-4.091797-10.664062-9.237305c0-6.571777,6.076172-10.601562,13.825195-10.601562
			c7.37793,0,13.454102,3.719971,14.321289,10.291504h-8.617188c-0.620117-2.417969-2.727539-3.781738-5.889648-3.781738
			c-2.727539,0-4.773438,1.239746-4.773438,3.161865c0,1.797852,1.611328,2.479736,5.083008,3.099609l3.286133,0.558105
			c7.31543,1.301758,11.655273,4.153809,11.655273,9.733398c0,7.067627-6.695312,10.66333-14.382812,10.66333
			C398.529297,45.443359,392.267578,42.033691,391.337891,34.531982z"/>
		<path style="fill:#032044;" d="M424.663086,0.062012h9.485352v7.811523h-9.485352V0.062012z M424.663086,12.585205h9.422852
			v32.114258h-9.422852V12.585205z"/>
		<path style="fill:#032044;" d="M449.120117,44.699463h-9.422852V12.585205h9.113281v3.905762
			c2.045898-2.97583,5.579102-4.649658,9.733398-4.649658c7.005859,0,11.716797,4.21582,11.716797,12.833252v20.024902h-9.422852
			V26.348389c0-4.091553-2.108398-6.44751-5.641602-6.44751c-3.286133,0-6.076172,2.417969-6.076172,7.6875V44.699463z"/>
		<path style="fill:#032044;" d="M490.870117,57.160645c-9.298828,0-15.00293-4.277588-16.056641-11.097168h9.174805
			c0.682617,2.789795,3.100586,4.3396,6.944336,4.3396c3.967773,0,6.571289-1.983887,6.571289-6.44751v-4.649902
			c-1.860352,2.852051-5.083984,4.525879-9.423828,4.525879c-7.749023,0-14.197266-5.765625-14.197266-16.119141
			c0-10.043457,6.696289-15.871094,14.321289-15.871094c4.463867,0,7.625977,1.797852,9.485352,4.959717v-4.21582h9.175781
			v30.750244C506.865234,52.883057,499.797852,57.160645,490.870117,57.160645z M497.56543,27.712402
			c0-5.331787-3.099609-8.493408-7.004883-8.493408c-4.030273,0-7.005859,3.285645-7.005859,8.493408
			c0,5.517822,2.975586,8.741455,7.005859,8.741455C494.52832,36.453857,497.56543,33.168213,497.56543,27.712402z"/>
	</g>
</g>
<g>
</g>
<g>
</g>
<g>
</g>
<g>
</g>
<g>
</g>
<g>
</g>
<g>
</g>
<g>
</g>
<g>
</g>
<g>
</g>
<g>
</g>
<g>
</g>
<g>
</g>
<g>
</g>
<g>
</g>
</svg>
