<?xml version="1.0" encoding="iso-8859-1"?>
<!-- Generator: Adobe Illustrator 30.2.1, SVG Export Plug-In . SVG Version: 9.03 Build 0)  -->
<svg version="1.1" id="Layer_1" xmlns="http://www.w3.org/2000/svg" xmlns:xlink="http://www.w3.org/1999/xlink" x="0px" y="0px"
	 viewBox="0 0 293.71875 124.098633" style="enable-background:new 0 0 293.71875 124.098633;" xml:space="preserve">
<g>
	<g>
		<path style="fill:#032044;" d="M0,30.936035h9.857422c0.620117,4.649902,4.21582,6.819336,8.927734,6.819336
			c4.338867,0,7.625-1.797852,7.625-5.083496c0-2.852051-2.666016-4.277832-7.439453-5.269531l-4.339844-0.930176
			C5.393555,24.550293,1.053711,20.396484,1.053711,13.763184c0-7.935547,7.625977-13.453613,16.924805-13.453613
			c9.485352,0,16.677734,4.897949,17.544922,13.515625h-9.794922c-0.558594-3.720215-3.53418-5.889648-7.811523-5.889648
			c-3.967773,0-7.067383,2.04541-7.067383,4.959473c0,2.604004,1.921875,3.719727,6.260742,4.587891l4.835938,1.053711
			c8.742188,1.73584,14.383789,5.641602,14.383789,13.205566c0,8.927246-8.370117,13.63916-17.607422,13.63916
			C8.679688,45.381348,0.868164,40.793457,0,30.936035z"/>
		<path style="fill:#032044;" d="M38.693359,28.394043c0-10.043457,7.811523-16.676758,17.048828-16.676758
			c8.369141,0,14.941406,4.959473,15.932617,12.646973h-9.298828c-0.744141-3.037598-3.410156-4.959473-6.633789-4.959473
			c-4.339844,0-7.37793,3.657715-7.37793,8.989258c0,5.517578,3.100586,9.299316,7.37793,9.299316
			c3.162109,0,5.704102-1.797852,6.571289-5.021484h9.361328c-1.239258,7.935547-7.873047,12.709473-15.994141,12.709473
			C46.256836,45.381348,38.693359,38.747559,38.693359,28.394043z"/>
		<path style="fill:#032044;" d="M84.776367,44.637207h-9.422852V0h9.422852v13.577148c0,0.867676,0,1.673828,0,2.41748
			c2.045898-2.665527,5.456055-4.215332,9.423828-4.215332c7.005859,0,11.717773,4.215332,11.717773,12.833008v20.024902h-9.423828
			V26.286133c0-4.091797-2.107422-6.447266-5.641602-6.447266c-3.286133,0-6.076172,2.41748-6.076172,7.6875V44.637207z"/>
		<path style="fill:#032044;" d="M109.421875,28.394043c0-10.229492,7.874023-16.676758,17.420898-16.676758
			c9.609375,0,17.421875,6.385254,17.421875,16.676758c0,10.353516-7.75,16.987305-17.421875,16.987305
			C117.109375,45.381348,109.421875,38.80957,109.421875,28.394043z M134.592773,28.394043
			c0-5.393555-3.162109-8.989258-7.75-8.989258c-4.649414,0-7.749023,3.595703-7.749023,8.989258
			c0,5.641602,3.162109,9.299316,7.749023,9.299316C131.493164,37.693359,134.592773,34.097656,134.592773,28.394043z"/>
		<path style="fill:#032044;" d="M146.25,28.394043c0-10.229492,7.873047-16.676758,17.420898-16.676758
			c9.609375,0,17.420898,6.385254,17.420898,16.676758c0,10.353516-7.75,16.987305-17.420898,16.987305
			C153.9375,45.381348,146.25,38.80957,146.25,28.394043z M171.419922,28.394043c0-5.393555-3.161133-8.989258-7.749023-8.989258
			c-4.649414,0-7.75,3.595703-7.75,8.989258c0,5.641602,3.162109,9.299316,7.75,9.299316
			C168.320312,37.693359,171.419922,34.097656,171.419922,28.394043z"/>
		<path style="fill:#032044;" d="M184.999023,0h9.423828v44.637207h-9.423828V0z"/>
		<path style="fill:#032044;" d="M0.061523,95.394043c0-10.229492,7.874023-16.676758,17.420898-16.676758
			c9.609375,0,17.421875,6.385254,17.421875,16.676758c0,10.353516-7.75,16.987305-17.421875,16.987305
			C7.749023,112.381348,0.061523,105.80957,0.061523,95.394043z M25.232422,95.394043c0-5.393555-3.162109-8.989258-7.75-8.989258
			c-4.649414,0-7.749023,3.595703-7.749023,8.989258c0,5.641602,3.162109,9.299316,7.749023,9.299316
			C22.132812,104.693359,25.232422,101.097656,25.232422,95.394043z"/>
		<path style="fill:#032044;" d="M49.915039,86.404785v25.232422h-9.175781V86.404785h-5.331055v-6.881836h5.331055v-3.409668
			c0-7.067871,4.030273-9.175293,10.105469-9.175293c2.417969,0,3.967773,0,6.137695,0.062012v6.943359
			c-1.301758-0.062012-2.541992-0.062012-3.905273-0.062012c-1.860352,0-3.162109,0.496094-3.162109,3.099609v2.541992h7.067383
			v6.881836H49.915039z"/>
		<path style="fill:#032044;" d="M85.068359,81.630859v30.006348h-9.670898V68.239746h11.964844l17.792969,30.068359V68.239746
			h9.609375v43.397461h-11.90332L85.068359,81.630859z"/>
		<path style="fill:#032044;" d="M142.020508,107.855469c-2.107422,2.975586-5.456055,4.525879-9.423828,4.525879
			c-6.819336,0-11.716797-4.21582-11.716797-12.709473V79.522949h9.423828v18.413086c0,4.153809,2.168945,6.32373,5.579102,6.32373
			c3.038086,0,5.828125-2.169922,5.828125-7.315918V79.522949h9.422852v32.114258h-9.113281V107.855469z"/>
		<path style="fill:#032044;" d="M166.206055,111.637207h-9.422852V79.522949h9.113281v4.773926
			c0.557617-0.992188,1.301758-1.921875,2.231445-2.728027c1.860352-1.487793,3.658203-2.293945,6.696289-2.293945
			c0.805664,0,1.735352,0.062012,2.293945,0.186035v8.679688c-1.488281-0.186035-2.232422-0.186035-3.162109-0.186035
			c-3.53418,0-7.75,1.301758-7.75,7.377441V111.637207z"/>
		<path style="fill:#032044;" d="M178.191406,101.469727h8.741211c0.496094,2.976074,3.038086,4.401855,6.509766,4.401855
			c2.727539,0,5.145508-0.992188,5.145508-3.223633c0-1.983887-1.797852-2.852051-5.827148-3.53418l-3.348633-0.619629
			c-6.571289-1.178223-10.663086-4.091797-10.663086-9.237793c0-6.571289,6.076172-10.601074,13.825195-10.601074
			c7.37793,0,13.453125,3.719727,14.321289,10.291016h-8.617188c-0.620117-2.41748-2.728516-3.781738-5.889648-3.781738
			c-2.728516,0-4.774414,1.240234-4.774414,3.162109c0,1.797852,1.612305,2.47998,5.083984,3.099609l3.286133,0.558105
			c7.31543,1.301758,11.655273,4.153809,11.655273,9.733398c0,7.067383-6.695312,10.663574-14.382812,10.663574
			C185.382812,112.381348,179.121094,108.971191,178.191406,101.469727z"/>
		<path style="fill:#032044;" d="M211.515625,67h9.485352v7.811523h-9.485352V67z M211.515625,79.522949h9.422852v32.114258
			h-9.422852V79.522949z"/>
		<path style="fill:#032044;" d="M235.973633,111.637207h-9.423828V79.522949h9.114258v3.905762
			c2.044922-2.975586,5.579102-4.649414,9.733398-4.649414c7.004883,0,11.716797,4.215332,11.716797,12.833008v20.024902h-9.423828
			V93.286133c0-4.091797-2.107422-6.447266-5.641602-6.447266c-3.285156,0-6.075195,2.41748-6.075195,7.6875V111.637207z"/>
		<path style="fill:#032044;" d="M277.723633,124.098633c-9.299805,0-15.00293-4.277832-16.057617-11.097656h9.175781
			c0.682617,2.790039,3.099609,4.339844,6.943359,4.339844c3.967773,0,6.572266-1.983887,6.572266-6.447754v-4.649414
			c-1.860352,2.851562-5.083984,4.525391-9.423828,4.525391c-7.749023,0-14.197266-5.765625-14.197266-16.118652
			c0-10.043457,6.696289-15.871094,14.321289-15.871094c4.463867,0,7.625977,1.797852,9.485352,4.959473v-4.21582h9.175781
			v30.750488C293.71875,119.820801,286.651367,124.098633,277.723633,124.098633z M284.418945,94.650391
			c0-5.332031-3.099609-8.493652-7.004883-8.493652c-4.030273,0-7.005859,3.285645-7.005859,8.493652
			c0,5.517578,2.975586,8.741211,7.005859,8.741211C281.381836,103.391602,284.418945,100.105957,284.418945,94.650391z"/>
	</g>
</g>
<g>
</g>
<g>
</g>
<g>
</g>
<g>
</g>
<g>
</g>
<g>
</g>
<g>
</g>
<g>
</g>
<g>
</g>
<g>
</g>
<g>
</g>
<g>
</g>
<g>
</g>
<g>
</g>
<g>
</g>
</svg>
