<?xml version="1.0" encoding="iso-8859-1"?>
<!-- Generator: Adobe Illustrator 30.2.1, SVG Export Plug-In . SVG Version: 9.03 Build 0)  -->
<svg version="1.1" id="Layer_1" xmlns="http://www.w3.org/2000/svg" xmlns:xlink="http://www.w3.org/1999/xlink" x="0px" y="0px"
	 viewBox="0 0 570.498 69.316" style="enable-background:new 0 0 570.498 69.316;" xml:space="preserve">
<g id="UnitName_00000083051636230227074460000000021105607283046073_">
	<g>
		<path style="fill:#032044;" d="M2.108,30.815c0-14.197,10.664-22.443,21.823-22.443c10.54,0,18.847,6.261,20.149,15.747H33.974
			c-1.178-4.34-4.898-7.13-10.105-7.13c-6.324,0-11.345,5.332-11.345,13.825c0,8.494,5.083,14.011,11.407,14.011
			c5.083,0,8.68-2.666,10.105-7.13h10.105c-1.55,9.548-9.733,15.747-20.273,15.747C12.399,53.443,2.108,45.074,2.108,30.815z"/>
		<path style="fill:#032044;" d="M46.214,36.456c0-10.229,7.874-16.677,17.421-16.677c9.609,0,17.421,6.386,17.421,16.677
			c0,10.354-7.75,16.987-17.421,16.987C53.902,53.443,46.214,46.872,46.214,36.456z M71.385,36.456c0-5.394-3.162-8.99-7.75-8.99
			c-4.649,0-7.75,3.596-7.75,8.99c0,5.642,3.162,9.3,7.75,9.3C68.285,45.756,71.385,42.16,71.385,36.456z"/>
		<path style="fill:#032044;" d="M84.964,8.062h9.423v44.637h-9.423V8.062z"/>
		<path style="fill:#032044;" d="M99.986,8.062h9.423v44.637h-9.423V8.062z"/>
		<path style="fill:#032044;" d="M130.353,53.443c-9.299,0-17.111-6.385-17.111-16.987c0-10.291,8.06-16.677,16.925-16.677
			c9.113,0,16.615,6.076,16.615,17.359v1.922h-24.117c0.496,4.65,3.782,7.439,7.998,7.439c2.728,0,5.456-0.93,6.758-3.472h9.051
			C144.488,50.219,137.42,53.443,130.353,53.443z M122.603,33.109h14.693c-0.31-3.906-3.224-6.448-7.253-6.448
			C126.199,26.661,123.099,29.017,122.603,33.109z"/>
		<path style="fill:#032044;" d="M165.896,65.161c-9.299,0-15.003-4.278-16.057-11.097h9.176c0.682,2.79,3.1,4.34,6.943,4.34
			c3.968,0,6.572-1.984,6.572-6.448v-4.65c-1.86,2.852-5.083,4.526-9.423,4.526c-7.75,0-14.197-5.766-14.197-16.119
			c0-10.043,6.696-15.871,14.321-15.871c4.463,0,7.625,1.798,9.485,4.96v-4.216h9.175v30.75
			C181.892,60.883,174.824,65.161,165.896,65.161z M172.592,35.712c0-5.332-3.1-8.493-7.005-8.493c-4.03,0-7.006,3.286-7.006,8.493
			c0,5.518,2.976,8.741,7.006,8.741C169.555,44.454,172.592,41.168,172.592,35.712z"/>
		<path style="fill:#032044;" d="M202.83,53.443c-9.299,0-17.111-6.385-17.111-16.987c0-10.291,8.06-16.677,16.925-16.677
			c9.113,0,16.615,6.076,16.615,17.359v1.922h-24.117c0.496,4.65,3.782,7.439,7.998,7.439c2.728,0,5.456-0.93,6.758-3.472h9.051
			C216.965,50.219,209.897,53.443,202.83,53.443z M195.08,33.109h14.693c-0.31-3.906-3.224-6.448-7.253-6.448
			C198.676,26.661,195.576,29.017,195.08,33.109z"/>
		<path style="fill:#032044;" d="M236.124,36.456c0-10.229,7.874-16.677,17.421-16.677c9.609,0,17.421,6.386,17.421,16.677
			c0,10.354-7.75,16.987-17.421,16.987C243.812,53.443,236.124,46.872,236.124,36.456z M261.294,36.456
			c0-5.394-3.162-8.99-7.75-8.99c-4.649,0-7.75,3.596-7.75,8.99c0,5.642,3.162,9.3,7.75,9.3
			C258.195,45.756,261.294,42.16,261.294,36.456z"/>
		<path style="fill:#032044;" d="M285.977,27.467v25.233h-9.175V27.467h-5.332v-6.882h5.332v-3.41c0-7.068,4.03-9.176,10.105-9.176
			c2.418,0,3.968,0,6.138,0.062v6.944c-1.302-0.062-2.542-0.062-3.906-0.062c-1.86,0-3.162,0.496-3.162,3.1v2.542h7.068v6.882
			H285.977z"/>
		<path style="fill:#032044;" d="M308.979,38.998h9.857c0.62,4.65,4.216,6.82,8.928,6.82c4.339,0,7.625-1.798,7.625-5.084
			c0-2.852-2.666-4.278-7.439-5.27l-4.34-0.93c-9.238-1.922-13.577-6.076-13.577-12.709c0-7.936,7.625-13.453,16.925-13.453
			c9.486,0,16.677,4.898,17.545,13.515h-9.796c-0.558-3.72-3.534-5.89-7.812-5.89c-3.968,0-7.067,2.046-7.067,4.96
			c0,2.604,1.922,3.72,6.261,4.588l4.836,1.054c8.742,1.736,14.383,5.642,14.383,13.205c0,8.927-8.37,13.639-17.607,13.639
			C317.659,53.443,309.848,48.856,308.979,38.998z"/>
		<path style="fill:#032044;" d="M347.674,36.456c0-10.043,7.812-16.677,17.049-16.677c8.369,0,14.94,4.96,15.933,12.647h-9.299
			c-0.744-3.038-3.41-4.96-6.634-4.96c-4.34,0-7.378,3.658-7.378,8.99c0,5.518,3.1,9.3,7.378,9.3c3.161,0,5.703-1.798,6.571-5.022
			h9.361c-1.239,7.936-7.873,12.709-15.995,12.709C355.237,53.443,347.674,46.81,347.674,36.456z"/>
		<path style="fill:#032044;" d="M384.334,8.062h9.485v7.812h-9.485V8.062z M384.334,20.585h9.423v32.114h-9.423V20.585z"/>
		<path style="fill:#032044;" d="M414.538,53.443c-9.299,0-17.11-6.385-17.11-16.987c0-10.291,8.059-16.677,16.925-16.677
			c9.113,0,16.615,6.076,16.615,17.359v1.922h-24.117c0.496,4.65,3.782,7.439,7.998,7.439c2.728,0,5.455-0.93,6.757-3.472h9.052
			C428.674,50.219,421.605,53.443,414.538,53.443z M406.789,33.109h14.692c-0.31-3.906-3.224-6.448-7.253-6.448
			C410.385,26.661,407.285,29.017,406.789,33.109z"/>
		<path style="fill:#032044;" d="M444.36,52.699h-9.423V20.585h9.113v3.906c2.046-2.976,5.579-4.65,9.733-4.65
			c7.006,0,11.717,4.216,11.717,12.833v20.025h-9.423V34.348c0-4.092-2.108-6.448-5.642-6.448c-3.286,0-6.076,2.418-6.076,7.688
			V52.699z"/>
		<path style="fill:#032044;" d="M469.006,36.456c0-10.043,7.812-16.677,17.049-16.677c8.369,0,14.94,4.96,15.933,12.647h-9.299
			c-0.744-3.038-3.41-4.96-6.634-4.96c-4.34,0-7.378,3.658-7.378,8.99c0,5.518,3.1,9.3,7.378,9.3c3.161,0,5.703-1.798,6.571-5.022
			h9.361c-1.239,7.936-7.873,12.709-15.995,12.709C476.569,53.443,469.006,46.81,469.006,36.456z"/>
		<path style="fill:#032044;" d="M520.836,53.443c-9.299,0-17.11-6.385-17.11-16.987c0-10.291,8.06-16.677,16.925-16.677
			c9.113,0,16.615,6.076,16.615,17.359v1.922h-24.117c0.496,4.65,3.782,7.439,7.998,7.439c2.728,0,5.455-0.93,6.757-3.472h9.052
			C534.972,50.219,527.903,53.443,520.836,53.443z M513.087,33.109h14.692c-0.31-3.906-3.224-6.448-7.253-6.448
			C516.683,26.661,513.583,29.017,513.087,33.109z"/>
		<path style="fill:#032044;" d="M539.251,42.532h8.741c0.496,2.976,3.038,4.402,6.51,4.402c2.729,0,5.146-0.992,5.146-3.224
			c0-1.984-1.798-2.852-5.827-3.534l-3.348-0.62c-6.572-1.178-10.664-4.092-10.664-9.237c0-6.572,6.076-10.602,13.825-10.602
			c7.378,0,13.454,3.72,14.321,10.292h-8.617c-0.62-2.418-2.728-3.782-5.89-3.782c-2.728,0-4.773,1.24-4.773,3.162
			c0,1.798,1.611,2.48,5.083,3.1l3.286,0.558c7.315,1.302,11.655,4.154,11.655,9.733c0,7.068-6.695,10.663-14.383,10.663
			C546.442,53.443,540.181,50.034,539.251,42.532z"/>
	</g>
</g>
<g>
</g>
<g>
</g>
<g>
</g>
<g>
</g>
<g>
</g>
<g>
</g>
<g>
</g>
<g>
</g>
<g>
</g>
<g>
</g>
<g>
</g>
<g>
</g>
<g>
</g>
<g>
</g>
<g>
</g>
</svg>
