<?xml version="1.0" encoding="iso-8859-1"?>
<!-- Generator: Adobe Illustrator 30.2.1, SVG Export Plug-In . SVG Version: 9.03 Build 0)  -->
<svg version="1.1" id="Layer_1" xmlns="http://www.w3.org/2000/svg" xmlns:xlink="http://www.w3.org/1999/xlink" x="0px" y="0px"
	 viewBox="0 0 606.784 69.316" style="enable-background:new 0 0 606.784 69.316;" xml:space="preserve">
<g id="UnitName_00000083051636230227074460000000021105607283046073_">
	<g>
		<path style="fill:#032044;" d="M14.693,17.733H1.364V9.302h36.764v8.431H24.799v34.966H14.693V17.733z"/>
		<path style="fill:#032044;" d="M50.268,52.699h-9.423V8.062h9.423v13.577c0,0.868,0,1.674,0,2.418
			c2.046-2.666,5.456-4.216,9.424-4.216c7.005,0,11.717,4.216,11.717,12.833v20.025h-9.424V34.348c0-4.092-2.107-6.448-5.642-6.448
			c-3.286,0-6.076,2.418-6.076,7.688V52.699z"/>
		<path style="fill:#032044;" d="M92.024,53.443c-9.299,0-17.111-6.385-17.111-16.987c0-10.291,8.06-16.677,16.925-16.677
			c9.113,0,16.615,6.076,16.615,17.359v1.922H84.337c0.496,4.65,3.782,7.439,7.998,7.439c2.728,0,5.456-0.93,6.758-3.472h9.051
			C106.16,50.219,99.092,53.443,92.024,53.443z M84.275,33.109h14.693c-0.31-3.906-3.224-6.448-7.253-6.448
			C87.871,26.661,84.771,29.017,84.275,33.109z"/>
		<path style="fill:#032044;" d="M148.505,29.017h19.839v23.683h-8.431l-0.062-4.96c-2.728,3.224-7.44,5.642-13.33,5.642
			c-11.035,0-20.955-8.555-20.955-22.567c0-14.135,10.354-22.443,22.691-22.443c10.167,0,18.537,5.518,20.024,14.445h-9.981
			c-1.116-3.72-4.897-6.138-10.043-6.138c-7.378,0-12.399,5.332-12.399,14.135c0,8.99,5.146,14.321,12.275,14.321
			c5.456,0,10.167-3.534,10.849-8.432v-0.062h-10.478V29.017z"/>
		<path style="fill:#032044;" d="M183.821,52.699h-9.423V20.585h9.113v4.774c0.558-0.992,1.302-1.922,2.232-2.728
			c1.86-1.488,3.658-2.294,6.696-2.294c0.806,0,1.736,0.062,2.294,0.186v8.68c-1.488-0.186-2.232-0.186-3.162-0.186
			c-3.534,0-7.75,1.302-7.75,7.377V52.699z"/>
		<path style="fill:#032044;" d="M217.522,49.042c-2.108,2.604-5.394,4.34-10.043,4.34c-6.076,0-11.903-3.472-11.903-10.043
			c0-6.696,5.394-9.051,13.887-10.415l7.377-1.178v-0.434c0-3.472-1.922-4.836-5.27-4.836c-3.41,0-5.518,1.612-6.076,4.588h-8.804
			c1.054-7.006,7.192-11.283,15.313-11.283c8.679,0,14.135,3.41,14.073,12.461l-0.062,13.639c0,1.054,0.062,2.914,0.248,6.82h-8.617
			L217.522,49.042z M209.897,46.686c3.782,0,6.943-2.232,6.943-6.696v-2.17c-8.494,1.054-12.151,1.984-12.151,5.084
			C204.689,45.384,206.921,46.686,209.897,46.686z"/>
		<path style="fill:#032044;" d="M254.195,48.174c-1.922,3.348-5.208,5.208-9.671,5.208c-7.998,0-14.879-5.828-14.879-16.987
			c0-10.725,7.129-16.553,15.003-16.553c4.154,0,7.316,1.55,9.238,4.34V8.062h9.423v44.637h-9.113V48.174z M254.071,36.394
			c0-5.704-3.162-8.989-7.378-8.989c-4.277,0-7.377,3.286-7.377,8.989c0,5.952,3.1,9.424,7.377,9.424
			C250.785,45.818,254.071,42.408,254.071,36.394z"/>
		<path style="fill:#032044;" d="M289.875,48.918c-2.108,2.976-5.456,4.526-9.424,4.526c-6.819,0-11.717-4.216-11.717-12.709V20.585
			h9.424v18.413c0,4.154,2.169,6.323,5.58,6.323c3.038,0,5.828-2.17,5.828-7.315V20.585h9.423v32.114h-9.113V48.918z"/>
		<path style="fill:#032044;" d="M324.874,49.042c-2.108,2.604-5.394,4.34-10.043,4.34c-6.076,0-11.903-3.472-11.903-10.043
			c0-6.696,5.394-9.051,13.887-10.415l7.377-1.178v-0.434c0-3.472-1.922-4.836-5.27-4.836c-3.41,0-5.518,1.612-6.076,4.588h-8.804
			c1.054-7.006,7.192-11.283,15.313-11.283c8.679,0,14.135,3.41,14.073,12.461l-0.062,13.639c0,1.054,0.062,2.914,0.248,6.82h-8.617
			L324.874,49.042z M317.248,46.686c3.782,0,6.943-2.232,6.943-6.696v-2.17c-8.494,1.054-12.151,1.984-12.151,5.084
			C312.04,45.384,314.272,46.686,317.248,46.686z"/>
		<path style="fill:#032044;" d="M340.591,43.958V27.467h-5.208v-6.882h5.208v-7.998h9.237v7.998h7.13v6.882h-7.13v14.321
			c0,3.224,0.992,3.844,3.534,3.844h3.596v7.006c-2.17,0.124-3.968,0.124-7.006,0.124C344.062,52.761,340.591,51.026,340.591,43.958
			z"/>
		<path style="fill:#032044;" d="M375.284,53.443c-9.299,0-17.11-6.385-17.11-16.987c0-10.291,8.059-16.677,16.925-16.677
			c9.113,0,16.615,6.076,16.615,17.359v1.922h-24.117c0.496,4.65,3.782,7.439,7.998,7.439c2.728,0,5.455-0.93,6.757-3.472h9.052
			C389.42,50.219,382.352,53.443,375.284,53.443z M367.535,33.109h14.692c-0.31-3.906-3.224-6.448-7.253-6.448
			C371.131,26.661,368.031,29.017,367.535,33.109z"/>
		<path style="fill:#032044;" d="M408.517,38.998h9.857c0.62,4.65,4.216,6.82,8.928,6.82c4.34,0,7.625-1.798,7.625-5.084
			c0-2.852-2.665-4.278-7.439-5.27l-4.34-0.93c-9.237-1.922-13.577-6.076-13.577-12.709c0-7.936,7.626-13.453,16.926-13.453
			c9.485,0,16.677,4.898,17.545,13.515h-9.796c-0.558-3.72-3.534-5.89-7.812-5.89c-3.968,0-7.067,2.046-7.067,4.96
			c0,2.604,1.922,3.72,6.262,4.588l4.836,1.054c8.741,1.736,14.383,5.642,14.383,13.205c0,8.927-8.37,13.639-17.607,13.639
			C417.196,53.443,409.385,48.856,408.517,38.998z"/>
		<path style="fill:#032044;" d="M447.211,36.456c0-10.043,7.812-16.677,17.049-16.677c8.369,0,14.94,4.96,15.933,12.647h-9.299
			c-0.744-3.038-3.41-4.96-6.634-4.96c-4.34,0-7.378,3.658-7.378,8.99c0,5.518,3.1,9.3,7.378,9.3c3.161,0,5.703-1.798,6.571-5.022
			h9.361c-1.239,7.936-7.873,12.709-15.995,12.709C454.774,53.443,447.211,46.81,447.211,36.456z"/>
		<path style="fill:#032044;" d="M493.294,52.699h-9.423V8.062h9.423v13.577c0,0.868,0,1.674,0,2.418
			c2.046-2.666,5.456-4.216,9.424-4.216c7.006,0,11.717,4.216,11.717,12.833v20.025h-9.423V34.348c0-4.092-2.108-6.448-5.642-6.448
			c-3.286,0-6.076,2.418-6.076,7.688V52.699z"/>
		<path style="fill:#032044;" d="M517.939,36.456c0-10.229,7.873-16.677,17.421-16.677c9.609,0,17.421,6.386,17.421,16.677
			c0,10.354-7.75,16.987-17.421,16.987C525.627,53.443,517.939,46.872,517.939,36.456z M543.109,36.456
			c0-5.394-3.162-8.99-7.749-8.99c-4.65,0-7.75,3.596-7.75,8.99c0,5.642,3.162,9.3,7.75,9.3
			C540.01,45.756,543.109,42.16,543.109,36.456z"/>
		<path style="fill:#032044;" d="M554.768,36.456c0-10.229,7.873-16.677,17.421-16.677c9.609,0,17.421,6.386,17.421,16.677
			c0,10.354-7.75,16.987-17.421,16.987C562.455,53.443,554.768,46.872,554.768,36.456z M579.938,36.456
			c0-5.394-3.162-8.99-7.749-8.99c-4.65,0-7.75,3.596-7.75,8.99c0,5.642,3.162,9.3,7.75,9.3
			C576.838,45.756,579.938,42.16,579.938,36.456z"/>
		<path style="fill:#032044;" d="M593.517,8.062h9.423v44.637h-9.423V8.062z"/>
	</g>
</g>
<g>
</g>
<g>
</g>
<g>
</g>
<g>
</g>
<g>
</g>
<g>
</g>
<g>
</g>
<g>
</g>
<g>
</g>
<g>
</g>
<g>
</g>
<g>
</g>
<g>
</g>
<g>
</g>
<g>
</g>
</svg>
