<?xml version="1.0" encoding="iso-8859-1"?>
<!-- Generator: Adobe Illustrator 30.2.1, SVG Export Plug-In . SVG Version: 9.03 Build 0)  -->
<svg version="1.1" id="Layer_1" xmlns="http://www.w3.org/2000/svg" xmlns:xlink="http://www.w3.org/1999/xlink" x="0px" y="0px"
	 viewBox="0 0 390.350586 112.381348" style="enable-background:new 0 0 390.350586 112.381348;" xml:space="preserve">
<g>
	<g>
		<path style="fill:#032044;" d="M13.330078,9.671387H0V1.239746h36.764648v8.431641H23.435547v34.96582H13.330078V9.671387z"/>
		<path style="fill:#032044;" d="M48.904297,44.637207h-9.422852V0h9.422852v13.577148c0,0.867676,0,1.673828,0,2.41748
			c2.045898-2.665527,5.456055-4.215332,9.423828-4.215332c7.005859,0,11.717773,4.215332,11.717773,12.833008v20.024902H60.62207
			V26.286133c0-4.091797-2.107422-6.447266-5.641602-6.447266c-3.286133,0-6.076172,2.41748-6.076172,7.6875V44.637207z"/>
		<path style="fill:#032044;" d="M90.661133,45.381348c-9.299805,0-17.111328-6.385742-17.111328-16.987305
			c0-10.291504,8.05957-16.676758,16.925781-16.676758c9.113281,0,16.614258,6.075684,16.614258,17.358887v1.921875H82.973633
			c0.496094,4.649902,3.78125,7.439453,7.99707,7.439453c2.728516,0,5.456055-0.929688,6.757812-3.47168h9.051758
			C104.795898,42.157227,97.728516,45.381348,90.661133,45.381348z M82.911133,25.046387h14.693359
			c-0.30957-3.905762-3.223633-6.447754-7.25293-6.447754C86.507812,18.598633,83.407227,20.95459,82.911133,25.046387z"/>
		<path style="fill:#032044;" d="M147.141602,20.95459h19.838867v23.682617h-8.430664l-0.0625-4.959473
			c-2.727539,3.223633-7.439453,5.641602-13.329102,5.641602c-11.035156,0-20.955078-8.555664-20.955078-22.566895
			c0-14.135254,10.353516-22.442871,22.691406-22.442871c10.166992,0,18.536133,5.518066,20.024414,14.445312H156.9375
			c-1.116211-3.719727-4.897461-6.137695-10.042969-6.137695c-7.37793,0-12.399414,5.331543-12.399414,14.135254
			c0,8.989746,5.145508,14.321289,12.275391,14.321289c5.455078,0,10.166992-3.533691,10.848633-8.431641v-0.062012h-10.477539
			V20.95459z"/>
		<path style="fill:#032044;" d="M182.457031,44.637207h-9.422852V12.522949h9.113281v4.773926
			c0.557617-0.992188,1.301758-1.921875,2.231445-2.728027c1.860352-1.487793,3.658203-2.293945,6.696289-2.293945
			c0.805664,0,1.735352,0.062012,2.293945,0.186035v8.679688c-1.488281-0.186035-2.232422-0.186035-3.162109-0.186035
			c-3.53418,0-7.75,1.301758-7.75,7.377441V44.637207z"/>
		<path style="fill:#032044;" d="M216.15918,40.979492c-2.108398,2.604004-5.393555,4.339844-10.043945,4.339844
			c-6.075195,0-11.90332-3.472168-11.90332-10.043457c0-6.695801,5.393555-9.051758,13.887695-10.415527l7.376953-1.177734
			v-0.434082c0-3.47168-1.921875-4.835938-5.269531-4.835938c-3.40918,0-5.517578,1.611816-6.075195,4.587891h-8.803711
			c1.053711-7.005859,7.191406-11.283203,15.313477-11.283203c8.678711,0,14.134766,3.409668,14.073242,12.460938l-0.0625,13.63916
			c0,1.054199,0.0625,2.914062,0.248047,6.819824h-8.617188L216.15918,40.979492z M208.533203,38.623535
			c3.782227,0,6.943359-2.231934,6.943359-6.695801v-2.169922c-8.493164,1.054199-12.151367,1.984375-12.151367,5.083984
			C203.325195,37.321777,205.557617,38.623535,208.533203,38.623535z"/>
		<path style="fill:#032044;" d="M252.831055,40.111328c-1.921875,3.348145-5.208008,5.208008-9.670898,5.208008
			c-7.998047,0-14.879883-5.827637-14.879883-16.987305c0-10.725098,7.129883-16.552734,15.00293-16.552734
			c4.154297,0,7.316406,1.549805,9.238281,4.339355V0h9.422852v44.637207h-9.113281V40.111328z M252.707031,28.332031
			c0-5.703613-3.162109-8.989258-7.37793-8.989258c-4.277344,0-7.376953,3.285645-7.376953,8.989258
			c0,5.95166,3.099609,9.42334,7.376953,9.42334C249.420898,37.755371,252.707031,34.345703,252.707031,28.332031z"/>
		<path style="fill:#032044;" d="M288.511719,40.855469c-2.107422,2.975586-5.456055,4.525879-9.423828,4.525879
			c-6.819336,0-11.716797-4.21582-11.716797-12.709473V12.522949h9.423828v18.413086c0,4.153809,2.168945,6.32373,5.579102,6.32373
			c3.038086,0,5.828125-2.169922,5.828125-7.315918V12.522949H297.625v32.114258h-9.113281V40.855469z"/>
		<path style="fill:#032044;" d="M323.509766,40.979492c-2.107422,2.604004-5.393555,4.339844-10.042969,4.339844
			c-6.076172,0-11.90332-3.472168-11.90332-10.043457c0-6.695801,5.393555-9.051758,13.886719-10.415527l7.37793-1.177734v-0.434082
			c0-3.47168-1.921875-4.835938-5.269531-4.835938c-3.410156,0-5.517578,1.611816-6.076172,4.587891h-8.803711
			c1.054688-7.005859,7.192383-11.283203,15.313477-11.283203c8.679688,0,14.135742,3.409668,14.073242,12.460938
			l-0.061523,13.63916c0,1.054199,0.061523,2.914062,0.24707,6.819824h-8.617188L323.509766,40.979492z M315.884766,38.623535
			c3.78125,0,6.943359-2.231934,6.943359-6.695801v-2.169922c-8.494141,1.054199-12.151367,1.984375-12.151367,5.083984
			C310.676758,37.321777,312.908203,38.623535,315.884766,38.623535z"/>
		<path style="fill:#032044;" d="M339.227539,35.895508V19.404785h-5.208008v-6.881836h5.208008V4.525391h9.237305v7.997559
			h7.129883v6.881836h-7.129883v14.320801c0,3.224121,0.992188,3.844238,3.53418,3.844238h3.595703v7.005371
			c-2.169922,0.124023-3.967773,0.124023-7.005859,0.124023C342.699219,44.699219,339.227539,42.963379,339.227539,35.895508z"/>
		<path style="fill:#032044;" d="M373.920898,45.381348c-9.298828,0-17.110352-6.385742-17.110352-16.987305
			c0-10.291504,8.058594-16.676758,16.924805-16.676758c9.113281,0,16.615234,6.075684,16.615234,17.358887v1.921875h-24.117188
			c0.496094,4.649902,3.782227,7.439453,7.998047,7.439453c2.727539,0,5.455078-0.929688,6.756836-3.47168h9.051758
			C388.056641,42.157227,380.988281,45.381348,373.920898,45.381348z M366.171875,25.046387h14.692383
			c-0.30957-3.905762-3.223633-6.447754-7.25293-6.447754C369.767578,18.598633,366.667969,20.95459,366.171875,25.046387z"/>
		<path style="fill:#032044;" d="M0.43457,97.936035h9.857422c0.620117,4.649902,4.21582,6.819336,8.927734,6.819336
			c4.338867,0,7.625-1.797852,7.625-5.083496c0-2.852051-2.666016-4.277832-7.439453-5.269531l-4.339844-0.930176
			C5.828125,91.550293,1.488281,87.396484,1.488281,80.763184c0-7.935547,7.625977-13.453613,16.924805-13.453613
			c9.485352,0,16.677734,4.897949,17.544922,13.515625h-9.794922c-0.558594-3.720215-3.53418-5.889648-7.811523-5.889648
			c-3.967773,0-7.067383,2.04541-7.067383,4.959473c0,2.604004,1.921875,3.719727,6.260742,4.587891l4.835938,1.053711
			c8.742188,1.73584,14.383789,5.641602,14.383789,13.205566c0,8.927246-8.370117,13.63916-17.607422,13.63916
			C9.114258,112.381348,1.302734,107.793457,0.43457,97.936035z"/>
		<path style="fill:#032044;" d="M39.12793,95.394043c0-10.043457,7.811523-16.676758,17.048828-16.676758
			c8.369141,0,14.941406,4.959473,15.932617,12.646973h-9.298828c-0.744141-3.037598-3.410156-4.959473-6.633789-4.959473
			c-4.339844,0-7.37793,3.657715-7.37793,8.989258c0,5.517578,3.100586,9.299316,7.37793,9.299316
			c3.162109,0,5.704102-1.797852,6.571289-5.021484h9.361328c-1.239258,7.935547-7.873047,12.709473-15.994141,12.709473
			C46.691406,112.381348,39.12793,105.747559,39.12793,95.394043z"/>
		<path style="fill:#032044;" d="M85.210938,111.637207h-9.422852V67h9.422852v13.577148c0,0.867676,0,1.673828,0,2.41748
			c2.045898-2.665527,5.456055-4.215332,9.423828-4.215332c7.005859,0,11.717773,4.215332,11.717773,12.833008v20.024902h-9.423828
			V93.286133c0-4.091797-2.107422-6.447266-5.641602-6.447266c-3.286133,0-6.076172,2.41748-6.076172,7.6875V111.637207z"/>
		<path style="fill:#032044;" d="M109.856445,95.394043c0-10.229492,7.874023-16.676758,17.420898-16.676758
			c9.609375,0,17.421875,6.385254,17.421875,16.676758c0,10.353516-7.75,16.987305-17.421875,16.987305
			C117.543945,112.381348,109.856445,105.80957,109.856445,95.394043z M135.027344,95.394043
			c0-5.393555-3.162109-8.989258-7.75-8.989258c-4.649414,0-7.749023,3.595703-7.749023,8.989258
			c0,5.641602,3.162109,9.299316,7.749023,9.299316C131.927734,104.693359,135.027344,101.097656,135.027344,95.394043z"/>
		<path style="fill:#032044;" d="M146.68457,95.394043c0-10.229492,7.873047-16.676758,17.420898-16.676758
			c9.609375,0,17.420898,6.385254,17.420898,16.676758c0,10.353516-7.75,16.987305-17.420898,16.987305
			C154.37207,112.381348,146.68457,105.80957,146.68457,95.394043z M171.854492,95.394043
			c0-5.393555-3.161133-8.989258-7.749023-8.989258c-4.649414,0-7.75,3.595703-7.75,8.989258
			c0,5.641602,3.162109,9.299316,7.75,9.299316C168.754883,104.693359,171.854492,101.097656,171.854492,95.394043z"/>
		<path style="fill:#032044;" d="M185.433594,67h9.423828v44.637207h-9.423828V67z"/>
	</g>
</g>
<g>
</g>
<g>
</g>
<g>
</g>
<g>
</g>
<g>
</g>
<g>
</g>
<g>
</g>
<g>
</g>
<g>
</g>
<g>
</g>
<g>
</g>
<g>
</g>
<g>
</g>
<g>
</g>
<g>
</g>
</svg>
