<?xml version="1.0" encoding="iso-8859-1"?>
<!-- Generator: Adobe Illustrator 30.2.1, SVG Export Plug-In . SVG Version: 9.03 Build 0)  -->
<svg version="1.1" id="Layer_1" xmlns="http://www.w3.org/2000/svg" xmlns:xlink="http://www.w3.org/1999/xlink" x="0px" y="0px"
	 viewBox="0 0 287.606 136.315" style="enable-background:new 0 0 287.606 136.315;" xml:space="preserve">
<g id="UnitName_00000155828925717603015420000013519887324746876054_">
	<g>
		<path style="fill:#032044;" d="M3.844,35.34V9.302h10.105v25.48c0,6.448,3.533,10.043,8.741,10.043
			c5.332,0,8.741-3.596,8.741-9.981V9.302h10.105v25.977c0,11.593-7.812,18.165-18.908,18.165
			C11.531,53.443,3.844,46.996,3.844,35.34z"/>
		<path style="fill:#032044;" d="M56.828,52.699h-9.424V20.585h9.114v3.906c2.045-2.976,5.579-4.649,9.733-4.649
			c7.005,0,11.717,4.215,11.717,12.833v20.025h-9.424V34.348c0-4.092-2.107-6.447-5.642-6.447c-3.285,0-6.075,2.417-6.075,7.688
			V52.699z"/>
		<path style="fill:#032044;" d="M83.389,8.062h9.485v7.812h-9.485V8.062z M83.389,20.585h9.424v32.114h-9.424V20.585z"/>
		<path style="fill:#032044;" d="M116.396,52.699h-9.733L94.76,20.585h9.733l7.253,22.071l7.192-22.071h9.299L116.396,52.699z"/>
		<path style="fill:#032044;" d="M144.165,53.443c-9.299,0-17.11-6.386-17.11-16.987c0-10.292,8.06-16.677,16.925-16.677
			c9.113,0,16.615,6.076,16.615,17.359v1.922h-24.117c0.496,4.65,3.782,7.439,7.998,7.439c2.728,0,5.456-0.93,6.758-3.472h9.051
			C158.301,50.219,151.233,53.443,144.165,53.443z M136.416,33.108h14.693c-0.311-3.906-3.224-6.448-7.254-6.448
			C140.012,26.661,136.912,29.017,136.416,33.108z"/>
		<path style="fill:#032044;" d="M173.987,52.699h-9.424V20.585h9.114v4.774c0.558-0.992,1.302-1.922,2.231-2.728
			c1.859-1.488,3.658-2.294,6.695-2.294c0.807,0,1.736,0.062,2.294,0.186v8.68c-1.487-0.186-2.231-0.186-3.162-0.186
			c-3.533,0-7.749,1.302-7.749,7.377V52.699z"/>
		<path style="fill:#032044;" d="M185.972,42.532h8.741c0.496,2.976,3.038,4.402,6.51,4.402c2.728,0,5.146-0.992,5.146-3.224
			c0-1.984-1.798-2.852-5.827-3.534l-3.349-0.62c-6.571-1.178-10.663-4.092-10.663-9.238c0-6.571,6.076-10.601,13.825-10.601
			c7.378,0,13.453,3.72,14.321,10.291h-8.617c-0.62-2.417-2.729-3.782-5.89-3.782c-2.729,0-4.774,1.24-4.774,3.162
			c0,1.798,1.612,2.48,5.084,3.1l3.286,0.558c7.315,1.302,11.655,4.154,11.655,9.733c0,7.067-6.695,10.664-14.383,10.664
			C193.163,53.443,186.901,50.033,185.972,42.532z"/>
		<path style="fill:#032044;" d="M219.296,8.062h9.485v7.812h-9.485V8.062z M219.296,20.585h9.423v32.114h-9.423V20.585z"/>
		<path style="fill:#032044;" d="M236.339,43.958V27.467h-5.207v-6.882h5.207v-7.998h9.237v7.998h7.13v6.882h-7.13v14.321
			c0,3.224,0.992,3.844,3.534,3.844h3.596v7.005c-2.17,0.124-3.968,0.124-7.006,0.124C239.811,52.761,236.339,51.025,236.339,43.958
			z"/>
		<path style="fill:#032044;" d="M270.369,64.479h-9.671l5.766-14.011l-12.771-29.882h9.857l7.625,19.777l7.006-19.777h9.424
			L270.369,64.479z"/>
		<path style="fill:#032044;" d="M2.107,97.814c0-14.197,10.664-22.443,21.823-22.443c10.539,0,18.847,6.262,20.148,15.747H33.974
			c-1.178-4.339-4.897-7.129-10.105-7.129c-6.323,0-11.345,5.332-11.345,13.825s5.083,14.011,11.407,14.011
			c5.083,0,8.68-2.666,10.105-7.129h10.105c-1.55,9.547-9.733,15.747-20.273,15.747C12.399,120.443,2.107,112.074,2.107,97.814z"/>
		<path style="fill:#032044;" d="M46.214,103.456c0-10.229,7.874-16.677,17.421-16.677c9.609,0,17.422,6.385,17.422,16.677
			c0,10.354-7.75,16.987-17.422,16.987C53.901,120.443,46.214,113.872,46.214,103.456z M71.385,103.456
			c0-5.394-3.162-8.989-7.75-8.989c-4.649,0-7.749,3.596-7.749,8.989c0,5.642,3.162,9.299,7.749,9.299
			C68.285,112.755,71.385,109.16,71.385,103.456z"/>
		<path style="fill:#032044;" d="M84.964,75.062h9.423v44.637h-9.423V75.062z"/>
		<path style="fill:#032044;" d="M99.986,75.062h9.423v44.637h-9.423V75.062z"/>
		<path style="fill:#032044;" d="M130.353,120.443c-9.3,0-17.111-6.386-17.111-16.987c0-10.292,8.06-16.677,16.926-16.677
			c9.113,0,16.614,6.076,16.614,17.359v1.922h-24.116c0.496,4.65,3.781,7.439,7.997,7.439c2.729,0,5.456-0.93,6.758-3.472h9.052
			C144.487,117.219,137.42,120.443,130.353,120.443z M122.603,100.108h14.693c-0.31-3.906-3.224-6.448-7.253-6.448
			C126.199,93.661,123.099,96.017,122.603,100.108z"/>
		<path style="fill:#032044;" d="M165.896,132.161c-9.3,0-15.003-4.278-16.058-11.098h9.176c0.683,2.79,3.1,4.34,6.943,4.34
			c3.968,0,6.572-1.984,6.572-6.448v-4.649c-1.86,2.852-5.084,4.525-9.424,4.525c-7.749,0-14.197-5.766-14.197-16.119
			c0-10.043,6.696-15.871,14.321-15.871c4.464,0,7.626,1.798,9.485,4.959v-4.216h9.176v30.75
			C181.892,127.883,174.824,132.161,165.896,132.161z M172.592,102.712c0-5.332-3.1-8.494-7.005-8.494
			c-4.03,0-7.006,3.286-7.006,8.494c0,5.518,2.976,8.741,7.006,8.741C169.555,111.454,172.592,108.168,172.592,102.712z"/>
		<path style="fill:#032044;" d="M202.829,120.443c-9.299,0-17.11-6.386-17.11-16.987c0-10.292,8.06-16.677,16.925-16.677
			c9.113,0,16.615,6.076,16.615,17.359v1.922h-24.117c0.496,4.65,3.782,7.439,7.998,7.439c2.728,0,5.456-0.93,6.758-3.472h9.051
			C216.965,117.219,209.897,120.443,202.829,120.443z M195.08,100.108h14.693c-0.311-3.906-3.224-6.448-7.254-6.448
			C198.676,93.661,195.576,96.017,195.08,100.108z"/>
	</g>
</g>
<g>
</g>
<g>
</g>
<g>
</g>
<g>
</g>
<g>
</g>
<g>
</g>
<g>
</g>
<g>
</g>
<g>
</g>
<g>
</g>
<g>
</g>
<g>
</g>
<g>
</g>
<g>
</g>
<g>
</g>
</svg>
