<?xml version="1.0" encoding="iso-8859-1"?>
<!-- Generator: Adobe Illustrator 30.2.1, SVG Export Plug-In . SVG Version: 9.03 Build 0)  -->
<svg version="1.1" id="Layer_1" xmlns="http://www.w3.org/2000/svg" xmlns:xlink="http://www.w3.org/1999/xlink" x="0px" y="0px"
	 viewBox="0 0 521.746 69.316" style="enable-background:new 0 0 521.746 69.316;" xml:space="preserve">
<g id="UnitName_00000083051636230227074460000000021105607283046073_">
	<g>
		<path style="fill:#032044;" d="M3.844,35.341V9.302h10.105v25.48c0,6.448,3.534,10.043,8.742,10.043
			c5.332,0,8.741-3.596,8.741-9.981V9.302h10.105v25.977c0,11.593-7.812,18.165-18.909,18.165
			C11.531,53.443,3.844,46.996,3.844,35.341z"/>
		<path style="fill:#032044;" d="M56.828,52.699h-9.423V20.585h9.114v3.906c2.045-2.976,5.58-4.65,9.733-4.65
			c7.005,0,11.717,4.216,11.717,12.833v20.025h-9.424V34.348c0-4.092-2.108-6.448-5.642-6.448c-3.286,0-6.076,2.418-6.076,7.688
			V52.699z"/>
		<path style="fill:#032044;" d="M83.389,8.062h9.485v7.812h-9.485V8.062z M83.389,20.585h9.423v32.114h-9.423V20.585z"/>
		<path style="fill:#032044;" d="M116.396,52.699h-9.733L94.76,20.585h9.733l7.253,22.071l7.192-22.071h9.299L116.396,52.699z"/>
		<path style="fill:#032044;" d="M144.166,53.443c-9.299,0-17.111-6.385-17.111-16.987c0-10.291,8.06-16.677,16.925-16.677
			c9.113,0,16.615,6.076,16.615,17.359v1.922h-24.117c0.496,4.65,3.782,7.439,7.998,7.439c2.728,0,5.456-0.93,6.758-3.472h9.051
			C158.301,50.219,151.233,53.443,144.166,53.443z M136.416,33.109h14.693c-0.31-3.906-3.224-6.448-7.253-6.448
			C140.012,26.661,136.912,29.017,136.416,33.109z"/>
		<path style="fill:#032044;" d="M173.987,52.699h-9.423V20.585h9.114v4.774c0.558-0.992,1.302-1.922,2.231-2.728
			c1.86-1.488,3.658-2.294,6.696-2.294c0.806,0,1.736,0.062,2.294,0.186v8.68c-1.488-0.186-2.232-0.186-3.162-0.186
			c-3.534,0-7.75,1.302-7.75,7.377V52.699z"/>
		<path style="fill:#032044;" d="M185.972,42.532h8.742c0.496,2.976,3.038,4.402,6.509,4.402c2.728,0,5.146-0.992,5.146-3.224
			c0-1.984-1.798-2.852-5.828-3.534l-3.348-0.62c-6.571-1.178-10.663-4.092-10.663-9.237c0-6.572,6.076-10.602,13.825-10.602
			c7.377,0,13.453,3.72,14.321,10.292h-8.618c-0.62-2.418-2.728-3.782-5.89-3.782c-2.728,0-4.774,1.24-4.774,3.162
			c0,1.798,1.612,2.48,5.084,3.1l3.286,0.558c7.315,1.302,11.655,4.154,11.655,9.733c0,7.068-6.695,10.663-14.383,10.663
			C193.163,53.443,186.902,50.034,185.972,42.532z"/>
		<path style="fill:#032044;" d="M219.296,8.062h9.485v7.812h-9.485V8.062z M219.296,20.585h9.423v32.114h-9.423V20.585z"/>
		<path style="fill:#032044;" d="M236.339,43.958V27.467h-5.208v-6.882h5.208v-7.998h9.237v7.998h7.13v6.882h-7.13v14.321
			c0,3.224,0.992,3.844,3.534,3.844h3.596v7.006c-2.17,0.124-3.968,0.124-7.006,0.124C239.811,52.761,236.339,51.026,236.339,43.958
			z"/>
		<path style="fill:#032044;" d="M270.37,64.479h-9.671l5.766-14.011l-12.771-29.882h9.857l7.625,19.777l7.006-19.777h9.423
			L270.37,64.479z"/>
		<path style="fill:#032044;" d="M302.671,30.815c0-14.197,10.664-22.443,21.823-22.443c10.539,0,18.847,6.261,20.148,15.747
			h-10.105c-1.178-4.34-4.898-7.13-10.105-7.13c-6.324,0-11.345,5.332-11.345,13.825c0,8.494,5.083,14.011,11.407,14.011
			c5.083,0,8.68-2.666,10.105-7.13h10.105c-1.55,9.548-9.733,15.747-20.273,15.747C312.963,53.443,302.671,45.074,302.671,30.815z"
			/>
		<path style="fill:#032044;" d="M346.778,36.456c0-10.229,7.873-16.677,17.421-16.677c9.609,0,17.421,6.386,17.421,16.677
			c0,10.354-7.75,16.987-17.421,16.987C354.466,53.443,346.778,46.872,346.778,36.456z M371.948,36.456
			c0-5.394-3.162-8.99-7.749-8.99c-4.65,0-7.75,3.596-7.75,8.99c0,5.642,3.162,9.3,7.75,9.3
			C368.849,45.756,371.948,42.16,371.948,36.456z"/>
		<path style="fill:#032044;" d="M385.527,8.062h9.423v44.637h-9.423V8.062z"/>
		<path style="fill:#032044;" d="M400.55,8.062h9.423v44.637h-9.423V8.062z"/>
		<path style="fill:#032044;" d="M430.916,53.443c-9.299,0-17.11-6.385-17.11-16.987c0-10.291,8.06-16.677,16.925-16.677
			c9.113,0,16.615,6.076,16.615,17.359v1.922h-24.117c0.496,4.65,3.782,7.439,7.998,7.439c2.728,0,5.455-0.93,6.757-3.472h9.052
			C445.052,50.219,437.983,53.443,430.916,53.443z M423.167,33.109h14.692c-0.31-3.906-3.224-6.448-7.253-6.448
			C426.763,26.661,423.663,29.017,423.167,33.109z"/>
		<path style="fill:#032044;" d="M466.46,65.161c-9.299,0-15.003-4.278-16.057-11.097h9.175c0.683,2.79,3.101,4.34,6.944,4.34
			c3.968,0,6.571-1.984,6.571-6.448v-4.65c-1.86,2.852-5.084,4.526-9.424,4.526c-7.749,0-14.197-5.766-14.197-16.119
			c0-10.043,6.696-15.871,14.321-15.871c4.464,0,7.626,1.798,9.485,4.96v-4.216h9.176v30.75
			C482.455,60.883,475.388,65.161,466.46,65.161z M473.156,35.712c0-5.332-3.101-8.493-7.006-8.493c-4.03,0-7.006,3.286-7.006,8.493
			c0,5.518,2.976,8.741,7.006,8.741C470.118,44.454,473.156,41.168,473.156,35.712z"/>
		<path style="fill:#032044;" d="M503.393,53.443c-9.299,0-17.11-6.385-17.11-16.987c0-10.291,8.06-16.677,16.925-16.677
			c9.113,0,16.615,6.076,16.615,17.359v1.922h-24.117c0.496,4.65,3.782,7.439,7.998,7.439c2.728,0,5.455-0.93,6.757-3.472h9.052
			C517.528,50.219,510.46,53.443,503.393,53.443z M495.644,33.109h14.692c-0.31-3.906-3.224-6.448-7.253-6.448
			C499.239,26.661,496.14,29.017,495.644,33.109z"/>
	</g>
</g>
<g>
</g>
<g>
</g>
<g>
</g>
<g>
</g>
<g>
</g>
<g>
</g>
<g>
</g>
<g>
</g>
<g>
</g>
<g>
</g>
<g>
</g>
<g>
</g>
<g>
</g>
<g>
</g>
<g>
</g>
</svg>
