<?xml version="1.0" encoding="iso-8859-1"?>
<!-- Generator: Adobe Illustrator 30.2.1, SVG Export Plug-In . SVG Version: 9.03 Build 0)  -->
<svg version="1.1" id="Layer_1" xmlns="http://www.w3.org/2000/svg" xmlns:xlink="http://www.w3.org/1999/xlink" x="0px" y="0px"
	 viewBox="0 0 566.591309 57.160645" style="enable-background:new 0 0 566.591309 57.160645;" xml:space="preserve">
<g>
	<g>
		<path style="fill:#032044;" d="M0,22.814697C0,8.617432,10.663574,0.37207,21.822754,0.37207
			c10.539551,0,18.84668,6.261475,20.148926,15.74707H31.866211c-1.178223-4.339844-4.897949-7.129639-10.105469-7.129639
			c-6.32373,0-11.345215,5.331787-11.345215,13.825195c0,8.493652,5.083496,14.01123,11.407227,14.01123
			c5.083496,0,8.679688-2.665771,10.105469-7.129639h10.105469c-1.549805,9.547607-9.733398,15.74707-20.272949,15.74707
			C10.291504,45.443359,0,37.073975,0,22.814697z"/>
		<path style="fill:#032044;" d="M44.106445,28.456299c0-10.229248,7.873535-16.677002,17.420898-16.677002
			c9.609375,0,17.421387,6.385742,17.421387,16.677002c0,10.353516-7.75,16.987061-17.421387,16.987061
			C51.793945,45.443359,44.106445,38.871826,44.106445,28.456299z M69.276855,28.456299
			c0-5.393555-3.161621-8.989502-7.749512-8.989502c-4.649414,0-7.749512,3.595947-7.749512,8.989502
			c0,5.641846,3.162109,9.299561,7.749512,9.299561C66.177246,37.755859,69.276855,34.160156,69.276855,28.456299z"/>
		<path style="fill:#032044;" d="M82.855957,0.062012h9.42334v44.637451h-9.42334V0.062012z"/>
		<path style="fill:#032044;" d="M97.878418,0.062012h9.42334v44.637451h-9.42334V0.062012z"/>
		<path style="fill:#032044;" d="M128.244629,45.443359c-9.299316,0-17.11084-6.385498-17.11084-16.987061
			c0-10.29126,8.05957-16.677002,16.925293-16.677002c9.113281,0,16.614746,6.075684,16.614746,17.359131v1.921875h-24.116699
			c0.496094,4.649658,3.781738,7.439453,7.997559,7.439453c2.728027,0,5.456055-0.929932,6.757812-3.47168h9.05127
			C142.379883,42.219482,135.3125,45.443359,128.244629,45.443359z M120.495117,25.108643h14.693359
			c-0.310059-3.905762-3.223633-6.447754-7.253418-6.447754C124.091309,18.660889,120.991211,21.016846,120.495117,25.108643z"/>
		<path style="fill:#032044;" d="M163.788574,57.160645c-9.299316,0-15.00293-4.277588-16.057129-11.097168h9.175781
			c0.682129,2.789795,3.099609,4.3396,6.943359,4.3396c3.967773,0,6.571777-1.983887,6.571777-6.44751v-4.649902
			c-1.859863,2.852051-5.083496,4.525879-9.42334,4.525879c-7.749512,0-14.197266-5.765625-14.197266-16.119141
			c0-10.043457,6.695801-15.871094,14.321289-15.871094c4.463379,0,7.625488,1.797852,9.485352,4.959717v-4.21582h9.175293
			v30.750244C179.783691,52.883057,172.716309,57.160645,163.788574,57.160645z M170.484375,27.712402
			c0-5.331787-3.099609-8.493408-7.005371-8.493408c-4.029785,0-7.005859,3.285645-7.005859,8.493408
			c0,5.517822,2.976074,8.741455,7.005859,8.741455C167.446777,36.453857,170.484375,33.168213,170.484375,27.712402z"/>
		<path style="fill:#032044;" d="M200.72168,45.443359c-9.299316,0-17.11084-6.385498-17.11084-16.987061
			c0-10.29126,8.05957-16.677002,16.925293-16.677002c9.113281,0,16.614746,6.075684,16.614746,17.359131v1.921875H193.03418
			c0.496094,4.649658,3.781738,7.439453,7.997559,7.439453c2.728027,0,5.456055-0.929932,6.757812-3.47168h9.05127
			C214.856934,42.219482,207.789551,45.443359,200.72168,45.443359z M192.972168,25.108643h14.693359
			c-0.310059-3.905762-3.223633-6.447754-7.253418-6.447754C196.568359,18.660889,193.468262,21.016846,192.972168,25.108643z"/>
		<path style="fill:#032044;" d="M234.016113,28.456299c0-10.229248,7.873535-16.677002,17.420898-16.677002
			c9.609375,0,17.420898,6.385742,17.420898,16.677002c0,10.353516-7.749512,16.987061-17.420898,16.987061
			C241.703613,45.443359,234.016113,38.871826,234.016113,28.456299z M259.186523,28.456299
			c0-5.393555-3.161621-8.989502-7.749512-8.989502c-4.649414,0-7.749512,3.595947-7.749512,8.989502
			c0,5.641846,3.162109,9.299561,7.749512,9.299561C256.086914,37.755859,259.186523,34.160156,259.186523,28.456299z"/>
		<path style="fill:#032044;" d="M283.869141,19.466797v25.232666h-9.175293V19.466797h-5.331543v-6.881592h5.331543V9.175537
			C274.693848,2.10791,278.723633,0,284.799316,0c2.417969,0,3.967773,0,6.137695,0.062012v6.943604
			c-1.302246-0.062012-2.541992-0.062012-3.905762-0.062012c-1.859863,0-3.162109,0.496094-3.162109,3.099854v2.541748h7.067871
			v6.881592H283.869141z"/>
		<path style="fill:#032044;" d="M306.871582,30.998291h9.857422c0.620117,4.649658,4.21582,6.81958,8.927734,6.81958
			c4.339355,0,7.625-1.797852,7.625-5.08374c0-2.851807-2.665527-4.277832-7.438965-5.269775l-4.339844-0.929932
			c-9.237793-1.921875-13.577148-6.075684-13.577148-12.709229c0-7.935547,7.625488-13.453125,16.924805-13.453125
			c9.48584,0,16.677246,4.897705,17.54541,13.515137h-9.795898c-0.558105-3.719727-3.533691-5.889648-7.811523-5.889648
			c-3.967773,0-7.067383,2.045898-7.067383,4.959717c0,2.60376,1.921875,3.719727,6.26123,4.587646l4.835938,1.053955
			c8.741699,1.736084,14.383301,5.641846,14.383301,13.205322c0,8.92749-8.370117,13.63916-17.606934,13.63916
			C315.55127,45.443359,307.739746,40.855713,306.871582,30.998291z"/>
		<path style="fill:#032044;" d="M345.565918,28.456299c0-10.043457,7.811523-16.677002,17.048828-16.677002
			c8.369141,0,14.94043,4.959717,15.932617,12.647217h-9.298828c-0.744141-3.037598-3.410156-4.959717-6.633789-4.959717
			c-4.339844,0-7.37793,3.657959-7.37793,8.989502c0,5.517822,3.099609,9.299561,7.37793,9.299561
			c3.161133,0,5.703125-1.797852,6.571289-5.021729h9.361328c-1.239258,7.935547-7.873047,12.709229-15.995117,12.709229
			C353.129395,45.443359,345.565918,38.809814,345.565918,28.456299z"/>
		<path style="fill:#032044;" d="M382.226074,0.062012h9.485352v7.811523h-9.485352V0.062012z M382.226074,12.585205h9.422852
			v32.114258h-9.422852V12.585205z"/>
		<path style="fill:#032044;" d="M412.430176,45.443359c-9.298828,0-17.110352-6.385498-17.110352-16.987061
			c0-10.29126,8.058594-16.677002,16.924805-16.677002c9.113281,0,16.615234,6.075684,16.615234,17.359131v1.921875h-24.117188
			c0.496094,4.649658,3.782227,7.439453,7.998047,7.439453c2.727539,0,5.455078-0.929932,6.756836-3.47168h9.051758
			C426.565918,42.219482,419.497559,45.443359,412.430176,45.443359z M404.681152,25.108643h14.692383
			c-0.30957-3.905762-3.223633-6.447754-7.25293-6.447754C408.276855,18.660889,405.177246,21.016846,404.681152,25.108643z"/>
		<path style="fill:#032044;" d="M442.252441,44.699463h-9.422852V12.585205h9.113281v3.905762
			c2.045898-2.97583,5.579102-4.649658,9.733398-4.649658c7.005859,0,11.716797,4.21582,11.716797,12.833252v20.024902h-9.422852
			V26.348389c0-4.091553-2.108398-6.44751-5.641602-6.44751c-3.286133,0-6.076172,2.417969-6.076172,7.6875V44.699463z"/>
		<path style="fill:#032044;" d="M466.897949,28.456299c0-10.043457,7.811523-16.677002,17.048828-16.677002
			c8.369141,0,14.94043,4.959717,15.932617,12.647217h-9.298828c-0.744141-3.037598-3.410156-4.959717-6.633789-4.959717
			c-4.339844,0-7.37793,3.657959-7.37793,8.989502c0,5.517822,3.099609,9.299561,7.37793,9.299561
			c3.161133,0,5.703125-1.797852,6.571289-5.021729h9.361328c-1.239258,7.935547-7.873047,12.709229-15.995117,12.709229
			C474.461426,45.443359,466.897949,38.809814,466.897949,28.456299z"/>
		<path style="fill:#032044;" d="M518.728027,45.443359c-9.298828,0-17.110352-6.385498-17.110352-16.987061
			c0-10.29126,8.05957-16.677002,16.924805-16.677002c9.113281,0,16.615234,6.075684,16.615234,17.359131v1.921875h-24.117188
			c0.496094,4.649658,3.782227,7.439453,7.998047,7.439453c2.727539,0,5.455078-0.929932,6.756836-3.47168h9.051758
			C532.86377,42.219482,525.79541,45.443359,518.728027,45.443359z M510.979004,25.108643h14.692383
			c-0.30957-3.905762-3.223633-6.447754-7.25293-6.447754C514.574707,18.660889,511.475098,21.016846,510.979004,25.108643z"/>
		<path style="fill:#032044;" d="M537.143066,34.531982h8.741211c0.496094,2.97583,3.038086,4.401855,6.509766,4.401855
			c2.728516,0,5.145508-0.991943,5.145508-3.223877c0-1.983887-1.797852-2.851807-5.827148-3.533691l-3.347656-0.620117
			c-6.572266-1.177979-10.664062-4.091797-10.664062-9.237305c0-6.571777,6.076172-10.601562,13.825195-10.601562
			c7.37793,0,13.454102,3.719971,14.321289,10.291504h-8.617188c-0.620117-2.417969-2.727539-3.781738-5.889648-3.781738
			c-2.727539,0-4.773438,1.239746-4.773438,3.161865c0,1.797852,1.611328,2.479736,5.083008,3.099609l3.286133,0.558105
			c7.31543,1.301758,11.655273,4.153809,11.655273,9.733398c0,7.067627-6.695312,10.66333-14.382812,10.66333
			C544.334473,45.443359,538.072754,42.033691,537.143066,34.531982z"/>
	</g>
</g>
<g>
</g>
<g>
</g>
<g>
</g>
<g>
</g>
<g>
</g>
<g>
</g>
<g>
</g>
<g>
</g>
<g>
</g>
<g>
</g>
<g>
</g>
<g>
</g>
<g>
</g>
<g>
</g>
<g>
</g>
</svg>
