<svg version="1.1" id="Layer_1" xmlns="http://www.w3.org/2000/svg" x="0" y="0" viewBox="0 0 420 20.2" xml:space="preserve"><style>.st0{fill:#fff}</style><path class="st0" d="M13.3.5V9c0 2-.1 3.9-1.6 5.4-1.3 1.3-3.3 1.7-5.1 1.7s-3.8-.5-5.1-1.7C.1 13 0 11 0 9V.5h4v8c0 2 .1 4.2 2.7 4.2s2.7-2.2 2.7-4.1v-8h3.9V.5z"/><path class="st0" d="M19.7 15.7h-4V3.8h-3.3V.5H23v3.4h-3.3v11.8z"/><path class="st0" d="M30.6 4.4c-.7-.6-1.7-1-2.6-1-.7 0-1.7.4-1.7 1.3s1.1 1.2 1.8 1.5l1 .3c2.1.6 3.8 1.7 3.8 4.2 0 1.5-.4 3.1-1.6 4.1-1.2 1-2.8 1.4-4.3 1.4-1.9 0-3.8-.6-5.4-1.7l1.7-3.2c1 .9 2.2 1.6 3.5 1.6.9 0 1.9-.5 1.9-1.5 0-1.1-1.6-1.5-2.4-1.7-2.5-.7-4.1-1.4-4.1-4.3 0-3.1 2.2-5.1 5.3-5.1 1.5 0 3.4.5 4.8 1.3l-1.7 2.8z"/><path class="st0" d="M36.3 13.1l-1 2.7h-4.2L37 .4h4.3L47 15.7h-4.2l-1-2.6h-5.5zm2.8-7.9L37.4 10h3.3l-1.6-4.8zm9.1 8.6c.6 0 1 .5 1 1 0 .6-.5 1-1 1s-1.1-.5-1.1-1c0-.6.5-1 1.1-1zm0 .2c-.5 0-.8.4-.8.8 0 .5.3.8.8.8s.8-.4.8-.8c0-.5-.4-.8-.8-.8zm-.2 1.3h-.2v-1h.4c.2 0 .3 0 .4.1.1 0 .1.1.1.2s-.1.2-.2.2c.1 0 .2.1.2.2 0 .2 0 .2.1.2h-.3s0-.1-.1-.2c0-.1-.1-.2-.2-.2H48v.5zm0-.6c.2 0 .3-.1.3-.1 0-.1-.1-.2-.2-.2H48v.3zm3-12.6V.4h12.3v1.7h-5.1v13.6h-2V2.1H51zM66.5.4v5.9c.1-.3.3-.6.6-.9s.6-.4.9-.6.7-.3 1-.3c.3-.1.7-.1 1-.1.7 0 1.3.1 1.8.3.5.2.9.5 1.2.8.3.4.5.8.6 1.3s.2 1 .2 1.6v7.3H72V8.2c0-.7-.2-1.2-.6-1.6s-.9-.6-1.6-.6c-.6 0-1 .1-1.4.3-.4.2-.8.4-1 .7-.3.3-.5.7-.6 1.1-.1.4-.2.9-.2 1.4v6.3h-1.8V.4h1.7zm18 14.6c-.8.6-1.9 1-3.1 1-.9 0-1.7-.1-2.3-.4s-1.2-.7-1.6-1.2-.8-1.1-1-1.9-.5-1.5-.5-2.4.1-1.6.4-2.3.6-1.3 1.1-1.8 1-.9 1.7-1.2 1.3-.4 2.1-.4c1 0 1.8.2 2.5.6s1.2.9 1.6 1.6c.4.6.7 1.3.8 2.1.2.8.2 1.5.2 2.1H78c0 .5 0 .9.2 1.4s.3.8.6 1.2c.3.3.7.6 1.1.8s1 .3 1.6.3c.8 0 1.4-.2 1.9-.5s.8-.9 1-1.6h1.8c-.4 1-.9 2-1.7 2.6zM84 7.9c-.2-.4-.4-.7-.7-1s-.6-.5-1-.7C82 6 81.6 6 81.1 6s-.9.1-1.3.2-.7.4-1 .7c-.3.3-.5.6-.7 1-.2.4-.1.8-.2 1.2h6.4c0-.4-.1-.8-.3-1.2zm21.1 6.7c-1.1 1-2.5 1.5-4.5 1.5s-3.5-.5-4.6-1.4-1.7-2.4-1.7-4.5V.4h2v9.8c0 1.4.4 2.4 1.1 3.1.7.7 1.8 1.1 3.2 1.1 1.3 0 2.3-.4 3-1.1s1-1.8 1-3.1V.4h2v9.8c.1 1.9-.4 3.4-1.5 4.4zm6.3-10v1.8c.8-1.3 2-2 3.6-2 .7 0 1.3.1 1.8.3.5.2.9.5 1.2.8.3.4.5.8.6 1.3s.2 1 .2 1.6v7.3H117V8.2c0-.7-.2-1.2-.6-1.6s-.9-.6-1.6-.6c-.6 0-1 .1-1.4.3-.4.2-.8.4-1 .7-.3.3-.5.7-.6 1.1-.1.4-.2.9-.2 1.4v6.3h-1.8V4.6h1.6zm10.3-2V.4h1.8v2.2h-1.8zm1.8 2v11.1h-1.8V4.6h1.8zm5.9 11.1l-4.1-11.1h2l3.1 9.3 3-9.3h1.9l-4.1 11.1h-1.8zM145 15c-.8.6-1.9 1-3.1 1-.9 0-1.7-.1-2.3-.4s-1.2-.7-1.6-1.2c-.4-.5-.8-1.1-1-1.9s-.4-1.5-.4-2.3c0-.9.1-1.6.4-2.3s.6-1.3 1.1-1.8 1-.9 1.7-1.2 1.3-.4 2.1-.4c1 0 1.8.2 2.5.6s1.2.9 1.6 1.6c.4.6.7 1.3.8 2.1s.2 1.5.2 2.1h-8.3c0 .5 0 .9.2 1.4s.3.8.6 1.2c.3.3.6.6 1.1.8s1 .3 1.6.3c.8 0 1.4-.2 1.9-.5.5-.4.8-.9 1-1.6h1.8c-.5.9-1.1 1.9-1.9 2.5zm-.4-7.1c-.2-.4-.4-.7-.7-1s-.6-.5-1-.7c-.4-.2-.8-.2-1.3-.2s-.9.1-1.3.2-.7.4-1 .7c-.3.3-.5.6-.6 1-.2.4-.2.8-.3 1.2h6.4c0-.4-.1-.8-.2-1.2zm5.7-3.3v2.3c.4-.9 1-1.6 1.6-2s1.5-.6 2.4-.6v1.9c-.7 0-1.4.1-1.9.3-.5.2-.9.5-1.2.9s-.5.9-.7 1.4c-.1.6-.2 1.2-.2 1.9v4.9h-1.8v-11h1.8zm6.9 8.6c.2.3.4.5.7.7s.6.3.9.4.7.1 1.1.1c.3 0 .6 0 .9-.1s.6-.1.9-.2c.3-.1.5-.3.7-.5s.3-.5.3-.9c0-.5-.2-.8-.5-1.1-.4-.2-.8-.4-1.3-.6-.5-.1-1.1-.3-1.8-.4s-1.2-.3-1.8-.5-1-.5-1.3-.9c-.4-.4-.5-1-.5-1.7 0-.6.1-1 .4-1.4.3-.4.6-.7 1-1 .4-.2.8-.4 1.3-.6s1-.2 1.5-.2c.6 0 1.2.1 1.7.2s1 .3 1.4.6c.4.3.7.6 1 1.1.2.4.4 1 .4 1.7h-1.8c0-.4-.1-.7-.3-.9l-.6-.6c-.2-.2-.5-.2-.8-.3-.4-.1-.7-.1-1-.1s-.6 0-.8.1-.5.1-.8.2c-.2.1-.4.2-.6.4-.1.2-.2.4-.2.7 0 .3.1.6.3.8.2.2.5.4.9.5s.7.2 1.2.3.9.2 1.3.3c.5.1.9.2 1.3.4.4.1.8.3 1.2.6s.6.5.8.9.3.8.3 1.3c0 .7-.1 1.2-.4 1.7s-.6.8-1.1 1.1c-.4.3-1 .5-1.5.6-.5.1-1.1.2-1.7.2-.6 0-1.2-.1-1.8-.2-.6-.1-1.1-.3-1.5-.6s-.8-.7-1-1.2-.4-1.1-.4-1.8h1.8c0 .3.1.7.2.9zm9.5-10.6V.4h1.8v2.2h-1.8zm1.8 2v11.1h-1.8V4.6h1.8zm7.6 0v1.6h-2.2v6.9c0 .2 0 .4.1.5 0 .1.1.2.2.3.1.1.2.1.4.1h1.5v1.6h-1.4c-.5 0-.9 0-1.2-.1s-.6-.2-.8-.4-.4-.4-.5-.7-.1-.7-.1-1.2v-7h-1.9V4.6h1.9V1.3h1.8v3.3h2.2zm6.4 12.6c-.2.5-.4 1-.6 1.4-.2.4-.4.7-.7.9-.2.2-.5.4-.8.5s-.7.2-1.1.2h-.6c-.2 0-.4-.1-.6-.1v-1.7c.2.1.3.1.6.2s.4.1.5.1c.4 0 .7-.1.9-.3s.4-.4.6-.8l.8-1.9-4.4-11.1h2.1l3.2 9.1 3.1-9.1h1.9l-4.9 12.6zm12.1-9.3c.2-.7.6-1.3 1-1.8.5-.5 1-.9 1.7-1.2.7-.3 1.4-.4 2.3-.4.9 0 1.7.2 2.3.4.7.3 1.2.7 1.7 1.2s.8 1.1 1 1.9.3 1.5.3 2.3-.1 1.6-.3 2.3-.6 1.3-1 1.8c-.5.5-1 .9-1.7 1.2s-1.4.4-2.3.4c-.9 0-1.6-.1-2.3-.4-.7-.3-1.2-.7-1.7-1.2s-.8-1.1-1-1.8-.3-1.5-.3-2.3.1-1.7.3-2.4zm1.9 4.1c.2.5.4 1 .7 1.3.3.4.7.6 1.1.8.4.2.9.3 1.3.3s.9-.1 1.3-.3.8-.5 1.1-.8.6-.8.7-1.3c.2-.5.3-1.1.3-1.8s-.1-1.3-.3-1.8-.4-1-.7-1.3c-.3-.4-.7-.6-1.1-.8-.4-.2-.9-.3-1.3-.3s-.9.1-1.3.3c-.4.2-.8.5-1.1.8-.3.4-.6.8-.7 1.3-.2.5-.3 1.1-.3 1.8s.1 1.2.3 1.8zm9.6-5.8V4.6h1.9V3c0-.9.3-1.6.8-2s1.3-.7 2.3-.7h.6c.2 0 .4.1.6.1V2c-.2-.1-.3-.1-.5-.1h-.5c-.4 0-.8.1-1 .3s-.4.5-.4 1v1.5h2.1v1.6h-2.1v9.5h-1.8V6.2h-2zm12.1-4.1V.4h12.3v1.7h-5.1v13.6h-2V2.1h-5.2zM237.4 15c-.8.6-1.9 1-3.1 1-.9 0-1.7-.1-2.3-.4s-1.2-.7-1.6-1.2c-.4-.5-.8-1.1-1-1.9s-.4-1.5-.4-2.3c0-.9.1-1.6.4-2.3s.6-1.3 1.1-1.8 1-.9 1.7-1.2 1.3-.4 2.1-.4c1 0 1.8.2 2.5.6s1.2.9 1.6 1.6c.4.6.7 1.3.8 2.1s.2 1.5.2 2.1h-8.3c0 .5 0 .9.2 1.4s.3.8.6 1.2c.3.3.6.6 1.1.8s1 .3 1.6.3c.8 0 1.4-.2 1.9-.5.5-.4.8-.9 1-1.6h1.8c-.6.9-1.1 1.9-1.9 2.5zm-.5-7.1c-.2-.4-.4-.7-.7-1s-.6-.5-1-.7c-.3-.2-.7-.2-1.2-.2s-.9.1-1.3.2-.7.4-1 .7c-.3.3-.5.6-.6 1-.2.4-.2.8-.3 1.2h6.4c0-.4-.1-.8-.3-1.2zm3.3-3.3h2.3l2.7 3.9 2.8-3.9h2.2l-3.8 5.1 4.3 6h-2.3l-3.1-4.6-3.1 4.6H240l4.2-5.9-4-5.2zM262 15.7c-.3.2-.8.3-1.3.3s-.9-.1-1.1-.4-.4-.7-.4-1.3c-.5.6-1.1 1-1.8 1.3-.7.3-1.4.4-2.2.4-.5 0-1-.1-1.4-.2-.4-.1-.8-.3-1.2-.5-.3-.2-.6-.6-.8-1s-.3-.9-.3-1.4c0-.6.1-1.1.3-1.6.2-.4.5-.7.9-1s.8-.4 1.2-.6.9-.2 1.4-.3 1-.2 1.4-.2c.5-.1.9-.1 1.2-.2s.6-.2.8-.4.3-.4.3-.8-.1-.7-.2-1c-.1-.2-.3-.4-.6-.6s-.5-.2-.8-.3c-.3 0-.6-.1-.9-.1-.8 0-1.4.1-1.9.4s-.8.9-.8 1.7H252c0-.7.2-1.3.4-1.7s.6-.9 1-1.1.9-.5 1.5-.6 1.1-.2 1.8-.2c.5 0 1 0 1.5.1s.9.2 1.3.4.7.5 1 .9c.2.4.4.9.4 1.6V13c0 .4 0 .7.1.9 0 .2.2.3.5.3.2 0 .3 0 .6-.1l-.1 1.6zm-3-5.7c-.2.2-.5.3-.9.4s-.8.1-1.2.2c-.4.1-.8.1-1.2.2-.4.1-.8.2-1.1.3s-.6.4-.8.6c-.2.3-.3.6-.3 1.1 0 .3.1.6.2.8s.3.4.5.5.4.2.7.3.5.1.8.1c.6 0 1.1-.1 1.5-.2.4-.2.8-.4 1-.6s.5-.5.6-.8.2-.6.2-.8V10zm6.1 3.2c.2.3.4.5.7.7s.6.3 1 .4.7.1 1.1.1c.3 0 .6 0 .9-.1s.6-.1.9-.2c.3-.1.5-.3.7-.5s.3-.5.3-.9c0-.5-.2-.8-.5-1.1-.4-.2-.8-.4-1.3-.6-.5-.1-1.1-.3-1.8-.4s-1.2-.3-1.8-.5-1-.5-1.3-.9c-.4-.4-.5-1-.5-1.7 0-.6.1-1 .4-1.4s.6-.7 1-1c.4-.2.8-.4 1.3-.6s1-.2 1.5-.2c.6 0 1.2.1 1.7.2s1 .3 1.4.6c.4.3.7.6 1 1.1.2.4.4 1 .4 1.7h-1.8c0-.4-.1-.7-.3-.9l-.6-.6c-.2-.1-.5-.2-.8-.3-.5-.1-.8-.1-1.1-.1s-.5 0-.8.1-.5.1-.8.2c-.2.1-.4.2-.6.4-.1.2-.2.4-.2.7 0 .3.1.6.3.8.2.2.5.4.9.5s.7.2 1.2.3.9.2 1.3.3c.5.1.9.2 1.3.4.4.1.8.3 1.2.6s.6.5.8.9c.2.4.3.8.3 1.3 0 .7-.1 1.2-.4 1.7s-.6.8-1.1 1.1-1 .5-1.5.6c-.5.1-1.1.2-1.7.2s-1.2-.1-1.8-.2c-.6-.1-1-.3-1.5-.6-.4-.3-.8-.7-1-1.2s-.4-1.1-.4-1.8h1.8c-.1.3 0 .7.2.9zm25.2 2.5c-.3.2-.8.3-1.3.3s-.9-.1-1.1-.4-.4-.7-.4-1.3c-.5.6-1.1 1-1.8 1.3-.7.3-1.4.4-2.2.4-.5 0-1-.1-1.4-.2-.5-.1-.8-.3-1.2-.5-.3-.2-.6-.6-.8-1-.2-.4-.3-.9-.3-1.4 0-.6.1-1.1.3-1.6.2-.4.5-.7.9-1s.8-.4 1.2-.6.9-.2 1.4-.3 1-.2 1.4-.2c.5-.1.9-.1 1.2-.2s.6-.2.8-.4.3-.4.3-.8-.1-.7-.2-1c-.1-.2-.3-.4-.6-.6s-.5-.1-.8-.2c-.3 0-.6-.1-.9-.1-.8 0-1.4.1-1.9.4s-.8.9-.8 1.7h-1.8c0-.7.2-1.3.4-1.7.3-.5.6-.9 1-1.1s.9-.5 1.5-.6 1.1-.2 1.8-.2c.5 0 1 0 1.5.1s.9.2 1.3.4.7.5 1 .9c.2.4.4.9.4 1.6v5.7c0 .4 0 .7.1.9 0 .2.2.3.5.3.2 0 .3 0 .6-.1v1.5h-.1zm-3-5.7c-.2.2-.5.3-.9.4s-.8.1-1.2.2c-.4.1-.8.1-1.2.2-.4.1-.8.2-1.1.3s-.6.4-.8.6c-.2.3-.3.6-.3 1.1 0 .3.1.6.2.8s.3.4.5.5.4.2.7.3.5.1.8.1c.6 0 1.1-.1 1.5-.2.4-.2.8-.4 1-.6s.5-.5.6-.8.2-.6.2-.8V10zm9.4-5.4v1.6h-2.2v7.4c0 .1.1.2.2.3s.2.1.4.1h1.5v1.6h-1.4c-.5 0-.9 0-1.2-.1-.3-.1-.6-.2-.8-.4-.2-.2-.4-.4-.5-.7s-.1-.7-.1-1.2v-7h-1.9V4.6h1.9V1.3h1.8v3.3h2.3zm16-2.1c-.7-.5-1.5-.7-2.6-.7-.4 0-.9 0-1.3.1s-.8.2-1.1.4-.6.5-.8.8-.3.8-.3 1.3.1.9.4 1.2.6.5 1.1.7 1 .3 1.6.5 1.2.2 1.8.4c.6.1 1.2.3 1.8.5s1.1.5 1.6.8.8.8 1.1 1.2.4 1.1.4 1.9c0 .8-.2 1.5-.5 2.1s-.8 1.1-1.4 1.4c-.6.4-1.2.6-1.9.8-.7.2-1.4.2-2.1.2-.9 0-1.7-.1-2.4-.3s-1.4-.5-2-1c-.6-.4-1-1-1.4-1.7s-.5-1.5-.5-2.4h1.9c0 .6.1 1.2.4 1.7s.6.9 1 1.1c.4.3.9.5 1.4.7s1.1.2 1.7.2c.5 0 .9 0 1.4-.1s.9-.2 1.3-.4.7-.5.9-.9.3-.8.3-1.4c0-.5-.1-1-.4-1.3s-.6-.6-1.1-.8-1-.4-1.6-.5-1.2-.3-1.8-.4c-.6-.1-1.2-.3-1.8-.5s-1.1-.4-1.6-.7-.8-.7-1.1-1.1c-.3-.5-.4-1.1-.4-1.8 0-.8.2-1.4.5-2s.7-1 1.3-1.4c.5-.4 1.1-.6 1.8-.8s1.4-.3 2-.3c.8 0 1.5.1 2.2.3s1.3.5 1.8.9.9.9 1.2 1.5.5 1.3.5 2.2h-1.9c-.3-1.1-.7-1.9-1.4-2.4zm15.8 13.2c-.3.2-.8.3-1.3.3s-.9-.1-1.1-.4-.4-.7-.4-1.3c-.5.6-1.1 1-1.8 1.3-.7.3-1.4.4-2.2.4-.5 0-1-.1-1.4-.2-.5-.1-.8-.3-1.2-.5-.3-.2-.6-.6-.8-1-.2-.4-.3-.9-.3-1.4 0-.6.1-1.1.3-1.6.2-.4.5-.7.9-1s.8-.4 1.2-.6.9-.2 1.4-.3 1-.2 1.4-.2c.5-.1.9-.1 1.2-.2s.6-.2.8-.4.3-.4.3-.8-.1-.7-.2-1c-.1-.2-.3-.4-.6-.6s-.4-.1-.7-.2c-.3 0-.6-.1-.9-.1-.8 0-1.4.1-1.9.4s-.8.9-.8 1.7h-1.8c0-.7.2-1.3.4-1.7.3-.5.6-.9 1-1.1s.9-.5 1.5-.6 1.1-.2 1.8-.2c.5 0 1 0 1.5.1s.9.2 1.3.4.7.5 1 .9c.2.4.4.9.4 1.6v5.7c0 .4 0 .7.1.9 0 .2.2.3.5.3.2 0 .3 0 .6-.1v1.5h-.2zm-3-5.7c-.2.2-.5.3-.9.4s-.8.1-1.2.2c-.4.1-.8.1-1.2.2-.4.1-.8.2-1.1.3s-.6.4-.8.6c-.2.3-.3.6-.3 1.1 0 .3.1.6.2.8s.3.4.5.5.4.2.7.3.5.1.8.1c.6 0 1.1-.1 1.5-.2.4-.2.8-.4 1-.6s.5-.5.6-.8.2-.6.2-.8V10zm6.4-5.4v1.8c.8-1.3 2-2 3.6-2 .7 0 1.3.1 1.8.3.5.2.9.5 1.2.8.3.4.5.8.6 1.3s.2 1 .2 1.6v7.3h-1.8V8.2c0-.7-.2-1.2-.6-1.6s-1-.6-1.7-.6c-.6 0-1 .1-1.5.3-.4.2-.8.4-1 .7-.3.3-.5.7-.6 1.1-.1.4-.2.9-.2 1.4v6.3h-1.8V4.6h1.8zm23-4.2l6 15.4h-2.3l-1.7-4.6h-6.5l-1.7 4.6h-2.1l6-15.4h2.3zm1.4 9l-2.6-7.2-2.6 7.2h5.2zm7.5-4.8v1.8c.8-1.3 2-2 3.6-2 .7 0 1.3.1 1.8.3.5.2.9.5 1.2.8.3.4.5.8.6 1.3s.2 1 .2 1.6v7.3h-1.8V8.2c0-.7-.2-1.2-.6-1.6s-1-.6-1.7-.6c-.6 0-1 .1-1.5.3-.4.2-.8.4-1 .7-.3.3-.5.7-.6 1.1-.1.4-.2.9-.2 1.4v6.3H362V4.6h1.8zm15 0v1.6h-2.2v7.4c0 .1.1.2.2.3s.2.1.4.1h1.5v1.6h-1.4c-.5 0-.9 0-1.2-.1-.3-.1-.6-.2-.8-.4-.2-.2-.4-.4-.5-.7s-.1-.7-.1-1.2v-7h-1.9V4.6h1.9V1.3h1.8v3.3h2.3zm1.7 3.3c.2-.7.6-1.3 1-1.8.5-.5 1-.9 1.7-1.2.7-.3 1.5-.4 2.3-.4.9 0 1.7.2 2.3.4.7.3 1.2.7 1.7 1.2s.8 1.1 1 1.9.3 1.5.3 2.3-.1 1.6-.3 2.3c-.2.7-.6 1.3-1 1.8-.5.5-1 .9-1.7 1.2s-1.4.4-2.3.4-1.6-.1-2.3-.4-1.2-.7-1.7-1.2-.8-1.1-1-1.8-.3-1.5-.3-2.3.1-1.7.3-2.4zm1.9 4.1c.2.5.4 1 .7 1.3s.7.6 1.1.8.9.3 1.3.3.9-.1 1.3-.3.8-.5 1.1-.8c.3-.4.6-.8.7-1.3.2-.5.3-1.1.3-1.8s-.1-1.3-.3-1.8c-.2-.5-.4-1-.7-1.3-.3-.4-.7-.6-1.1-.8-.4-.2-.9-.3-1.3-.3s-.9.1-1.3.3c-.4.2-.8.5-1.1.8-.3.4-.6.8-.7 1.3-.2.5-.3 1.1-.3 1.8s.1 1.2.3 1.8zm12.5-7.4v1.8c.8-1.3 2-2 3.6-2 .7 0 1.3.1 1.8.3.5.2.9.5 1.2.8.3.4.5.8.6 1.3s.2 1 .2 1.6v7.3h-1.8V8.2c0-.7-.2-1.2-.6-1.6s-1-.6-1.7-.6c-.6 0-1 .1-1.5.3-.4.2-.8.4-1 .7-.3.3-.5.7-.6 1.1-.1.4-.2.9-.2 1.4v6.3h-1.8V4.6h1.8zm10.3-2V.4h1.8v2.2h-1.8zm1.8 2v11.1h-1.8V4.6h1.8zm2.6 3.3c.2-.7.6-1.3 1-1.8.5-.5 1-.9 1.7-1.2.7-.3 1.5-.4 2.3-.4.9 0 1.7.2 2.3.4.7.3 1.2.7 1.7 1.2s.8 1.1 1 1.9.3 1.5.3 2.3-.1 1.6-.3 2.3c-.2.7-.6 1.3-1 1.8-.5.5-1 .9-1.7 1.2s-1.4.4-2.3.4-1.6-.1-2.3-.4-1.2-.7-1.7-1.2-.8-1.1-1-1.8-.3-1.5-.3-2.3.1-1.7.3-2.4zm1.9 4.1c.2.5.4 1 .7 1.3s.7.6 1.1.8.9.3 1.3.3.9-.1 1.3-.3.8-.5 1.1-.8c.3-.4.6-.8.7-1.3.2-.5.3-1.1.3-1.8s-.1-1.3-.3-1.8c-.2-.5-.4-1-.7-1.3-.3-.4-.7-.6-1.1-.8-.4-.2-.9-.3-1.3-.3s-.9.1-1.3.3c-.4.2-.8.5-1.1.8-.3.4-.6.8-.7 1.3-.2.5-.3 1.1-.3 1.8s.1 1.2.3 1.8z"/></svg>