<svg xmlns="http://www.w3.org/2000/svg" viewBox="0 0 568.55 45.49"><g data-name="Layer 2"><g data-name="Layer 1"><path d="M104.46 1.14L92.62 31.93q.09-1.07.09-2.13c0-7-4.64-10-10.66-11.81l-2.86-.86c-2-.63-5-1.6-5-4.12S77 9.4 79 9.4a11.77 11.77 0 017.45 2.87l4.46-8.69A29.45 29.45 0 0077.41 0C72 0 67.57 2.23 65 6V1.14H26.47v22.73c0 5.62-.4 11.74-7.62 11.74s-7.62-6.1-7.62-11.72V1.16H0v24.28C0 31 .23 36.5 4.53 40.68c3.6 3.56 9.28 4.81 14.32 4.81s10.69-1.25 14.32-4.81c4.3-4.18 4.53-9.68 4.53-15.24V10.69h6.76v33.69h11.23V10.69H63a16.07 16.07 0 00-.46 3.84c0 8.36 4.68 10.2 11.69 12.2 2.41.67 6.82 1.79 6.82 4.93S78.21 36 75.58 36c-3.84 0-7.17-2-10-4.48l-4.78 9A26.67 26.67 0 0076 45.49a18.94 18.94 0 0012.26-4.06 10.59 10.59 0 001.17-1.15l-1.57 4.07h11.93l3-7.51h15.48l2.73 7.51h12L116.71 1.14zm1.37 27.1l4.64-13.74h.12l4.58 13.74z" fill="#f15a22"/><path d="M166 3.89l16 40.84h-6l-4.45-12.29H154.2l-4.58 12.29h-5.55L160 3.89zm3.81 24L163 8.83h-.11l-6.93 19zm31.95-7.58a7.4 7.4 0 00-4.94-1.55 9.17 9.17 0 00-4.4 1 7.88 7.88 0 00-2.83 2.58 10.49 10.49 0 00-1.52 3.66 20.26 20.26 0 00-.46 4.32 16.84 16.84 0 00.48 4 10.77 10.77 0 001.52 3.47 7.65 7.65 0 002.69 2.43 8.11 8.11 0 003.95.91 7.9 7.9 0 005.63-1.9 8.55 8.55 0 002.49-5.33h5a13.67 13.67 0 01-4.09 8.47q-3.28 3-9 3a15.44 15.44 0 01-6-1.08 11.64 11.64 0 01-4.3-3.07 13.26 13.26 0 01-2.63-4.78 20 20 0 01-.89-6.09 21.41 21.41 0 01.86-6.21 14.37 14.37 0 012.6-5 12.19 12.19 0 014.38-3.38 14.44 14.44 0 016.12-1.23 17.92 17.92 0 014.72.6 11.5 11.5 0 013.88 1.86 10.16 10.16 0 012.77 3.17 11.78 11.78 0 011.37 4.55h-5a7.4 7.4 0 00-2.4-4.4zm38.7 24.32a6.94 6.94 0 01-3.49.74 4.21 4.21 0 01-3-1 4.63 4.63 0 01-1.11-3.47 11.79 11.79 0 01-4.67 3.47 16.22 16.22 0 01-9.55.59 8.85 8.85 0 01-3.12-1.43 6.84 6.84 0 01-2.1-2.53 8.64 8.64 0 01-.77-3.81 8.64 8.64 0 01.86-4.12 7.44 7.44 0 012.26-2.6A10.47 10.47 0 01219 28.9a37.32 37.32 0 013.69-.85c1.27-.23 2.6-.47 3.81-.64a21.27 21.27 0 003.17-.57 5.18 5.18 0 002.17-1.09 2.66 2.66 0 00.81-2.06 4.87 4.87 0 00-.6-2.54 4.19 4.19 0 00-1.57-1.53 6.54 6.54 0 00-2.11-.69 16.35 16.35 0 00-2.32-.17 10.35 10.35 0 00-5.15 1.18c-1.37.78-2.12 2.26-2.23 4.44h-4.87a10.71 10.71 0 011.15-4.64 8.63 8.63 0 012.76-3A11.69 11.69 0 01221.6 15a20.87 20.87 0 014.72-.51 27.93 27.93 0 014 .28 10.4 10.4 0 013.56 1.23 6.9 6.9 0 012.57 2.49 7.93 7.93 0 011 4.13v15.14a11.41 11.41 0 00.2 2.54c.14.53.58.8 1.34.8a5.72 5.72 0 001.49-.23zm-7.9-15.17a6.2 6.2 0 01-2.4 1q-1.49.32-3.12.51c-1.09.13-2.19.29-3.29.46a11.76 11.76 0 00-3 .82 5.35 5.35 0 00-2.14 1.62 4.49 4.49 0 00-.83 2.88 3.87 3.87 0 00.48 2 4.07 4.07 0 001.27 1.34 5.51 5.51 0 001.8.71 10.52 10.52 0 002.17.23 11.54 11.54 0 004.12-.64 8.36 8.36 0 002.8-1.65A6.41 6.41 0 00232 36.6a5.37 5.37 0 00.52-2.19zm33.2 15.27v-4h-.11a7.15 7.15 0 01-3.81 3.55 14.29 14.29 0 01-5.66 1.08 13.3 13.3 0 01-6-1.27 12.28 12.28 0 01-4.18-3.37 14.57 14.57 0 01-2.53-4.92 20.35 20.35 0 01-.86-5.95 21 21 0 01.83-6 14 14 0 012.5-4.85 12.08 12.08 0 014.24-3.32 13.42 13.42 0 015.92-1.23 14.41 14.41 0 012.45.23 12.69 12.69 0 012.64.77 11.34 11.34 0 012.48 1.43 8 8 0 012 2.2h.11V3.89h4.87v40.84zm-17.47-10.49a10.69 10.69 0 001.71 3.51 8.07 8.07 0 002.85 2.47 8.81 8.81 0 004.1.91 8 8 0 007-3.51 10.72 10.72 0 001.5-3.62 17.43 17.43 0 000-8.25 10.35 10.35 0 00-1.63-3.57 8.37 8.37 0 00-2.88-2.51 9.12 9.12 0 00-4.29-.95 8.44 8.44 0 00-4.18 1 7.9 7.9 0 00-2.75 2.58 11.21 11.21 0 00-1.5 3.7 19.44 19.44 0 00-.46 4.23 14.89 14.89 0 00.53 4.01zm50.02 8.61a13.36 13.36 0 01-8.31 2.54 15.21 15.21 0 01-6.15-1.14 12.12 12.12 0 01-4.38-3.18 13.53 13.53 0 01-2.66-5 23.58 23.58 0 01-1-6.24 17.74 17.74 0 011-6.17 14.72 14.72 0 012.89-4.86 13 13 0 014.41-3.18 13.49 13.49 0 015.57-1.14 12.1 12.1 0 016.55 1.63 13 13 0 014.18 4.15 16.22 16.22 0 012.17 5.49 23.47 23.47 0 01.49 5.67h-22.18a11.45 11.45 0 00.46 3.68 8.28 8.28 0 001.65 3.12 8.07 8.07 0 002.92 2.15 10.13 10.13 0 004.17.8 8.42 8.42 0 005.08-1.43 7 7 0 002.6-4.35h4.81a11.75 11.75 0 01-4.27 7.46zm-1.17-19a8.51 8.51 0 00-1.78-2.66 8.35 8.35 0 00-6-2.43 8.46 8.46 0 00-3.4.64 7.83 7.83 0 00-2.6 1.8 8.51 8.51 0 00-1.72 2.66 10 10 0 00-.75 3.23h17a10.3 10.3 0 00-.75-3.24zm15.16-8.69v4.35h.12A11.5 11.5 0 01327 15.62a6.38 6.38 0 013.17 3.89 10.37 10.37 0 013.83-3.72 11.13 11.13 0 015.35-1.32 15.66 15.66 0 014 .49 8.33 8.33 0 013.09 1.51 7.15 7.15 0 012 2.67 9.86 9.86 0 01.71 3.91v21.68h-4.86V25.34a14.79 14.79 0 00-.23-2.57 5.33 5.33 0 00-.86-2.09 4.31 4.31 0 00-1.74-1.4 7 7 0 00-2.9-.52 7.64 7.64 0 00-5.56 2.07 7.38 7.38 0 00-2.06 5.48v18.41h-4.86V25.34a12.29 12.29 0 00-.26-2.63 5.54 5.54 0 00-.89-2.09 4.15 4.15 0 00-1.68-1.37 6.5 6.5 0 00-2.72-.49 7.25 7.25 0 00-3.63.85 8.3 8.3 0 00-3.81 4.55 7.15 7.15 0 00-.43 2.15v18.4h-4.86V15.16zM356 9.84V3.89h4.86v5.95zm4.86 5.32v29.57H356V15.16zm24.58 5.15a7.4 7.4 0 00-4.92-1.55 9.08 9.08 0 00-4.4 1 8 8 0 00-2.84 2.58 10.66 10.66 0 00-1.51 3.66 20.26 20.26 0 00-.46 4.32 16.35 16.35 0 00.49 4 10.74 10.74 0 001.51 3.47 7.65 7.65 0 002.69 2.43 8.11 8.11 0 003.95.91 7.94 7.94 0 005.64-1.9 8.54 8.54 0 002.48-5.33h5a13.67 13.67 0 01-4.07 8.47q-3.29 3-8.95 3a15.46 15.46 0 01-6-1.08 11.67 11.67 0 01-4.35-3.09 13.52 13.52 0 01-2.7-4.79 20.26 20.26 0 01-.88-6.09 22.12 22.12 0 01.86-6.21 14.37 14.37 0 012.6-5A12.19 12.19 0 01374 15.7a14.48 14.48 0 016.12-1.23 17.87 17.87 0 014.72.6 11.55 11.55 0 013.89 1.86 10.19 10.19 0 012.78 3.17 11.79 11.79 0 011.38 4.56h-5a7.42 7.42 0 00-2.45-4.35zm46.85-16.42l16 40.84h-6l-4.44-12.29h-17.3l-4.58 12.29h-5.55l15.9-40.84zm3.78 24l-6.81-19h-.11l-6.93 19zm11.25-8.44v-4.29h5v-4.4a7 7 0 012.09-5.47q2.08-1.86 6.09-1.86a13.65 13.65 0 011.57.12 8.56 8.56 0 011.58.34v4.23a6 6 0 00-1.37-.31 10.66 10.66 0 00-1.38-.09 4.64 4.64 0 00-2.74.69 3 3 0 00-1 2.63v4.12h5.71v4.29h-5.71v25.28h-4.86V19.45zm17.75 0v-4.29h5v-4.4a7 7 0 012.09-5.47 8.89 8.89 0 016.09-1.86 14.18 14.18 0 011.59.12 8.45 8.45 0 011.57.34v4.23a5.79 5.79 0 00-1.41-.31 10.62 10.62 0 00-1.37-.09 4.66 4.66 0 00-2.75.69 3 3 0 00-1 2.63v4.12h5.71v4.29h-5.71v25.28h-4.86V19.45zm45.11 25.18a6.92 6.92 0 01-3.49.74 4.17 4.17 0 01-3-1 4.63 4.63 0 01-1.12-3.47 11.69 11.69 0 01-4.66 3.47 16.12 16.12 0 01-9.52.59 8.68 8.68 0 01-3.12-1.43 6.84 6.84 0 01-2.09-2.53 8.64 8.64 0 01-.77-3.81 8.64 8.64 0 01.86-4.12 7.44 7.44 0 012.26-2.6 10.42 10.42 0 013.17-1.52 36.67 36.67 0 013.69-.85c1.33-.27 2.6-.48 3.81-.64a21.27 21.27 0 003.17-.57 5.28 5.28 0 002.18-1.09 2.69 2.69 0 00.8-2.06 4.9 4.9 0 00-.64-2.54 4.08 4.08 0 00-1.54-1.49 6.36 6.36 0 00-2.12-.69 16.35 16.35 0 00-2.32-.17 10.25 10.25 0 00-5.12 1.14c-1.38.78-2.12 2.26-2.24 4.44h-4.86a10.56 10.56 0 011.14-4.64 8.69 8.69 0 012.78-3 11.49 11.49 0 013.92-1.79 20.81 20.81 0 014.72-.51 27.93 27.93 0 014 .28 10.49 10.49 0 013.55 1.23 6.92 6.92 0 012.58 2.49 7.93 7.93 0 011 4.16v15.11a11.41 11.41 0 00.2 2.54c.13.53.58.8 1.35.8a5.71 5.71 0 001.48-.23zm-7.89-15.17a6.18 6.18 0 01-2.41 1c-1 .21-2 .38-3.11.51s-2.18.29-3.3.46a11.62 11.62 0 00-3 .82 5.31 5.31 0 00-2.15 1.62 4.49 4.49 0 00-.83 2.88 4 4 0 00.48 2 4.07 4.07 0 001.27 1.34 5.3 5.3 0 001.8.71 10.52 10.52 0 002.17.23 11.48 11.48 0 004.11-.64 8.3 8.3 0 002.81-1.65 6.41 6.41 0 001.6-2.16 5.37 5.37 0 00.52-2.19zm12.17-19.62V3.89h4.86v5.95zm4.86 5.32v29.57h-4.86V15.16zm11.2 0v6.24h.12a13.13 13.13 0 014.36-5.33 11 11 0 016.52-1.6v5.15a13.87 13.87 0 00-5 .8 7.87 7.87 0 00-3.31 2.35 9.61 9.61 0 00-1.84 3.75 20.59 20.59 0 00-.57 5.07v13.14H526V15.16zM549 38.13a5.26 5.26 0 001.8 1.77 8.05 8.05 0 002.54 1 14.75 14.75 0 002.89.28 17.49 17.49 0 002.4-.17 8.88 8.88 0 002.32-.64 4.26 4.26 0 001.78-1.37 3.58 3.58 0 00.69-2.26 3.25 3.25 0 00-1.42-2.9 12.05 12.05 0 00-3.58-1.57c-1.42-.41-3-.77-4.66-1.09a24.42 24.42 0 01-4.66-1.37 9.61 9.61 0 01-3.58-2.49 6.44 6.44 0 01-1.42-4.44 7 7 0 011-3.81 8.09 8.09 0 012.54-2.6 11.74 11.74 0 013.51-1.47 16.25 16.25 0 013.92-.49 23.3 23.3 0 014.64.43 10.69 10.69 0 013.75 1.49 7.72 7.72 0 012.66 2.84 11 11 0 011.14 4.48h-4.89a4.62 4.62 0 00-2.37-3.87 6.88 6.88 0 00-2.14-.82 10 10 0 00-2.37-.26 13.62 13.62 0 00-2.21.17 7.29 7.29 0 00-2 .6 4.24 4.24 0 00-1.49 1.14 2.89 2.89 0 00-.57 1.86 2.77 2.77 0 00.89 2.09 7.17 7.17 0 002.25 1.34 19.59 19.59 0 003.09.92l3.43.77c1.14.26 2.41.59 3.57 1a11.26 11.26 0 013.09 1.52 7.34 7.34 0 012.18 2.36 7 7 0 01.83 3.55 8.34 8.34 0 01-1.11 4.44 8.87 8.87 0 01-2.92 2.86 12.4 12.4 0 01-4.06 1.52 24.31 24.31 0 01-4.5.42 20.61 20.61 0 01-4.69-.51 11.32 11.32 0 01-3.94-1.69 8.51 8.51 0 01-2.75-3.09 10.65 10.65 0 01-1.14-4.66h4.86a5.42 5.42 0 00.7 2.72z" fill="#fff"/></g></g></svg>