<?xml version="1.0" encoding="UTF-8"?><svg id="Layer_2" xmlns="http://www.w3.org/2000/svg" viewBox="0 0 677.44 420.81"><defs><style>.cls-1{fill:#002950;}.cls-2{fill:#f15a22;}.cls-3{fill:#ebebeb;}.cls-4{fill:#eb996e;}.cls-5,.cls-6,.cls-7{fill:#fff;}.cls-8{fill:#ff725e;}.cls-9{fill:#b75544;}.cls-10{fill:#b74e13;}.cls-11{fill:#ad6659;}.cls-12{fill:#e0e0e0;}.cls-13{fill:#d6957f;}.cls-14{fill:#0c2340;}.cls-15{fill:#455a64;}.cls-16,.cls-17{fill:#263238;}.cls-6{isolation:isolate;}.cls-6,.cls-18{opacity:.8;}.cls-19{opacity:.3;}.cls-20{opacity:.4;}.cls-21{fill:#495a70;}.cls-21,.cls-17{opacity:.5;}.cls-7{opacity:.3;}</style></defs><g id="Layer_1-2"><g id="freepik--background-complete--inject-17"><path class="cls-3" d="m433.63,407.99c8.03-4.5,18.18-1.64,22.68,6.38,1.11,1.98,1.81,4.17,2.04,6.44-10.1,0-20-2.35-24.72-12.82"/><path class="cls-3" d="m445.39,397.64c11.31,3.71,23.48-2.45,27.2-13.75.92-2.8,1.26-5.77.98-8.71-12.83,2.52-24.87,8-28.18,22.46"/><path class="cls-12" d="m401.42,414.73c.2-.1.41-.19.63-.25l1.85-.62c1.6-.52,3.92-1.28,6.77-2.27,5.71-2,13.54-4.84,22-8.51,4.21-1.85,8.17-3.73,11.73-5.53s6.67-3.58,9.25-5.15c2.03-1.22,3.99-2.56,5.87-4,1.32-1,2-1.71,2-1.67-.13.18-.28.35-.45.5-.45.47-.93.91-1.43,1.33-1.84,1.53-3.78,2.93-5.81,4.19-2.55,1.62-5.68,3.4-9.22,5.26s-7.52,3.73-11.75,5.59c-8.45,3.68-16.32,6.5-22.06,8.38-2.87.95-5.21,1.65-6.83,2.11l-1.87.53c-.22.07-.45.1-.68.11Z"/><path class="cls-12" d="m446.63,413.87c0,.08-1.22-.74-3.23-1.83-2.63-1.41-5.4-2.52-8.27-3.32-2.88-.78-5.84-1.23-8.82-1.35-2.28-.09-3.71,0-3.71-.08.33-.1.66-.15,1-.16.91-.1,1.82-.14,2.73-.13,6.07.03,12.02,1.65,17.26,4.72.79.46,1.55.96,2.28,1.51.28.18.54.39.76.64Z"/><path class="cls-3" d="m208.36,368.91c-4.07,10.86,1.43,22.96,12.29,27.04,2.69,1.01,5.55,1.45,8.41,1.31-1.92-12.58-6.76-24.54-20.7-28.35"/><path class="cls-12" d="m206.39,362.73c.08,0,.42,1.38,1.15,3.57.95,2.85,2.14,5.62,3.55,8.28,1.43,2.64,3.08,5.17,4.93,7.54,1.43,1.82,2.4,2.88,2.34,2.94-.28-.19-.54-.41-.76-.67-.47-.46-1.11-1.15-1.86-2-3.93-4.66-6.85-10.09-8.55-15.94-.32-1.12-.55-2-.66-2.68-.1-.34-.15-.69-.14-1.04Z"/><path class="cls-3" d="m8.52,116.57c-6.32,16.82,2.19,35.57,19.01,41.89,4.18,1.57,8.64,2.26,13.1,2.04-3-19.5-10.47-38-32.07-43.93"/><path class="cls-12" d="m5.46,107.01c.2.48.36.98.47,1.49.26,1,.67,2.36,1.22,4.07,1.45,4.44,3.28,8.74,5.48,12.86,2.21,4.12,4.78,8.03,7.68,11.7,1.12,1.4,2,2.52,2.71,3.27.36.38.7.78,1,1.21-.41-.32-.79-.68-1.14-1.07-.71-.72-1.69-1.8-2.84-3.18-6.04-7.24-10.54-15.63-13.23-24.67-.51-1.72-.87-3.14-1.07-4.12-.13-.51-.22-1.03-.28-1.56Z"/><path class="cls-3" d="m42.31,315.61c-9.04,7.27-10.47,20.49-3.2,29.53,1.8,2.24,4.04,4.09,6.59,5.42,4.75-11.81,6.67-24.56-3.39-34.95"/><path class="cls-12" d="m43.75,309.29c.08,0-.33,1.41-.82,3.66-1.29,5.89-1.55,11.96-.75,17.94.3,2.29.6,3.7.51,3.72-.14-.32-.25-.66-.31-1-.17-.63-.37-1.55-.57-2.69-1-6.01-.74-12.17.76-18.08.29-1.13.57-2,.79-2.64.09-.32.23-.62.39-.91Z"/><path class="cls-3" d="m227.89,62.75c10.38,5.17,22.99.94,28.16-9.44,1.28-2.57,2.02-5.37,2.17-8.24-12.72.61-25.1,4.2-30.33,17.68"/><path class="cls-12" d="m221.54,64.13c0-.08,1.42-.28,3.67-.78,5.89-1.29,11.51-3.59,16.61-6.81,2-1.24,3.11-2.09,3.16-2-.21.26-.46.5-.74.69-.5.42-1.26,1-2.22,1.64-5.04,3.43-10.74,5.77-16.73,6.87-1.15.21-2.08.33-2.73.39-.34.05-.68.05-1.02,0Z"/><path class="cls-3" d="m201.97,60.94c14.95-3.21,24.47-17.93,21.26-32.88-.79-3.7-2.34-7.2-4.54-10.29-12.6,11.09-22.42,25-16.72,43.17"/><path class="cls-12" d="m196.52,67.52c.25-.36.53-.69.84-1,.57-.63,1.38-1.57,2.34-2.75,5.04-6.16,8.95-13.17,11.53-20.7.5-1.44.87-2.62,1.11-3.44.1-.43.24-.86.43-1.26-.03.44-.11.88-.24,1.31-.17.84-.5,2-1,3.5-2.4,7.66-6.34,14.75-11.59,20.82-1,1.16-1.86,2.07-2.48,2.66-.28.32-.6.61-.94.86Z"/><path class="cls-3" d="m284,403.5c3.16,6.23,10.78,8.72,17.01,5.55,1.53-.78,2.89-1.86,3.99-3.18-6.36-4.28-13.64-7-21-2.37"/><path class="cls-12" d="m280.46,401.86c2.34,1.04,4.74,1.92,7.2,2.64,2.5.55,5.03.93,7.58,1.14-.74.16-1.51.21-2.27.14-3.68-.13-7.29-1.05-10.58-2.71-.7-.3-1.35-.71-1.93-1.21Z"/><path class="cls-3" d="m376.7,44.46c4.29,5.5,12.24,6.48,17.74,2.19,1.37-1.07,2.5-2.4,3.33-3.93-7.07-3-14.73-4.23-21.07,1.74"/><path class="cls-12" d="m372.91,43.54c4.97,1.3,10.15,1.59,15.23.85-.7.3-1.44.49-2.2.57-3.64.59-7.36.38-10.91-.61-.74-.16-1.46-.43-2.12-.81Z"/><path class="cls-3" d="m616.94,75.22c11.18,3.08,22.74-3.49,25.82-14.68.76-2.76.95-5.64.55-8.47-12.36,3-23.82,8.93-26.37,23.15"/><path class="cls-12" d="m610.96,77.74c0-.08,1.33-.55,3.45-1.47,5.54-2.39,10.61-5.73,15-9.86,1.69-1.59,2.65-2.65,2.72-2.59-.16.3-.37.57-.6.81-.41.51-1,1.21-1.86,2-4.29,4.33-9.44,7.71-15.11,9.94-1.08.42-2,.73-2.6.9-.32.13-.66.22-1,.27Z"/><path class="cls-3" d="m640.63,380.01c19.67-4.55,31.92-24.19,27.36-43.85-1.12-4.85-3.23-9.43-6.18-13.44-16.43,14.89-29.09,33.41-21.18,57.29"/><path class="cls-12" d="m633.54,388.81c.34-.48.71-.93,1.12-1.36.75-.84,1.8-2.09,3.05-3.66s2.69-3.5,4.18-5.7,3-4.71,4.47-7.41,2.67-5.36,3.7-7.82,1.84-4.71,2.45-6.63,1.07-3.48,1.36-4.57c.13-.57.3-1.14.52-1.68-.06.58-.17,1.16-.32,1.73-.23,1.11-.64,2.69-1.21,4.63s-1.36,4.22-2.35,6.71-2.24,5.15-3.69,7.88c-1.38,2.55-2.9,5.03-4.53,7.43-1.53,2.2-3,4.11-4.29,5.66s-2.4,2.77-3.19,3.57c-.39.44-.81.85-1.27,1.22Z"/></g><g id="freepik--Shape--inject-17"><path class="cls-8" d="m504.85,253.93c-6.31-35.25-36.58-66-72.27-68.94-19.45-1.58-39,4.55-58.37,2.21-16.42-2.05-31.52-10.01-42.49-22.4-16-18.2-21.41-44.09-38.35-61.41-23.34-23.89-64.07-24.26-92.47-6.69-28.4,17.57-45.57,49.28-53.43,81.73l-.31,9.87c-1.71,33.66,7.15,72.83,26.68,102.83,19.79,30.4,32.8,43,68.86,64.81,30.62,18.56,90.58,26.72,126.38,27.58s72.57-9.8,99.5-33.42,42.59-60.92,36.27-96.17Z"/><g class="cls-18"><path class="cls-5" d="m504.85,253.93c-6.31-35.25-36.58-66-72.27-68.94-19.45-1.58-39,4.55-58.37,2.21-16.42-2.05-31.52-10.01-42.49-22.4-16-18.2-21.41-44.09-38.35-61.41-23.34-23.89-64.07-24.26-92.47-6.69-28.4,17.57-45.57,49.28-53.43,81.73l-.31,9.87c-1.71,33.66,7.15,72.83,26.68,102.83,19.79,30.4,32.8,43,68.86,64.81,30.62,18.56,90.58,26.72,126.38,27.58s72.57-9.8,99.5-33.42,42.59-60.92,36.27-96.17Z"/></g><circle class="cls-8" cx="522.87" cy="377.31" r="17.25"/><circle class="cls-6" cx="522.87" cy="377.31" r="17.25"/></g><g id="freepik--error-404--inject-17"><path class="cls-8" d="m401.79,244.58c.33,34.44-7.18,60.77-22.52,79s-36.34,27.46-63,27.7c-26.8.26-48.1-8.57-63.91-26.48-15.81-17.91-23.88-44.09-24.22-78.52l-.58-60.56c-.33-34.31,7.17-60.64,22.52-79,15.35-18.36,36.42-27.65,63.21-27.88,26.67-.26,47.91,8.63,63.73,26.67,15.82,18.04,23.89,44.21,24.21,78.51l.56,60.56Zm-44.83-66.92c-.22-21.69-4-37.7-11.33-48.04s-18-15.45-32-15.32c-13.95.13-24.48,5.44-31.59,15.93-7.11,10.49-10.58,26.57-10.41,48.25l.7,73.59c.21,21.8,4.03,37.9,11.47,48.31s18.13,15.54,32.07,15.41c13.94-.13,24.44-5.44,31.49-15.93,7.05-10.49,10.48-26.69,10.27-48.61l-.67-73.59Z"/><g class="cls-20"><path class="cls-1" d="m401.79,244.58c.33,34.44-7.18,60.77-22.52,79s-36.34,27.46-63,27.7c-26.8.26-48.1-8.57-63.91-26.48-15.81-17.91-23.88-44.09-24.22-78.52l-.58-60.56c-.33-34.31,7.17-60.64,22.52-79,15.35-18.36,36.42-27.65,63.21-27.88,26.67-.26,47.91,8.63,63.73,26.67,15.82,18.04,23.89,44.21,24.21,78.51l.56,60.56Zm-44.83-66.92c-.22-21.69-4-37.7-11.33-48.04s-18-15.45-32-15.32c-13.95.13-24.48,5.44-31.59,15.93-7.11,10.49-10.58,26.57-10.41,48.25l.7,73.59c.21,21.8,4.03,37.9,11.47,48.31s18.13,15.54,32.07,15.41c13.94-.13,24.44-5.44,31.49-15.93,7.05-10.49,10.48-26.69,10.27-48.61l-.67-73.59Z"/></g><path class="cls-2" d="m427.25,244.34c.33,34.43-7.17,60.77-22.52,79-15.35,18.23-36.35,27.47-63,27.7-26.8.26-48.1-8.57-63.91-26.49-15.81-17.92-23.87-44.1-24.19-78.54l-.58-60.56c-.33-34.31,7.17-60.64,22.52-79,15.35-18.36,36.42-27.66,63.21-27.89,26.67-.25,47.91,8.64,63.73,26.67,15.82,18.03,23.86,44.21,24.12,78.55l.62,60.56Zm-44.83-66.92c-.21-21.68-4.01-37.68-11.38-48-7.37-10.32-18.04-15.43-32-15.32-13.95.14-24.48,5.45-31.59,15.93-7.11,10.48-10.56,26.57-10.36,48.26l.71,73.58c.21,21.81,4.04,37.91,11.47,48.32,7.43,10.41,18.12,15.54,32.07,15.41,13.94-.14,24.44-5.45,31.49-15.93,7.05-10.48,10.47-26.69,10.26-48.62l-.67-73.63Z"/><path class="cls-8" d="m253.18,189.05c.05.13-5.86,2.48-13.2,5.24s-13.35,4.84-13.35,4.75,5.86-2.48,13.2-5.24,13.3-4.89,13.35-4.75Z"/><path class="cls-8" d="m254.63,212.98c.05.13-5.86,2.48-13.21,5.24-7.35,2.76-13.33,4.88-13.38,4.75s5.86-2.48,13.2-5.24,13.39-4.89,13.39-4.75Z"/><path class="cls-8" d="m256.12,236.91c.05.13-5.86,2.48-13.21,5.24s-13.28,4.88-13.38,4.75,5.86-2.48,13.2-5.24,13.34-4.89,13.39-4.75Z"/><path class="cls-8" d="m257.63,260.84c.05.13-5.86,2.48-13.21,5.24s-13.34,4.88-13.39,4.75,5.87-2.48,13.21-5.24,13.3-4.89,13.39-4.75Z"/><path class="cls-8" d="m259.06,284.77c-.29.19-.6.34-.92.45-.6.26-1.48.62-2.56,1.05-2.18.87-5.19,2-8.53,3.29s-6.38,2.36-8.59,3.14c-1.1.39-2,.7-2.62.9-.32.13-.66.22-1,.26.29-.19.6-.34.92-.45.6-.26,1.47-.62,2.56-1,2.17-.87,5.19-2,8.53-3.29s6.38-2.37,8.59-3.14c1.1-.39,2-.7,2.62-.9.32-.15.65-.26,1-.31Z"/><path class="cls-8" d="m265.89,306.66c-.96.52-1.97.96-3,1.33-1.9.76-4.53,1.78-7.44,2.88s-5.57,2.06-7.49,2.73c-1.03.42-2.08.75-3.16,1,.96-.52,1.97-.97,3-1.33,1.89-.77,4.52-1.79,7.44-2.88s5.56-2.06,7.49-2.73c1.02-.42,2.08-.76,3.16-1Z"/><path class="cls-8" d="m280.52,326.74c-.86.48-1.76.88-2.69,1.21-1.69.68-4,1.59-6.62,2.57s-5,1.83-6.68,2.42c-.91.37-1.86.66-2.82.87.86-.48,1.76-.89,2.69-1.21,1.68-.68,4-1.59,6.62-2.57s5-1.83,6.68-2.43c.91-.37,1.86-.66,2.82-.86Z"/><path class="cls-8" d="m304.83,339.91c-.86.47-1.76.87-2.69,1.2-1.69.69-4,1.6-6.62,2.57s-5,1.83-6.68,2.43c-.91.37-1.86.66-2.82.86.86-.48,1.76-.88,2.69-1.21,1.69-.68,4-1.59,6.62-2.57s5-1.83,6.68-2.42c.91-.38,1.85-.66,2.82-.86Z"/><path class="cls-8" d="m378.15,288.84c.06.13-7.53,3.67-16.95,7.91s-17.11,7.56-17.17,7.43,7.53-3.67,17-7.91,17.06-7.56,17.12-7.43Z"/><path class="cls-8" d="m383.13,268.34c.06.13-6.21,3.07-14,6.57s-14.15,6.24-14.21,6.11,6.2-3.08,14-6.58,14.15-6.23,14.21-6.1Z"/><path class="cls-8" d="m385.42,245.31c.06.13-6.21,3.07-14,6.57s-14.15,6.24-14.21,6.11,6.2-3.08,14-6.58,14.15-6.28,14.21-6.1Z"/><path class="cls-8" d="m387.71,222.27c.06.13-6.2,3.08-14,6.58s-14.15,6.23-14.21,6.1,6.21-3.07,14-6.57,14.13-6.25,14.21-6.11Z"/><path class="cls-8" d="m390.01,199.24c.05.13-6.21,3.08-14,6.58s-14.15,6.23-14.21,6.1,6.21-3.07,14-6.58,14.15-6.21,14.21-6.1Z"/><path class="cls-8" d="m385.42,178.73c.06.13-6.21,3.08-14,6.58s-14.15,6.23-14.21,6.1,6.2-3.08,14-6.58,14.15-6.23,14.21-6.1Z"/><path class="cls-8" d="m385.42,156.65c.06.13-6.21,3.08-14,6.58s-14.15,6.23-14.21,6.1,6.2-3.08,14-6.58,14.15-6.23,14.21-6.1Z"/><path class="cls-8" d="m383.13,135.86c.06.13-6.21,3.07-14,6.57s-14.15,6.24-14.21,6.11,6.2-3.08,14-6.58,14.15-6.23,14.21-6.1Z"/><path class="cls-8" d="m363.38,121.37c-2.75,1.52-5.57,2.89-8.47,4.1-2.83,1.37-5.73,2.57-8.69,3.62,2.74-1.53,5.57-2.9,8.47-4.1,2.83-1.37,5.73-2.57,8.69-3.62Z"/><path class="cls-8" d="m352.82,112.5c-2.75,1.51-5.58,2.88-8.47,4.09-2.83,1.37-5.73,2.57-8.69,3.62,2.75-1.51,5.57-2.88,8.47-4.08,2.83-1.37,5.73-2.58,8.69-3.63Z"/><path class="cls-8" d="m254.31,160.04c.05.13-5.86,2.48-13.2,5.24s-13.34,4.89-13.39,4.75,5.86-2.48,13.21-5.24,13.33-4.88,13.38-4.75Z"/><path class="cls-8" d="m261.63,130.2c.06.13-6.36,2.66-14.31,5.66s-14.46,5.3-14.51,5.17,6.36-2.67,14.32-5.66,14.5-5.31,14.5-5.17Z"/><path class="cls-8" d="m280.9,100.66c.05.14-8.08,3.31-18.16,7.1s-18.29,6.75-18.34,6.62,8.08-3.32,18.16-7.11,18.29-6.74,18.34-6.61Z"/><path class="cls-5" d="m422.94,289.13l-.42-.14-1.2-.47c-.53-.19-1.22-.34-2-.56-.93-.18-1.88-.3-2.83-.35-4.27-.27-10.67,1.28-16.86,5.92-3.35,2.54-6.35,5.51-8.93,8.83-2.87,3.51-5.68,7.48-8.87,11.48-3.25,4.29-7.13,8.06-11.52,11.17-4.81,3.24-10.23,5.44-15.94,6.46-5.71,1.03-11.56.83-17.19-.57-5.19-1.36-10.24-3.23-15.06-5.59-4.65-2.15-9-4.34-13.14-6.15-3.85-1.7-7.85-3.05-11.94-4.03-3.37-.8-6.83-1.19-10.3-1.18-2.62.02-5.22.37-7.75,1.05-1.59.47-3.14,1.07-4.62,1.81l-1.14.6c-.13.08-.26.14-.4.19l.37-.23,1.12-.65c1.47-.79,3.01-1.42,4.61-1.91,2.54-.72,5.16-1.1,7.8-1.15,3.5-.05,6.98.33,10.39,1.11,4.11.97,8.13,2.31,12,4,4.18,1.8,8.53,4,13.17,6.12,4.81,2.33,9.83,4.18,15,5.52,5.56,1.39,11.36,1.58,17,.56,5.63-1.01,11-3.18,15.75-6.37,4.36-3.08,8.21-6.8,11.44-11.05,3.19-4,6-7.94,8.91-11.46,2.6-3.33,5.62-6.31,9-8.85,6.28-4.64,12.77-6.16,17.09-5.82.96.06,1.92.19,2.86.39.8.25,1.49.41,2,.62l1.19.52.41.18Z"/><path class="cls-5" d="m429.25,222.43s-.71.14-1.95.55c-1.72.63-3.35,1.5-4.83,2.59-1.9,1.33-4,3.19-6.41,5.11-2.66,2.07-5.54,3.85-8.59,5.29-5.53,2.65-11.53,4.2-17.66,4.56-1.17.1-2.24.07-3.17.09s-1.73-.06-2.38-.11l-1.51-.15c-.17,0-.35-.03-.51-.09.17-.02.35-.02.52,0l1.51.05h2.37c.93-.05,2,0,3.14-.16,6.06-.47,11.98-2.05,17.47-4.67,3.01-1.43,5.87-3.17,8.52-5.2,2.43-1.88,4.54-3.73,6.5-5,1.53-1.08,3.21-1.92,5-2.48.49-.14.98-.25,1.48-.32.16-.05.33-.07.5-.06Z"/><path class="cls-5" d="m298.63,245.6c-.18,0-.36-.04-.54-.08-.36-.08-.89-.16-1.56-.35-1.88-.56-3.68-1.35-5.36-2.35-2.47-1.51-4.81-3.22-7-5.11-2.51-2.08-5.19-4.45-8.26-6.57-2.87-2.03-6.08-3.5-9.49-4.35-4.68-1.15-9.57-1.13-14.24.06-1.33.34-2.05.6-2.06.55.15-.1.32-.18.5-.23.34-.13.84-.33,1.51-.52,1.87-.55,3.8-.88,5.75-1,2.9-.21,5.82.03,8.65.71,3.47.84,6.75,2.33,9.67,4.39,3.11,2.15,5.79,4.54,8.28,6.63,2.16,1.89,4.46,3.62,6.88,5.17,1.65,1.02,3.4,1.84,5.23,2.47.69.16,1.37.35,2.04.58Z"/><path class="cls-5" d="m298.8,151.07c-.54.25-1.1.45-1.67.61-.66.23-1.32.43-2,.59-.79.2-1.68.47-2.69.65s-2.1.43-3.3.58-2.47.29-3.82.41c-2.93.19-5.87.15-8.8-.11-2.92-.29-5.82-.8-8.67-1.53-1.3-.37-2.55-.71-3.68-1.12s-2.19-.79-3.13-1.18-1.78-.8-2.52-1.14-1.35-.67-1.85-.95c-.53-.26-1.04-.57-1.52-.91.55.2,1.09.45,1.61.73.51.25,1.14.56,1.88.87s1.58.71,2.54,1.05,2,.77,3.13,1.12,2.36.71,3.66,1.06c5.66,1.43,11.5,1.98,17.32,1.63,1.34-.11,2.61-.18,3.8-.36s2.28-.33,3.28-.51,1.89-.4,2.68-.57,1.47-.35,2-.5c.57-.18,1.16-.32,1.75-.42Z"/><path class="cls-5" d="m423.57,150.82c-.15-.05-.29-.12-.42-.21l-1.16-.67c-.6-.37-1.22-.7-1.86-1-.82-.44-1.67-.84-2.53-1.19l-1.5-.63c-.53-.21-1.09-.37-1.67-.57-1.14-.42-2.41-.71-3.74-1.06-5.81-1.32-11.84-1.37-17.68-.15-1.27.27-2.52.6-3.76,1-.58.19-1.15.34-1.68.54l-1.51.6c-.87.34-1.72.72-2.55,1.15-.64.29-1.27.63-1.87,1l-1.18.65c-.27.14-.42.21-.43.19.11-.11.24-.2.38-.28l1.12-.74c.59-.39,1.21-.75,1.85-1.06.82-.46,1.67-.87,2.54-1.23l1.51-.64c.53-.21,1.11-.37,1.69-.57,1.24-.42,2.51-.77,3.79-1.05,5.9-1.29,12.01-1.24,17.89.16,1.34.36,2.62.67,3.77,1.11.58.21,1.15.38,1.67.61l1.51.66c.86.38,1.7.8,2.52,1.27.63.33,1.24.69,1.82,1.1l1.12.76c.25.13.42.23.36.25Z"/><path class="cls-5" d="m362.43,82.89c-.23.17-.47.32-.72.44l-2.08,1.15c-1.85,1-4.53,2.39-7.89,4.07-6.7,3.31-16.11,7.84-27.25,10.66-5.24,1.32-10.6,2.06-16,2.22-4.41.13-8.81-.25-13.13-1.13-2.91-.58-5.76-1.45-8.5-2.59-1-.38-1.69-.78-2.19-1-.26-.11-.51-.24-.75-.39.27.07.54.17.79.3.52.19,1.24.56,2.23.91,2.75,1.06,5.59,1.87,8.49,2.42,4.3.82,8.68,1.16,13.05,1,5.35-.19,10.67-.94,15.87-2.25,11.07-2.8,20.49-7.25,27.22-10.48l8-3.93,2.06-1.06c.26-.13.53-.24.8-.34Z"/><path class="cls-8" d="m161.69,257.13l33.43,1.46-1.55,35.43-33.43-1.46-2.57,58.87-44-1.92,2.57-58.87-113.51-4.96.09-27L123.72,84.88l45.42,2-7.45,170.25Zm-115-5l71,3.1,4.68-107.38-1.07-.41-4,7.65-70.61,97.04Z"/><g class="cls-20"><path class="cls-1" d="m161.69,257.13l33.43,1.46-1.55,35.43-33.43-1.46-2.57,58.87-44-1.92,2.57-58.87-113.51-4.96.09-27L123.72,84.88l45.42,2-7.45,170.25Zm-115-5l71,3.1,4.68-107.38-1.07-.41-4,7.65-70.61,97.04Z"/></g><path class="cls-2" d="m189.63,258.35l33.43,1.46-1.55,35.43-33.43-1.46-2.57,58.87-44-1.92,2.57-58.87-113.56-5,.09-27,121.02-173.73,45.43,2-7.43,170.22Zm-115-5l71.05,3.1,4.68-107.38-1.07-.41-4,7.65-70.66,97.04Z"/><path class="cls-8" d="m31.22,265.05c-.34.24-.7.45-1.08.61-.71.36-1.75.86-3,1.46-2.57,1.21-6.16,2.82-10.17,4.52s-7.66,3.14-10.32,4.15c-1.33.5-2.42.89-3.17,1.15-.38.16-.78.28-1.19.36.35-.23.73-.41,1.12-.55l3.1-1.31,10.22-4.31,10.22-4.37,3.11-1.32c.37-.17.76-.3,1.16-.39Z"/><path class="cls-8" d="m47.5,235.13c-.48.3-.99.56-1.51.79-1,.48-2.42,1.16-4.2,2-3.57,1.62-8.52,3.79-14,6.12s-10.55,4.32-14.16,5.74c-1.82.72-3.3,1.28-4.34,1.65-.52.22-1.06.4-1.62.52.5-.27,1.02-.51,1.55-.71l4.27-1.8,14.11-5.93,14.08-6,4.27-1.81c.5-.24,1.02-.43,1.55-.57Z"/><path class="cls-8" d="m67.37,208.4c-.5.31-1.03.58-1.58.8-1,.48-2.53,1.16-4.39,2-3.73,1.63-8.9,3.8-14.64,6.13s-11,4.36-14.79,5.79c-1.9.71-3.45,1.27-4.52,1.64-.55.22-1.11.4-1.69.52.52-.27,1.07-.51,1.62-.71l4.46-1.8,14.72-5.93,14.69-6,4.46-1.81c.54-.25,1.09-.46,1.66-.63Z"/><path class="cls-8" d="m146.96,239.24c-.34.24-.71.43-1.09.59-.71.35-1.75.83-3.05,1.41-2.58,1.17-6.18,2.72-10.19,4.35s-7.68,3-10.34,4c-1.34.48-2.42.86-3.17,1.11-.39.15-.78.26-1.19.33.35-.22.72-.39,1.11-.52l3.12-1.26,10.28-4.12,10.24-4.2,3.11-1.27c.37-.18.77-.32,1.17-.42Z"/><path class="cls-8" d="m143.72,294.18c-.33.24-.68.43-1.05.59-.69.34-1.7.83-2.95,1.41-2.5,1.17-6,2.72-9.87,4.34s-7.45,3-10,4c-1.3.48-2.35.86-3.08,1.1-.37.16-.76.27-1.16.34.34-.22.7-.39,1.08-.53l3-1.26,10-4.11,9.92-4.2,3-1.26c.35-.18.73-.32,1.11-.42Z"/><path class="cls-8" d="m143.26,313.44c-.31.23-.65.42-1,.58-.69.35-1.7.83-3,1.42-2.5,1.16-6,2.71-9.88,4.34s-7.44,3-10,4c-1.29.48-2.34.86-3.08,1.11-.37.16-.75.27-1.15.33.34-.21.7-.38,1.08-.52l3-1.26,10-4.11,9.93-4.2,3-1.26c.35-.19.72-.33,1.1-.43Z"/><path class="cls-8" d="m142.8,332.69c-.31.23-.65.43-1,.59-.69.35-1.7.83-3,1.41-2.51,1.17-6,2.72-9.88,4.34s-7.44,3-10,4c-1.29.48-2.35.86-3.08,1.1-.37.15-.76.27-1.15.34.34-.22.7-.4,1.08-.53l3-1.25,10-4.12,9.93-4.2,3-1.26c.35-.18.72-.32,1.1-.42Z"/><path class="cls-8" d="m147.48,218.9c-.34.23-.71.43-1.09.59-.71.35-1.75.83-3,1.41-2.58,1.17-6.18,2.72-10.19,4.35s-7.68,3-10.34,4c-1.34.48-2.42.86-3.17,1.1-.38.15-.78.27-1.19.34.35-.22.72-.4,1.11-.53l3.12-1.26,10.28-4.11,10.24-4.2,3.11-1.26c.36-.18.73-.33,1.12-.43Z"/><path class="cls-8" d="m148,198.56c-.34.23-.71.43-1.09.59-.71.34-1.75.83-3.05,1.41-2.58,1.17-6.18,2.72-10.19,4.34s-7.67,3-10.34,4c-1.34.48-2.42.85-3.17,1.1-.38.15-.78.27-1.19.34.35-.22.73-.4,1.12-.53l3.11-1.26,10.28-4.11,10.24-4.2,3.11-1.26c.37-.18.77-.32,1.17-.42Z"/><path class="cls-8" d="m148.52,178.22c-.31.22-.65.41-1,.56-.67.33-1.66.79-2.89,1.35-2.47,1.12-5.89,2.61-9.71,4.15s-7.32,2.87-9.86,3.78c-1.27.45-2.3.81-3,1-.37.15-.75.26-1.14.32.34-.21.69-.38,1.07-.51l3-1.2,9.79-3.91,9.76-4,3-1.2c.31-.15.64-.26.98-.34Z"/><path class="cls-8" d="m150.82,159.21c-1.6.86-3.27,1.58-5,2.13-1.67.71-3.41,1.27-5.19,1.65,1.6-.87,3.27-1.58,5-2.14,1.67-.71,3.41-1.26,5.19-1.64Z"/><path class="cls-8" d="m87.2,180.72c-.5.3-1.03.57-1.57.8-1,.48-2.53,1.15-4.4,2-3.72,1.63-8.89,3.8-14.64,6.13s-11,4.37-14.78,5.79c-1.9.71-3.45,1.27-4.52,1.64-.55.21-1.12.39-1.69.53.52-.29,1.06-.53,1.62-.72l4.46-1.79,14.72-5.97,14.69-6,4.45-1.81c.54-.24,1.09-.44,1.66-.6Z"/><path class="cls-8" d="m107.04,153.03c-.5.31-1.03.58-1.58.8-1,.48-2.53,1.16-4.39,2-3.72,1.62-8.9,3.8-14.64,6.12s-11,4.37-14.78,5.79c-1.91.72-3.45,1.28-4.53,1.65-.54.22-1.11.4-1.68.52.52-.28,1.06-.51,1.61-.71l4.46-1.8,14.72-5.93,14.7-6,4.45-1.82c.54-.25,1.09-.45,1.66-.62Z"/><path class="cls-8" d="m125.37,125.35c-.51.3-1.04.57-1.58.8-1,.48-2.53,1.15-4.39,2-3.72,1.63-8.9,3.8-14.64,6.13s-11,4.37-14.78,5.79c-1.9.71-3.45,1.27-4.52,1.64-.55.21-1.12.39-1.69.53.52-.29,1.06-.53,1.62-.72l4.46-1.79,14.72-5.93,14.69-6,4.45-1.81c.53-.26,1.09-.48,1.66-.64Z"/><path class="cls-8" d="m144.45,98.73c-.51.3-1.04.57-1.58.8-1,.48-2.53,1.15-4.39,2-3.73,1.63-8.9,3.8-14.64,6.13s-11,4.37-14.79,5.79c-1.9.71-3.44,1.27-4.52,1.64-.55.22-1.11.4-1.69.53.52-.28,1.06-.52,1.62-.72l4.46-1.79,14.71-5.98,14.69-6,4.46-1.81c.54-.24,1.1-.43,1.67-.59Z"/><path class="cls-5" d="m195.07,139.4c-.17.24-.36.46-.58.66-.57.62-1.17,1.21-1.81,1.75-2.33,2.04-4.95,3.72-7.77,5-4.21,1.89-8.75,2.91-13.36,3-2.72.05-5.44-.26-8.09-.91-2.82-.72-5.56-1.75-8.17-3.05-5.38-2.62-10.16-5.71-14.83-7.86-4.09-2.01-8.55-3.17-13.1-3.42-3.07-.16-6.13.42-8.93,1.67-.76.35-1.48.77-2.17,1.24-.24.17-.48.33-.74.47.21-.2.44-.38.68-.55.67-.51,1.39-.96,2.14-1.34,2.81-1.34,5.89-1.98,9-1.86,4.62.22,9.14,1.38,13.29,3.41,4.72,2.15,9.52,5.23,14.85,7.83,2.58,1.28,5.29,2.28,8.08,3,2.6.65,5.27.96,7.95.92,7.68-.11,15.09-2.83,21-7.73.85-.68,1.45-1.28,1.87-1.67.21-.2.45-.39.69-.56Z"/><path class="cls-5" d="m181.15,89.96c-.4.28-.83.53-1.27.74-.83.45-2.07,1-3.63,1.7-1.83.77-3.7,1.44-5.6,2-4.66,1.39-9.48,2.18-14.34,2.34-2,.07-4,.03-6-.12-1.69-.13-3-.29-4-.46-.49-.05-.97-.15-1.44-.29.49-.02.98.01,1.47.09.93.11,2.29.21,4,.29s3.69.1,5.91,0c2.4-.12,4.8-.37,7.18-.74,2.36-.41,4.7-.93,7-1.58,2.13-.62,4-1.26,5.59-1.88s2.82-1.15,3.68-1.54c.46-.23.95-.41,1.45-.55Z"/><path class="cls-5" d="m110.15,201.02c-.33-.31-.63-.64-.9-1l-2.36-2.82c-2.63-3.07-5.43-5.99-8.38-8.75-1.6-1.52-3.36-2.86-5.25-4-1.55-.92-3.24-1.58-5-1.94-1.64-.29-3.31-.29-4.95,0,0,0,.11-.06.33-.13.33-.11.66-.18,1-.23,1.23-.21,2.48-.21,3.71,0,1.82.32,3.57.96,5.17,1.89,1.94,1.14,3.74,2.51,5.37,4.07,2.97,2.77,5.74,5.74,8.3,8.9,1,1.21,1.74,2.22,2.24,2.92.28.34.52.7.72,1.09Z"/><path class="cls-5" d="m189.92,231.23s-.13.12-.39.3-.65.47-1.19.77c-1.5.88-3.08,1.63-4.71,2.23-11.04,4.17-23.49,1.62-32-6.55-1.26-1.19-2.42-2.49-3.44-3.89-.37-.49-.61-.9-.79-1.17s-.26-.42-.24-.43c.42.47.82.97,1.19,1.48,1.08,1.33,2.26,2.58,3.53,3.74,8.51,7.86,20.68,10.36,31.59,6.47,1.62-.56,3.2-1.25,4.71-2.06.56-.33,1.14-.63,1.74-.89Z"/><path class="cls-5" d="m219.05,294.55s-.1-.15-.28-.47-.46-.78-.8-1.38c-1-1.78-2.15-3.47-3.42-5.07l-1.36-1.6-.73-.87-.85-.83-1.8-1.78-2.1-1.74c-3.35-2.66-7.05-4.86-11-6.53-4.76-2.01-9.84-3.19-15-3.49-5.94-.32-11.89.64-17.43,2.8-5.85,2.3-11.5,5.77-17.48,9.13-3.03,1.75-6.16,3.31-9.39,4.66-3.34,1.41-6.87,2.33-10.47,2.75-3.6.36-7.24.14-10.78-.65-3.42-.75-6.75-1.88-9.93-3.35-5.95-2.88-11.62-6.32-16.92-10.28-5.13-3.65-10-7.18-14.81-10-4.42-2.71-9.22-4.76-14.23-6.08-4.15-1.02-8.46-1.31-12.71-.84-3.21.33-6.34,1.24-9.23,2.67-1.81.93-3.49,2.09-5,3.45l-1.16,1.08c-.25.25-.39.37-.39.37,0,0,.11-.14.36-.41l1.09-1.17c1.5-1.4,3.18-2.6,5-3.55,2.91-1.48,6.06-2.42,9.3-2.78,4.29-.5,8.63-.24,12.83.77,5.05,1.32,9.89,3.36,14.36,6.06,4.87,2.82,9.73,6.34,14.87,10,5.28,3.93,10.92,7.34,16.85,10.2,3.14,1.47,6.43,2.6,9.82,3.35,3.49.78,7.08,1,10.63.64,3.55-.41,7.02-1.32,10.31-2.7,3.2-1.35,6.32-2.89,9.34-4.62,6-3.35,11.64-6.83,17.54-9.14,1.46-.57,2.95-1.05,4.46-1.44.75-.19,1.49-.42,2.23-.57l2.24-.37c2.88-.43,5.79-.56,8.7-.4,5.23.31,10.36,1.52,15.17,3.58,3.95,1.71,7.65,3.94,11,6.64.72.61,1.42,1.21,2.1,1.77l1.79,1.81.84.84c.25.3.5.59.73.88.48.57.93,1.11,1.35,1.63,1.26,1.61,2.38,3.33,3.35,5.14.33.61.58,1.08.75,1.41.19.31.26.48.26.48Z"/><path class="cls-5" d="m188.83,336.32c-.16.07-.34.11-.51.13l-1.48.28c-.78.16-1.56.27-2.35.35-.92.09-2,.24-3.14.27l-1.84.08h-2c-1.37,0-2.84-.13-4.38-.25-3.34-.36-6.64-1.01-9.87-1.92-3.22-.97-6.35-2.2-9.36-3.68-1.36-.73-2.67-1.4-3.83-2.15-.58-.36-1.16-.69-1.69-1l-1.5-1.05c-1-.65-1.77-1.34-2.5-1.92-.63-.48-1.24-1-1.81-1.55-.43-.42-.8-.76-1.09-1-.14-.11-.26-.25-.36-.39.15.09.3.19.43.31l1.16,1c.49.42,1.1.93,1.85,1.47s1.55,1.22,2.53,1.85l1.51,1c.53.35,1.11.67,1.69,1,1.16.73,2.47,1.38,3.83,2.09,5.98,2.95,12.43,4.83,19.06,5.55,1.53.13,3,.29,4.35.3.68,0,1.34.06,2,0h1.82c1.16,0,2.21-.13,3.13-.19s1.71-.16,2.35-.26l1.49-.18c.16-.07.33-.12.51-.14Z"/><path class="cls-8" d="m595.95,257.54l33.3-3.25,3.45,35.29-33.3,3.26,5.73,58.64-43.8,4.29-5.7-58.64-113.16,11.06-3.71-26.73,95.35-189.09,45.25-4.43,16.59,169.6Zm-114.58,11.21l70.77-6.92-10.46-107-1.12-.25-2.86,8.14-56.33,106.03Z"/><g class="cls-20"><path class="cls-1" d="m595.95,257.54l33.3-3.25,3.45,35.29-33.3,3.26,5.73,58.64-43.8,4.29-5.7-58.64-113.16,11.06-3.71-26.73,95.35-189.09,45.25-4.43,16.59,169.6Zm-114.58,11.21l70.77-6.92-10.46-107-1.12-.25-2.86,8.14-56.33,106.03Z"/></g><path class="cls-2" d="m623.8,254.82l33.3-3.26,3.46,35.3-33.31,3.27,5.74,58.65-43.81,4.28-5.73-58.64-113.13,11.04-3.69-26.72,95.35-189.09,45.25-4.43,16.57,169.6Zm-114.57,11.2l70.77-6.89-10.46-107-1.13-.26-2.85,8.14-56.33,106.01Z"/><path class="cls-8" d="m467.89,283.74c-.31.28-.64.54-1,.75-.65.46-1.61,1.1-2.8,1.88-2.39,1.56-5.71,3.66-9.44,5.9s-7.14,4.19-9.64,5.56c-1.24.68-2.26,1.23-3,1.59-.36.21-.74.39-1.13.52.3-.27.64-.51,1-.7l2.89-1.73,9.56-5.69,9.5-5.76,2.89-1.74c.37-.24.76-.43,1.17-.58Z"/><path class="cls-8" d="m479.79,251.8c-.43.37-.89.7-1.38,1-.9.61-2.23,1.48-3.88,2.54-3.3,2.11-7.9,5-13,8s-9.8,5.81-13.21,7.73c-1.7,1-3.09,1.73-4.06,2.24-.49.29-1,.54-1.53.75.45-.35.93-.66,1.43-.93l4-2.38,13.13-7.85,13.09-7.91,4-2.39c.45-.3.92-.57,1.41-.8Z"/><path class="cls-8" d="m495.71,222.57c-.46.37-.94.7-1.45,1-1,.62-2.34,1.5-4.07,2.57-3.46,2.13-8.28,5-13.64,8.12s-10.25,5.87-13.82,7.87c-1.78,1-3.23,1.75-4.24,2.27-.51.29-1.05.54-1.6.75.48-.35.98-.66,1.5-.93l4.16-2.41,13.74-7.94,13.71-8,4.15-2.42c.5-.33,1.02-.63,1.56-.88Z"/><path class="cls-8" d="m578.85,241.91c-.31.28-.64.52-1,.73-.65.45-1.62,1.07-2.81,1.83-2.4,1.52-5.74,3.56-9.48,5.74s-7.18,4.06-9.69,5.38c-1.25.67-2.27,1.19-3,1.54-.36.21-.74.37-1.13.5.31-.26.64-.49,1-.68l2.91-1.68,9.59-5.52,9.55-5.59,2.91-1.69c.36-.23.75-.42,1.15-.56Z"/><path class="cls-8" d="m583.37,296.75c-.3.28-.64.53-1,.73-.63.44-1.56,1.06-2.72,1.82-2.31,1.5-5.54,3.53-9.16,5.69s-6.95,4-9.38,5.34c-1.21.66-2.2,1.18-2.89,1.53-.35.21-.71.37-1.1.49.31-.26.64-.48,1-.67l2.81-1.67,9.29-5.47,9.24-5.56,2.81-1.67c.34-.23.71-.42,1.1-.56Z"/><path class="cls-8" d="m585.63,315.88c-.3.28-.64.53-1,.73-.63.44-1.56,1.06-2.72,1.82-2.31,1.5-5.54,3.53-9.16,5.68s-6.95,4-9.38,5.35c-1.21.66-2.2,1.18-2.89,1.53-.35.21-.71.37-1.1.49.31-.26.64-.48,1-.67l2.81-1.67,9.29-5.47,9.24-5.56,2.81-1.67c.34-.23.71-.42,1.1-.56Z"/><path class="cls-8" d="m587.87,335.01c-.3.28-.64.53-1,.73-.63.44-1.56,1.06-2.72,1.81-2.31,1.51-5.54,3.54-9.16,5.69s-6.95,4-9.38,5.35c-1.21.66-2.2,1.18-2.89,1.53-.35.2-.72.37-1.1.49.31-.26.64-.48,1-.67l2.81-1.67,9.29-5.47,9.24-5.56,2.81-1.67c.34-.23.71-.42,1.1-.56Z"/><path class="cls-8" d="m576.5,221.69c-.31.28-.64.53-1,.74-.66.44-1.62,1.07-2.82,1.83-2.4,1.51-5.74,3.56-9.48,5.73s-7.18,4.06-9.68,5.39c-1.26.66-2.28,1.19-3,1.54-.36.21-.74.37-1.13.5.31-.26.65-.49,1-.68l2.9-1.68,9.6-5.52,9.55-5.6,2.9-1.68c.37-.23.75-.42,1.16-.57Z"/><path class="cls-8" d="m574.15,201.48c-.3.28-.64.53-1,.74-.66.44-1.62,1.06-2.82,1.82-2.39,1.52-5.73,3.57-9.48,5.74s-7.17,4.06-9.68,5.39c-1.25.66-2.27,1.19-3,1.54-.35.21-.73.37-1.13.49.31-.26.64-.48,1-.67l2.9-1.69,9.6-5.51,9.55-5.6,2.9-1.69c.37-.23.76-.41,1.16-.56Z"/><path class="cls-8" d="m571.81,181.27c-.29.27-.6.5-.94.7-.63.43-1.55,1-2.69,1.75-2.27,1.45-5.45,3.4-9,5.47s-6.84,3.87-9.23,5.13l-2.85,1.46c-.34.2-.7.35-1.08.47.31-.25.65-.47,1-.65l2.76-1.61,9.15-5.25,9.09-5.34,2.77-1.6c.32-.21.66-.39,1.02-.53Z"/><path class="cls-8" d="m571.41,162.13c-1.46,1.09-3.02,2.03-4.66,2.82-1.56.94-3.2,1.73-4.91,2.37,1.46-1.09,3.02-2.03,4.66-2.82,1.56-.94,3.2-1.73,4.91-2.37Z"/><path class="cls-8" d="m511.45,192.37c-.45.37-.93.71-1.44,1-1,.62-2.35,1.5-4.08,2.57-3.45,2.13-8.27,5-13.63,8.12s-10.25,5.87-13.82,7.81c-1.78,1-3.24,1.75-4.25,2.27-.51.29-1.04.54-1.59.75.47-.35.98-.66,1.5-.93l4.16-2.41,13.74-7.94,13.7-8,4.16-2.42c.5-.31,1.01-.58,1.55-.82Z"/><path class="cls-8" d="m527.2,162.13c-.46.37-.94.7-1.45,1-1,.62-2.34,1.5-4.07,2.57-3.46,2.13-8.28,5-13.63,8.12s-10.26,5.87-13.83,7.81c-1.78,1-3.23,1.75-4.24,2.27-.51.29-1.05.54-1.6.75.48-.35.98-.66,1.5-.93l4.16-2.41,13.74-7.94,13.71-8,4.16-2.42c.49-.31,1.01-.59,1.55-.82Z"/><path class="cls-8" d="m541.46,132.18c-.46.37-.94.7-1.45,1-1,.62-2.34,1.5-4.07,2.57-3.46,2.13-8.28,5-13.64,8.12s-10.25,5.87-13.82,7.81c-1.78,1-3.23,1.75-4.24,2.27-.51.29-1.05.54-1.6.75.48-.35.98-.66,1.5-.93l4.16-2.41,13.74-7.94,13.71-8,4.15-2.42c.5-.31,1.02-.59,1.56-.82Z"/><path class="cls-8" d="m556.63,103.13c-.46.37-.94.7-1.45,1-.95.62-2.34,1.5-4.07,2.57-3.46,2.13-8.28,5-13.64,8.13s-10.25,5.86-13.82,7.81c-1.78,1-3.23,1.74-4.24,2.26-.51.29-1.05.55-1.6.76.47-.36.97-.67,1.5-.94l4.16-2.4,13.74-8,13.71-8,4.15-2.42c.5-.29,1.02-.55,1.56-.77Z"/><path class="cls-5" d="m612.44,136.29c-.14.26-.3.5-.48.73-.47.7-.99,1.37-1.55,2-2.02,2.35-4.38,4.39-7,6.06-3.89,2.48-8.25,4.15-12.8,4.9-2.69.43-5.42.51-8.13.23-2.9-.32-5.75-.95-8.52-1.87-5.7-1.83-10.86-4.22-15.79-5.7-4.33-1.39-8.9-1.91-13.44-1.51-3.06.28-6.01,1.28-8.61,2.91-.7.46-1.37.97-2,1.53-.2.21-.42.4-.66.57.18-.23.38-.44.59-.64.59-.6,1.24-1.15,1.93-1.63,2.6-1.72,5.58-2.79,8.68-3.1,4.6-.48,9.25-.02,13.66,1.36,5,1.47,10.16,3.84,15.8,5.67,2.74.91,5.56,1.53,8.42,1.86,2.66.27,5.35.2,8-.21,4.5-.72,8.8-2.32,12.67-4.73,2.59-1.63,4.95-3.61,7-5.88.57-.61,1.11-1.25,1.61-1.92.19-.22.4-.43.62-.63Z"/><path class="cls-5" d="m591.7,89.3c-.35.34-.74.64-1.15.91-.76.57-1.9,1.32-3.35,2.19-1.7,1.02-3.46,1.94-5.26,2.77-2.21,1-4.48,1.87-6.8,2.61-2.32.71-4.69,1.29-7.08,1.73-1.95.34-3.92.58-5.9.72-1.69.11-3.06.13-4,.1-.49.02-.98,0-1.47-.09.48-.08.97-.12,1.46-.11.94,0,2.3-.12,4-.27s3.66-.42,5.84-.82c2.36-.46,4.7-1.05,7-1.75,2.3-.73,4.55-1.59,6.76-2.56,2-.91,3.81-1.81,5.27-2.65s2.63-1.53,3.42-2c.4-.3.82-.56,1.26-.78Z"/><path class="cls-5" d="m537.03,209.24c-.36-.26-.69-.56-1-.88l-2.74-2.45c-3.04-2.67-6.21-5.17-9.52-7.49-1.8-1.29-3.73-2.39-5.77-3.26-1.66-.7-3.42-1.11-5.22-1.21-1.66-.07-3.32.15-4.91.66,0,0,.1-.08.31-.18.3-.14.62-.26.94-.36,1.19-.37,2.43-.53,3.68-.49,1.85.06,3.67.44,5.38,1.14,2.08.86,4.05,1.96,5.88,3.27,3.33,2.33,6.5,4.88,9.48,7.65,1.14,1.06,2,2,2.63,2.58.32.31.61.65.86,1.02Z"/><path class="cls-5" d="m620.25,227.94s-.1.13-.34.35-.58.55-1.07.92c-1.35,1.09-2.8,2.05-4.33,2.87-10.34,5.65-23,4.87-32.57-2-1.41-1-2.73-2.13-3.94-3.37-.44-.43-.74-.8-1-1-.12-.12-.22-.25-.3-.4,0,0,.5.46,1.39,1.3,1.25,1.17,2.59,2.25,4,3.21,9.52,6.6,21.92,7.37,32.18,2,1.53-.79,2.99-1.69,4.38-2.7.51-.42,1.05-.82,1.6-1.18Z"/><path class="cls-5" d="m658.01,286.52c-.13-.12-.26-.25-.38-.39-.24-.29-.56-.71-1-1.25-1.25-1.62-2.62-3.14-4.1-4.54l-1.58-1.4-.84-.75-1-.71-2-1.5-2.33-1.43c-3.69-2.17-7.65-3.82-11.78-4.92-5.01-1.34-10.21-1.8-15.37-1.38-5.93.52-11.68,2.31-16.86,5.23-5.47,3.1-10.57,7.33-16,11.5-2.76,2.15-5.64,4.13-8.64,5.93-3.12,1.86-6.49,3.27-10,4.19-3.52.86-7.16,1.15-10.77.87-3.5-.29-6.96-.96-10.31-2-6.3-2.01-12.39-4.62-18.19-7.79-5.6-2.9-10.89-5.7-16.07-7.81-4.78-2.05-9.83-3.4-15-4-4.26-.41-8.56-.08-12.7,1-3.13.78-6.1,2.12-8.76,3.94-1.67,1.18-3.18,2.56-4.5,4.12l-.95,1.28c-.22.29-.34.43-.34.43,0,0,.09-.16.29-.46l.92-1.31c1.29-1.6,2.79-3.02,4.46-4.22,2.66-1.88,5.65-3.26,8.81-4.06,4.17-1.1,8.51-1.46,12.81-1.05,5.19.6,10.27,1.94,15.07,4,5.22,2.1,10.53,4.9,16.13,7.78,5.78,3.15,11.84,5.74,18.11,7.74,3.32,1.01,6.74,1.66,10.2,1.93,3.56.28,7.14,0,10.61-.86,3.45-.91,6.76-2.3,9.83-4.13,2.98-1.78,5.85-3.75,8.59-5.89,5.44-4.15,10.57-8.39,16.09-11.51,1.36-.77,2.77-1.45,4.22-2.05.71-.3,1.4-.62,2.12-.88l2.16-.68c2.79-.83,5.66-1.38,8.56-1.63,5.22-.42,10.47.06,15.52,1.42,4.16,1.12,8.14,2.8,11.84,5l2.33,1.45,2,1.54,1,.71.84.77,1.57,1.42c1.46,1.43,2.79,2.97,4,4.62.4.56.72,1,.94,1.29l.45.44Z"/><path class="cls-5" d="m633.95,332.13c-.15.08-.31.15-.48.2l-1.42.49c-.75.26-1.51.48-2.28.67-.91.22-1.92.52-3.08.71l-1.8.34c-.63.11-1.29.17-2,.26-1.36.2-2.83.27-4.38.37-3.34.1-6.69-.07-10-.51-3.32-.5-6.59-1.29-9.78-2.34-1.46-.52-2.85-1-4.1-1.58-.63-.28-1.25-.52-1.82-.8l-1.63-.83c-1.06-.51-1.95-1.08-2.75-1.55-.69-.39-1.36-.82-2-1.28l-1.23-.87c-.15-.09-.29-.2-.41-.33.17.06.33.14.47.24l1.28.79c.54.35,1.22.77,2,1.2s1.7,1,2.76,1.47l1.64.79c.57.28,1.19.51,1.82.78,1.25.55,2.63,1,4.08,1.52,3.2,1.02,6.47,1.77,9.79,2.26,3.3.45,6.62.63,9.95.55,1.53-.09,3-.13,4.34-.32.67-.08,1.33-.13,2-.23l1.8-.3c1.15-.16,2.16-.44,3.07-.63s1.67-.4,2.29-.59l1.45-.39c.14-.04.28-.08.42-.09Z"/><path class="cls-14" d="m425.71,185.67l-7-1.1-43.37-14-25.36-7.33c-7.2-2.6-15.17-2.05-21.95,1.5-12,6.1-45.06,36.88-45.06,36.88l23.81,24.55-11.21,49.68c12.55,35.68,37.12,39.77,37.12,39.77,12.01.51,23.99-1.47,35.2-5.82,22.81-8.67,46.74-29.08,49.74-37.85,1.8-5.26,3.29-16.32,4.47-28.81l36.12-14.72,9.79-50-42.3,7.25Z"/><path class="cls-16" d="m372.95,274.13s-.11.12-.35.31-.59.48-1.08.8c-1.37.92-2.82,1.7-4.34,2.33-10.37,4.42-22.41,1.8-30-6.54-1.13-1.21-2.13-2.53-3-3.94-.31-.49-.5-.9-.65-1.17-.08-.13-.14-.27-.19-.42.36.47.7.97,1,1.48.91,1.35,1.94,2.62,3.08,3.79,7.58,8.04,19.31,10.61,29.55,6.46,1.52-.59,2.98-1.32,4.37-2.17,1.06-.63,1.58-.99,1.61-.93Z"/><path class="cls-7" d="m359.23,172.64c.04.07.07.16.08.24.05.19.11.42.18.71.15.62.36,1.55.61,2.74.74,3.37,1.22,6.79,1.43,10.23.13,2.39,0,4.78-.41,7.14-.48,2.72-1.45,5.33-2.85,7.71-1.62,2.57-3.62,4.89-5.93,6.87-2.35,2.1-4.95,4-7.6,6.06-5.64,4.23-11.12,8.06-16,11.54s-9.23,6.59-12.69,9.21l-.11.09-.11-.09c-2.44-1.94-4.76-4.02-6.94-6.25-.59-.6-1.13-1.24-1.63-1.92-.17-.23-.27-.42-.35-.54-.04-.06-.08-.13-.11-.2,0,0,.19.24.54.68.53.65,1.09,1.26,1.68,1.85,2.22,2.16,4.56,4.2,7,6.11h-.22c3.44-2.66,7.74-5.83,12.64-9.32s10.36-7.34,16-11.57c2.64-2,5.24-3.95,7.57-6,2.28-1.94,4.25-4.22,5.86-6.74,1.39-2.32,2.35-4.87,2.83-7.53.41-2.33.57-4.7.47-7.06-.18-3.43-.6-6.83-1.26-10.2-.22-1.17-.39-2.09-.52-2.76-.05-.29-.09-.53-.12-.72-.03-.09-.04-.18-.04-.28Z"/><path class="cls-16" d="m547.56,195.13c10.15-8.71,13.59-24.38,8-36.53l-14.3-1.47c7.37-4.06,11.48-12.22,10.37-20.56-8.11,8.39-20.66,10.7-31.23,5.75-6.68-3.3-12.1-9.45-19.44-10.74-6.66-1.17-13.21,2-19.59,4.22s-14.1,3.51-19.38-.72c-4.18-3.35-5.48-9.22-5.21-14.58s1.82-10.58,2.15-15.93c.48-10.65-3.76-20.98-11.59-28.22-4.41-14.51-19.75-22.7-34.26-18.29-3.21.97-6.21,2.53-8.85,4.58-3.13,2.42-5.77,5.55-9.32,7.3-4,2-8.67,2-13,3s-8.9,3.94-9.36,8.39l-1.75,9.11c-.29.65-.6,1.29-1,1.92-3.68,6.46-11.22,10.71-12.87,18-.92,4.07.22,8.48-1.15,12.42-1.81,5.19-7.41,8.11-10,12.94-3.58,6.64-1.15,18.27,4.58,23.17s17.54,10.1,24.92,11.67c2-7.67,3.77-15.87,5.48-24.26,3,2.89,6.17,5.64,9.31,8.37,8.21,7.14,16.6,14.39,22.3,23.66,10.83,17.63,11,41,24.65,56.54,2.67,3.05,5.92,5.76,9.8,6.94s8.48.55,11.35-2.31c3.39-3.38,3.83-9.08,7.58-12.05,5-3.95,12.26-.8,17.61,2.63,3.88,2.48,7.76,5.1,12.15,6.46s9.51,1.27,13.25-1.41,5.38-8.4,2.68-12.13c-1.08-1.49-2.69-2.53-3.76-4s-1.38-3.87.09-5,3.88,0,5.63,1c15.97,9.38,36.51,4.05,45.9-11.92,1.16-1.97,2.11-4.05,2.84-6.21-4.93.74-9.96.14-14.58-1.74Z"/><path class="cls-16" d="m538.63,116.68c.46.33.89.7,1.29,1.1,1.21,1.12,2.22,2.44,3,3.89.54,1.06.91,2.2,1.1,3.37.47,3.11-.92,6.2-3.56,7.91-.76.49-1.62.8-2.52.91-.95.1-1.91-.04-2.8-.4-3.71-1.52-5.58-5.81-9.59-7.72-3.91-2.07-8.91-2.21-13.71-1.11s-9.49,3.71-14.22,6.37-9.76,5.51-15.55,6.5c-2.84.55-5.77.53-8.6-.06-1.39-.32-2.74-.81-4-1.48-1.23-.67-2.36-1.51-3.36-2.48-1.91-1.94-3.37-4.26-4.3-6.82-.91-2.43-1.51-4.96-1.78-7.53-.53-5-.11-9.8-.06-14.23.2-4.11-.21-8.23-1.21-12.22-.48-1.72-1.12-3.4-1.91-5-.69-1.44-1.51-2.82-2.43-4.13-1.46-2.1-3.18-4.02-5.11-5.7-1.23-1.06-2.54-2.02-3.91-2.88l-1.09-.65-.36-.23c.14.05.27.11.39.19l1.12.6c3.64,2.15,6.77,5.05,9.2,8.51,2,2.79,3.51,5.9,4.45,9.2,1.04,4.02,1.48,8.17,1.29,12.32,0,4.46-.43,9.22.11,14.17.27,2.53.86,5.02,1.75,7.4.91,2.49,2.34,4.75,4.2,6.63.96.94,2.06,1.75,3.24,2.4,1.22.63,2.51,1.11,3.85,1.43,2.77.57,5.62.58,8.4.05,5.68-1,10.66-3.79,15.39-6.44s9.4-5.26,14.36-6.39c2.4-.57,4.87-.77,7.33-.62,1.18.08,2.35.27,3.49.57,1.11.3,2.18.72,3.2,1.25,4.15,2,6,6.34,9.53,7.75,1.64.7,3.51.53,5-.44,1.34-.85,2.39-2.09,3-3.56.53-1.26.7-2.65.5-4-.15-1.15-.49-2.27-1-3.31-.74-1.44-1.7-2.76-2.84-3.91-.39-.4-.7-.69-.91-.88s-.37-.33-.37-.33Z"/><path class="cls-16" d="m375.18,174.4s0-.15-.08-.45c-.05-.44-.14-.88-.27-1.31-.46-1.66-1.3-3.18-2.45-4.46-1.86-1.99-4.12-3.56-6.63-4.61-2.9-1.33-6.5-2-10.44-2.72s-8.41-1.58-12.43-4.26c-8.44-5.7-10.67-17.17-4.96-25.62.6-.89,1.28-1.72,2.02-2.49,4.14-4.25,10-6.36,14.78-10.09,1.17-.94,2.23-2.02,3.14-3.21.86-1.22,1.51-2.57,1.92-4,.8-2.84.73-5.81,1-8.7.11-1.45.38-2.88.8-4.27.44-1.38,1.16-2.65,2.11-3.74,1.97-1.97,4.44-3.36,7.15-4,2.57-.75,5.13-1.22,7.54-1.88,2.36-.6,4.59-1.62,6.59-3,1.85-1.31,3.51-2.86,4.93-4.62,1.33-1.58,2.58-3.22,3.73-4.94,2.21-3.34,4.1-6.47,6.11-9,1.66-2.18,3.63-4.12,5.83-5.76,1.4-1.03,2.96-1.82,4.61-2.36.57-.2,1.15-.35,1.75-.44,0,0-.61.14-1.72.54-1.62.57-3.15,1.39-4.52,2.43-2.17,1.65-4.09,3.59-5.72,5.77-2,2.5-3.84,5.62-6,9-1.14,1.78-2.38,3.48-3.72,5.11-1.44,1.79-3.13,3.38-5,4.72-2.04,1.39-4.31,2.4-6.7,3-2.44.68-5,1.15-7.53,1.9-2.62.61-5.02,1.95-6.92,3.85-.9,1.04-1.58,2.25-2,3.56-.41,1.35-.67,2.75-.77,4.16-.27,2.86-.19,5.85-1,8.8-.43,1.48-1.1,2.87-2,4.12-.94,1.23-2.03,2.34-3.24,3.3-2.45,1.8-5.02,3.44-7.69,4.89-2.55,1.41-4.9,3.14-7,5.15-6.91,7.15-6.72,18.54.43,25.45.74.72,1.54,1.37,2.39,1.95,3.9,2.63,8.34,3.47,12.25,4.26s7.56,1.44,10.48,2.81c2.54,1.08,4.81,2.7,6.67,4.74,1.15,1.31,1.97,2.88,2.4,4.57.12.44.19.88.22,1.33-.06.37-.06.52-.06.52Z"/><path class="cls-15" d="m455.02,84.63c-.26-.03-.52-.09-.76-.2-.68-.22-1.35-.49-2-.8-4.33-2.04-8.02-5.22-10.69-9.19-.4-.6-.76-1.22-1.09-1.86-.14-.22-.25-.47-.31-.73.07,0,.64.92,1.7,2.37,2.78,3.79,6.39,6.9,10.55,9.08,1.59.83,2.64,1.25,2.6,1.33Z"/><path class="cls-15" d="m488.27,152.84s-.63-.16-1.76-.4c-1.6-.34-3.23-.54-4.86-.6-2.42-.07-4.85,0-7.26.21-2.74.19-5.76.47-8.95.4-3.02,0-6.02-.56-8.83-1.66-2.29-.95-4.31-2.43-5.92-4.32-1.08-1.27-1.85-2.77-2.27-4.39-.11-.44-.18-.88-.21-1.33-.02-.16-.02-.31,0-.47.06,0,.09.64.41,1.75.49,1.55,1.29,2.98,2.37,4.2,1.6,1.81,3.59,3.22,5.82,4.12,2.76,1.04,5.7,1.58,8.65,1.58,3.15.07,6.16-.19,8.91-.36,2.43-.19,4.87-.22,7.31-.1,1.65.1,3.29.35,4.89.77.43.12.86.25,1.28.41.15.04.29.1.42.19Z"/><path class="cls-15" d="m547.2,198.31s-.09,0-.29.13c-.28.13-.58.23-.89.29-1.19.25-2.42.2-3.58-.16-1.82-.59-3.47-1.62-4.8-3-1.68-1.89-2.99-4.09-3.86-6.47-1.09-2.56-2-5.5-3.79-8.22-.9-1.41-1.97-2.71-3.17-3.87-1.3-1.22-2.72-2.29-4.24-3.21-6.28-3.79-14.53-5.34-23-4.84s-16.44,2.1-23.81,2.61c-6.54.7-13.14.02-19.4-2-4.23-1.38-8.06-3.78-11.13-7-.48-.5-.92-1.03-1.33-1.59-.32-.39-.61-.81-.86-1.25-.2-.33-.36-.6-.49-.8-.06-.09-.11-.18-.15-.28,0,0,.08.08.2.25l.52.77c.27.42.57.83.9,1.21.42.55.87,1.06,1.36,1.55,3.09,3.12,6.9,5.44,11.09,6.76,6.22,1.95,12.77,2.59,19.25,1.88,7.33-.54,15.29-2.22,23.82-2.66s16.85,1.07,23.23,4.95c1.55.94,2.99,2.05,4.31,3.29,1.22,1.2,2.31,2.55,3.22,4,1.81,2.79,2.7,5.76,3.77,8.31.82,2.35,2.09,4.53,3.72,6.41,1.28,1.37,2.88,2.4,4.65,3,1.13.38,2.33.47,3.5.25.85-.14,1.24-.35,1.25-.31Z"/><path class="cls-13" d="m389.92,84.62c-3.88-.1-7.19,2.79-7.62,6.65h0l-8.09,84.21c-1.4,11.84,14.09,37.23,26.78,38.63h0c12.81,1.41,14.07-4.8,15.73-16,2.78-18.74,3.71-25.8,3.7-25.69s16.5-.55,22.62-21.18c3-10.26,4.78-27.51,5.75-41.67.87-12.75-5.46-29.36-18.24-29.69l-40.63,4.74Z"/><path class="cls-16" d="m443.21,120.72c-.17,1.49-1.51,2.55-3,2.38-1.44-.07-2.55-1.3-2.47-2.74,0-.02,0-.04,0-.06.18-1.48,1.52-2.54,3-2.39,1.44.07,2.55,1.3,2.47,2.74,0,.02,0,.05,0,.07Z"/><path class="cls-16" d="m444.36,115.27c-.32.38-2.48-1-5.41-.79s-5,1.82-5.31,1.49c-.16-.15.13-.81,1-1.56,1.21-.96,2.68-1.53,4.22-1.63,1.52-.11,3.04.26,4.33,1.07.97.63,1.32,1.28,1.17,1.42Z"/><path class="cls-16" d="m417.48,122.24c-.35.35-2.37-1.24-5.3-1.31s-5.12,1.33-5.43,1c-.15-.17.21-.8,1.17-1.45,1.29-.85,2.82-1.27,4.36-1.21,1.52.04,2.99.56,4.2,1.49.88.68,1.15,1.37,1,1.48Z"/><path class="cls-16" d="m422.94,137.73c0-.17,1.86-.24,4.84-.23.75,0,1.47,0,1.67-.53.16-.76.09-1.55-.21-2.26-.46-1.89-.94-3.89-1.45-6-2-8.45-3.33-15.36-3-15.44s2.23,6.72,4.22,15.17c.48,2.08.93,4.06,1.36,6,.36.97.36,2.03,0,3-.29.5-.79.84-1.36.92-.43.05-.86.05-1.29,0-2.96-.23-4.79-.47-4.78-.63Z"/><path class="cls-11" d="m420.42,172.4c-9.95-1.16-19.37-5.06-27.23-11.27,0,0,5.21,15.42,26.56,16.23l.67-4.96Z"/><path class="cls-16" d="m417.89,117.23c-.46.71-3.23-.33-6.67-.71s-6.37-.1-6.65-.9c-.12-.38.52-1,1.79-1.49,1.67-.6,3.45-.79,5.21-.56,1.76.19,3.46.8,4.94,1.78,1.12.78,1.59,1.54,1.38,1.88Z"/><path class="cls-16" d="m443.92,111.34c-.48.69-2.53.11-5,.2s-4.46.67-5,0c-.22-.33.07-1,.93-1.68,1.16-.84,2.56-1.3,4-1.3,1.42-.04,2.81.35,4,1.13.97.64,1.28,1.32,1.07,1.65Z"/><path class="cls-9" d="m415.86,143.04c1.34-.92,2.99-1.28,4.59-1,.82.11,1.57.51,2.13,1.11.61.89.87,1.98.75,3.05,0,.65-.09,1.29-.29,1.91-.21.62-.64,1.13-1.22,1.43-.64.23-1.34.27-2,.1-1.1-.14-2.16-.52-3.09-1.12-.94-.6-1.57-1.59-1.72-2.7-.13-1.13.5-2.21,1.55-2.66"/><path class="cls-16" d="m423.75,149.46c-.21.08-.6-.56-1.3-1.43-1.76-2.31-4.38-3.8-7.26-4.14-1.11-.16-1.85-.17-1.9-.39s.65-.59,1.92-.72c1.68-.13,3.35.25,4.81,1.08,1.46.83,2.64,2.08,3.37,3.59.54,1.15.55,1.95.36,2.01Z"/><path class="cls-16" d="m373.08,169.69c6.95-1.39,12.31-7.36,14.7-14s2.26-13.95,1.63-21c.04-.92-.31-1.82-.95-2.48-1.05-.81-2.56-.15-3.7.54-4.38,2.66-8.58,5.62-12.57,8.84-3.72,3-7.4,6.45-8.83,11-2.19,7,2.44,15.35,9.53,17.19"/><path class="cls-13" d="m532.83,168.06l-32.77-52.68-9.06-18.54s-2.89-3.83-5.89-7.1c-4.92-5.37-9.79-1.2-9.79-1.2-.56-1.3-1.88-2.1-3.29-2-1.79,0-3.48.86-4.53,2.31,0,0-1.34-1.49-5.06-1.72-.85-.01-1.67.26-2.35.76-1.22-1.07-3.46-2.61-5.61-1.83-1.68.61-11.87,8.36-14.38,12.26-1.24,1.93,1.06,4.43,4.16,3.26,1.28-.41,2.52-.92,3.72-1.51.94-.53,1.79-1.2,2.52-2,0,0-2.57,4.5,0,5.29,1.7.34,3.47-.09,4.83-1.17,1-.82,2.1-1.89,3.17-2.94l-.12.18c-1.42,2.1,2.28,5.21,4.07,3.95.83-.59,1.63-1.22,2.39-1.9,4.16,3-1.61,6.89-4.05,6.69-3.75-.28-7.53-.28-11.28,0-2.12.17-4,.68-5.16,1.85-1.38,1.42.07,4.4,2,4.7,3.59.56,8.17,1.35,12.93,2.58,5.6,1.44,20.27,6.21,20.27,6.21l1.43,1.16,19.93,48.61-34.12,7.23-7.62,43.24,61.6-16.72c13.86-7.3,20.47-25.77,12.06-38.97Z"/><path class="cls-11" d="m479.56,123.42c-.27-.04-.53-.1-.78-.19l-2.21-.63-8.11-2.41-5.59-1.69c-2-.62-4.15-1.26-6.43-1.84-2.37-.64-4.79-1.14-7.22-1.49-1.34-.02-2.66-.26-3.92-.71-.34-.15-.64-.37-.88-.65-.13-.16-.23-.34-.3-.54l-.07-.53c-.11-.71-.06-1.43.13-2.12.25-.71.75-1.3,1.42-1.64.61-.31,1.24-.57,1.9-.76,1.3-.37,2.65-.54,4-.49,2.6,0,5.05.4,7.39.3,1.14-.03,2.27-.14,3.39-.33,1.09-.2,2.13-.48,3.15-.74,1.88-.59,3.86-.84,5.83-.75,1.62.16,3.2.56,4.7,1.2,1.13.47,2.22,1.01,3.28,1.61.87.49,1.53.9,2,1.17.23.13.45.28.66.45-.25-.1-.49-.22-.72-.36l-2-1.08c-1.07-.57-2.17-1.08-3.29-1.52-1.47-.6-3.03-.97-4.62-1.1-1.93-.07-3.85.2-5.69.79-1,.27-2.06.57-3.17.78-1.15.21-2.31.33-3.47.36-2.38.11-4.86-.24-7.4-.27-1.28-.04-2.56.12-3.8.47-1.22.4-2.61.83-3,2.07-.16.62-.2,1.27-.11,1.9l.07.46c.04.12.1.24.19.33.2.22.44.4.71.53,1.21.41,2.47.63,3.75.66,2.46.36,4.89.88,7.28,1.54,2.29.59,4.43,1.25,6.43,1.89l5.58,1.75,8.06,2.57,2.18.72c.23.08.46.17.68.29Z"/><path class="cls-11" d="m454.29,86.13c.06.08-1.54,1-3.9,2.79-1.38,1.05-2.69,2.19-3.92,3.4-1.4,1.36-2.87,3-4.61,4.45-.87.6-1.52,1.46-1.84,2.47-.26.92.28,1.88,1.2,2.14.86.24,1.77.26,2.64.05.79-.15,1.56-.37,2.3-.66,1.46-.62,2.83-1.45,4.05-2.46-.25.36-.55.68-.9.94-.9.76-1.91,1.39-3,1.87-.76.32-1.54.57-2.35.74-.94.24-1.94.24-2.88,0-1.17-.33-1.86-1.53-1.55-2.71.34-1.12,1.04-2.09,2-2.76,1.71-1.46,3.18-3,4.62-4.4,1.25-1.21,2.59-2.33,4-3.34,1.22-.87,2.25-1.49,3-1.91.36-.24.74-.44,1.14-.61Z"/><path class="cls-11" d="m466.8,90.25c-.36.48-.74.94-1.16,1.37l-3.29,3.62-4.93,5.33c-.99,1.08-2.16,1.98-3.46,2.64-.71.36-1.5.55-2.3.57-.86.01-1.69-.32-2.3-.92-.31-.35-.5-.79-.54-1.25-.03-.43.01-.86.13-1.28.23-.78.59-1.52,1.06-2.19h0c1.77-1.87,3.41-3.63,4.88-5.25s2.94-2.89,4.12-4c.51-.53,1.08-.99,1.71-1.37.51-.22,1.05-.35,1.61-.36.89-.06,1.41,0,1.36.12-.45-.05-.9-.03-1.34.06-.52.04-1.03.18-1.51.4-.59.4-1.13.87-1.61,1.39-1.14,1.14-2.55,2.46-4,4.06s-3.08,3.42-4.84,5.31h0c-.44.61-.78,1.28-1,2-.1.36-.14.73-.12,1.1.04.35.19.68.42.95.52.49,1.21.76,1.92.75.72-.01,1.43-.19,2.07-.51,1.25-.63,2.38-1.48,3.33-2.51l5-5.25,3.41-3.5.95-.94c.27-.24.41-.35.43-.34Z"/><path class="cls-4" d="m482.12,95.07s0,.31-.4.59c-.92.72-2.26.56-2.98-.37-.04-.05-.08-.11-.11-.16-.23-.38-.23-.67-.17-.68s.2.19.46.45c.33.34.76.57,1.22.66.47.07.95,0,1.38-.21.34-.16.54-.33.6-.28Z"/><path class="cls-4" d="m483.32,99.66c-.11.09-.86-.66-1.52-1.79-.48-.64-.77-1.4-.83-2.19.13-.05.63.85,1.28,1.93.46.63.82,1.32,1.07,2.05Z"/><path class="cls-11" d="m485.53,117.54c-.44-.63-.76-1.34-.95-2.08-.57-1.77-.85-3.61-.82-5.47.04-1.86.37-3.69,1-5.44.21-.74.55-1.44,1-2.06-.84,2.42-1.33,4.95-1.45,7.51.04,2.56.45,5.1,1.22,7.54Z"/><path class="cls-11" d="m512.45,186.83c-.1,0-.2-1.06-.72-2.69-.31-.95-.71-1.87-1.18-2.75-1.18-2.15-2.82-4.01-4.8-5.45-.81-.59-1.67-1.1-2.57-1.53-1.54-.73-2.59-1-2.57-1.06.25-.01.51.02.75.1.68.15,1.35.35,2,.62.95.4,1.85.89,2.7,1.48,2.08,1.44,3.78,3.37,4.94,5.62.47.91.84,1.88,1.11,2.87.18.65.31,1.32.37,2,.03.26.02.53-.03.79Z"/><path class="cls-13" d="m398.07,283.13c-2.82-.49-5.72-.12-8.33,1.06-4.45-2-9.94,1.43-9.94,1.43-1.61-.77-11.31,5.57-11.31,5.57l-12.08,5.7-64.53-47.95,18.29-19-25.63-26.67-30,30.9c-3.67,3.98-5.8,9.14-6,14.55-.59,11.77,5.87,22.77,16.43,28l76,39c5.84-.32,11.63-1.23,17.29-2.69,6.56-1.71,17.77-6.69,17.77-6.69,0,0,0,.34,2,4.23,3.61,7,8.9-.56,8.9-.56.53,1.23,1.22,2.38,2.06,3.42,4.57,4.43,7.74-1.52,7.74-1.52,0,0,1.37,2.39,5.45.61s-.59-14.06-.59-14.06c0,0,1.37,2.67,4-.71s-3.15-13.7-7.52-14.62Z"/><path class="cls-11" d="m388.94,284.82c.25-.17.54-.29.84-.33.81-.18,1.65-.15,2.45.08,1.17.33,2.27.89,3.23,1.65.58.43,1.12.91,1.61,1.43.5.61.92,1.29,1.26,2,1.18,2.39,2.17,4.86,2.95,7.41.3,1,.5,1.77.63,2.33.09.28.14.58.13.88-.07,0-.43-1.19-1.11-3.1-.88-2.49-1.91-4.92-3.07-7.29-.32-.66-.71-1.28-1.18-1.85-.47-.5-.97-.97-1.51-1.39-.89-.73-1.91-1.3-3-1.68-1.05-.31-2.16-.36-3.23-.14Z"/><path class="cls-11" d="m396.71,311.94c-.23-.35-.42-.72-.57-1.11l-1.41-3.06c-1.19-2.59-2.93-6.13-4.59-10.16-.67-1.92-1.55-3.75-2.63-5.47-.93-1.35-2.21-2.42-3.71-3.09-.99-.48-2.1-.68-3.2-.57-.78.1-1.18.31-1.2.26s.09-.07.28-.17c.28-.14.57-.24.88-.29,1.15-.2,2.33-.05,3.39.43,1.59.66,2.96,1.76,3.95,3.16,1.12,1.73,2.04,3.59,2.72,5.54,1.65,4,3.34,7.58,4.45,10.21.55,1.31,1,2.39,1.26,3.13.17.38.3.78.38,1.19Z"/><path class="cls-11" d="m367.09,296.51c.31-.22.65-.41,1-.57l2.88-1.39c.62-.29,1.27-.61,2-.93.82-.33,1.71-.46,2.59-.38.98.08,1.92.42,2.72,1,.8.66,1.48,1.46,2,2.36.55.9,1,1.83,1.4,2.69s.87,1.69,1.31,2.47c.87,1.55,1.69,2.94,2.29,4.16.49.95.92,1.94,1.28,2.95.16.36.27.74.32,1.13-.08,0-.62-1.55-1.92-3.91-.65-1.18-1.49-2.54-2.39-4.09-.45-.78-.9-1.61-1.34-2.48s-.86-1.78-1.39-2.65c-.48-.84-1.11-1.6-1.85-2.23-.71-.55-1.56-.89-2.45-1-.81-.09-1.63.02-2.39.3-.72.29-1.41.61-2,.86l-2.95,1.33c-.35.17-.73.3-1.11.38Z"/><path class="cls-11" d="m368.49,291.2c-.27.22-.56.41-.88.55-.58.33-1.43.79-2.49,1.35-2.11,1.12-5.05,2.64-8.31,4.28s-6.22,3.1-8.38,4.14l-2.56,1.2c-.32.17-.65.29-1,.37.27-.22.57-.41.89-.56.58-.32,1.43-.78,2.49-1.34,2.11-1.12,5.05-2.63,8.31-4.28s6.22-3.1,8.37-4.13c1.08-.52,2-.93,2.57-1.21.31-.17.64-.3.99-.37Z"/><path class="cls-11" d="m292.74,249.06c-2.52-.38-5.08-.46-7.62-.25-2.52.38-4.99,1.05-7.36,2,.6-.48,1.28-.86,2-1.12,1.69-.73,3.47-1.2,5.3-1.42,1.83-.22,3.68-.17,5.5.14.76.1,1.49.32,2.18.65Z"/><path class="cls-16" d="m435.25,75.84c-15.98-.23-31.94,1.45-47.52,5-3.61.83-7.43,1.89-9.87,4.67-2.59,2.94-3,7.13-3.38,11-.41,4.75-.83,9.5-1.24,14.25-.69,1.18-1.44,2.31-2.27,3.39-3.76,4.91-8.55,9-12,14.16s-5.31,12-2.53,17.52c1.69,3.34,4.81,5.7,7.09,8.66,3.87,5,5.13,11.51,7.39,17.44s6.34,12,12.57,13.16c3,.57,6.06-.06,9.05.38,4.47.65,8.23,3.58,11.78,6.37s7.41,5.63,11.91,6.08,9.65-2.6,9.74-7.12c-3.4,1.92-7.58,1.8-10.87-.3-2.62-1.73-4.31-4.53-6.56-6.71-5.53-5.36-14.43-7.06-18.28-13.73-3-5.27-1.83-11.88-.45-17.81,1.19-5.14,2.41-10.71.92-15.65.12-.79.18-1.6.19-2.4,0-5.26-2.05-10.9.4-15.55,3.24-6.16,12.58-6.94,15.85-13.07,1.91-3.57,1.24-8.13,3.32-11.6,1.95-3.26,5.86-4.76,9.58-5.57s7.63-1.18,10.91-3.1,5.76-5.98,4.27-9.47Z"/><path class="cls-16" d="m447.37,183.13c-.04.09-.09.17-.15.25l-.49.69c-.67.86-1.44,1.65-2.3,2.33-1.38,1.07-2.92,1.9-4.57,2.45-2.18.76-4.5,1.03-6.8.79-2.81-.27-5.47-1.36-7.66-3.14-2.38-1.83-4.5-4.26-7.19-6.19-1.35-1-2.92-1.67-4.58-1.93-1.75-.14-3.51.18-5.1.93-1.69.8-3.47,1.41-5.29,1.82-1.96.28-3.95-.07-5.7-1-1.71-.9-3.32-1.97-4.81-3.19-1.49-1.12-2.9-2.35-4.22-3.67-1.3-1.28-2.32-2.82-3-4.52-.6-1.67-.72-3.47-.34-5.2.37-1.6.87-3.17,1.51-4.69.58-1.47,1.08-2.92,1.52-4.34.8-2.62,1.42-5.29,1.85-8,.62-3.94.84-7.94.65-11.93-.06-1.41-.15-2.51-.23-3.25,0-.35,0-.62-.07-.84-.02-.1-.02-.19,0-.29.03.09.06.18.06.28l.12.84c.11.74.24,1.83.33,3.25.26,4.01.1,8.03-.48,12-.41,2.74-1.01,5.45-1.8,8.11-.44,1.42-.94,2.89-1.51,4.38-.63,1.47-1.12,3-1.49,4.56-.36,1.65-.24,3.36.34,4.94.66,1.63,1.64,3.11,2.9,4.34,1.3,1.3,2.7,2.51,4.17,3.61,1.46,1.2,3.05,2.25,4.72,3.13,1.64.9,3.53,1.25,5.39,1,1.79-.41,3.52-1.01,5.18-1.79,1.67-.77,3.52-1.1,5.35-.94,1.74.27,3.39.95,4.8,2,2.74,2,4.84,4.44,7.18,6.25,2.12,1.75,4.7,2.83,7.43,3.11,3.98.44,7.97-.63,11.2-3,1.15-.92,2.18-1.98,3.08-3.15Z"/><path class="cls-15" d="m347.46,151.33c-.29-.35-.56-.72-.8-1.11-.68-1.12-1.16-2.35-1.42-3.64-.39-2.04-.36-4.15.1-6.18.6-2.7,1.78-5.23,3.46-7.42,2.07-2.61,4.5-4.91,7.22-6.82,2.87-2.14,6.13-4.13,9.38-6.44,3.47-2.32,6.48-5.25,8.9-8.65,1.19-1.86,2.1-3.88,2.7-6,.64-2.14,1.08-4.38,1.6-6.64.45-2.25,1.12-4.46,2-6.58.88-2.09,2.22-3.94,3.93-5.43,1.67-1.4,3.59-2.47,5.67-3.13,1.97-.64,4.01-1.04,6.08-1.2,3.8-.19,7.62-.07,11.4.36,3.28.35,6.58.39,9.86.13,2.7-.26,5.33-1.04,7.73-2.3,1.82-.94,3.42-2.24,4.73-3.82.82-1,1.47-2.13,1.92-3.35.28-.84.39-1.3.41-1.29-.07.45-.18.89-.31,1.33-.42,1.25-1.04,2.41-1.86,3.44-1.3,1.64-2.91,3-4.75,4-2.43,1.3-5.09,2.12-7.83,2.41-3.31.29-6.64.27-9.94-.07-3.76-.41-7.54-.51-11.32-.31-2.04.16-4.06.56-6,1.2-2.01.63-3.88,1.65-5.5,3-1.65,1.44-2.94,3.24-3.79,5.26-.88,2.09-1.55,4.27-2,6.49-.52,2.25-1,4.5-1.62,6.67-.61,2.16-1.54,4.22-2.77,6.1-2.44,3.44-5.49,6.41-9,8.76-3.28,2.32-6.54,4.29-9.4,6.4-2.7,1.88-5.12,4.13-7.18,6.7-1.68,2.13-2.86,4.61-3.47,7.25-.48,1.99-.55,4.06-.19,6.08.35,1.73,1.05,3.36,2.06,4.8Z"/><path class="cls-15" d="m350.39,156.58c-1.12-.88-2.14-1.87-3.07-2.95-1.14-1.23-2.05-2.67-2.67-4.23-.39-.99-.55-2.07-.46-3.13.12-1.2.59-2.33,1.35-3.27,1.62-2,4.3-3.06,7.11-3.65,1.41-.29,2.89-.52,4.36-.89,1.52-.32,2.96-.92,4.26-1.77,1.31-.96,2.37-2.22,3.1-3.67.76-1.54,1.4-3.13,1.92-4.77.53-1.72,1.2-3.39,2-5,.86-1.69,2.15-3.13,3.75-4.15,1.62-.93,3.38-1.6,5.21-2,1.77-.46,3.52-.83,5.17-1.39,3.17-1.11,5.94-3.15,7.94-5.85,1.85-2.45,3.51-5.03,4.97-7.73,1.29-2.35,2.79-4.58,4.49-6.65,1.42-1.72,3.16-3.14,5.13-4.19,1.49-.79,3.11-1.28,4.79-1.45,1.06-.1,2.13-.01,3.16.26.34.09.68.21,1,.36,0,0-.37-.1-1.07-.26-1.02-.22-2.07-.27-3.11-.16-1.64.2-3.22.71-4.67,1.5-1.92,1.05-3.62,2.47-5,4.17-1.66,2.08-3.14,4.3-4.4,6.64-1.44,2.72-3.08,5.32-4.92,7.79-1.03,1.33-2.21,2.53-3.53,3.57-1.38,1.06-2.92,1.88-4.57,2.42-1.68.58-3.45.95-5.2,1.41-1.78.4-3.49,1.08-5.06,2-1.53.99-2.77,2.37-3.58,4-.8,1.59-1.47,3.24-2,4.93-.54,1.66-1.21,3.27-2,4.83-.78,1.51-1.89,2.83-3.26,3.84-1.35.87-2.85,1.49-4.43,1.82-1.5.36-3,.58-4.38.87-2.77.56-5.38,1.59-6.91,3.45-.73.88-1.18,1.95-1.31,3.08-.1,1.02.04,2.04.4,3,.6,1.54,1.46,2.96,2.55,4.2.88,1,1.63,1.79,2.14,2.3l.59.57c.15.07.22.14.21.15Z"/><path class="cls-11" d="m473.49,91.98c-.14.28-.31.54-.52.77-.36.48-.89,1.16-1.58,2-1.36,1.64-3.32,3.84-5.62,6.15-1.14,1.12-2.21,2.38-3.68,2.84-.68.24-1.43.24-2.11,0-.59-.24-1.07-.69-1.36-1.25-.39-.78-.52-1.68-.37-2.54.02-.31.09-.62.23-.9.03.31.03.61,0,.92-.07.81.1,1.63.49,2.34.27.46.69.81,1.19,1,.59.2,1.22.2,1.81,0,1.28-.41,2.31-1.61,3.46-2.75,2.29-2.29,4.28-4.45,5.72-6,.72-.91,1.5-1.77,2.34-2.58Z"/><path class="cls-11" d="m481.13,91.98c-.16.29-.37.55-.61.78-.41.48-1,1.16-1.78,2l-2.69,2.91-1.6,1.7c-.55.64-1.16,1.23-1.82,1.76-.7.56-1.55.91-2.44,1-.88.09-1.74-.29-2.27-1-.24-.34-.37-.74-.37-1.16.02-.38.14-.75.34-1.07.37-.6.75-1.06,1.08-1.52.66-.91,1.21-1.64,1.6-2.14.18-.28.4-.53.65-.74-.12.3-.29.59-.48.86-.34.53-.84,1.29-1.47,2.23-.31.47-.69,1-1,1.52-.37.52-.37,1.22,0,1.74.44.57,1.14.86,1.85.76.79-.08,1.54-.39,2.16-.88.65-.49,1.26-1.05,1.81-1.66l1.63-1.68,2.77-2.84c.79-.8,1.44-1.44,1.9-1.88.21-.26.46-.5.74-.69Z"/><polygon class="cls-1" points="360.05 246.04 360.32 246.08 360.43 245.28 360.65 245.31 360.68 245.09 359.97 244.99 359.94 245.22 360.16 245.25 360.05 246.04"/><polygon class="cls-1" points="361.03 245.58 361.19 246.2 361.29 246.21 361.62 245.66 361.62 245.66 361.61 246.26 361.88 246.29 361.86 245.25 361.6 245.22 361.3 245.73 361.17 245.16 360.91 245.12 360.6 246.12 360.86 246.15 361.03 245.58 361.03 245.58"/><path class="cls-1" d="m377.77,260.01c-.13,0-.25-.05-.35-.14-2.69-2.62-10.07-9.01-20.45-11.77-.23-.06-.38-.27-.37-.5,0-.23.18-.43.41-.47l5.49-1c-2.2-3.17-7.93-4.55-7.99-4.56-.23-.05-.39-.27-.39-.5s.18-.44.42-.48c1.08-.18,2.21-.27,3.37-.27,2.49,0,4.67.41,6.11.76-2.4-2-6.04-2.85-6.09-2.86-.24-.05-.4-.27-.39-.51,0-.24.19-.44.43-.47,1-.14,2-.21,2.97-.21,3.05,0,5.44.68,7.11,1.39-2.5-1.91-6.19-3.28-6.24-3.3-.22-.08-.35-.3-.32-.53.03-.23.22-.41.45-.43.93-.09,1.85-.14,2.74-.14,3.97,0,6.87.89,8.79,1.8-2.08-1.83-4.68-3.28-4.71-3.3-.21-.12-.31-.36-.24-.58.07-.21.26-.35.48-.35.02,0,.03,0,.05,0,16.06,1.51,20.9,9.59,22.3,13.48l1.02-.31s.1-.02.14-.02c.13,0,.26.05.35.14.13.13.18.32.13.5l-.37,1.27c5.19,1.42,13.36,3.83,15.75,10.7.06.18.02.37-.11.51-.1.1-.23.16-.36.16-.05,0-.09,0-.14-.02-2.96-.87-6.31-1.3-9.98-1.3-5.94,0-12.62,1.12-19.86,3.32-.05.01-.1.02-.15.02Zm1.8-3.53l3.32-.67-1.2-.96-2.12,1.63Zm5.57-2.64c.47.35,1.07.72,1.8,1.04,1.06-.15,2.05-.28,3.01-.38l-4.81-.66Zm.61-2.26c6.56.36,14.56,2.09,17.86,2.85-2.66-2.54-7.29-4.06-10.77-5.03-3.28.64-5.61,1.5-7.09,2.17Zm-7.11,2.39l1.33-.57-.38-.29-.95.86Zm-4.14-7.95c.72,0,1.41.04,2.07.12.17.02.33.13.4.29.07.16.05.35-.05.49-.08.18-.17,1.27.47,1.92,1.13,1.15,2.79,1.36,3.65,1.39-.74-.42-1.28-.95-1.59-1.58-.42-.83-.41-1.78.02-2.8.18-.43.53-.81.89-1.12-.99-.27-2.06-.4-3.21-.4-3.13,0-6.38.98-8.87,2.61,2.58-.75,4.74-.93,6.24-.93Zm8.49,0c-.31.21-.6.58-.68,1.03-.09.46.07.89.47,1.26.32.29.67.5,1.05.62-.24-.21-.41-.48-.5-.77-.14-.48-.04-1,.27-1.44.03-.04.06-.08.09-.12l-.7-.57Zm-1.24-4c3.23,1.58,5.1,3.25,6.12,4.41l-.17-2.32-.28.42c-.08.12-.22.2-.36.22-.02,0-.03,0-.05,0-.13,0-.25-.05-.35-.14-1.37-1.33-3.23-2.12-4.91-2.58Z"/><path class="cls-5" d="m368.99,232.07c16.52,1.55,20.92,10.14,22.03,13.6l1.49-.45-.52,1.76c6.16,1.67,13.64,4.01,15.9,10.51-3.14-.92-6.56-1.33-10.12-1.33-6.48,0-13.43,1.34-20,3.34-2.43-2.37-9.88-9.02-20.67-11.9l6.2-1.12c-1.98-3.85-8.68-5.41-8.68-5.41,1.13-.19,2.23-.26,3.29-.26,4.33,0,7.73,1.27,7.73,1.27-2.21-3.12-7.6-4.35-7.6-4.35,1.02-.14,1.99-.21,2.9-.21,6.15,0,9.56,2.86,9.56,2.86-1.55-3.17-8.52-5.74-8.52-5.74.95-.09,1.85-.13,2.69-.13,7.87,0,11.4,3.59,11.4,3.59-1.59-2.98-7.08-6.03-7.08-6.03m19.51,16.06l-.4-5.52-1.09,1.61c-3.38-3.29-9.47-3.39-9.47-3.39,8.87,2.98,10.96,7.3,10.96,7.3m-22.75.23c3.67-1.5,6.72-1.84,8.74-1.84.87,0,1.55.06,2.01.12-.21.29-.31,1.71.52,2.56,1.12,1.14,2.81,1.54,4.22,1.54.7,0,1.33-.1,1.79-.26-2.44-.61-4.1-2.09-3.12-4.43.21-.51.81-1.05,1.54-1.48-1.32-.5-2.79-.73-4.32-.73-4.16,0-8.69,1.73-11.38,4.52m18.88,1.18c.96,0,1.86-.4,2.5-.82l-.46-.37c-.36.36-.89.57-1.42.57-.24,0-.48-.04-.7-.13-.78-.32-1.03-1.13-.56-1.8.12-.17.28-.31.45-.43l-1.41-1.14c-1.03.4-1.92,2.04-.61,3.25.7.64,1.46.88,2.2.88m20.38,5.75c-2.16-3.01-6.76-4.9-12.16-6.39-5.07.97-7.92,2.45-9.02,3.12,8.65.09,21.18,3.27,21.18,3.27m-28.91.31l4.84-2.07-1.39-1.07-3.45,3.14m10.76-.2c2.84-.4,5.31-.69,8.09-.72l-11.34-1.54c.48.55,1.52,1.54,3.24,2.26m-9.32,2l6.48-1.31-2.33-1.87-4.15,3.18m14.95-12.18h0m-23.52-14.15c-.43,0-.82.28-.95.7-.14.45.06.94.47,1.17.48.27,1.24.73,2.09,1.3-1.63-.43-3.59-.73-5.92-.73-.9,0-1.84.05-2.79.14-.46.05-.84.4-.89.87s.21.9.64,1.07c.65.24,1.71.69,2.85,1.26-1.06-.19-2.25-.31-3.55-.31-.99,0-2.01.07-3.04.21-.48.07-.84.47-.86.95-.02.48.31.91.78,1.02.03,0,1.85.43,3.73,1.38-1.09-.16-2.32-.27-3.64-.27-1.19,0-2.35.09-3.45.28-.47.08-.82.48-.84.95s.31.9.77,1.01c.05.01,4.84,1.16,7.19,3.73l-4.66.85c-.46.08-.8.48-.82.94s.29.89.74,1.01c10.26,2.73,17.56,9.05,20.23,11.65.19.18.44.28.7.28.1,0,.2-.01.29-.04,7.19-2.19,13.82-3.3,19.71-3.3,3.62,0,6.93.43,9.84,1.29.09.03.19.04.28.04.27,0,.53-.11.72-.31.26-.27.34-.66.22-1.02-2.4-6.89-10.3-9.41-15.6-10.88l.21-.72c.04-.11.06-.22.06-.35,0-.55-.44-1-1-1,0,0,0,0,0,0-.02,0-.04,0-.06,0-.09,0-.17.02-.26.05l-.55.17c-1.64-4.13-6.8-11.88-22.56-13.36-.03,0-.06,0-.09,0h0Zm3.23,14.58c1.59-.52,3.28-.81,4.92-.81.78,0,1.53.06,2.24.19-.15.19-.28.41-.37.63-.61,1.45-.34,2.55,0,3.22.1.2.21.38.35.56-.64-.21-1.2-.54-1.6-.95-.4-.41-.41-1.15-.36-1.38.15-.27.17-.6.04-.88-.14-.32-.44-.55-.79-.59-.67-.08-1.39-.13-2.13-.13-.65,0-1.41.03-2.28.13h0Zm10.58,1.73c-.01-.08,0-.16,0-.24.03-.17.11-.33.21-.46h.01c-.12.23-.19.47-.23.7h0Zm5.14,3.87c1.29-.46,2.91-.93,4.89-1.32,2.73.76,6.16,1.87,8.72,3.53-3.42-.75-8.69-1.77-13.61-2.21h0Zm-6.35,4.33l.1-.08.06.05-.16.03h0Z"/><path class="cls-1" d="m392.59,249.69c-.6.07-2.54.72-2.89.86,0,0,3.65-.14,6.71.45-.95-.61-2.46-1.17-3.82-1.3Z"/><path class="cls-2" d="m388.5,248.13l-.4-5.52-1.09,1.61c-3.38-3.29-9.47-3.39-9.47-3.39,8.87,2.98,10.96,7.3,10.96,7.3Z"/><path class="cls-2" d="m383.04,250.47c-2.44-.61-4.1-2.09-3.12-4.43.21-.51.81-1.05,1.54-1.48-4.9-1.86-12.02-.03-15.7,3.78,5.24-2.15,9.22-1.91,10.75-1.72-.21.29-.31,1.71.52,2.56,1.68,1.7,4.64,1.76,6.01,1.28Z"/><polygon class="cls-2" points="379.56 252.45 376.11 255.59 380.95 253.52 379.56 252.45"/><polygon class="cls-2" points="377.55 257.4 384.03 256.09 381.7 254.22 377.55 257.4"/><path class="cls-5" d="m384.46,246.55l-1.41-1.14c-1.03.4-1.92,2.04-.61,3.25,1.62,1.49,3.57.79,4.69.06l-.46-.37c-.52.53-1.41.73-2.11.44-.78-.32-1.03-1.13-.56-1.8.12-.17.28-.31.45-.43Z"/><path class="cls-5" d="m392.86,248.89c-5.07.97-7.92,2.45-9.02,3.12,8.65.09,21.18,3.27,21.18,3.27-2.16-3.01-6.76-4.9-12.16-6.39Zm-3.17,1.66c.36-.14,2.29-.79,2.89-.86,1.35.13,2.87.69,3.82,1.3-3.06-.58-6.71-.45-6.71-.45Z"/><path class="cls-5" d="m386.87,255.39c2.84-.4,5.31-.69,8.09-.72l-11.34-1.54c.48.55,1.52,1.54,3.24,2.26Z"/></g><g id="freepik--Plants--inject-17"><path class="cls-8" d="m585.54,398.13c2.92-6.36,10.45-9.15,16.82-6.23,1.41.65,2.69,1.55,3.77,2.66-2.11,3.4-5.38,5.92-9.21,7.08-4.15,1.46-8.77.04-11.38-3.51"/><path class="cls-16" d="m578.44,399.77c.92-.41,1.88-.71,2.87-.9,1.81-.44,4.33-.93,7.12-1.39s5.33-.81,7.18-1c.99-.16,2-.24,3-.23-.96.28-1.94.48-2.94.6l-7.15,1.17c-2.78.46-5.3.9-7.12,1.24-.98.23-1.96.4-2.96.51Z"/><path class="cls-21" d="m228.11,334.82c7.1,5.85,8.12,16.35,2.27,23.45-1.45,1.76-3.24,3.2-5.27,4.24-3.67-9.41-5.08-19.54,3-27.69"/><path class="cls-21" d="m242.02,342.04c.66,11.88,10.82,20.99,22.7,20.33,2.94-.16,5.81-.92,8.45-2.24-7-11-16.47-20.27-31.15-18.11"/><path class="cls-16" d="m210.15,307.26c.18.15.33.31.47.5l1.25,1.49c1.06,1.31,2.61,3.2,4.57,5.49,3.9,4.6,9.41,10.86,15.9,17.39,3.25,3.26,6.44,6.27,9.4,8.93s5.76,4.93,8.16,6.75c1.89,1.44,3.85,2.78,5.89,4,1.45.86,2.31,1.22,2.29,1.27-.22-.05-.44-.13-.64-.24-.6-.25-1.19-.53-1.75-.85-2.08-1.16-4.09-2.46-6-3.89-2.44-1.8-5.24-4.07-8.25-6.69s-6.2-5.66-9.46-8.92c-6.5-6.54-12-12.85-15.81-17.52-1.93-2.33-3.43-4.26-4.45-5.6l-1.18-1.56c-.15-.17-.28-.35-.39-.55Z"/><path class="cls-16" d="m227.34,349.04c-.09,0,.24-1.4.53-3.67.74-5.94.11-11.96-1.84-17.62-.75-2.16-1.36-3.45-1.28-3.49.21.26.38.55.51.86.42.81.79,1.65,1.12,2.5,1.08,2.82,1.78,5.77,2.1,8.78.31,3,.23,6.02-.25,9-.15.92-.35,1.83-.6,2.73-.06.31-.16.62-.29.91Z"/><path class="cls-17" d="m668.63,146.67c-4.21-5.59-3.1-13.53,2.48-17.75,1.24-.94,2.64-1.64,4.14-2.06,2,3.46,2.66,7.53,1.87,11.45-.68,4.35-4.13,7.75-8.49,8.36"/><path class="cls-16" d="m666.73,153.7c.07-1,.26-1.99.57-2.95.47-1.8,1.23-4.25,2.15-6.93s1.82-5.08,2.5-6.81c.32-.95.73-1.87,1.22-2.75-.21.98-.5,1.95-.87,2.88-.66,1.91-1.47,4.25-2.36,6.85s-1.73,5.1-2.29,6.86c-.26.97-.56,1.92-.92,2.85Z"/><path class="cls-8" d="m624.63,221.07c-3.52-13.07,4.22-26.51,17.28-30.03,2.91-.78,5.93-1.02,8.93-.71,1.39,7.56-1,15.32-4.95,21.89-4.71,7.75-14.07,11-21.26,8.85"/><path class="cls-16" d="m595.04,250.67c.13-.19.27-.37.43-.54l1.29-1.47c1.15-1.26,2.83-3.06,4.92-5.26,4.2-4.4,10.06-10.41,16.58-17s12.45-12.54,16.77-16.81l5.14-5.05,1.42-1.35c.32-.3.5-.46.52-.44-.13.19-.28.36-.45.52l-1.35,1.42-5,5.15-16.68,16.92-16.68,16.9-5,5.14-1.36,1.4c-.16.18-.35.34-.55.47Z"/><g class="cls-19"><path class="cls-10" d="m624.63,221.07c-3.52-13.07,4.22-26.51,17.28-30.03,2.91-.78,5.93-1.02,8.93-.71,1.39,7.56-1,15.32-4.95,21.89-4.71,7.75-14.07,11-21.26,8.85"/></g><path class="cls-8" d="m610.92,224.04c-7.38-3.76-10.32-12.79-6.56-20.17.85-1.68,2.02-3.18,3.43-4.43,4,2.5,6.56,6.77,7.89,11.29,1.58,5.34-.8,11-4.76,13.31"/><path class="cls-10" d="m610.92,224.04c-7.38-3.76-10.32-12.79-6.56-20.17.85-1.68,2.02-3.18,3.43-4.43,4,2.5,6.56,6.77,7.89,11.29,1.58,5.34-.8,11-4.76,13.31"/><path class="cls-16" d="m612.48,232.56c-.14-.29-.24-.6-.3-.92-.17-.59-.36-1.46-.57-2.55-.42-2.16-.86-5.18-1.26-8.51s-.68-6.37-.85-8.57c-.14-1.18-.19-2.37-.14-3.56.25,1.16.42,2.34.51,3.53.27,2.32.62,5.27,1,8.54.38,3.27.78,6.34,1.1,8.51s.59,3.51.51,3.53Z"/><path class="cls-8" d="m423.63,339.94c5.08-12.05,18.96-17.7,31.01-12.62,3.02,1.27,5.74,3.16,7.99,5.54-11.34,8.79-24.57,14.79-38.92,7.08"/><g class="cls-19"><path d="m423.63,339.94c5.08-12.05,18.96-17.7,31.01-12.62,3.02,1.27,5.74,3.16,7.99,5.54-11.34,8.79-24.57,14.79-38.92,7.08"/></g><path class="cls-16" d="m417.26,343.46c.27-.27.57-.5.9-.7.6-.43,1.49-1,2.63-1.66,5.94-3.44,12.53-5.61,19.35-6.39,1.3-.14,2.36-.21,3.09-.22.38-.05.76-.05,1.14,0,0,.08-1.61.18-4.19.56-3.36.49-6.67,1.27-9.89,2.32-3.22,1.06-6.33,2.4-9.32,4-2.34,1.28-3.66,2.16-3.71,2.09Z"/><path class="cls-8" d="m160.06,209.64c9.15-4.27,20.03-.31,24.29,8.84,1.06,2.26,1.64,4.72,1.71,7.21-11.05-.82-21.74-4.21-26-16.05"/><g class="cls-19"><path d="m160.06,209.64c9.15-4.27,20.03-.31,24.29,8.84,1.06,2.26,1.64,4.72,1.71,7.21-11.05-.82-21.74-4.21-26-16.05"/></g><path class="cls-16" d="m154.57,208.35c.29-.05.59-.05.88,0,.8.09,1.59.21,2.37.38,2.59.54,5.12,1.35,7.54,2.41,2.42,1.07,4.73,2.39,6.88,3.93.82.6,1.46,1.11,1.88,1.49.24.18.45.39.63.62-.06.07-1-.7-2.72-1.8-4.37-2.88-9.2-5-14.29-6.25-1.95-.49-3.18-.7-3.17-.78Z"/><path class="cls-8" d="m518.39,327.69c-1.09-8.96,5.3-17.11,14.27-18.2,2.22-.27,4.47-.08,6.61.56-3.77,9.17-9.63,17.32-20.88,17.64"/><path class="cls-16" d="m515.76,332c.31-.93.73-1.83,1.25-2.66,2.36-4.13,5.57-7.7,9.41-10.5.77-.61,1.61-1.12,2.51-1.53-.73.65-1.5,1.25-2.3,1.82-3.67,2.91-6.82,6.43-9.32,10.39-.47.86-.99,1.68-1.55,2.48Z"/><path class="cls-8" d="m597.08,275.74c-2.75-8.6,1.99-17.8,10.59-20.55,2.13-.68,4.37-.92,6.6-.7-2,9.72-6.2,18.82-17.19,21.25"/><g class="cls-19"><path d="m597.08,275.74c-2.75-8.6,1.99-17.8,10.59-20.55,2.13-.68,4.37-.92,6.6-.7-2,9.72-6.2,18.82-17.19,21.25"/></g><path class="cls-16" d="m595.31,280.47c.12-.97.37-1.93.73-2.84.77-2.25,1.77-4.4,3-6.43,1.22-2.03,2.65-3.93,4.28-5.65.64-.75,1.37-1.43,2.17-2-.59.77-1.23,1.51-1.9,2.22-1.52,1.78-2.89,3.68-4.11,5.68-1.19,2.01-2.23,4.11-3.09,6.28-.31.93-.67,1.85-1.08,2.74Z"/><path class="cls-21" d="m3.91,204.23c1.96-8.81,10.69-14.37,19.51-12.42,2.18.48,4.24,1.41,6.05,2.73-6.6,7.39-14.84,13.13-25.56,9.69"/><path class="cls-16" d="m0,207.42c.6-.78,1.29-1.48,2.06-2.09,1.79-1.54,3.74-2.88,5.82-4,2.08-1.15,4.27-2.06,6.55-2.73.93-.33,1.89-.53,2.87-.61-.9.38-1.82.72-2.76,1-4.43,1.52-8.57,3.79-12.24,6.7-.73.62-1.5,1.2-2.3,1.73Z"/></g><g id="freepik--speech-bubble--inject-17"><path class="cls-5" d="m461,73.73l8-14.49c-11.36-18.05-5.94-41.88,12.11-53.24,18.05-11.36,41.88-5.94,53.24,12.11,11.36,18.05,5.94,41.88-12.11,53.24-13.6,8.56-31.09,7.8-43.89-1.91h0l-17.35,4.29Z"/><path class="cls-16" d="m461,73.73l17.37-4.4-.07.21h0l-.61-.77.8.59c2.46,1.84,5.12,3.39,7.94,4.62,3.35,1.44,6.9,2.4,10.52,2.85,2.01.25,4.03.32,6.05.22,1-.07,2.1-.11,3.17-.21l3.21-.53c9.58-1.99,18.03-7.56,23.65-15.57,3.12-4.43,5.26-9.47,6.28-14.79,1.02-5.63.79-11.42-.68-16.95-1.5-5.77-4.35-11.11-8.31-15.57l-1.57-1.69c-.52-.57-1.13-1-1.69-1.56-.55-.53-1.13-1.03-1.74-1.49l-1.84-1.35c-.59-.45-1.21-.85-1.85-1.21l-2-1.18-2-1c-.65-.34-1.32-.64-2-.89-5.44-2.1-11.28-2.94-17.09-2.47-5.5.42-10.83,2.04-15.63,4.76-8.62,4.9-15.04,12.91-17.94,22.4-1.15,4.04-1.68,8.24-1.58,12.44.23,6.73,2.23,13.29,5.8,19v.13l-8.15,14.42,7.93-14.55v.13c-3.63-5.72-5.69-12.3-5.95-19.07-.12-4.24.4-8.48,1.55-12.56,2.9-9.6,9.36-17.73,18.06-22.72,4.86-2.75,10.26-4.41,15.83-4.84,5.89-.48,11.81.37,17.32,2.49.71.26,1.4.56,2.07.9l2.06,1,2,1.17c.67.37,1.32.79,1.93,1.25l1.79,1.34c.64.44,1.17,1,1.77,1.51s1.18,1,1.71,1.58l1.63,1.76c4.03,4.51,6.91,9.92,8.42,15.78,1.46,5.61,1.68,11.46.62,17.16-1.03,5.4-3.2,10.51-6.38,15-5.69,8.1-14.26,13.71-23.95,15.7l-3.26.53c-1.07.1-2.14.13-3.19.2-2.04.1-4.08.02-6.11-.25-3.66-.46-7.23-1.44-10.61-2.92-2.84-1.25-5.53-2.83-8-4.71l.18-.18h0l.13.16h-.2l-17.39,4.13Z"/><path class="cls-14" d="m490.99,32.13l5-.05c-.04-2.35,1.83-4.28,4.18-4.32.05,0,.1,0,.15,0,1.73-.1,3.32.93,3.95,2.55.55,1.33.44,2.83-.31,4.06-.84,1.41-2.69,2.7-6.08,2.14l.11,11.31h5l-.09-6.69c4.17-1.27,6.98-5.17,6.87-9.53-.07-7.33-6.66-9-9.48-8.94-2.15.05-9.48.64-9.3,9.47Z"/><rect class="cls-14" x="498.04" y="50.13" width="5.03" height="4.7" transform="translate(-.48 4.81) rotate(-.55)"/></g></g></svg>