<?xml version="1.0" encoding="iso-8859-1"?>
<!-- Generator: Adobe Illustrator 30.2.1, SVG Export Plug-In . SVG Version: 9.03 Build 0)  -->
<svg version="1.1" id="Layer_1" xmlns="http://www.w3.org/2000/svg" xmlns:xlink="http://www.w3.org/1999/xlink" x="0px" y="0px"
	 viewBox="0 0 668.611328 112.381348" style="enable-background:new 0 0 668.611328 112.381348;" xml:space="preserve">
<g>
	<g>
		<path style="fill:#032044;" d="M23.186523,20.95459h19.838867v23.682617h-8.430664l-0.0625-4.959473
			c-2.727539,3.223633-7.439453,5.641602-13.329102,5.641602c-11.035156,0-20.955078-8.555664-20.955078-22.566895
			c0-14.135254,10.353516-22.442871,22.691406-22.442871c10.166992,0,18.536133,5.518066,20.024414,14.445312h-9.981445
			c-1.116211-3.719727-4.897461-6.137695-10.042969-6.137695c-7.37793,0-12.399414,5.331543-12.399414,14.135254
			c0,8.989746,5.145508,14.321289,12.275391,14.321289c5.455078,0,10.166992-3.533691,10.848633-8.431641v-0.062012H23.186523
			V20.95459z"/>
		<path style="fill:#032044;" d="M58.501953,44.637207h-9.422852V12.522949h9.113281v4.773926
			C58.75,16.304688,59.494141,15.375,60.423828,14.568848c1.860352-1.487793,3.658203-2.293945,6.696289-2.293945
			c0.805664,0,1.735352,0.062012,2.293945,0.186035v8.679688c-1.488281-0.186035-2.232422-0.186035-3.162109-0.186035
			c-3.53418,0-7.75,1.301758-7.75,7.377441V44.637207z"/>
		<path style="fill:#032044;" d="M92.204102,40.979492c-2.108398,2.604004-5.393555,4.339844-10.043945,4.339844
			c-6.075195,0-11.90332-3.472168-11.90332-10.043457c0-6.695801,5.393555-9.051758,13.887695-10.415527l7.376953-1.177734
			v-0.434082c0-3.47168-1.921875-4.835938-5.269531-4.835938c-3.40918,0-5.517578,1.611816-6.075195,4.587891h-8.803711
			c1.053711-7.005859,7.191406-11.283203,15.313477-11.283203c8.678711,0,14.134766,3.409668,14.073242,12.460938l-0.0625,13.63916
			c0,1.054199,0.0625,2.914062,0.248047,6.819824h-8.617188L92.204102,40.979492z M84.578125,38.623535
			c3.782227,0,6.943359-2.231934,6.943359-6.695801v-2.169922c-8.493164,1.054199-12.151367,1.984375-12.151367,5.083984
			C79.370117,37.321777,81.602539,38.623535,84.578125,38.623535z"/>
		<path style="fill:#032044;" d="M128.875977,40.111328c-1.921875,3.348145-5.208008,5.208008-9.670898,5.208008
			c-7.998047,0-14.879883-5.827637-14.879883-16.987305c0-10.725098,7.129883-16.552734,15.00293-16.552734
			c4.154297,0,7.316406,1.549805,9.238281,4.339355V0h9.422852v44.637207h-9.113281V40.111328z M128.751953,28.332031
			c0-5.703613-3.162109-8.989258-7.37793-8.989258c-4.277344,0-7.376953,3.285645-7.376953,8.989258
			c0,5.95166,3.099609,9.42334,7.376953,9.42334C125.46582,37.755371,128.751953,34.345703,128.751953,28.332031z"/>
		<path style="fill:#032044;" d="M164.556641,40.855469c-2.107422,2.975586-5.456055,4.525879-9.423828,4.525879
			c-6.819336,0-11.716797-4.21582-11.716797-12.709473V12.522949h9.423828v18.413086c0,4.153809,2.168945,6.32373,5.579102,6.32373
			c3.038086,0,5.828125-2.169922,5.828125-7.315918V12.522949h9.422852v32.114258h-9.113281V40.855469z"/>
		<path style="fill:#032044;" d="M199.554688,40.979492c-2.107422,2.604004-5.393555,4.339844-10.042969,4.339844
			c-6.076172,0-11.90332-3.472168-11.90332-10.043457c0-6.695801,5.393555-9.051758,13.886719-10.415527l7.37793-1.177734v-0.434082
			c0-3.47168-1.921875-4.835938-5.269531-4.835938c-3.410156,0-5.517578,1.611816-6.076172,4.587891h-8.803711
			c1.054688-7.005859,7.192383-11.283203,15.313477-11.283203c8.679688,0,14.135742,3.409668,14.073242,12.460938
			l-0.061523,13.63916c0,1.054199,0.061523,2.914062,0.24707,6.819824h-8.617188L199.554688,40.979492z M191.929688,38.623535
			c3.78125,0,6.943359-2.231934,6.943359-6.695801v-2.169922c-8.494141,1.054199-12.151367,1.984375-12.151367,5.083984
			C186.72168,37.321777,188.953125,38.623535,191.929688,38.623535z"/>
		<path style="fill:#032044;" d="M215.272461,35.895508V19.404785h-5.208008v-6.881836h5.208008V4.525391h9.237305v7.997559
			h7.129883v6.881836h-7.129883v14.320801c0,3.224121,0.992188,3.844238,3.53418,3.844238h3.595703v7.005371
			c-2.169922,0.124023-3.967773,0.124023-7.005859,0.124023C218.744141,44.699219,215.272461,42.963379,215.272461,35.895508z"/>
		<path style="fill:#032044;" d="M249.96582,45.381348c-9.299805,0-17.111328-6.385742-17.111328-16.987305
			c0-10.291504,8.05957-16.676758,16.925781-16.676758c9.113281,0,16.614258,6.075684,16.614258,17.358887v1.921875H242.27832
			c0.496094,4.649902,3.78125,7.439453,7.99707,7.439453c2.728516,0,5.456055-0.929688,6.757812-3.47168h9.051758
			C264.100586,42.157227,257.033203,45.381348,249.96582,45.381348z M242.21582,25.046387h14.693359
			c-0.30957-3.905762-3.223633-6.447754-7.25293-6.447754C245.8125,18.598633,242.711914,20.95459,242.21582,25.046387z"/>
		<path style="fill:#032044;" d="M283.198242,30.936035h9.857422c0.620117,4.649902,4.21582,6.819336,8.927734,6.819336
			c4.338867,0,7.625-1.797852,7.625-5.083496c0-2.852051-2.666016-4.277832-7.439453-5.269531l-4.339844-0.930176
			c-9.237305-1.921875-13.577148-6.075684-13.577148-12.708984c0-7.935547,7.625977-13.453613,16.924805-13.453613
			c9.485352,0,16.677734,4.897949,17.544922,13.515625h-9.794922c-0.558594-3.720215-3.53418-5.889648-7.811523-5.889648
			c-3.967773,0-7.067383,2.04541-7.067383,4.959473c0,2.604004,1.921875,3.719727,6.260742,4.587891l4.835938,1.053711
			c8.742188,1.73584,14.383789,5.641602,14.383789,13.205566c0,8.927246-8.370117,13.63916-17.607422,13.63916
			C291.87793,45.381348,284.066406,40.793457,283.198242,30.936035z"/>
		<path style="fill:#032044;" d="M321.891602,28.394043c0-10.043457,7.811523-16.676758,17.048828-16.676758
			c8.370117,0,14.941406,4.959473,15.933594,12.646973h-9.299805c-0.744141-3.037598-3.410156-4.959473-6.633789-4.959473
			c-4.339844,0-7.37793,3.657715-7.37793,8.989258c0,5.517578,3.100586,9.299316,7.37793,9.299316
			c3.162109,0,5.704102-1.797852,6.572266-5.021484h9.361328C353.633789,40.607422,347,45.381348,338.878906,45.381348
			C329.455078,45.381348,321.891602,38.747559,321.891602,28.394043z"/>
		<path style="fill:#032044;" d="M367.975586,44.637207h-9.422852V0h9.422852v13.577148c0,0.867676,0,1.673828,0,2.41748
			c2.045898-2.665527,5.456055-4.215332,9.423828-4.215332c7.005859,0,11.716797,4.215332,11.716797,12.833008v20.024902h-9.422852
			V26.286133c0-4.091797-2.108398-6.447266-5.641602-6.447266c-3.286133,0-6.076172,2.41748-6.076172,7.6875V44.637207z"/>
		<path style="fill:#032044;" d="M392.621094,28.394043c0-10.229492,7.873047-16.676758,17.420898-16.676758
			c9.609375,0,17.420898,6.385254,17.420898,16.676758c0,10.353516-7.75,16.987305-17.420898,16.987305
			C400.308594,45.381348,392.621094,38.80957,392.621094,28.394043z M417.791016,28.394043
			c0-5.393555-3.162109-8.989258-7.749023-8.989258c-4.650391,0-7.75,3.595703-7.75,8.989258
			c0,5.641602,3.162109,9.299316,7.75,9.299316C414.691406,37.693359,417.791016,34.097656,417.791016,28.394043z"/>
		<path style="fill:#032044;" d="M429.449219,28.394043c0-10.229492,7.873047-16.676758,17.420898-16.676758
			c9.609375,0,17.420898,6.385254,17.420898,16.676758c0,10.353516-7.75,16.987305-17.420898,16.987305
			C437.136719,45.381348,429.449219,38.80957,429.449219,28.394043z M454.619141,28.394043
			c0-5.393555-3.162109-8.989258-7.749023-8.989258c-4.650391,0-7.75,3.595703-7.75,8.989258
			c0,5.641602,3.162109,9.299316,7.75,9.299316C451.519531,37.693359,454.619141,34.097656,454.619141,28.394043z"/>
		<path style="fill:#032044;" d="M468.198242,0h9.422852v44.637207h-9.422852V0z"/>
		<path style="fill:#032044;" d="M0,95.394043c0-10.229492,7.874023-16.676758,17.420898-16.676758
			c9.609375,0,17.421875,6.385254,17.421875,16.676758c0,10.353516-7.75,16.987305-17.421875,16.987305
			C7.6875,112.381348,0,105.80957,0,95.394043z M25.170898,95.394043c0-5.393555-3.162109-8.989258-7.75-8.989258
			c-4.649414,0-7.749023,3.595703-7.749023,8.989258c0,5.641602,3.162109,9.299316,7.749023,9.299316
			C22.071289,104.693359,25.170898,101.097656,25.170898,95.394043z"/>
		<path style="fill:#032044;" d="M49.853516,86.404785v25.232422h-9.175781V86.404785H35.34668v-6.881836h5.331055v-3.409668
			c0-7.067871,4.030273-9.175293,10.105469-9.175293c2.417969,0,3.967773,0,6.137695,0.062012v6.943359
			c-1.301758-0.062012-2.541992-0.062012-3.905273-0.062012c-1.860352,0-3.162109,0.496094-3.162109,3.099609v2.541992h7.067383
			v6.881836H49.853516z"/>
		<path style="fill:#032044;" d="M75.335938,68.239746h19.776367c10.105469,0,14.878906,4.773438,14.878906,11.53125
			c0,4.835938-2.727539,8.05957-6.323242,9.175293v0.124023c4.21582,1.302246,7.253906,4.959961,7.253906,10.353516
			c0,7.563477-5.765625,12.213379-16.305664,12.213379H75.335938V68.239746z M85.130859,75.679199v10.105469h8.679688
			c4.091797,0,6.261719-1.797852,6.261719-5.021484c0-3.100098-2.231445-5.083984-6.261719-5.083984H85.130859z
			 M85.130859,92.976074v11.22168H93.625c4.710938,0,7.25293-2.045898,7.25293-5.57959
			c0-3.596191-2.541992-5.64209-7.191406-5.64209H85.130859z"/>
		<path style="fill:#032044;" d="M115.678711,67h9.485352v7.811523h-9.485352V67z M115.678711,79.522949h9.423828v32.114258
			h-9.423828V79.522949z"/>
		<path style="fill:#032044;" d="M128.773438,95.394043c0-10.229492,7.873047-16.676758,17.420898-16.676758
			c9.609375,0,17.420898,6.385254,17.420898,16.676758c0,10.353516-7.75,16.987305-17.420898,16.987305
			C136.460938,112.381348,128.773438,105.80957,128.773438,95.394043z M153.943359,95.394043
			c0-5.393555-3.161133-8.989258-7.749023-8.989258c-4.649414,0-7.75,3.595703-7.75,8.989258
			c0,5.641602,3.162109,9.299316,7.75,9.299316C150.84375,104.693359,153.943359,101.097656,153.943359,95.394043z"/>
		<path style="fill:#032044;" d="M176.865234,111.637207h-9.422852V79.522949h9.113281v3.781738
			c1.984375-2.913574,5.393555-4.525391,9.547852-4.525391c3.78125,0,7.500977,1.549805,9.670898,5.20752
			c2.108398-3.409668,5.952148-5.20752,10.477539-5.20752c6.323242,0,11.841797,3.47168,11.841797,12.522949v20.334961h-9.423828
			V93.038086c0-4.153809-2.293945-6.199219-5.393555-6.199219c-3.038086,0-5.765625,2.355469-5.765625,7.31543v17.48291h-9.423828
			V93.038086c0-4.153809-2.293945-6.199219-5.393555-6.199219c-3.038086,0-5.828125,2.293457-5.828125,7.31543V111.637207z"/>
		<path style="fill:#032044;" d="M238.80957,112.381348c-9.299805,0-17.111328-6.385742-17.111328-16.987305
			c0-10.291504,8.05957-16.676758,16.925781-16.676758c9.113281,0,16.614258,6.075684,16.614258,17.358887v1.921875H231.12207
			c0.496094,4.649902,3.78125,7.439453,7.99707,7.439453c2.728516,0,5.456055-0.929688,6.757812-3.47168h9.051758
			C252.944336,109.157227,245.876953,112.381348,238.80957,112.381348z M231.05957,92.046387h14.693359
			c-0.30957-3.905762-3.223633-6.447754-7.25293-6.447754C234.65625,85.598633,231.555664,87.95459,231.05957,92.046387z"/>
		<path style="fill:#032044;" d="M282.016602,107.111328c-1.921875,3.348145-5.208008,5.208008-9.671875,5.208008
			c-7.99707,0-14.878906-5.827637-14.878906-16.987305c0-10.725098,7.128906-16.552734,15.00293-16.552734
			c4.15332,0,7.31543,1.549805,9.237305,4.339355V67h9.423828v44.637207h-9.113281V107.111328z M281.892578,95.332031
			c0-5.703613-3.162109-8.989258-7.37793-8.989258c-4.277344,0-7.37793,3.285645-7.37793,8.989258
			c0,5.95166,3.100586,9.42334,7.37793,9.42334C278.606445,104.755371,281.892578,101.345703,281.892578,95.332031z"/>
		<path style="fill:#032044;" d="M296.80957,67h9.485352v7.811523h-9.485352V67z M296.80957,79.522949h9.423828v32.114258h-9.423828
			V79.522949z"/>
		<path style="fill:#032044;" d="M309.904297,95.394043c0-10.043457,7.811523-16.676758,17.048828-16.676758
			c8.370117,0,14.941406,4.959473,15.933594,12.646973h-9.299805c-0.744141-3.037598-3.410156-4.959473-6.633789-4.959473
			c-4.339844,0-7.37793,3.657715-7.37793,8.989258c0,5.517578,3.100586,9.299316,7.37793,9.299316
			c3.162109,0,5.704102-1.797852,6.572266-5.021484h9.361328c-1.240234,7.935547-7.874023,12.709473-15.995117,12.709473
			C317.467773,112.381348,309.904297,105.747559,309.904297,95.394043z"/>
		<path style="fill:#032044;" d="M366.78125,107.979492c-2.107422,2.604004-5.393555,4.339844-10.042969,4.339844
			c-6.076172,0-11.90332-3.472168-11.90332-10.043457c0-6.695801,5.393555-9.051758,13.886719-10.415527l7.37793-1.177734v-0.434082
			c0-3.47168-1.921875-4.835938-5.269531-4.835938c-3.410156,0-5.517578,1.611816-6.076172,4.587891h-8.802734
			c1.053711-7.005859,7.191406-11.283203,15.3125-11.283203c8.679688,0,14.135742,3.409668,14.073242,12.460938l-0.061523,13.63916
			c0,1.054199,0.061523,2.914062,0.248047,6.819824h-8.618164L366.78125,107.979492z M359.15625,105.623535
			c3.78125,0,6.943359-2.231934,6.943359-6.695801v-2.169922c-8.493164,1.054199-12.151367,1.984375-12.151367,5.083984
			C353.948242,104.321777,356.180664,105.623535,359.15625,105.623535z"/>
		<path style="fill:#032044;" d="M380.745117,67h9.422852v44.637207h-9.422852V67z"/>
		<path style="fill:#032044;" d="M408.892578,97.936035H418.75c0.620117,4.649902,4.21582,6.819336,8.927734,6.819336
			c4.339844,0,7.625-1.797852,7.625-5.083496c0-2.852051-2.665039-4.277832-7.439453-5.269531l-4.339844-0.930176
			c-9.237305-1.921875-13.577148-6.075684-13.577148-12.708984c0-7.935547,7.625977-13.453613,16.925781-13.453613
			c9.485352,0,16.676758,4.897949,17.544922,13.515625h-9.795898c-0.557617-3.720215-3.53418-5.889648-7.811523-5.889648
			c-3.967773,0-7.067383,2.04541-7.067383,4.959473c0,2.604004,1.921875,3.719727,6.261719,4.587891l4.835938,1.053711
			c8.741211,1.73584,14.382812,5.641602,14.382812,13.205566c0,8.927246-8.369141,13.63916-17.607422,13.63916
			C417.572266,112.381348,409.760742,107.793457,408.892578,97.936035z"/>
		<path style="fill:#032044;" d="M447.585938,95.394043c0-10.043457,7.811523-16.676758,17.048828-16.676758
			c8.369141,0,14.94043,4.959473,15.932617,12.646973h-9.298828c-0.744141-3.037598-3.410156-4.959473-6.633789-4.959473
			c-4.339844,0-7.37793,3.657715-7.37793,8.989258c0,5.517578,3.099609,9.299316,7.37793,9.299316
			c3.161133,0,5.703125-1.797852,6.571289-5.021484h9.361328c-1.239258,7.935547-7.873047,12.709473-15.995117,12.709473
			C455.149414,112.381348,447.585938,105.747559,447.585938,95.394043z"/>
		<path style="fill:#032044;" d="M484.246094,67h9.485352v7.811523h-9.485352V67z M484.246094,79.522949h9.422852v32.114258
			h-9.422852V79.522949z"/>
		<path style="fill:#032044;" d="M514.451172,112.381348c-9.298828,0-17.110352-6.385742-17.110352-16.987305
			c0-10.291504,8.05957-16.676758,16.924805-16.676758c9.113281,0,16.615234,6.075684,16.615234,17.358887v1.921875h-24.117188
			c0.496094,4.649902,3.782227,7.439453,7.998047,7.439453c2.727539,0,5.455078-0.929688,6.756836-3.47168h9.051758
			C528.586914,109.157227,521.518555,112.381348,514.451172,112.381348z M506.702148,92.046387h14.692383
			c-0.30957-3.905762-3.223633-6.447754-7.25293-6.447754C510.297852,85.598633,507.198242,87.95459,506.702148,92.046387z"/>
		<path style="fill:#032044;" d="M544.272461,111.637207h-9.422852V79.522949h9.113281v3.905762
			c2.045898-2.975586,5.579102-4.649414,9.733398-4.649414c7.005859,0,11.716797,4.215332,11.716797,12.833008v20.024902h-9.422852
			V93.286133c0-4.091797-2.108398-6.447266-5.641602-6.447266c-3.286133,0-6.076172,2.41748-6.076172,7.6875V111.637207z"/>
		<path style="fill:#032044;" d="M568.917969,95.394043c0-10.043457,7.811523-16.676758,17.048828-16.676758
			c8.369141,0,14.94043,4.959473,15.932617,12.646973h-9.298828c-0.744141-3.037598-3.410156-4.959473-6.633789-4.959473
			c-4.339844,0-7.37793,3.657715-7.37793,8.989258c0,5.517578,3.099609,9.299316,7.37793,9.299316
			c3.161133,0,5.703125-1.797852,6.571289-5.021484h9.361328c-1.239258,7.935547-7.873047,12.709473-15.995117,12.709473
			C576.481445,112.381348,568.917969,105.747559,568.917969,95.394043z"/>
		<path style="fill:#032044;" d="M620.749023,112.381348c-9.298828,0-17.110352-6.385742-17.110352-16.987305
			c0-10.291504,8.058594-16.676758,16.924805-16.676758c9.113281,0,16.615234,6.075684,16.615234,17.358887v1.921875h-24.117188
			c0.496094,4.649902,3.782227,7.439453,7.998047,7.439453c2.727539,0,5.455078-0.929688,6.756836-3.47168h9.051758
			C634.884766,109.157227,627.816406,112.381348,620.749023,112.381348z M613,92.046387h14.692383
			c-0.30957-3.905762-3.223633-6.447754-7.25293-6.447754C616.595703,85.598633,613.496094,87.95459,613,92.046387z"/>
		<path style="fill:#032044;" d="M639.163086,101.469727h8.741211c0.496094,2.976074,3.038086,4.401855,6.509766,4.401855
			c2.728516,0,5.145508-0.992188,5.145508-3.223633c0-1.983887-1.797852-2.852051-5.827148-3.53418l-3.347656-0.619629
			c-6.572266-1.178223-10.664062-4.091797-10.664062-9.237793c0-6.571289,6.076172-10.601074,13.825195-10.601074
			c7.37793,0,13.454102,3.719727,14.321289,10.291016H659.25c-0.620117-2.41748-2.727539-3.781738-5.889648-3.781738
			c-2.727539,0-4.773438,1.240234-4.773438,3.162109c0,1.797852,1.611328,2.47998,5.083008,3.099609l3.286133,0.558105
			c7.31543,1.301758,11.655273,4.153809,11.655273,9.733398c0,7.067383-6.695312,10.663574-14.382812,10.663574
			C646.354492,112.381348,640.092773,108.971191,639.163086,101.469727z"/>
	</g>
</g>
<g>
</g>
<g>
</g>
<g>
</g>
<g>
</g>
<g>
</g>
<g>
</g>
<g>
</g>
<g>
</g>
<g>
</g>
<g>
</g>
<g>
</g>
<g>
</g>
<g>
</g>
<g>
</g>
<g>
</g>
</svg>
