<?xml version="1.0" encoding="iso-8859-1"?>
<!-- Generator: Adobe Illustrator 30.2.1, SVG Export Plug-In . SVG Version: 9.03 Build 0)  -->
<svg version="1.1" id="Layer_1" xmlns="http://www.w3.org/2000/svg" xmlns:xlink="http://www.w3.org/1999/xlink" x="0px" y="0px"
	 viewBox="0 0 471.731445 112.443359" style="enable-background:new 0 0 471.731445 112.443359;" xml:space="preserve">
<g>
	<g>
		<path style="fill:#032044;" d="M0,30.998047h9.857422c0.620117,4.649902,4.21582,6.819336,8.927734,6.819336
			c4.338867,0,7.625-1.797852,7.625-5.083496c0-2.852051-2.666016-4.277832-7.439453-5.269531l-4.339844-0.930176
			C5.393555,24.612305,1.053711,20.458496,1.053711,13.825195c0-7.935547,7.625977-13.453613,16.924805-13.453613
			c9.485352,0,16.677734,4.897949,17.544922,13.515625h-9.794922c-0.558594-3.720215-3.53418-5.889648-7.811523-5.889648
			c-3.967773,0-7.067383,2.04541-7.067383,4.959473c0,2.604004,1.921875,3.719727,6.260742,4.587891l4.835938,1.053711
			c8.742188,1.73584,14.383789,5.641602,14.383789,13.205566c0,8.927246-8.370117,13.63916-17.607422,13.63916
			C8.679688,45.443359,0.868164,40.855469,0,30.998047z"/>
		<path style="fill:#032044;" d="M38.693359,28.456055c0-10.043457,7.811523-16.676758,17.048828-16.676758
			c8.369141,0,14.941406,4.959473,15.932617,12.646973h-9.298828c-0.744141-3.037598-3.410156-4.959473-6.633789-4.959473
			c-4.339844,0-7.37793,3.657715-7.37793,8.989258c0,5.517578,3.100586,9.299316,7.37793,9.299316
			c3.162109,0,5.704102-1.797852,6.571289-5.021484h9.361328c-1.239258,7.935547-7.873047,12.709473-15.994141,12.709473
			C46.256836,45.443359,38.693359,38.80957,38.693359,28.456055z"/>
		<path style="fill:#032044;" d="M84.776367,44.699219h-9.422852V0.062012h9.422852V13.63916c0,0.867676,0,1.673828,0,2.41748
			c2.045898-2.665527,5.456055-4.215332,9.423828-4.215332c7.005859,0,11.717773,4.215332,11.717773,12.833008v20.024902h-9.423828
			V26.348145c0-4.091797-2.107422-6.447266-5.641602-6.447266c-3.286133,0-6.076172,2.41748-6.076172,7.6875V44.699219z"/>
		<path style="fill:#032044;" d="M109.421875,28.456055c0-10.229492,7.874023-16.676758,17.420898-16.676758
			c9.609375,0,17.421875,6.385254,17.421875,16.676758c0,10.353516-7.75,16.987305-17.421875,16.987305
			C117.109375,45.443359,109.421875,38.871582,109.421875,28.456055z M134.592773,28.456055
			c0-5.393555-3.162109-8.989258-7.75-8.989258c-4.649414,0-7.749023,3.595703-7.749023,8.989258
			c0,5.641602,3.162109,9.299316,7.749023,9.299316C131.493164,37.755371,134.592773,34.159668,134.592773,28.456055z"/>
		<path style="fill:#032044;" d="M146.25,28.456055c0-10.229492,7.873047-16.676758,17.420898-16.676758
			c9.609375,0,17.420898,6.385254,17.420898,16.676758c0,10.353516-7.75,16.987305-17.420898,16.987305
			C153.9375,45.443359,146.25,38.871582,146.25,28.456055z M171.419922,28.456055c0-5.393555-3.161133-8.989258-7.749023-8.989258
			c-4.649414,0-7.75,3.595703-7.75,8.989258c0,5.641602,3.162109,9.299316,7.75,9.299316
			C168.320312,37.755371,171.419922,34.159668,171.419922,28.456055z"/>
		<path style="fill:#032044;" d="M184.999023,0.062012h9.423828v44.637207h-9.423828V0.062012z"/>
		<path style="fill:#032044;" d="M213.208984,28.456055c0-10.229492,7.873047-16.676758,17.420898-16.676758
			c9.609375,0,17.420898,6.385254,17.420898,16.676758c0,10.353516-7.75,16.987305-17.420898,16.987305
			C220.896484,45.443359,213.208984,38.871582,213.208984,28.456055z M238.378906,28.456055
			c0-5.393555-3.161133-8.989258-7.749023-8.989258c-4.649414,0-7.75,3.595703-7.75,8.989258
			c0,5.641602,3.162109,9.299316,7.75,9.299316C235.279297,37.755371,238.378906,34.159668,238.378906,28.456055z"/>
		<path style="fill:#032044;" d="M263.061523,19.466797v25.232422h-9.174805V19.466797h-5.332031v-6.881836h5.332031V9.175293
			C253.886719,2.107422,257.916016,0,263.992188,0c2.417969,0,3.967773,0,6.137695,0.062012v6.943359
			c-1.302734-0.062012-2.541992-0.062012-3.90625-0.062012c-1.859375,0-3.162109,0.496094-3.162109,3.099609v2.541992h7.068359
			v6.881836H263.061523z"/>
		<path style="fill:#032044;" d="M288.544922,1.301758h10.105469v16.676758h18.908203V1.301758h10.105469v43.397461h-10.105469
			V26.410156h-18.908203v18.289062h-10.105469V1.301758z"/>
		<path style="fill:#032044;" d="M349.266602,45.443359c-9.299805,0-17.111328-6.385742-17.111328-16.987305
			c0-10.291504,8.05957-16.676758,16.924805-16.676758c9.113281,0,16.615234,6.075684,16.615234,17.358887v1.921875h-24.116211
			c0.496094,4.649902,3.78125,7.439453,7.99707,7.439453c2.727539,0,5.456055-0.929688,6.757812-3.47168h9.051758
			C363.401367,42.219238,356.333984,45.443359,349.266602,45.443359z M341.516602,25.108398h14.693359
			c-0.30957-3.905762-3.223633-6.447754-7.253906-6.447754C345.112305,18.660645,342.012695,21.016602,341.516602,25.108398z"/>
		<path style="fill:#032044;" d="M389.632812,41.041504c-2.107422,2.604004-5.393555,4.339844-10.042969,4.339844
			c-6.076172,0-11.90332-3.472168-11.90332-10.043457c0-6.695801,5.393555-9.051758,13.886719-10.415527l7.37793-1.177734v-0.434082
			c0-3.47168-1.921875-4.835938-5.269531-4.835938c-3.410156,0-5.517578,1.611816-6.076172,4.587891h-8.802734
			c1.053711-7.005859,7.191406-11.283203,15.3125-11.283203c8.679688,0,14.135742,3.409668,14.073242,12.460938l-0.061523,13.63916
			c0,1.054199,0.061523,2.914062,0.248047,6.819824h-8.618164L389.632812,41.041504z M382.007812,38.685547
			c3.78125,0,6.943359-2.231934,6.943359-6.695801v-2.169922c-8.493164,1.054199-12.151367,1.984375-12.151367,5.083984
			C376.799805,37.383789,379.032227,38.685547,382.007812,38.685547z"/>
		<path style="fill:#032044;" d="M403.597656,0.062012h9.422852v44.637207h-9.422852V0.062012z"/>
		<path style="fill:#032044;" d="M420.727539,35.95752V19.466797h-5.208008v-6.881836h5.208008V4.587402h9.237305v7.997559h7.128906
			v6.881836h-7.128906v14.320801c0,3.224121,0.991211,3.844238,3.533203,3.844238h3.595703v7.005371
			c-2.169922,0.124023-3.967773,0.124023-7.004883,0.124023C424.199219,44.76123,420.727539,43.025391,420.727539,35.95752z"/>
		<path style="fill:#032044;" d="M450.59082,44.699219h-9.422852V0.062012h9.422852V13.63916c0,0.867676,0,1.673828,0,2.41748
			c2.045898-2.665527,5.456055-4.215332,9.423828-4.215332c7.005859,0,11.716797,4.215332,11.716797,12.833008v20.024902h-9.422852
			V26.348145c0-4.091797-2.108398-6.447266-5.641602-6.447266c-3.286133,0-6.076172,2.41748-6.076172,7.6875V44.699219z"/>
		<path style="fill:#032044;" d="M2.479492,68.301758h18.661133c10.601562,0,16.119141,5.827637,16.119141,14.197266
			c0,8.617188-5.765625,14.444824-16.181641,14.444824h-8.493164v14.755371H2.479492V68.301758z M19.652344,88.884277
			c4.898438,0,7.439453-2.479492,7.439453-6.26123s-2.603516-6.261719-7.439453-6.261719h-7.067383v12.522949H19.652344z"/>
		<path style="fill:#032044;" d="M49.400391,111.699219h-9.423828V79.584961h9.114258v4.773926
			c0.557617-0.992188,1.301758-1.921875,2.231445-2.728027c1.859375-1.487793,3.658203-2.293945,6.695312-2.293945
			c0.806641,0,1.736328,0.062012,2.293945,0.186035v8.679688c-1.487305-0.186035-2.231445-0.186035-3.162109-0.186035
			c-3.533203,0-7.749023,1.301758-7.749023,7.377441V111.699219z"/>
		<path style="fill:#032044;" d="M61.081055,95.456055c0-10.229492,7.873047-16.676758,17.420898-16.676758
			c9.609375,0,17.420898,6.385254,17.420898,16.676758c0,10.353516-7.75,16.987305-17.420898,16.987305
			C68.768555,112.443359,61.081055,105.871582,61.081055,95.456055z M86.250977,95.456055
			c0-5.393555-3.161133-8.989258-7.749023-8.989258c-4.649414,0-7.75,3.595703-7.75,8.989258
			c0,5.641602,3.162109,9.299316,7.75,9.299316C83.151367,104.755371,86.250977,101.159668,86.250977,95.456055z"/>
		<path style="fill:#032044;" d="M110.933594,86.466797v25.232422h-9.174805V86.466797h-5.332031v-6.881836h5.332031v-3.409668
			c0-7.067871,4.029297-9.175293,10.105469-9.175293c2.417969,0,3.967773,0,6.137695,0.062012v6.943359
			c-1.302734-0.062012-2.541992-0.062012-3.90625-0.062012c-1.859375,0-3.162109,0.496094-3.162109,3.099609v2.541992h7.068359
			v6.881836H110.933594z"/>
		<path style="fill:#032044;" d="M135.69043,112.443359c-9.299805,0-17.111328-6.385742-17.111328-16.987305
			c0-10.291504,8.05957-16.676758,16.925781-16.676758c9.113281,0,16.614258,6.075684,16.614258,17.358887v1.921875H128.00293
			c0.496094,4.649902,3.78125,7.439453,7.99707,7.439453c2.728516,0,5.456055-0.929688,6.757812-3.47168h9.051758
			C149.825195,109.219238,142.757812,112.443359,135.69043,112.443359z M127.94043,92.108398h14.693359
			c-0.30957-3.905762-3.223633-6.447754-7.25293-6.447754C131.537109,85.660645,128.436523,88.016602,127.94043,92.108398z"/>
		<path style="fill:#032044;" d="M154.104492,101.531738h8.742188c0.495117,2.976074,3.037109,4.401855,6.508789,4.401855
			c2.728516,0,5.146484-0.992188,5.146484-3.223633c0-1.983887-1.797852-2.852051-5.828125-3.53418l-3.347656-0.619629
			c-6.571289-1.178223-10.663086-4.091797-10.663086-9.237793c0-6.571289,6.075195-10.601074,13.825195-10.601074
			c7.376953,0,13.453125,3.719727,14.321289,10.291016h-8.618164c-0.620117-2.41748-2.727539-3.781738-5.889648-3.781738
			c-2.727539,0-4.773438,1.240234-4.773438,3.162109c0,1.797852,1.612305,2.47998,5.083984,3.099609l3.285156,0.558105
			c7.31543,1.301758,11.655273,4.153809,11.655273,9.733398c0,7.067383-6.695312,10.663574-14.382812,10.663574
			C161.295898,112.443359,155.035156,109.033203,154.104492,101.531738z"/>
		<path style="fill:#032044;" d="M185.599609,101.531738h8.742188c0.495117,2.976074,3.037109,4.401855,6.508789,4.401855
			c2.728516,0,5.146484-0.992188,5.146484-3.223633c0-1.983887-1.797852-2.852051-5.828125-3.53418l-3.347656-0.619629
			c-6.571289-1.178223-10.663086-4.091797-10.663086-9.237793c0-6.571289,6.075195-10.601074,13.825195-10.601074
			c7.376953,0,13.453125,3.719727,14.321289,10.291016h-8.618164c-0.620117-2.41748-2.727539-3.781738-5.889648-3.781738
			c-2.727539,0-4.773438,1.240234-4.773438,3.162109c0,1.797852,1.612305,2.47998,5.083984,3.099609l3.285156,0.558105
			c7.31543,1.301758,11.655273,4.153809,11.655273,9.733398c0,7.067383-6.695312,10.663574-14.382812,10.663574
			C192.791016,112.443359,186.530273,109.033203,185.599609,101.531738z"/>
		<path style="fill:#032044;" d="M218.923828,67.062012h9.485352v7.811523h-9.485352V67.062012z M218.923828,79.584961h9.423828
			v32.114258h-9.423828V79.584961z"/>
		<path style="fill:#032044;" d="M232.018555,95.456055c0-10.229492,7.873047-16.676758,17.420898-16.676758
			c9.609375,0,17.420898,6.385254,17.420898,16.676758c0,10.353516-7.75,16.987305-17.420898,16.987305
			C239.706055,112.443359,232.018555,105.871582,232.018555,95.456055z M257.188477,95.456055
			c0-5.393555-3.161133-8.989258-7.749023-8.989258c-4.649414,0-7.75,3.595703-7.75,8.989258
			c0,5.641602,3.162109,9.299316,7.75,9.299316C254.088867,104.755371,257.188477,101.159668,257.188477,95.456055z"/>
		<path style="fill:#032044;" d="M280.110352,111.699219H270.6875V79.584961h9.113281v3.905762
			c2.045898-2.975586,5.580078-4.649414,9.733398-4.649414c7.005859,0,11.717773,4.215332,11.717773,12.833008v20.024902h-9.423828
			V93.348145c0-4.091797-2.107422-6.447266-5.641602-6.447266c-3.286133,0-6.076172,2.41748-6.076172,7.6875V111.699219z"/>
		<path style="fill:#032044;" d="M304.731445,101.531738h8.741211c0.496094,2.976074,3.038086,4.401855,6.509766,4.401855
			c2.727539,0,5.145508-0.992188,5.145508-3.223633c0-1.983887-1.797852-2.852051-5.827148-3.53418l-3.348633-0.619629
			c-6.571289-1.178223-10.663086-4.091797-10.663086-9.237793c0-6.571289,6.076172-10.601074,13.825195-10.601074
			c7.37793,0,13.453125,3.719727,14.321289,10.291016h-8.617188c-0.620117-2.41748-2.728516-3.781738-5.889648-3.781738
			c-2.728516,0-4.774414,1.240234-4.774414,3.162109c0,1.797852,1.612305,2.47998,5.083984,3.099609l3.286133,0.558105
			c7.31543,1.301758,11.655273,4.153809,11.655273,9.733398c0,7.067383-6.695312,10.663574-14.382812,10.663574
			C311.922852,112.443359,305.661133,109.033203,304.731445,101.531738z"/>
	</g>
</g>
<g>
</g>
<g>
</g>
<g>
</g>
<g>
</g>
<g>
</g>
<g>
</g>
<g>
</g>
<g>
</g>
<g>
</g>
<g>
</g>
<g>
</g>
<g>
</g>
<g>
</g>
<g>
</g>
<g>
</g>
</svg>
