<?xml version="1.0" encoding="iso-8859-1"?>
<!-- Generator: Adobe Illustrator 30.2.1, SVG Export Plug-In . SVG Version: 9.03 Build 0)  -->
<svg version="1.1" id="Layer_1" xmlns="http://www.w3.org/2000/svg" xmlns:xlink="http://www.w3.org/1999/xlink" x="0px" y="0px"
	 viewBox="0 0 1128.463867 57.160645" style="enable-background:new 0 0 1128.463867 57.160645;" xml:space="preserve">
<g>
	<g>
		<path style="fill:#032044;" d="M0,22.814697C0,8.617432,10.663574,0.37207,21.822754,0.37207
			c10.539551,0,18.84668,6.261475,20.148926,15.74707H31.866211c-1.178223-4.339844-4.897949-7.129639-10.105469-7.129639
			c-6.32373,0-11.345215,5.331787-11.345215,13.825195c0,8.493652,5.083496,14.01123,11.407227,14.01123
			c5.083496,0,8.679688-2.665771,10.105469-7.129639h10.105469c-1.549805,9.547607-9.733398,15.74707-20.272949,15.74707
			C10.291504,45.443359,0,37.073975,0,22.814697z"/>
		<path style="fill:#032044;" d="M44.106445,28.456299c0-10.229248,7.873535-16.677002,17.420898-16.677002
			c9.609375,0,17.421387,6.385742,17.421387,16.677002c0,10.353516-7.75,16.987061-17.421387,16.987061
			C51.793945,45.443359,44.106445,38.871826,44.106445,28.456299z M69.276855,28.456299
			c0-5.393555-3.161621-8.989502-7.749512-8.989502c-4.649414,0-7.749512,3.595947-7.749512,8.989502
			c0,5.641846,3.162109,9.299561,7.749512,9.299561C66.177246,37.755859,69.276855,34.160156,69.276855,28.456299z"/>
		<path style="fill:#032044;" d="M82.855957,0.062012h9.42334v44.637451h-9.42334V0.062012z"/>
		<path style="fill:#032044;" d="M97.878418,0.062012h9.42334v44.637451h-9.42334V0.062012z"/>
		<path style="fill:#032044;" d="M128.244629,45.443359c-9.299316,0-17.11084-6.385498-17.11084-16.987061
			c0-10.29126,8.05957-16.677002,16.925293-16.677002c9.113281,0,16.614746,6.075684,16.614746,17.359131v1.921875h-24.116699
			c0.496094,4.649658,3.781738,7.439453,7.997559,7.439453c2.728027,0,5.456055-0.929932,6.757812-3.47168h9.05127
			C142.379883,42.219482,135.3125,45.443359,128.244629,45.443359z M120.495117,25.108643h14.693359
			c-0.310059-3.905762-3.223633-6.447754-7.253418-6.447754C124.091309,18.660889,120.991211,21.016846,120.495117,25.108643z"/>
		<path style="fill:#032044;" d="M163.788574,57.160645c-9.299316,0-15.00293-4.277588-16.057129-11.097168h9.175781
			c0.682129,2.789795,3.099609,4.3396,6.943359,4.3396c3.967773,0,6.571777-1.983887,6.571777-6.44751v-4.649902
			c-1.859863,2.852051-5.083496,4.525879-9.42334,4.525879c-7.749512,0-14.197266-5.765625-14.197266-16.119141
			c0-10.043457,6.695801-15.871094,14.321289-15.871094c4.463379,0,7.625488,1.797852,9.485352,4.959717v-4.21582h9.175293
			v30.750244C179.783691,52.883057,172.716309,57.160645,163.788574,57.160645z M170.484375,27.712402
			c0-5.331787-3.099609-8.493408-7.005371-8.493408c-4.029785,0-7.005859,3.285645-7.005859,8.493408
			c0,5.517822,2.976074,8.741455,7.005859,8.741455C167.446777,36.453857,170.484375,33.168213,170.484375,27.712402z"/>
		<path style="fill:#032044;" d="M200.72168,45.443359c-9.299316,0-17.11084-6.385498-17.11084-16.987061
			c0-10.29126,8.05957-16.677002,16.925293-16.677002c9.113281,0,16.614746,6.075684,16.614746,17.359131v1.921875H193.03418
			c0.496094,4.649658,3.781738,7.439453,7.997559,7.439453c2.728027,0,5.456055-0.929932,6.757812-3.47168h9.05127
			C214.856934,42.219482,207.789551,45.443359,200.72168,45.443359z M192.972168,25.108643h14.693359
			c-0.310059-3.905762-3.223633-6.447754-7.253418-6.447754C196.568359,18.660889,193.468262,21.016846,192.972168,25.108643z"/>
		<path style="fill:#032044;" d="M247.407227,19.466797v25.232666h-9.175293V19.466797h-5.331543v-6.881592h5.331543V9.175537
			C238.231934,2.10791,242.261719,0,248.337402,0c2.417969,0,3.967773,0,6.137695,0.062012v6.943604
			c-1.302246-0.062012-2.541992-0.062012-3.905762-0.062012c-1.859863,0-3.162109,0.496094-3.162109,3.099854v2.541748h7.067871
			v6.881592H247.407227z"/>
		<path style="fill:#032044;" d="M255.052734,28.456299c0-10.229248,7.873535-16.677002,17.420898-16.677002
			c9.609375,0,17.421387,6.385742,17.421387,16.677002c0,10.353516-7.75,16.987061-17.421387,16.987061
			C262.740234,45.443359,255.052734,38.871826,255.052734,28.456299z M280.223145,28.456299
			c0-5.393555-3.161621-8.989502-7.749512-8.989502c-4.649414,0-7.749512,3.595947-7.749512,8.989502
			c0,5.641846,3.162109,9.299561,7.749512,9.299561C277.123535,37.755859,280.223145,34.160156,280.223145,28.456299z"/>
		<path style="fill:#032044;" d="M303.14502,44.699463h-9.42334V12.585205h9.11377v4.773926
			c0.557617-0.991943,1.301758-1.921875,2.231445-2.728027c1.859863-1.487793,3.658203-2.293701,6.695801-2.293701
			c0.806152,0,1.73584,0.062012,2.293945,0.185791v8.679688c-1.487793-0.186035-2.231934-0.186035-3.162109-0.186035
			c-3.533691,0-7.749512,1.302002-7.749512,7.377441V44.699463z"/>
		<path style="fill:#032044;" d="M332.160645,1.302002h10.105469v16.677002h18.90918V1.302002h10.105469v43.397461h-10.105469
			V26.4104h-18.90918v18.289062h-10.105469V1.302002z"/>
		<path style="fill:#032044;" d="M392.882324,45.443359c-9.298828,0-17.110352-6.385498-17.110352-16.987061
			c0-10.29126,8.05957-16.677002,16.924805-16.677002c9.113281,0,16.615234,6.075684,16.615234,17.359131v1.921875h-24.117188
			c0.496094,4.649658,3.782227,7.439453,7.998047,7.439453c2.727539,0,5.455078-0.929932,6.756836-3.47168h9.051758
			C407.018066,42.219482,399.949707,45.443359,392.882324,45.443359z M385.133301,25.108643h14.692383
			c-0.30957-3.905762-3.223633-6.447754-7.25293-6.447754C388.729004,18.660889,385.629395,21.016846,385.133301,25.108643z"/>
		<path style="fill:#032044;" d="M433.249512,41.041748c-2.107422,2.60376-5.393555,4.3396-10.042969,4.3396
			c-6.076172,0-11.90332-3.47168-11.90332-10.043457c0-6.695557,5.393555-9.05127,13.886719-10.415283l7.37793-1.177979v-0.433838
			c0-3.471924-1.921875-4.835938-5.269531-4.835938c-3.410156,0-5.517578,1.612061-6.076172,4.587891h-8.802734
			c1.053711-7.005615,7.191406-11.283447,15.3125-11.283447c8.679688,0,14.135742,3.409912,14.073242,12.461426l-0.061523,13.63916
			c0,1.053955,0.061523,2.913818,0.248047,6.81958h-8.618164L433.249512,41.041748z M425.624512,38.685791
			c3.78125,0,6.943359-2.231934,6.943359-6.695557v-2.169922c-8.493164,1.053955-12.151367,1.983887-12.151367,5.08374
			C420.416504,37.383789,422.648926,38.685791,425.624512,38.685791z"/>
		<path style="fill:#032044;" d="M447.213379,0.062012h9.422852v44.637451h-9.422852V0.062012z"/>
		<path style="fill:#032044;" d="M464.343262,35.958008V19.466797h-5.208008v-6.881592h5.208008V4.587646h9.237305v7.997559
			h7.128906v6.881592h-7.128906v14.321289c0,3.223877,0.991211,3.84375,3.533203,3.84375h3.595703v7.005615
			c-2.169922,0.124023-3.967773,0.124023-7.004883,0.124023C467.814941,44.761475,464.343262,43.025635,464.343262,35.958008z"/>
		<path style="fill:#032044;" d="M494.206543,44.699463h-9.422852V0.062012h9.422852V13.63916c0,0.86792,0,1.674072,0,2.417969
			c2.045898-2.665771,5.456055-4.21582,9.423828-4.21582c7.005859,0,11.716797,4.21582,11.716797,12.833252v20.024902h-9.422852
			V26.348389c0-4.091553-2.108398-6.44751-5.641602-6.44751c-3.286133,0-6.076172,2.417969-6.076172,7.6875V44.699463z"/>
		<path style="fill:#032044;" d="M520.88623,34.593994h10.291016v9.361572c0,6.881592-3.719727,9.79541-10.477539,11.097412
			v-5.517822c2.727539-0.619873,4.587891-1.983887,4.587891-3.84375c0-0.681885-0.37207-0.991943-1.177734-0.991943h-3.223633
			V34.593994z"/>
		<path style="fill:#032044;" d="M550.086426,22.814697c0-14.197266,10.664062-22.442627,21.823242-22.442627
			c10.539062,0,18.84668,6.261475,20.148438,15.74707h-10.105469c-1.177734-4.339844-4.897461-7.129639-10.105469-7.129639
			c-6.323242,0-11.344727,5.331787-11.344727,13.825195c0,8.493652,5.083984,14.01123,11.407227,14.01123
			c5.083984,0,8.679688-2.665771,10.105469-7.129639h10.105469c-1.549805,9.547607-9.733398,15.74707-20.273438,15.74707
			C560.378418,45.443359,550.086426,37.073975,550.086426,22.814697z"/>
		<path style="fill:#032044;" d="M594.193848,28.456299c0-10.229248,7.873047-16.677002,17.420898-16.677002
			c9.609375,0,17.420898,6.385742,17.420898,16.677002c0,10.353516-7.75,16.987061-17.420898,16.987061
			C601.881348,45.443359,594.193848,38.871826,594.193848,28.456299z M619.36377,28.456299
			c0-5.393555-3.162109-8.989502-7.749023-8.989502c-4.650391,0-7.75,3.595947-7.75,8.989502
			c0,5.641846,3.162109,9.299561,7.75,9.299561C616.26416,37.755859,619.36377,34.160156,619.36377,28.456299z"/>
		<path style="fill:#032044;" d="M642.285645,44.699463h-9.422852V12.585205h9.113281v3.781982
			c1.983398-2.913818,5.393555-4.525879,9.546875-4.525879c3.782227,0,7.501953,1.550049,9.671875,5.207764
			c2.107422-3.409912,5.951172-5.207764,10.477539-5.207764c6.323242,0,11.84082,3.471924,11.84082,12.523193v20.334961h-9.422852
			V26.100586c0-4.153809-2.293945-6.199707-5.393555-6.199707c-3.038086,0-5.766602,2.355957-5.766602,7.315674v17.48291h-9.422852
			V26.100586c0-4.153809-2.293945-6.199707-5.393555-6.199707c-3.038086,0-5.828125,2.293945-5.828125,7.315674V44.699463z"/>
		<path style="fill:#032044;" d="M698.463379,44.699463h-9.422852V12.585205h9.113281v3.781982
			c1.983398-2.913818,5.393555-4.525879,9.546875-4.525879c3.782227,0,7.501953,1.550049,9.671875,5.207764
			c2.107422-3.409912,5.951172-5.207764,10.477539-5.207764c6.323242,0,11.84082,3.471924,11.84082,12.523193v20.334961h-9.422852
			V26.100586c0-4.153809-2.293945-6.199707-5.393555-6.199707c-3.038086,0-5.766602,2.355957-5.766602,7.315674v17.48291h-9.422852
			V26.100586c0-4.153809-2.293945-6.199707-5.393555-6.199707c-3.038086,0-5.828125,2.293945-5.828125,7.315674V44.699463z"/>
		<path style="fill:#032044;" d="M765.969238,40.917725c-2.108398,2.97583-5.456055,4.525635-9.423828,4.525635
			c-6.819336,0-11.716797-4.215576-11.716797-12.709229V12.585205h9.422852v18.413086
			c0,4.153809,2.169922,6.323486,5.580078,6.323486c3.038086,0,5.827148-2.169678,5.827148-7.31543V12.585205h9.423828v32.114258
			h-9.113281V40.917725z"/>
		<path style="fill:#032044;" d="M790.154785,44.699463h-9.422852V12.585205h9.113281v3.905762
			c2.045898-2.97583,5.579102-4.649658,9.733398-4.649658c7.005859,0,11.716797,4.21582,11.716797,12.833252v20.024902h-9.422852
			V26.348389c0-4.091553-2.108398-6.44751-5.641602-6.44751c-3.286133,0-6.076172,2.417969-6.076172,7.6875V44.699463z"/>
		<path style="fill:#032044;" d="M816.716309,0.062012h9.485352v7.811523h-9.485352V0.062012z M816.716309,12.585205h9.422852
			v32.114258h-9.422852V12.585205z"/>
		<path style="fill:#032044;" d="M833.759277,35.958008V19.466797h-5.208008v-6.881592h5.208008V4.587646h9.237305v7.997559
			h7.128906v6.881592h-7.128906v14.321289c0,3.223877,0.991211,3.84375,3.533203,3.84375h3.595703v7.005615
			c-2.169922,0.124023-3.967773,0.124023-7.004883,0.124023C837.230957,44.761475,833.759277,43.025635,833.759277,35.958008z"/>
		<path style="fill:#032044;" d="M867.789551,56.47876h-9.670898l5.765625-14.01123l-12.771484-29.882324h9.857422
			l7.625977,19.776855l7.004883-19.776855h9.423828L867.789551,56.47876z"/>
		<path style="fill:#032044;" d="M927.927734,41.661621c-3.47168,2.355957-7.439453,3.781738-12.585449,3.781738
			c-8.927734,0-15.313477-4.835693-15.313477-12.647217c0-5.641602,3.223633-9.485352,8.431641-12.151367
			c-2.293945-2.60376-3.84375-5.269531-3.84375-8.865479c0-6.633545,5.765625-11.345215,13.205566-11.345215
			c7.625977,0,13.019531,4.3396,13.019531,11.097168c0,4.959717-3.162109,8.431641-8.866211,10.911377l6.572266,7.067627
			c1.363281-2.045898,2.169922-4.401611,2.541992-7.31543h8.678711c-0.495117,5.269531-2.292969,10.043457-5.393555,13.63916
			l8.183594,8.803467v0.062012h-11.779297L927.927734,41.661621z M916.147949,37.941895
			c2.355957,0,4.588379-0.681885,6.510254-2.045898l-9.052246-9.79541c-2.790039,1.487793-4.15332,3.533691-4.15332,6.013672
			C909.452637,35.647949,912.552246,37.941895,916.147949,37.941895z M916.82959,17.48291
			c3.782715-1.425781,5.518066-3.285645,5.518066-5.703613c0-2.541748-1.983398-4.277588-4.586914-4.277588
			c-2.729004,0-4.650879,1.859863-4.650879,4.3396C913.109863,13.887207,914.598145,15.499023,916.82959,17.48291z"/>
		<path style="fill:#032044;" d="M960.416016,1.302002h18.661133c10.601562,0,16.119141,5.827637,16.119141,14.197021
			c0,8.617676-5.765625,14.445312-16.180664,14.445312h-8.494141v14.755127h-10.105469V1.302002z M977.589844,21.884766
			c4.897461,0,7.439453-2.479736,7.439453-6.261719c0-3.781738-2.604492-6.261475-7.439453-6.261475h-7.068359v12.523193H977.589844
			z"/>
		<path style="fill:#032044;" d="M995.961914,28.456299c0-10.229248,7.873047-16.677002,17.420898-16.677002
			c9.609375,0,17.420898,6.385742,17.420898,16.677002c0,10.353516-7.75,16.987061-17.420898,16.987061
			C1003.649414,45.443359,995.961914,38.871826,995.961914,28.456299z M1021.131836,28.456299
			c0-5.393555-3.162109-8.989502-7.749023-8.989502c-4.650391,0-7.75,3.595947-7.75,8.989502
			c0,5.641846,3.162109,9.299561,7.75,9.299561C1018.032227,37.755859,1021.131836,34.160156,1021.131836,28.456299z"/>
		<path style="fill:#032044;" d="M1034.710938,0.062012h9.422852v44.637451h-9.422852V0.062012z"/>
		<path style="fill:#032044;" d="M1049.720703,0.062012h9.485352v7.811523h-9.485352V0.062012z M1049.720703,12.585205h9.422852
			v32.114258h-9.422852V12.585205z"/>
		<path style="fill:#032044;" d="M1062.814453,28.456299c0-10.043457,7.811523-16.677002,17.048828-16.677002
			c8.369141,0,14.94043,4.959717,15.932617,12.647217h-9.298828c-0.744141-3.037598-3.410156-4.959717-6.633789-4.959717
			c-4.339844,0-7.37793,3.657959-7.37793,8.989502c0,5.517822,3.099609,9.299561,7.37793,9.299561
			c3.161133,0,5.703125-1.797852,6.571289-5.021729h9.361328c-1.239258,7.935547-7.873047,12.709229-15.995117,12.709229
			C1070.37793,45.443359,1062.814453,38.809814,1062.814453,28.456299z"/>
		<path style="fill:#032044;" d="M1111.228516,56.47876h-9.670898l5.765625-14.01123l-12.771484-29.882324h9.857422
			l7.625977,19.776855l7.004883-19.776855h9.423828L1111.228516,56.47876z"/>
	</g>
</g>
<g>
</g>
<g>
</g>
<g>
</g>
<g>
</g>
<g>
</g>
<g>
</g>
<g>
</g>
<g>
</g>
<g>
</g>
<g>
</g>
<g>
</g>
<g>
</g>
<g>
</g>
<g>
</g>
<g>
</g>
</svg>
