<?xml version="1.0" encoding="iso-8859-1"?>
<!-- Generator: Adobe Illustrator 30.2.1, SVG Export Plug-In . SVG Version: 9.03 Build 0)  -->
<svg version="1.1" id="Layer_1" xmlns="http://www.w3.org/2000/svg" xmlns:xlink="http://www.w3.org/1999/xlink" x="0px" y="0px"
	 viewBox="0 0 217.151367 122.858887" style="enable-background:new 0 0 217.151367 122.858887;" xml:space="preserve">
<g>
	<g>
		<path style="fill:#032044;" d="M2.169922,0h10.105469v16.676758h18.90918V0h10.105469v43.397461H31.18457V25.108398h-18.90918
			v18.289062H2.169922V0z"/>
		<path style="fill:#032044;" d="M45.78125,27.154297c0-10.229492,7.873047-16.676758,17.420898-16.676758
			c9.609375,0,17.420898,6.385254,17.420898,16.676758c0,10.353516-7.75,16.987305-17.420898,16.987305
			C53.46875,44.141602,45.78125,37.569824,45.78125,27.154297z M70.951172,27.154297
			c0-5.393555-3.161133-8.989258-7.749023-8.989258c-4.649414,0-7.75,3.595703-7.75,8.989258
			c0,5.641602,3.162109,9.299316,7.75,9.299316C67.851562,36.453613,70.951172,32.85791,70.951172,27.154297z"/>
		<path style="fill:#032044;" d="M93.873047,43.397461h-9.422852V11.283203h9.113281v3.905762
			c2.045898-2.975586,5.580078-4.649414,9.733398-4.649414c7.005859,0,11.717773,4.215332,11.717773,12.833008v20.024902h-9.423828
			V25.046387c0-4.091797-2.107422-6.447266-5.641602-6.447266c-3.286133,0-6.076172,2.41748-6.076172,7.6875V43.397461z"/>
		<path style="fill:#032044;" d="M118.518555,27.154297c0-10.229492,7.873047-16.676758,17.420898-16.676758
			c9.609375,0,17.420898,6.385254,17.420898,16.676758c0,10.353516-7.75,16.987305-17.420898,16.987305
			C126.206055,44.141602,118.518555,37.569824,118.518555,27.154297z M143.688477,27.154297
			c0-5.393555-3.161133-8.989258-7.749023-8.989258c-4.649414,0-7.75,3.595703-7.75,8.989258
			c0,5.641602,3.162109,9.299316,7.75,9.299316C140.588867,36.453613,143.688477,32.85791,143.688477,27.154297z"/>
		<path style="fill:#032044;" d="M166.610352,43.397461H157.1875V11.283203h9.113281v4.773926
			c0.557617-0.992188,1.301758-1.921875,2.231445-2.728027c1.860352-1.487793,3.658203-2.293945,6.696289-2.293945
			c0.805664,0,1.735352,0.062012,2.293945,0.186035v8.679688c-1.488281-0.186035-2.232422-0.186035-3.162109-0.186035
			c-3.53418,0-7.75,1.301758-7.75,7.377441V43.397461z"/>
		<path style="fill:#032044;" d="M178.594727,33.22998h8.742188c0.495117,2.976074,3.037109,4.401855,6.508789,4.401855
			c2.728516,0,5.146484-0.992188,5.146484-3.223633c0-1.983887-1.797852-2.852051-5.828125-3.53418l-3.347656-0.619629
			c-6.571289-1.178223-10.663086-4.091797-10.663086-9.237793c0-6.571289,6.075195-10.601074,13.825195-10.601074
			c7.376953,0,13.453125,3.719727,14.321289,10.291016h-8.618164c-0.620117-2.41748-2.727539-3.781738-5.889648-3.781738
			c-2.727539,0-4.773438,1.240234-4.773438,3.162109c0,1.797852,1.612305,2.47998,5.083984,3.099609l3.285156,0.558105
			c7.31543,1.301758,11.655273,4.153809,11.655273,9.733398c0,7.067383-6.695312,10.663574-14.382812,10.663574
			C185.786133,44.141602,179.525391,40.731445,178.594727,33.22998z"/>
		<path style="fill:#032044;" d="M0,88.512695C0,74.31543,10.664062,66.069824,21.823242,66.069824
			c10.539062,0,18.84668,6.261719,20.148438,15.74707H31.866211C30.688477,77.477539,26.96875,74.6875,21.760742,74.6875
			c-6.323242,0-11.344727,5.331543-11.344727,13.825195s5.083008,14.01123,11.407227,14.01123
			c5.083008,0,8.679688-2.666016,10.105469-7.129395H42.03418c-1.549805,9.547363-9.733398,15.74707-20.273438,15.74707
			C10.291992,111.141602,0,102.771973,0,88.512695z"/>
		<path style="fill:#032044;" d="M44.106445,94.154297c0-10.229492,7.874023-16.676758,17.420898-16.676758
			c9.609375,0,17.421875,6.385254,17.421875,16.676758c0,10.353516-7.75,16.987305-17.421875,16.987305
			C51.793945,111.141602,44.106445,104.569824,44.106445,94.154297z M69.277344,94.154297
			c0-5.393555-3.162109-8.989258-7.75-8.989258c-4.649414,0-7.749023,3.595703-7.749023,8.989258
			c0,5.641602,3.162109,9.299316,7.749023,9.299316C66.177734,103.453613,69.277344,99.85791,69.277344,94.154297z"/>
		<path style="fill:#032044;" d="M82.856445,65.760254h9.422852v44.637207h-9.422852V65.760254z"/>
		<path style="fill:#032044;" d="M97.878906,65.760254h9.422852v44.637207h-9.422852V65.760254z"/>
		<path style="fill:#032044;" d="M128.245117,111.141602c-9.299805,0-17.111328-6.385742-17.111328-16.987305
			c0-10.291504,8.05957-16.676758,16.925781-16.676758c9.113281,0,16.614258,6.075684,16.614258,17.358887v1.921875h-24.116211
			c0.496094,4.649902,3.78125,7.439453,7.99707,7.439453c2.728516,0,5.456055-0.929688,6.757812-3.47168h9.051758
			C142.379883,107.91748,135.3125,111.141602,128.245117,111.141602z M120.495117,90.806641h14.693359
			c-0.30957-3.905762-3.223633-6.447754-7.25293-6.447754C124.091797,84.358887,120.991211,86.714844,120.495117,90.806641z"/>
		<path style="fill:#032044;" d="M163.789062,122.858887c-9.299805,0-15.00293-4.277832-16.057617-11.097656h9.175781
			c0.682617,2.790039,3.099609,4.339844,6.943359,4.339844c3.967773,0,6.572266-1.983887,6.572266-6.447754v-4.649414
			c-1.860352,2.851562-5.083984,4.525391-9.423828,4.525391c-7.749023,0-14.197266-5.765625-14.197266-16.118652
			c0-10.043457,6.696289-15.871094,14.321289-15.871094c4.463867,0,7.625977,1.797852,9.485352,4.959473v-4.21582h9.175781
			v30.750488C179.78418,118.581055,172.716797,122.858887,163.789062,122.858887z M170.484375,93.410645
			c0-5.332031-3.099609-8.493652-7.004883-8.493652c-4.030273,0-7.005859,3.285645-7.005859,8.493652
			c0,5.517578,2.975586,8.741211,7.005859,8.741211C167.447266,102.151855,170.484375,98.866211,170.484375,93.410645z"/>
		<path style="fill:#032044;" d="M200.72168,111.141602c-9.298828,0-17.110352-6.385742-17.110352-16.987305
			c0-10.291504,8.05957-16.676758,16.924805-16.676758c9.113281,0,16.615234,6.075684,16.615234,17.358887v1.921875H193.03418
			c0.496094,4.649902,3.782227,7.439453,7.998047,7.439453c2.727539,0,5.456055-0.929688,6.757812-3.47168h9.050781
			C214.857422,107.91748,207.790039,111.141602,200.72168,111.141602z M192.972656,90.806641h14.693359
			c-0.310547-3.905762-3.223633-6.447754-7.253906-6.447754C196.568359,84.358887,193.46875,86.714844,192.972656,90.806641z"/>
	</g>
</g>
<g>
</g>
<g>
</g>
<g>
</g>
<g>
</g>
<g>
</g>
<g>
</g>
<g>
</g>
<g>
</g>
<g>
</g>
<g>
</g>
<g>
</g>
<g>
</g>
<g>
</g>
<g>
</g>
<g>
</g>
</svg>
