<?xml version="1.0" encoding="iso-8859-1"?>
<!-- Generator: Adobe Illustrator 30.2.1, SVG Export Plug-In . SVG Version: 9.03 Build 0)  -->
<svg version="1.1" id="Layer_1" xmlns="http://www.w3.org/2000/svg" xmlns:xlink="http://www.w3.org/1999/xlink" x="0px" y="0px"
	 viewBox="0 0 852.604492 124.160645" style="enable-background:new 0 0 852.604492 124.160645;" xml:space="preserve">
<g>
	<g>
		<path style="fill:#032044;" d="M19.21875,25.418457l-7.067383,7.625488v11.655273H2.231445V1.301758h9.919922v19.032715
			L29.261719,1.301758h12.337891l-15.4375,16.676758l15.80957,26.720703H30.37793L19.21875,25.418457z"/>
		<path style="fill:#032044;" d="M44.322266,0.062012h9.423828v44.637207h-9.423828V0.062012z"/>
		<path style="fill:#032044;" d="M74.688477,45.443359c-9.298828,0-17.110352-6.385742-17.110352-16.987305
			c0-10.291504,8.05957-16.676758,16.924805-16.676758c9.113281,0,16.615234,6.075684,16.615234,17.358887v1.921875H67.000977
			c0.496094,4.649902,3.782227,7.439453,7.998047,7.439453c2.727539,0,5.456055-0.929688,6.757812-3.47168h9.050781
			C88.824219,42.219238,81.756836,45.443359,74.688477,45.443359z M66.939453,25.108398h14.693359
			c-0.310547-3.905762-3.223633-6.447754-7.253906-6.447754C70.535156,18.660645,67.435547,21.016602,66.939453,25.108398z"/>
		<path style="fill:#032044;" d="M93.103516,34.531738h8.741211c0.496094,2.976074,3.038086,4.401855,6.509766,4.401855
			c2.727539,0,5.145508-0.992188,5.145508-3.223633c0-1.983887-1.797852-2.852051-5.827148-3.53418l-3.348633-0.619629
			c-6.571289-1.178223-10.663086-4.091797-10.663086-9.237793c0-6.571289,6.076172-10.601074,13.825195-10.601074
			c7.37793,0,13.453125,3.719727,14.321289,10.291016h-8.617188c-0.620117-2.41748-2.728516-3.781738-5.889648-3.781738
			c-2.728516,0-4.774414,1.240234-4.774414,3.162109c0,1.797852,1.612305,2.47998,5.083984,3.099609l3.286133,0.558105
			c7.31543,1.301758,11.655273,4.153809,11.655273,9.733398c0,7.067383-6.695312,10.663574-14.382812,10.663574
			C100.294922,45.443359,94.033203,42.033203,93.103516,34.531738z"/>
		<path style="fill:#032044;" d="M124.598633,34.531738h8.742188c0.495117,2.976074,3.037109,4.401855,6.508789,4.401855
			c2.728516,0,5.146484-0.992188,5.146484-3.223633c0-1.983887-1.797852-2.852051-5.828125-3.53418l-3.347656-0.619629
			c-6.571289-1.178223-10.663086-4.091797-10.663086-9.237793c0-6.571289,6.075195-10.601074,13.825195-10.601074
			c7.376953,0,13.453125,3.719727,14.321289,10.291016h-8.618164c-0.620117-2.41748-2.727539-3.781738-5.889648-3.781738
			c-2.727539,0-4.773438,1.240234-4.773438,3.162109c0,1.797852,1.612305,2.47998,5.083984,3.099609l3.285156,0.558105
			c7.31543,1.301758,11.655273,4.153809,11.655273,9.733398c0,7.067383-6.695312,10.663574-14.382812,10.663574
			C131.790039,45.443359,125.529297,42.033203,124.598633,34.531738z"/>
		<path style="fill:#032044;" d="M172.913086,45.443359c-9.298828,0-17.110352-6.385742-17.110352-16.987305
			c0-10.291504,8.05957-16.676758,16.924805-16.676758c9.113281,0,16.615234,6.075684,16.615234,17.358887v1.921875h-24.117188
			c0.496094,4.649902,3.782227,7.439453,7.998047,7.439453c2.727539,0,5.456055-0.929688,6.757812-3.47168h9.050781
			C187.048828,42.219238,179.981445,45.443359,172.913086,45.443359z M165.164062,25.108398h14.693359
			c-0.310547-3.905762-3.223633-6.447754-7.253906-6.447754C168.759766,18.660645,165.660156,21.016602,165.164062,25.108398z"/>
		<path style="fill:#032044;" d="M206.456055,22.814453c0-14.197266,10.663086-22.442871,21.822266-22.442871
			c10.540039,0,18.84668,6.261719,20.149414,15.74707h-10.105469c-1.178711-4.339355-4.898438-7.129395-10.105469-7.129395
			c-6.324219,0-11.345703,5.331543-11.345703,13.825195s5.083984,14.01123,11.407227,14.01123
			c5.083984,0,8.679688-2.666016,10.105469-7.129395h10.105469c-1.549805,9.547363-9.733398,15.74707-20.272461,15.74707
			C216.74707,45.443359,206.456055,37.07373,206.456055,22.814453z"/>
		<path style="fill:#032044;" d="M250.5625,28.456055c0-10.229492,7.873047-16.676758,17.420898-16.676758
			c9.609375,0,17.420898,6.385254,17.420898,16.676758c0,10.353516-7.75,16.987305-17.420898,16.987305
			C258.25,45.443359,250.5625,38.871582,250.5625,28.456055z M275.732422,28.456055c0-5.393555-3.161133-8.989258-7.749023-8.989258
			c-4.649414,0-7.75,3.595703-7.75,8.989258c0,5.641602,3.162109,9.299316,7.75,9.299316
			C272.632812,37.755371,275.732422,34.159668,275.732422,28.456055z"/>
		<path style="fill:#032044;" d="M289.311523,0.062012h9.423828v44.637207h-9.423828V0.062012z"/>
		<path style="fill:#032044;" d="M304.333984,0.062012h9.423828v44.637207h-9.423828V0.062012z"/>
		<path style="fill:#032044;" d="M334.701172,45.443359c-9.299805,0-17.111328-6.385742-17.111328-16.987305
			c0-10.291504,8.05957-16.676758,16.924805-16.676758c9.113281,0,16.615234,6.075684,16.615234,17.358887v1.921875h-24.117188
			c0.496094,4.649902,3.782227,7.439453,7.998047,7.439453c2.727539,0,5.456055-0.929688,6.757812-3.47168h9.051758
			C348.835938,42.219238,341.768555,45.443359,334.701172,45.443359z M326.951172,25.108398h14.693359
			c-0.30957-3.905762-3.223633-6.447754-7.253906-6.447754C330.546875,18.660645,327.447266,21.016602,326.951172,25.108398z"/>
		<path style="fill:#032044;" d="M370.244141,57.160645c-9.298828,0-15.00293-4.277832-16.056641-11.097656h9.174805
			c0.682617,2.790039,3.100586,4.339844,6.944336,4.339844c3.967773,0,6.571289-1.983887,6.571289-6.447754v-4.649414
			c-1.860352,2.851562-5.083984,4.525391-9.423828,4.525391c-7.749023,0-14.197266-5.765625-14.197266-16.118652
			c0-10.043457,6.696289-15.871094,14.321289-15.871094c4.463867,0,7.625977,1.797852,9.485352,4.959473v-4.21582h9.175781
			v30.750488C386.239258,52.882812,379.171875,57.160645,370.244141,57.160645z M376.94043,27.712402
			c0-5.332031-3.100586-8.493652-7.005859-8.493652c-4.030273,0-7.005859,3.285645-7.005859,8.493652
			c0,5.517578,2.975586,8.741211,7.005859,8.741211C373.902344,36.453613,376.94043,33.167969,376.94043,27.712402z"/>
		<path style="fill:#032044;" d="M407.177734,45.443359c-9.298828,0-17.110352-6.385742-17.110352-16.987305
			c0-10.291504,8.058594-16.676758,16.924805-16.676758c9.113281,0,16.615234,6.075684,16.615234,17.358887v1.921875h-24.117188
			c0.496094,4.649902,3.782227,7.439453,7.998047,7.439453c2.727539,0,5.455078-0.929688,6.756836-3.47168h9.051758
			C421.313477,42.219238,414.245117,45.443359,407.177734,45.443359z M399.428711,25.108398h14.692383
			c-0.30957-3.905762-3.223633-6.447754-7.25293-6.447754C403.024414,18.660645,399.924805,21.016602,399.428711,25.108398z"/>
		<path style="fill:#032044;" d="M440.472656,28.456055c0-10.229492,7.873047-16.676758,17.420898-16.676758
			c9.609375,0,17.420898,6.385254,17.420898,16.676758c0,10.353516-7.75,16.987305-17.420898,16.987305
			C448.160156,45.443359,440.472656,38.871582,440.472656,28.456055z M465.642578,28.456055
			c0-5.393555-3.162109-8.989258-7.749023-8.989258c-4.650391,0-7.75,3.595703-7.75,8.989258
			c0,5.641602,3.162109,9.299316,7.75,9.299316C462.542969,37.755371,465.642578,34.159668,465.642578,28.456055z"/>
		<path style="fill:#032044;" d="M490.325195,19.466797v25.232422h-9.175781V19.466797h-5.331055v-6.881836h5.331055V9.175293
			C481.149414,2.107422,485.179688,0,491.254883,0c2.417969,0,3.967773,0,6.137695,0.062012v6.943359
			c-1.301758-0.062012-2.541016-0.062012-3.905273-0.062012c-1.860352,0-3.162109,0.496094-3.162109,3.099609v2.541992h7.067383
			v6.881836H490.325195z"/>
		<path style="fill:#032044;" d="M547.860352,44.699219h-32.052734V1.301758h31.680664v8.05957h-21.823242v9.113281h20.086914
			v7.873535h-20.086914v10.291504h22.195312V44.699219z"/>
		<path style="fill:#032044;" d="M562.182617,44.699219h-9.422852V12.584961h9.113281v3.905762
			c2.045898-2.975586,5.579102-4.649414,9.733398-4.649414c7.005859,0,11.716797,4.215332,11.716797,12.833008v20.024902h-9.422852
			V26.348145c0-4.091797-2.108398-6.447266-5.641602-6.447266c-3.286133,0-6.076172,2.41748-6.076172,7.6875V44.699219z"/>
		<path style="fill:#032044;" d="M603.932617,57.160645c-9.298828,0-15.00293-4.277832-16.056641-11.097656h9.174805
			c0.682617,2.790039,3.100586,4.339844,6.944336,4.339844c3.967773,0,6.571289-1.983887,6.571289-6.447754v-4.649414
			c-1.860352,2.851562-5.083984,4.525391-9.423828,4.525391c-7.749023,0-14.197266-5.765625-14.197266-16.118652
			c0-10.043457,6.696289-15.871094,14.321289-15.871094c4.463867,0,7.625977,1.797852,9.485352,4.959473v-4.21582h9.175781
			v30.750488C619.927734,52.882812,612.860352,57.160645,603.932617,57.160645z M610.62793,27.712402
			c0-5.332031-3.099609-8.493652-7.004883-8.493652c-4.030273,0-7.005859,3.285645-7.005859,8.493652
			c0,5.517578,2.975586,8.741211,7.005859,8.741211C607.59082,36.453613,610.62793,33.167969,610.62793,27.712402z"/>
		<path style="fill:#032044;" d="M625.609375,0.062012h9.485352v7.811523h-9.485352V0.062012z M625.609375,12.584961h9.422852
			v32.114258h-9.422852V12.584961z"/>
		<path style="fill:#032044;" d="M650.067383,44.699219h-9.422852V12.584961h9.113281v3.905762
			c2.045898-2.975586,5.579102-4.649414,9.733398-4.649414c7.005859,0,11.716797,4.215332,11.716797,12.833008v20.024902h-9.422852
			V26.348145c0-4.091797-2.108398-6.447266-5.641602-6.447266c-3.286133,0-6.076172,2.41748-6.076172,7.6875V44.699219z"/>
		<path style="fill:#032044;" d="M691.823242,45.443359c-9.298828,0-17.110352-6.385742-17.110352-16.987305
			c0-10.291504,8.05957-16.676758,16.924805-16.676758c9.113281,0,16.615234,6.075684,16.615234,17.358887v1.921875h-24.117188
			c0.496094,4.649902,3.782227,7.439453,7.998047,7.439453c2.727539,0,5.455078-0.929688,6.756836-3.47168h9.051758
			C705.958984,42.219238,698.890625,45.443359,691.823242,45.443359z M684.074219,25.108398h14.692383
			c-0.30957-3.905762-3.223633-6.447754-7.25293-6.447754C687.669922,18.660645,684.570312,21.016602,684.074219,25.108398z"/>
		<path style="fill:#032044;" d="M727.379883,45.443359c-9.298828,0-17.110352-6.385742-17.110352-16.987305
			c0-10.291504,8.05957-16.676758,16.924805-16.676758c9.113281,0,16.615234,6.075684,16.615234,17.358887v1.921875h-24.117188
			c0.496094,4.649902,3.782227,7.439453,7.998047,7.439453c2.727539,0,5.455078-0.929688,6.756836-3.47168h9.051758
			C741.515625,42.219238,734.447266,45.443359,727.379883,45.443359z M719.630859,25.108398h14.692383
			c-0.30957-3.905762-3.223633-6.447754-7.25293-6.447754C723.226562,18.660645,720.126953,21.016602,719.630859,25.108398z"/>
		<path style="fill:#032044;" d="M757.201172,44.699219h-9.422852V12.584961h9.113281v4.773926
			c0.557617-0.992188,1.301758-1.921875,2.231445-2.728027c1.860352-1.487793,3.658203-2.293945,6.696289-2.293945
			c0.805664,0,1.735352,0.062012,2.292969,0.186035v8.679688c-1.487305-0.186035-2.231445-0.186035-3.161133-0.186035
			c-3.53418,0-7.75,1.301758-7.75,7.377441V44.699219z"/>
		<path style="fill:#032044;" d="M770.401367,0.062012h9.485352v7.811523h-9.485352V0.062012z M770.401367,12.584961h9.422852
			v32.114258h-9.422852V12.584961z"/>
		<path style="fill:#032044;" d="M794.858398,44.699219h-9.422852V12.584961h9.113281v3.905762
			c2.045898-2.975586,5.579102-4.649414,9.733398-4.649414c7.005859,0,11.716797,4.215332,11.716797,12.833008v20.024902h-9.422852
			V26.348145c0-4.091797-2.108398-6.447266-5.641602-6.447266c-3.286133,0-6.076172,2.41748-6.076172,7.6875V44.699219z"/>
		<path style="fill:#032044;" d="M836.609375,57.160645c-9.298828,0-15.00293-4.277832-16.056641-11.097656h9.174805
			c0.682617,2.790039,3.100586,4.339844,6.944336,4.339844c3.967773,0,6.571289-1.983887,6.571289-6.447754v-4.649414
			c-1.860352,2.851562-5.083984,4.525391-9.423828,4.525391c-7.749023,0-14.197266-5.765625-14.197266-16.118652
			c0-10.043457,6.696289-15.871094,14.321289-15.871094c4.463867,0,7.625977,1.797852,9.485352,4.959473v-4.21582h9.175781
			v30.750488C852.604492,52.882812,845.537109,57.160645,836.609375,57.160645z M843.305664,27.712402
			c0-5.332031-3.100586-8.493652-7.005859-8.493652c-4.030273,0-7.005859,3.285645-7.005859,8.493652
			c0,5.517578,2.975586,8.741211,7.005859,8.741211C840.267578,36.453613,843.305664,33.167969,843.305664,27.712402z"/>
		<path style="fill:#032044;" d="M27.898438,108.661621c-3.47168,2.355469-7.439453,3.781738-12.585938,3.781738
			C6.385742,112.443359,0,107.607422,0,99.795898c0-5.641602,3.223633-9.485352,8.431641-12.151367
			c-2.293945-2.604004-3.84375-5.269531-3.84375-8.865234c0-6.633789,5.765625-11.345703,13.205078-11.345703
			c7.625,0,13.018555,4.339844,13.018555,11.097656c0,4.959473-3.161133,8.431152-8.865234,10.911133l6.572266,7.067871
			c1.363281-2.045898,2.169922-4.401855,2.541016-7.315918h8.679688c-0.496094,5.27002-2.293945,10.043457-5.393555,13.63916
			l8.183594,8.803711v0.062012H30.75L27.898438,108.661621z M16.119141,104.941406c2.355469,0,4.587891-0.681641,6.509766-2.045898
			l-9.051758-9.79541c-2.790039,1.488281-4.154297,3.53418-4.154297,6.013672
			C9.422852,102.647949,12.523438,104.941406,16.119141,104.941406z M16.800781,84.48291
			c3.782227-1.42627,5.517578-3.286133,5.517578-5.703613c0-2.541992-1.983398-4.277832-4.587891-4.277832
			c-2.727539,0-4.649414,1.859863-4.649414,4.339844C13.081055,80.887207,14.569336,82.499023,16.800781,84.48291z"/>
		<path style="fill:#032044;" d="M60.386719,68.301758h10.105469v43.397461H60.386719V68.301758z"/>
		<path style="fill:#032044;" d="M86.15918,111.699219h-9.423828V79.584961h9.114258v3.905762
			c2.044922-2.975586,5.579102-4.649414,9.733398-4.649414c7.004883,0,11.716797,4.215332,11.716797,12.833008v20.024902h-9.423828
			V93.348145c0-4.091797-2.107422-6.447266-5.641602-6.447266c-3.285156,0-6.075195,2.41748-6.075195,7.6875V111.699219z"/>
		<path style="fill:#032044;" d="M114.40625,102.95752V86.466797h-5.208008v-6.881836h5.208008v-7.997559h9.237305v7.997559
			h7.129883v6.881836h-7.129883v14.320801c0,3.224121,0.992188,3.844238,3.53418,3.844238h3.595703v7.005371
			c-2.169922,0.124023-3.967773,0.124023-7.005859,0.124023C117.87793,111.76123,114.40625,110.025391,114.40625,102.95752z"/>
		<path style="fill:#032044;" d="M149.099609,112.443359c-9.299805,0-17.111328-6.385742-17.111328-16.987305
			c0-10.291504,8.05957-16.676758,16.925781-16.676758c9.113281,0,16.614258,6.075684,16.614258,17.358887v1.921875h-24.116211
			c0.496094,4.649902,3.78125,7.439453,7.99707,7.439453c2.728516,0,5.456055-0.929688,6.757812-3.47168h9.051758
			C163.234375,109.219238,156.166992,112.443359,149.099609,112.443359z M141.349609,92.108398h14.693359
			c-0.30957-3.905762-3.223633-6.447754-7.25293-6.447754C144.946289,85.660645,141.845703,88.016602,141.349609,92.108398z"/>
		<path style="fill:#032044;" d="M184.643555,124.160645c-9.299805,0-15.00293-4.277832-16.057617-11.097656h9.175781
			c0.682617,2.790039,3.099609,4.339844,6.943359,4.339844c3.967773,0,6.572266-1.983887,6.572266-6.447754v-4.649414
			c-1.860352,2.851562-5.083984,4.525391-9.423828,4.525391c-7.749023,0-14.197266-5.765625-14.197266-16.118652
			c0-10.043457,6.696289-15.871094,14.321289-15.871094c4.463867,0,7.625977,1.797852,9.485352,4.959473v-4.21582h9.175781
			v30.750488C200.638672,119.882812,193.571289,124.160645,184.643555,124.160645z M191.338867,94.712402
			c0-5.332031-3.099609-8.493652-7.004883-8.493652c-4.030273,0-7.005859,3.285645-7.005859,8.493652
			c0,5.517578,2.975586,8.741211,7.005859,8.741211C188.301758,103.453613,191.338867,100.167969,191.338867,94.712402z"/>
		<path style="fill:#032044;" d="M215.743164,111.699219h-9.423828V79.584961h9.114258v4.773926
			c0.557617-0.992188,1.301758-1.921875,2.231445-2.728027c1.859375-1.487793,3.658203-2.293945,6.695312-2.293945
			c0.806641,0,1.736328,0.062012,2.293945,0.186035v8.679688c-1.487305-0.186035-2.231445-0.186035-3.162109-0.186035
			c-3.533203,0-7.749023,1.301758-7.749023,7.377441V111.699219z"/>
		<path style="fill:#032044;" d="M249.444336,108.041504c-2.107422,2.604004-5.393555,4.339844-10.042969,4.339844
			c-6.076172,0-11.90332-3.472168-11.90332-10.043457c0-6.695801,5.393555-9.051758,13.886719-10.415527l7.37793-1.177734v-0.434082
			c0-3.47168-1.921875-4.835938-5.269531-4.835938c-3.410156,0-5.517578,1.611816-6.076172,4.587891h-8.803711
			c1.054688-7.005859,7.192383-11.283203,15.313477-11.283203c8.679688,0,14.135742,3.409668,14.073242,12.460938
			l-0.061523,13.63916c0,1.054199,0.061523,2.914062,0.24707,6.819824h-8.617188L249.444336,108.041504z M241.819336,105.685547
			c3.78125,0,6.943359-2.231934,6.943359-6.695801v-2.169922c-8.494141,1.054199-12.151367,1.984375-12.151367,5.083984
			C236.611328,104.383789,238.842773,105.685547,241.819336,105.685547z"/>
		<path style="fill:#032044;" d="M265.162109,102.95752V86.466797h-5.207031v-6.881836h5.207031v-7.997559h9.237305v7.997559
			h7.129883v6.881836h-7.129883v14.320801c0,3.224121,0.992188,3.844238,3.53418,3.844238h3.595703v7.005371
			c-2.169922,0.124023-3.967773,0.124023-7.005859,0.124023C268.633789,111.76123,265.162109,110.025391,265.162109,102.95752z"/>
		<path style="fill:#032044;" d="M299.855469,112.443359c-9.298828,0-17.110352-6.385742-17.110352-16.987305
			c0-10.291504,8.05957-16.676758,16.924805-16.676758c9.113281,0,16.615234,6.075684,16.615234,17.358887v1.921875h-24.117188
			c0.496094,4.649902,3.782227,7.439453,7.998047,7.439453c2.727539,0,5.456055-0.929688,6.757812-3.47168h9.050781
			C313.991211,109.219238,306.923828,112.443359,299.855469,112.443359z M292.106445,92.108398h14.693359
			c-0.310547-3.905762-3.223633-6.447754-7.253906-6.447754C295.702148,85.660645,292.602539,88.016602,292.106445,92.108398z"/>
		<path style="fill:#032044;" d="M343.0625,107.17334c-1.921875,3.348145-5.207031,5.208008-9.670898,5.208008
			c-7.998047,0-14.879883-5.827637-14.879883-16.987305c0-10.725098,7.129883-16.552734,15.003906-16.552734
			c4.15332,0,7.31543,1.549805,9.237305,4.339355V67.062012h9.423828v44.637207H343.0625V107.17334z M342.938477,95.394043
			c0-5.703613-3.161133-8.989258-7.376953-8.989258c-4.27832,0-7.37793,3.285645-7.37793,8.989258
			c0,5.95166,3.099609,9.42334,7.37793,9.42334C339.65332,104.817383,342.938477,101.407715,342.938477,95.394043z"/>
		<path style="fill:#032044;" d="M373.318359,68.301758H389.5c13.825195,0,22.876953,7.067383,22.876953,21.450684
			c0,13.825195-9.114258,21.946777-22.939453,21.946777h-16.119141V68.301758z M388.446289,103.391602
			c8.926758,0,13.577148-5.083496,13.577148-13.577148c0-8.431641-4.650391-13.205078-13.577148-13.205078h-5.022461v26.782227
			H388.446289z"/>
		<path style="fill:#032044;" d="M431.827148,112.443359c-9.298828,0-17.110352-6.385742-17.110352-16.987305
			c0-10.291504,8.05957-16.676758,16.924805-16.676758c9.113281,0,16.615234,6.075684,16.615234,17.358887v1.921875h-24.117188
			c0.496094,4.649902,3.782227,7.439453,7.998047,7.439453c2.727539,0,5.455078-0.929688,6.756836-3.47168h9.051758
			C445.962891,109.219238,438.894531,112.443359,431.827148,112.443359z M424.078125,92.108398h14.692383
			c-0.30957-3.905762-3.223633-6.447754-7.25293-6.447754C427.673828,85.660645,424.574219,88.016602,424.078125,92.108398z"/>
		<path style="fill:#032044;" d="M450.241211,101.531738h8.741211c0.496094,2.976074,3.038086,4.401855,6.509766,4.401855
			c2.728516,0,5.145508-0.992188,5.145508-3.223633c0-1.983887-1.797852-2.852051-5.827148-3.53418l-3.347656-0.619629
			c-6.572266-1.178223-10.664062-4.091797-10.664062-9.237793c0-6.571289,6.076172-10.601074,13.825195-10.601074
			c7.37793,0,13.454102,3.719727,14.321289,10.291016h-8.617188c-0.620117-2.41748-2.727539-3.781738-5.889648-3.781738
			c-2.727539,0-4.773438,1.240234-4.773438,3.162109c0,1.797852,1.611328,2.47998,5.083008,3.099609l3.286133,0.558105
			c7.31543,1.301758,11.655273,4.153809,11.655273,9.733398c0,7.067383-6.695312,10.663574-14.382812,10.663574
			C457.432617,112.443359,451.170898,109.033203,450.241211,101.531738z"/>
		<path style="fill:#032044;" d="M483.566406,67.062012h9.485352v7.811523h-9.485352V67.062012z M483.566406,79.584961h9.422852
			v32.114258h-9.422852V79.584961z"/>
		<path style="fill:#032044;" d="M513.875977,124.160645c-9.298828,0-15.00293-4.277832-16.056641-11.097656h9.174805
			c0.682617,2.790039,3.100586,4.339844,6.944336,4.339844c3.967773,0,6.571289-1.983887,6.571289-6.447754v-4.649414
			c-1.860352,2.851562-5.083984,4.525391-9.423828,4.525391c-7.749023,0-14.197266-5.765625-14.197266-16.118652
			c0-10.043457,6.696289-15.871094,14.321289-15.871094c4.463867,0,7.625977,1.797852,9.485352,4.959473v-4.21582h9.175781
			v30.750488C529.871094,119.882812,522.803711,124.160645,513.875977,124.160645z M520.571289,94.712402
			c0-5.332031-3.099609-8.493652-7.004883-8.493652c-4.030273,0-7.005859,3.285645-7.005859,8.493652
			c0,5.517578,2.975586,8.741211,7.005859,8.741211C517.53418,103.453613,520.571289,100.167969,520.571289,94.712402z"/>
		<path style="fill:#032044;" d="M544.975586,111.699219h-9.422852V79.584961h9.113281v3.905762
			c2.045898-2.975586,5.579102-4.649414,9.733398-4.649414c7.005859,0,11.716797,4.215332,11.716797,12.833008v20.024902h-9.422852
			V93.348145c0-4.091797-2.108398-6.447266-5.641602-6.447266c-3.286133,0-6.076172,2.41748-6.076172,7.6875V111.699219z"/>
	</g>
</g>
<g>
</g>
<g>
</g>
<g>
</g>
<g>
</g>
<g>
</g>
<g>
</g>
<g>
</g>
<g>
</g>
<g>
</g>
<g>
</g>
<g>
</g>
<g>
</g>
<g>
</g>
<g>
</g>
<g>
</g>
</svg>
