<?xml version="1.0" encoding="iso-8859-1"?>
<!-- Generator: Adobe Illustrator 30.2.1, SVG Export Plug-In . SVG Version: 9.03 Build 0)  -->
<svg version="1.1" id="Layer_1" xmlns="http://www.w3.org/2000/svg" xmlns:xlink="http://www.w3.org/1999/xlink" x="0px" y="0px"
	 viewBox="0 0 933.359375 45.443359" style="enable-background:new 0 0 933.359375 45.443359;" xml:space="preserve">
<g>
	<g>
		<path style="fill:#032044;" d="M9.547363,9.299561v35.399902H0V1.302002h15.871094l9.609375,31.804199l9.609375-31.804199
			h15.499023v43.397461h-9.609375V9.485596L30.006348,44.699463h-9.485352L9.547363,9.299561z"/>
		<path style="fill:#032044;" d="M77.238281,41.041748c-2.10791,2.60376-5.393555,4.3396-10.043457,4.3396
			c-6.075684,0-11.90332-3.47168-11.90332-10.043457c0-6.695557,5.393555-9.05127,13.887207-10.415283l7.377441-1.177979v-0.433838
			c0-3.471924-1.921875-4.835938-5.269531-4.835938c-3.409668,0-5.517578,1.612061-6.075684,4.587891h-8.803711
			c1.054199-7.005615,7.191895-11.283447,15.313477-11.283447c8.679199,0,14.135254,3.409912,14.073242,12.461426
			l-0.062012,13.63916c0,1.053955,0.062012,2.913818,0.247559,6.81958h-8.617188L77.238281,41.041748z M69.612793,38.685791
			c3.781738,0,6.943359-2.231934,6.943359-6.695557v-2.169922c-8.493652,1.053955-12.151367,1.983887-12.151367,5.08374
			C64.404785,37.383789,66.636719,38.685791,69.612793,38.685791z"/>
		<path style="fill:#032044;" d="M100.605957,44.699463h-9.42334V12.585205h9.11377v4.773926
			c0.557617-0.991943,1.301758-1.921875,2.231445-2.728027c1.859863-1.487793,3.658203-2.293701,6.695801-2.293701
			c0.806152,0,1.73584,0.062012,2.293945,0.185791v8.679688c-1.487793-0.186035-2.231934-0.186035-3.162109-0.186035
			c-3.533691,0-7.749512,1.302002-7.749512,7.377441V44.699463z"/>
		<path style="fill:#032044;" d="M123.229004,44.699463h-9.42334V12.585205h9.11377v3.781982
			c1.983398-2.913818,5.393555-4.525879,9.547363-4.525879c3.781738,0,7.501465,1.550049,9.671387,5.207764
			c2.10791-3.409912,5.95166-5.207764,10.477539-5.207764c6.323242,0,11.841309,3.471924,11.841309,12.523193v20.334961h-9.423828
			V26.100586c0-4.153809-2.293945-6.199707-5.393555-6.199707c-3.037598,0-5.765625,2.355957-5.765625,7.315674v17.48291h-9.42334
			V26.100586c0-4.153809-2.293945-6.199707-5.394043-6.199707c-3.037598,0-5.827637,2.293945-5.827637,7.315674V44.699463z"/>
		<path style="fill:#032044;" d="M169.983398,0.062012h9.485352v7.811523h-9.485352V0.062012z M169.983398,12.585205h9.42334
			v32.114258h-9.42334V12.585205z"/>
		<path style="fill:#032044;" d="M183.077637,28.456299c0-10.229248,7.873535-16.677002,17.420898-16.677002
			c9.609375,0,17.420898,6.385742,17.420898,16.677002c0,10.353516-7.749512,16.987061-17.420898,16.987061
			C190.765137,45.443359,183.077637,38.871826,183.077637,28.456299z M208.248047,28.456299
			c0-5.393555-3.161621-8.989502-7.749512-8.989502c-4.649414,0-7.749512,3.595947-7.749512,8.989502
			c0,5.641846,3.162109,9.299561,7.749512,9.299561C205.148438,37.755859,208.248047,34.160156,208.248047,28.456299z"/>
		<path style="fill:#032044;" d="M231.169922,44.699463h-9.42334V12.585205h9.113281v3.905762
			c2.045898-2.97583,5.580078-4.649658,9.733887-4.649658c7.005371,0,11.717285,4.21582,11.717285,12.833252v20.024902h-9.423828
			V26.348389c0-4.091553-2.107422-6.44751-5.641602-6.44751c-3.285645,0-6.075684,2.417969-6.075684,7.6875V44.699463z"/>
		<path style="fill:#032044;" d="M270.602051,30.998291h9.857422c0.620117,4.649658,4.21582,6.81958,8.927734,6.81958
			c4.339355,0,7.625488-1.797852,7.625488-5.08374c0-2.851807-2.666016-4.277832-7.439453-5.269775l-4.339844-0.929932
			c-9.237793-1.921875-13.577148-6.075684-13.577148-12.709229c0-7.935547,7.625488-13.453125,16.924805-13.453125
			c9.485352,0,16.677246,4.897705,17.544922,13.515137h-9.79541c-0.558105-3.719727-3.533691-5.889648-7.811523-5.889648
			c-3.967773,0-7.067383,2.045898-7.067383,4.959717c0,2.60376,1.921875,3.719727,6.26123,4.587646l4.835938,1.053955
			c8.741699,1.736084,14.383301,5.641846,14.383301,13.205322c0,8.92749-8.369629,13.63916-17.606934,13.63916
			C279.281738,45.443359,271.470215,40.855713,270.602051,30.998291z"/>
		<path style="fill:#032044;" d="M309.29541,28.456299c0-10.043457,7.811523-16.677002,17.048828-16.677002
			c8.370117,0,14.941406,4.959717,15.933594,12.647217h-9.299805c-0.744141-3.037598-3.409668-4.959717-6.633789-4.959717
			c-4.339355,0-7.377441,3.657959-7.377441,8.989502c0,5.517822,3.100098,9.299561,7.377441,9.299561
			c3.162109,0,5.704102-1.797852,6.572266-5.021729h9.361328c-1.240234,7.935547-7.874023,12.709229-15.995117,12.709229
			C316.858887,45.443359,309.29541,38.809814,309.29541,28.456299z"/>
		<path style="fill:#032044;" d="M355.379395,44.699463h-9.422852V0.062012h9.422852V13.63916c0,0.86792,0,1.674072,0,2.417969
			c2.045898-2.665771,5.456055-4.21582,9.423828-4.21582c7.005859,0,11.716797,4.21582,11.716797,12.833252v20.024902h-9.422852
			V26.348389c0-4.091553-2.108398-6.44751-5.641602-6.44751c-3.286133,0-6.076172,2.417969-6.076172,7.6875V44.699463z"/>
		<path style="fill:#032044;" d="M380.024902,28.456299c0-10.229248,7.873047-16.677002,17.420898-16.677002
			c9.609375,0,17.420898,6.385742,17.420898,16.677002c0,10.353516-7.75,16.987061-17.420898,16.987061
			C387.712402,45.443359,380.024902,38.871826,380.024902,28.456299z M405.194824,28.456299
			c0-5.393555-3.162109-8.989502-7.749023-8.989502c-4.650391,0-7.75,3.595947-7.75,8.989502
			c0,5.641846,3.162109,9.299561,7.75,9.299561C402.095215,37.755859,405.194824,34.160156,405.194824,28.456299z"/>
		<path style="fill:#032044;" d="M416.853027,28.456299c0-10.229248,7.873047-16.677002,17.420898-16.677002
			c9.609375,0,17.420898,6.385742,17.420898,16.677002c0,10.353516-7.75,16.987061-17.420898,16.987061
			C424.540527,45.443359,416.853027,38.871826,416.853027,28.456299z M442.022949,28.456299
			c0-5.393555-3.162109-8.989502-7.749023-8.989502c-4.650391,0-7.75,3.595947-7.75,8.989502
			c0,5.641846,3.162109,9.299561,7.75,9.299561C438.92334,37.755859,442.022949,34.160156,442.022949,28.456299z"/>
		<path style="fill:#032044;" d="M455.602051,0.062012h9.422852v44.637451h-9.422852V0.062012z"/>
		<path style="fill:#032044;" d="M483.812012,28.456299c0-10.229248,7.873047-16.677002,17.420898-16.677002
			c9.609375,0,17.420898,6.385742,17.420898,16.677002c0,10.353516-7.75,16.987061-17.420898,16.987061
			C491.499512,45.443359,483.812012,38.871826,483.812012,28.456299z M508.981934,28.456299
			c0-5.393555-3.162109-8.989502-7.749023-8.989502c-4.650391,0-7.75,3.595947-7.75,8.989502
			c0,5.641846,3.162109,9.299561,7.75,9.299561C505.882324,37.755859,508.981934,34.160156,508.981934,28.456299z"/>
		<path style="fill:#032044;" d="M533.664551,19.466797v25.232666h-9.175781V19.466797h-5.331055v-6.881592h5.331055V9.175537
			C524.48877,2.10791,528.519043,0,534.594238,0c2.417969,0,3.967773,0,6.137695,0.062012v6.943604
			c-1.301758-0.062012-2.541016-0.062012-3.905273-0.062012c-1.860352,0-3.162109,0.496094-3.162109,3.099854v2.541748h7.067383
			v6.881592H533.664551z"/>
		<path style="fill:#032044;" d="M559.145996,1.302002h18.661133c10.601562,0,16.119141,5.827637,16.119141,14.197021
			c0,8.617676-5.765625,14.445312-16.180664,14.445312h-8.494141v14.755127h-10.105469V1.302002z M576.319824,21.884766
			c4.897461,0,7.439453-2.479736,7.439453-6.261719c0-3.781738-2.604492-6.261475-7.439453-6.261475h-7.068359v12.523193H576.319824
			z"/>
		<path style="fill:#032044;" d="M617.617676,40.917725c-2.108398,2.97583-5.456055,4.525635-9.423828,4.525635
			c-6.819336,0-11.716797-4.215576-11.716797-12.709229V12.585205h9.422852v18.413086
			c0,4.153809,2.169922,6.323486,5.580078,6.323486c3.038086,0,5.827148-2.169678,5.827148-7.31543V12.585205h9.423828v32.114258
			h-9.113281V40.917725z"/>
		<path style="fill:#032044;" d="M651.164551,45.381348c-4.463867,0-7.749023-1.859863-9.609375-5.20752v4.525635h-9.174805
			V0.062012h9.422852v16.305176c1.921875-2.913818,5.083984-4.525879,9.423828-4.525879
			c7.99707,0,14.817383,5.703613,14.817383,16.552979C666.044434,39.491699,659.162598,45.381348,651.164551,45.381348z
			 M656.434082,28.394287c0-5.889648-3.223633-8.989258-7.376953-8.989258c-4.27832,0-7.439453,3.285645-7.439453,8.989258
			c0,6.013672,3.347656,9.423584,7.439453,9.423584C653.210449,37.817871,656.434082,34.407959,656.434082,28.394287z"/>
		<path style="fill:#032044;" d="M670.112793,0.062012h9.422852v44.637451h-9.422852V0.062012z"/>
		<path style="fill:#032044;" d="M685.122559,0.062012h9.485352v7.811523h-9.485352V0.062012z M685.122559,12.585205h9.422852
			v32.114258h-9.422852V12.585205z"/>
		<path style="fill:#032044;" d="M698.216309,28.456299c0-10.043457,7.811523-16.677002,17.048828-16.677002
			c8.369141,0,14.94043,4.959717,15.932617,12.647217h-9.298828c-0.744141-3.037598-3.410156-4.959717-6.633789-4.959717
			c-4.339844,0-7.37793,3.657959-7.37793,8.989502c0,5.517822,3.099609,9.299561,7.37793,9.299561
			c3.161133,0,5.703125-1.797852,6.571289-5.021729h9.361328c-1.239258,7.935547-7.873047,12.709229-15.995117,12.709229
			C705.779785,45.443359,698.216309,38.809814,698.216309,28.456299z"/>
		<path style="fill:#032044;" d="M750.171387,1.302002h10.105469v16.677002h18.90918V1.302002h10.105469v43.397461h-10.105469
			V26.4104h-18.90918v18.289062h-10.105469V1.302002z"/>
		<path style="fill:#032044;" d="M810.893066,45.443359c-9.298828,0-17.110352-6.385498-17.110352-16.987061
			c0-10.29126,8.058594-16.677002,16.924805-16.677002c9.113281,0,16.615234,6.075684,16.615234,17.359131v1.921875h-24.117188
			c0.496094,4.649658,3.782227,7.439453,7.998047,7.439453c2.727539,0,5.455078-0.929932,6.756836-3.47168h9.051758
			C825.028809,42.219482,817.960449,45.443359,810.893066,45.443359z M803.144043,25.108643h14.692383
			c-0.30957-3.905762-3.223633-6.447754-7.25293-6.447754C806.739746,18.660889,803.640137,21.016846,803.144043,25.108643z"/>
		<path style="fill:#032044;" d="M851.260254,41.041748c-2.107422,2.60376-5.393555,4.3396-10.042969,4.3396
			c-6.076172,0-11.90332-3.47168-11.90332-10.043457c0-6.695557,5.393555-9.05127,13.886719-10.415283l7.37793-1.177979v-0.433838
			c0-3.471924-1.921875-4.835938-5.269531-4.835938c-3.410156,0-5.517578,1.612061-6.076172,4.587891h-8.802734
			c1.053711-7.005615,7.191406-11.283447,15.3125-11.283447c8.679688,0,14.135742,3.409912,14.073242,12.461426l-0.061523,13.63916
			c0,1.053955,0.061523,2.913818,0.248047,6.81958h-8.618164L851.260254,41.041748z M843.635254,38.685791
			c3.78125,0,6.943359-2.231934,6.943359-6.695557v-2.169922c-8.493164,1.053955-12.151367,1.983887-12.151367,5.08374
			C838.427246,37.383789,840.659668,38.685791,843.635254,38.685791z"/>
		<path style="fill:#032044;" d="M865.224121,0.062012h9.422852v44.637451h-9.422852V0.062012z"/>
		<path style="fill:#032044;" d="M882.35498,35.958008V19.466797h-5.208008v-6.881592h5.208008V4.587646h9.237305v7.997559h7.128906
			v6.881592h-7.128906v14.321289c0,3.223877,0.991211,3.84375,3.533203,3.84375h3.595703v7.005615
			c-2.169922,0.124023-3.967773,0.124023-7.004883,0.124023C885.82666,44.761475,882.35498,43.025635,882.35498,35.958008z"/>
		<path style="fill:#032044;" d="M912.218262,44.699463h-9.422852V0.062012h9.422852V13.63916c0,0.86792,0,1.674072,0,2.417969
			c2.045898-2.665771,5.456543-4.21582,9.424316-4.21582c7.005859,0,11.716797,4.21582,11.716797,12.833252v20.024902h-9.422852
			V26.348389c0-4.091553-2.108398-6.44751-5.641602-6.44751c-3.286133,0-6.07666,2.417969-6.07666,7.6875V44.699463z"/>
	</g>
</g>
<g>
</g>
<g>
</g>
<g>
</g>
<g>
</g>
<g>
</g>
<g>
</g>
<g>
</g>
<g>
</g>
<g>
</g>
<g>
</g>
<g>
</g>
<g>
</g>
<g>
</g>
<g>
</g>
<g>
</g>
</svg>
