<?xml version="1.0" encoding="iso-8859-1"?>
<!-- Generator: Adobe Illustrator 30.2.1, SVG Export Plug-In . SVG Version: 9.03 Build 0)  -->
<svg version="1.1" id="Layer_1" xmlns="http://www.w3.org/2000/svg" xmlns:xlink="http://www.w3.org/1999/xlink" x="0px" y="0px"
	 viewBox="0 0 332.575195 112.381348" style="enable-background:new 0 0 332.575195 112.381348;" xml:space="preserve">
<g>
	<g>
		<path style="fill:#032044;" d="M0.248047,22.752441c0-14.197266,10.664062-22.442871,21.823242-22.442871
			c10.539062,0,18.84668,6.261719,20.148438,15.74707H32.114258c-1.177734-4.339355-4.897461-7.129395-10.105469-7.129395
			c-6.323242,0-11.344727,5.331543-11.344727,13.825195s5.083008,14.01123,11.407227,14.01123
			c5.083008,0,8.679688-2.666016,10.105469-7.129395h10.105469c-1.549805,9.547363-9.733398,15.74707-20.273438,15.74707
			C10.540039,45.381348,0.248047,37.011719,0.248047,22.752441z"/>
		<path style="fill:#032044;" d="M44.354492,28.394043c0-10.229492,7.874023-16.676758,17.420898-16.676758
			c9.609375,0,17.421875,6.385254,17.421875,16.676758c0,10.353516-7.75,16.987305-17.421875,16.987305
			C52.041992,45.381348,44.354492,38.80957,44.354492,28.394043z M69.525391,28.394043c0-5.393555-3.162109-8.989258-7.75-8.989258
			c-4.649414,0-7.749023,3.595703-7.749023,8.989258c0,5.641602,3.162109,9.299316,7.749023,9.299316
			C66.425781,37.693359,69.525391,34.097656,69.525391,28.394043z"/>
		<path style="fill:#032044;" d="M83.104492,0h9.422852v44.637207h-9.422852V0z"/>
		<path style="fill:#032044;" d="M98.126953,0h9.422852v44.637207h-9.422852V0z"/>
		<path style="fill:#032044;" d="M128.493164,45.381348c-9.299805,0-17.111328-6.385742-17.111328-16.987305
			c0-10.291504,8.05957-16.676758,16.925781-16.676758c9.113281,0,16.614258,6.075684,16.614258,17.358887v1.921875h-24.116211
			c0.496094,4.649902,3.78125,7.439453,7.99707,7.439453c2.728516,0,5.456055-0.929688,6.757812-3.47168h9.051758
			C142.62793,42.157227,135.560547,45.381348,128.493164,45.381348z M120.743164,25.046387h14.693359
			c-0.30957-3.905762-3.223633-6.447754-7.25293-6.447754C124.339844,18.598633,121.239258,20.95459,120.743164,25.046387z"/>
		<path style="fill:#032044;" d="M164.037109,57.098633c-9.299805,0-15.00293-4.277832-16.057617-11.097656h9.175781
			c0.682617,2.790039,3.099609,4.339844,6.943359,4.339844c3.967773,0,6.572266-1.983887,6.572266-6.447754v-4.649414
			c-1.860352,2.851562-5.083984,4.525391-9.423828,4.525391c-7.749023,0-14.197266-5.765625-14.197266-16.118652
			c0-10.043457,6.696289-15.871094,14.321289-15.871094c4.463867,0,7.625977,1.797852,9.485352,4.959473v-4.21582h9.175781
			v30.750488C180.032227,52.820801,172.964844,57.098633,164.037109,57.098633z M170.732422,27.650391
			c0-5.332031-3.099609-8.493652-7.004883-8.493652c-4.030273,0-7.005859,3.285645-7.005859,8.493652
			c0,5.517578,2.975586,8.741211,7.005859,8.741211C167.695312,36.391602,170.732422,33.105957,170.732422,27.650391z"/>
		<path style="fill:#032044;" d="M200.969727,45.381348c-9.298828,0-17.110352-6.385742-17.110352-16.987305
			c0-10.291504,8.05957-16.676758,16.924805-16.676758c9.113281,0,16.615234,6.075684,16.615234,17.358887v1.921875h-24.117188
			c0.496094,4.649902,3.782227,7.439453,7.998047,7.439453c2.727539,0,5.456055-0.929688,6.757812-3.47168h9.050781
			C215.105469,42.157227,208.038086,45.381348,200.969727,45.381348z M193.220703,25.046387h14.693359
			c-0.310547-3.905762-3.223633-6.447754-7.253906-6.447754C196.816406,18.598633,193.716797,20.95459,193.220703,25.046387z"/>
		<path style="fill:#032044;" d="M0,95.394043c0-10.229492,7.874023-16.676758,17.420898-16.676758
			c9.609375,0,17.421875,6.385254,17.421875,16.676758c0,10.353516-7.75,16.987305-17.421875,16.987305
			C7.6875,112.381348,0,105.80957,0,95.394043z M25.170898,95.394043c0-5.393555-3.162109-8.989258-7.75-8.989258
			c-4.649414,0-7.749023,3.595703-7.749023,8.989258c0,5.641602,3.162109,9.299316,7.749023,9.299316
			C22.071289,104.693359,25.170898,101.097656,25.170898,95.394043z"/>
		<path style="fill:#032044;" d="M49.853516,86.404785v25.232422h-9.175781V86.404785H35.34668v-6.881836h5.331055v-3.409668
			c0-7.067871,4.030273-9.175293,10.105469-9.175293c2.417969,0,3.967773,0,6.137695,0.062012v6.943359
			c-1.301758-0.062012-2.541992-0.062012-3.905273-0.062012c-1.860352,0-3.162109,0.496094-3.162109,3.099609v2.541992h7.067383
			v6.881836H49.853516z"/>
		<path style="fill:#032044;" d="M72.855469,97.936035h9.857422c0.620117,4.649902,4.21582,6.819336,8.927734,6.819336
			c4.339844,0,7.625977-1.797852,7.625977-5.083496c0-2.852051-2.666016-4.277832-7.439453-5.269531l-4.339844-0.930176
			c-9.238281-1.921875-13.577148-6.075684-13.577148-12.708984c0-7.935547,7.625-13.453613,16.924805-13.453613
			c9.485352,0,16.676758,4.897949,17.544922,13.515625h-9.795898c-0.557617-3.720215-3.533203-5.889648-7.811523-5.889648
			c-3.967773,0-7.067383,2.04541-7.067383,4.959473c0,2.604004,1.921875,3.719727,6.261719,4.587891l4.835938,1.053711
			c8.741211,1.73584,14.382812,5.641602,14.382812,13.205566c0,8.927246-8.369141,13.63916-17.606445,13.63916
			C81.535156,112.381348,73.723633,107.793457,72.855469,97.936035z"/>
		<path style="fill:#032044;" d="M111.548828,95.394043c0-10.043457,7.811523-16.676758,17.048828-16.676758
			c8.370117,0,14.941406,4.959473,15.933594,12.646973h-9.299805c-0.743164-3.037598-3.40918-4.959473-6.633789-4.959473
			c-4.338867,0-7.376953,3.657715-7.376953,8.989258c0,5.517578,3.099609,9.299316,7.376953,9.299316
			c3.162109,0,5.704102-1.797852,6.572266-5.021484h9.361328c-1.240234,7.935547-7.874023,12.709473-15.995117,12.709473
			C119.112305,112.381348,111.548828,105.747559,111.548828,95.394043z"/>
		<path style="fill:#032044;" d="M148.209961,67h9.485352v7.811523h-9.485352V67z M148.209961,79.522949h9.422852v32.114258
			h-9.422852V79.522949z"/>
		<path style="fill:#032044;" d="M178.414062,112.381348c-9.298828,0-17.110352-6.385742-17.110352-16.987305
			c0-10.291504,8.05957-16.676758,16.924805-16.676758c9.113281,0,16.615234,6.075684,16.615234,17.358887v1.921875h-24.117188
			c0.496094,4.649902,3.782227,7.439453,7.998047,7.439453c2.727539,0,5.456055-0.929688,6.757812-3.47168h9.050781
			C192.549805,109.157227,185.482422,112.381348,178.414062,112.381348z M170.665039,92.046387h14.693359
			c-0.310547-3.905762-3.223633-6.447754-7.253906-6.447754C174.260742,85.598633,171.161133,87.95459,170.665039,92.046387z"/>
		<path style="fill:#032044;" d="M208.236328,111.637207H198.8125V79.522949h9.114258v3.905762
			c2.044922-2.975586,5.579102-4.649414,9.733398-4.649414c7.004883,0,11.716797,4.215332,11.716797,12.833008v20.024902h-9.423828
			V93.286133c0-4.091797-2.107422-6.447266-5.641602-6.447266c-3.285156,0-6.075195,2.41748-6.075195,7.6875V111.637207z"/>
		<path style="fill:#032044;" d="M232.881836,95.394043c0-10.043457,7.811523-16.676758,17.048828-16.676758
			c8.369141,0,14.941406,4.959473,15.932617,12.646973h-9.298828c-0.744141-3.037598-3.410156-4.959473-6.633789-4.959473
			c-4.339844,0-7.37793,3.657715-7.37793,8.989258c0,5.517578,3.100586,9.299316,7.37793,9.299316
			c3.162109,0,5.704102-1.797852,6.571289-5.021484h9.361328c-1.239258,7.935547-7.873047,12.709473-15.994141,12.709473
			C240.445312,112.381348,232.881836,105.747559,232.881836,95.394043z"/>
		<path style="fill:#032044;" d="M284.711914,112.381348c-9.298828,0-17.110352-6.385742-17.110352-16.987305
			c0-10.291504,8.05957-16.676758,16.924805-16.676758c9.113281,0,16.615234,6.075684,16.615234,17.358887v1.921875h-24.117188
			c0.496094,4.649902,3.782227,7.439453,7.998047,7.439453c2.727539,0,5.456055-0.929688,6.757812-3.47168h9.050781
			C298.847656,109.157227,291.780273,112.381348,284.711914,112.381348z M276.962891,92.046387h14.693359
			c-0.310547-3.905762-3.223633-6.447754-7.253906-6.447754C280.558594,85.598633,277.458984,87.95459,276.962891,92.046387z"/>
		<path style="fill:#032044;" d="M303.126953,101.469727h8.741211c0.496094,2.976074,3.038086,4.401855,6.509766,4.401855
			c2.727539,0,5.145508-0.992188,5.145508-3.223633c0-1.983887-1.797852-2.852051-5.827148-3.53418l-3.348633-0.619629
			c-6.571289-1.178223-10.663086-4.091797-10.663086-9.237793c0-6.571289,6.076172-10.601074,13.825195-10.601074
			c7.37793,0,13.453125,3.719727,14.321289,10.291016h-8.617188c-0.620117-2.41748-2.728516-3.781738-5.889648-3.781738
			c-2.728516,0-4.774414,1.240234-4.774414,3.162109c0,1.797852,1.612305,2.47998,5.083984,3.099609l3.286133,0.558105
			c7.31543,1.301758,11.655273,4.153809,11.655273,9.733398c0,7.067383-6.695312,10.663574-14.382812,10.663574
			C310.318359,112.381348,304.056641,108.971191,303.126953,101.469727z"/>
	</g>
</g>
<g>
</g>
<g>
</g>
<g>
</g>
<g>
</g>
<g>
</g>
<g>
</g>
<g>
</g>
<g>
</g>
<g>
</g>
<g>
</g>
<g>
</g>
<g>
</g>
<g>
</g>
<g>
</g>
<g>
</g>
</svg>
