<?xml version="1.0" encoding="iso-8859-1"?>
<!-- Generator: Adobe Illustrator 30.2.1, SVG Export Plug-In . SVG Version: 9.03 Build 0)  -->
<svg version="1.1" id="Layer_1" xmlns="http://www.w3.org/2000/svg" xmlns:xlink="http://www.w3.org/1999/xlink" x="0px" y="0px"
	 viewBox="0 0 285.49707 124.098633" style="enable-background:new 0 0 285.49707 124.098633;" xml:space="preserve">
<g>
	<g>
		<path style="fill:#032044;" d="M1.736328,27.27832V1.239746h10.105469v25.480469
			c0,6.447754,3.533203,10.043457,8.741211,10.043457c5.332031,0,8.741211-3.595703,8.741211-9.981445V1.239746h10.105469v25.976562
			c0,11.593262-7.811523,18.165039-18.908203,18.165039C9.423828,45.381348,1.736328,38.933594,1.736328,27.27832z"/>
		<path style="fill:#032044;" d="M54.720703,44.637207h-9.423828V12.522949h9.114258v3.905762
			c2.044922-2.975586,5.579102-4.649414,9.733398-4.649414c7.004883,0,11.716797,4.215332,11.716797,12.833008v20.024902H66.4375
			V26.286133c0-4.091797-2.107422-6.447266-5.641602-6.447266c-3.285156,0-6.075195,2.41748-6.075195,7.6875V44.637207z"/>
		<path style="fill:#032044;" d="M81.28125,0h9.485352v7.811523H81.28125V0z M81.28125,12.522949h9.423828v32.114258H81.28125
			V12.522949z"/>
		<path style="fill:#032044;" d="M114.289062,44.637207h-9.733398l-11.90332-32.114258h9.733398l7.25293,22.070801
			l7.192383-22.070801h9.298828L114.289062,44.637207z"/>
		<path style="fill:#032044;" d="M142.057617,45.381348c-9.298828,0-17.110352-6.385742-17.110352-16.987305
			c0-10.291504,8.05957-16.676758,16.924805-16.676758c9.113281,0,16.615234,6.075684,16.615234,17.358887v1.921875h-24.117188
			c0.496094,4.649902,3.782227,7.439453,7.998047,7.439453c2.727539,0,5.456055-0.929688,6.757812-3.47168h9.050781
			C156.193359,42.157227,149.125977,45.381348,142.057617,45.381348z M134.308594,25.046387h14.693359
			c-0.310547-3.905762-3.223633-6.447754-7.253906-6.447754C137.904297,18.598633,134.804688,20.95459,134.308594,25.046387z"/>
		<path style="fill:#032044;" d="M171.879883,44.637207h-9.423828V12.522949h9.114258v4.773926
			c0.557617-0.992188,1.301758-1.921875,2.231445-2.728027c1.859375-1.487793,3.658203-2.293945,6.695312-2.293945
			c0.806641,0,1.736328,0.062012,2.293945,0.186035v8.679688c-1.487305-0.186035-2.231445-0.186035-3.162109-0.186035
			c-3.533203,0-7.749023,1.301758-7.749023,7.377441V44.637207z"/>
		<path style="fill:#032044;" d="M183.864258,34.469727h8.741211c0.496094,2.976074,3.038086,4.401855,6.509766,4.401855
			c2.727539,0,5.145508-0.992188,5.145508-3.223633c0-1.983887-1.797852-2.852051-5.827148-3.53418l-3.348633-0.619629
			c-6.571289-1.178223-10.663086-4.091797-10.663086-9.237793c0-6.571289,6.076172-10.601074,13.825195-10.601074
			c7.37793,0,13.453125,3.719727,14.321289,10.291016h-8.617188c-0.620117-2.41748-2.728516-3.781738-5.889648-3.781738
			c-2.728516,0-4.774414,1.240234-4.774414,3.162109c0,1.797852,1.612305,2.47998,5.083984,3.099609l3.286133,0.558105
			c7.31543,1.301758,11.655273,4.153809,11.655273,9.733398c0,7.067383-6.695312,10.663574-14.382812,10.663574
			C191.055664,45.381348,184.793945,41.971191,183.864258,34.469727z"/>
		<path style="fill:#032044;" d="M217.188477,0h9.485352v7.811523h-9.485352V0z M217.188477,12.522949h9.422852v32.114258h-9.422852
			V12.522949z"/>
		<path style="fill:#032044;" d="M234.231445,35.895508V19.404785h-5.207031v-6.881836h5.207031V4.525391h9.237305v7.997559
			h7.129883v6.881836h-7.129883v14.320801c0,3.224121,0.992188,3.844238,3.53418,3.844238h3.595703v7.005371
			c-2.169922,0.124023-3.967773,0.124023-7.005859,0.124023C237.703125,44.699219,234.231445,42.963379,234.231445,35.895508z"/>
		<path style="fill:#032044;" d="M268.261719,56.416504h-9.670898l5.765625-14.01123l-12.771484-29.882324h9.857422l7.625,19.776855
			l7.005859-19.776855h9.423828L268.261719,56.416504z"/>
		<path style="fill:#032044;" d="M0,89.752441C0,75.555176,10.664062,67.30957,21.823242,67.30957
			c10.539062,0,18.84668,6.261719,20.148438,15.74707H31.866211c-1.177734-4.339355-4.897461-7.129395-10.105469-7.129395
			c-6.323242,0-11.344727,5.331543-11.344727,13.825195s5.083008,14.01123,11.407227,14.01123
			c5.083008,0,8.679688-2.666016,10.105469-7.129395H42.03418c-1.549805,9.547363-9.733398,15.74707-20.273438,15.74707
			C10.291992,112.381348,0,104.011719,0,89.752441z"/>
		<path style="fill:#032044;" d="M44.106445,95.394043c0-10.229492,7.874023-16.676758,17.420898-16.676758
			c9.609375,0,17.421875,6.385254,17.421875,16.676758c0,10.353516-7.75,16.987305-17.421875,16.987305
			C51.793945,112.381348,44.106445,105.80957,44.106445,95.394043z M69.277344,95.394043
			c0-5.393555-3.162109-8.989258-7.75-8.989258c-4.649414,0-7.749023,3.595703-7.749023,8.989258
			c0,5.641602,3.162109,9.299316,7.749023,9.299316C66.177734,104.693359,69.277344,101.097656,69.277344,95.394043z"/>
		<path style="fill:#032044;" d="M82.856445,67h9.422852v44.637207h-9.422852V67z"/>
		<path style="fill:#032044;" d="M97.878906,67h9.422852v44.637207h-9.422852V67z"/>
		<path style="fill:#032044;" d="M128.245117,112.381348c-9.299805,0-17.111328-6.385742-17.111328-16.987305
			c0-10.291504,8.05957-16.676758,16.925781-16.676758c9.113281,0,16.614258,6.075684,16.614258,17.358887v1.921875h-24.116211
			c0.496094,4.649902,3.78125,7.439453,7.99707,7.439453c2.728516,0,5.456055-0.929688,6.757812-3.47168h9.051758
			C142.379883,109.157227,135.3125,112.381348,128.245117,112.381348z M120.495117,92.046387h14.693359
			c-0.30957-3.905762-3.223633-6.447754-7.25293-6.447754C124.091797,85.598633,120.991211,87.95459,120.495117,92.046387z"/>
		<path style="fill:#032044;" d="M163.789062,124.098633c-9.299805,0-15.00293-4.277832-16.057617-11.097656h9.175781
			c0.682617,2.790039,3.099609,4.339844,6.943359,4.339844c3.967773,0,6.572266-1.983887,6.572266-6.447754v-4.649414
			c-1.860352,2.851562-5.083984,4.525391-9.423828,4.525391c-7.749023,0-14.197266-5.765625-14.197266-16.118652
			c0-10.043457,6.696289-15.871094,14.321289-15.871094c4.463867,0,7.625977,1.797852,9.485352,4.959473v-4.21582h9.175781
			v30.750488C179.78418,119.820801,172.716797,124.098633,163.789062,124.098633z M170.484375,94.650391
			c0-5.332031-3.099609-8.493652-7.004883-8.493652c-4.030273,0-7.005859,3.285645-7.005859,8.493652
			c0,5.517578,2.975586,8.741211,7.005859,8.741211C167.447266,103.391602,170.484375,100.105957,170.484375,94.650391z"/>
		<path style="fill:#032044;" d="M200.72168,112.381348c-9.298828,0-17.110352-6.385742-17.110352-16.987305
			c0-10.291504,8.05957-16.676758,16.924805-16.676758c9.113281,0,16.615234,6.075684,16.615234,17.358887v1.921875H193.03418
			c0.496094,4.649902,3.782227,7.439453,7.998047,7.439453c2.727539,0,5.456055-0.929688,6.757812-3.47168h9.050781
			C214.857422,109.157227,207.790039,112.381348,200.72168,112.381348z M192.972656,92.046387h14.693359
			c-0.310547-3.905762-3.223633-6.447754-7.253906-6.447754C196.568359,85.598633,193.46875,87.95459,192.972656,92.046387z"/>
	</g>
</g>
<g>
</g>
<g>
</g>
<g>
</g>
<g>
</g>
<g>
</g>
<g>
</g>
<g>
</g>
<g>
</g>
<g>
</g>
<g>
</g>
<g>
</g>
<g>
</g>
<g>
</g>
<g>
</g>
<g>
</g>
</svg>
