<svg xmlns="http://www.w3.org/2000/svg" width="438.592" height="55" viewBox="0 0 438.592 55"><defs><style>.a{fill:#f15a22;}.b{fill:#032044;}</style></defs><path class="a" d="M115.259,1.261l-13.07,33.972c.066-.782.1-1.571.1-2.353,0-7.715-5.119-11.063-11.764-13.025L87.372,18.9c-2.146-.693-5.5-1.77-5.5-4.551s3.039-3.975,5.31-3.975A13.05,13.05,0,0,1,95.4,13.534l4.927-9.61A32.588,32.588,0,0,0,85.41,0C79.465,0,74.553,2.456,71.691,6.638V1.261H29.2v25.1c0,6.2-.443,12.959-8.408,12.959s-8.408-6.763-8.408-12.959V1.261H0v26.81c0,6.129.251,12.2,4.993,16.816C8.976,48.812,15.238,50.2,20.8,50.2s11.823-1.387,15.806-5.31C41.348,40.271,41.6,34.2,41.6,28.072V11.764h7.464V48.937H61.454V11.764h8.025a18.143,18.143,0,0,0-.5,4.234c0,9.234,5.119,11.255,12.893,13.468,2.663.76,7.531,1.962,7.531,5.443s-3.1,4.8-6.011,4.8c-4.234,0-7.9-2.213-11-4.934l-5.3,9.994a29.4,29.4,0,0,0,16.75,5.436c4.8,0,9.8-1.32,13.527-4.484a12.977,12.977,0,0,0,1.283-1.261l-1.726,4.484h13.151l3.29-8.283h17.075l3.09,8.283h13.217L128.786,1.261Zm1.519,29.9L121.9,15.99h.133l5.052,15.172Z" transform="translate(0 0)"/><path class="a" d="M202.669,57.98h-.022a3.209,3.209,0,1,0,3.282,3.2A3.184,3.184,0,0,0,202.669,57.98Zm0,5.753a2.553,2.553,0,0,1-.044-5.1h.022a2.554,2.554,0,0,1,.022,5.1Z" transform="translate(-52.317 -15.216)"/><path class="a" d="M204.124,61.841V61.8a.823.823,0,0,0,.664-.76.89.89,0,0,0-.31-.686,1.774,1.774,0,0,0-1.114-.258,6.765,6.765,0,0,0-1.224.118V63.39h.738V62.121h.354c.406,0,.6.155.656.509a2.466,2.466,0,0,0,.258.76h.8a1.919,1.919,0,0,1-.229-.782.913.913,0,0,0-.59-.774Zm-.878-.236h-.354v-.922a1.691,1.691,0,0,1,.413-.037c.472,0,.679.2.679.487C203.984,61.464,203.652,61.6,203.246,61.6Z" transform="translate(-53.049 -15.772)"/><path class="b" d="M232.007,4.744a6.194,6.194,0,0,0-3.629-1.062,6.478,6.478,0,0,0-3.068.671,6.153,6.153,0,0,0-2.1,1.807,7.721,7.721,0,0,0-1.217,2.6,11.765,11.765,0,0,0-.391,3.024,13.113,13.113,0,0,0,.391,3.238,7.807,7.807,0,0,0,1.217,2.663,5.994,5.994,0,0,0,2.117,1.807,6.581,6.581,0,0,0,3.083.671,5.954,5.954,0,0,0,2.338-.435,5.347,5.347,0,0,0,1.763-1.2,5.617,5.617,0,0,0,1.165-1.837,7.483,7.483,0,0,0,.5-2.3h2.663a9.076,9.076,0,0,1-2.6,5.886,8.437,8.437,0,0,1-6.055,2.1,9.674,9.674,0,0,1-4.064-.8,7.954,7.954,0,0,1-2.884-2.2,9.472,9.472,0,0,1-1.726-3.3,14.08,14.08,0,0,1-.575-4.093,13.309,13.309,0,0,1,.62-4.108,9.9,9.9,0,0,1,1.807-3.349,8.489,8.489,0,0,1,2.972-2.257,9.547,9.547,0,0,1,4.079-.826,10.3,10.3,0,0,1,2.972.42,8.039,8.039,0,0,1,2.493,1.232,6.913,6.913,0,0,1,1.822,2.036,7.406,7.406,0,0,1,.951,2.817h-2.663a4.968,4.968,0,0,0-1.977-3.194Z" transform="translate(-57.455 -0.378)"/><path class="b" d="M246.21,13.717a6.77,6.77,0,0,1,1.342-2.412,6.459,6.459,0,0,1,2.213-1.615,8.082,8.082,0,0,1,6.063,0,6.284,6.284,0,0,1,2.2,1.615,6.707,6.707,0,0,1,1.342,2.412,9.749,9.749,0,0,1,.45,2.987,9.4,9.4,0,0,1-.45,2.972,6.883,6.883,0,0,1-1.342,2.4,6.314,6.314,0,0,1-2.2,1.6,8.274,8.274,0,0,1-6.063,0,6.149,6.149,0,0,1-2.213-1.6,6.705,6.705,0,0,1-1.342-2.4,9.4,9.4,0,0,1-.45-2.972A9.563,9.563,0,0,1,246.21,13.717Zm2.419,5.325a4.937,4.937,0,0,0,.966,1.711,4.113,4.113,0,0,0,1.446,1.047,4.444,4.444,0,0,0,3.511,0A4.206,4.206,0,0,0,256,20.753a4.87,4.87,0,0,0,.966-1.711,7.113,7.113,0,0,0,.354-2.338,7.113,7.113,0,0,0-.354-2.338A5.149,5.149,0,0,0,256,12.64a4.154,4.154,0,0,0-1.446-1.062,4.3,4.3,0,0,0-1.755-.361,4.424,4.424,0,0,0-1.755.361A4.064,4.064,0,0,0,249.6,12.64a5.008,5.008,0,0,0-.966,1.726,7.145,7.145,0,0,0-.354,2.338,7.114,7.114,0,0,0,.354,2.338Z" transform="translate(-64.497 -2.388)"/><path class="b" d="M270.772,2.08V22.09H268.39V2.08Z" transform="translate(-70.436 -0.546)"/><path class="b" d="M278.662,2.08V22.09H276.28V2.08Z" transform="translate(-72.506 -0.546)"/><path class="b" d="M294.149,23.013a6.6,6.6,0,0,1-4.093,1.232,7.379,7.379,0,0,1-3.009-.561,6.045,6.045,0,0,1-2.146-1.571,6.676,6.676,0,0,1-1.305-2.412,12.022,12.022,0,0,1-.494-3.054,8.819,8.819,0,0,1,.5-3.024,7.325,7.325,0,0,1,1.416-2.382,6.448,6.448,0,0,1,2.161-1.571,6.556,6.556,0,0,1,2.736-.561,5.947,5.947,0,0,1,3.208.8,6.316,6.316,0,0,1,2.043,2.028,7.909,7.909,0,0,1,1.062,2.692,11.408,11.408,0,0,1,.236,2.773h-10.85a5.816,5.816,0,0,0,.221,1.807,4.164,4.164,0,0,0,.811,1.512,4.021,4.021,0,0,0,1.431,1.055,5,5,0,0,0,2.043.391,4.124,4.124,0,0,0,2.478-.7,3.406,3.406,0,0,0,1.276-2.132h2.353a5.808,5.808,0,0,1-2.1,3.673Zm-.568-9.308a4.068,4.068,0,0,0-3.8-2.5,4.226,4.226,0,0,0-1.667.325,3.81,3.81,0,0,0-1.276.885A4.312,4.312,0,0,0,286,13.72a4.927,4.927,0,0,0-.361,1.586h8.327a4.927,4.927,0,0,0-.376-1.6Z" transform="translate(-74.296 -2.391)"/><path class="b" d="M315.123,28.026c-1.084,1.18-2.781,1.763-5.1,1.763a9.973,9.973,0,0,1-2.058-.221,6.15,6.15,0,0,1-1.9-.73,4.486,4.486,0,0,1-1.416-1.32,3.725,3.725,0,0,1-.62-1.991h2.382a1.739,1.739,0,0,0,.406,1.092,3.109,3.109,0,0,0,.922.73,4.425,4.425,0,0,0,1.187.406,6.647,6.647,0,0,0,1.232.125,4.418,4.418,0,0,0,1.991-.406,3.737,3.737,0,0,0,1.342-1.121,4.618,4.618,0,0,0,.767-1.726,9.835,9.835,0,0,0,.236-2.213v-.951h-.059a4,4,0,0,1-1.866,1.977,5.783,5.783,0,0,1-2.648.627,6.41,6.41,0,0,1-2.832-.59,5.95,5.95,0,0,1-2.021-1.586,6.719,6.719,0,0,1-1.217-2.323,9.533,9.533,0,0,1-.406-2.817,10.776,10.776,0,0,1,.339-2.648,7.131,7.131,0,0,1,1.121-2.463,6.22,6.22,0,0,1,2.073-1.822,6.433,6.433,0,0,1,3.164-.715,5.309,5.309,0,0,1,2.522.6,4.238,4.238,0,0,1,1.792,1.807h.03V9.439h2.242V22.693a7.63,7.63,0,0,1-1.623,5.325Zm-3.039-6.52a3.836,3.836,0,0,0,1.328-1.291,5.9,5.9,0,0,0,.745-1.807,8.95,8.95,0,0,0,.236-2.021,8.094,8.094,0,0,0-.221-1.881,5.208,5.208,0,0,0-.715-1.667,3.741,3.741,0,0,0-1.276-1.195,3.822,3.822,0,0,0-1.9-.45,4.185,4.185,0,0,0-1.962.435,3.754,3.754,0,0,0-1.328,1.165,5,5,0,0,0-.76,1.682,8.005,8.005,0,0,0-.236,1.991,9.839,9.839,0,0,0,.2,1.962,5.591,5.591,0,0,0,.671,1.778,3.773,3.773,0,0,0,1.261,1.291,3.669,3.669,0,0,0,1.962.494,3.836,3.836,0,0,0,2.006-.494Z" transform="translate(-79.634 -2.388)"/><path class="b" d="M336.009,23.013a6.6,6.6,0,0,1-4.093,1.232,7.379,7.379,0,0,1-3.009-.561,6.046,6.046,0,0,1-2.146-1.571,6.675,6.675,0,0,1-1.305-2.412,12.021,12.021,0,0,1-.494-3.054,8.817,8.817,0,0,1,.5-3.024,7.324,7.324,0,0,1,1.416-2.382,6.447,6.447,0,0,1,2.161-1.571,6.556,6.556,0,0,1,2.736-.561,5.947,5.947,0,0,1,3.208.8,6.316,6.316,0,0,1,2.043,2.028,7.908,7.908,0,0,1,1.062,2.692,11.406,11.406,0,0,1,.236,2.773h-10.85a5.816,5.816,0,0,0,.221,1.807,4.165,4.165,0,0,0,.811,1.512,4.021,4.021,0,0,0,1.431,1.055,5,5,0,0,0,2.043.391,4.124,4.124,0,0,0,2.478-.7,3.406,3.406,0,0,0,1.276-2.132h2.353a5.808,5.808,0,0,1-2.1,3.673Zm-.575-9.308a4.068,4.068,0,0,0-3.8-2.5,4.225,4.225,0,0,0-1.667.325,3.809,3.809,0,0,0-1.276.885,4.312,4.312,0,0,0-.841,1.305,4.927,4.927,0,0,0-.361,1.586h8.327a4.927,4.927,0,0,0-.376-1.6Z" transform="translate(-85.282 -2.391)"/><path class="b" d="M355.03,9.618v-2.1h2.441V5.355A3.379,3.379,0,0,1,358.5,2.677a4.358,4.358,0,0,1,2.987-.907,6.422,6.422,0,0,1,.774.059,4.085,4.085,0,0,1,.767.17V4.071a3.083,3.083,0,0,0-.671-.155,5.578,5.578,0,0,0-.671-.044,2.257,2.257,0,0,0-1.342.339,1.486,1.486,0,0,0-.479,1.291V7.523h2.8v2.1h-2.8V22.016h-2.382V9.618h-2.441Z" transform="translate(-93.173 -0.465)"/><path class="b" d="M366.86,13.717a6.77,6.77,0,0,1,1.342-2.412,6.459,6.459,0,0,1,2.213-1.615,8.082,8.082,0,0,1,6.063,0,6.284,6.284,0,0,1,2.2,1.615,6.708,6.708,0,0,1,1.342,2.412,9.531,9.531,0,0,1,.45,2.987,9.406,9.406,0,0,1-.45,2.972,6.768,6.768,0,0,1-1.342,2.4,6.158,6.158,0,0,1-2.2,1.6,8.274,8.274,0,0,1-6.063,0,6.149,6.149,0,0,1-2.213-1.6,6.706,6.706,0,0,1-1.342-2.4,9.4,9.4,0,0,1-.45-2.972A9.564,9.564,0,0,1,366.86,13.717Zm2.427,5.325a4.937,4.937,0,0,0,.966,1.711A4.112,4.112,0,0,0,371.7,21.8a4.444,4.444,0,0,0,3.511,0,4.206,4.206,0,0,0,1.446-1.047,4.87,4.87,0,0,0,.966-1.711,7.145,7.145,0,0,0,.354-2.338,7.114,7.114,0,0,0-.354-2.338,5.149,5.149,0,0,0-.966-1.726,4.154,4.154,0,0,0-1.446-1.062,4.3,4.3,0,0,0-1.755-.361,4.424,4.424,0,0,0-1.755.361,4.063,4.063,0,0,0-1.446,1.062,5.009,5.009,0,0,0-.966,1.726,7.145,7.145,0,0,0-.354,2.338A7.114,7.114,0,0,0,369.286,19.042Z" transform="translate(-96.16 -2.388)"/><path class="b" d="M391.162,9.441v3.054h.059a6.454,6.454,0,0,1,2.132-2.6,5.35,5.35,0,0,1,3.194-.782v2.522a6.86,6.86,0,0,0-2.441.391,3.747,3.747,0,0,0-1.623,1.151,4.759,4.759,0,0,0-.9,1.837,10.052,10.052,0,0,0-.28,2.478v6.446H388.92V9.441Z" transform="translate(-102.067 -2.39)"/><path class="b" d="M415.443,2.08v8.607h10.54V2.08h2.663V22.09h-2.663V12.922h-10.54V22.09H412.78V2.08Z" transform="translate(-108.329 -0.546)"/><path class="b" d="M449.309,23.013a6.6,6.6,0,0,1-4.093,1.232,7.379,7.379,0,0,1-3.009-.561,6.045,6.045,0,0,1-2.146-1.571,6.675,6.675,0,0,1-1.305-2.412,12.021,12.021,0,0,1-.494-3.054,8.818,8.818,0,0,1,.5-3.024,7.2,7.2,0,0,1,1.416-2.382,6.448,6.448,0,0,1,2.161-1.571,6.546,6.546,0,0,1,2.729-.561,5.947,5.947,0,0,1,3.208.8,6.316,6.316,0,0,1,2.043,2.028,7.908,7.908,0,0,1,1.062,2.692,11.4,11.4,0,0,1,.236,2.773h-10.85a5.815,5.815,0,0,0,.221,1.807,3.975,3.975,0,0,0,2.242,2.567,5,5,0,0,0,2.043.391,4.124,4.124,0,0,0,2.478-.7,3.406,3.406,0,0,0,1.276-2.132h2.353a5.808,5.808,0,0,1-2.1,3.673Zm-.575-9.308a4.089,4.089,0,0,0-.87-1.305,4.146,4.146,0,0,0-1.291-.87,4.081,4.081,0,0,0-1.637-.325,4.225,4.225,0,0,0-1.667.325,3.81,3.81,0,0,0-1.276.885,4.312,4.312,0,0,0-.841,1.305,4.927,4.927,0,0,0-.361,1.586h8.327a4.927,4.927,0,0,0-.376-1.6Z" transform="translate(-115.016 -2.391)"/><path class="b" d="M472.063,23.873a3.374,3.374,0,0,1-1.711.361,2.026,2.026,0,0,1-1.468-.516,2.263,2.263,0,0,1-.546-1.7,5.752,5.752,0,0,1-2.286,1.7,7.534,7.534,0,0,1-2.817.516,7.654,7.654,0,0,1-1.866-.221,4.277,4.277,0,0,1-1.527-.7,3.419,3.419,0,0,1-1.025-1.246,4.13,4.13,0,0,1-.376-1.866,4.28,4.28,0,0,1,.42-2.021,3.648,3.648,0,0,1,1.106-1.276,5.154,5.154,0,0,1,1.571-.745,17.892,17.892,0,0,1,1.807-.42c.656-.133,1.276-.229,1.866-.3a10.032,10.032,0,0,0,1.556-.28,2.48,2.48,0,0,0,1.062-.531,1.318,1.318,0,0,0,.391-1.025,2.348,2.348,0,0,0-.3-1.261,2.055,2.055,0,0,0-.76-.73,3.137,3.137,0,0,0-1.04-.339,7.421,7.421,0,0,0-1.136-.081,5.025,5.025,0,0,0-2.522.575,2.433,2.433,0,0,0-1.092,2.176h-2.382a5.106,5.106,0,0,1,.561-2.272,4.242,4.242,0,0,1,1.342-1.5,5.685,5.685,0,0,1,1.918-.826,10.023,10.023,0,0,1,2.309-.251,13.156,13.156,0,0,1,1.947.14,5.233,5.233,0,0,1,1.755.575,3.327,3.327,0,0,1,1.261,1.217,3.9,3.9,0,0,1,.479,2.043v7.442a5.554,5.554,0,0,0,.1,1.232c.066.266.288.391.656.391a2.929,2.929,0,0,0,.73-.111v1.851Zm-3.872-7.427a3.045,3.045,0,0,1-1.18.487c-.487.1-1,.184-1.527.251s-1.069.14-1.608.221a5.947,5.947,0,0,0-1.46.406,2.58,2.58,0,0,0-1.047.8,2.253,2.253,0,0,0-.406,1.409A1.941,1.941,0,0,0,461.2,21a1.888,1.888,0,0,0,.62.656,2.512,2.512,0,0,0,.885.361,4.987,4.987,0,0,0,1.062.111,5.7,5.7,0,0,0,2.021-.317A4.25,4.25,0,0,0,467.158,21a3.092,3.092,0,0,0,.782-1.062,2.647,2.647,0,0,0,.251-1.077V16.439Z" transform="translate(-120.312 -2.388)"/><path class="b" d="M482.242,2.08V22.09H479.86V2.08Z" transform="translate(-125.933 -0.546)"/><path class="b" d="M493.344,8.014v2.1h-2.884v9a2.733,2.733,0,0,0,.066.671.648.648,0,0,0,.266.391,1.16,1.16,0,0,0,.546.184,7.569,7.569,0,0,0,.907.044h1.092v2.1h-1.822a8.855,8.855,0,0,1-1.586-.125,2.2,2.2,0,0,1-1.062-.465,1.952,1.952,0,0,1-.6-.951,5.424,5.424,0,0,1-.2-1.623v-9.22H485.6v-2.1h2.463V3.67h2.382V8.014h2.884Z" transform="translate(-127.44 -0.963)"/><path class="b" d="M501.495,2.08V9.729h.059a3.19,3.19,0,0,1,.782-1.136,4.436,4.436,0,0,1,1.136-.76,5.9,5.9,0,0,1,1.32-.435,6.453,6.453,0,0,1,1.328-.14,6.36,6.36,0,0,1,2.382.391,3.9,3.9,0,0,1,1.542,1.092,4.03,4.03,0,0,1,.826,1.667,9.15,9.15,0,0,1,.236,2.146v9.529h-2.382v-9.81a2.874,2.874,0,0,0-.782-2.132,2.922,2.922,0,0,0-2.161-.782,4.745,4.745,0,0,0-1.888.339,3.481,3.481,0,0,0-1.328.951,4.119,4.119,0,0,0-.8,1.446A5.878,5.878,0,0,0,501.5,13.9V22.09H499.12V2.08H501.5Z" transform="translate(-130.988 -0.546)"/><path class="b" d="M523.333,24.985v2.832a5,5,0,0,1-.73,2.744,3.956,3.956,0,0,1-2.353,1.623v-1.4a2,2,0,0,0,.8-.494,2.727,2.727,0,0,0,.516-.7,2.54,2.54,0,0,0,.265-.774,3.13,3.13,0,0,0,.044-.73H520.22V24.97h3.112Z" transform="translate(-136.525 -6.553)"/><path class="b" d="M232.007,42.244a6.194,6.194,0,0,0-3.629-1.062,6.478,6.478,0,0,0-3.068.671,6.154,6.154,0,0,0-2.1,1.807,7.721,7.721,0,0,0-1.217,2.6,11.765,11.765,0,0,0-.391,3.024,13.113,13.113,0,0,0,.391,3.238,7.806,7.806,0,0,0,1.217,2.663,5.994,5.994,0,0,0,2.117,1.807,6.581,6.581,0,0,0,3.083.671,5.954,5.954,0,0,0,2.338-.435,5.347,5.347,0,0,0,1.763-1.2,5.617,5.617,0,0,0,1.165-1.837,7.483,7.483,0,0,0,.5-2.3h2.663a9.076,9.076,0,0,1-2.6,5.886,8.437,8.437,0,0,1-6.055,2.1,9.674,9.674,0,0,1-4.064-.8,7.954,7.954,0,0,1-2.884-2.2,9.472,9.472,0,0,1-1.726-3.3,14.08,14.08,0,0,1-.575-4.093,13.309,13.309,0,0,1,.62-4.108,9.9,9.9,0,0,1,1.807-3.349,8.489,8.489,0,0,1,2.972-2.257,9.547,9.547,0,0,1,4.079-.826,10.3,10.3,0,0,1,2.972.42,8.039,8.039,0,0,1,2.493,1.232,6.913,6.913,0,0,1,1.822,2.036,7.407,7.407,0,0,1,.951,2.817h-2.663a4.968,4.968,0,0,0-1.977-3.194Z" transform="translate(-57.455 -10.219)"/><path class="b" d="M246.21,51.217a6.77,6.77,0,0,1,1.342-2.412,6.459,6.459,0,0,1,2.213-1.615,8.082,8.082,0,0,1,6.063,0,6.284,6.284,0,0,1,2.2,1.615,6.707,6.707,0,0,1,1.342,2.412,9.749,9.749,0,0,1,.45,2.987,9.4,9.4,0,0,1-.45,2.972,6.883,6.883,0,0,1-1.342,2.4,6.314,6.314,0,0,1-2.2,1.6,8.274,8.274,0,0,1-6.063,0,6.149,6.149,0,0,1-2.213-1.6,6.705,6.705,0,0,1-1.342-2.4,9.4,9.4,0,0,1-.45-2.972A9.563,9.563,0,0,1,246.21,51.217Zm2.419,5.325a4.937,4.937,0,0,0,.966,1.711,4.113,4.113,0,0,0,1.446,1.047,4.444,4.444,0,0,0,3.511,0A4.206,4.206,0,0,0,256,58.253a4.87,4.87,0,0,0,.966-1.711,7.9,7.9,0,0,0,0-4.676A5.149,5.149,0,0,0,256,50.14a4.154,4.154,0,0,0-1.446-1.062,4.3,4.3,0,0,0-1.755-.361,4.424,4.424,0,0,0-1.755.361A4.064,4.064,0,0,0,249.6,50.14a5.008,5.008,0,0,0-.966,1.726,7.9,7.9,0,0,0,0,4.676Z" transform="translate(-64.497 -12.23)"/><path class="b" d="M270.567,46.942v2.132h.059a5.657,5.657,0,0,1,7.125-1.9,3.16,3.16,0,0,1,1.542,1.9,5.1,5.1,0,0,1,1.918-1.822,5.439,5.439,0,0,1,2.618-.642,7.768,7.768,0,0,1,1.977.236,3.981,3.981,0,0,1,1.512.745A3.377,3.377,0,0,1,288.3,48.9a4.71,4.71,0,0,1,.354,1.918V61.435H286.27v-9.5a6.8,6.8,0,0,0-.111-1.261,2.6,2.6,0,0,0-.42-1.025,2.1,2.1,0,0,0-.856-.686,3.383,3.383,0,0,0-1.416-.251,3.746,3.746,0,0,0-2.773,1.01,3.644,3.644,0,0,0-1.01,2.692v9.028H277.3v-9.5a6.385,6.385,0,0,0-.125-1.291,2.732,2.732,0,0,0-.435-1.025,2.008,2.008,0,0,0-.826-.671,3.28,3.28,0,0,0-1.335-.236,3.541,3.541,0,0,0-1.778.42,4.047,4.047,0,0,0-1.873,2.227,3.418,3.418,0,0,0-.207,1.055V61.45H268.34V46.957h2.242Z" transform="translate(-70.422 -12.232)"/><path class="b" d="M302.6,46.942v2.132h.059a5.657,5.657,0,0,1,7.125-1.9,3.16,3.16,0,0,1,1.542,1.9,5.1,5.1,0,0,1,1.918-1.822,5.439,5.439,0,0,1,2.618-.642,7.768,7.768,0,0,1,1.977.236,3.981,3.981,0,0,1,1.512.745,3.377,3.377,0,0,1,.981,1.305,4.71,4.71,0,0,1,.354,1.918V61.435H318.3v-9.5a6.8,6.8,0,0,0-.111-1.261,2.6,2.6,0,0,0-.42-1.025,2.1,2.1,0,0,0-.856-.686,3.383,3.383,0,0,0-1.416-.251,3.746,3.746,0,0,0-2.773,1.01,3.644,3.644,0,0,0-1.01,2.692v9.028h-2.382v-9.5a6.385,6.385,0,0,0-.125-1.291,2.731,2.731,0,0,0-.435-1.025,2.008,2.008,0,0,0-.826-.671,3.28,3.28,0,0,0-1.335-.236,3.541,3.541,0,0,0-1.778.42,4.046,4.046,0,0,0-1.873,2.227,3.416,3.416,0,0,0-.207,1.055V61.45H300.37V46.957h2.242Z" transform="translate(-78.828 -12.232)"/><path class="b" d="M342.061,61.55v-2.3H342a4.849,4.849,0,0,1-1.932,1.977,5.787,5.787,0,0,1-2.773.627,6.534,6.534,0,0,1-2.382-.376,3.8,3.8,0,0,1-1.542-1.077,4.03,4.03,0,0,1-.826-1.667,8.774,8.774,0,0,1-.236-2.146V47.057h2.382v9.81A2.874,2.874,0,0,0,335.474,59a2.911,2.911,0,0,0,2.161.782,4.745,4.745,0,0,0,1.888-.339,3.565,3.565,0,0,0,1.335-.951,4.118,4.118,0,0,0,.8-1.446,5.878,5.878,0,0,0,.265-1.807V47.05H344.3V61.543h-2.242Z" transform="translate(-87.211 -12.348)"/><path class="b" d="M355.3,46.942v2.3h.059a5.013,5.013,0,0,1,4.706-2.633,6.36,6.36,0,0,1,2.382.391,3.9,3.9,0,0,1,1.542,1.092,4.03,4.03,0,0,1,.826,1.667,9.151,9.151,0,0,1,.236,2.146v9.529H362.67v-9.81a2.874,2.874,0,0,0-.782-2.132,2.922,2.922,0,0,0-2.161-.782,4.745,4.745,0,0,0-1.888.339A3.565,3.565,0,0,0,356.5,50a4.118,4.118,0,0,0-.8,1.446,5.877,5.877,0,0,0-.266,1.807v8.187H353.06V46.949H355.3Z" transform="translate(-92.656 -12.232)"/><path class="b" d="M373.87,42.493V39.58h2.382v2.913Zm2.382,2.6V59.59H373.87V45.1h2.382Z" transform="translate(-98.117 -10.387)"/><path class="b" d="M387.364,45.517v2.1h-2.884v9a2.732,2.732,0,0,0,.066.671.648.648,0,0,0,.266.391,1.16,1.16,0,0,0,.546.184,7.57,7.57,0,0,0,.907.044h1.092v2.1h-1.822a8.855,8.855,0,0,1-1.586-.125,2.2,2.2,0,0,1-1.062-.465,1.951,1.951,0,0,1-.6-.951,5.424,5.424,0,0,1-.2-1.623v-9.22H379.62v-2.1h2.463V41.18h2.382v4.344h2.884Z" transform="translate(-99.626 -10.807)"/><path class="b" d="M399.2,63.48a15.031,15.031,0,0,1-.826,1.792,4.686,4.686,0,0,1-.9,1.187,3.2,3.2,0,0,1-1.092.671,4.18,4.18,0,0,1-1.387.214,6.444,6.444,0,0,1-.841-.059,3.729,3.729,0,0,1-.811-.2V64.9a3.873,3.873,0,0,0,.715.236,2.967,2.967,0,0,0,.686.1,2.015,2.015,0,0,0,1.217-.354,2.2,2.2,0,0,0,.745-1l.981-2.441-5.746-14.4h2.692l4.234,11.853h.059l4.064-11.853h2.522L399.2,63.466Z" transform="translate(-102.86 -12.345)"/><path class="b" d="M436.183,61.373a3.374,3.374,0,0,1-1.711.361A2.026,2.026,0,0,1,433,61.218a2.263,2.263,0,0,1-.546-1.7,5.752,5.752,0,0,1-2.286,1.7,7.534,7.534,0,0,1-2.817.516,7.654,7.654,0,0,1-1.866-.221,4.277,4.277,0,0,1-1.527-.7,3.418,3.418,0,0,1-1.025-1.246,4.13,4.13,0,0,1-.376-1.866,4.28,4.28,0,0,1,.42-2.021,3.648,3.648,0,0,1,1.106-1.276,5.154,5.154,0,0,1,1.571-.745,17.9,17.9,0,0,1,1.807-.42c.656-.133,1.276-.229,1.866-.3a10.031,10.031,0,0,0,1.556-.28,2.48,2.48,0,0,0,1.062-.531,1.317,1.317,0,0,0,.391-1.025,2.348,2.348,0,0,0-.3-1.261,2.056,2.056,0,0,0-.76-.73,3.138,3.138,0,0,0-1.04-.339,7.421,7.421,0,0,0-1.136-.081,5.025,5.025,0,0,0-2.522.575,2.433,2.433,0,0,0-1.092,2.176h-2.382a5.106,5.106,0,0,1,.561-2.272,4.242,4.242,0,0,1,1.342-1.5,5.685,5.685,0,0,1,1.918-.826,10.024,10.024,0,0,1,2.309-.251,13.156,13.156,0,0,1,1.947.14,5.233,5.233,0,0,1,1.755.575,3.327,3.327,0,0,1,1.261,1.217,3.9,3.9,0,0,1,.479,2.043v7.442a5.554,5.554,0,0,0,.1,1.232c.066.266.288.391.656.391a2.929,2.929,0,0,0,.73-.111v1.851Zm-3.865-7.427a3.045,3.045,0,0,1-1.18.487c-.487.1-1,.184-1.527.251s-1.069.14-1.608.221a5.947,5.947,0,0,0-1.46.406,2.58,2.58,0,0,0-1.047.8,2.253,2.253,0,0,0-.406,1.409,1.941,1.941,0,0,0,.236.988,1.888,1.888,0,0,0,.62.656,2.513,2.513,0,0,0,.885.361,4.987,4.987,0,0,0,1.062.111,5.7,5.7,0,0,0,2.021-.317,4.25,4.25,0,0,0,1.372-.811,3.092,3.092,0,0,0,.782-1.062,2.647,2.647,0,0,0,.251-1.077V53.939Z" transform="translate(-110.896 -12.23)"/><path class="b" d="M446.075,46.942v2.3h.059a5.013,5.013,0,0,1,4.706-2.633,6.36,6.36,0,0,1,2.382.391,3.9,3.9,0,0,1,1.542,1.092,4.03,4.03,0,0,1,.826,1.667,9.15,9.15,0,0,1,.236,2.146v9.529h-2.382v-9.81a2.874,2.874,0,0,0-.782-2.132,2.922,2.922,0,0,0-2.161-.782,4.745,4.745,0,0,0-1.888.339,3.481,3.481,0,0,0-1.328.951,4.119,4.119,0,0,0-.8,1.446,5.878,5.878,0,0,0-.266,1.807v8.187H443.84V46.949h2.242Z" transform="translate(-116.48 -12.232)"/><path class="b" d="M474.911,59.587V57.626h-.059A3.5,3.5,0,0,1,473,59.366a7.067,7.067,0,0,1-2.773.531,6.512,6.512,0,0,1-2.928-.62,5.95,5.95,0,0,1-2.073-1.652,7.2,7.2,0,0,1-1.246-2.412,9.9,9.9,0,0,1-.42-2.913,10.152,10.152,0,0,1,.406-2.913,6.907,6.907,0,0,1,1.232-2.4,5.942,5.942,0,0,1,2.073-1.623,6.651,6.651,0,0,1,2.9-.6,7.074,7.074,0,0,1,1.2.111,6.1,6.1,0,0,1,1.291.376,5.593,5.593,0,0,1,1.217.7,3.767,3.767,0,0,1,.966,1.077h.059V39.57h2.382V59.58H474.9Zm-8.563-5.141a5.468,5.468,0,0,0,.811,1.726,3.957,3.957,0,0,0,1.4,1.2,4.215,4.215,0,0,0,2.006.45,4.1,4.1,0,0,0,2.043-.479,4.054,4.054,0,0,0,1.372-1.246,5.17,5.17,0,0,0,.767-1.755,8.648,8.648,0,0,0,.236-1.991,8.275,8.275,0,0,0-.251-2.058,5.233,5.233,0,0,0-.8-1.755,4.066,4.066,0,0,0-1.416-1.217,4.424,4.424,0,0,0-2.1-.465,4.045,4.045,0,0,0-2.043.479,3.74,3.74,0,0,0-1.342,1.261,5.393,5.393,0,0,0-.73,1.792,9.643,9.643,0,0,0-.221,2.073,7.467,7.467,0,0,0,.266,1.977Z" transform="translate(-121.655 -10.385)"/><path class="b" d="M507.03,39.58a6.184,6.184,0,0,1,4.58,1.556,5.891,5.891,0,0,1,1.556,4.359,5.938,5.938,0,0,1-1.556,4.374,6.083,6.083,0,0,1-4.58,1.542h-6.107V59.6H498.26V39.587h8.77Zm-.9,9.581a4.739,4.739,0,0,0,3.319-.922A3.514,3.514,0,0,0,510.5,45.5a3.486,3.486,0,0,0-1.055-2.736,4.888,4.888,0,0,0-3.319-.937h-5.215v7.346h5.215Z" transform="translate(-130.762 -10.387)"/><path class="b" d="M520.62,51.217a6.884,6.884,0,0,1,1.342-2.412,6.46,6.46,0,0,1,2.213-1.615,8.082,8.082,0,0,1,6.063,0,6.284,6.284,0,0,1,2.2,1.615,6.707,6.707,0,0,1,1.342,2.412,9.785,9.785,0,0,1,.45,2.987,9.4,9.4,0,0,1-.45,2.972,6.883,6.883,0,0,1-1.342,2.4,6.158,6.158,0,0,1-2.2,1.6,8.274,8.274,0,0,1-6.063,0,6.149,6.149,0,0,1-2.213-1.6,6.768,6.768,0,0,1-1.342-2.4,10.091,10.091,0,0,1,0-5.96Zm2.427,5.325a4.936,4.936,0,0,0,.966,1.711,4.112,4.112,0,0,0,1.446,1.047,4.444,4.444,0,0,0,3.511,0,4.207,4.207,0,0,0,1.446-1.047,4.87,4.87,0,0,0,.966-1.711,7.9,7.9,0,0,0,0-4.676,5.149,5.149,0,0,0-.966-1.726,4.154,4.154,0,0,0-1.446-1.062,4.3,4.3,0,0,0-1.755-.361,4.424,4.424,0,0,0-1.755.361,4.153,4.153,0,0,0-1.446,1.062,4.892,4.892,0,0,0-.966,1.726A7.153,7.153,0,0,0,522.7,54.2a7.321,7.321,0,0,0,.347,2.338Z" transform="translate(-136.512 -12.23)"/><path class="b" d="M545.182,39.58V59.59H542.8V39.58Z" transform="translate(-142.451 -10.387)"/><path class="b" d="M550.69,42.493V39.58h2.382v2.913Zm2.382,2.6V59.59H550.69V45.1h2.382Z" transform="translate(-144.522 -10.387)"/><path class="b" d="M567.026,49.47a3.633,3.633,0,0,0-2.412-.76,4.459,4.459,0,0,0-2.161.479,3.816,3.816,0,0,0-1.387,1.261,5.429,5.429,0,0,0-.745,1.807,9.5,9.5,0,0,0-.221,2.117,8.254,8.254,0,0,0,.236,1.962,5.12,5.12,0,0,0,.745,1.7,3.817,3.817,0,0,0,1.32,1.195,4.5,4.5,0,0,0,4.691-.472,4.143,4.143,0,0,0,1.217-2.6h2.441a6.627,6.627,0,0,1-2.006,4.145,6.3,6.3,0,0,1-4.388,1.46,7.541,7.541,0,0,1-2.928-.531,5.644,5.644,0,0,1-2.132-1.512,6.551,6.551,0,0,1-1.291-2.338,9.84,9.84,0,0,1-.435-2.987,10.619,10.619,0,0,1,.42-3.039,7.051,7.051,0,0,1,1.276-2.463,5.906,5.906,0,0,1,2.146-1.652,7.079,7.079,0,0,1,3-.6,8.661,8.661,0,0,1,2.316.3,5.628,5.628,0,0,1,1.9.915,4.943,4.943,0,0,1,1.357,1.556,5.684,5.684,0,0,1,.671,2.227H568.2a3.644,3.644,0,0,0-1.18-2.132Z" transform="translate(-146.327 -12.237)"/><path class="b" d="M583.508,63.48a15.035,15.035,0,0,1-.826,1.792,4.687,4.687,0,0,1-.9,1.187,3.2,3.2,0,0,1-1.092.671,4.181,4.181,0,0,1-1.387.214,6.444,6.444,0,0,1-.841-.059,3.729,3.729,0,0,1-.811-.2V64.9a3.876,3.876,0,0,0,.715.236,2.967,2.967,0,0,0,.686.1,2.015,2.015,0,0,0,1.217-.354,2.2,2.2,0,0,0,.745-1L582,61.445l-5.746-14.4h2.692l4.234,11.853h.059L587.3,47.04h2.522l-6.306,16.426Z" transform="translate(-151.23 -12.345)"/></svg>