<svg width="165" height="24" viewBox="0 0 165 24" fill="none" xmlns="http://www.w3.org/2000/svg">
<g clip-path="url(#clip0_228_3789)">
<path d="M77.3409 7.78275C76.6397 6.89441 75.4125 6.4006 74.2283 6.4006C71.0305 6.4006 69.1459 8.96549 69.1459 12.082C69.1459 15.1986 70.936 17.7635 74.2051 17.7635C75.391 17.7635 76.6345 17.2697 77.3418 16.3787L77.4269 17.5243H79.9801V6.64146H77.4269L77.3418 7.78362L77.3409 7.78275ZM74.658 15.5344C72.9401 15.5344 71.8659 14.0003 71.8659 12.0829C71.8659 10.1655 72.9401 8.63139 74.658 8.63139C75.9866 8.63139 76.8287 9.48606 77.3066 10.4512V13.7163C76.8287 14.6806 75.9866 15.5361 74.658 15.5361V15.5344ZM91.6719 10.5963V17.5243H88.9992V10.8363C88.9992 9.70966 88.3547 8.7747 87.1378 8.7747C85.8479 8.7747 84.7719 9.84434 84.2744 10.9148V17.5243H81.6017V6.68894H84.179L84.2537 8.19369C85.0813 6.99628 86.4048 6.47311 87.7101 6.47311C90.2393 6.47311 91.671 8.12721 91.671 10.5963H91.6719ZM38.7696 3.83657H41.5849V12.2987C41.5849 15.9902 39.1271 17.7643 35.7386 17.7643C32.1593 17.7643 30.0117 15.8228 30.0117 12.3946V3.83657H32.827V12.1071C32.827 14.2403 34.068 15.3194 35.8099 15.3194C37.5519 15.3194 38.7687 14.2403 38.7687 12.1071V3.83657H38.7696ZM60.8177 7.52808C60.8177 8.55887 61.8679 8.96635 63.3709 9.22966C66.0195 9.68549 68.4301 10.5238 68.4301 13.5928C68.4301 16.3977 66.1871 17.7635 63.0848 17.7635C59.5055 17.7635 57.3819 15.7977 57.4773 12.6095H60.3408C60.3648 14.4078 61.3669 15.4144 63.0848 15.4144C64.4924 15.4144 65.4231 14.9828 65.4231 13.832C65.4231 12.6812 64.5405 12.1779 62.6791 11.8662C60.4362 11.4829 57.8116 10.7871 57.8116 7.76722C57.8116 5.1065 60.0546 3.59657 62.9662 3.59657C66.1158 3.59657 68.3828 5.29815 68.4309 8.10304H65.5675C65.5194 6.85642 64.5655 5.94563 62.9662 5.94563C61.7252 5.94563 60.8186 6.5206 60.8186 7.52808H60.8177ZM42.7786 3.83657H54.3759V6.73729L49.9853 5.63484V17.5243H47.17V5.63398L42.7794 6.73642V3.8357L42.7786 3.83657ZM132.523 6.44894C129.183 6.44894 127.106 8.72635 127.106 12.1062C127.106 15.4861 129.183 17.7635 132.523 17.7635C135.863 17.7635 137.94 15.4861 137.94 12.1062C137.94 8.72635 135.863 6.44894 132.523 6.44894ZM132.523 15.5828C130.781 15.5828 129.803 14.0728 129.803 12.1071C129.803 10.1413 130.781 8.63139 132.523 8.63139C134.265 8.63139 135.243 10.1413 135.243 12.1071C135.243 14.0728 134.265 15.5828 132.523 15.5828ZM150.396 3.04578H153.26V5.63484H150.396V3.04578ZM159.583 6.44894C156.243 6.44894 154.166 8.72635 154.166 12.1062C154.166 15.4861 156.243 17.7635 159.583 17.7635C162.923 17.7635 165 15.4861 165 12.1062C165 8.72635 162.923 6.44894 159.583 6.44894ZM159.583 15.5828C157.841 15.5828 156.863 14.0728 156.863 12.1071C156.863 10.1413 157.841 8.63139 159.583 8.63139C161.325 8.63139 162.303 10.1413 162.303 12.1071C162.303 14.0728 161.325 15.5828 159.583 15.5828ZM150.492 6.68894H153.164V17.5243H150.492V6.68894ZM119.137 10.5963V17.5243H116.464V10.8363C116.464 9.70966 115.819 8.7747 114.603 8.7747C113.313 8.7747 112.237 9.84434 111.739 10.9148V17.5243H109.066V6.68894H111.644L111.719 8.19369C112.546 6.99628 113.87 6.47311 115.175 6.47311C117.704 6.47311 119.136 8.12721 119.136 10.5963H119.137ZM149.012 10.5963V17.5243H146.339V10.8363C146.339 9.70966 145.695 8.7747 144.478 8.7747C143.188 8.7747 142.112 9.84434 141.614 10.9148V17.5243H138.942V6.68894H141.519L141.594 8.19369C142.421 6.99628 143.745 6.47311 145.05 6.47311C147.579 6.47311 149.011 8.12721 149.011 10.5963H149.012ZM97.5895 3.83657L99.1063 5.84722L94.9882 17.5243H97.8035L98.9207 14.2645H104.412L105.511 17.5243H108.423L103.722 3.83657H97.5895ZM99.7259 11.9146L100.835 8.67801L101.673 5.90592L102.529 8.67801L103.621 11.9146H99.7268H99.7259ZM124.028 6.68894H126.868V8.87052H124.028V13.7128C124.028 14.9111 124.362 15.3428 125.579 15.3428H126.868V17.5243H124.935C122.238 17.5243 121.356 16.1344 121.356 14.0245V8.87052H119.638V6.68894H121.356V4.72319L124.028 3.38074V6.68894Z" fill="white"/>
<path d="M11.4933 5.14789C11.5328 5.52774 11.6325 6.00688 11.7124 6.34616C12.7462 10.3813 17.1213 11.9395 22.709 10.781V6.64573C18.2746 7.56429 12.7866 7.04544 11.5337 1.97091H11.1753C9.92234 7.0463 4.43437 7.56515 0 6.64659V10.7818C5.58766 11.9404 9.96273 10.3821 10.9966 6.34702C11.0765 6.00774 11.1753 5.52774 11.2157 5.14875H11.4941L11.4933 5.14789ZM11.5337 8.94386C12.5873 13.4184 17.2605 14.6771 22.6093 13.6187C22.3111 15.2564 21.6545 16.8146 20.6405 18.0932C14.6747 18.4126 12.0106 16.1154 11.4933 12.12H11.2148C10.6975 16.1154 8.03344 18.4126 2.06766 18.0932C1.05359 16.8146 0.397031 15.2564 0.0988281 13.6187C5.44758 14.6771 10.1209 13.4193 11.1745 8.94386H11.5328H11.5337ZM11.6127 0.0146484C13.3031 4.38904 18.9905 4.56947 22.709 3.80976V0.0146484H11.6127ZM11.0962 0.0146484H0V3.80976C3.71852 4.5686 9.40586 4.38904 11.0962 0.0146484ZM11.1951 15.9151C10.4199 18.9116 7.87445 20.4699 5.48797 20.7893L11.3541 23.9853L17.2202 20.7893C14.8337 20.4699 12.2891 18.9116 11.513 15.9151H11.1951Z" fill="white"/>
</g>
<defs>
<clipPath id="clip0_228_3789">
<rect width="165" height="24" fill="white"/>
</clipPath>
</defs>
</svg>
